<svg width="24" height="24" fill="none" xmlns="http://www.w3.org/2000/svg"><path d="M12.386 1.143l1.273 2.58c.076.153.22.258.388.282l2.847.413c.422.061.59.58.285.877l-2.06 2.01a.512.512 0 00-.148.456l.487 2.835a.514.514 0 01-.746.542l-2.546-1.34a.513.513 0 00-.478 0l-2.546 1.34a.514.514 0 01-.745-.542l.486-2.835a.518.518 0 00-.147-.456L6.67 5.295a.515.515 0 01.285-.877l2.847-.413a.516.516 0 00.388-.282l1.273-2.58a.514.514 0 01.923 0z" fill="#eaf0ce"/><path d="M6.3 13.162l1.246 2.527c.076.153.22.257.388.281l2.787.405c.422.061.59.58.285.878L8.99 19.216a.512.512 0 00-.148.456l.477 2.777a.514.514 0 01-.746.542L6.08 21.68a.513.513 0 00-.478 0l-2.495 1.312a.514.514 0 01-.745-.542l.476-2.777a.518.518 0 00-.147-.456L.67 17.251a.515.515 0 01.285-.878l2.787-.405a.516.516 0 00.388-.28l1.246-2.527a.516.516 0 01.924.001zm12.171 0l1.247 2.527a.51.51 0 00.387.281l2.788.405c.421.061.59.58.284.878l-2.018 1.966a.512.512 0 00-.147.456l.477 2.777a.514.514 0 01-.746.542l-2.494-1.312a.513.513 0 00-.479 0l-2.494 1.312a.514.514 0 01-.746-.542l.477-2.777a.518.518 0 00-.148-.456l-2.017-1.968a.515.515 0 01.284-.878l2.788-.405a.516.516 0 00.387-.28l1.246-2.527a.516.516 0 01.924.001z" fill="#fff"/></svg>