<svg width="24" height="24" fill="none" xmlns="http://www.w3.org/2000/svg"><path d="M19.9 14.594l-10.84 3.75c-.26.09-.4.37-.31.64l.99 2.87c.11.31.44.47.75.36l3.13-1.08c2.93-1.01 5.41-3.03 6.99-5.69.15-.29.05-.64-.24-.8a.553.553 0 00-.47-.05zm-12.41 5.34a.506.506 0 00-.64-.31l-4.65 1.62c-.56.18-.87.79-.68 1.35.18.56.79.87 1.35.68.01 0 .02-.01.03-.01l4.66-1.61c.26-.09.4-.37.31-.64l-.38-1.08zM22.5.514H8c-.83 0-1.5.67-1.5 1.5v2.6c0 .28-.22.5-.5.5-.04 0-.08 0-.11-.01-1.11-.29-2.25-.49-3.39-.59a2.5 2.5 0 000 5c1.14-.14 2.27-.34 3.39-.62a.503.503 0 01.61.49v2.63c0 .83.67 1.5 1.5 1.5h14.5c.83 0 1.5-.67 1.5-1.5v-10c0-.83-.67-1.5-1.5-1.5zm-20 7.5c-.55 0-1-.45-1-1s.45-1 1-1 1 .45 1 1-.45 1-1 1z" fill="#008482"/></svg>