<svg width="24" height="24" fill="none" xmlns="http://www.w3.org/2000/svg"><g clip-path="url(#clip0)" fill="#eaf0ce"><path d="M19.651 6.246h-1.248a.494.494 0 01-.499-.5v-1.25c0-.279.22-.499.5-.499h.748c.41 0 .749-.34.749-.75a.755.755 0 00-.749-.749H15.07a.51.51 0 01-.49-.39 2.741 2.741 0 00-5.34.01c-.05.22-.25.38-.48.38H4.677c-.409 0-.748.34-.748.75s.34.75.748.75h.75c.279 0 .498.22.498.499v1.249c0 .28-.22.5-.499.5H4.177a.754.754 0 00-.748.75c0 .409.339.749.748.749h1.248c.28 0 .5.22.5.5v4.246c0 2.579 1.287 3.498 2.495 3.498h6.988c1.208 0 2.496-.92 2.496-3.498V8.244c0-.28.22-.5.5-.5h1.247a.748.748 0 100-1.499zm-6.659-3.868c-.04.07-.12.12-.21.12h-1.736c-.14 0-.25-.11-.25-.25 0-.04.01-.09.03-.12a1.252 1.252 0 012.166 0c.05.07.05.17 0 .25zM5.006 18.727a6.556 6.556 0 00-1.328 3.008 2.176 2.176 0 002.097 2.248h.15c1.197.04 2.206-.9 2.246-2.098v-.15a6.454 6.454 0 00-1.328-3.008 1.133 1.133 0 00-1.578-.27c-.1.08-.19.17-.26.27zm5.94-.7a7.474 7.474 0 00-1.528 3.458 2.423 2.423 0 002.337 2.508h.17a2.422 2.422 0 002.505-2.338v-.17a7.563 7.563 0 00-1.527-3.457 1.199 1.199 0 00-1.668-.28c-.13.08-.22.17-.29.28zm6.04.7a6.555 6.555 0 00-1.328 3.008 2.25 2.25 0 002.246 2.248 2.25 2.25 0 002.246-2.248 6.454 6.454 0 00-1.327-3.008 1.133 1.133 0 00-1.578-.27c-.1.08-.19.17-.26.27z"/></g><defs><clipPath id="clip0"><path fill="#fff" d="M0 0h24v24H0z"/></clipPath></defs></svg>