<svg width="14" height="12" fill="none" xmlns="http://www.w3.org/2000/svg"><path d="M13.89 2.35a.3.3 0 00.037-.424.34.34 0 00-.158-.103l-.478-.12a.302.302 0 01-.218-.37l.018-.055.266-.539a.303.303 0 00-.14-.406.318.318 0 00-.211-.018l-1.212.34a.322.322 0 01-.266-.05 3.03 3.03 0 00-4.846 2.423v.219a.15.15 0 01-.134.151c-1.702.2-3.332-.666-5.088-2.69a.313.313 0 00-.31-.09.3.3 0 00-.175.254c-.242 1-.145 2.048.279 2.98a.16.16 0 01-.067.207c-.03.012-.06.018-.09.012l-.68-.133a.302.302 0 00-.345.248.33.33 0 000 .11 3.117 3.117 0 001.436 2.289c.073.036.11.127.073.2a.168.168 0 01-.073.073l-.321.127a.301.301 0 00-.17.394c.006.006.006.018.012.024a2.636 2.636 0 001.939 1.502.15.15 0 01.09.194.167.167 0 01-.09.09 6.707 6.707 0 01-2.599.504.305.305 0 00-.363.242.305.305 0 00.242.363 12.097 12.097 0 004.931 1.17 7.626 7.626 0 004.24-1.212 7.582 7.582 0 003.369-6.318V3.41a.3.3 0 01.109-.23l.993-.83z" fill="#EAF0CE"/></svg>