<svg width="28" height="28" fill="none" xmlns="http://www.w3.org/2000/svg"><g clip-path="url(#clip0)"><path d="M17.606 14.277a.391.391 0 010-.554l9.705-9.705c.92-.92.92-2.41 0-3.327a2.35 2.35 0 00-3.326 0l-9.708 9.703a.391.391 0 01-.554 0L4.017.688a2.35 2.35 0 00-3.326 0 2.35 2.35 0 000 3.327l9.705 9.705c.153.153.153.4 0 .554L.688 23.982a2.35 2.35 0 000 3.327c.92.92 2.41.92 3.327 0l9.705-9.706a.391.391 0 01.554 0l9.705 9.706c.92.92 2.41.92 3.327 0 .92-.92.92-2.41 0-3.327l-9.7-9.705z" fill="#fff"/></g><defs><clipPath id="clip0"><path fill="#fff" d="M0 0h28v28H0z"/></clipPath></defs></svg>