<svg width="1540" height="25" fill="none" xmlns="http://www.w3.org/2000/svg"><path fill-rule="evenodd" clip-rule="evenodd" d="M1538.81 15.565c-.87.053-12.1.053-12.1.053.06-.586-3.25-.053-3.52.214-.55.533-.87.48-2.01.48-1.52 0-3.04-.054-4.56-.107-1.08 0-.76.48-1.51.48-1.36-.054-2.72-.054-4.02-.054-.76 0-7.1-.32-7.05.16.06.587-3.09-.266-3.52-.32-2.12-.266-3.64.267-5.05.427.06 0 .16-.533-.22-.533-.65 0 0 .426-.27.48-1.14.32-2.93-.054-4.01-.054-1.36-.053-2.71-.053-4.07-.053-.76 0-.38-.533-1.52-.533-.16 0 .27.533-.21.533-.44-.053-.87-.053-1.31-.053-1.08 0-.59.32-1.03.48-1.62.639-4.77-.107-6.56-.107-.76 0-.38.48-1.52.48-.7 0-.27-.587-.7-.534-2.12.16-4.23-.16-6.35-.106-.92 1.28-2.06.586-4.07.906-.75.107-.81.48-2.06.48-1.24 0-2.55-.107-3.79-.054-.11 0-.98-.533-1.74-.533-1.35-.053-1.95-.16-2.55.427-.43.373-3.58-.053-4.01-.053h-1.3c-.6 0 .05-.427-.22-.48-.49-.16-1.25-.054-1.79-.054-.6-.053.05.427-.22.534-.81.266-2.17-.054-3.03-.054-1.25-.053-.82.373-2.01.48-1.68.107-3.36-.053-5.04-.107-1.04 0-2.01-.053-3.04-.053-1.2-.053-.06.053-.54.48-.6.586-.98-.48-.98-.533-.22-.107-.92.48-1.52.48-.81 0-.38-.534-1.52-.534-.16 0 .27.587-.27.48-.43-.053-.81-.053-1.25-.053-1.03 0-2-.053-3.03-.053-1.14 0-2.34-.054-3.53-.054-.43 0-1.25.48-1.03.48-1.19-.053-.81-.373-2.01-.533-1.08-.16-2.22 0-3.3-.053-.28 0-1.25.906-2.28.48-.27-.107.16-.374-.49-.534-.49-.106-1.03 0-1.52 0-.6-.053-1.46-.16-2.01-.053-.21.053.33.533-.21.533a7.245 7.245 0 00-1.52 0c-.6 0 0-.426-.22-.533-.54-.16-1.25 0-1.79-.053-.65-.054.06.373-.27.533-.81.32-2.6-.054-3.53-.054-.43-.693-1.08-.32-1.51-1.012-.98 0-3.58.746-4.07 1.439-2.01-.053-4.02-.053-6.08-.107-1.62-.053-2.38-.586-3.52-.586.32 0-.33.48-.54.48-.44.106-1.09 0-1.52 0-.65 0-1.36 0-2.01-.054-1.19-.053-.05.054-.49.48-.7.64-1.41-.48-1.52-.533-.48-.32-2.38-.053-3.03-.053-.82 0-4.13 1.386-5.05.426-.54-.533-1.08-.48-2.28-.533-.65-.053.22.533-.75.48-.49 0-1.04 0-1.52-.053-2.55-.054-3.75.426-6.57.373-3.09-.054-6.23-.213-9.32-.16-.06 0-1.14-1.173-1.74-.533-.6.586-.76.266-2.01.48-.97.16-1.41.426-2 .48-1.25.052-.76-.587-2.01-.534.16 0-.49.48-1.03.48-1.19 0-2.33-.053-3.53-.053-1.14 0-2.38-.16-3.52-.054-.71.054-.22.373-.54.48-1.58.64-4.89-.107-6.57-.107-1.24-.053-1.46.48-3.03.427-.49 0-5.1-.32-5.05.16.06.426-1.63.213-2 .213-.76 0-.22-.426-.49-.48-1.3-.48-1.41.48-2.55.427-.76 0-1.52-.054-2.28-.054-.6.054.16-.533-.49-.533-.54 0 0 .48-.76.48-.32 0-1.79-.266-2-.053-.49.48-.44.48-1.52.48-.87 0-1.68-.054-2.5-.054-2-.053-3.2.32-4.55.427-2.34.213-4.72-.16-7.05-.107-.87 0-.11.48-1.04.48-1.19 0-2.33-.053-3.52-.053-.76 0-1.52-.107-2.28-.054-.59.053.16-.586-.49-.533-1.03.053-1.3.48-2.76.48-1.58-.053-1.79-.533-3.04-.587.33 0-1.14.48-1.52.48-.76.054-1.57 0-2.28-.053-.1 0-.97.48-1.73.48-1.52-.054-3.04-.054-4.56-.107-2.28-.053-2.71-.426-4.55-.586-1.69-.107-2.44.533-3.53.426-.16 0 .33-.533-.22-.533-.38.053-.92.053-1.24 0-.87-.213-.93-.16-1.52-.533-.22.267-.98 1.013-1.25 1.013-1.63-.107-3.2-.053-4.83-.107-2.49-.053-3.79.8-6.56.373-.38-.053-1.73-.213-2.01-.533-.38-.373.11-.213-.48-.48-.06.054-.66.534-.49.48-.92.373-1.3.48-2.55.427-1.25 0-.76-.533-2.01-.533.27 0-1.08.48-1.52.48-.32 0-2.33.213-2.49-.054-.11-.16-.92-1.12-1.52-.533-.81.746.05.053-.49 0-.38-.053-2.28-.32-2.49-.053-.76.746.05.053-.49 0-1.95-.16-2.33-.054-3.04.96-1.03 0-2.06.053-3.04-.054.33.053-.54-1.173-.48-.267.05.48-.66.267-1.03.267-.76 0-1.79-.213-2.5-.053-.22.053-.76.48-.54.48-.71 0-1.9-1.12-2.5-.534-.59.587-1.19.48-2.55.427-3.63-.053-7.21-.053-10.08-.693-.17.266-.44.373-.55.48-.54.746-1.57.693-2-.054-.71 0-1.79.16-2.5-.053-.7-.16-.11-.267-.49-.533-.54-.373-.59-.48-1.51-.533-.33.48-1.04 1.013-1.79.96-.38-.054-.22.213-.28.533 0 .959-1.24.48-2 .48-1.2 0-2.39-.054-3.53-.054-.76 0-3.2-.853-3.52-.533-.49.426-.44.48-1.52.48-.6 0-1.09.48-1.03.48-1.03.053-1.96-.534-3.53-.587-.27 0-1.95 1.173-2.55.48-1.08-1.386-4.06.426-5.53.373-.7-1.066-2.82 0-3.52-1.066-.66.213-1.79.906-2.55.96-.87.053-2.88-1.173-3.53-.534-.54.533-.27.373-1.52.48-1.14.053-2.38-.053-3.52-.053-1.52 0-3.04-.054-4.56-.054-1.08 0-.6-.32-.98-.533-2.06-.906-6.34-.106-8.56-.16-1.09 0-.76.48-1.52.48-1.03 0-2.01-.053-3.04-.053-3.85-.053-7.76-.16-11.61-.213-1.19 0-2.33-.054-3.52-.054-.87 0-.06-.48-.98-.48-1.25-.053-1.84.48-3.52.427-1.14 0-.71-.48-1.52-.533-1.09-.053-.6.32-1.03.48-1.09.426-1.2-.32-1.52-.533-.38-.267-1.57-.054-2.01-.054-.92 0-.11.533-1.03.48.22 0-.49-.533-.98-.533-4.61-.107-7.75.373-12.63.267-3.09-.054-9.87-1.12-12.15.266-.44-.693-1.09-1.226-1.52-.533-1.46-.053-1.14-.533-2.01-.533.17 0-.16.48-.49.48-.48 0-1.03 0-1.51-.054-.71 1.066-6.57.107-6.57.16.06.373-3.09.427-3.03-.053.1-.853-2.88.213-3.04.213.22 0-.27-.426-.49-.48-.38-.106-.87 0-1.25-.053-.27 0-.43.48-1.24.48-1.69-.053-3.53-.213-4.56.426-.38-.533-2.71-1.066-3.53-1.066-1.19 0-1.35.48-2.06.48-.43 0-.86 0-1.24-.053-.6-.054 0 .426-.28.48-1.08.32-2.11-.16-2.49-.534-.65-.693-1.52.48-1.52.48-1.19.48-1.35-.533-2.01-.533-.7 0-.48.427-1.51.48.43 0-1.09-1.333-.98-.267 0 .533-1.14.214-1.52.214-.7-1.067-1.63-1.013-3.52-1.067-.44.64-1.09.32-1.52.96-1.25-.053-.76-.533-2.01-.533-.49 0-1.57-.213-2.01-.053-.27.106.38.586-.27.48-1.08-.107-2.22-.054-3.31-.054-.65 0-.81-.533-2-.533-.76 0-.44.48-1.52.48-1.68 0-3.36-.054-5.05-.107-2.49-.053-4.82.213-6.56.373.22 0-.11-.96-.49-.48-.38.427 0 .587-1.03.48-1.14-.16-.81-.533-2-.533.27 0-.33.427-.49.48-.44.107-1.09 0-1.52 0-1.36-.053-2.71-.107-4.01-.053-.11 0 .21.533-.28.48-.54 0-.05-.48-.21-.534-.82-.16-2.23-.213-3.04-.053-1.25.267-.65 0-2.494-.053-3.254-.054-5.424.853-7.539-.64-.922 1.333-5.207 1.386-6.075-.107-.759.054-2.061.48-3.525.427-1.085-.053-.597.266-1.03.48.162-.054-1.736.373-1.031.48-1.356-.214-2.603-.534-4.556-.587-2.495-.053-2.929.427-5.044.427-.542.799-.163.213-1.03 0-1.248-.32-1.953.32-2.495-.534-.326.107-2.332 1.653-3.038.96-.162-.16-.216-.267-.216-.373 0 .053-.109.213-.272.32-.271.266-2.115-.054-2.549-.054-2.712 0-5.369-.106-8.081-.16-2.224-.053-5.098.214-6.563-.64-.488-.266.109-.426-.976-.532-.163.266-.434.373-.542.48-.705 1.012-2.821-.107-3.526.906-1.193 0-1.03-.533-2.495-.533-1.084 0-1.41-.107-2.006-.534-.597.853-1.953.587-2.549 1.44-1.248 0-.76-.533-2.007-.533-1.193 0-2.332-.054-3.526-.054-3.037-.053-6.074-.106-9.057-.16-.705 0-.868.48-2.061.48-.76 0-.38-.48-1.519-.533-.976 0-2.061-.213-3.037-.053-.759.107-.38.48-1.519.48.163 0-.108-.48-.488-.533-.488-.054-1.03 0-1.518 0-1.682-.107-3.363-.054-5.045-.107a269.409 269.409 0 00-6.562-.107c-.651 0-3.58.373-4.068-.053-.542-.533-.759-.48-2.007-.533-.325 0-2.278-.267-2.495-.053-.867 1.013-4.393.426-6.074.373-1.302 0-3.309 1.172-5.044.426-.271-.106.379-.586-.217-.533-.326.053-1.031.107-1.302 0 0 0-.379-1.066-.976-.533-.542.48-.271.48-1.519.48-1.518-.053-3.037-.053-4.556-.053-1.518-.054-3.037-.054-4.555-.107-.76 0-.38-.48-1.519-.533.325 0-1.085.48-1.519.48-.813 0-1.681-.054-2.495-.054-2.278-.053-2.711.16-3.525-1.066-1.519-.053-2.007 0-3.037.427-.326.16.217.48-.488.48-.489 0-1.573.16-2.007-.054-.326-.16.271-.533-.488-.533-.76 0-.217.373-.488.48-1.139.48-1.411-.427-2.007-.533-1.736-.32-3.797-.053-5.532-.107-1.031 0-2.007-.053-3.038-.053-.705 0-.271-.427-.488-.48-1.084-.32-2.061.48-2.278.48-1.573-.213-3.2-.053-4.772-.107.325 0-.543-1.172-.489-.266 0 .48-.65.266-1.03.266-1.736-.053-1.627-.533-3.525-.586-.706 0-.977.213-.977-.533 0-.693-1.139-.906-1.518-.533-1.085.96-.489 1.013-1.628 1.013-.867 0-1.681-.054-2.494-.054-.76 1.12-3.2.373-4.068-.053-.543.8-1.193.96-2.549.96-.868 0-1.682 0-2.549-.054-.597 0-1.085-.533-.977-.533-1.247-.107-.759.587-2.006.48.108 0-.38-.48-.977-.533-.379 0-1.573-.267-1.518.213.054.427-3.688.16-4.285.16-.217 0-.542-.48-1.248-.533-1.138-.107-2.386.107-3.525-.053-.542-.107-2.007-1.013-2.495-.533-.488.48.109.48-1.03.48-.326 0-1.79.212-2.007-.054-.542-.533-.868 0-2.549-.053-3.363-.054-4.719-.533-7.593-.16-.597-.96-1.356-1.013-2.983-1.066-.488.746-.326.266-1.519.48-.108 0-1.464.48-1.03.48-1.139.053-.706-.374-1.519-.534-.814-.16-1.736-.053-2.549-.053-1.682 0-1.953.533-2.495-.053-.597-.587-4.719-.054-5.532-.107-.76 0-.217.48-.76.48-.271 0-.434-.48-1.247-.533-.054 0 .217.533-.271.533-.434 0-.217-.533-.217-.533-1.79.053-2.061.266-3.526-.054-.488-.106-3.091.213-3.037-.266.163-1.066-1.193.32-1.03.213-.326.213-2.116.107-2.007-.267.054-.48-1.898-.266-2.278-.266-.651-.053.217.533-.759.48-.434 0-.868-.054-1.248 0-.271 0-.434-.533-1.247-.533-1.193 0-1.356-.533-2.007-.533-1.193-.054-2.332-.054-3.525-.054-.705 0-.868.48-2.007.48-.434 0-.868-.053-1.302 0-.596.053 0-.48-.217-.533-1.247-.32-5.044.16-5.044.16.163-.64-1.735 0-2.007-.267-.271-.266-.271-.64-.488-1.012-.325 0-2.061.48-2.061.692.055.32-3.037.32-3.525.16-.271-.053-.109-.48-1.031-.533-.813-.053-.162.267-.488.48-.542.373-2.874 0-3.525-.053-.054 0 .163-.64-.488-.48-.217.053.325.533-.271.48-1.248-.053-2.55-.053-3.797-.053-1.519-.054-1.193-.64-2.495-.054-.38-.586-.651-.64-1.79-.533-.325.053-.596-.8-.705-1.013-1.03 0-1.518.48-2.061.96-.379.373-.217-.107-.488.48-.868 0-1.681 0-2.549-.054-.326-.48.108-.533-.759-.48-.76 0 .054-.906.271-.532-.38-.64-.38-.587-.976-1.013-.055 1.812-.489 1.013-1.031 1.972-1.844-.053-3.688-.053-5.532-.107-.705 0-.488-.426-1.519-.533-.868-.106-1.573.48-1.79.48-1.139-.107-.759-.213-1.247-.533-1.247-.853-.271-.107-1.031.48-.759.586-.976-.373-1.518.48-.814-.267-2.82-1.28-3.037-.534-.38 0-3.092.214-3.038-.32.163-.852-.976.16-1.03.214-1.898 0-.543-1.44-1.519-.533-.271.266-1.085-.48-1.03.213.054.48-3.58.213-4.068.213a311.04 311.04 0 00-7.051-.106c-1.464 0-1.302-.533-2.495-.533.326 0-.379.48-.542.48-.597.16-1.41 0-2.007-.054-1.681-.053-3.363-.053-5.044-.107-1.464 0-.759-.746-1.519 0-.216.214-2.766.054-3.037-.053-.271-.106.163-.373-.488-.533-.651-.107-1.356 0-2.007 0-.705 0-.271.427-.488.48-.596.16-1.41-.053-2.007-.053-1.681-.054-3.362-.054-5.044-.107-1.247-.053-.759-.533-2.006-.533.325 0-.38.48-.488.48-.434.106-1.085 0-1.519 0-1.519 0-3.037-.054-4.556-.054-1.681-.053-3.363-.053-5.044-.106-.759 0-.38-.533-1.519-.533-.705 0-.867.48-2.006.48-1.139 0-1.465 0-2.007-.534-.922-.96-3.905.427-4.556.427-1.193-.053-1.356-.533-2.007-.533-.759 0-1.03.533-1.247.48-1.193-.16-5.587.64-6.292-.107-.868-.853.054.106-.759 0-.922-.107-1.898-.053-2.766-.053-.922-.64.054-.16 0-.48-.054-1.066-.488-.053-.976-.533v-.533c-.434-.32-1.899-.267-1.031.48.542.426 1.139 1.012-.542.959-.814 0-1.736.053-2.549-.053-1.248-.16-1.302-.48-2.766-.587-.651-.053.216.533-.76.48h-2.007c-.759-1.173-1.572-.213-2.006.48-.814 0-1.519.32-1.519-.533 0-1.28 0-.746-1.247-1.013-.217-.053-.651 1.28-.814 1.492-1.247 0-.976-.16-1.519-.533-.65-.426-1.084.48-1.03.48-.976.053-2.007-.053-3.037-.053-.868 0-.055-.48-1.031-.533-1.79-.053-1.952.48-3.525.426-.922 0-1.844 0-2.766-.053-.272 0-.434.533-1.248.48-.705 0-.271-.533-.759-.533-.759.053-1.519 0-2.278 0-1.953-.054-2.169.48-4.068.426l-8.569-.16c-1.465-.053-1.465.213-1.519-1.013-1.844-.053-.759 0-1.518.48-.217.16-2.604.373-2.55.48-.65-.853-.217.053-.488 0-.759-.16-.162-.48-.976-.533-1.247-.053-1.41.48-3.037.426-1.139 0-.705-.48-1.519-.533-1.085-.053-.596.32-1.03.48-1.139.48-1.79-.533-3.038-.533-.759 0-.271.373-1.03.48-.922.16-2.115-.054-3.037-.054-2.007-.053-2.116-.533-4.014-.586-.488 0-3.634.213-3.525-.32.108-.426-.488-.32-.488.267-.055 1.972-1.953-.427-2.007-.533-.651 0-1.356-.054-2.007-.054-.163.267-.434.373-.488.48-.651 1.12-2.115.373-2.115.533.054.906-2.821-.266-3.038-.266-.705 0-.325.32-1.03.48-.705.16-1.573-.054-2.278-.054-.054 0-.759-1.12-.759-.267 0 .96-.651-.32-.489-.266-1.084-.48-1.193.267-1.518.48-.326.213-1.356-.054-1.79 0-.271 0-.597-.64-1.519-.533-.054 0-.542-.427-.759-.533-2.169-.054.976.96-1.952.96-.651 0-5.099-.64-5.533-.107-.867 1.012-1.627-.054-3.037-.054-1.952-.053-2.44.48-4.068.427-1.139 0-7.43.64-8.081-.16-.976-1.226-1.247.213-2.007-.054-.271-.053.38-.533-.217-.533h-1.247c-.271 0-1.844-.213-2.007 0-.596.693-2.549.16-2.549.214.054.96-7.159-.267-7.539-.853-.922.48-1.464 1.12-2.007.48-1.139 0-2.386.106-3.525-.054-.759-.107-.108-.266-.488-.533-.217-.16-2.82-.213-3.037-.053-.434.373.054.48-1.031.48-.868 0-1.681-.054-2.549-.054-2.007-.053-4.068-.266-6.075-.106-1.193.106-.976.426-2.277.48-.055 0-1.139-1.12-1.736-.534-.434.373-.868.8-1.519.96-.434.106-2.549.16-2.495-.32 0-.053-11.986.533-13.613.533-1.247-.053-.759.48-2.061.48-.705 0-1.681.48-1.736.48-2.223-.267-2.983-.214-4.284-1.067-.38.587-1.085.96-2.061.96-.977 0-4.448-.64-5.044-.107-.488.427-.434.48-1.519.48-1.193 0-2.332-.053-3.525-.053-.814 0-.868-.48-.977-.533-.542-.107-.596.48-.488.48-.976-.107-.868-.534-1.518-.534.217 0-.597.48-1.031.48-.38.586 0 .48-1.03.48-.38-.533-.651-.427-.977-1.013-2.223-.053-.488.267-.488.746 0 .48-1.627.214-2.061.214-1.139 0-2.386-.16-3.525-.054-.217 0-1.193.427-1.085.48-.542-.053-3.525-1.12-3.471-.267.054.747-1.898-.586-2.007-.8-1.518 0-1.247.48-2.549.48-.922 0-4.013-.586-4.556-.106-.434.426.054.426-1.03.48-.868 0-1.682-.053-2.549-.053-2.17-.054-4.394-.107-6.563-.107-1.573 0-1.465.48-3.037.426-1.953-.053-4.122.16-6.075-.106-1.03-.107-3.146-1.013-4.285-1.066-.325 0-.217.426-.759.48-.651.106-1.356-.16-2.007-.054-.813.16-1.193.48-2.549.426-1.247 0-1.085.48-2.549.48-2.386-.053-4.719-.106-7.051-.106-2.549-.054-8.732 2.238-10.088-.16-.596 0-3.091.373-3.037.693.108.906-2.061-.267-2.007-.267.054 0-.325.533-1.03.48-.814-.107-.76-.48-.977-.533-.542-.16-1.952-.16-2.494-.053-.217.053-.76.533-.543.48-1.139.053-1.79-.747-3.525-.587-.543.053-1.248.533-1.519.96-2.115-.054-2.603-.374-4.556-.587-.542.8-2.223.427-3.525.427-.488.692 0 .48-.488 0h-.488c-.38-.587-.651-.374-.977-1.013h-.488c-.434.586-.379.586-1.03.96-.543.319-.271.479-1.519.479-.542.693-.868.32-2.007.48-.162 0-1.464.48-1.03.48-1.193 0-1.41-.64-3.037-.534-1.302.054-1.248.373-2.658.48-.542-.853-2.115-1.013-3.525-1.066-.217.32-.217.693-.489.96h-.488v.48c-.379.372-.217-.107-.488.479-.651 0-1.356 0-2.007-.053-.976 0-.108-.533-.759-.533-.651.053-1.464.533-1.519.48-1.355-.16-2.928-.16-4.284-.107a6.782 6.782 0 01-1.79-.053c-.542-.054-.109.532-.217.532-.38 0-2.603-.959-2.495-.266.054.48-1.193.213-1.519.213-1.084-.053-1.03-.053-1.518-.533-.597-.64-2.115.533-2.766.427-.109 0-.705.426-1.248.48-.867.106-.054-.48-.976-.534-1.03 0-1.681.213-3.037.427-1.573.213-1.79.48-3.526.426-.433 0-5.098-.32-5.044.16.055.8-2.874-.32-3.037-.32.271 0-.651.48-1.03.48-.597 0-1.194-.053-1.79 0-.271 0-.38-.533-1.248-.533-.813 0-.162.213-.488.48-.759.48-4.23 0-5.044-.107-1.41-.107-1.681-.107-2.495-.533-.651.906-2.386.427-3.037 1.44-.705-.054-.813-.534-2.007-.534-1.03 0-2.006-.053-3.037-.053-.434 0-.868-.053-1.302 0-.596 0 .055-.427-.217-.533-1.084-.427-1.139.213-1.518.48-.543.32-2.387-.054-3.037-.054-.706 0-.543.427-1.519.48-1.193.053-.705-.533-1.519-.533-.759 0-1.084.533-1.247.48-.976-.107-6.346-.267-6.292.16.055.426-2.657.213-3.037.213-1.356-.053-1.898-.16-2.549.426-.054.054-.976-.533-1.519-.533-1.518-.053-3.037-.053-4.556-.053-2.278-.053-2.494.426-4.555.426-.597 0-1.194-.053-1.79 0-.597.054.054-.373-.217-.533-1.085-.48-1.193.267-1.519.48-.434.267-2.007-.053-2.495-.053-.705 0-.488.426-1.518.48-1.302.106-2.712-.054-4.014-.054-.813 0-.976-.533-1.247-.533-.434 0-.326.533-1.302.48-1.031 0-2.007-.053-3.037-.053-3.905-.054-7.81.852-11.607.8-2.549-.054-3.797-.48-5.803-.587-.109 0-1.085.426-1.79.48-1.356.106-2.712-.16-4.068-.054-.813.054-.38.48-1.519.48-1.03 0-2.006 0-3.037-.053-1.085-.054-.759-.533-1.518-.533-1.356 0-2.712-.054-4.014-.054-1.627-.053-1.681.96-3.525.907-1.085 0-.76-.534-1.519-.534-1.193 0-2.332-.053-3.525-.053-3.96-.053-6.455.853-10.631.8-2.007-.053-3.471.533-6.074.373-.434 0-2.224.266-2.549-.053-.163-.16-.217-.267-.217-.373 0 .053-.109.213-.272.373-.325.32-2.115-.48-2.006.213.054.426-2.061.213-2.549.213l-9.058-.16-10.088-.16c-2.061-.053-3.308.373-4.827.427 0 0-1.139-.48-1.736-.533-1.301-.16-2.712-.054-4.067-.054-.489.107-3.2.747-3.2.8.054.32-8.136.107-9.112.053-.76 0-.434-.426-1.519-.533-.76-.053-.38.533-1.519.48.272.053-.325-.427-.488-.48-.596-.16-1.41 0-2.006-.053-.597 0-3.58.373-4.068-.053-.434-.427.054-.427-.976-.534-.489-.053-1.03 0-1.519-.053-2.007-.053-4.068-.053-6.075-.106-2.711-.054-3.796.426-6.562.373-1.519-.054-3.038-.054-4.556-.107-1.03 0-.054.533-.76.48-.487 0-.162-.533-.216-.533-2.712-.16-5.044 1.013-7.051-.107-.488-.266.108-.426-.976-.533-.272.427-1.573 1.12-1.79 1.12-.597-.054-1.193-.054-1.79-.054-1.03 0-.597.107-1.03.48-1.085 1.013-6.238-.267-7.051-.64-.055 0-1.627-1.066-1.519-.266.108.48-2.55.213-3.037.213-4.176-.053-8.407-.16-12.583-.213-.651-.96-1.356-1.013-3.037-1.066-.38.586.054.533-1.03.48-1.031 0-.543.32-.977.48-.326.16-1.573.16-1.519-.267.109-.906-.868.213-.488.213-.922-.107-.705-.373-.976-.533-.651-.16-1.519.266-2.061 0-.326-.107.054-.48-.76-.533-.596-.053.109.586-.488.533-.759-.107-1.572 0-2.278-.053-.705 0-.27-.427-.488-.48C1.14 22.282.542 22.388 0 22.6V.001h1540v15.35c-.33.054-.71.16-1.19.214zM432.213 10.981c-.38.373-.217-.107-.488.48 0 1.066.976.533 1.03-.48 1.031-.373.055-.533-.542 0zm28.258 1.972c.271.267.813-.213.488-.48-.272-.266-.76.214-.488.48zm53.585-4.53c.272.266.814-.214.489-.48-.217-.32-.76.213-.489.48zm36.231 6.076c.271.267.813-.213.542-.48-.271-.266-.814.213-.542.48zm4.176-5.864c.271.267.813-.213.488-.48-.271-.32-.759.16-.488.48zm62.047 3.519c-1.519 0-1.085 1.012-.76 1.012.597-.106 0 .747.217 1.013h.489c.488-.746.813-1.332.054-2.025zm79.186 2.878c.271.267.813-.213.542-.48-.271-.32-.814.16-.542.48zm20.772-5.117c.271.266.814-.213.488-.48-.217-.32-.759.213-.488.48zm26.685 6.396c.271.267.813-.213.488-.48-.271-.32-.759.214-.488.48zm12.095-1.279c.271.267.813-.213.542-.48-.271-.32-.814.214-.542.48zm70.616 3.678c-.488-.96-.651 0 0 0 .542.96.705 0 0 0zm25.762.427c.272.266.76-.214.489-.48-.272-.267-.76.213-.489.48zm125.179 1.172c.271.267.813-.213.542-.48-.271-.32-.813.214-.542.48zm117.695-2.452c-.6.8-.38.48 0 1.013.7 1.12.65-.64 0-1.013zm65.63.64c-.06 2.345 2.38.053 0 0zm52.98.906c.28.267.82-.213.55-.48-.27-.32-.82.16-.55.48z" fill="#008482"/></svg>