<svg width="1540" height="25" fill="none" xmlns="http://www.w3.org/2000/svg"><path fill-rule="evenodd" clip-rule="evenodd" d="M1.193 15.565c.868.053 12.095.053 12.095.053-.054-.586 3.254-.053 3.526.214.542.533.867.48 2.006.48 1.519 0 3.038-.054 4.556-.107 1.085 0 .76.48 1.519.48 1.356-.054 2.712-.054 4.013-.054.76 0 7.105-.32 7.051.16-.054.587 3.091-.266 3.525-.32 2.116-.266 3.634.267 5.044.427-.054 0-.162-.533.218-.533.65 0 0 .426.27.48 1.14.32 2.93-.054 4.014-.054 1.356-.053 2.712-.053 4.068-.053.76 0 .38-.533 1.519-.533.162 0-.271.533.217.533.433-.053.867-.053 1.301-.053 1.085 0 .597.32 1.03.48 1.628.639 4.773-.107 6.563-.107.76 0 .38.48 1.519.48.705 0 .271-.587.705-.534 2.115.16 4.23-.16 6.346-.106.922 1.28 2.06.586 4.068.906.759.107.813.48 2.06.48 1.248 0 2.55-.107 3.797-.054.109 0 .976-.533 1.736-.533 1.356-.053 1.952-.16 2.549.427.434.373 3.58-.053 4.013-.053h1.302c.597 0-.054-.427.217-.48.488-.16 1.247-.054 1.79-.054.596-.053-.055.427.217.534.813.266 2.17-.054 3.037-.054 1.247-.053.813.373 2.007.48 1.681.107 3.362-.053 5.044-.107 1.03 0 2.007-.053 3.037-.053 1.193-.053.054.053.542.48.597.586.977-.48.977-.533.217-.107.922.48 1.518.48.814 0 .38-.534 1.519-.534.163 0-.271.587.271.48.434-.053.814-.053 1.248-.053 1.03 0 2.006-.053 3.037-.053 1.139 0 2.332-.054 3.525-.054.434 0 1.248.48 1.031.48 1.193-.053.813-.373 2.006-.533 1.085-.16 2.224 0 3.309-.053.271 0 1.247.906 2.278.48.271-.107-.163-.374.488-.534.488-.106 1.03 0 1.519 0 .596-.053 1.464-.16 2.006-.053.217.053-.325.533.217.533a7.235 7.235 0 011.519 0c.596 0 0-.426.217-.533.542-.16 1.247 0 1.79-.053.651-.054-.054.373.271.533.813.32 2.603-.054 3.525-.054.434-.693 1.085-.32 1.519-1.012.976 0 3.579.746 4.068 1.439 2.006-.053 4.013-.053 6.074-.107 1.627-.053 2.387-.586 3.526-.586-.326 0 .325.48.542.48.434.106 1.085 0 1.519 0 .65 0 1.356 0 2.006-.054 1.193-.053.055.054.488.48.705.64 1.411-.48 1.519-.533.488-.32 2.387-.053 3.037-.053.814 0 4.122 1.386 5.044.426.543-.533 1.085-.48 2.278-.533.651-.053-.217.533.76.48.488 0 1.03 0 1.518-.053 2.549-.054 3.743.426 6.563.373 3.091-.054 6.237-.213 9.329-.16.054 0 1.139-1.173 1.735-.533.597.586.76.266 2.007.48.976.16 1.41.426 2.007.48 1.247.052.759-.587 2.007-.534-.163 0 .488.48 1.03.48 1.193 0 2.332-.053 3.525-.053 1.139 0 2.387-.16 3.526-.054.705.054.217.373.542.48 1.573.64 4.882-.107 6.563-.107 1.247-.053 1.464.48 3.037.427.488 0 5.098-.32 5.044.16-.054.426 1.627.213 2.007.213.759 0 .217-.426.488-.48 1.302-.48 1.41.48 2.549.427.759 0 1.519-.054 2.278-.054.597.054-.163-.533.488-.533.543 0 0 .48.76.48.325 0 1.789-.266 2.006-.053.488.48.434.48 1.519.48.868 0 1.681-.054 2.495-.054 2.007-.053 3.2.32 4.556.427 2.332.213 4.718-.16 7.051-.107.867 0 .108.48 1.03.48 1.193 0 2.332-.053 3.525-.053.76 0 1.519-.107 2.278-.054.597.053-.162-.586.488-.533 1.031.053 1.302.48 2.767.48 1.572-.053 1.789-.533 3.037-.587-.326 0 1.139.48 1.518.48.76.054 1.573 0 2.278-.053.109 0 .977.48 1.736.48 1.519-.054 3.037-.054 4.556-.107 2.278-.053 2.712-.426 4.556-.586 1.681-.107 2.44.533 3.525.426.163 0-.325-.533.217-.533.38.053.922.053 1.248 0 .867-.213.922-.16 1.518-.533.217.267.976 1.013 1.248 1.013 1.627-.107 3.2-.053 4.827-.107 2.495-.053 3.796.8 6.562.373.38-.053 1.736-.213 2.007-.533.38-.373-.108-.213.488-.48.054.054.651.534.488.48.922.373 1.302.48 2.55.427 1.247 0 .759-.533 2.006-.533-.271 0 1.085.48 1.519.48.325 0 2.332.213 2.495-.054.108-.16.922-1.12 1.518-.533.814.746-.054.053.489 0 .379-.053 2.278-.32 2.495-.053.759.746-.055.053.488 0 1.952-.16 2.332-.054 3.037.96 1.03 0 2.061.053 3.037-.054-.325.053.542-1.173.488-.267-.054.48.651.267 1.031.267.759 0 1.79-.213 2.495-.053.217.053.759.48.542.48.705 0 1.898-1.12 2.495-.534.596.587 1.193.48 2.549.427 3.634-.053 7.213-.053 10.088-.693.163.266.434.373.542.48.543.746 1.573.693 2.007-.054.705 0 1.79.16 2.495-.053.705-.16.109-.267.488-.533.543-.373.597-.48 1.519-.533.325.48 1.03 1.013 1.79.96.379-.054.217.213.271.533 0 .959 1.247.48 2.007.48 1.193 0 2.386-.054 3.525-.054.759 0 3.2-.853 3.525-.533.488.426.434.48 1.519.48.597 0 1.085.48 1.03.48 1.031.053 1.953-.534 3.526-.587.271 0 1.952 1.173 2.549.48 1.085-1.386 4.068.426 5.532.373.705-1.066 2.82 0 3.526-1.066.65.213 1.789.906 2.549.96.868.053 2.874-1.173 3.525-.534.543.533.271.373 1.519.48 1.139.053 2.386-.053 3.525-.053 1.519 0 3.037-.054 4.556-.054 1.085 0 .597-.32.976-.533 2.061-.906 6.346-.106 8.57-.16 1.084 0 .759.48 1.518.48 1.031 0 2.007-.053 3.038-.053 3.85-.053 7.755-.16 11.606-.213 1.193 0 2.332-.054 3.526-.054.867 0 .054-.48.976-.48 1.247-.053 1.844.48 3.525.427 1.139 0 .705-.48 1.519-.533 1.085-.053.597.32 1.03.48 1.085.426 1.194-.32 1.519-.533.38-.267 1.573-.054 2.007-.054.922 0 .108.533 1.03.48-.217 0 .488-.533.977-.533 4.61-.107 7.755.373 12.637.267 3.091-.054 9.871-1.12 12.149.266.434-.693 1.085-1.226 1.518-.533 1.465-.053 1.139-.533 2.007-.533-.163 0 .163.48.488.48.489 0 1.031 0 1.519-.054.705 1.066 6.563.107 6.563.16-.055.373 3.091.427 3.037-.053-.109-.853 2.874.213 3.037.213-.217 0 .271-.426.488-.48.38-.106.868 0 1.248-.053.271 0 .434.48 1.247.48 1.682-.053 3.526-.213 4.556.426.38-.533 2.712-1.066 3.525-1.066 1.194 0 1.356.48 2.061.48.434 0 .868 0 1.248-.053.596-.054 0 .426.271.48 1.085.32 2.115-.16 2.495-.534.651-.693 1.519.48 1.519.48 1.193.48 1.356-.533 2.006-.533.705 0 .489.427 1.519.48-.434 0 1.085-1.333.976-.267 0 .533 1.139.214 1.519.214.705-1.067 1.627-1.013 3.525-1.067.434.64 1.085.32 1.519.96 1.247-.053.759-.533 2.007-.533.488 0 1.572-.213 2.006-.053.272.106-.379.586.272.48 1.084-.107 2.223-.054 3.308-.054.651 0 .814-.533 2.007-.533.759 0 .434.48 1.518.48 1.682 0 3.363-.054 5.045-.107 2.494-.053 4.827.213 6.562.373-.217 0 .109-.96.488-.48.38.427 0 .587 1.031.48 1.139-.16.813-.533 2.007-.533-.272 0 .325.427.488.48.434.107 1.084 0 1.518 0 1.356-.053 2.712-.107 4.014-.053.108 0-.217.533.271.48.542 0 .054-.48.217-.534.813-.16 2.224-.213 3.037-.053 1.248.267.651 0 2.495-.053 3.254-.054 5.424.853 7.539-.64.922 1.333 5.207 1.386 6.075-.107.759.054 2.061.48 3.525.427 1.085-.053.597.266 1.03.48-.162-.054 1.736.373 1.031.48 1.356-.214 2.603-.534 4.556-.587 2.495-.053 2.929.427 5.044.427.542.799.163.213 1.03 0 1.248-.32 1.953.32 2.495-.534.326.107 2.332 1.653 3.038.96.162-.16.216-.267.216-.373 0 .053.109.213.272.32.271.266 2.115-.054 2.549-.054 2.712 0 5.369-.106 8.081-.16 2.224-.053 5.098.214 6.563-.64.488-.266-.109-.426.976-.532.163.266.434.373.542.48.705 1.012 2.821-.107 3.526.906 1.193 0 1.03-.533 2.495-.533 1.084 0 1.41-.107 2.006-.534.597.853 1.953.587 2.549 1.44 1.248 0 .76-.533 2.007-.533 1.193 0 2.332-.054 3.526-.054 3.037-.053 6.074-.106 9.057-.16.705 0 .868.48 2.061.48.76 0 .38-.48 1.519-.533.976 0 2.061-.213 3.037-.053.759.107.38.48 1.519.48-.163 0 .108-.48.488-.533.488-.054 1.03 0 1.518 0 1.682-.107 3.363-.054 5.045-.107 2.169-.053 4.393-.107 6.562-.107.651 0 3.58.373 4.068-.053.542-.533.759-.48 2.007-.533.325 0 2.278-.267 2.495-.053.867 1.013 4.393.426 6.074.373 1.302 0 3.309 1.172 5.044.426.271-.106-.379-.586.217-.533.326.053 1.031.107 1.302 0 0 0 .379-1.066.976-.533.542.48.271.48 1.519.48 1.518-.053 3.037-.053 4.556-.053 1.518-.054 3.037-.054 4.555-.107.76 0 .38-.48 1.519-.533-.325 0 1.085.48 1.519.48.813 0 1.681-.054 2.495-.054 2.278-.053 2.711.16 3.525-1.066 1.519-.053 2.007 0 3.037.427.326.16-.217.48.488.48.489 0 1.573.16 2.007-.054.326-.16-.271-.533.488-.533.76 0 .217.373.488.48 1.139.48 1.411-.427 2.007-.533 1.736-.32 3.797-.053 5.532-.107 1.031 0 2.007-.053 3.038-.053.705 0 .271-.427.488-.48 1.084-.32 2.061.48 2.278.48 1.573-.213 3.2-.053 4.772-.107-.325 0 .543-1.172.489-.266 0 .48.65.266 1.03.266 1.736-.053 1.627-.533 3.525-.586.706 0 .977.213.977-.533 0-.693 1.139-.906 1.518-.533 1.085.96.489 1.013 1.628 1.013.867 0 1.681-.054 2.494-.054.76 1.12 3.2.373 4.068-.053.543.8 1.193.96 2.549.96.868 0 1.682 0 2.549-.054.597 0 1.085-.533.977-.533 1.247-.107.759.587 2.006.48-.108 0 .38-.48.977-.533.379 0 1.573-.267 1.518.213-.054.427 3.688.16 4.285.16.217 0 .542-.48 1.248-.533 1.138-.107 2.386.107 3.525-.053.542-.107 2.007-1.013 2.495-.533.488.48-.109.48 1.03.48.326 0 1.79.212 2.007-.054.542-.533.868 0 2.549-.053 3.363-.054 4.719-.533 7.593-.16.597-.96 1.356-1.013 2.983-1.066.488.746.326.266 1.519.48.108 0 1.464.48 1.03.48 1.139.053.706-.374 1.519-.534.814-.16 1.736-.053 2.549-.053 1.682 0 1.953.533 2.495-.053.597-.587 4.719-.054 5.532-.107.76 0 .217.48.76.48.271 0 .434-.48 1.247-.533.054 0-.217.533.271.533.434 0 .217-.533.217-.533 1.79.053 2.061.266 3.526-.054.488-.106 3.091.213 3.037-.266-.163-1.066 1.193.32 1.03.213.326.213 2.116.107 2.007-.267-.054-.48 1.898-.266 2.278-.266.651-.053-.217.533.759.48.434 0 .868-.054 1.248 0 .271 0 .434-.533 1.247-.533 1.193 0 1.356-.533 2.007-.533 1.193-.054 2.332-.054 3.525-.054.705 0 .868.48 2.007.48.434 0 .868-.053 1.302 0 .596.053 0-.48.217-.533 1.247-.32 5.044.16 5.044.16-.163-.64 1.735 0 2.007-.267.271-.266.271-.64.488-1.012.325 0 2.061.48 2.061.692-.055.32 3.037.32 3.525.16.271-.053.109-.48 1.031-.533.813-.053.162.267.488.48.542.373 2.874 0 3.525-.053.054 0-.163-.64.488-.48.217.053-.325.533.271.48 1.248-.053 2.55-.053 3.797-.053 1.519-.054 1.193-.64 2.495-.054.38-.586.651-.64 1.79-.533.325.053.596-.8.705-1.013 1.03 0 1.518.48 2.061.96.379.373.217-.107.488.48.868 0 1.681 0 2.549-.054.326-.48-.108-.533.759-.48.76 0-.054-.906-.271-.532.38-.64.38-.587.976-1.013.055 1.812.489 1.013 1.031 1.972 1.844-.053 3.688-.053 5.532-.107.705 0 .488-.426 1.519-.533.868-.106 1.573.48 1.79.48 1.139-.107.759-.213 1.247-.533 1.247-.853.271-.107 1.031.48.759.586.976-.373 1.518.48.814-.267 2.82-1.28 3.037-.534.38 0 3.092.214 3.038-.32-.163-.852.976.16 1.03.214 1.898 0 .543-1.44 1.519-.533.271.266 1.085-.48 1.03.213-.054.48 3.58.213 4.068.213a311.04 311.04 0 017.051-.106c1.464 0 1.302-.533 2.495-.533-.326 0 .379.48.542.48.597.16 1.41 0 2.007-.054 1.681-.053 3.363-.053 5.044-.107 1.464 0 .759-.746 1.519 0 .216.214 2.766.054 3.037-.053.271-.106-.163-.373.488-.533.651-.107 1.356 0 2.007 0 .705 0 .271.427.488.48.596.16 1.41-.053 2.007-.053 1.681-.054 3.362-.054 5.044-.107 1.247-.053.759-.533 2.006-.533-.325 0 .38.48.488.48.434.106 1.085 0 1.519 0 1.519 0 3.037-.054 4.556-.054 1.681-.053 3.363-.053 5.044-.106.759 0 .38-.533 1.519-.533.705 0 .867.48 2.006.48 1.139 0 1.465 0 2.007-.534.922-.96 3.905.427 4.556.427 1.193-.053 1.356-.533 2.007-.533.759 0 1.03.533 1.247.48 1.193-.16 5.587.64 6.292-.107.868-.853-.054.106.759 0 .922-.107 1.898-.053 2.766-.053.922-.64-.054-.16 0-.48.054-1.066.488-.053.976-.533v-.533c.434-.32 1.899-.267 1.031.48-.542.426-1.139 1.012.542.959.814 0 1.736.053 2.549-.053 1.248-.16 1.302-.48 2.766-.587.651-.053-.216.533.76.48h2.007c.759-1.173 1.572-.213 2.006.48.814 0 1.519.32 1.519-.533 0-1.28 0-.746 1.247-1.013.217-.053.651 1.28.814 1.492 1.247 0 .976-.16 1.519-.533.65-.426 1.084.48 1.03.48.976.053 2.007-.053 3.037-.053.868 0 .055-.48 1.031-.533 1.79-.053 1.952.48 3.525.426.922 0 1.844 0 2.766-.053.272 0 .434.533 1.248.48.705 0 .271-.533.759-.533.759.053 1.519 0 2.278 0 1.953-.054 2.169.48 4.068.426l8.569-.16c1.465-.053 1.465.213 1.519-1.013 1.844-.053.759 0 1.518.48.217.16 2.604.373 2.55.48.65-.853.217.053.488 0 .759-.16.162-.48.976-.533 1.247-.053 1.41.48 3.037.426 1.139 0 .705-.48 1.519-.533 1.085-.053.596.32 1.03.48 1.139.48 1.79-.533 3.038-.533.759 0 .271.373 1.03.48.922.16 2.115-.054 3.037-.054 2.009-.053 2.119-.533 4.009-.586.49 0 3.64.213 3.53-.32-.11-.426.49-.32.49.267.05 1.972 1.95-.427 2.01-.533.65 0 1.35-.054 2-.054.16.267.44.373.49.48.65 1.12 2.12.373 2.12.533-.06.906 2.82-.266 3.03-.266.71 0 .33.32 1.03.48.71.16 1.58-.054 2.28-.054.06 0 .76-1.12.76-.267 0 .96.65-.32.49-.266 1.08-.48 1.19.267 1.52.48.32.213 1.35-.054 1.79 0 .27 0 .59-.64 1.52-.533.05 0 .54-.427.75-.533 2.17-.054-.97.96 1.96.96.65 0 5.1-.64 5.53-.107.87 1.012 1.63-.054 3.04-.054 1.95-.053 2.44.48 4.06.427 1.14 0 7.44.64 8.09-.16.97-1.226 1.24.213 2-.054.27-.053-.38-.533.22-.533h1.25c.27 0 1.84-.213 2 0 .6.693 2.55.16 2.55.214-.05.96 7.16-.267 7.54-.853.92.48 1.47 1.12 2.01.48 1.14 0 2.39.106 3.52-.054.76-.107.11-.266.49-.533.22-.16 2.82-.213 3.04-.053.43.373-.05.48 1.03.48.87 0 1.68-.054 2.55-.054 2.01-.053 4.07-.266 6.07-.106 1.2.106.98.426 2.28.48.06 0 1.14-1.12 1.74-.534.43.373.86.8 1.52.96.43.106 2.54.16 2.49-.32 0-.053 11.99.533 13.61.533 1.25-.053.76.48 2.07.48.7 0 1.68.48 1.73.48 2.22-.267 2.98-.214 4.29-1.067.37.587 1.08.96 2.06.96.97 0 4.44-.64 5.04-.107.49.427.43.48 1.52.48 1.19 0 2.33-.053 3.52-.053.82 0 .87-.48.98-.533.54-.107.6.48.49.48.97-.107.87-.534 1.52-.534-.22 0 .59.48 1.03.48.38.586 0 .48 1.03.48.38-.533.65-.427.97-1.013 2.23-.053.49.267.49.746 0 .48 1.63.214 2.06.214 1.14 0 2.39-.16 3.53-.054.22 0 1.19.427 1.08.48.55-.053 3.53-1.12 3.48-.267-.06.747 1.89-.586 2-.8 1.52 0 1.25.48 2.55.48.92 0 4.01-.586 4.56-.106.43.426-.06.426 1.03.48.87 0 1.68-.053 2.55-.053 2.17-.054 4.39-.107 6.56-.107 1.57 0 1.46.48 3.04.426 1.95-.053 4.12.16 6.07-.106 1.03-.107 3.15-1.013 4.29-1.066.32 0 .21.426.75.48.66.106 1.36-.16 2.01-.054.82.16 1.19.48 2.55.426 1.25 0 1.09.48 2.55.48 2.39-.053 4.72-.106 7.05-.106 2.55-.054 8.73 2.238 10.09-.16.6 0 3.09.373 3.04.693-.11.906 2.06-.267 2-.267-.05 0 .33.533 1.03.48.82-.107.76-.48.98-.533.54-.16 1.95-.16 2.49-.053.22.053.76.533.55.48 1.14.053 1.79-.747 3.52-.587.54.053 1.25.533 1.52.96 2.12-.054 2.6-.374 4.56-.587.54.8 2.22.427 3.52.427.49.692 0 .48.49 0h.49c.38-.587.65-.374.97-1.013h.49c.44.586.38.586 1.03.96.55.319.27.479 1.52.479.54.693.87.32 2.01.48.16 0 1.46.48 1.03.48 1.19 0 1.41-.64 3.04-.534 1.3.054 1.24.373 2.65.48.55-.853 2.12-1.013 3.53-1.066.22.32.22.693.49.96h.49v.48c.38.372.21-.107.48.479.65 0 1.36 0 2.01-.053.98 0 .11-.533.76-.533.65.053 1.46.533 1.52.48 1.35-.16 2.93-.16 4.28-.107.55.053 1.2.053 1.79-.053.55-.054.11.532.22.532.38 0 2.6-.959 2.49-.266-.05.48 1.2.213 1.52.213 1.09-.053 1.03-.053 1.52-.533.6-.64 2.12.533 2.77.427.11 0 .7.426 1.25.48.86.106.05-.48.97-.534 1.03 0 1.68.213 3.04.427 1.57.213 1.79.48 3.52.426.44 0 5.1-.32 5.05.16-.06.8 2.87-.32 3.04-.32-.28 0 .65.48 1.03.48.59 0 1.19-.053 1.79 0 .27 0 .38-.533 1.24-.533.82 0 .17.213.49.48.76.48 4.23 0 5.05-.107 1.41-.107 1.68-.107 2.49-.533.65.906 2.39.427 3.04 1.44.7-.054.81-.534 2-.534 1.04 0 2.01-.053 3.04-.053.44 0 .87-.053 1.3 0 .6 0-.05-.427.22-.533 1.09-.427 1.14.213 1.52.48.54.32 2.39-.054 3.04-.054.7 0 .54.427 1.52.48 1.19.053.7-.533 1.51-.533.76 0 1.09.533 1.25.48.98-.107 6.35-.267 6.29.16-.05.426 2.66.213 3.04.213 1.36-.053 1.9-.16 2.55.426.05.054.98-.533 1.52-.533 1.52-.053 3.03-.053 4.55-.053 2.28-.053 2.5.426 4.56.426.6 0 1.19-.053 1.79 0 .6.054-.05-.373.22-.533 1.08-.48 1.19.267 1.51.48.44.267 2.01-.053 2.5-.053.7 0 .49.426 1.52.48 1.3.106 2.71-.054 4.01-.054.82 0 .98-.533 1.25-.533.43 0 .32.533 1.3.48 1.03 0 2.01-.053 3.04-.053 3.9-.054 7.81.852 11.6.8 2.55-.054 3.8-.48 5.81-.587.11 0 1.08.426 1.79.48 1.35.106 2.71-.16 4.07-.054.81.054.38.48 1.51.48 1.04 0 2.01 0 3.04-.053 1.09-.054.76-.533 1.52-.533 1.36 0 2.71-.054 4.01-.054 1.63-.053 1.69.96 3.53.907 1.08 0 .76-.534 1.52-.534 1.19 0 2.33-.053 3.52-.053 3.96-.053 6.46.853 10.63.8 2.01-.053 3.47.533 6.08.373.43 0 2.22.266 2.55-.053.16-.16.21-.267.21-.373 0 .053.11.213.28.373.32.32 2.11-.48 2 .213-.05.426 2.06.213 2.55.213l9.06-.16 10.09-.16c2.06-.053 3.31.373 4.82.427 0 0 1.14-.48 1.74-.533 1.3-.16 2.71-.054 4.07-.054.49.107 3.2.747 3.2.8-.06.32 8.13.107 9.11.053.76 0 .43-.426 1.52-.533.76-.053.38.533 1.52.48-.27.053.32-.427.48-.48.6-.16 1.41 0 2.01-.053.6 0 3.58.373 4.07-.053.43-.427-.06-.427.98-.534.48-.053 1.03 0 1.51-.053 2.01-.053 4.07-.053 6.08-.106 2.71-.054 3.8.426 6.56.373 1.52-.054 3.04-.054 4.56-.107 1.03 0 .05.533.76.48.48 0 .16-.533.21-.533 2.72-.16 5.05 1.013 7.05-.107.49-.266-.1-.426.98-.533.27.427 1.57 1.12 1.79 1.12.6-.054 1.19-.054 1.79-.054 1.03 0 .6.107 1.03.48 1.09 1.013 6.24-.267 7.05-.64.06 0 1.63-1.066 1.52-.266-.11.48 2.55.213 3.04.213 4.17-.053 8.4-.16 12.58-.213.65-.96 1.36-1.013 3.04-1.066.38.586-.06.533 1.03.48 1.03 0 .54.32.97.48.33.16 1.58.16 1.52-.267-.11-.906.87.213.49.213.92-.107.71-.373.98-.533.65-.16 1.52.266 2.06 0 .32-.107-.06-.48.76-.533.59-.053-.11.586.49.533.75-.107 1.57 0 2.27-.053.71 0 .27-.427.49-.48.76-.213 1.36-.107 1.9.106V.001H0v15.35c.325.054.705.16 1.193.214zm1106.597-4.584c.38.373.21-.107.49.48 0 1.066-.98.533-1.04-.48-1.03-.373-.05-.533.55 0zm-28.26 1.972c-.27.267-.81-.213-.49-.48.27-.266.76.214.49.48zm-53.59-4.53c-.27.266-.81-.214-.48-.48.21-.32.75.213.48.48zm-36.227 6.076c-.271.267-.813-.213-.542-.48.271-.266.814.213.542.48zm-4.176-5.864c-.271.267-.813-.213-.488-.48.271-.32.759.16.488.48zm-62.047 3.519c1.519 0 1.085 1.012.76 1.012-.597-.106 0 .747-.217 1.013h-.489c-.488-.746-.813-1.332-.054-2.025zm-79.186 2.878c-.271.267-.813-.213-.542-.48.271-.32.814.16.542.48zm-20.772-5.117c-.271.266-.814-.213-.488-.48.217-.32.759.213.488.48zm-26.685 6.396c-.271.267-.813-.213-.488-.48.271-.32.759.214.488.48zm-12.095-1.279c-.271.267-.813-.213-.542-.48.271-.32.814.214.542.48zm-70.616 3.678c.488-.96.651 0 0 0-.542.96-.705 0 0 0zm-25.762.427c-.272.266-.76-.214-.489-.48.272-.267.76.213.489.48zm-125.179 1.172c-.271.267-.813-.213-.542-.48.271-.32.813.214.542.48zm-117.694-2.452c.597.8.38.48 0 1.013-.705 1.12-.651-.64 0-1.013zm-65.626.64c.054 2.345-2.387.053 0 0zm-52.99.906c-.271.267-.813-.213-.542-.48.271-.32.813.16.542.48z" fill="#392949"/></svg>