<svg width="1540" height="25" fill="none" xmlns="http://www.w3.org/2000/svg"><path fill-rule="evenodd" clip-rule="evenodd" d="M1538.81 15.565c-.87.054-12.1.054-12.1.054.06-.587-3.25-.054-3.52.213-.55.533-.87.48-2.01.48-1.52 0-3.04-.054-4.56-.107-1.08 0-.76.48-1.51.48-1.36-.053-2.72-.053-4.02-.053-.76 0-7.1-.32-7.05.16.06.586-3.09-.267-3.52-.32-2.12-.267-3.64.266-5.05.426.06 0 .16-.533-.22-.533-.65 0 0 .426-.27.48-1.14.32-2.93-.054-4.01-.054-1.36-.053-2.71-.053-4.07-.053-.76 0-.38-.533-1.52-.533-.16 0 .27.533-.21.533-.44-.053-.87-.053-1.31-.053-1.08 0-.59.32-1.03.48-1.62.64-4.77-.107-6.56-.107-.76 0-.38.48-1.52.48-.7 0-.27-.587-.7-.533-2.12.16-4.23-.16-6.35-.107-.92 1.28-2.06.586-4.07.906-.75.107-.81.48-2.06.48-1.24 0-2.55-.107-3.79-.053-.11 0-.98-.533-1.74-.533-1.35-.054-1.95-.16-2.55.426-.43.373-3.58-.053-4.01-.053h-1.3c-.6 0 .05-.427-.22-.48-.49-.16-1.25-.053-1.79-.053-.6-.054.05.426-.22.533-.81.266-2.17-.054-3.03-.054-1.25-.053-.82.373-2.01.48-1.68.107-3.36-.053-5.04-.107-1.04 0-2.01-.053-3.04-.053-1.2-.053-.06.053-.54.48-.6.586-.98-.48-.98-.533-.22-.107-.92.48-1.52.48-.81 0-.38-.533-1.52-.533-.16 0 .27.586-.27.48-.43-.054-.81-.054-1.25-.054-1.03 0-2-.053-3.03-.053-1.14 0-2.34-.053-3.53-.053-.43 0-1.25.48-1.03.48-1.19-.054-.81-.374-2.01-.534-1.08-.16-2.22 0-3.3-.053-.28 0-1.25.906-2.28.48-.27-.107.16-.373-.49-.534-.49-.106-1.03 0-1.52 0-.6-.053-1.46-.16-2.01-.053-.21.053.33.533-.21.533a7.245 7.245 0 00-1.52 0c-.6 0 0-.426-.22-.533-.54-.16-1.25 0-1.79-.053-.65-.053.06.373-.27.533-.81.32-2.6-.053-3.53-.053-.43-.693-1.08-.32-1.51-1.013-.98 0-3.58.746-4.07 1.44-2.01-.054-4.02-.054-6.08-.107-1.62-.054-2.38-.587-3.52-.587.32 0-.33.48-.54.48-.44.107-1.09 0-1.52 0-.65 0-1.36 0-2.01-.053-1.19-.054-.05.053-.49.48-.7.639-1.41-.48-1.52-.534-.48-.32-2.38-.053-3.03-.053-.82 0-4.13 1.386-5.05.426-.54-.533-1.08-.48-2.28-.533-.65-.053.22.533-.75.48-.49 0-1.04 0-1.52-.053-2.55-.053-3.75.426-6.57.373-3.09-.053-6.23-.213-9.32-.16-.06 0-1.14-1.173-1.74-.533-.6.586-.76.267-2.01.48-.97.16-1.41.426-2 .48-1.25.053-.76-.587-2.01-.534.16 0-.49.48-1.03.48-1.19 0-2.33-.053-3.53-.053-1.14 0-2.38-.16-3.52-.053-.71.053-.22.373-.54.48-1.58.639-4.89-.107-6.57-.107-1.24-.054-1.46.48-3.03.426-.49 0-5.1-.32-5.05.16.06.427-1.63.213-2 .213-.76 0-.22-.426-.49-.48-1.3-.48-1.41.48-2.55.427-.76 0-1.52-.053-2.28-.053-.6.053.16-.533-.49-.533-.54 0 0 .48-.76.48-.32 0-1.79-.267-2-.054-.49.48-.44.48-1.52.48-.87 0-1.68-.053-2.5-.053-2-.054-3.2.32-4.55.426-2.34.213-4.72-.16-7.05-.107-.87 0-.11.48-1.04.48-1.19 0-2.33-.053-3.52-.053-.76 0-1.52-.107-2.28-.054-.59.054.16-.586-.49-.533-1.03.054-1.3.48-2.76.48-1.58-.053-1.79-.533-3.04-.586.33 0-1.14.48-1.52.48-.76.053-1.57 0-2.28-.054-.1 0-.97.48-1.73.48-1.52-.053-3.04-.053-4.56-.107-2.28-.053-2.71-.426-4.55-.586-1.69-.107-2.44.533-3.53.426-.16 0 .33-.533-.22-.533a4.76 4.76 0 01-1.24 0c-.87-.213-.93-.16-1.52-.533-.22.267-.98 1.013-1.25 1.013-1.63-.107-3.2-.053-4.83-.107-2.49-.053-3.79.8-6.56.374-.38-.054-1.73-.214-2.01-.533-.38-.373.11-.214-.48-.48-.06.053-.66.533-.49.48-.92.373-1.3.48-2.55.426-1.25 0-.76-.533-2.01-.533.27 0-1.08.48-1.52.48-.32 0-2.33.213-2.49-.054-.11-.16-.92-1.119-1.52-.533-.81.747.05.054-.49 0-.38-.053-2.28-.32-2.49-.053-.76.746.05.053-.49 0-1.95-.16-2.33-.053-3.04.96-1.03 0-2.06.053-3.04-.054.33.054-.54-1.172-.48-.266.05.48-.66.266-1.03.266-.76 0-1.79-.213-2.5-.053-.22.053-.76.48-.54.48-.71 0-1.9-1.12-2.5-.533-.59.586-1.19.48-2.55.426-3.63-.053-7.21-.053-10.08-.693-.17.267-.44.373-.55.48-.54.746-1.57.693-2-.053-.71 0-1.79.16-2.5-.054-.7-.16-.11-.266-.49-.533-.54-.373-.59-.48-1.51-.533-.33.48-1.04 1.013-1.79.96-.38-.054-.22.213-.28.533 0 .96-1.24.48-2 .48-1.2 0-2.39-.054-3.53-.054-.76 0-3.2-.853-3.52-.533-.49.427-.44.48-1.52.48-.6 0-1.09.48-1.03.48-1.03.053-1.96-.534-3.53-.587-.27 0-1.95 1.173-2.55.48-1.08-1.386-4.06.426-5.53.373-.7-1.066-2.82 0-3.52-1.066-.66.213-1.79.906-2.55.96-.87.053-2.88-1.173-3.53-.533-.54.532-.27.373-1.52.48-1.14.052-2.38-.054-3.52-.054-1.52 0-3.04-.053-4.56-.053-1.08 0-.6-.32-.98-.534-2.06-.906-6.34-.106-8.56-.16-1.09 0-.76.48-1.52.48-1.03 0-2.01-.053-3.04-.053-3.85-.053-7.76-.16-11.61-.213-1.19 0-2.33-.053-3.52-.053-.87 0-.06-.48-.98-.48-1.25-.053-1.84.48-3.52.426-1.14 0-.71-.48-1.52-.533-1.09-.053-.6.32-1.03.48-1.09.426-1.2-.32-1.52-.533-.38-.267-1.57-.053-2.01-.053-.92 0-.11.533-1.03.48.22 0-.49-.534-.98-.534-4.61-.106-7.75.373-12.63.267-3.09-.053-9.87-1.12-12.15.266-.44-.693-1.09-1.226-1.52-.533-1.46-.053-1.14-.533-2.01-.533.17 0-.16.48-.49.48-.48 0-1.03 0-1.51-.053-.71 1.066-6.57.106-6.57.16.06.373-3.09.426-3.03-.054.1-.853-2.88.213-3.04.213.22 0-.27-.426-.49-.48-.38-.106-.87 0-1.25-.053-.27 0-.43.48-1.24.48-1.69-.053-3.53-.213-4.56.427-.38-.533-2.71-1.067-3.53-1.067-1.19 0-1.35.48-2.06.48-.43 0-.86 0-1.24-.053-.6-.053 0 .426-.28.48-1.08.32-2.11-.16-2.49-.533-.65-.693-1.52.48-1.52.48-1.19.48-1.35-.534-2.01-.534-.7 0-.48.427-1.51.48.43 0-1.09-1.332-.98-.266 0 .533-1.14.213-1.52.213-.7-1.066-1.63-1.013-3.52-1.066-.44.64-1.09.32-1.52.96-1.25-.054-.76-.534-2.01-.534-.49 0-1.57-.213-2.01-.053-.27.106.38.586-.27.48-1.08-.107-2.22-.054-3.31-.054-.65 0-.81-.533-2-.533-.76 0-.44.48-1.52.48-1.68 0-3.36-.053-5.05-.107-2.49-.053-4.82.214-6.56.373.22 0-.11-.959-.49-.48-.38.427 0 .587-1.03.48-1.14-.16-.81-.533-2-.533.27 0-.33.427-.49.48-.44.107-1.09 0-1.52 0-1.36-.053-2.71-.106-4.01-.053-.11 0 .21.533-.28.48-.54 0-.05-.48-.21-.533-.82-.16-2.23-.214-3.04-.054-1.25.267-.65 0-2.494-.053-3.254-.053-5.424.853-7.539-.64-.922 1.333-5.207 1.386-6.075-.106-.759.053-2.061.48-3.525.426-1.085-.053-.597.267-1.03.48.162-.053-1.736.373-1.031.48-1.356-.214-2.603-.533-4.556-.587-2.495-.053-2.929.427-5.044.427-.542.8-.163.213-1.03 0-1.248-.32-1.953.32-2.495-.533-.326.106-2.332 1.652-3.038.96-.162-.16-.216-.267-.216-.374 0 .053-.109.213-.272.32-.271.266-2.115-.053-2.549-.053-2.712 0-5.369-.107-8.081-.16-2.224-.054-5.098.213-6.563-.64-.488-.267.109-.427-.976-.533-.163.266-.434.373-.542.48-.705 1.013-2.821-.107-3.526.906-1.193 0-1.03-.533-2.495-.533-1.084 0-1.41-.107-2.006-.533-.597.853-1.953.586-2.549 1.439-1.248 0-.76-.533-2.007-.533-1.193 0-2.332-.053-3.526-.053l-9.057-.16c-.705 0-.868.48-2.061.48-.76 0-.38-.48-1.519-.534-.976 0-2.061-.213-3.037-.053-.759.107-.38.48-1.519.48.163 0-.108-.48-.488-.533-.488-.053-1.03 0-1.518 0-1.682-.107-3.363-.053-5.045-.107a269.409 269.409 0 00-6.562-.106c-.651 0-3.58.373-4.068-.054-.542-.533-.759-.48-2.007-.533-.325 0-2.278-.266-2.495-.053-.867 1.013-4.393.426-6.074.373-1.302 0-3.309 1.173-5.044.427-.271-.107.379-.587-.217-.534-.326.054-1.031.107-1.302 0 0 0-.379-1.066-.976-.533-.542.48-.271.48-1.519.48-1.518-.053-3.037-.053-4.556-.053-1.518-.053-3.037-.053-4.555-.107-.76 0-.38-.48-1.519-.533.325 0-1.085.48-1.519.48-.813 0-1.681-.053-2.495-.053-2.278-.054-2.711.16-3.525-1.067-1.519-.053-2.007 0-3.037.427-.326.16.217.48-.488.48-.489 0-1.573.16-2.007-.054-.326-.16.271-.533-.488-.533-.76 0-.217.373-.488.48-1.139.48-1.411-.426-2.007-.533-1.736-.32-3.797-.053-5.532-.107-1.031 0-2.007-.053-3.038-.053-.705 0-.271-.426-.488-.48-1.084-.32-2.061.48-2.278.48-1.573-.213-3.2-.053-4.772-.107.325 0-.543-1.172-.489-.266 0 .48-.65.267-1.03.267-1.736-.054-1.627-.534-3.525-.587-.706 0-.977.213-.977-.533 0-.693-1.139-.906-1.518-.533-1.085.96-.489 1.013-1.628 1.013-.867 0-1.681-.053-2.494-.053-.76 1.119-3.2.373-4.068-.054-.543.8-1.193.96-2.549.96-.868 0-1.682 0-2.549-.054-.597 0-1.085-.533-.977-.533-1.247-.106-.759.587-2.006.48.108 0-.38-.48-.977-.533-.379 0-1.573-.266-1.518.213.054.427-3.688.16-4.285.16-.217 0-.542-.48-1.248-.533-1.138-.106-2.386.107-3.525-.053-.542-.107-2.007-1.013-2.495-.533-.488.48.109.48-1.03.48-.326 0-1.79.213-2.007-.054-.542-.533-.868 0-2.549-.053-3.363-.053-4.719-.533-7.593-.16-.597-.96-1.356-1.013-2.983-1.066-.488.746-.326.267-1.519.48-.108 0-1.464.48-1.03.48-1.139.053-.706-.374-1.519-.534-.814-.16-1.736-.053-2.549-.053-1.682 0-1.953.533-2.495-.053-.597-.587-4.719-.053-5.532-.107-.76 0-.217.48-.76.48-.271 0-.434-.48-1.247-.533-.054 0 .217.533-.271.533-.434 0-.217-.533-.217-.533-1.79.053-2.061.266-3.526-.053-.488-.107-3.091.213-3.037-.267.163-1.066-1.193.32-1.03.213-.326.213-2.116.107-2.007-.266.054-.48-1.898-.267-2.278-.267-.651-.053.217.533-.759.48-.434 0-.868-.053-1.248 0-.271 0-.434-.533-1.247-.533-1.193 0-1.356-.533-2.007-.533-1.193-.053-2.332-.053-3.525-.053-.705 0-.868.48-2.007.48-.434 0-.868-.054-1.302 0-.596.053 0-.48-.217-.534-1.247-.32-5.044.16-5.044.16.163-.64-1.735 0-2.007-.266-.271-.267-.271-.64-.488-1.013-.325 0-2.061.48-2.061.693.055.32-3.037.32-3.525.16-.271-.054-.109-.48-1.031-.533-.813-.054-.162.266-.488.48-.542.372-2.874 0-3.525-.054-.054 0 .163-.64-.488-.48-.217.054.325.533-.271.48-1.248-.053-2.55-.053-3.797-.053-1.519-.053-1.193-.64-2.495-.053-.38-.587-.651-.64-1.79-.534-.325.054-.596-.8-.705-1.012-1.03 0-1.518.48-2.061.96-.379.372-.217-.107-.488.479-.868 0-1.681 0-2.549-.053-.326-.48.108-.534-.759-.48-.76 0 .054-.906.271-.533-.38-.64-.38-.587-.976-1.013-.055 1.812-.489 1.013-1.031 1.972-1.844-.053-3.688-.053-5.532-.106-.705 0-.488-.427-1.519-.533-.868-.107-1.573.48-1.79.48-1.139-.107-.759-.214-1.247-.534-1.247-.853-.271-.106-1.031.48-.759.586-.976-.373-1.518.48-.814-.267-2.82-1.28-3.037-.533-.38 0-3.092.213-3.038-.32.163-.853-.976.16-1.03.213-1.898 0-.543-1.44-1.519-.533-.271.267-1.085-.48-1.03.213.054.48-3.58.213-4.068.213a311.04 311.04 0 00-7.051-.106c-1.464 0-1.302-.533-2.495-.533.326 0-.379.48-.542.48-.597.16-1.41 0-2.007-.054-1.681-.053-3.363-.053-5.044-.106-1.464 0-.759-.747-1.519 0-.216.213-2.766.053-3.037-.054-.271-.106.163-.373-.488-.533-.651-.106-1.356 0-2.007 0-.705 0-.271.427-.488.48-.596.16-1.41-.053-2.007-.053-1.681-.053-3.362-.053-5.044-.107-1.247-.053-.759-.533-2.006-.533.325 0-.38.48-.488.48-.434.107-1.085 0-1.519 0-1.519 0-3.037-.053-4.556-.053-1.681-.054-3.363-.054-5.044-.107-.759 0-.38-.533-1.519-.533-.705 0-.867.48-2.006.48-1.139 0-1.465 0-2.007-.533-.922-.96-3.905.426-4.556.426-1.193-.053-1.356-.533-2.007-.533-.759 0-1.03.533-1.247.48-1.193-.16-5.587.64-6.292-.107-.868-.853.054.107-.759 0-.922-.107-1.898-.053-2.766-.053-.922-.64.054-.16 0-.48-.054-1.066-.488-.053-.976-.533v-.533c-.434-.32-1.899-.267-1.031.48.542.426 1.139 1.013-.542.96-.814 0-1.736.053-2.549-.054-1.248-.16-1.302-.48-2.766-.586-.651-.054.216.533-.76.48h-2.007c-.759-1.173-1.572-.214-2.006.479-.814 0-1.519.32-1.519-.533 0-1.28 0-.746-1.247-1.013-.217-.053-.651 1.28-.814 1.493-1.247 0-.976-.16-1.519-.533-.65-.427-1.084.48-1.03.48-.976.053-2.007-.054-3.037-.054-.868 0-.055-.48-1.031-.533-1.79-.053-1.952.48-3.525.427-.922 0-1.844 0-2.766-.054-.272 0-.434.533-1.248.48-.705 0-.271-.533-.759-.533-.759.053-1.519 0-2.278 0-1.953-.053-2.169.48-4.068.426l-8.569-.16c-1.465-.053-1.465.214-1.519-1.012-1.844-.054-.759 0-1.518.48-.217.16-2.604.373-2.55.48-.65-.854-.217.052-.488 0-.759-.16-.162-.48-.976-.534-1.247-.053-1.41.48-3.037.427-1.139 0-.705-.48-1.519-.533-1.085-.054-.596.32-1.03.48-1.139.479-1.79-.534-3.038-.534-.759 0-.271.373-1.03.48-.922.16-2.115-.053-3.037-.053-2.007-.054-2.116-.534-4.014-.587-.488 0-3.634.214-3.525-.32.108-.426-.488-.32-.488.267-.055 1.972-1.953-.427-2.007-.533-.651 0-1.356-.053-2.007-.053-.163.266-.434.373-.488.48-.651 1.119-2.115.373-2.115.532.054.906-2.821-.266-3.038-.266-.705 0-.325.32-1.03.48-.705.16-1.573-.054-2.278-.054-.054 0-.759-1.12-.759-.266 0 .96-.651-.32-.489-.267-1.084-.48-1.193.267-1.518.48-.326.213-1.356-.053-1.79 0-.271 0-.597-.64-1.519-.533-.054 0-.542-.427-.759-.533-2.169-.053.976.96-1.952.96-.651 0-5.099-.64-5.533-.107-.867 1.012-1.627-.053-3.037-.053-1.952-.054-2.44.48-4.068.426-1.139 0-7.43.64-8.081-.16-.976-1.226-1.247.213-2.007-.053-.271-.054.38-.533-.217-.533h-1.247c-.271 0-1.844-.214-2.007 0-.596.693-2.549.16-2.549.213.054.96-7.159-.267-7.539-.853-.922.48-1.464 1.12-2.007.48-1.139 0-2.386.106-3.525-.054-.759-.106-.108-.266-.488-.533-.217-.16-2.82-.213-3.037-.053-.434.373.054.48-1.031.48-.868 0-1.681-.053-2.549-.053-2.007-.054-4.068-.267-6.075-.107-1.193.106-.976.426-2.277.48-.055 0-1.139-1.12-1.736-.533-.434.373-.868.8-1.519.96-.434.106-2.549.159-2.495-.32 0-.054-11.986.532-13.613.532-1.247-.053-.759.48-2.061.48-.705 0-1.681.48-1.736.48-2.223-.267-2.983-.213-4.284-1.066-.38.586-1.085.96-2.061.96-.977 0-4.448-.64-5.044-.107-.488.426-.434.48-1.519.48-1.193 0-2.332-.054-3.525-.054-.814 0-.868-.48-.977-.533-.542-.107-.596.48-.488.48-.976-.107-.868-.533-1.518-.533.217 0-.597.48-1.031.48-.38.586 0 .48-1.03.48-.38-.534-.651-.427-.977-1.014-2.223-.053-.488.267-.488.747s-1.627.213-2.061.213c-1.139 0-2.386-.16-3.525-.054-.217 0-1.193.427-1.085.48-.542-.053-3.525-1.12-3.471-.266.054.746-1.898-.587-2.007-.8-1.518 0-1.247.48-2.549.48-.922 0-4.013-.587-4.556-.107-.434.427.054.427-1.03.48-.868 0-1.682-.053-2.549-.053-2.17-.054-4.394-.107-6.563-.107-1.573 0-1.465.48-3.037.427-1.953-.054-4.122.16-6.075-.107-1.03-.107-3.146-1.013-4.285-1.066-.325 0-.217.426-.759.48-.651.106-1.356-.16-2.007-.054-.813.16-1.193.48-2.549.427-1.247 0-1.085.48-2.549.48-2.386-.054-4.719-.107-7.051-.107-2.549-.053-8.732 2.239-10.088-.16-.596 0-3.091.373-3.037.693.108.906-2.061-.267-2.007-.267.054 0-.325.533-1.03.48-.814-.107-.76-.48-.977-.533-.542-.16-1.952-.16-2.494-.053-.217.053-.76.533-.543.48-1.139.053-1.79-.747-3.525-.587-.543.053-1.248.533-1.519.96-2.115-.054-2.603-.373-4.556-.587-.542.8-2.223.427-3.525.427-.488.693 0 .48-.488 0h-.488c-.38-.587-.651-.373-.977-1.013h-.488c-.434.586-.379.586-1.03.96-.543.32-.271.48-1.519.48-.542.692-.868.319-2.007.479-.162 0-1.464.48-1.03.48-1.193 0-1.41-.64-3.037-.533-1.302.053-1.248.373-2.658.48-.542-.853-2.115-1.013-3.525-1.067-.217.32-.217.693-.489.96h-.488v.48c-.379.373-.217-.107-.488.48-.651 0-1.356 0-2.007-.054-.976 0-.108-.533-.759-.533-.651.053-1.464.533-1.519.48-1.355-.16-2.928-.16-4.284-.107a6.782 6.782 0 01-1.79-.053c-.542-.054-.109.533-.217.533-.38 0-2.603-.96-2.495-.267.054.48-1.193.213-1.519.213-1.084-.053-1.03-.053-1.518-.533-.597-.64-2.115.534-2.766.427-.109 0-.705.426-1.248.48-.867.106-.054-.48-.976-.533-1.03 0-1.681.213-3.037.426-1.573.213-1.79.48-3.526.426-.433 0-5.098-.32-5.044.16.055.8-2.874-.32-3.037-.32.271 0-.651.48-1.03.48-.597 0-1.194-.053-1.79 0-.271 0-.38-.533-1.248-.533-.813 0-.162.213-.488.48-.759.48-4.23 0-5.044-.107-1.41-.106-1.681-.106-2.495-.533-.651.907-2.386.427-3.037 1.44-.705-.054-.813-.534-2.007-.534-1.03 0-2.006-.053-3.037-.053-.434 0-.868-.053-1.302 0-.596 0 .055-.426-.217-.533-1.084-.426-1.139.213-1.518.48-.543.32-2.387-.053-3.037-.053-.706 0-.543.426-1.519.48-1.193.053-.705-.534-1.519-.534-.759 0-1.084.533-1.247.48-.976-.107-6.346-.266-6.292.16.055.426-2.657.213-3.037.213-1.356-.053-1.898-.16-2.549.427-.054.053-.976-.534-1.519-.534-1.518-.053-3.037-.053-4.556-.053-2.278-.053-2.494.427-4.555.427-.597 0-1.194-.054-1.79 0-.597.053.054-.373-.217-.533-1.085-.48-1.193.266-1.519.48-.434.266-2.007-.054-2.495-.054-.705 0-.488.427-1.518.48-1.302.106-2.712-.053-4.014-.053-.813 0-.976-.534-1.247-.534-.434 0-.326.534-1.302.48-1.031 0-2.007-.053-3.037-.053-3.905-.053-7.81.853-11.607.8-2.549-.054-3.797-.48-5.803-.587-.109 0-1.085.427-1.79.48-1.356.107-2.712-.16-4.068-.053-.813.053-.38.48-1.519.48-1.03 0-2.006 0-3.037-.054-1.085-.053-.759-.533-1.518-.533-1.356 0-2.712-.053-4.014-.053-1.627-.054-1.681.96-3.525.906-1.085 0-.76-.533-1.519-.533-1.193 0-2.332-.053-3.525-.053-3.96-.054-6.455.852-10.631.799-2.007-.053-3.471.533-6.074.373-.434 0-2.224.267-2.549-.053-.163-.16-.217-.267-.217-.373 0 .053-.109.213-.272.373-.325.32-2.115-.48-2.006.213.054.426-2.061.213-2.549.213-3.038-.053-6.075-.106-9.058-.16l-10.088-.16c-2.061-.053-3.308.374-4.827.427 0 0-1.139-.48-1.736-.533-1.301-.16-2.712-.053-4.067-.053-.489.106-3.2.746-3.2.8.054.319-8.136.106-9.112.052-.76 0-.434-.426-1.519-.533-.76-.053-.38.533-1.519.48.272.053-.325-.426-.488-.48-.596-.16-1.41 0-2.006-.053-.597 0-3.58.373-4.068-.053-.434-.427.054-.427-.976-.533-.489-.054-1.03 0-1.519-.054-2.007-.053-4.068-.053-6.075-.106-2.711-.053-3.796.426-6.562.373-1.519-.053-3.038-.053-4.556-.107-1.03 0-.054.533-.76.48-.487 0-.162-.533-.216-.533-2.712-.16-5.044 1.013-7.051-.107-.488-.266.108-.426-.976-.533-.272.427-1.573 1.12-1.79 1.12-.597-.053-1.193-.053-1.79-.053-1.03 0-.597.106-1.03.48-1.085 1.012-6.238-.267-7.051-.64-.055 0-1.627-1.066-1.519-.267.108.48-2.55.213-3.037.213-4.176-.053-8.407-.16-12.583-.213-.651-.96-1.356-1.013-3.037-1.066-.38.586.054.533-1.03.48-1.031 0-.543.32-.977.48-.326.16-1.573.16-1.519-.267.109-.906-.868.213-.488.213-.922-.107-.705-.373-.976-.533-.651-.16-1.519.267-2.061 0-.326-.106.054-.48-.76-.533-.596-.053.109.586-.488.533-.759-.106-1.572 0-2.278-.053-.705 0-.27-.427-.488-.48-.759-.213-1.356-.107-1.898.107V0h1540v15.352c-.33.053-.71.16-1.19.213zM432.213 10.981c-.38.373-.217-.107-.488.48 0 1.066.976.533 1.03-.48 1.031-.373.055-.533-.542 0zm28.258 1.972c.271.267.813-.213.488-.48-.272-.266-.76.214-.488.48zm53.585-4.53c.272.266.814-.214.489-.48-.217-.32-.76.213-.489.48zm36.231 6.076c.271.267.813-.213.542-.48-.271-.266-.814.214-.542.48zm4.176-5.863c.271.266.813-.213.488-.48-.271-.32-.759.16-.488.48zm62.047 3.518c-1.519 0-1.085 1.013-.76 1.013.597-.107 0 .746.217 1.013h.489c.488-.747.813-1.333.054-2.026zm79.186 2.878c.271.267.813-.213.542-.48-.271-.32-.814.16-.542.48zm20.772-5.117c.271.267.814-.213.488-.48-.217-.32-.759.214-.488.48zm26.685 6.397c.271.266.813-.214.488-.48-.271-.32-.759.213-.488.48zm12.095-1.28c.271.267.813-.213.542-.48-.271-.32-.814.214-.542.48zm70.616 3.678c-.488-.96-.651 0 0 0 .542.96.705 0 0 0zm25.762.427c.272.266.76-.213.489-.48-.272-.267-.76.213-.489.48zm125.179 1.172c.271.267.813-.213.542-.48-.271-.32-.813.214-.542.48zm117.695-2.451c-.6.8-.38.48 0 1.012.7 1.12.65-.64 0-1.012zm65.63.64c-.06 2.345 2.38.052 0 0zm52.98.905c.28.267.82-.213.55-.48-.27-.32-.82.16-.55.48z" fill="#DCE3B9"/></svg>