<svg width="41" height="22" fill="none" xmlns="http://www.w3.org/2000/svg"><path d="M19.215 8.651c.24-.056.48-.113.756-.172.623-.09 1.278-.218 1.901-.308.31-.062.69-.13 1-.193.968-.156 2.05-.604 2.658-.87.605-.3 1.134-.664 1.66-1.063.33-.241.618-.55.906-.857.225-.232.419-.426.603-.725.343-.489.65-.975.956-1.497.304-.521.647-1.011.952-1.533.159-.19.277-.448.4-.635.029-.074.095-.115.197-.159.104-.01.215.052.319.043.04.067.082.134.088.204l.411 2.297c.022.246.043.491.096.699.054.207.145.446.163.657.1.733.366 1.382.671 2.062.13.271.299.61.463.878a7.73 7.73 0 001.572 1.948c.458.42.982.798 1.468 1.144.672.472 1.41.902 2.146 1.297.26.154.553.305.846.456.044.102.227.192.145.447-.184.299-.608.265-.886.29-.83.143-1.693.29-2.56.4-.452.04-.895.185-1.335.364-.44.18-.959.261-1.354.543-.498.326-1.109.557-1.559 1.02-.253.305-.656.517-.944.825-.422.39-.73.877-1.073 1.366-.222.267-.333.595-.52.859a49.076 49.076 0 01-.921 1.494c-.156.226-.239.48-.429.71-.124.187-.213.371-.491.396-.332-.183-.33-.572-.355-.853-.066-.348-.134-.73-.168-1.116-.024-.28-.119-.555-.143-.836-.025-.28-.119-.555-.181-.868-.175-.797-.379-1.522-.69-2.272-.302-.645-.635-1.252-1.07-1.815-.63-.793-1.362-1.542-2.252-2.1a61.265 61.265 0 00-1.702-1.018c-.258-.154-.52-.344-.776-.463-.29-.116-.483-.31-.742-.465-.183-.09-.268-.26-.226-.58zM0 16.493c.107-.11.25-.182.358-.292.323-.219.61-.474.932-.693.179-.11.322-.255.501-.364.466-.329.967-.876 1.218-1.204.25-.328.43-.693.609-1.021a5.86 5.86 0 00.25-.73c.072-.182.108-.365.144-.547.036-.365.107-.73.107-1.058 0-.364.072-.73.108-1.094.036-.146 0-.292.036-.474a.28.28 0 01.071-.146c.072-.037.108-.036.18-.036.035.036.107.036.107.072.286.365.537.766.824 1.131.107.11.143.255.25.365.108.11.18.219.251.292.251.364.573.656.932.948.179.146.286.255.465.365.43.292.86.51 1.361.62.359.073.753.182 1.075.219.502.073 1.003.11 1.469.146.179.036.358 0 .573.036.036.037.179.037.179.219-.036.219-.25.292-.43.365-.43.291-.86.62-1.29.875-.25.146-.393.365-.608.547-.215.182-.466.365-.61.657-.178.291-.43.583-.572.948-.072.255-.215.438-.287.693-.107.328-.18.693-.25 1.021-.037.22-.072.401-.037.62 0 .365-.071.73-.107 1.058-.036.182 0 .328-.036.474 0 .11-.036.256-.143.329-.215-.037-.323-.22-.43-.402-.107-.219-.287-.364-.394-.547-.072-.146-.215-.292-.287-.438-.071-.145-.215-.291-.322-.4-.287-.366-.573-.73-.967-1.022-.323-.255-.68-.547-1.075-.693-.537-.255-1.146-.474-1.72-.547-.393-.073-.787-.073-1.181-.11-.18 0-.358-.036-.538-.036-.179 0-.358-.037-.501-.037-.072.146-.143.073-.215-.109z" fill="#fff" fill-opacity=".3"/></svg>