<svg width="41" height="22" fill="none" xmlns="http://www.w3.org/2000/svg"><path d="M19.215 8.651c.24-.056.481-.113.756-.172.623-.09 1.278-.218 1.901-.308.31-.062.69-.13 1-.193.968-.156 2.05-.604 2.658-.87.605-.3 1.134-.664 1.66-1.063.33-.241.618-.55.907-.857.225-.232.418-.426.602-.725.343-.49.651-.976.956-1.497.305-.522.648-1.011.953-1.533.158-.19.276-.448.4-.635.028-.074.095-.115.196-.159.104-.01.215.052.32.043.04.067.081.134.087.204l.412 2.297c.021.246.043.491.096.698.053.208.144.447.163.658.099.733.366 1.382.67 2.062.13.271.3.61.463.878.416.742.964 1.4 1.573 1.948.457.42.98.798 1.467 1.144.672.472 1.41.902 2.147 1.297.258.154.552.305.846.456.044.102.227.192.144.447-.184.299-.608.265-.886.29a59.46 59.46 0 01-2.56.4c-.451.04-.894.185-1.334.364-.44.18-.96.261-1.355.543-.497.326-1.108.557-1.558 1.02-.254.305-.656.517-.945.825-.421.39-.73.877-1.072 1.366-.222.267-.334.595-.521.859-.305.521-.613 1.008-.92 1.494-.156.226-.24.48-.43.71-.123.187-.212.371-.49.396-.332-.183-.331-.572-.356-.853-.065-.348-.134-.73-.168-1.116-.024-.28-.118-.555-.143-.836-.024-.28-.119-.555-.18-.868-.176-.797-.38-1.522-.69-2.272-.302-.646-.636-1.252-1.07-1.815-.631-.793-1.363-1.543-2.253-2.1a59.757 59.757 0 00-1.701-1.018c-.26-.155-.521-.344-.777-.463-.29-.116-.483-.31-.742-.465-.183-.09-.268-.26-.226-.581zM0 16.493c.107-.11.25-.182.358-.292.323-.219.61-.474.932-.693.179-.11.322-.255.501-.364.466-.329.967-.876 1.218-1.204.25-.328.43-.693.609-1.021.107-.256.179-.475.25-.73.072-.182.108-.365.144-.547.036-.365.107-.73.107-1.058 0-.364.072-.73.108-1.094.036-.146 0-.292.036-.474a.28.28 0 01.071-.146c.072-.037.108-.037.18-.037.035.037.107.037.107.073.286.365.537.766.824 1.131.107.11.143.255.25.365.108.11.18.219.251.292.251.364.573.656.932.948.179.146.286.255.465.365.43.292.86.51 1.361.62.359.073.753.182 1.075.219.502.073 1.003.109 1.469.146.179.036.358 0 .573.036.036.037.179.037.179.219-.036.219-.25.292-.43.365-.43.291-.86.62-1.29.875-.25.146-.393.365-.608.547-.215.182-.466.365-.61.657-.178.291-.43.583-.572.948-.072.255-.215.438-.287.693-.107.328-.18.693-.25 1.021-.037.22-.072.401-.037.62 0 .365-.071.73-.107 1.058-.036.182 0 .328-.036.474 0 .11-.036.256-.143.329-.215-.037-.323-.22-.43-.402-.107-.219-.287-.364-.394-.547-.072-.146-.215-.292-.287-.438-.071-.145-.215-.291-.322-.4-.287-.366-.573-.73-.967-1.022-.323-.255-.68-.547-1.075-.693-.537-.255-1.146-.474-1.72-.547-.393-.073-.787-.073-1.181-.11-.18 0-.358-.036-.538-.036-.179 0-.358-.037-.501-.037-.072.146-.143.073-.215-.109z" fill="#008482" fill-opacity=".3"/></svg>