<svg width="140" height="140" fill="none" xmlns="http://www.w3.org/2000/svg"><circle cx="70" cy="70" r="70" fill="#fff"/><path d="M77.834 118.65c-26.83 4.321-52.165-13.99-56.486-40.822a49.324 49.324 0 01-.213-14.283.594.594 0 01.68-.52c.333.04.574.347.52.68-.6 4.615-.533 9.296.214 13.923 4.213 26.165 28.922 44.022 55.085 39.808 10.321-1.667 19.615-6.508 26.869-14.003 7.014-7.241 11.655-16.71 13.082-26.645a.624.624 0 01.693-.52c.334.053.56.36.52.693-1.453 10.19-6.214 19.884-13.401 27.313-7.44 7.708-16.975 12.669-27.563 14.376zm37.03-67.16a.601.601 0 01-.653-.36c-4.134-9.696-11.494-17.884-20.749-23.072-9.534-5.334-20.282-7.241-31.096-5.508a47.916 47.916 0 00-30.257 17.884.611.611 0 01-.853.107.612.612 0 01-.107-.854c7.668-9.842 18.696-16.35 31.017-18.337 11.081-1.787 22.109.16 31.883 5.641 9.481 5.308 17.042 13.71 21.269 23.659a.612.612 0 01-.454.84z" fill="#008482"/><path d="M113.171 62.385c-.04 0-.067 0-.107.014a.732.732 0 00-.506.533c-.587 2.4-1.187 4.88-3.561 6.174-1.107-.946-2.093-1.8-3.253-2.8a1.617 1.617 0 01-.547-1.214c.08-3.28.16-6.854.24-10.535a1.533 1.533 0 00-1.627-1.574c-.107 0-.213.014-.347.04a1.36 1.36 0 00-1.16 1.094c-.106.6-.226 1.213-.266 1.827-.174 3.107-.267 6.228-.427 9.335-.04.694-.027 1.374-.08 2.054 0 .347-.014.693-.014 1.04.027.52.014 1.04-.106 1.507-.747 2.707-1.854 5.268-3.64 7.468a9.095 9.095 0 01-2.254 1.974c-1.08.68-2.267.187-2.627-1.04-.293-1.027-.48-2.107-.32-2.894 1.16-.44 2.16-.654 2.974-1.174 2.106-1.36 4.267-5.641 3.56-8.495-.067-.293-.227-.547-.413-.773a5.25 5.25 0 00-.267-.294c-2.08-2.133-5.16-1.867-6.788.6-.4.6-.72 1.254-.986 1.92-.907 2.201-1.36 4.508-1.574 6.856-.293 3.133-1.613 5.907-3.16 8.575-.374.626-1.32.44-1.427-.28-.56-3.935-.093-7.642-.027-11.296.014-.867-.573-1.64-1.426-1.814a4.272 4.272 0 00-.84-.08 1.216 1.216 0 00-1.2.867c-1.347 4.574-2.694 9.162-4.041 13.736l-.36-.067c.373-7.001.76-14.002 1.133-20.924-1.053-.907-2.093-1.013-3.32-.827-.107.614-.227 1.16-.293 1.72-.827 6.389-1.24 12.803-1.32 19.231-.027 1.627.013 3.268.173 4.881.187 1.867 1.053 2.84 2.68 3 .76.08 1.454-.426 1.654-1.16.973-3.734 1.96-7.508 2.947-11.268h.013c.213 1.68.253 3.334.347 4.974.12 2.014 1.493 3.027 3.187 3.654 1.053.387 2.04.147 2.64-.853a40.105 40.105 0 001.827-3.428c.427-.88.746-1.813 1.16-2.854h.013c.334.374.547.614.76.867 1.667 2.04 4.788 2.507 6.828.84 1.093-.893 2-2.053 2.813-3.227.72-1.054 1.2-2.267 1.88-3.587h.014c.053.573.093.973.133 1.373.187 2 .294 4.014.614 5.988.146.96.56 1.934 1.066 2.774.96 1.6 2.934 1.92 4.334.707.707-.614 1.36-1.387 1.8-2.214 1.84-3.52 1.854-7.175.574-10.869a52.935 52.935 0 00-.694-1.84c2.881-1.787 3.947-4.428 4.481-7.428a.674.674 0 00-.467-.747c-.173-.014-.28-.04-.4-.067zM96.343 65.56l.04.027c.28.2.466.52.493.867.187 2.667-1.28 5.694-3.294 7.054a.55.55 0 01-.853-.44c-.107-2.267.973-5.68 2.36-7.348a.904.904 0 011.254-.16zm9.307 5.681h1.16c.494 0 .96.28 1.187.72 1.56 3.108.787 8.149-.933 10.31-.294.36-.92.213-.947-.254m-40.244 5.826c.227.294.467.574.68.867 1.614 2.147 2.454 4.561 2.16 7.242-.32 2.813-1.973 4.68-4.6 5.547-2.414.8-4.387-.2-6.094-1.907-1.2-1.187-1.84-2.68-2.414-4.2-.8-2.161-1.2-4.415-1.107-6.789.494-.28.96-.52 1.414-.773 4.907-2.84 9-6.521 11.934-11.429 1.094-1.827 1.96-3.76 2.147-5.908.094-1.027.094-2.134-.213-3.107-1.08-3.494-4.2-4.081-6.774-2.854-2.027.96-3.774 2.28-5.28 3.92-4.574 4.975-7.055 10.91-7.895 17.578l-.16 1.413c-1.373-.053-2.173-.547-2.947-1.507-1.333-1.654-2.68-5.014-3.107-7.241-.32-2.907-.653-5.828-.76-8.749-.266-8.015.214-16.003.707-24.005.04-.706.053-1.426.08-2.08-.973-.92-2.027-1.013-3.187-.893-.4 1.733-.733 3.32-1.147 4.894-1.213 4.747-2.4 9.508-3.707 14.23-.72 2.587-1.64 5.12-2.52 7.668-.24.666-.693 1.267-1.04 1.893-.147-.026-.147-.026-.293-.066-.387-4.175-.08-8.335.373-12.483.44-3.88.96-7.761 1.467-11.709.08-.613-.054-1.253-.414-1.76-.306-.454-.653-.72-1.107-.84-.773-.2-1.586.106-2.093.72-.547.667-1.12 1.36-1.694 2.053-2.76 3.348-5.72 6.468-9.454 8.762-2.44 1.494-4.96 2.32-7.76.96-.107-.053-.267-.013-.44-.013-.12 1.16.44 2 1.04 2.88 1.613 2.388 3.88 3.161 6.48 1.921 1.24-.587 2.4-1.427 3.44-2.32 2.56-2.2 4.654-4.828 6.668-7.522.293-.4.64-.76 1.187-1.373-.134.826-.214 1.293-.294 1.773-.466 3.08-.986 6.161-1.36 9.255-.32 2.668-.547 5.361-.08 8.029.373 2.08 1.414 3.827 3.574 4.454.786.227 1.653.013 2.2-.587.107-.12.2-.24.28-.373.6-.974 1.214-1.987 1.56-3.068 1-3.16 1.88-6.348 2.814-9.535.16-.533.293-1.067.44-1.6.267.533.28 1.04.267 1.547-.187 5.601-.387 11.202.253 16.79.093.84.227 1.68.413 2.507a.638.638 0 01.027.16l.04.133v.027c.747 3.04 4.494 11.616 8.6 10.509.6-.107.96-.227 1.494-.28.36 3.134.987 5.988 2.547 8.602 2.654 4.414 6.707 5.294 9.854 4.48a20.98 20.98 0 004.681-1.813c4.587-2.467 6.747-7.762 5.227-12.483-.893-2.814-3.854-3.56-6.107-1.547zM54.698 84.99c.774-5.627 2.76-10.775 6.254-15.283 1.027-1.333 2.187-2.56 3.707-3.347h.014c.933-.48 2-.067 2.333.934.147.453.2.92.147 1.386-.147 1.467-.307 2.988-.84 4.348-2.174 5.508-5.974 9.669-10.974 12.763-.12.08-.267.12-.4.16-.04.013-.094-.014-.24-.04 0-.28-.04-.6 0-.92z" fill="#008482"/><path d="M49.725 67.506c2 .707 3.84.44 5.307-1.107.973-1.04 1.813-2.227 2.587-3.427.573-.88.933-1.88 1.413-2.854.254.2.494.36.707.546 1.64 1.454 3.507 1.828 5.627 1.32 2.307-.533 3.787-1.973 4.707-4.067 1.44-3.24 1.947-6.708 2.427-10.188 0-.054-.026-.094-.066-.187a.488.488 0 00-.387-.254l-.573-.053a.363.363 0 00-.387.294c-.494 2.64-.734 5.2-1.6 7.774-1.454-2.56-2.827-4.947-4.147-7.361-.36-.667-.8-1.4-.814-2.12 0-.374.133-.747.307-1.134a1.2 1.2 0 00-.707-1.627c-.053-.013-.093-.027-.147-.04-1.88-.547-3.36.413-3.68 2.347-.04.24-.053.48-.08.72-.56 3.921-.747 7.908-2.32 11.656-.827 1.96-1.72 3.854-3.16 5.441a7.375 7.375 0 01-1.774 1.44c-1.147.667-2.387.16-2.694-1.147-.186-.76-.226-1.547-.293-2.333a.717.717 0 01.653-.774c1.32-.12 2.054-.427 2.867-1.267 1.56-1.614 2.654-3.4 3-5.48.374-2.201-.893-4.402-3.04-4.975-1.96-.534-3.853.507-5.027 3.014-1.72 3.68-2.32 7.601-1.88 11.642.227 2.014 1.187 3.494 3.174 4.2zm11.774-18.137c1.654 2.387 3.227 4.56 4.24 7.068.107.28.2.56.24.854.28 1.827-.853 2.92-2.733 2.547-1.454-.294-2.44-1.227-3.2-2.36.493-2.761.96-5.335 1.453-8.11zm-7.307 1.787c.587 3.014-1.307 6.815-4.227 8.242.333-2.788.56-5.428 1.973-7.762.467-.787 1.507-.987 2.254-.48zm66.633-11.522c-.72-.2-1.48.307-1.547 1.053v.014c-.306 3.48-.653 6.975-.906 10.455-.294 3.974-.507 7.949-.747 11.923-.027.52-.08 1.066.186 1.613.227.467.734.707 1.241.64.106-.013.226-.026.333-.04.56-.066 1-.52 1.067-1.08.84-7.121 1.653-14.016 2.493-20.897.227-1.84-.453-3.214-2.12-3.681zm-2.787 28.112c-1.2.52-1.613 1.627-1.093 2.827.52 1.174 1.44 1.574 2.52 1.094 1.147-.494 1.6-1.787 1.04-3-.493-1.067-1.387-1.4-2.467-.92z" fill="#008482"/><path d="M80.607 135.812c-17.575 2.828-35.203-1.36-49.645-11.789C16.521 113.595 7.026 98.178 4.199 80.601 1.372 63.025 5.56 45.394 15.987 30.965 26.415 16.535 41.843 7.027 59.418 4.199c17.575-2.827 35.204 1.36 49.632 11.79 14.428 10.428 23.936 25.858 26.763 43.435 2.826 17.577-1.361 35.207-11.788 49.636-10.428 14.43-25.843 23.925-43.418 26.752zM59.605 5.386C42.35 8.16 27.202 17.496 16.96 31.672 6.72 45.834 2.613 63.145 5.386 80.415c2.774 17.27 12.108 32.406 26.283 42.648 14.161 10.242 31.47 14.35 48.738 11.576 17.255-2.774 32.403-12.109 42.644-26.285 10.241-14.177 14.348-31.473 11.575-48.743-2.774-17.257-12.108-32.407-26.283-42.649C94.168 6.707 76.86 2.599 59.605 5.386z" fill="#008482"/><path d="M28.176 36.82a.561.561 0 01-.334.186.373.373 0 01-.333-.093l-5.014-4.32a.38.38 0 01-.146-.308.41.41 0 01.106-.32l1.934-2.24c.267-.306.56-.52.92-.64a2.057 2.057 0 012.08.4c.227.2.4.427.52.68.12.254.187.52.213.8a1.99 1.99 0 01-.12.8l-.28.08a1.678 1.678 0 011.387-.306c.254.053.494.173.72.373.214.16.387.28.52.373.134.08.254.147.347.174a.5.5 0 00.28 0 .436.436 0 01.32.013c.107.04.174.133.2.253.027.08.027.16-.013.227s-.08.147-.134.187a.56.56 0 01-.186.12c-.12.04-.267.067-.427.067-.173 0-.36-.054-.587-.147a3.565 3.565 0 01-.8-.547c-.173-.146-.333-.24-.493-.28a.926.926 0 00-.467-.013c-.146.026-.28.093-.413.173-.134.093-.24.187-.347.307l-1.56 1.813-.053-.213 2.107 1.814c.093.08.146.173.16.28a.366.366 0 01-.107.306zm-2.707-2.681l1.707-1.987c.12-.16.2-.36.213-.587a1.368 1.368 0 00-.12-.68c-.093-.24-.267-.453-.493-.653-.28-.24-.6-.36-.947-.333-.347.013-.64.16-.867.44l-1.627 1.907-.106-.2 2.467 2.12-.227-.027zm4.081-9.615l2.92-2.454c.093-.08.2-.12.32-.106.12.013.213.053.293.146.08.094.107.2.093.307a.404.404 0 01-.16.28l-2.64 2.227-.04-.2 1.747 2.067-.16-.026 2.28-1.92a.41.41 0 01.32-.107c.12 0 .213.053.293.16a.405.405 0 01-.067.587l-2.253 1.893-.013-.133 1.787 2.12-.094-.013 2.614-2.2c.093-.08.2-.107.32-.107a.4.4 0 01.28.133c.08.093.107.2.093.307a.433.433 0 01-.16.293l-2.92 2.454a.466.466 0 01-.32.107.407.407 0 01-.293-.16l-4.267-5.068a.466.466 0 01-.107-.32c-.013-.093.04-.187.133-.267zm11.747-7.708a.384.384 0 01.334.133c.08.094.12.214.106.36a.367.367 0 01-.133.254.52.52 0 01-.294.107c-.28 0-.546.04-.826.106a2.99 2.99 0 00-.8.334 2.96 2.96 0 00-.88.786 2.85 2.85 0 00-.467 1c-.08.36-.094.734-.027 1.12.067.387.213.76.44 1.134.24.4.52.72.84.96.32.24.654.4 1.014.493.36.094.72.107 1.093.04.36-.066.72-.2 1.067-.413.253-.147.467-.333.667-.533.186-.214.346-.44.48-.68a.447.447 0 01.24-.2c.093-.04.2-.04.293 0 .133.053.227.133.267.253.04.12.026.24-.027.347a3.41 3.41 0 01-.373.56c-.147.186-.32.373-.507.546a3.906 3.906 0 01-3.414.933 3.466 3.466 0 01-1.333-.613 4.095 4.095 0 01-1.093-1.226 4.122 4.122 0 01-.547-1.454 3.784 3.784 0 01.053-1.453c.12-.467.32-.907.614-1.307.293-.4.68-.747 1.146-1.027a4.77 4.77 0 011-.44c.374-.08.72-.12 1.067-.12zm7.374 3.8a.367.367 0 010 .334c-.053.12-.12.2-.24.24a.45.45 0 01-.346.013.425.425 0 01-.24-.24l-2.68-6.054a.415.415 0 01-.014-.333c.04-.107.133-.2.253-.254a.416.416 0 01.334-.013c.106.04.2.12.24.227l2.693 6.08zm4.347-9.056c.374-.106.734-.12 1.094-.026.36.093.68.28.947.547a2.4 2.4 0 01.586 1.013c.12.4.147.8.067 1.174-.08.386-.24.72-.48 1-.24.293-.547.48-.92.6l-2.08.627.026-.16.774 2.587c.04.12.026.226-.027.333a.407.407 0 01-.253.213.365.365 0 01-.334-.04.376.376 0 01-.2-.266l-1.907-6.348a.37.37 0 01.04-.333.432.432 0 01.267-.213l2.4-.707zm1.067 3.508c.213-.067.4-.187.533-.36a1.4 1.4 0 00.267-.627c.04-.24.027-.48-.053-.733-.08-.254-.2-.467-.36-.64a1.136 1.136 0 00-.56-.347 1.05 1.05 0 00-.64 0l-2.08.627.04-.147.88 2.934-.107-.08 2.08-.627zM59.752 10l3.774-.533a.447.447 0 01.32.08c.093.067.16.16.173.28a.398.398 0 01-.08.307.576.576 0 01-.293.16l-3.414.493.067-.2.387 2.68-.12-.106 2.947-.427a.516.516 0 01.32.067.44.44 0 01.173.293.399.399 0 01-.08.307.576.576 0 01-.293.16l-2.92.413.053-.12.387 2.747-.08-.066 3.386-.48a.448.448 0 01.32.08c.094.066.147.16.174.266a.447.447 0 01-.08.32.433.433 0 01-.294.16l-3.773.547a.447.447 0 01-.32-.08.421.421 0 01-.174-.293l-.933-6.56a.447.447 0 01.08-.321.42.42 0 01.293-.173zm17.482-.426c.627.067 1.094.28 1.4.64.307.36.427.84.36 1.427-.04.307-.133.587-.306.84-.174.253-.4.44-.694.56-.293.133-.64.173-1.04.147l.027-.294c.253.027.506.094.76.187.253.093.48.24.693.413.2.187.36.4.48.68.12.267.147.6.107.974-.04.4-.147.733-.307 1s-.373.467-.613.6a2.29 2.29 0 01-.787.267c-.28.04-.56.053-.853.013l-2.787-.307a.433.433 0 01-.294-.16.4.4 0 01-.093-.32l.707-6.587a.434.434 0 01.16-.293.4.4 0 01.32-.094l2.76.307zm-.467 4l-2.307-.253.08-.067-.306 2.787-.08-.106 2.36.253c.413.04.76-.027 1.053-.213.294-.187.454-.507.507-.947.04-.347 0-.627-.133-.827-.12-.2-.294-.347-.507-.453a2.59 2.59 0 00-.667-.174zm.267-3.173l-2.294-.254.147-.16-.28 2.64-.107-.146 2.294.253c.307.04.587-.04.84-.213.24-.173.387-.467.427-.854.04-.36-.027-.653-.214-.866-.186-.24-.453-.36-.813-.4zm12.481 5.814a4.24 4.24 0 01-.693 1.387c-.307.4-.654.72-1.067.96-.413.24-.853.4-1.333.453-.48.067-.974.013-1.48-.133a3.591 3.591 0 01-1.307-.68 3.331 3.331 0 01-.867-1.107 3.757 3.757 0 01-.374-1.387 4.381 4.381 0 01.174-1.534c.16-.533.387-.986.68-1.386.293-.4.653-.72 1.067-.96.413-.24.853-.4 1.333-.454.48-.067.96-.013 1.467.133a3.5 3.5 0 011.307.68c.373.307.653.68.867 1.107.213.427.333.894.373 1.387.067.494.013 1-.147 1.534zm-.893-.267c.16-.56.2-1.08.106-1.587a2.655 2.655 0 00-.613-1.293c-.32-.36-.72-.614-1.227-.76-.506-.147-.986-.16-1.44-.027a2.764 2.764 0 00-1.213.747c-.347.373-.6.826-.774 1.4-.16.56-.2 1.08-.106 1.587.093.493.293.933.613 1.293.32.36.72.614 1.227.76.507.147.987.16 1.453.027a2.676 2.676 0 001.214-.76c.347-.374.6-.827.76-1.387zm2.387 4.989a.358.358 0 01-.2-.24.398.398 0 01.013-.28c.04-.094.12-.16.227-.214l3.547-1.867.106.84-3.28 1.734a.389.389 0 01-.413.027zm3.36-6.788a.425.425 0 01.24.32l1.547 8.202a.48.48 0 01-.04.28.36.36 0 01-.267.213c-.12.027-.226.027-.306-.027a.425.425 0 01-.24-.32l-1.547-8.201a.453.453 0 01.293-.494c.12-.027.227-.027.32.027zm4.507 2.2c.093.054.16.12.2.227.04.107.04.2 0 .293a.482.482 0 01-.2.2l-3.507 1.828-.133-.827 3.254-1.707a.44.44 0 01.386-.014zm4.441 2.707l3.133 2.174a.46.46 0 01.187.28c.027.12 0 .227-.067.32a.393.393 0 01-.28.174.464.464 0 01-.32-.08l-2.84-1.974.187-.093-1.547 2.213-.027-.16 2.454 1.694c.093.067.16.16.186.28a.43.43 0 01-.066.334.395.395 0 01-.28.173.48.48 0 01-.32-.08l-2.427-1.68.12-.04-1.587 2.28-.013-.093 2.813 1.947c.094.066.16.16.187.28a.392.392 0 01-.333.48.446.446 0 01-.32-.08l-3.134-2.174a.46.46 0 01-.187-.28.427.427 0 01.067-.333l3.774-5.441a.458.458 0 01.28-.187.48.48 0 01.36.067zm3.28 12.282c-.387-.36-.667-.733-.853-1.133-.187-.387-.294-.84-.334-1.334a.35.35 0 01.027-.2c.027-.066.053-.133.107-.186a.403.403 0 01.293-.134.409.409 0 01.32.107c.067.067.107.16.12.267.013.386.093.746.227 1.08.133.333.36.627.653.907.227.213.467.373.72.466.253.094.494.134.72.107a.92.92 0 00.587-.293c.2-.214.293-.44.307-.68.013-.24-.04-.507-.174-.787a5.67 5.67 0 00-.493-.907 5.805 5.805 0 01-.467-.827c-.12-.266-.2-.533-.24-.8a1.692 1.692 0 01.08-.773c.08-.254.24-.494.467-.734.28-.293.6-.48.96-.56.36-.08.747-.04 1.147.094.4.133.773.373 1.133.72.32.293.574.64.747 1 .187.373.28.733.28 1.067.013.2-.027.346-.12.44a.46.46 0 01-.293.12.542.542 0 01-.32-.107.36.36 0 01-.107-.2c0-.187-.027-.373-.093-.587a3.042 3.042 0 00-.267-.6c-.12-.2-.253-.373-.414-.52a2.45 2.45 0 00-.733-.493 1.352 1.352 0 00-.707-.107.94.94 0 00-.573.307c-.187.2-.28.413-.293.653 0 .24.053.48.16.747.12.267.266.533.44.813.2.307.36.6.506.88.134.28.227.56.28.827.04.267.027.534-.066.8a2.121 2.121 0 01-.52.8c-.267.28-.587.467-.96.534-.374.066-.761.04-1.161-.094-.4-.133-.746-.36-1.093-.68zM15.481 73.854c.027.373-.027.693-.133.973-.12.28-.293.534-.52.734-.227.2-.507.36-.814.466-.306.12-.64.187-.986.213-.48.04-.92-.013-1.334-.16a2.25 2.25 0 01-1-.666c-.253-.307-.4-.707-.44-1.2l-.133-1.854c0-.08.013-.16.08-.227.053-.066.12-.093.213-.106l4.6-.32c.08 0 .16.013.227.08.067.053.094.12.107.213l.133 1.854zm-4.64.24c.026.386.146.693.346.92.2.226.454.386.774.48.32.093.653.12 1.027.093.266-.013.52-.067.76-.147.24-.08.453-.186.626-.333.174-.147.32-.32.414-.533a1.5 1.5 0 00.107-.747l-.107-1.52.066.053-4.2.293.067-.053.12 1.494zm5.054 3.773l.466 2.614a.33.33 0 01-.04.227c-.04.066-.106.106-.2.12-.08.013-.16 0-.213-.054a.316.316 0 01-.12-.2l-.427-2.373.133.04-1.853.333.067-.093.36 2.04c.013.08 0 .16-.04.227-.04.066-.107.106-.2.12-.08.013-.16 0-.214-.054a.317.317 0 01-.12-.2l-.36-2.026.08.04-1.907.333.04-.053.414 2.346c.013.08 0 .16-.053.227a.288.288 0 01-.187.12.28.28 0 01-.227-.053.316.316 0 01-.12-.2l-.467-2.614c-.013-.08 0-.16.054-.227a.317.317 0 01.2-.12l4.547-.813c.08-.013.16 0 .227.053.093.08.133.147.16.24zm-2.935 8.416c.028.08.014.16-.026.227a.276.276 0 01-.186.133.233.233 0 01-.227-.04.374.374 0 01-.133-.187l-.64-2.507a.3.3 0 01.026-.24.276.276 0 01.187-.133l4.467-1.147a.269.269 0 01.227.027.33.33 0 01.146.2c.027.08.014.16-.026.227a.345.345 0 01-.187.146l-4.334 1.107.094-.173.613 2.36zm.548 2.667a.306.306 0 01-.24-.026.315.315 0 01-.16-.187c-.027-.093-.027-.173.013-.24a.315.315 0 01.173-.147l4.387-1.44a.302.302 0 01.24.013c.08.04.134.107.16.187a.3.3 0 01-.013.24.27.27 0 01-.173.147l-4.387 1.453zm6.4 3.894c-.013.094-.053.174-.133.214-.08.053-.16.053-.267.04a.238.238 0 01-.16-.12.3.3 0 01-.04-.214c.027-.186.04-.386.014-.587a1.898 1.898 0 00-.147-.586 2.284 2.284 0 00-.44-.694 1.858 1.858 0 00-.64-.426 2.097 2.097 0 00-1.6.053c-.307.12-.56.28-.76.48-.2.2-.347.413-.454.653a2.02 2.02 0 00-.147.747c0 .254.067.52.174.787.08.187.173.36.306.52.12.16.267.293.427.4a.451.451 0 01.12.187.267.267 0 01-.026.2c-.054.093-.12.146-.2.16-.094.013-.174 0-.24-.054a2.525 2.525 0 01-.347-.32 2.342 2.342 0 01-.32-.4 2.956 2.956 0 01-.24-.453 2.707 2.707 0 01-.214-1.013c0-.347.054-.667.174-.987.12-.32.307-.6.56-.854.253-.253.573-.466.96-.626.36-.147.707-.214 1.067-.214.346 0 .68.067 1 .2.306.134.587.32.84.56.24.254.44.547.587.894.093.24.16.48.2.733 0 .24-.014.48-.054.72zm-3.067 4.108a.3.3 0 01-.24.013.26.26 0 01-.173-.16.306.306 0 01-.027-.24.292.292 0 01.16-.173l4.134-2.067c.08-.04.16-.04.24-.014.08.027.147.08.187.174a.3.3 0 01.013.24.292.292 0 01-.16.173l-4.134 2.054zm5.468 4.881c-.334.2-.667.333-1.014.386a2.29 2.29 0 01-1-.013c-.32-.067-.627-.2-.893-.387a2.244 2.244 0 01-.694-.76 2.392 2.392 0 01-.346-.96 2.393 2.393 0 01.066-.973c.093-.32.24-.614.467-.894.213-.28.493-.507.813-.707a3.16 3.16 0 011-.4 2.43 2.43 0 011.893.387c.28.187.508.44.694.76.187.32.307.64.347.974.04.333.013.653-.067.973-.093.32-.24.613-.453.893a3.022 3.022 0 01-.813.721zm-.347-.561a2.43 2.43 0 00.8-.76c.187-.306.28-.613.293-.946.014-.334-.08-.654-.28-.974a1.746 1.746 0 00-.733-.693 1.852 1.852 0 00-.974-.187 2.368 2.368 0 00-1.053.36 2.44 2.44 0 00-.8.76c-.187.307-.28.614-.293.947-.014.333.08.653.266.973.187.32.44.547.734.694.293.147.626.213.973.187a2.26 2.26 0 001.067-.361zm5.72 3.375c.054.066.08.146.067.226a.315.315 0 01-.12.2l-2.347 1.814a1.9 1.9 0 01-.973.413c-.347.04-.68 0-1-.12-.32-.133-.6-.346-.84-.653-.227-.307-.374-.627-.414-.974-.04-.346 0-.68.134-1.013.133-.32.346-.6.653-.84l2.347-1.814a.35.35 0 01.227-.066.31.31 0 01.213.133c.053.067.067.133.053.227-.013.08-.053.16-.12.2l-2.347 1.813c-.213.174-.373.36-.466.6-.094.227-.12.467-.094.707.027.24.12.453.267.653.16.2.347.361.573.454.227.093.467.133.72.107.254-.027.48-.12.694-.294l2.347-1.813a.27.27 0 01.213-.067c.093 0 .16.04.213.107zm-1.48 6.321a2.782 2.782 0 01-.546-.827c-.107-.28-.174-.6-.174-.947 0-.04 0-.093.027-.133a.196.196 0 01.08-.12.304.304 0 01.213-.08c.08 0 .16.027.214.093a.25.25 0 01.066.187c0 .267.027.52.12.76.08.24.227.453.414.667.146.16.306.28.48.36.173.08.333.12.493.106a.654.654 0 00.427-.186.698.698 0 00.24-.454 1.424 1.424 0 00-.08-.56 3.99 3.99 0 00-.307-.653c-.12-.2-.213-.4-.293-.6a1.798 1.798 0 01-.134-.56c-.013-.187.014-.36.08-.534.067-.173.187-.333.36-.493.214-.2.44-.307.694-.347.253-.04.52 0 .787.12.266.107.52.294.76.547.213.227.373.467.48.734.106.266.16.52.146.76 0 .133-.04.24-.106.306-.054.054-.12.067-.214.067a.291.291 0 01-.213-.093c-.04-.04-.053-.094-.067-.147.014-.12 0-.267-.04-.413a2.877 2.877 0 00-.16-.44 1.532 1.532 0 00-.266-.387 1.551 1.551 0 00-.494-.374.948.948 0 00-.48-.106.696.696 0 00-.413.186.71.71 0 00-.227.44 1.26 1.26 0 00.08.521c.067.186.16.386.267.586.12.214.226.427.306.64.08.2.134.4.16.587.014.187-.013.373-.08.547-.066.186-.2.36-.386.533-.2.187-.427.294-.694.334-.266.04-.533 0-.8-.12-.24-.08-.493-.267-.72-.507zm5.214 4.867a.31.31 0 01-.133-.226c-.014-.094 0-.174.053-.24l2.88-3.601a.254.254 0 01.2-.106c.08-.014.16.013.227.066l1.614 1.294c.213.173.373.387.466.613.094.24.12.494.094.747a1.569 1.569 0 01-.773 1.107c-.174.093-.36.146-.547.16a1.35 1.35 0 01-.56-.067l-.054-.187c.107.134.187.28.227.44.04.16.04.334.013.507a1.041 1.041 0 01-.24.507 2.879 2.879 0 00-.24.373.908.908 0 00-.107.24.294.294 0 00.014.187c.027.08.027.16 0 .227a.245.245 0 01-.174.146.168.168 0 01-.16 0 .465.465 0 01-.133-.093.277.277 0 01-.08-.133.96.96 0 01-.053-.294c0-.12.026-.253.093-.413a2.76 2.76 0 01.36-.573.946.946 0 00.187-.361.647.647 0 000-.32.906.906 0 00-.36-.506l-1.307-1.04.147-.04-1.214 1.52a.322.322 0 01-.2.12.38.38 0 01-.24-.054zm1.8-1.973l1.427 1.147c.12.08.254.133.413.133.16.013.32-.027.48-.093.16-.08.307-.2.44-.36.16-.2.227-.427.214-.667a.895.895 0 00-.32-.6l-1.374-1.107.134-.08-1.414 1.774v-.147zm5.894 1.254l2.227 1.453c.067.04.12.107.133.187a.33.33 0 01-.04.227.263.263 0 01-.186.12c-.08.013-.16 0-.227-.054l-2.013-1.32.12-.067-1.027 1.574-.014-.107 1.734 1.134c.067.04.12.106.133.186.027.08 0 .16-.04.227a.257.257 0 01-.186.12.293.293 0 01-.227-.053l-1.72-1.12.08-.04-1.054 1.613-.013-.067 2 1.307c.067.04.12.107.133.2.014.08 0 .16-.04.214a.263.263 0 01-.186.12c-.08.013-.16 0-.227-.054l-2.227-1.453a.275.275 0 01-.133-.2c-.013-.08 0-.16.04-.227l2.534-3.867a.272.272 0 01.2-.133c.08.013.146.026.226.08zm6.974 4.467c.054.08.067.16.04.253a.34.34 0 01-.173.187c-.067.027-.133.04-.2.014a.313.313 0 01-.16-.134 1.92 1.92 0 00-.36-.453 2.7 2.7 0 00-.494-.36 2.124 2.124 0 00-.786-.24c-.267-.027-.52 0-.76.08s-.467.213-.68.386c-.214.174-.387.4-.52.667-.16.294-.24.574-.28.854-.027.28 0 .533.066.786.08.24.2.467.373.667.174.2.374.36.627.493.187.094.374.16.56.2.187.04.387.054.587.04a.303.303 0 01.307.24c.013.107 0 .187-.054.254a.284.284 0 01-.226.107c-.147.013-.307 0-.467-.027a3.389 3.389 0 01-.507-.107 3.893 3.893 0 01-.48-.187 2.964 2.964 0 01-.813-.64 2.433 2.433 0 01-.493-.866 2.56 2.56 0 01-.12-1.014c.026-.36.146-.72.346-1.093.173-.334.4-.627.68-.84a2.68 2.68 0 01.894-.494c.32-.093.653-.133 1-.093.346.04.68.133 1.026.32.227.12.44.267.614.44.187.16.333.347.453.56zm.267 5.121a.293.293 0 01-.173.16.366.366 0 01-.24 0c-.094-.04-.147-.093-.174-.173-.026-.081-.026-.161.014-.227l1.853-4.227a.29.29 0 01.173-.16.336.336 0 01.254.013c.08.04.133.093.16.173a.37.37 0 010 .24l-1.867 4.201zm5.681-3.067c.253.093.466.24.626.44.16.2.267.44.307.693.04.267.013.534-.093.814a1.65 1.65 0 01-.454.693 1.4 1.4 0 01-1.44.307l-1.427-.507.08-.08-.64 1.774a.314.314 0 01-.147.173.266.266 0 01-.226.013.259.259 0 01-.174-.16.329.329 0 010-.226l1.56-4.347a.293.293 0 01.16-.174.3.3 0 01.24-.013l1.627.6zm-.854 2.414a.755.755 0 00.454.013c.146-.04.28-.12.413-.24.12-.12.213-.267.28-.44.067-.174.08-.347.067-.507a.935.935 0 00-.174-.427.796.796 0 00-.36-.266l-1.427-.507.08-.067-.72 2.014-.026-.094 1.413.521zm3.987-1.4l2.574.666c.08.027.147.067.187.134.04.066.053.146.026.226-.026.08-.066.147-.133.174-.067.04-.147.04-.227.026l-2.334-.6.094-.106-.467 1.826-.053-.093 2.013.52a.33.33 0 01.187.133.27.27 0 01.027.227c-.027.08-.067.147-.134.174-.066.04-.146.04-.226.026l-1.987-.52.066-.053-.48 1.867-.026-.067 2.307.6c.08.027.146.067.186.147.04.066.054.146.04.213-.026.08-.066.147-.133.173-.067.04-.147.04-.227.027l-2.573-.667c-.08-.026-.147-.066-.187-.146a.27.27 0 01-.027-.227l1.16-4.467c.027-.08.067-.147.147-.187a.206.206 0 01.2-.026zm5.041 6.534a2.98 2.98 0 01-.934-.32 2.7 2.7 0 01-.706-.654.517.517 0 01-.067-.12c-.014-.053-.014-.093-.014-.146a.316.316 0 01.12-.2.279.279 0 01.227-.054c.067.014.12.054.174.107.16.213.346.4.546.533.214.134.454.227.734.267.213.04.413.04.6 0a1.08 1.08 0 00.466-.213c.12-.107.2-.24.227-.4.027-.2 0-.374-.08-.52a1.228 1.228 0 00-.4-.387 4.095 4.095 0 00-.64-.334 4.723 4.723 0 01-.587-.293 1.739 1.739 0 01-.44-.373 1.19 1.19 0 01-.253-.48 1.284 1.284 0 01-.013-.6c.04-.28.16-.507.346-.694.187-.186.414-.32.694-.386.28-.08.586-.08.933-.027.293.053.573.147.827.293.253.147.44.32.573.507.08.107.12.213.107.307a.323.323 0 01-.12.186.279.279 0 01-.227.054c-.053-.014-.106-.04-.133-.08a1.186 1.186 0 00-.28-.307c-.12-.093-.254-.173-.387-.253a1.898 1.898 0 00-.44-.147 1.58 1.58 0 00-.613 0 .964.964 0 00-.454.213.659.659 0 00-.213.4.767.767 0 00.08.494c.08.146.213.266.387.373.173.107.36.213.573.307.227.093.44.2.64.306.187.107.347.24.48.374.133.133.214.306.267.493.053.187.053.414.013.667-.04.267-.16.493-.346.68-.187.187-.427.32-.707.4-.32.067-.627.08-.96.027zm8.147.773c-.36 0-.667-.093-.933-.253a1.844 1.844 0 01-.64-.64 1.643 1.643 0 01-.227-.827c0-.227.053-.44.147-.653.093-.2.226-.387.4-.547.173-.16.413-.28.68-.387l.4.427c-.374.08-.64.213-.787.413a1.08 1.08 0 00-.227.654 1.156 1.156 0 00.56 1.026c.2.12.44.174.734.187.293 0 .547-.04.773-.147.214-.106.4-.24.56-.413.16-.173.28-.373.374-.587.093-.213.16-.44.213-.666a.315.315 0 01.08-.147c.04-.04.107-.053.173-.053.094 0 .16.04.214.106.053.067.066.147.053.254-.04.28-.133.546-.267.813a2.696 2.696 0 01-.506.72 2.308 2.308 0 01-.76.507c-.294.16-.627.226-1.014.213zm2.654-.027c-.04 0-.08 0-.107-.013l-.08-.04c-.32-.267-.613-.52-.907-.76-.28-.24-.56-.493-.813-.747a10.19 10.19 0 01-.8-.866c-.174-.2-.32-.4-.467-.574a3.496 3.496 0 01-.333-.533c-.08-.174-.12-.36-.12-.534 0-.24.066-.453.186-.64a1.25 1.25 0 01.52-.453c.227-.107.494-.173.787-.16.36 0 .654.08.907.2.24.133.413.293.507.48a.41.41 0 01.04.2.21.21 0 01-.08.16c-.054.053-.12.067-.2.067a.27.27 0 01-.12-.027c-.04-.027-.067-.04-.08-.067a1.219 1.219 0 00-.374-.36c-.146-.093-.36-.133-.6-.133-.28 0-.493.067-.64.2a.703.703 0 00-.227.533c0 .16.04.32.134.48.093.16.2.334.333.494.133.16.267.32.387.467.187.213.373.413.573.613.2.2.414.4.614.587.2.186.4.36.586.506.187.147.347.28.48.387.04.04.08.08.094.12.013.04.027.093.027.147 0 .053-.027.106-.067.173-.014.067-.08.093-.16.093zm7.893-1.28c.08-.013.16.014.228.054.066.053.106.12.12.2a.245.245 0 01-.067.213.3.3 0 01-.2.107l-2.56.32a.276.276 0 01-.227-.067.253.253 0 01-.107-.2l-.573-4.587a.288.288 0 01.067-.227.32.32 0 01.213-.12.29.29 0 01.227.067c.066.053.106.12.12.2l.533 4.467-.16-.12 2.387-.307zm6.215-3.333c.08.373.107.733.053 1.08-.053.346-.16.666-.32.946a2.458 2.458 0 01-.653.734 2.44 2.44 0 01-.947.413 2.43 2.43 0 01-1.934-.347 2.368 2.368 0 01-.693-.72 3.035 3.035 0 01-.413-1 2.977 2.977 0 01-.054-1.08c.054-.346.16-.667.32-.947.174-.293.387-.533.654-.733.266-.2.587-.333.933-.413a2.435 2.435 0 011.934.346c.28.187.506.427.706.72.2.294.334.627.414 1.001zm-.627.146c-.093-.4-.24-.733-.467-1a1.72 1.72 0 00-.813-.573 1.853 1.853 0 00-1.013-.054c-.36.08-.654.24-.88.48-.24.24-.4.52-.48.867a2.58 2.58 0 000 1.107c.093.4.24.733.466 1 .227.28.493.467.814.573.32.107.653.134 1 .054a1.77 1.77 0 001.373-1.347c.08-.347.08-.72 0-1.107zm5.174-4.04c.093.013.16.066.2.146a.31.31 0 01.013.267.243.243 0 01-.133.147.38.38 0 01-.213.026 2.782 2.782 0 00-.574-.053c-.2.013-.4.04-.6.107a2.08 2.08 0 00-.72.4c-.2.173-.36.373-.467.613-.106.24-.173.494-.186.76-.014.267.026.547.133.84.107.307.253.574.427.787.186.213.386.373.613.493.227.12.48.174.734.187.253.013.52-.027.786-.12.187-.067.374-.16.534-.267.16-.106.306-.24.426-.4a.379.379 0 01.187-.106.271.271 0 01.2.04.27.27 0 01.147.213c.013.093-.014.16-.08.24a3.795 3.795 0 01-.334.333c-.133.107-.266.2-.426.294a2.1 2.1 0 01-.467.213c-.333.12-.68.16-1.027.147a2.647 2.647 0 01-.973-.227 2.442 2.442 0 01-.814-.613c-.24-.267-.426-.6-.56-1a2.72 2.72 0 01.107-2.054c.147-.307.36-.573.613-.8.267-.227.574-.4.934-.52.24-.08.493-.133.747-.147.293-.013.546 0 .773.054zm3.347-.961l.173 4.614c.014.067 0 .12-.04.174a.265.265 0 01-.12.12.27.27 0 01-.226.013.357.357 0 01-.147-.133.255.255 0 01-.027-.107l-.173-5.081c0-.08.013-.146.053-.2a.27.27 0 01.147-.12c.053-.026.12-.04.187-.026.066.013.12.04.16.093l3.68 3.44a.412.412 0 01.067.094.3.3 0 01.013.24.252.252 0 01-.147.16.266.266 0 01-.173.026.247.247 0 01-.16-.093l-3.387-3.16.12-.054zm0 3.347l-.013-.64 2.026-.92.347.48-2.36 1.08zm7.681-3.013c.08-.04.146-.054.226-.027.08.027.147.067.187.147.04.08.053.146.027.226a.317.317 0 01-.147.174l-2.24 1.28a.304.304 0 01-.24.026.328.328 0 01-.187-.146l-2.28-4.014c-.04-.08-.053-.147-.027-.227a.314.314 0 01.16-.186c.08-.04.147-.054.227-.027.08.027.147.067.187.147l2.213 3.88-.2-.04 2.094-1.213zm4.84-2.948a.279.279 0 01.054.227.321.321 0 01-.12.2c-.08.053-.16.08-.24.067a.326.326 0 01-.201-.12l-2.733-3.721c-.053-.066-.067-.146-.053-.226a.308.308 0 01.133-.214c.067-.053.147-.067.227-.053.08.013.146.053.2.12l2.733 3.72zm1.547-7.628c.067-.053.133-.08.2-.066.08.013.133.04.187.106l3.027 3.507a.26.26 0 01.08.227.363.363 0 01-.107.213.287.287 0 01-.107.067c-.04.013-.093.027-.12.013l-5.187-1.106.054-.16 2.706 3.12c.054.067.08.133.067.2 0 .08-.04.133-.107.2-.066.053-.133.08-.2.067a.302.302 0 01-.186-.107l-3.041-3.52a.26.26 0 01-.08-.227.3.3 0 01.107-.2.556.556 0 01.12-.067.23.23 0 01.133 0l5.108 1.094.013.146-2.694-3.107c-.053-.066-.08-.133-.066-.2a.24.24 0 01.093-.2zm7.041.413c-.267.28-.56.494-.88.64a2.636 2.636 0 01-2.014.08 2.434 2.434 0 01-.907-.573 2.435 2.435 0 01-.626-.867 2.606 2.606 0 01-.24-1c-.014-.347.04-.68.173-1.013.12-.334.32-.64.573-.92a3.14 3.14 0 01.56-.48c.2-.134.414-.227.627-.28.053-.014.107-.027.16-.014.053.014.093.04.12.067a.263.263 0 01.093.213c0 .08-.013.147-.066.2-.027.027-.04.04-.067.054a2.982 2.982 0 00-.08.04c-.16.053-.32.133-.48.24-.16.093-.307.226-.44.36-.267.293-.44.613-.52.96-.08.346-.067.707.053 1.053.107.347.307.654.6.92.294.267.614.44.96.534.361.08.707.08 1.054-.027.347-.107.653-.293.92-.587.133-.146.253-.32.36-.506a2.11 2.11 0 00.213-.534l.107.16-1.147-1.067.147-.013-.773.827a.266.266 0 01-.214.093.299.299 0 01-.213-.08.28.28 0 01-.093-.213c0-.08.026-.16.08-.214l.933-1a.266.266 0 01.213-.093c.08 0 .16.027.214.08l1.266 1.174c.04.04.067.093.094.133.013.053.013.107.013.16-.053.267-.133.52-.253.773-.16.267-.32.507-.52.72zm2.707-3.254a.383.383 0 01-.227.147c-.093.013-.173 0-.24-.053l-3.68-2.787a.315.315 0 01-.12-.2.337.337 0 01.053-.227l1.24-1.64c.173-.227.373-.387.613-.48.24-.107.481-.134.747-.107.267.027.507.133.734.307.173.12.293.28.4.453.106.174.16.36.173.547.027.187 0 .373-.053.56l-.187.067c.133-.12.28-.2.44-.24.16-.04.333-.054.507-.027.173.027.346.107.52.227.146.106.28.186.373.24a.9.9 0 00.24.106.287.287 0 00.187-.013.328.328 0 01.227 0c.066.027.12.08.146.16a.168.168 0 010 .16.344.344 0 01-.093.147.488.488 0 01-.133.093c-.08.027-.174.053-.294.067a.849.849 0 01-.413-.08 2.644 2.644 0 01-.574-.347.89.89 0 00-.36-.173.514.514 0 00-.32.013c-.093.04-.186.08-.28.147-.08.066-.16.146-.226.226l-1 1.334-.054-.147 1.547 1.174c.067.053.107.12.133.186.04.027.027.094-.026.16zm-2.001-1.747l1.107-1.453a.85.85 0 00.134-.413.995.995 0 00-.107-.467c-.08-.16-.2-.307-.373-.427a.824.824 0 00-.667-.187.856.856 0 00-.587.334l-1.067 1.4-.08-.133 1.814 1.373-.174-.027zm1.081-5.921l1.4-2.267a.275.275 0 01.186-.133.234.234 0 01.227.04c.067.04.12.107.133.187.014.08 0 .16-.053.227l-1.267 2.04-.066-.12 1.6.986-.107.027 1.094-1.773a.344.344 0 01.186-.147.234.234 0 01.227.04c.067.04.12.107.133.187.014.08 0 .16-.053.226l-1.08 1.747-.04-.08 1.64 1.014-.067.013 1.254-2.027a.274.274 0 01.187-.133c.08-.014.16-.014.213.026.067.04.12.107.133.187a.33.33 0 01-.04.227l-1.4 2.267a.277.277 0 01-.187.133c-.08.013-.16.013-.226-.04l-3.934-2.427a.274.274 0 01-.133-.187.352.352 0 01.04-.24zm3.267-5.814c.16-.333.36-.587.613-.773.24-.187.52-.307.813-.374.307-.053.614-.053.934 0 .32.054.64.16.96.32.44.214.787.48 1.08.8.28.32.453.68.52 1.08s-.013.814-.227 1.254l-.813 1.667a.292.292 0 01-.173.16.302.302 0 01-.24-.014l-4.147-2.026a.29.29 0 01-.16-.174.3.3 0 01.013-.24l.827-1.68zm4.147 2.12c.173-.347.226-.666.16-.973-.067-.294-.2-.56-.427-.8a2.825 2.825 0 00-.84-.6c-.24-.12-.48-.2-.734-.254a2.124 2.124 0 00-.706-.026 1.36 1.36 0 00-.627.253c-.187.133-.347.333-.48.6l-.667 1.373-.04-.08 3.774 1.854-.093.013.68-1.36zm2.2-4.334a.26.26 0 01.16.174c.027.08.027.16 0 .24-.04.093-.093.146-.173.173a.331.331 0 01-.227 0l-4.294-1.707a.292.292 0 01-.173-.16.406.406 0 010-.253.29.29 0 01.16-.174c.08-.04.16-.04.24 0l4.307 1.707zm-3.8-3.907l.813-2.534a.345.345 0 01.147-.187c.066-.04.146-.04.226-.026.08.026.134.08.174.146a.33.33 0 01.013.227l-.733 2.294-.107-.107 1.787.573-.107.04.64-1.973a.345.345 0 01.147-.187.25.25 0 01.24-.013c.08.026.133.08.173.147a.27.27 0 01.014.226l-.627 1.96-.054-.066 1.841.586-.067.027.733-2.267a.277.277 0 01.147-.173.31.31 0 01.213-.027c.08.027.134.08.174.147.04.08.04.147.013.227l-.813 2.533a.277.277 0 01-.147.174c-.08.04-.147.04-.24.013l-4.4-1.414a.278.278 0 01-.174-.146c-.04-.04-.053-.12-.026-.2zm2.133-8.095c.013-.08.053-.147.12-.173a.24.24 0 01.213-.027l4.534.973c.094.014.16.067.2.134.04.066.054.146.04.24a.45.45 0 01-.053.12.313.313 0 01-.093.093l-4.801 2.24-.053-.16 4.04.867c.08.013.133.053.173.12.04.067.054.133.04.213a.257.257 0 01-.12.187.239.239 0 01-.213.027l-4.534-1a.274.274 0 01-.2-.134c-.04-.066-.053-.146-.04-.226.014-.04.027-.094.054-.134.026-.04.066-.066.106-.093l4.734-2.2.093.106-4.013-.866a.288.288 0 01-.187-.12c-.04-.04-.053-.107-.04-.187zm.894-1.935a.304.304 0 01-.107.2c-.067.054-.134.08-.214.067a.3.3 0 01-.2-.107.324.324 0 01-.053-.226l.373-3.454a.3.3 0 01.107-.2c.067-.053.133-.08.214-.067a.3.3 0 01.2.107c.04.067.066.133.053.227l-.373 3.453zm4.813-1.213a.312.312 0 01-.12.213.346.346 0 01-.226.067l-4.588-.493.067-.627 4.587.493c.08.014.147.054.2.107a.266.266 0 01.08.24zm.414-5.494c0 .373-.067.693-.187.973s-.293.547-.533.8a.196.196 0 01-.12.08c-.04.027-.094.027-.147.027a.282.282 0 01-.213-.093.265.265 0 01-.094-.213c0-.067.027-.134.08-.187.187-.187.347-.4.44-.627.107-.227.16-.48.16-.76a1.64 1.64 0 00-.093-.587 1.087 1.087 0 00-.28-.426.63.63 0 00-.427-.16c-.2 0-.36.053-.493.16-.134.106-.24.266-.334.453-.093.2-.16.427-.24.68-.053.227-.133.44-.213.627a2.22 2.22 0 01-.293.493c-.12.147-.267.254-.427.32-.173.08-.373.107-.6.107-.28 0-.533-.08-.733-.24a1.345 1.345 0 01-.481-.627 2.032 2.032 0 01-.16-.92c0-.307.054-.587.16-.867.107-.266.241-.48.427-.653.094-.094.187-.147.28-.147.067 0 .134.027.2.094a.284.284 0 01.094.213.201.201 0 01-.054.147c-.093.08-.186.186-.253.32a2.1 2.1 0 00-.187.426c-.053.147-.066.307-.08.454 0 .226.027.426.094.613.066.173.16.307.28.413.12.094.266.147.426.147a.684.684 0 00.467-.16c.12-.107.227-.253.307-.44a5.53 5.53 0 00.213-.613c.067-.24.133-.467.213-.667.08-.2.174-.387.294-.533.12-.147.266-.267.44-.347.173-.08.4-.12.653-.107.28 0 .52.08.734.24.213.16.373.374.493.64.133.307.2.614.187.947zM82.715 45.902c.186-.053.346-.107.506-.147.44-.107.88-.2 1.32-.293.227-.054.467-.107.694-.16.667-.147 1.44-.494 1.84-.707.427-.227.773-.533 1.147-.827.227-.187.427-.427.613-.653.147-.16.28-.334.387-.52.227-.347.427-.72.613-1.094.2-.387.414-.747.627-1.134.093-.16.16-.32.253-.48.027-.053.08-.08.12-.12.08.014.147.027.227.027.027.04.067.093.08.147.133.533.254 1.08.374 1.613.04.16.053.334.093.507.04.147.107.294.147.453.093.507.306.974.546 1.427.107.214.227.414.347.614.333.493.733.934 1.2 1.307.347.28.707.52 1.093.747a35.56 35.56 0 001.547.84c.187.107.387.187.614.307.026.066.173.12.12.306-.134.214-.414.2-.627.24-.6.12-1.187.28-1.787.374-.32.053-.627.186-.933.293-.32.12-.667.227-.934.414-.36.253-.773.413-1.066.773-.187.227-.44.387-.64.614-.28.306-.494.653-.72.986-.134.2-.227.414-.347.627-.2.374-.4.734-.6 1.107-.094.173-.16.36-.267.507-.08.12-.16.267-.333.293-.24-.133-.24-.386-.28-.6-.04-.253-.12-.507-.16-.76-.027-.2-.094-.387-.12-.6-.027-.2-.094-.4-.147-.587-.147-.533-.32-1.067-.574-1.56-.24-.44-.493-.88-.826-1.254a6.937 6.937 0 00-1.654-1.4c-.4-.227-.8-.454-1.227-.654-.2-.093-.36-.226-.573-.306-.187-.067-.347-.2-.533-.294-.12-.04-.16-.146-.16-.373zM71.5 37.193c.067-.04.12-.08.174-.12l.48-.28c.08-.053.16-.107.253-.147.24-.133.493-.373.627-.506a2.73 2.73 0 00.333-.467c.067-.107.107-.227.16-.333.04-.08.067-.16.08-.254.04-.16.067-.333.093-.506.027-.174.067-.347.094-.52.013-.067.026-.147.04-.214 0-.026.013-.04.026-.067.027 0 .067-.013.094-.013.013.013.04.027.053.04.12.187.24.387.347.574.04.053.066.12.093.186.04.053.08.107.107.16.106.187.24.334.4.48.067.067.133.134.213.187.187.147.4.267.627.36.173.067.347.107.52.147.24.053.467.093.707.133.093.013.173.027.28.04.026.027.08.027.08.107-.027.093-.134.133-.214.173-.213.12-.426.253-.653.373a1.44 1.44 0 00-.32.24c-.107.094-.227.174-.307.28-.106.147-.24.267-.32.44-.04.107-.12.214-.173.32-.067.16-.107.32-.16.48-.027.094-.04.187-.053.28-.027.174-.067.334-.094.507-.013.08-.013.16-.04.227-.013.053-.026.12-.093.16-.107-.013-.147-.12-.187-.2l-.16-.28c-.04-.067-.093-.133-.12-.213-.04-.08-.08-.147-.133-.214a2.675 2.675 0 00-.427-.533 2.12 2.12 0 00-.48-.373 2.985 2.985 0 00-.827-.334 4.067 4.067 0 00-.56-.093c-.08-.014-.173-.04-.253-.04-.08 0-.16-.027-.24-.04a.363.363 0 01-.067-.147zm5.534 62.386c.107-.027.2-.067.293-.08.254-.053.507-.107.747-.173.133-.027.267-.067.4-.094.373-.08.814-.28 1.054-.4.24-.133.44-.306.653-.466.133-.107.24-.24.347-.374.08-.093.16-.187.226-.293.134-.2.24-.414.347-.627.107-.213.24-.427.347-.64.053-.093.093-.187.147-.28a.16.16 0 01.066-.067c.04 0 .08.014.133.014.014.026.04.053.054.08.067.306.147.613.213.92.027.093.027.186.053.28.027.093.067.173.08.253.054.293.174.56.32.813.067.12.12.24.2.347.187.28.414.534.68.747.2.16.4.293.614.427.28.173.587.32.88.48l.347.173c.013.04.093.067.067.173-.08.12-.227.12-.36.134-.347.066-.68.16-1.014.213-.187.027-.36.107-.533.173-.187.067-.374.12-.534.24-.2.147-.44.24-.6.44-.106.121-.253.227-.36.347-.16.174-.28.374-.413.56-.08.107-.133.24-.2.36-.107.214-.227.414-.334.627-.053.093-.093.2-.146.293-.04.067-.094.147-.187.174-.133-.067-.133-.227-.16-.347-.027-.147-.067-.293-.093-.44-.014-.107-.054-.227-.067-.347-.013-.12-.053-.226-.08-.333-.08-.307-.173-.613-.333-.894a3.597 3.597 0 00-.467-.706 4.104 4.104 0 00-.934-.8 6.884 6.884 0 00-.693-.374c-.107-.053-.2-.133-.32-.173-.107-.04-.2-.12-.307-.16-.093-.013-.133-.08-.133-.2zm13.655-7.081c.04-.054.08-.094.12-.134.106-.107.213-.2.32-.306.053-.054.106-.107.173-.16.16-.16.32-.387.4-.52.08-.134.133-.28.187-.427.04-.094.04-.2.067-.294a1.16 1.16 0 00.026-.213c0-.133 0-.28-.013-.413-.013-.147-.013-.28-.013-.427 0-.053-.014-.12-.014-.174 0-.013.014-.04.014-.053.026-.013.04-.026.066-.026.013.013.04.013.053.026.134.134.254.267.387.4.04.04.067.08.107.12.04.04.08.067.12.107.12.133.253.227.4.307.067.04.133.08.2.106.173.08.373.147.56.174.147.013.293.026.44.026.2 0 .387-.013.587-.026.066 0 .146-.014.227-.014.026.014.066 0 .08.067 0 .08-.08.12-.134.173-.147.134-.293.28-.44.414-.08.066-.147.16-.213.24-.067.093-.147.173-.2.28-.054.133-.147.253-.174.4-.013.093-.053.187-.08.28-.026.133-.026.267-.04.4 0 .08 0 .16.014.24.013.133.013.28.026.413 0 .067.014.134.014.187 0 .053 0 .107-.04.147-.094 0-.134-.067-.187-.12-.053-.067-.12-.12-.173-.187-.04-.053-.094-.093-.134-.147-.04-.053-.093-.093-.146-.146a2.11 2.11 0 00-.427-.347 2.807 2.807 0 00-.453-.213 2.532 2.532 0 00-.707-.12c-.147 0-.307.013-.454.026-.066.014-.146 0-.213.014-.067.013-.133 0-.2.013a.225.225 0 01-.133-.093z" fill="#008482"/></svg>