<?xml version="1.0" encoding="UTF-8"?> <!-- Generator: Adobe Illustrator 24.1.3, SVG Export Plug-In . SVG Version: 6.00 Build 0) --> <svg xmlns="http://www.w3.org/2000/svg" xmlns:xlink="http://www.w3.org/1999/xlink" version="1.1" id="Layer_1" x="0px" y="0px" viewBox="0 0 194.6 174.5" style="enable-background:new 0 0 194.6 174.5;" xml:space="preserve"> <style type="text/css"> .st0{fill:#FDC533;} .st1{fill:#FFFFFF;} </style> <path class="st0" d="M124.8,28.8L102.3,6.4L102,6.1l0,0C102,6.1,101.9,6,101.9,6c-0.1-0.1-0.2-0.1-0.3-0.2l-0.2-0.1 c-1.2-0.9-2.6-1.3-4.1-1.3c-1.5,0-2.9,0.5-4.1,1.3c-0.1,0.1-0.2,0.1-0.2,0.2c-0.1,0.1-0.1,0.1-0.1,0.1c-0.2,0.1-0.3,0.3-0.5,0.4 L69.8,28.8c-2.7,2.7-2.7,7.2,0,10c1.3,1.3,3.1,2.1,5,2.1c1.9,0,3.7-0.7,5-2.1l10.5-10.5v33.6c0,3.9,3.2,7,7,7c3.9,0,7-3.2,7-7V28.4 l10.5,10.5c1.3,1.3,3.1,2.1,5,2.1c1.9,0,3.7-0.7,5-2.1c1.3-1.3,2.1-3.1,2.1-5C126.8,31.9,126.1,30.2,124.8,28.8z"></path> <path class="st0" d="M124.8,135.7c-1.3-1.3-3.1-2.1-5-2.1s-3.7,0.7-5,2.1l-10.5,10.5v-33.6c0-3.9-3.2-7-7-7c-3.9,0-7,3.2-7,7v33.6 l-10.5-10.5c-1.3-1.3-3.1-2.1-5-2.1c-1.9,0-3.7,0.7-5,2.1c-1.3,1.3-2.1,3.1-2.1,5c0,1.9,0.7,3.7,2.1,5l22.5,22.5l0.2,0.2l0,0 c0.1,0.1,0.1,0.1,0.2,0.1c0.1,0.1,0.2,0.1,0.3,0.2l0.2,0.1c1.2,0.9,2.6,1.3,4.1,1.3h0c1.5,0,2.9-0.5,4.1-1.3 c0.1-0.1,0.2-0.1,0.2-0.2c0.1-0.1,0.1-0.1,0.1-0.1c0.2-0.1,0.3-0.3,0.5-0.4l22.5-22.5C127.5,142.9,127.5,138.4,124.8,135.7z"></path> <path class="st0" d="M72,80.1H38.4l10.5-10.5c2.7-2.7,2.7-7.2,0-10c-1.3-1.3-3.1-2.1-5-2.1c-1.9,0-3.7,0.7-5,2.1L16.4,82.2l-0.2,0.2 l0,0c-0.1,0.1-0.1,0.1-0.1,0.2c-0.1,0.1-0.1,0.2-0.2,0.3L15.7,83c-0.9,1.2-1.3,2.6-1.3,4.1c0,1.5,0.5,2.9,1.3,4.1 c0.1,0.1,0.1,0.2,0.2,0.2c0.1,0.1,0.1,0.1,0.1,0.1c0,0,0,0,0,0c0.1,0.2,0.3,0.3,0.4,0.5l22.5,22.5c1.3,1.3,3.1,2.1,5,2.1 c1.9,0,3.7-0.7,5-2.1c1.3-1.3,2.1-3.1,2.1-5c0-1.9-0.7-3.7-2.1-5L38.4,94.2H72c3.9,0,7-3.2,7-7C79,83.3,75.9,80.1,72,80.1z"></path> <path class="st0" d="M178.9,83c-0.1-0.1-0.1-0.2-0.2-0.2c-0.1-0.1-0.1-0.1-0.1-0.1c0,0,0,0,0,0c-0.1-0.2-0.3-0.3-0.4-0.5l-22.5-22.5 c-1.3-1.3-3.1-2.1-5-2.1c-1.9,0-3.7,0.7-5,2.1c-1.3,1.3-2.1,3.1-2.1,5c0,1.9,0.7,3.7,2.1,5l10.5,10.5h-33.6c-3.9,0-7,3.2-7,7 c0,3.9,3.2,7,7,7h33.6l-10.5,10.5c-2.7,2.7-2.7,7.2,0,10c1.3,1.3,3.1,2.1,5,2.1c1.9,0,3.6-0.7,5-2.1l22.5-22.5l0.2-0.2l0,0 c0.1-0.1,0.1-0.1,0.1-0.2c0.1-0.1,0.1-0.2,0.2-0.3l0.1-0.2c0.9-1.2,1.3-2.6,1.3-4.1C180.2,85.7,179.8,84.2,178.9,83z"></path> <path class="st1" d="M89.4,76.3c0,4.2,3.4,7.6,7.6,7.6c4.2,0,7.6-3.4,7.6-7.6c0-4.2-3.4-7.6-7.6-7.6C92.8,68.7,89.4,72.1,89.4,76.3z "></path> <path class="st1" d="M97,85.4c-7,0-12.6,5.7-12.6,12.6v4c2.9,1.9,7.6,3,12.6,3c5,0,9.7-1.1,12.6-3v-4C109.6,91.1,104,85.4,97,85.4z"></path> <path class="st1" d="M68,86.9c0-4,0.8-7.8,2.3-11.4c1.5-3.5,3.6-6.6,6.3-9.3c2.7-2.7,5.8-4.8,9.3-6.3c3.6-1.5,7.5-2.3,11.4-2.3v-5.6 c-4.7,0-9.3,0.9-13.6,2.7c-4.2,1.8-7.9,4.3-11.1,7.5c-3.2,3.2-5.7,6.9-7.5,11.1c-1.8,4.3-2.7,8.9-2.7,13.6c0,0,0,0,0,0L68,86.9 C68,86.9,68,86.9,68,86.9z"></path> <path class="st1" d="M97.3,63.6c6.2,0,12.1,2.4,16.5,6.8s6.8,10.3,6.8,16.5c0,0,0,0,0,0h3.7c0,0,0,0,0,0c0-3.6-0.7-7.2-2.1-10.5 c-1.4-3.2-3.3-6.1-5.8-8.6c-2.5-2.5-5.4-4.4-8.6-5.8c-3.3-1.4-6.9-2.1-10.5-2.1c0,0,0,0,0,0L97.3,63.6 C97.3,63.6,97.3,63.6,97.3,63.6z"></path> <path class="st1" d="M97.3,57.5c4,0,7.8,0.8,11.4,2.3c3.5,1.5,6.6,3.6,9.3,6.3c2.7,2.7,4.8,5.8,6.3,9.3c1.5,3.6,2.3,7.5,2.3,11.4 c0,0,0,0,0,0h5.6c0,0,0,0,0,0c0-4.7-0.9-9.3-2.7-13.6c-1.8-4.2-4.3-7.9-7.5-11.1c-3.2-3.2-6.9-5.7-11.1-7.5 c-4.3-1.8-8.9-2.7-13.6-2.7c0,0,0,0,0,0L97.3,57.5C97.3,57.5,97.3,57.5,97.3,57.5z"></path> <path class="st1" d="M97.3,50c5,0,9.8,1,14.4,2.9c4.4,1.9,8.3,4.5,11.7,7.9c3.4,3.4,6.1,7.3,7.9,11.7c1.9,4.5,2.9,9.4,2.9,14.4 c0,0,0,0,0,0h6.7c0,0,0,0,0,0c0-5.9-1.2-11.6-3.4-17c-2.2-5.2-5.3-9.9-9.3-13.9c-4-4-8.7-7.1-13.9-9.3c-5.4-2.3-11.1-3.4-17-3.4 c0,0,0,0,0,0L97.3,50C97.3,50,97.3,50,97.3,50z"></path> <path class="st1" d="M80.8,103.4C76.4,99,74,93.1,74,86.9h-3.7c0,3.6,0.7,7.2,2.1,10.5c1.4,3.2,3.3,6.1,5.8,8.6 c2.5,2.5,5.4,4.4,8.6,5.8c3.3,1.4,6.9,2.1,10.5,2.1v-3.7C91.1,110.2,85.2,107.8,80.8,103.4z"></path> <path class="st1" d="M85.9,113.9c-3.5-1.5-6.6-3.6-9.3-6.3c-2.7-2.7-4.8-5.8-6.3-9.3c-1.5-3.6-2.3-7.5-2.3-11.4h-5.6 c0,4.7,0.9,9.3,2.7,13.6c1.8,4.2,4.3,7.9,7.5,11.1c3.2,3.2,6.9,5.7,11.1,7.5c4.3,1.8,8.9,2.7,13.6,2.7v-5.6 C93.3,116.2,89.5,115.4,85.9,113.9z"></path> <path class="st1" d="M82.9,120.9c-4.4-1.9-8.3-4.5-11.7-7.9c-3.4-3.4-6.1-7.3-7.9-11.7c-1.9-4.5-2.9-9.4-2.9-14.4h-6.7 c0,5.9,1.2,11.6,3.4,17c2.2,5.2,5.3,9.9,9.3,13.9c4,4,8.7,7.1,13.9,9.3c5.4,2.3,11.1,3.4,17,3.4v-6.7 C92.3,123.8,87.5,122.8,82.9,120.9z"></path> <path class="st1" d="M113.8,103.4c-4.4,4.4-10.3,6.8-16.5,6.8c0,0,0,0,0,0v3.7c0,0,0,0,0,0c3.6,0,7.2-0.7,10.5-2.1 c3.2-1.4,6.1-3.3,8.6-5.8s4.4-5.4,5.8-8.6c1.4-3.3,2.1-6.9,2.1-10.5h-3.7C120.6,93.1,118.2,99,113.8,103.4z"></path> <path class="st1" d="M131.3,101.2c-1.9,4.4-4.5,8.3-7.9,11.7c-3.4,3.4-7.3,6.1-11.7,7.9c-4.5,1.9-9.4,2.9-14.4,2.9c0,0,0,0,0,0v6.7 c0,0,0,0,0,0c5.9,0,11.6-1.2,17-3.4c5.2-2.2,9.9-5.3,13.9-9.3c4-4,7.1-8.7,9.3-13.9c2.3-5.4,3.4-11.1,3.4-17h-6.7 C134.2,91.9,133.2,96.7,131.3,101.2z"></path> </svg> 