<?xml version="1.0" encoding="UTF-8"?> <!-- Generator: Adobe Illustrator 24.1.3, SVG Export Plug-In . SVG Version: 6.00 Build 0) --> <svg xmlns="http://www.w3.org/2000/svg" xmlns:xlink="http://www.w3.org/1999/xlink" version="1.1" id="Layer_1" x="0px" y="0px" viewBox="0 0 425.2 425.2" style="enable-background:new 0 0 425.2 425.2;" xml:space="preserve"> <style type="text/css"> .st0{fill:url(#SVGID_1_);} .st1{fill:url(#SVGID_2_);} .st2{fill:#FFFFFF;} </style> <g> <g> <linearGradient id="SVGID_1_" gradientUnits="userSpaceOnUse" x1="354.5028" y1="211.3388" x2="71.9074" y2="211.3388"> <stop offset="0" style="stop-color:#FFC630;stop-opacity:0"></stop> <stop offset="1" style="stop-color:#FFC630"></stop> </linearGradient> <path class="st0" d="M213.2,351.5c-32.5,0-64.1-11.2-89.2-31.4l10.3-12.7c22.2,17.9,50.2,27.8,78.9,27.8l0.2,0v16.4L213.2,351.5z M227.2,350.8l-1.6-16.3c28.5-2.8,55.5-15.4,75.9-35.6l11.5,11.6C290,333.4,259.5,347.7,227.2,350.8z M113.7,310.9 c-23.3-22.9-37.9-53.2-41.1-85.4l16.3-1.6c2.9,28.4,15.8,55.2,36.3,75.4L113.7,310.9z M322.3,300.4l-12.6-10.5 c18.3-22.1,28.4-50,28.4-78.6v-0.1h16.4v0.1C354.5,243.8,343.1,275.4,322.3,300.4z M88.3,211.6H71.9v-0.2 c0-32.5,11.5-64.2,32.3-89.2l12.6,10.5c-18.4,22.1-28.5,50-28.5,78.7L88.3,211.6z M337.5,199c-2.8-28.4-15.7-55.2-36.2-75.4 l11.5-11.7c23.2,22.9,37.8,53.3,41,85.5L337.5,199z M125,123.7L113.5,112c23.1-22.8,53.6-37.1,85.9-40.2l1.6,16.3 C172.4,90.9,145.4,103.5,125,123.7z M292.2,115.5c-22.2-18-50.3-27.9-79-27.9h-0.1V71.2h0.1c32.5,0,64.2,11.2,89.3,31.5 L292.2,115.5z"></path> </g> <g> <linearGradient id="SVGID_2_" gradientUnits="userSpaceOnUse" x1="46.1446" y1="211.339" x2="380.265" y2="211.339"> <stop offset="0" style="stop-color:#FFC630;stop-opacity:0"></stop> <stop offset="1" style="stop-color:#FFC630"></stop> </linearGradient> <path class="st1" d="M213.2,377c-4.7,0-9.5-0.2-14.2-0.6l1.4-16.3c4.2,0.4,8.6,0.5,12.8,0.5c26.5,0,52.5-6.9,75.3-20l8.1,14.2 C271.4,369.4,242.5,377,213.2,377z M184.6,374.6c-33.8-5.8-64.6-21.5-89-45.6l11.5-11.7c22.1,21.7,49.8,35.9,80.3,41.1 L184.6,374.6z M308.9,347.1l-9.3-13.5c25.5-17.7,44.6-42.4,55.2-71.3l15.4,5.7C358.4,300.1,337.2,327.5,308.9,347.1z M85.7,318.4 c-22.4-26.2-35.8-58.1-38.9-92.2l16.3-1.5c2.8,30.7,14.9,59.4,35,83L85.7,318.4z M374.6,254.2l-15.8-4.3 c3.4-12.5,5.1-25.5,5.1-38.6c0-17.7-3.1-35-9.2-51.4l15.4-5.7c6.8,18.3,10.2,37.5,10.2,57.1C380.3,225.9,378.4,240.3,374.6,254.2z M62.5,211.7H46.1v-0.4c0-34.4,10.5-67.3,30.4-95.3l13.4,9.5c-17.9,25.2-27.4,54.9-27.4,85.8V211.7z M349.6,147.9 c-13.2-27.9-34.4-50.7-61.4-66.1l8.1-14.2c29.9,17,53.4,42.4,68.1,73.3L349.6,147.9z M97.9,115.2l-12.5-10.6 C107.7,78.4,137,60,170.1,51.2l4.2,15.8C144.4,75,118,91.6,97.9,115.2z M276.6,75.9C256.7,66.7,235.4,62,213.2,62c0,0,0,0,0,0 c-8.8,0-17.6,0.8-26.1,2.2l-2.8-16.1c9.5-1.6,19.2-2.5,28.9-2.5c0,0,0,0,0,0c24.5,0,48.2,5.2,70.3,15.3L276.6,75.9z"></path> </g> </g> <g> <g> <path class="st2" d="M179.2,197.4c9,0,16.3-7.3,16.3-16.3s-7.3-16.3-16.3-16.3c-9,0-16.3,7.3-16.3,16.3S170.3,197.4,179.2,197.4z M179.2,171.6c5.3,0,9.5,4.2,9.5,9.5c0,5.3-4.2,9.5-9.5,9.5c-5.3,0-9.5-4.2-9.5-9.5C169.8,175.9,174,171.6,179.2,171.6z"></path> <path class="st2" d="M149.4,191.6l1.4,3.1l-2.9,5.1c-1.2,2.2-0.8,5.1,0.8,6.8l4.9,4.9c1.9,1.9,4.6,2.2,6.8,1l5.1-2.9l3.1,1.4 l1.5,5.6c0.7,2.5,2.9,4.2,5.4,4.2h6.9c2.5,0,4.7-1.7,5.4-4.2l1.5-5.6l3.1-1.4l5.1,2.9c2.2,1.2,5.1,0.8,6.8-0.8l4.9-4.9 c1.9-1.9,2.2-4.6,0.8-6.8l-2.9-5.1l1.4-3.1l5.6-1.5c2.5-0.7,4.2-2.9,4.2-5.4v-7.1c0-2.5-1.7-4.7-4.2-5.4l0,0l-5.6-1.5l-0.8-3.2 l2.9-5.1c1.2-2.2,0.8-5.1-0.8-6.8l-4.9-4.9c-1.9-1.9-4.6-2.2-6.8-0.8l-5.1,2.9l-3.1-1.4l-1.5-5.6c-0.7-2.5-2.9-4.2-5.4-4.2H176 c-2.5,0-4.7,1.7-5.4,4.2l-1.5,5.6l-3.1,1.4l-5.1-2.9c-2.2-1.2-5.1-0.8-6.8,0.8l-5.4,4.9c-1.9,1.9-2.2,4.6-0.8,6.8l2.9,5.1 l-1.2,3.1l-5.8,1.5c-2.5,0.7-4.2,2.9-4.2,5.4v6.9c0,2.5,1.7,4.7,4.2,5.4L149.4,191.6z M146.4,178.6l6.4-1.9c1-0.3,1.9-1,2.2-2 l2.5-6.1c0.3-1,0.3-2-0.2-3.1l-3.2-5.8l3.7-3.7l5.8,3.2c0.8,0.5,2,0.5,3.1,0.2l6.1-2.5c1-0.3,1.7-1.2,2-2.2l1.9-6.4h5.3l1.9,6.4 c0.3,1,1,1.9,2,2.2l6.1,2.5c1,0.3,2,0.3,3.1-0.2l5.8-3.2l3.7,3.7l-3.2,5.8c-0.5,0.8-0.5,2-0.2,3.1l2.5,6.1c0.3,1,1.2,1.7,2.2,2 l6.4,1.7v5.3l-6.4,1.9c-1,0.3-1.9,1-2.2,2l-2.5,6.1c-0.3,1-0.3,2,0.2,3.1l3.2,5.8l-3.7,3.7l-6.1-3.2c-0.8-0.5-2-0.5-3.1-0.2 l-6.1,2.5c-1,0.3-1.7,1.2-2,2.2l-1.9,6.4h-5.3l-1.9-6.4c-0.3-1-1-1.9-2-2.2l-6.1-2.5c-1-0.3-2-0.3-3.1,0.2l-5.8,3.2l-3.7-3.7 l3.2-5.8c0.5-0.8,0.5-2,0.2-3.1l-2.5-6.1c-0.3-1-1.2-1.7-2.2-2l-6.4-1.9v-5.1H146.4z"></path> <path class="st2" d="M299.9,178.4l-23.2-32c-0.7-0.8-1.7-1.4-2.7-1.4s-2,0.5-2.7,1.4l-23.4,32c-0.7,1-0.8,2.4-0.3,3.6 s1.7,1.9,3.1,1.9h9.8V268h-8.6v-64.4c0-1.9-1.5-3.4-3.4-3.4h-20.2c-1.9,0-3.4,1.5-3.4,3.4V268h-8.6v-36.1c0-1.9-1.5-3.4-3.4-3.4 h-20c-1.9,0-3.4,1.5-3.4,3.4V268h-8.6v-24.7c0-1.9-1.5-3.4-3.4-3.4h-20.2c-1.9,0-3.4,1.5-3.4,3.4V268h-8c-1.9,0-3.4,1.5-3.4,3.4 c0,1.9,1.5,3.4,3.4,3.4h149.5c1.9,0,3.4-1.5,3.4-3.4c0-1.9-1.5-3.4-3.4-3.4h-8v-84.2h9.8c1.4,0,2.4-0.7,3.1-1.9 C300.7,180.8,300.7,179.4,299.9,178.4z M231.6,207.2H245v61h-13.4C231.6,268.2,231.6,207.2,231.6,207.2z M196.2,235.3h13.4V268 h-13.4V235.3z M160.6,246.7H174V268h-13.4V246.7z M284,177c-1.9,0-3.4,1.5-3.4,3.4V268h-13.2v-87.6c0-1.9-1.5-3.4-3.4-3.4h-6.6 l16.6-22.9l16.6,22.9C290.6,177,284,177,284,177z"></path> </g> </g> </svg> 