<?xml version="1.0" encoding="UTF-8"?> <!-- Generator: Adobe Illustrator 24.1.3, SVG Export Plug-In . SVG Version: 6.00 Build 0) --> <svg xmlns="http://www.w3.org/2000/svg" xmlns:xlink="http://www.w3.org/1999/xlink" version="1.1" id="Layer_1" x="0px" y="0px" viewBox="0 0 197 197" style="enable-background:new 0 0 197 197;" xml:space="preserve"> <style type="text/css"> .st0{fill:#FEC700;} .st1{fill:#525757;} .st2{fill:#FFFFFF;} .st3{fill:#FCC433;} </style> <g> <circle class="st0" cx="98.5" cy="98.5" r="98.5"></circle> <path class="st1" d="M105.4,26.3L46.2,48c-6.5,2.4-9.9,9.7-7.5,16.2L73.4,159c2.4,6.5,9.7,9.9,16.2,7.5l59.2-21.7 c6.5-2.4,9.9-9.7,7.5-16.2l-34.7-94.8C119.2,27.3,111.9,23.9,105.4,26.3z M68.9,48l19.2-7c1.2-0.4,2.6,0.1,3.1,1.4 c0.4,1.2-0.1,2.6-1.4,3.1l-19.2,7c-1.2,0.4-2.6-0.1-3.1-1.4C67,49.9,67.6,48.5,68.9,48z M117,149.7c-2.5,0.9-5.2-0.4-6.2-2.9 c-0.9-2.5,0.4-5.2,2.9-6.2s5.2,0.4,6.2,2.9S119.5,148.8,117,149.7z"></path> <rect x="59.1" y="52.3" transform="matrix(0.939 -0.344 0.344 0.939 -26.7339 39.1503)" class="st2" width="75.7" height="85.2"></rect> <path class="st3" d="M114.6,82.2c-0.6-0.8-1.7-1.1-2.7-0.8l-11.6,4l-7.8-9.5c-0.7-0.8-1.7-1.1-2.7-0.7c-1,0.4-1.6,1.3-1.6,2.3 l0.2,12.3l-11.5,4.5c-1,0.4-1.6,1.3-1.5,2.4c0,1,0.7,1.9,1.7,2.2l11.8,3.6l0.7,12.3c0.1,1,0.8,1.9,1.8,2.2c1,0.3,2.1-0.1,2.7-0.9 l7.1-10.1l11.9,3.1c0.5,0.1,1,0.1,1.5-0.1c0,0,0,0,0,0c1.3-0.5,1.9-1.9,1.4-3.1c-0.1-0.4-0.4-0.7-0.6-0.9l-7.2-9.5l6.7-10.4 C115.3,84.1,115.2,83,114.6,82.2"></path> </g> </svg> 