<?xml version="1.0" encoding="UTF-8"?> <!-- Generator: Adobe Illustrator 24.1.3, SVG Export Plug-In . SVG Version: 6.00 Build 0) --> <svg xmlns="http://www.w3.org/2000/svg" xmlns:xlink="http://www.w3.org/1999/xlink" version="1.1" id="Layer_1" x="0px" y="0px" viewBox="0 0 197 197" style="enable-background:new 0 0 197 197;" xml:space="preserve"> <style type="text/css"> .st0{fill:#FEC700;} .st1{fill:#FFFFFF;} .st2{fill:#525758;} </style> <g> <circle class="st0" cx="98.5" cy="98.5" r="98.5"></circle> <path class="st1" d="M47.3,133.6l58.8-50.4V66.5c0,0,2.9-11.3,3.6-12.2c0.7-0.8,9.2-4.8,9.2-4.8h9.4l3.8,2.3l-13.7,18.8l7.6,10.3 l9-5.9l12.7-11.1c0,0,3.5,17.9-4.2,25.5s-28.1,6.1-28.1,6.1l-47.6,54.7l-13.5,1l-4.9-5.7L47.3,133.6z"></path> <g> <g> <path class="st2" d="M59.7,155.8C51,155.8,44,148.7,44,140c0-4.6,1.9-8.9,5.3-11.8l51.6-45.8c-1.1-3-1.7-6.1-1.7-9.5 c0-15.2,12.4-27.6,27.6-27.6c4,0,8.1,0.9,11.8,2.6c1.2,0.5,2,1.6,2.2,2.9c0.2,1.3-0.2,2.6-1.1,3.5l-16.9,17l5.5,5.6l17-16.9 c0.9-0.9,2.2-1.3,3.5-1.1c1.3,0.2,2.3,1.1,2.9,2.2c1.8,3.8,2.7,7.9,2.7,11.8c0,15.2-12.4,27.6-27.6,27.6c-3.3,0-6.5-0.6-9.5-1.7 l-45.8,51.6C68.6,153.9,64.3,155.8,59.7,155.8z M126.8,53.3c-10.9,0-19.7,8.8-19.7,19.7c0,3.1,0.7,6,2.1,8.7 c0.8,1.6,0.5,3.6-0.9,4.8l-53.8,47.7c-1.7,1.5-2.6,3.6-2.6,5.9c0,4.4,3.5,7.9,7.9,7.9c2.3,0,4.4-0.9,5.9-2.6l47.7-53.8 c1.2-1.4,3.2-1.7,4.8-0.9c2.6,1.4,5.5,2.1,8.7,2.1c10.9,0,19.7-8.8,19.7-19.7c0-0.9-0.1-1.8-0.2-2.8L134,82.5 c-1.4,1.4-3.3,2.3-5.4,2.3c-2.2,0-4.2-0.8-5.7-2.3l-5.5-5.5c-1.5-1.5-2.4-3.6-2.3-5.7c0-2.1,0.9-4.1,2.4-5.5l12.2-12.2 C128.6,53.4,127.7,53.3,126.8,53.3z"></path> </g> <g> <path class="st2" d="M134.6,155.8c-1,0-2-0.4-2.8-1.2l-36.9-36.9c-1.5-1.5-1.5-4,0-5.6c1.5-1.5,4-1.5,5.6,0l34.1,34.1l10.2-10.2 L109.8,101c-1.5-1.5-1.5-4,0-5.6c1.5-1.5,4-1.5,5.6,0l37.9,37.9c1.5,1.5,1.5,4,0,5.6l-15.8,15.8 C136.7,155.4,135.7,155.8,134.6,155.8z"></path> <path class="st2" d="M93.2,98.6c-1,0-2-0.4-2.8-1.2L64.8,71.9c-1.5-1.5-1.5-4,0-5.6c1.5-1.5,4-1.5,5.6,0l25.6,25.6 c1.5,1.5,1.5,4,0,5.6C95.2,98.2,94.2,98.6,93.2,98.6z"></path> <path class="st2" d="M59.7,80.9c-0.2,0-0.3,0-0.5,0C58,80.7,57,80,56.3,79L44.5,59.3c-0.9-1.5-0.7-3.5,0.6-4.8l7.9-7.9 c1.3-1.3,3.3-1.5,4.8-0.6l19.7,11.8c1,0.6,1.7,1.7,1.9,2.9c0.1,1.2-0.3,2.4-1.1,3.3L62.5,79.7C61.8,80.5,60.8,80.9,59.7,80.9z M52.9,57.9l7.6,12.7l8.6-8.6l-12.7-7.6L52.9,57.9z"></path> </g> </g> <path class="st1" d="M159.2,47.2l2.4,8c0.2,0.7,0,1.4-0.6,1.8c-0.6,0.4-1.3,0.4-1.9,0l-6.8-4.8l-6.8,4.8c-0.3,0.2-0.6,0.3-0.9,0.3 h0c-0.9,0-1.6-0.7-1.6-1.6c0-0.3,0.1-0.5,0.2-0.7l2.3-7.7l-6.6-5c-0.6-0.4-0.8-1.2-0.6-1.8c0.2-0.7,0.8-1.1,1.5-1.1L148,39l2.7-7.9 c0.2-0.7,0.9-1.1,1.6-1.1s1.3,0.4,1.6,1.1l2.7,7.9l8.3,0.2c0.7,0,1.3,0.5,1.5,1.1c0.2,0.7,0,1.4-0.6,1.8L159.2,47.2z"></path> </g> </svg> 