<?xml version="1.0" encoding="UTF-8"?> <!-- Generator: Adobe Illustrator 24.1.3, SVG Export Plug-In . SVG Version: 6.00 Build 0) --> <svg xmlns="http://www.w3.org/2000/svg" xmlns:xlink="http://www.w3.org/1999/xlink" version="1.1" id="Layer_1" x="0px" y="0px" viewBox="0 0 194.6 174.5" style="enable-background:new 0 0 194.6 174.5;" xml:space="preserve"> <style type="text/css"> .st0{fill:#FFFFFF;} .st1{fill:#FDC600;} </style> <g> <g> <path class="st0" d="M97.3,132.5c34.3-1.5,52.4-10.8,52.4-10.8v-21.2C149.7,85,137,81,121.4,81c0,0-10.4,7.9-24.3,7.7 C83.6,88.5,72.8,81,72.8,81c-15.6,0-28.3,3.9-28.3,19.5v21C44.5,121.7,68.2,133.4,97.3,132.5z"></path> </g> <g> <path class="st1" d="M126.8,163.9c-0.4,0-0.6,0-0.8-0.2c-0.4-0.4-0.6-1-0.6-1.5l1.7-9.8l-7.1-7.1c-0.4-0.4-0.6-1-0.4-1.7 c0.2-0.6,0.6-1,1.2-1l10-1.5l4.4-8.9c0.6-1,2.3-1,2.7,0l4.4,8.9l10,1.5c0.6,0,1,0.4,1.2,1c0.2,0.6,0,1.2-0.4,1.7l-7.3,6.9l1.7,9.8 c0,0.6-0.2,1.2-0.6,1.5c-0.4,0.4-1,0.4-1.7,0.2l-8.9-4.6l-8.9,4.6C127.2,163.9,127,163.9,126.8,163.9z"></path> </g> <g> <path class="st1" d="M185,151.7c-0.2,0-0.4,0-0.6-0.2l-8.9-4.6l-8.9,4.6c-0.6,0.2-1.2,0.2-1.7-0.2c-0.4-0.4-0.6-1-0.6-1.5l1.7-9.8 l-7.1-7.1c-0.4-0.4-0.6-1-0.4-1.7c0.2-0.6,0.6-1,1.2-1l10-1.5l4.4-8.9c0.6-1,2.3-1,2.7,0l4.4,8.9l10,1.5c0.6,0,1,0.4,1.2,1 c0.2,0.6,0,1.2-0.4,1.7l-7.1,6.9l1.7,9.8c0,0.6-0.2,1.2-0.6,1.5C185.6,151.5,185.2,151.7,185,151.7z"></path> </g> <g> <path class="st1" d="M106.9,170.6c-0.2,0-0.4,0-0.6-0.2l-8.9-4.6l-8.9,4.6c-0.6,0.2-1.2,0.2-1.7-0.2c-0.4-0.4-0.6-1-0.6-1.5 l1.7-9.8l-7.1-7.1c-0.4-0.4-0.6-1-0.4-1.7c0.2-0.6,0.6-1,1.2-1l10-1.5l4.4-8.9c0.6-1,2.3-1,2.7,0l4.4,8.9l10,1.5 c0.6,0,1,0.4,1.2,1c0.2,0.6,0,1.2-0.4,1.7l-7.1,7.1l1.7,9.8c0,0.6-0.2,1.2-0.6,1.5C107.5,170.6,107.3,170.6,106.9,170.6z"></path> </g> <g> <path class="st1" d="M67.8,163.9c-0.2,0-0.4,0-0.6-0.2l-8.9-4.6l-8.9,4.6c-0.6,0.2-1.2,0.2-1.7-0.2c-0.4-0.4-0.6-1-0.6-1.5 l1.7-9.8l-7.1-7.1c-0.4-0.4-0.6-1-0.4-1.7s0.6-1,1.2-1l10-1.5l4.4-8.9c0.6-1,2.3-1,2.7,0l4.4,8.9l10,1.5c0.6,0,1,0.4,1.2,1 c0.2,0.6,0,1.2-0.4,1.7l-6.9,7.1l1.7,9.8c0,0.6-0.2,1.2-0.6,1.5C68.4,163.7,68.2,163.9,67.8,163.9z"></path> </g> <g> <path class="st1" d="M28.7,151.7c-0.2,0-0.4,0-0.6-0.2l-8.9-4.6l-8.9,4.6c-0.6,0.2-1.2,0.2-1.7-0.2c-0.4-0.4-0.6-1-0.6-1.5l1.9-10 l-7.1-7.1c-0.4-0.4-0.6-1-0.4-1.7c0.2-0.6,0.6-1,1.2-1l9.8-1.2l4.4-8.9c0.6-1,2.3-1,2.7,0l4.4,8.9l10,1.5c0.6,0,1,0.4,1.2,1 c0.2,0.6,0,1.2-0.4,1.7l-6.9,6.9l1.7,9.8c0,0.6-0.2,1.2-0.6,1.5C29.6,151.5,29.2,151.7,28.7,151.7z"></path> </g> <g transform="translate(0,-952.36218)"> <path class="st0" d="M97.1,957.3c-14,0-29.2,7-36.5,15.4l5.6,7.3h61.6l5.6-7.3C126.3,964.3,111.1,957.3,97.1,957.3z M68.1,983.1 c1.2,2,3.2,4,6.6,5.8c5.5,2.8,13.4,4.7,22.3,4.7s16.8-1.9,22.3-4.7c3.5-1.8,5.4-3.8,6.6-5.8H68.1z M68.9,989.2 c2.1,25,13.9,44.2,28.1,44.2s26-19.2,28.1-44.2c-1.7,1.8-3.9,3.4-6.4,4.7c-5.8,2.9-13.3,4.6-21.7,4.6s-15.9-1.7-21.7-4.6 C72.9,992.6,70.7,991,68.9,989.2z"></path> </g> </g> </svg> 