<?xml version="1.0" encoding="UTF-8"?> <!-- Generator: Adobe Illustrator 24.1.3, SVG Export Plug-In . SVG Version: 6.00 Build 0) --> <svg xmlns="http://www.w3.org/2000/svg" xmlns:xlink="http://www.w3.org/1999/xlink" version="1.1" id="Layer_1" x="0px" y="0px" viewBox="0 0 194.6 174.5" style="enable-background:new 0 0 194.6 174.5;" xml:space="preserve"> <style type="text/css"> .st0{fill:#FFC630;} .st1{fill:#FFFFFF;} .st2{fill:#525758;} </style> <g> <path class="st0" d="M41.2,31.8l31.1-0.3c0,0-4.8,10.8,7.8,9.5c12.6-1.3,39.7-0.5,39.7-0.5s3.3-3.3,2.3-8.5l30.4,0.3l0.8,134.9 L42,168L41.2,31.8z"></path> <rect x="85.4" y="62" class="st1" width="24.4" height="17.6"></rect> <rect x="84.7" y="92.1" class="st1" width="23.9" height="17.6"></rect> <rect x="85.2" y="123.3" class="st1" width="24.6" height="17.6"></rect> <path class="st2" d="M107.8,119.2H86.8c-2.9,0-5.3,2.4-5.3,5.3V139c0,2.9,2.4,5.3,5.3,5.3h21.1c2.9,0,5.3-2.4,5.3-5.3v-14.5 C113.1,121.6,110.8,119.2,107.8,119.2z M86.8,139v-14.5h21.1V139H86.8z"></path> <path class="st2" d="M118.4,65.8c0,1.5,1.2,2.6,2.6,2.6h22.4c1.5,0,2.6-1.2,2.6-2.6c0-1.5-1.2-2.6-2.6-2.6H121 C119.6,63.2,118.4,64.4,118.4,65.8z"></path> <path class="st2" d="M143.5,93.5H121c-1.5,0-2.6,1.2-2.6,2.6s1.2,2.6,2.6,2.6h22.4c1.5,0,2.6-1.2,2.6-2.6S144.9,93.5,143.5,93.5z"></path> <path class="st2" d="M143.5,123.8H121c-1.5,0-2.6,1.2-2.6,2.6c0,1.5,1.2,2.6,2.6,2.6h22.4c1.5,0,2.6-1.2,2.6-2.6 C146.1,125,144.9,123.8,143.5,123.8z"></path> <path class="st2" d="M73.6,63.2H51.1c-1.5,0-2.6,1.2-2.6,2.6c0,1.5,1.2,2.6,2.6,2.6h22.4c1.5,0,2.6-1.2,2.6-2.6 C76.2,64.4,75,63.2,73.6,63.2z"></path> <path class="st2" d="M73.6,93.5H51.1c-1.5,0-2.6,1.2-2.6,2.6s1.2,2.6,2.6,2.6h22.4c1.5,0,2.6-1.2,2.6-2.6S75,93.5,73.6,93.5z"></path> <path class="st2" d="M121,79h13.2c1.5,0,2.6-1.2,2.6-2.6s-1.2-2.6-2.6-2.6H121c-1.5,0-2.6,1.2-2.6,2.6S119.6,79,121,79z"></path> <path class="st2" d="M121,109.3h13.2c1.5,0,2.6-1.2,2.6-2.6c0-1.5-1.2-2.6-2.6-2.6H121c-1.5,0-2.6,1.2-2.6,2.6 C118.4,108.2,119.6,109.3,121,109.3z"></path> <path class="st2" d="M134.2,134.4H121c-1.5,0-2.6,1.2-2.6,2.6c0,1.5,1.2,2.6,2.6,2.6h13.2c1.5,0,2.6-1.2,2.6-2.6 C136.9,135.6,135.7,134.4,134.2,134.4z"></path> <path class="st2" d="M51.1,79h14.5c1.5,0,2.6-1.2,2.6-2.6s-1.2-2.6-2.6-2.6H51.1c-1.5,0-2.6,1.2-2.6,2.6S49.7,79,51.1,79z"></path> <path class="st2" d="M51.1,109.3h14.5c1.5,0,2.6-1.2,2.6-2.6c0-1.5-1.2-2.6-2.6-2.6H51.1c-1.5,0-2.6,1.2-2.6,2.6 C48.5,108.2,49.7,109.3,51.1,109.3z"></path> <path class="st2" d="M73.6,123.8H51.1c-1.5,0-2.6,1.2-2.6,2.6c0,1.5,1.2,2.6,2.6,2.6h22.4c1.5,0,2.6-1.2,2.6-2.6 C76.2,125,75,123.8,73.6,123.8z"></path> <path class="st2" d="M65.7,134.4H51.1c-1.5,0-2.6,1.2-2.6,2.6c0,1.5,1.2,2.6,2.6,2.6h14.5c1.5,0,2.6-1.2,2.6-2.6 C68.3,135.6,67.1,134.4,65.7,134.4z"></path> <path class="st2" d="M112.7,56l-3.2,2.9c-0.5-0.2-1.1-0.3-1.6-0.3H86.8c-2.9,0-5.3,2.4-5.3,5.3v14.5c0,2.9,2.4,5.3,5.3,5.3h21.1 c2.9,0,5.3-2.4,5.3-5.3V63.9c0-0.4,0-0.7-0.1-1.1l3.2-2.9c1.1-1,1.2-2.7,0.2-3.8C115.4,55,113.8,54.9,112.7,56L112.7,56z M86.8,78.4V63.9H104l-6.6,6l-2-2.5c-0.9-1.1-2.6-1.3-3.7-0.4c-1.1,0.9-1.3,2.6-0.4,3.7l3.7,4.8c0.5,0.6,1.1,0.9,1.9,1h0.2 c0.7,0,1.3-0.2,1.8-0.7l9-8.2v10.9H86.8z"></path> <path class="st2" d="M112.7,86.3l-3.2,2.9c-0.5-0.2-1.1-0.3-1.6-0.3H86.8c-2.9,0-5.3,2.4-5.3,5.3v14.5c0,2.9,2.4,5.3,5.3,5.3h21.1 c2.9,0,5.3-2.4,5.3-5.3V94.2c0-0.4,0-0.7-0.1-1.1l3.2-2.9c1.1-1,1.2-2.7,0.2-3.8C115.4,85.3,113.8,85.3,112.7,86.3L112.7,86.3z M86.8,108.7V94.2H104l-6.6,6l-2-2.5c-0.9-1.1-2.6-1.3-3.7-0.4c-1.1,0.9-1.3,2.6-0.4,3.7l3.7,4.8c0.5,0.6,1.1,0.9,1.9,1h0.2 c0.7,0,1.3-0.2,1.8-0.7l9-8.2v10.9H86.8z"></path> <circle class="st2" cx="86.8" cy="158.1" r="2.6"></circle> <circle class="st2" cx="97.3" cy="158.1" r="2.6"></circle> <circle class="st2" cx="107.8" cy="158.1" r="2.6"></circle> <path class="st1" d="M105.2,2.5H89.4c-2.9,0-5.3,2.4-5.3,5.3v10.5h-8.8c-2.9,0-5.3,2.4-5.3,5.3v5.3H43.2c-2.9,0-5.3,2.4-5.3,5.3 V166c0,2.9,2.4,5.3,5.3,5.3h108.1c2.9,0,5.3-2.4,5.3-5.3V34.2c0-2.9-2.4-5.3-5.3-5.3h-26.8v-5.3c0-2.9-2.4-5.3-5.3-5.3h-8.8V7.8 C110.5,4.9,108.1,2.5,105.2,2.5z M89.4,7.8h15.8v21.1H89.4V7.8z M124.6,38.1v-4h26.8V166H43.2V34.2H70v4c0,2.9,2.4,5.3,5.3,5.3h44 C122.2,43.4,124.6,41.1,124.6,38.1z M119.3,23.6v14.5h-44V23.6h8.8v5.3c0,2.9,2.4,5.3,5.3,5.3h15.8c2.9,0,5.3-2.4,5.3-5.3v-5.3 H119.3z"></path> </g> </svg> 