<?xml version="1.0" encoding="UTF-8"?> <!-- Generator: Adobe Illustrator 24.1.3, SVG Export Plug-In . SVG Version: 6.00 Build 0) --> <svg xmlns="http://www.w3.org/2000/svg" xmlns:xlink="http://www.w3.org/1999/xlink" version="1.1" id="Layer_1" x="0px" y="0px" viewBox="0 0 194.6 174.5" style="enable-background:new 0 0 194.6 174.5;" xml:space="preserve"> <style type="text/css"> .st0{fill:#FFC630;} .st1{fill:#FDC533;} .st2{fill:#FFFFFF;} </style> <g> <circle class="st0" cx="34.4" cy="150" r="17"></circle> <circle class="st0" cx="97.3" cy="150.5" r="17"></circle> <circle class="st0" cx="160.5" cy="150.7" r="17"></circle> <circle class="st1" cx="97.1" cy="40" r="15.1"></circle> <path class="st1" d="M70.6,83.1c0,0,2.2-26,26.6-26.6s27.6,24.3,26.6,27.9C123.8,84.4,95.9,100.4,70.6,83.1z"></path> <path class="st2" d="M163,130.7v-20.8c0-1.6-1.3-2.9-2.9-2.9h-60V95.1c25.4-1.6,44.8-23.5,43.2-49c-1.6-25.4-23.5-44.8-49-43.2 s-44.8,23.5-43.2,49c1.5,23.2,20,41.7,43.2,43.2V107h-60c-1.6,0-2.9,1.3-2.9,2.9v20.8c-11,1.6-18.7,11.8-17.1,22.9 s11.8,18.7,22.9,17.1s18.7-11.8,17.1-22.9c-1.3-8.9-8.2-15.8-17.1-17.1v-17.9h57.1v17.9c-11,1.6-18.7,11.8-17.1,22.9 s11.8,18.7,22.9,17.1s18.7-11.8,17.1-22.9c-1.3-8.9-8.2-15.8-17.1-17.1v-17.9h57.1v17.9c-11,1.6-18.7,11.8-17.1,22.9 s11.8,18.7,22.9,17.1s18.7-11.8,17.1-22.9C178.9,138.9,171.9,131.9,163,130.7z M85.2,40.1c0-6.7,5.4-12.1,12.1-12.1 s12.1,5.4,12.1,12.1S104,52.2,97.3,52.2C90.6,52.2,85.2,46.8,85.2,40.1z M97.3,89.4c-8.7,0-17.2-2.8-24.2-8.1 C73.6,68,84.8,57.6,98.1,58c12.7,0.4,22.9,10.6,23.4,23.4C114.5,86.6,106,89.5,97.3,89.4z M56.9,49.1c0-22.3,18-40.4,40.4-40.4 s40.4,18,40.4,40.4c0,10.3-3.9,20.2-10.9,27.7c-2-10.2-9-18.6-18.6-22.3c7.9-6,9.4-17.2,3.4-25.1c-6-7.9-17.2-9.4-25.1-3.4 s-9.4,17.2-3.4,25.1c1,1.3,2.1,2.4,3.4,3.4C76.8,58,69.8,66.5,67.8,76.6C60.8,69.2,56.9,59.3,56.9,49.1z M48.9,150.6 c0,8-6.5,14.4-14.4,14.4S20,158.6,20,150.6c0-8,6.5-14.4,14.4-14.4S48.9,142.7,48.9,150.6z M111.7,150.6c0,8-6.5,14.4-14.4,14.4 s-14.4-6.5-14.4-14.4c0-8,6.5-14.4,14.4-14.4S111.7,142.7,111.7,150.6z M160.1,165.1c-8,0-14.4-6.5-14.4-14.4 c0-8,6.5-14.4,14.4-14.4s14.4,6.5,14.4,14.4C174.6,158.6,168.1,165.1,160.1,165.1z"></path> </g> </svg> 