<?xml version="1.0" encoding="UTF-8"?> <!-- Generator: Adobe Illustrator 24.1.3, SVG Export Plug-In . SVG Version: 6.00 Build 0) --> <svg xmlns="http://www.w3.org/2000/svg" xmlns:xlink="http://www.w3.org/1999/xlink" version="1.1" id="Layer_1" x="0px" y="0px" viewBox="0 0 194.6 174.5" style="enable-background:new 0 0 194.6 174.5;" xml:space="preserve"> <style type="text/css"> .st0{fill:#FFFFFF;} .st1{fill:#FFC630;} </style> <g> <g> <path class="st0" d="M68,136.5c-1.7-0.2-5.3-0.8-7.9-3.3c-3-2.8-3.6-6.4-3.7-7.8V65.3c0-5.2-4.2-9.4-9.4-9.4c-5.1,0-9.2,4-9.3,9.1 V113c0,0,0,0.3,0,0.6v4.9c0.1,4.3,0.7,10.6,2.4,17.3c3,11.5,12.4,18.6,12.5,18.6c1,0.7,1.3,2.2,0.5,3.2c-0.7,0.8-2.8,0.6-3.2,0.3 c-0.4-0.3-8.1-6.1-12.4-16L13,171.8h65.5c0,0,13.5-3.3,25.4-12.3c10.5-7.9,16.9-19.9,18-22.9L68,136.5L68,136.5z"></path> <path class="st0" d="M159.6,52.6h-6.7v15.2h6.7c4.2,0,7.6-3.4,7.6-7.6C167.2,56,163.8,52.6,159.6,52.6z"></path> <path class="st0" d="M167.2,97.4c0-4-3.2-7.3-7.1-7.5c4-0.2,7.1-3.5,7.1-7.5c0-4.2-3.4-7.6-7.6-7.6h-6.7l-0.1,45.4h6.7 c4.2,0,7.6-3.4,7.6-7.6c0-4-3.2-7.3-7.2-7.5C163.9,104.7,167.2,101.4,167.2,97.4z"></path> <path class="st0" d="M138.3,2.6H70.8c-5.6,0-10.1,4.5-10.1,10.1v109.2c0,5.6,4.5,10.1,10.1,10.1h67.5c5.6,0,10.1-4.5,10.1-10.1 V12.7C148.4,7.1,143.9,2.6,138.3,2.6z M104.7,127.1c-2.1,0-3.8-1.7-3.8-3.8s1.7-3.8,3.8-3.8c2.1,0,3.8,1.7,3.8,3.8 S106.8,127.1,104.7,127.1z M139.6,114.3H69.5V19.8h70.1V114.3z"></path> </g> <path class="st1" d="M100.6,77.4c-2.4,2.4-2.4,6.2,0,8.5s6.2,2.4,8.5,0c2.4-2.4,2.4-6.2,0-8.5S103,75.1,100.6,77.4z M78.2,57.1 c-1.8,1.8-1.8,4.6,0,6.4s4.6,1.8,6.4,0c11.2-11.2,29.4-11.2,40.6,0c1.8,1.8,4.6,1.8,6.4,0c1.8-1.8,1.8-4.6,0-6.4 C116.9,42.4,92.9,42.4,78.2,57.1z M88.9,67.8c-1.8,1.8-1.8,4.6,0,6.4s4.6,1.8,6.4,0c5.3-5.3,13.9-5.3,19.2,0c1.8,1.8,4.6,1.8,6.4,0 s1.8-4.6,0-6.4C112.1,59,97.7,59,88.9,67.8z"></path> </g> </svg> 