<?xml version="1.0" encoding="UTF-8"?> <!-- Generator: Adobe Illustrator 24.1.3, SVG Export Plug-In . SVG Version: 6.00 Build 0) --> <svg xmlns="http://www.w3.org/2000/svg" xmlns:xlink="http://www.w3.org/1999/xlink" version="1.1" id="Layer_1" x="0px" y="0px" viewBox="0 0 194.6 174.5" style="enable-background:new 0 0 194.6 174.5;" xml:space="preserve"> <style type="text/css"> .st0{fill:#FFFFFF;} .st1{fill:#FFC630;} </style> <g> <rect x="9.4" y="17.2" class="st0" width="116.4" height="83.7"></rect> <g> <path class="st1" d="M71.9,112.9c-0.9-1.6-2.8-2.8-4.7-2.8c-1.9,0-3.8,1.2-4.7,2.8l-21.9,38.6c-0.9,1.6-0.2,3.5,1.2,4.2 c1.6,0.9,3.5,0.5,4.5-1.2l17.9-30.7v40c0,1.9,1.4,3.3,3.1,3.3c1.9,0,3.1-1.4,3.1-3.3v-40l18.1,30.7c0.9,1.6,2.8,2.1,4.5,1.2 c1.4-0.9,2.1-2.8,1.2-4.2L71.9,112.9z"></path> <path class="st1" d="M157.5,11.8c8.8,0,16,7.1,16,15.8c0,8.7-7.2,15.8-16,15.8c-8.8,0-16-7.1-16-15.8 C141.5,18.9,148.7,11.8,157.5,11.8"></path> <path class="st1" d="M51.2,11.8"></path> <path class="st1" d="M83.2,11.8"></path> <path class="st1" d="M121.8,94.1c0,1.9-1.6,3.3-3.3,3.3H16c-1.9,0-3.3-1.4-3.3-3.3V24.6c0-1.9,1.6-3,3.3-3h102.5 c1.9,0,3.3,1.4,3.3,3v27.6l9.4-1.6V17.9c0-3.5-2.6-5.8-6.1-5.8H83.2v-0.2c0-2.6-2.1-4.6-4.7-4.6H56.2c-2.6,0-4.7,2.1-4.7,4.9v0.2 H9.4c-3.5,0-6.1,2.3-6.1,5.8v82.8c0,3.5,2.6,6.3,6.1,6.3h115.7c3.5,0,6.1-3,6.1-6.3V54.6l-9.4,1.6V94.1z"></path> <path class="st1" d="M190.9,96.7c-5.6-14.9-11.5-29.5-17.2-44.4c-0.5-1.2-0.9-2.3-1.6-3.3c-0.9-1.2-2.4-2.6-4.2-3.5 c-3.1,1.6-6.6,2.8-10.3,2.8c-4.5,0-8.5-1.4-11.8-3.7l-46.3,8.1c-3.5,0.7-5.9,4-5.2,7.4c0.7,3.5,4,5.8,7.3,5.1l39.7-7v101.8 c0,4,3.3,7.2,7.3,7.2c4,0,7.1-3.3,7.1-7v-45.6c0-0.9,0.5-1.6,1.4-1.6c0.9,0,1.6,0.7,1.6,1.6v45.8c0,3.5,3.3,6.3,7.3,6.3 c4,0,7.3-2.8,7.3-6.3V87.4l5.4,13.9c1.4,3.3,5.2,4.9,8.5,3.5C190.7,103.6,192.1,99.9,190.9,96.7"></path> </g> </g> </svg> 