<?xml version="1.0" encoding="UTF-8"?> <svg xmlns="http://www.w3.org/2000/svg" id="Layer_1" data-name="Layer 1" viewBox="0 0 109.9 102.2"><defs><style>.cls-1{fill:#525859;}</style></defs><path class="cls-1" d="M151.2,89.8l-7.4,2.3.6,2.2a44.59,44.59,0,0,1,1.7,12,43.4,43.4,0,1,1-43.4-43.4A43,43,0,0,1,129,71.8l1.9,1.4,4.8-6.1-1.9-1.4a50.46,50.46,0,0,0-31-10.5,51.1,51.1,0,1,0,51.1,51.1,53.65,53.65,0,0,0-2-14.3Z" transform="translate(-51.7 -55.2)"></path><path class="cls-1" d="M102.8,106.4l5.3-6.8a9,9,0,0,0-6-2.2,9.3,9.3,0,1,0,9.3,9.3,7.46,7.46,0,0,0-.4-2.6Z" transform="translate(-51.7 -55.2)"></path><path class="cls-1" d="M112.7,118.7a15.74,15.74,0,0,0,5.5-12.1,13.27,13.27,0,0,0-.7-4.5l-3,.9a11.42,11.42,0,0,1,.5,3.7,12.9,12.9,0,1,1-12.9-12.9,12.72,12.72,0,0,1,8.1,2.9l1.9-2.4.3-.4a38.16,38.16,0,0,1,19,12.1,39,39,0,0,1-18.7,12.7M74.1,106.9A38.13,38.13,0,0,1,92.2,94.3a15.89,15.89,0,0,0-.3,24.3,38.85,38.85,0,0,1-17.8-11.7m29.1-19.5c-13.5,0-26,6.6-34.5,18.1l-1.2,1.6,1.2,1.5c8.4,10.7,20.7,16.8,33.5,16.8,13.5,0,26-6.6,34.5-18.1l1.2-1.6-1.2-1.5c-8.4-10.7-20.6-16.8-33.5-16.8" transform="translate(-51.7 -55.2)"></path><polygon class="cls-1" points="101.9 13.6 101.9 5.7 96 5.7 96 13.6 88.1 13.6 88.1 19.5 96 19.5 96 27.5 101.9 27.5 101.9 19.5 109.9 19.5 109.9 13.6 101.9 13.6"></polygon></svg> 