<?xml version="1.0" encoding="UTF-8"?> <svg xmlns="http://www.w3.org/2000/svg" id="Layer_1" data-name="Layer 1" viewBox="0 0 168.49 108.9"><defs><style>.cls-1{fill:#525859;}</style></defs><path class="cls-1" d="M61.7,135.1c-1.5.1-3,.2-4.5.2h-.4c-8.7,0-16.1-1.9-19.7-5.1a143.85,143.85,0,0,1-.2-15.7l-3.1-.2a122.59,122.59,0,0,0,.1,15.2c-5.6,0-7.3-2.2-7.7-2.8a23,23,0,0,1,12.2-22l5.5-2-.7,12.1,11.4-8.3h4.8l11.4,8.3L70,102.6l5.6,2a20.52,20.52,0,0,1,6,4.6l3.1-1.2a26,26,0,0,0-7.8-6.3l-1.7-.6a151.27,151.27,0,0,0-.1-20.9h0c-.1-.8-.2-1.5-.3-2.3a17.93,17.93,0,0,0-1.1-4.7C71.1,65,65.3,59.4,57.1,59.6,40.7,60.1,39,77.1,38.8,79.9a145.45,145.45,0,0,0-.4,21.4l-1.3.5H37a26.47,26.47,0,0,0-14,25.4v.2l.1.2c.1.2,1.9,5,10.9,5h1c4.2,3.7,12.2,5.8,21.7,5.8h.5c1.3,0,2.7-.1,4.1-.2C61.4,137.2,61.5,136.1,61.7,135.1Zm9.4-54.7h1.2c.8,1.9.9,5-3,8.9A32,32,0,0,0,71.1,80.4ZM46.7,108.2l.6-9.9a21.36,21.36,0,0,0,5.1,5.7Zm10.3-5a13.24,13.24,0,0,1-4.9-3.7,10.23,10.23,0,0,0,4.9,1.3,9.75,9.75,0,0,0,5.1-1.4A15.48,15.48,0,0,1,57,103.2Zm4.6.9a22.39,22.39,0,0,0,5-5.6l.1.1.6,9.6Zm.1-30.6A8.85,8.85,0,0,0,68,79.8c-.6,8.9-4.7,17.7-11,17.7-6,0-10-7.8-10.9-16.2C53.8,81.1,59.2,76,61.7,73.5ZM41.5,81a7.84,7.84,0,0,0,1.4.2,34.46,34.46,0,0,0,1.7,8C41.1,85.8,40.9,82.9,41.5,81Z" transform="translate(-22.94 -51.1)"></path><path class="cls-1" d="M57,114.2a1.6,1.6,0,1,0,1.6,1.6A1.58,1.58,0,0,0,57,114.2Z" transform="translate(-22.94 -51.1)"></path><path class="cls-1" d="M57,125.4a1.6,1.6,0,1,0,1.6,1.6A1.58,1.58,0,0,0,57,125.4Z" transform="translate(-22.94 -51.1)"></path><path class="cls-1" d="M113.1,69.2c1.8,3.3,5.7,5.5,8.9,6.9-.3,13.1-6.2,26.8-15.5,26.8C97.7,102.9,92,91,91,78.8a33.82,33.82,0,0,0,22.1-9.6m-24,22c3.1,9.1,9,16,17.3,16,8,0,14-6.8,17.2-15.9,6.5-6.6,5-11.5,3.5-13.8,3.5-16.9-7.3-26.4-21.3-26.4C80.6,51.1,85,78.7,85,78.7h.1c-1.2,2.6-1.5,7,4,12.5m26.1,51.1v2.6c.4,0,1.2.1,2.3.1a37.94,37.94,0,0,0,13.7-2.5v-2.8c-7,3.7-15.9,2.6-16,2.6m34.3,1.2c-.5.8-2.9,3.8-10.7,3.9a209.39,209.39,0,0,0,.1-21.4l-4.4.3a191.37,191.37,0,0,1-.1,22.1c-4.3,3.8-13.2,6.4-23.6,7l-1.8-32h-5l-1.8,32c-10.4-.5-19.1-3.1-23.5-7.1a181.57,181.57,0,0,1-.2-21.9l-4.4-.3a204.72,204.72,0,0,0,.1,21.2c-7.8-.1-10.2-3.1-10.7-3.9-1-21.6,15.6-30.1,17-30.8l8.9-3.3,7,17,5.9-7.2,1.5,2.1h5.3l1.5-2.1,5.9,7.2,7-17,9,3.3a32.74,32.74,0,0,1,17,30.9m-15.2-34.8-13.2-4.8L115.3,118l-6-7.2h-5.8l-6,7.2-5.8-14.1-13,4.8-.2.1c-.2.1-21.1,10-19.6,35.5v.3l.1.3c.1.3,2.9,7.5,16.7,6.9,5.9,5.1,17.1,8.2,30.4,8.2h.6c10.4-.1,23.6-2.3,30.4-8.2h1.4c12.5,0,15.1-6.7,15.2-7l.1-.3v-.3a37,37,0,0,0-19.5-35.5" transform="translate(-22.94 -51.1)"></path><path class="cls-1" d="M177.2,100.1l-9.1-3.3-1.2,2.9,2.5.9L160.2,131,159,110.6h-3.6l-1.1,20-9.1-30.1,2.4-.9-1.2-2.9-8.9,3.3h-.1a26.16,26.16,0,0,0-9.2,8.1l4.7,1.7c.2.1,16.1,7.6,18.4,26.6a53.53,53.53,0,0,0,5.8.3h.5c7.4-.1,16.9-1.6,21.8-5.8h1c8.9,0,10.8-4.8,10.9-5l.1-.2v-.2A27.17,27.17,0,0,0,177.2,100.1Zm.4,24.2a27.24,27.24,0,0,1-9.8,1.8,6.22,6.22,0,0,1-1.6-.1v-1.9c.1,0,6.5.8,11.4-1.8v2Z" transform="translate(-22.94 -51.1)"></path><polygon class="cls-1" points="130.66 55.6 132.46 58.1 136.26 58.1 137.96 55.6 136.86 52.8 131.76 52.8 130.66 55.6"></polygon><path class="cls-1" d="M144.9,87.6c2.2,6.5,6.4,11.5,12.4,11.5,5.8,0,10-4.9,12.3-11.4,4.6-4.7,3.6-8.2,2.5-9.9,2.5-12.1-5.2-18.9-15.2-18.9-18,0-14.9,19.7-14.9,19.7h.1C141.2,80.5,141,83.6,144.9,87.6ZM162,71.8c1.3,2.4,4.1,4,6.3,4.9-.2,9.4-4.4,19.1-11.1,19.1-6.2,0-10.3-8.5-11-17.2A23.81,23.81,0,0,0,162,71.8Z" transform="translate(-22.94 -51.1)"></path></svg> 