<?xml version="1.0" encoding="UTF-8"?> <svg xmlns="http://www.w3.org/2000/svg" id="Layer_1" data-name="Layer 1" viewBox="0 0 112.9 94.57"><defs><style>.cls-1{fill:#525859;}</style></defs><polygon class="cls-1" points="60.45 45.14 60.45 34.04 52.15 34.04 52.15 45.14 40.95 45.14 40.95 53.34 52.15 53.34 52.15 64.44 60.45 64.44 60.45 53.34 71.65 53.34 71.65 45.14 60.45 45.14"></polygon><path class="cls-1" d="M70.3,118c-5.5.5-13.9,4.9-18.3,7.5a3.7,3.7,0,0,0-1.5,4.8l7.3,16a3.87,3.87,0,0,0,5.4,1.7l2.9-1.7a8.06,8.06,0,0,1,7.4-.4l13.9,6a20.67,20.67,0,0,0,20-1.9l32.9-22.4a5.08,5.08,0,0,0,1.1-7.3,5.35,5.35,0,0,0-4.2-1.9,4.9,4.9,0,0,0-2.8.9l-19.8,11.9a7.77,7.77,0,0,1,.2,1.6,7.07,7.07,0,0,1-2,5.3,7.69,7.69,0,0,1-5.2,2.4l-1.7.1c-8.2.3-18.3.3-23.7-1.4l-2.3-1a1,1,0,0,1-.8-1,1,1,0,0,1,1-1.1l.4.1c.9.2,1.6.5,2.3.7,5.6,1.8,17.4,1.5,24.3,1.2a5.3,5.3,0,0,0,5.2-4.7,5.18,5.18,0,0,0-5.2-5.5c-6,0-15.7-.4-18.8-3.7-4.3-4.7-10.3-6.9-18-6.2" transform="translate(-50.15 -59.06)"></path><path class="cls-1" d="M142.9,94.7c5.5-.5,13.9-4.9,18.3-7.5a3.7,3.7,0,0,0,1.5-4.8l-7.3-16a3.87,3.87,0,0,0-5.4-1.7l-2.9,1.7a8.06,8.06,0,0,1-7.4.4l-13.9-6a20.67,20.67,0,0,0-20,1.9L73,85.1a5.08,5.08,0,0,0-1.1,7.3,5.35,5.35,0,0,0,4.2,1.9,4.9,4.9,0,0,0,2.8-.9L98.7,81.5a7.77,7.77,0,0,1-.2-1.6,7.07,7.07,0,0,1,2-5.3,7.69,7.69,0,0,1,5.2-2.4l1.7-.1c8.2-.3,18.3-.3,23.7,1.4l2.3,1a1,1,0,0,1,.8,1,1,1,0,0,1-1,1.1l-.4-.1c-.9-.2-1.6-.5-2.3-.7-5.6-1.8-17.4-1.5-24.3-1.2a5.3,5.3,0,0,0-5.2,4.7,5.18,5.18,0,0,0,5.2,5.5c6,0,15.7.4,18.8,3.7,4.2,4.7,10.2,6.9,17.9,6.2" transform="translate(-50.15 -59.06)"></path></svg> 