<?xml version="1.0" encoding="UTF-8"?> <svg xmlns="http://www.w3.org/2000/svg" id="Layer_1" data-name="Layer 1" viewBox="0 0 100.6 107.8"><defs><style>.cls-1{fill:#525859;}</style></defs><path class="cls-1" d="M150.9,126.8a7.6,7.6,0,1,1-7.6-7.6,7.6,7.6,0,0,1,7.6,7.6m-33.3,12.1a13.87,13.87,0,0,0-11.2-5.9,13.35,13.35,0,0,0-10.8,5.4l-12.9-7.2a13.89,13.89,0,0,0,.8-4.6,13.69,13.69,0,0,0-11.8-13.5V101A13.6,13.6,0,0,0,83.5,87.5a12.51,12.51,0,0,0-.7-4.3L96,74.7a13.66,13.66,0,0,0,10.5,4.9,13.45,13.45,0,0,0,10.1-4.5l13.8,8.4a13.36,13.36,0,0,0-.6,4A13.74,13.74,0,0,0,141.4,101v12.2a13.65,13.65,0,0,0-11.6,13.4,12.73,12.73,0,0,0,.8,4.4Zm-11.1,15.4a7.6,7.6,0,1,1,0-15.2,7.72,7.72,0,0,1,7.2,5h0a6.9,6.9,0,0,1,.4,2.5,7.62,7.62,0,0,1-7.6,7.7M69.9,134.4a7.6,7.6,0,1,1,7.6-7.6,7.6,7.6,0,0,1-7.6,7.6M62.2,87.7a7.6,7.6,0,0,1,7.6-7.6,7.68,7.68,0,0,1,6.3,3.3l.3.6.2.2a7.73,7.73,0,0,1,.8,3.4,7.6,7.6,0,0,1-7.6,7.6,7.45,7.45,0,0,1-7.6-7.5m44.3-29.3A7.6,7.6,0,1,1,98.9,66a7.47,7.47,0,0,1,7.6-7.6M143.3,80a7.6,7.6,0,1,1-7.6,7.6,6.86,6.86,0,0,1,1-3.7h0a7.41,7.41,0,0,1,6.6-3.9m13.6,7.7a13.59,13.59,0,0,0-23.6-9.2L119.5,70a13.36,13.36,0,0,0,.6-4,13.6,13.6,0,0,0-27.2,0,16.56,16.56,0,0,0,.4,3.3L79.7,78.2a13.61,13.61,0,1,0-14,22.4v13.2a13.64,13.64,0,0,0,4.2,26.6,13.19,13.19,0,0,0,9.6-4l13.6,7.5a12.41,12.41,0,0,0-.3,2.7,13.6,13.6,0,1,0,27.2,0,14.92,14.92,0,0,0-.2-2.1l13.7-8.3a13.58,13.58,0,1,0,13.6-22.5v-13a13.62,13.62,0,0,0,9.8-13" transform="translate(-56.3 -52.4)"></path><path class="cls-1" d="M92.3,106.4a14.3,14.3,0,1,1,14.3,14.3,14.3,14.3,0,0,1-14.3-14.3" transform="translate(-56.3 -52.4)"></path></svg> 