<?xml version="1.0" encoding="UTF-8"?> <svg xmlns="http://www.w3.org/2000/svg" id="Layer_1" data-name="Layer 1" viewBox="0 0 116.4 95.4"><defs><style>.cls-1{fill:#525859;}</style></defs><path class="cls-1" d="M83.9,152c-1.3,1.3.7,2.1.7,2.1h33.8s2-.8.7-2.1-4.8-2.3-5.2-8.1v-4.6H89.1v4.6c-.4,5.8-3.9,6.7-5.2,8.1" transform="translate(-48.4 -58.7)"></path><path class="cls-1" d="M127.7,120.7H54.3v-56h94.9V98.3h5.7V63.1a4.35,4.35,0,0,0-4.3-4.4H52.7a4.42,4.42,0,0,0-4.3,4.4v70.5a4.35,4.35,0,0,0,4.3,4.4h75.1V120.7Zm-25.4,14.4a3.41,3.41,0,1,1,3.2-3.4A3.27,3.27,0,0,1,102.3,135.1Z" transform="translate(-48.4 -58.7)"></path><path class="cls-1" d="M162.4,142.5H128.6V99.6a.65.65,0,0,1,.6-.6h32.6a.65.65,0,0,1,.6.6Zm-16.9,8.3a2.5,2.5,0,0,1-2.5-2.6,2.56,2.56,0,0,1,2.5-2.6,2.6,2.6,0,0,1,0,5.2m16.3-54.2H129.2a3.1,3.1,0,0,0-3,3.1V151a3,3,0,0,0,3,3.1h32.6a3.1,3.1,0,0,0,3-3.1V99.6a3.07,3.07,0,0,0-3-3" transform="translate(-48.4 -58.7)"></path></svg> 