<?xml version="1.0" encoding="UTF-8"?> <svg xmlns="http://www.w3.org/2000/svg" id="Layer_1" data-name="Layer 1" viewBox="0 0 928.8 630"><defs><style>.cls-1{fill:#ffc630;}.cls-2,.cls-6{fill:#525758;}.cls-3{fill:#fff;}.cls-4{fill:#fcc433;}.cls-5{fill:#1a1a1a;}.cls-6{isolation:isolate;font-size:35px;font-family:Montserrat-Bold, Montserrat;font-weight:700;}.cls-7{letter-spacing:0em;}</style></defs><circle class="cls-1" cx="128.5" cy="501.5" r="128.5"></circle><circle class="cls-1" cx="800.3" cy="501.5" r="128.5"></circle><circle class="cls-1" cx="285.2" cy="128.5" r="128.5"></circle><circle class="cls-1" cx="626.8" cy="128.5" r="128.5"></circle><circle class="cls-1" cx="462.9" cy="420.3" r="128.5"></circle><polygon class="cls-2" points="759.1 501.9 615.9 209.8 462.3 444.5 297.7 208.5 154 501.9 109.1 479.9 290.2 110.2 461 355.2 622.2 108.9 804 479.9 759.1 501.9"></polygon><circle class="cls-3" cx="478.2" cy="390.3" r="38.5"></circle><path class="cls-4" d="M507.7,395.6l-5.8-17.2,18.9-37.9h13.9Z" transform="translate(-55.1 -73.3)"></path><path class="cls-2" d="M534.7,340.5l-27,55.1-5.8-17.2,18.9-37.9h13.9m8.2-5.1H517.6l-1.4,2.8-18.9,37.9-1,1.9.7,2,5.8,17.2,4,11.8,5.5-11.2,27-55.1,3.6-7.3Z" transform="translate(-55.1 -73.3)"></path><path class="cls-4" d="M547.8,501.1a40.23,40.23,0,1,0-14.5,2.7A37.72,37.72,0,0,0,547.8,501.1ZM574,443.3a60.28,60.28,0,1,1-56.3-38.6A60.5,60.5,0,0,1,574,443.3Z" transform="translate(-55.1 -73.3)"></path><path class="cls-2" d="M517.7,404.6a60.44,60.44,0,1,1-21.8,4.1,60.64,60.64,0,0,1,21.8-4.1m15.6,99.3a40.25,40.25,0,1,0-37.5-25.7,40.6,40.6,0,0,0,37.5,25.7M517.7,399.5a65.5,65.5,0,0,0-59.9,39,65,65,0,0,0-1.2,50.1,65.5,65.5,0,0,0,84.7,37.5,65.5,65.5,0,0,0-23.6-126.6Zm15.6,99.2a35.27,35.27,0,0,1-32.7-22.4,35.1,35.1,0,0,1,32.7-47.7A35.27,35.27,0,0,1,566,451a35.13,35.13,0,0,1-20.1,45.3,34,34,0,0,1-12.6,2.4Z" transform="translate(-55.1 -73.3)"></path><path class="cls-5" d="M531.3,450.2a14.77,14.77,0,0,0-6.3,4.7l3.4,2.6a9.71,9.71,0,0,1,4.4-3.3Zm18.3,19.2a14.93,14.93,0,0,0,.3-11l-4,1.6a9.81,9.81,0,0,1-.2,7.7,10.1,10.1,0,0,1-18.6-.4,11.05,11.05,0,0,1-.6-5.1l-4.3-.6a14,14,0,0,0,.8,7.3,14.33,14.33,0,0,0,13.4,9.2,13.72,13.72,0,0,0,5.2-1A15.06,15.06,0,0,0,549.6,469.4Zm5.6-13a20.21,20.21,0,0,1-18.8,27.4,20.39,20.39,0,0,1-18.8-12.9,20.15,20.15,0,1,1,37.6-14.5Z" transform="translate(-55.1 -73.3)"></path><path class="cls-4" d="M499.4,380.5l7.7,19.8a63,63,0,0,0-12.7,3.5,62.33,62.33,0,0,0-11.8,6L475,390a13.14,13.14,0,0,1,17.5-16.8A12.71,12.71,0,0,1,499.4,380.5Z" transform="translate(-55.1 -73.3)"></path><path class="cls-2" d="M487.2,372.1a14,14,0,0,1,5.3,1.1,12.71,12.71,0,0,1,6.9,7.3l7.7,19.8a63,63,0,0,0-12.7,3.5,62.33,62.33,0,0,0-11.8,6L475,390a13.19,13.19,0,0,1,7.5-17,12.67,12.67,0,0,1,4.7-.9m0-5.1h0a19.2,19.2,0,0,0-6.6,1.2,18.23,18.23,0,0,0-10.4,23.6l7.7,19.8,2.3,5.9,5.3-3.4a57.83,57.83,0,0,1,10.8-5.5,61.6,61.6,0,0,1,11.7-3.2l6.2-1-2.3-5.9-7.7-19.8a18.28,18.28,0,0,0-9.6-10.1,17.63,17.63,0,0,0-7.4-1.6Z" transform="translate(-55.1 -73.3)"></path><rect class="cls-3" x="140.4" y="517.66" width="135.59" height="32.1" transform="translate(-308.67 121.34) rotate(-32.4)"></rect><rect class="cls-4" x="84.97" y="430.26" width="135.59" height="32.1" transform="translate(-270.46 78.03) rotate(-32.4)"></rect><path class="cls-2" d="M104,498.7,142.9,474l6-3.8,60.6-38.5,9.4-6,1.9-1.2-19.1-30.2-1.9,1.2-9.4,6-105.6,67Zm96.4-98.1,14.4,22.6-7.5,4.8a13.4,13.4,0,1,1-14.4-22.6Zm-59.2,69.2-5.4,3.4-30.4,19.3L91,470l3.8-2.4,4.8,7.5,3.8-2.4-4.8-7.5,3.8-2.4,7.2,11.3,3.8-2.4-7.2-11.3L110,458l4.8,7.5,3.8-2.4-4.8-7.5,3.8-2.4,7.2,11.3,3.8-2.4-7.2-11.3,3.8-2.4,4.8,7.5,3.8-2.4L129,446l3.8-2.4,7.2,11.3,3.8-2.4-7.2-11.3,3.8-2.4,4.8,7.5,3.8-2.4-4.8-7.5L148,434l7.2,11.3,3.8-2.4-7.2-11.3,3.8-2.4,4.8,7.5,3.8-2.4-4.8-7.5,3.8-2.4,7.2,11.3,3.8-2.4L167,422l3.8-2.4,4.8,7.5,3.8-2.4-4.8-7.5,8.9-5.7a18,18,0,0,0,2,14.6,17.38,17.38,0,0,0,12.3,8Z" transform="translate(-55.1 -73.3)"></path><path class="cls-2" d="M192.5,421.5a6.67,6.67,0,1,0,2.1-9.2A6.54,6.54,0,0,0,192.5,421.5Zm7.5-4.8a2.28,2.28,0,0,1-.7,3.1,2.19,2.19,0,0,1-3.1-.7,2.28,2.28,0,0,1,.7-3.1A2.17,2.17,0,0,1,200,416.7Z" transform="translate(-55.1 -73.3)"></path><path class="cls-2" d="M257,481.6l-38.9,24.7-6,3.8-60.6,38.5-9.4,6-1.9,1.2L159.3,586l1.9-1.2,9.4-6,105.6-67Zm-96.3,98.1-14.4-22.6,7.5-4.8a13.4,13.4,0,1,1,14.4,22.6Zm59.2-69.2,5.4-3.4,30.4-19.3,14.4,22.6-3.8,2.4-4.8-7.5-3.8,2.4,4.8,7.5-3.8,2.4-7.2-11.3-3.8,2.4,7.2,11.3-3.8,2.4-4.8-7.5-3.8,2.4,4.8,7.5-3.8,2.4-7.2-11.3-3.8,2.4,7.2,11.3-3.8,2.4-4.8-7.5-3.8,2.4,4.8,7.5-3.8,2.4-7.2-11.3-3.8,2.4,7.2,11.3-3.8,2.4-4.8-7.5-3.8,2.4,4.8,7.5-3.8,2.4-7.2-11.3-3.8,2.4,7.2,11.3-3.8,2.4-4.8-7.5-3.8,2.4,4.8,7.5-3.8,2.4-7.2-11.3-3.8,2.4,7.2,11.3-3.8,2.4-4.8-7.5-3.8,2.4,4.8,7.5-8.9,5.7a18,18,0,0,0-2-14.6,17.38,17.38,0,0,0-12.3-8Z" transform="translate(-55.1 -73.3)"></path><path class="cls-2" d="M168.6,558.9a6.67,6.67,0,1,0-2.1,9.2A6.67,6.67,0,0,0,168.6,558.9Zm-7.5,4.7a2.28,2.28,0,0,1,.7-3.1,2.19,2.19,0,0,1,3.1.7,2.28,2.28,0,0,1-.7,3.1A2.15,2.15,0,0,1,161.1,563.6Z" transform="translate(-55.1 -73.3)"></path><polygon points="48.9 425.4 157.4 436.6 201.9 408.3 92.9 397.5 48.9 425.4"></polygon><path class="cls-4" d="M615.8,266.5s60.2,14,61.2,14,21.2,5.6,21.2,5.6l5.1,15.5,20.6-4,16.8-3.2,14.9,7.2-1.9,7-67.9,26.9H669.6l-36.7-13.6-34.5-9.1Z" transform="translate(-55.1 -73.3)"></path><path class="cls-3" d="M613.1,193.4v4.9a4.41,4.41,0,0,0,3.7,4.4l5.8,1.1a32.27,32.27,0,0,0,3,7.2l-3.4,4.8a4.53,4.53,0,0,0,.5,5.7l3.5,3.5a4.53,4.53,0,0,0,5.7.5l4.8-3.4a32.27,32.27,0,0,0,7.2,3l1,5.8a4.5,4.5,0,0,0,4.4,3.7h4.9a4.41,4.41,0,0,0,4.4-3.7l1-5.8a37.39,37.39,0,0,0,7.2-2.9l4.8,3.4a4.53,4.53,0,0,0,5.7-.5l3.5-3.5a4.53,4.53,0,0,0,.5-5.7l-3.4-4.8a32.27,32.27,0,0,0,3-7.2l5.8-1a4.5,4.5,0,0,0,3.7-4.4v-4.9a4.41,4.41,0,0,0-3.7-4.4l-5.8-1a32.27,32.27,0,0,0-3-7.2l3.4-4.8a4.53,4.53,0,0,0-.5-5.7l-3.5-3.5a4.53,4.53,0,0,0-5.7-.5l-4.8,3.4a32.27,32.27,0,0,0-7.2-3l-1-5.8a4.5,4.5,0,0,0-4.4-3.7h-4.9a4.41,4.41,0,0,0-4.4,3.7l-1.1,5.8a32.27,32.27,0,0,0-7.2,3l-4.8-3.4a4.53,4.53,0,0,0-5.7.5l-3.5,3.5a4.53,4.53,0,0,0-.5,5.7l3.4,4.8a32.27,32.27,0,0,0-3,7.2l-5.8,1A4.13,4.13,0,0,0,613.1,193.4Zm38.6,15.7a13.25,13.25,0,1,1,13.2-13.3,13.21,13.21,0,0,1-13.2,13.3Zm74,34.8a24.51,24.51,0,0,0-2.6-9.5l3.1-4.3a4.53,4.53,0,0,0-.5-5.7l-3.5-3.4a4.42,4.42,0,0,0-5.7-.6l-4.3,3a22.63,22.63,0,0,0-9.5-2.4l-2.3-4.8a4.36,4.36,0,0,0-5.2-2.4l-4.7,1.2a4.45,4.45,0,0,0-3.3,4.7l.5,5.3a24.57,24.57,0,0,0-7,7l-5.3-.5a4.45,4.45,0,0,0-4.7,3.3l-1.2,4.7a4.46,4.46,0,0,0,2.4,5.2l4.9,2.2a26.11,26.11,0,0,0,2.4,9.5l-2.9,4.3a4.53,4.53,0,0,0,.5,5.7l3.4,3.5a4.53,4.53,0,0,0,5.7.5l4.3-3a24.51,24.51,0,0,0,9.5,2.6l2.2,4.7a4.36,4.36,0,0,0,5.2,2.4l4.7-1.2a4.45,4.45,0,0,0,3.3-4.7l-.5-5.2a24.57,24.57,0,0,0,7-7l5.3.5a4.56,4.56,0,0,0,4.8-3.3l1.2-4.7a4.46,4.46,0,0,0-2.4-5.2Zm-18,8h0a9.26,9.26,0,1,1,0-13.1A9.29,9.29,0,0,1,707.7,251.9Z" transform="translate(-55.1 -73.3)"></path><path class="cls-2" d="M654.2,157.2a4.41,4.41,0,0,1,4.4,3.7l1,5.8a32.27,32.27,0,0,1,7.2,3l4.8-3.4a5,5,0,0,1,2.6-.8,4.54,4.54,0,0,1,3.2,1.3l3.5,3.5a4.53,4.53,0,0,1,.5,5.7l-3.4,4.8a32.27,32.27,0,0,1,3,7.2l5.8,1a4.5,4.5,0,0,1,3.7,4.4v4.9a4.41,4.41,0,0,1-3.7,4.4l-5.8,1a32.27,32.27,0,0,1-3,7.2l3.4,4.8a4.53,4.53,0,0,1-.5,5.7l-3.5,3.5a4.38,4.38,0,0,1-3.2,1.3,5,5,0,0,1-2.6-.8l-4.8-3.4a26.52,26.52,0,0,1-7.2,2.9l-1,5.8a4.5,4.5,0,0,1-4.4,3.7h-4.9a4.41,4.41,0,0,1-4.4-3.7l-1-5.8a32.27,32.27,0,0,1-7.2-3l-4.8,3.4a5,5,0,0,1-2.6.8,4.54,4.54,0,0,1-3.2-1.3l-3.5-3.5a4.53,4.53,0,0,1-.5-5.7l3.4-4.8a30.43,30.43,0,0,1-3-7.2l-5.8-1.1a4.5,4.5,0,0,1-3.7-4.4v-4.9a4.58,4.58,0,0,1,3.7-4.4l5.8-1a32.27,32.27,0,0,1,3-7.2l-3.4-4.8a4.53,4.53,0,0,1,.5-5.7l3.5-3.5a4.38,4.38,0,0,1,3.2-1.3,5,5,0,0,1,2.6.8l4.8,3.4a32.27,32.27,0,0,1,7.2-3l1.1-5.8a4.5,4.5,0,0,1,4.4-3.7h4.8m-2.5,52.1h0a13.2,13.2,0,1,0-13.1-13.2,13,13,0,0,0,13.1,13.2m44.5,4.4a4.38,4.38,0,0,1,4,2.6l2.3,4.8a26.11,26.11,0,0,1,9.5,2.4l4.3-3a4.63,4.63,0,0,1,2.5-.8,4.48,4.48,0,0,1,3.2,1.4l3.5,3.4a4.53,4.53,0,0,1,.5,5.7l-3.1,4.3a24.51,24.51,0,0,1,2.6,9.5l4.8,2.2a4.36,4.36,0,0,1,2.4,5.2l-1.2,4.7a4.39,4.39,0,0,1-4.3,3.3h-.5l-5.3-.5a24.57,24.57,0,0,1-7,7l.5,5.2a4.45,4.45,0,0,1-3.3,4.7l-4.7,1.2a4.48,4.48,0,0,1-1.1.1,4.38,4.38,0,0,1-4-2.6l-2.2-4.7a24.51,24.51,0,0,1-9.5-2.6l-4.3,3a5,5,0,0,1-2.6.8,4.16,4.16,0,0,1-3.1-1.3l-3.4-3.5a4.53,4.53,0,0,1-.5-5.7l2.9-4.3a22.63,22.63,0,0,1-2.4-9.5l-4.9-2.2a4.36,4.36,0,0,1-2.4-5.2l1.2-4.7a4.39,4.39,0,0,1,4.3-3.3h.4l5.3.5a24.57,24.57,0,0,1,7-7l-.5-5.3a4.45,4.45,0,0,1,3.3-4.7l4.7-1.2c.3.2.7.1,1.1.1m4.9,41.1a9.31,9.31,0,0,0,6.6-2.7h0a9.3,9.3,0,1,0-13.2,0,9.66,9.66,0,0,0,6.6,2.7M654.2,153.2h-4.9a8.38,8.38,0,0,0-8.3,7l-.6,3.4A34.54,34.54,0,0,0,637,165l-2.8-2a8.27,8.27,0,0,0-4.8-1.5,8.39,8.39,0,0,0-6,2.5l-3.5,3.5a8.35,8.35,0,0,0-.9,10.8l2,2.8a34.54,34.54,0,0,0-1.4,3.4l-3.4.6a8.47,8.47,0,0,0-7,8.3v4.9a8.38,8.38,0,0,0,7,8.3l3.4.6c.4,1.1.9,2.3,1.4,3.4l-2,2.8a8.35,8.35,0,0,0,.9,10.8l3.5,3.5a8.39,8.39,0,0,0,6,2.5,8.27,8.27,0,0,0,4.8-1.5l2.8-2a34.54,34.54,0,0,0,3.4,1.4l.6,3.4a8.47,8.47,0,0,0,8.3,7h4.9a8.38,8.38,0,0,0,8.3-7l.6-3.4c1.1-.4,2.2-.9,3.3-1.4l2.8,2a2.19,2.19,0,0,1,.5.3,8.38,8.38,0,0,0-3.1,4.5l-1.2,4.8a8.4,8.4,0,0,0,4.7,9.8l2.8,1.3a28.82,28.82,0,0,0,1.7,6.4l-1.7,2.5a8.5,8.5,0,0,0,1,10.8l3.4,3.5h0a8.24,8.24,0,0,0,5.9,2.4,8,8,0,0,0,4.9-1.6l2.5-1.7a28.82,28.82,0,0,0,6.4,1.7l1.3,2.6a8.49,8.49,0,0,0,7.7,4.9,8.33,8.33,0,0,0,2.2-.3l4.7-1.2a8.54,8.54,0,0,0,6.3-8.9l-.3-3a29.84,29.84,0,0,0,4.7-4.7l3,.3h.9a8.55,8.55,0,0,0,8.2-6.3l1.2-4.8a8.4,8.4,0,0,0-4.7-9.8l-2.7-1.3a28.82,28.82,0,0,0-1.7-6.4l1.7-2.5a8.35,8.35,0,0,0-.9-10.8l-3.5-3.4a8.57,8.57,0,0,0-6-2.5,8,8,0,0,0-4.7,1.5h0l-2.5,1.7a28.26,28.26,0,0,0-6.5-1.7l-1.3-2.7a8.49,8.49,0,0,0-7.7-4.9h0a8.33,8.33,0,0,0-2.2.3l-4.7,1.2a8.79,8.79,0,0,0-4.5,3c-.1-.2-.2-.3-.3-.5l-2-2.8a34.54,34.54,0,0,0,1.4-3.4l3.4-.6a8.47,8.47,0,0,0,7-8.3v-4.9a8.38,8.38,0,0,0-7-8.3l-3.4-.6a34.54,34.54,0,0,0-1.4-3.4l2-2.8a8.35,8.35,0,0,0-.9-10.8l-3.5-3.5a8.39,8.39,0,0,0-6-2.5,8.27,8.27,0,0,0-4.8,1.5l-2.8,2a34.54,34.54,0,0,0-3.4-1.4l-.6-3.4a9,9,0,0,0-8.5-6.8Zm-2.5,55.9v-4a9.15,9.15,0,0,1-6.5-2.7,9.19,9.19,0,0,1,6.5-15.7,9.2,9.2,0,0,1,0,18.4v4Zm49.4,41.5a5.35,5.35,0,0,1-3.7-9.1,5.14,5.14,0,0,1,3.7-1.5,5.35,5.35,0,0,1,3.7,9.1h0a5,5,0,0,1-3.7,1.5Z" transform="translate(-55.1 -73.3)"></path><path class="cls-1" d="M604.3,324.4H581.5a3.8,3.8,0,0,1-3.8-3.8V252.1a3.63,3.63,0,0,1,1.2-2.8,3.74,3.74,0,0,1,2.8-1c7.8.5,33.9,2.5,40.5,8.6a3.93,3.93,0,0,1,1.2,3.1c-1.7,19.8-14.8,60-15.4,61.7A3.84,3.84,0,0,1,604.3,324.4Z" transform="translate(-55.1 -73.3)"></path><path class="cls-2" d="M584.7,255.5c17.7,1.3,27.9,3.9,31.5,5.7-1.7,15-9.6,41.8-14.2,56.2H584.7V255.5m-3.2-7.2a4.21,4.21,0,0,0-2.6,1,3.63,3.63,0,0,0-1.2,2.8v68.5a3.8,3.8,0,0,0,3.8,3.8h22.8a3.88,3.88,0,0,0,3.6-2.6c.6-1.7,13.7-41.9,15.4-61.7a3.62,3.62,0,0,0-1.2-3.1c-6.5-6.2-32.6-8.2-40.5-8.6,0-.1,0-.1-.1-.1Z" transform="translate(-55.1 -73.3)"></path><path class="cls-2" d="M679.7,339.4c-5,0-9.4-1.4-15.8-3.8l-56.9-19a3.79,3.79,0,1,1,2.4-7.2l57.1,19c13.7,5.2,14.8,5.6,46.8-7.5L751,303.8a17.42,17.42,0,0,0-17.6-5.8l-29.2,7.3a3.81,3.81,0,0,1-1.8-7.4l29.2-7.3A24.68,24.68,0,0,1,760,303.7a3.89,3.89,0,0,1,.2,3,4,4,0,0,1-2,2.2l-41.9,19C696.4,336,687.4,339.4,679.7,339.4Z" transform="translate(-55.1 -73.3)"></path><path class="cls-2" d="M687.5,308.6a29.57,29.57,0,0,1-5.2-.5l-33-6.6a3.79,3.79,0,0,1-3-4.5,3.84,3.84,0,0,1,4.5-3l33,6.6a19.84,19.84,0,0,0,8.4-.2l7.3-1.8c-.5-6.9-3.9-10.3-12.3-12.4L618.8,271a3.82,3.82,0,0,1-2.9-4.5,3.78,3.78,0,0,1,4.5-2.9l68.5,15.2c12.6,3.2,18.2,9.8,18.2,21.5v1.2a3.84,3.84,0,0,1-2.9,3.7L694,307.8A23.64,23.64,0,0,1,687.5,308.6Zm15.8-7Z" transform="translate(-55.1 -73.3)"></path><circle class="cls-4" cx="345.3" cy="155.4" r="3.9"></circle><path class="cls-2" d="M400.4,224.8a3.9,3.9,0,1,1-3.9,3.9,3.84,3.84,0,0,1,3.9-3.9m0-4.9a8.8,8.8,0,1,0,8.8,8.8,8.81,8.81,0,0,0-8.8-8.8Z" transform="translate(-55.1 -73.3)"></path><path class="cls-4" d="M403.2,238.8h-5.7a4,4,0,0,0-4,4V251c0,1.9.8,3.6,2.7,4l.8,13.6a3,3,0,0,0,2.9,3h.7a3,3,0,0,0,3-3h0l.8-13.5c1.9-.4,2.7-2,2.7-4v-8.2A3.78,3.78,0,0,0,403.2,238.8Z" transform="translate(-55.1 -73.3)"></path><path class="cls-2" d="M403.2,238.8a4.17,4.17,0,0,1,4,4.1v8.2c0,1.9-.8,3.6-2.7,4l-.8,13.5a3,3,0,0,1-3,3H400a3,3,0,0,1-2.9-3l-.8-13.6c-1.9-.4-2.7-2-2.7-4v-8.2a4,4,0,0,1,4-4h5.6m.1-4.9h-5.8a8.92,8.92,0,0,0-8.9,8.9V251a9.24,9.24,0,0,0,2.9,7l.7,10.8a7.85,7.85,0,0,0,7.8,7.7h.7a7.81,7.81,0,0,0,7.9-7.7l.7-10.7a9.24,9.24,0,0,0,2.9-7v-8.2a9,9,0,0,0-8.9-9Z" transform="translate(-55.1 -73.3)"></path><circle class="cls-4" cx="323.4" cy="144.6" r="6.9"></circle><path class="cls-2" d="M378.5,211.1a6.9,6.9,0,1,1-6.9,6.9,6.91,6.91,0,0,1,6.9-6.9m0-5a11.8,11.8,0,1,0,11.8,11.8,11.82,11.82,0,0,0-11.8-11.8Z" transform="translate(-55.1 -73.3)"></path><path class="cls-4" d="M383.5,232.9h-10a7.13,7.13,0,0,0-7.1,7.1v14.4c0,3.4,1.4,6.3,4.8,7l1.5,23.9a5.21,5.21,0,0,0,5.1,5.2h1.3a5.16,5.16,0,0,0,5.2-5.2h0l1.5-23.8c3.4-.7,4.8-3.6,4.8-7V240.1A7.21,7.21,0,0,0,383.5,232.9Z" transform="translate(-55.1 -73.3)"></path><path class="cls-2" d="M383.5,232.9a7.28,7.28,0,0,1,7.1,7.2v14.4c0,3.4-1.4,6.3-4.8,7l-1.5,23.8a5.16,5.16,0,0,1-5.2,5.2h-1.3a5.21,5.21,0,0,1-5.1-5.2l-1.5-23.9c-3.4-.7-4.8-3.6-4.8-7V240a7.13,7.13,0,0,1,7.1-7.1h10m0-4.9H373.4a12,12,0,0,0-12,12v14.4c0,4.6,1.8,8.3,5,10.3l1.3,20.8a10.16,10.16,0,0,0,10,10H379a10.14,10.14,0,0,0,10.2-10l1.3-20.7c3.2-2,5-5.7,5-10.3V240.1a12.06,12.06,0,0,0-12-12.1Z" transform="translate(-55.1 -73.3)"></path><circle class="cls-4" cx="289" cy="125.6" r="11"></circle><path class="cls-2" d="M344.1,188a11,11,0,1,1-11,11,11,11,0,0,1,11-11m0-5A15.9,15.9,0,1,0,360,198.9,15.88,15.88,0,0,0,344.1,183Z" transform="translate(-55.1 -73.3)"></path><path class="cls-4" d="M352.1,219.2h-16a11.29,11.29,0,0,0-11.3,11.3v23c0,5.4,2.3,10.1,7.7,11.1l2.3,38.3a8.41,8.41,0,0,0,8.2,8.4h2.1a8.32,8.32,0,0,0,8.4-8.4h0l2.3-38.1c5.4-1,7.7-5.7,7.7-11.1v-23A11.75,11.75,0,0,0,352.1,219.2Z" transform="translate(-55.1 -73.3)"></path><path class="cls-2" d="M352.1,219.2a11.53,11.53,0,0,1,11.3,11.5v23c0,5.4-2.3,10.1-7.7,11.1l-2.3,38.1a8.32,8.32,0,0,1-8.4,8.4h-2a8.35,8.35,0,0,1-8.2-8.4l-2.3-38.3c-5.4-1-7.7-5.7-7.7-11.1v-23a11.29,11.29,0,0,1,11.3-11.3h16m.1-4.9H336.1a16.2,16.2,0,0,0-16.2,16.2v23c0,6.9,2.9,12.2,7.9,14.7l2.1,34.9A13.21,13.21,0,0,0,343,316.2h2.1a13.12,13.12,0,0,0,13.3-13.1l2.1-34.7c4.9-2.5,7.9-7.8,7.9-14.7v-23a16.5,16.5,0,0,0-16.2-16.4Z" transform="translate(-55.1 -73.3)"></path><circle class="cls-4" cx="245.1" cy="105" r="15.6"></circle><path class="cls-2" d="M300.2,162.7a15.6,15.6,0,1,1-15.6,15.6,15.62,15.62,0,0,1,15.6-15.6m0-4.9a20.5,20.5,0,1,0,20.5,20.5,20.53,20.53,0,0,0-20.5-20.5Z" transform="translate(-55.1 -73.3)"></path><path class="cls-4" d="M311.6,203.3H288.8a16.09,16.09,0,0,0-16.1,16.1v32.7c0,7.7,3.2,14.4,10.9,15.9l3.3,54.4a11.87,11.87,0,0,0,11.6,11.9h3a11.74,11.74,0,0,0,11.9-11.9h0l3.3-54.2c7.7-1.5,10.9-8.2,10.9-15.9V219.6A16.37,16.37,0,0,0,311.6,203.3Z" transform="translate(-55.1 -73.3)"></path><path class="cls-2" d="M311.6,203.3a16.39,16.39,0,0,1,16.1,16.3v32.7c0,7.7-3.2,14.4-10.9,15.9l-3.3,54.2a11.74,11.74,0,0,1-11.9,11.9h-3A11.8,11.8,0,0,1,287,322.4L283.7,268c-7.7-1.5-10.9-8.2-10.9-15.9V219.4a16.09,16.09,0,0,1,16.1-16.1h22.7m.1-4.9H288.8a21,21,0,0,0-21,21v32.7c0,9.6,4.1,16.6,11.1,19.6l3.1,50.9a16.77,16.77,0,0,0,16.6,16.7h3a16.62,16.62,0,0,0,16.8-16.7l3.1-50.6c7-3,11.1-10,11.1-19.6V219.7a21.3,21.3,0,0,0-20.9-21.3Z" transform="translate(-55.1 -73.3)"></path><circle class="cls-2" cx="804.6" cy="433.8" r="80.7"></circle><circle class="cls-1" cx="804.6" cy="433.8" r="74.9"></circle><path class="cls-3" d="M859.7,431.7v73.9L929.1,479s-5.8-19.8-22.5-30.9S871.2,432.1,859.7,431.7Z" transform="translate(-55.1 -73.3)"></path><path class="cls-2" d="M856.9,507.1V429.3a2.9,2.9,0,0,1,5.8,0v73.6L931,475.6a2.85,2.85,0,1,1,2.1,5.3l-72.3,28.9a2.89,2.89,0,0,1-2.7-.3,3,3,0,0,1-1.2-2.4" transform="translate(-55.1 -73.3)"></path><circle class="cls-2" cx="852.9" cy="357.8" r="34.7"></circle><path class="cls-1" d="M908,399.4a31.7,31.7,0,1,0,31.7,31.7A31.71,31.71,0,0,0,908,399.4m0,69.2a37.5,37.5,0,1,1,37.5-37.5A37.51,37.51,0,0,1,908,468.6" transform="translate(-55.1 -73.3)"></path><path class="cls-1" d="M897,440.2l2.9-.9v-5.4H897V429h2.9v-3a10.64,10.64,0,0,1,.6-3.7,8.75,8.75,0,0,1,1.7-2.8,7.5,7.5,0,0,1,2.8-1.8,11.42,11.42,0,0,1,3.9-.6,12.92,12.92,0,0,1,2.9.3,7.89,7.89,0,0,1,2.3.9,8.62,8.62,0,0,1,1.8,1.4c.5.5,1,1.1,1.5,1.7L913,425a11.28,11.28,0,0,0-1.9-1.9,3.7,3.7,0,0,0-2.1-.6,3.29,3.29,0,0,0-2.2.8,3.46,3.46,0,0,0-.7,1.2,4.15,4.15,0,0,0-.3,1.6V429h8.7v4.8h-8.7v5.1h11.5V444H897Z" transform="translate(-55.1 -73.3)"></path><text class="cls-6" transform="translate(305.58 606.62)">Ambers<tspan class="cls-7" x="141.61" y="0">t</tspan><tspan x="156.8" y="0">one’s 5Ms</tspan></text><text class="cls-6" transform="translate(54.52 570.19)">Measure</text><text class="cls-6" transform="translate(722.24 570.19)">Monetise</text><text class="cls-6" transform="translate(391.53 501.19)">Moni<tspan class="cls-7" x="88.65" y="0">t</tspan><tspan x="103.84" y="0">or</tspan></text><text class="cls-6" transform="translate(208.18 70.5)">Mobilise</text><text class="cls-6" transform="translate(559.1 70.5)">Manage</text></svg> 