<?xml version="1.0" encoding="UTF-8"?> <svg xmlns="http://www.w3.org/2000/svg" id="Layer_1" data-name="Layer 1" viewBox="0 0 146.45 70.8"><defs><style>.cls-1{fill:#525859;}</style></defs><path class="cls-1" d="M90.2,102.9a33.58,33.58,0,0,1,31.6.1l21.6-32.8a74.94,74.94,0,0,0-74.8,0Z" transform="translate(-32.8 -60.2)"></path><path class="cls-1" d="M35.9,131H68.3c5.4,0,4.5-3.4,5.2-5.9a31.93,31.93,0,0,1,12.9-19.8L64.7,72.4a70.19,70.19,0,0,0-31.9,55c.1,2,1,3.6,3.1,3.6" transform="translate(-32.8 -60.2)"></path><path class="cls-1" d="M147.3,72.4l-21.7,32.9a35,35,0,0,1,5,4.4l25.9-3.4,1,.4a5,5,0,0,1,2.9,2.8,4.65,4.65,0,0,1-.5,4.1l-.7,1.2-21.3,7.5a25,25,0,0,1,.7,2.6c.7,3.1,1.2,5.9,3.4,5.9h33.4c3,0,4.1-1.9,3.8-4.4-1.5-22.3-13.8-42-31.9-54" transform="translate(-32.8 -60.2)"></path><path class="cls-1" d="M156.3,111.7l-46.8,16.5a5,5,0,0,1-1.3.5,6.23,6.23,0,0,1-7.5-4.4,5.9,5.9,0,0,1,4.5-7.2,6.75,6.75,0,0,1,1.4-.2l49.3-6.5c.1,0,1,.3.4,1.3" transform="translate(-32.8 -60.2)"></path></svg> 