<?xml version="1.0" encoding="UTF-8"?> <svg xmlns="http://www.w3.org/2000/svg" id="Layer_1" data-name="Layer 1" viewBox="0 0 96.3 94.7"><defs><style>.cls-1{fill:#525859;}</style></defs><path class="cls-1" d="M1.1,28.6a1.56,1.56,0,0,0,1.6-.3l6.7-6.7,8.5,8.5a1.44,1.44,0,0,0,1,.4,1.29,1.29,0,0,0,1-.4L30.4,19.6a1.29,1.29,0,0,0,.4-1,1.54,1.54,0,0,0-.4-1L21.9,9.1l6.6-6.6A1.52,1.52,0,0,0,28.8.9,1.53,1.53,0,0,0,27.5,0H1.6A1.54,1.54,0,0,0,.1,1.5V27.3a1.52,1.52,0,0,0,1,1.3"></path><path class="cls-1" d="M94.8,0H69a1.41,1.41,0,0,0-1.3.9A1.56,1.56,0,0,0,68,2.5l6.7,6.7-8.5,8.5a1.45,1.45,0,0,0,0,2.05l0,.05L76.7,30.3a1.29,1.29,0,0,0,1,.4,1.54,1.54,0,0,0,1-.4l8.5-8.5,6.6,6.6a1.47,1.47,0,0,0,2.5-1V1.5A1.54,1.54,0,0,0,94.8,0"></path><path class="cls-1" d="M95.4,66.1a1.56,1.56,0,0,0-1.6.3l-6.7,6.7-8.5-8.5a1.45,1.45,0,0,0-2,0l0,0L66.1,75a1.29,1.29,0,0,0-.4,1,1.54,1.54,0,0,0,.4,1l8.5,8.5L68,92.1a1.47,1.47,0,0,0,1,2.5H94.8a1.54,1.54,0,0,0,1.5-1.5V67.3a1.39,1.39,0,0,0-.9-1.2"></path><path class="cls-1" d="M1.6,94.7H27.4a1.41,1.41,0,0,0,1.3-.9,1.56,1.56,0,0,0-.3-1.6l-6.7-6.7L30.2,77a1.45,1.45,0,0,0,.05-2l-.05,0L19.7,64.4a1.66,1.66,0,0,0-2.1,0L9.1,72.9,2.5,66.3A1.52,1.52,0,0,0,.9,66,1.53,1.53,0,0,0,0,67.3V93.1a1.81,1.81,0,0,0,1.6,1.6"></path></svg> 