<?xml version="1.0" encoding="UTF-8"?> <!-- Generator: Adobe Illustrator 24.1.2, SVG Export Plug-In . SVG Version: 6.00 Build 0) --> <svg xmlns="http://www.w3.org/2000/svg" xmlns:xlink="http://www.w3.org/1999/xlink" version="1.1" id="Layer_1" x="0px" y="0px" viewBox="0 0 425.2 425.2" style="enable-background:new 0 0 425.2 425.2;" xml:space="preserve"> <style type="text/css"> .st0{fill:#FFC630;} .st1{fill:#FFFFFF;} </style> <g> <g> <path class="st0" d="M213.2,353.8H213c-32.6,0-64.4-11.2-89.6-31.6l10.4-12.8c22.3,18,50.4,27.9,79.3,27.9h0.2V353.8z M227.1,353.2l-1.6-16.4c28.7-2.8,55.8-15.5,76.2-35.8l11.6,11.7C290.1,335.6,259.5,350,227.1,353.2z M113,313 c-23.4-23-38.1-53.5-41.3-85.8l16.4-1.7c2.9,28.6,15.8,55.5,36.5,75.8L113,313z M322.7,302.5L310,291.9 c18.4-22.2,28.5-50.2,28.5-78.9l16.5-0.1v0.1C355,245.6,343.5,277.3,322.7,302.5z M87.5,213.3H71V213c0-32.6,11.5-64.4,32.4-89.6 l12.7,10.5c-18.5,22.2-28.6,50.3-28.6,79V213.3z M337.9,200.6c-2.8-28.6-15.8-55.5-36.4-75.8l11.6-11.7c23.4,23,38,53.5,41.2,85.9 L337.9,200.6z M124.4,124.9l-11.6-11.7C136,90.3,166.6,76,199.1,72.8l1.6,16.4C172,92,144.9,104.7,124.4,124.9z M292.4,116.6 c-22.3-18.1-50.5-28-79.4-28l-0.1-16.5h0.1c32.6,0,64.5,11.3,89.7,31.7L292.4,116.6z"></path> <path class="st0" d="M213,379.5c-4.8,0-9.6-0.2-14.3-0.6l1.4-16.4c4.3,0.4,8.6,0.5,12.9,0.5c26.6,0,52.8-6.9,75.7-20.1l8.2,14.3 C271.5,371.8,242.5,379.5,213,379.5z M184.3,377.1c-33.9-5.8-64.9-21.7-89.5-45.8l11.5-11.7c22.2,21.8,50.1,36.1,80.7,41.3 L184.3,377.1z M309.2,349.5l-9.4-13.5c25.7-17.8,44.9-42.6,55.5-71.6l15.5,5.7C358.9,302.2,337.6,329.7,309.2,349.5z M84.9,320.6 c-22.5-26.3-36-58.4-39.1-92.6l16.4-1.5c2.8,30.9,14.9,59.7,35.2,83.4L84.9,320.6z M375.2,256.1l-15.9-4.3 c3.4-12.6,5.1-25.6,5.1-38.8c0-17.8-3.1-35.1-9.2-51.6l15.4-5.7c6.8,18.3,10.2,37.6,10.2,57.3C380.9,227.6,379,242.1,375.2,256.1z M61.6,213.4H45.1v-0.3c0-34.6,10.6-67.8,30.5-95.9l13.4,9.5c-18,25.3-27.5,55.2-27.5,86.2L61.6,213.4z M350.1,149.3 c-13.3-28-34.6-50.9-61.7-66.4l8.2-14.3c30,17.1,53.7,42.6,68.4,73.6L350.1,149.3z M97.2,116.4l-12.5-10.7 c22.3-26.3,51.7-44.8,85-53.6l4.2,15.9C143.8,76,117.3,92.7,97.2,116.4z M276.7,76.9C256.7,67.6,235.3,63,213,63 c-8.8,0-17.7,0.8-26.3,2.3L183.9,49c9.5-1.7,19.3-2.5,29.1-2.5c24.6,0,48.4,5.2,70.6,15.4L276.7,76.9z"></path> </g> <g> <g> <g> <circle class="st1" cx="285.3" cy="199.1" r="3.4"></circle> </g> <g> <path class="st1" d="M287.8,204h-4.9c-1.9,0-3.5,1.5-3.5,3.5v7c0,1.7,0.7,3.1,2.3,3.4l0.7,11.7c0,1.4,1.1,2.6,2.5,2.6h0.6 c1.4,0,2.6-1.1,2.6-2.6l0,0l0.7-11.7c1.7-0.3,2.3-1.8,2.3-3.4v-7C291.3,205.6,289.7,204.1,287.8,204z"></path> </g> </g> <g> <g> <circle class="st1" cx="260.1" cy="189.8" r="5.9"></circle> </g> <g> <path class="st1" d="M264.5,199h-8.6c-3.4,0-6.1,2.7-6.1,6.1v12.4c0,2.9,1.2,5.4,4.1,6l1.3,20.6c0,2.4,2,4.5,4.4,4.5h1.1 c2.5,0,4.5-2,4.5-4.5l0,0l1.3-20.5c2.9-0.6,4.1-3.1,4.1-6v-12.4C270.6,201.8,267.8,199.1,264.5,199z"></path> </g> </g> <g> <g> <circle class="st1" cx="224.2" cy="171.6" r="9.5"></circle> </g> <g> <path class="st1" d="M231.1,187.2h-13.8c-5.4,0-9.8,4.4-9.8,9.8v19.8c0,4.7,2,8.7,6.6,9.6l2,33c0,3.9,3.2,7.2,7.1,7.2h1.8 c4.1,0,7.2-3.2,7.2-7.2l0,0l2-32.8c4.7-0.9,6.6-5,6.6-9.6v-19.8C240.8,191.7,236.5,187.4,231.1,187.2z"></path> </g> </g> <g> <g> <circle class="st1" cx="175" cy="153.8" r="13.4"></circle> </g> <g> <path class="st1" d="M184.8,173.5h-19.6c-7.7,0-13.9,6.2-13.9,13.9v28.2c0,6.6,2.8,12.4,9.4,13.7l2.9,46.9 c0,5.5,4.5,10.2,10,10.2h2.6c5.8,0,10.2-4.5,10.2-10.2l0,0l2.9-46.7c6.6-1.3,9.4-7,9.4-13.7v-28.2 C198.7,179.9,192.5,173.7,184.8,173.5z"></path> </g> </g> </g> </g> </svg> 