<?xml version="1.0" encoding="UTF-8"?> <!-- Generator: Adobe Illustrator 24.1.2, SVG Export Plug-In . SVG Version: 6.00 Build 0) --> <svg xmlns="http://www.w3.org/2000/svg" xmlns:xlink="http://www.w3.org/1999/xlink" version="1.1" id="Layer_1" x="0px" y="0px" viewBox="0 0 145 145" style="enable-background:new 0 0 145 145;" xml:space="preserve"> <style type="text/css"> .st0{fill:#FFFFFF;} .st1{fill:#515758;} </style> <g> <g> <circle class="st0" cx="72.5" cy="72.5" r="72.5"></circle> </g> <g> <path class="st1" d="M35.3,89.1c14.7,14.8,38.7,14.8,53.4,0s14.8-38.8,0-53.5s-38.7-14.8-53.4,0S20.5,74.3,35.3,89.1z M41.7,42 C53,30.7,71.2,30.7,82.4,42s11.2,29.4,0,40.7s-29.4,11.2-40.7,0S30.5,53.2,41.7,42z"></path> <path class="st1" d="M46.8,84.4V57.7H36.1V70C39.3,75.9,42.5,80.9,46.8,84.4z"></path> <path class="st1" d="M59.6,88.3V69.5H50v16C53.2,87,56.4,88,59.6,88.3z"></path> <path class="st1" d="M87.5,62H76.7v21.9c4.3-3.1,8.6-7.4,10.7-12.5V62z"></path> <path class="st1" d="M73.5,47h-9.6v41.3c3.2-0.1,6.4-1,9.6-2.5V47z"></path> <path class="st1" d="M109.6,120.2l-24-24l10.1-10.1l24,24c0.9,0.9,0.9,2.4,0,3.2l-6.9,6.9C112,121.1,110.6,121.1,109.6,120.2z"></path> </g> </g> </svg> 