<?xml version="1.0" encoding="UTF-8"?> <!-- Generator: Adobe Illustrator 24.1.2, SVG Export Plug-In . SVG Version: 6.00 Build 0) --> <svg xmlns="http://www.w3.org/2000/svg" xmlns:xlink="http://www.w3.org/1999/xlink" version="1.1" id="Layer_1" x="0px" y="0px" viewBox="0 0 145 145" style="enable-background:new 0 0 145 145;" xml:space="preserve"> <style type="text/css"> .st0{fill:#FFFFFF;} .st1{fill:#515758;} </style> <g> <circle class="st0" cx="72.5" cy="72.5" r="72.5"></circle> <g> <polygon class="st1" points="112.1,55.9 112.1,50.4 101.3,50.4 101.3,55.9 102.3,55.9 "></polygon> <polygon class="st1" points="93.5,44.5 87.3,48.3 92,55.9 100.5,55.9 "></polygon> <path class="st1" d="M82.7,89h32.2c0.5,0,0.9,0.4,0.9,0.9v17h9.1l0-17c0-5.5-4.5-10-10-10H82.9c0.3,1.2,0.4,2.5,0.4,3.8 C83.3,85.3,83.1,87.1,82.7,89z"></path> <path class="st1" d="M29.2,89.9c0-0.5,0.4-0.9,0.9-0.9h3c-0.4-1.9-0.6-3.6-0.6-5.3c0-1.3,0.1-2.6,0.4-3.8h-2.8 c-5.5,0-10,4.5-10,10v17h9.1V89.9z"></path> <path class="st1" d="M69.3,82.4C69.3,82.4,69.2,82.4,69.3,82.4L69.3,82.4l-0.1-0.1c-0.2-0.1-1.3-0.4-2.5-0.4l-0.1,0h0h0 c-1,0-1.9,0.1-2.1,0.2c-0.5,0.1-0.9,0.1-1.4,0.1c-1.9,0-3.7-0.8-5-2.1c-1.3,1.3-3.1,2.1-5,2.1c-0.5,0-0.9,0-1.4-0.1l0,0l0,0 c-0.1,0-0.2,0-0.4-0.1c-0.4,0-1-0.1-1.6-0.1h-0.1c-1,0-1.9,0.2-2.3,0.3c-0.2,0.1-0.3,0.1-0.4,0.2c0,0,0,0,0,0 c-0.1,0.2-0.2,0.7-0.2,1.2c0,1.1,0.3,2.9,1.1,5.3h20.8c0.8-2.4,1.1-4.2,1.1-5.3C69.4,83.1,69.4,82.6,69.3,82.4z"></path> <path class="st1" d="M46.2,77.2c0.7,0.9,1.8,1.4,2.9,1.4c0.8,0,1.5-0.2,2.2-0.7c1.6-1.2,1.9-3.5,0.7-5.1c-5.5-7.2-7-12.5-7-16.3 c0-3.5,1.2-5.8,2.6-7.5l0.8,0.4c-1.6,2.1-2.5,4.4-2.5,7.1c0,4.5,2.3,9.8,6.8,15.7c0.7,1,1.1,2.2,0.9,3.4c-0.2,1.2-0.8,2.3-1.7,3 c-0.8,0.6-1.8,0.9-2.8,0.9c-1.4,0-2.8-0.7-3.6-1.8c-1.7-2.2-3.2-4.4-4.4-6.6c-0.4,0.2-0.7,0.4-1.1,0.6c-1.7,1.1-3.3,2.7-4.4,4.7 c-1.1,2.1-1.6,4.5-1.6,7.1c0,5.5,2.1,11.9,6.9,20.5c1,1.8,2.9,2.9,4.9,2.9c0.9,0,1.8-0.2,2.7-0.7c2.7-1.5,3.7-4.9,2.2-7.6 C46.3,91,45,86,45.1,83.6c0-1.1,0.2-1.6,0.3-1.9c0.2-0.3,0.3-0.5,1.1-0.8c0.7-0.3,1.8-0.4,2.9-0.4c0.7,0,1.4,0.1,1.8,0.1 c0.2,0,0.4,0.1,0.5,0.1c0,0,0.1,0,0.1,0v0c0,0,0,0,0,0l0,0c2.5,0.5,5-0.8,6.1-3c1.1,2.2,3.6,3.5,6.1,3l0,0c0,0,0,0,0,0 c0.2,0,1.2-0.2,2.4-0.2c1.4,0,3,0.3,3.5,0.7c0.3,0.2,0.4,0.3,0.5,0.5c0.1,0.2,0.3,0.8,0.3,1.9c0,2.4-1.2,7.4-5.5,15.1 c-1.5,2.7-0.5,6.1,2.2,7.6c0.9,0.5,1.8,0.7,2.7,0.7c2,0,3.9-1,4.9-2.9c4.7-8.6,6.8-15,6.9-20.5c0-2.6-0.5-5-1.6-7.1 c-1.3-2.6-3.4-4.3-5.5-5.4c-1.2,2.2-2.7,4.4-4.4,6.6c-0.9,1.1-2.2,1.8-3.6,1.8c-1,0-2-0.3-2.8-0.9c-1-0.7-1.6-1.8-1.7-3 c-0.2-1.2,0.2-2.4,0.9-3.4c4.5-5.9,6.8-11.2,6.8-15.7c0-2.7-0.8-5-2.5-7.1l0.8-0.4c1.3,1.7,2.5,4,2.6,7.5c0,3.7-1.5,9.1-7,16.3 c-1.2,1.6-0.9,3.9,0.7,5.1c0.7,0.5,1.4,0.7,2.2,0.7c1.1,0,2.2-0.5,2.9-1.4c6.2-8,8.5-14.9,8.5-20.7c0-4.6-1.5-8.3-3.3-10.9 c-0.3-0.5-0.7-1-1-1.4c-2.1-2.6-4.2-3.8-4.5-4v0c-0.1-0.1-0.2-0.1-0.3-0.2c-0.3,5.1-4.1,9.3-9.1,10.2l2.3,16.9l-4.3,5.5l-4.3-5.5 l2.3-16.9c-4.9-0.9-8.8-5.1-9.1-10.2c-0.1,0.1-0.2,0.1-0.3,0.2v0c-0.3,0.2-2.3,1.4-4.5,4c-0.3,0.4-0.7,0.9-1,1.4 c-1.8,2.6-3.3,6.3-3.3,10.9C37.7,62.3,40,69.2,46.2,77.2z"></path> <circle class="st1" cx="57.9" cy="39.4" r="10.2"></circle> <polygon class="st1" points="91.2,58 91.2,77.3 113.5,77.3 113.5,58 119.1,65.9 119.9,65.4 119.9,65.4 113.7,56.8 102.3,56.8 90.9,56.8 84.8,65.4 85.5,65.9 "></polygon> </g> </g> </svg> 