<?xml version="1.0" encoding="UTF-8"?> <!-- Generator: Adobe Illustrator 24.1.2, SVG Export Plug-In . SVG Version: 6.00 Build 0) --> <svg xmlns="http://www.w3.org/2000/svg" xmlns:xlink="http://www.w3.org/1999/xlink" version="1.1" id="Layer_1" x="0px" y="0px" viewBox="0 0 145 145" style="enable-background:new 0 0 145 145;" xml:space="preserve"> <style type="text/css"> .st0{fill:#FFFFFF;} .st1{fill:#515758;} </style> <g> <g> <circle class="st0" cx="72.5" cy="72.5" r="72.5"></circle> </g> <path class="st1" d="M71.8,32.7c0.6,0,1.1-0.5,1.1-1.1V21.5c0-0.6-0.5-1.1-1.1-1.1c-0.6,0-1.1,0.5-1.1,1.1v10.1 C70.6,32.2,71.1,32.7,71.8,32.7"></path> <path class="st1" d="M58.4,34.1c0.2,0.5,0.6,0.8,1.1,0.8c0.1,0,0.3,0,0.4-0.1c0.6-0.2,0.9-0.9,0.7-1.5l-3.5-9.5 c-0.2-0.6-0.9-0.9-1.5-0.7C55,23.4,54.7,24,55,24.6L58.4,34.1z"></path> <path class="st1" d="M47.8,40.7c0.2,0.3,0.5,0.4,0.9,0.4c0.3,0,0.5-0.1,0.7-0.3c0.5-0.4,0.5-1.1,0.1-1.6l-6.5-7.7 C42.7,31,42,31,41.5,31.4c-0.5,0.4-0.5,1.1-0.1,1.6L47.8,40.7z"></path> <path class="st1" d="M31.4,45.4l8.7,5c0.2,0.1,0.4,0.2,0.6,0.2c0.4,0,0.8-0.2,1-0.6c0.3-0.5,0.1-1.2-0.4-1.6l-8.7-5 c-0.5-0.3-1.2-0.1-1.6,0.4C30.6,44.4,30.8,45.1,31.4,45.4"></path> <path class="st1" d="M117.2,74.3l-9.9-1.8c-0.6-0.1-1.2,0.3-1.3,0.9c-0.1,0.6,0.3,1.2,0.9,1.3l9.9,1.8c0.1,0,0.1,0,0.2,0 c0.5,0,1-0.4,1.1-0.9C118.3,75,117.8,74.4,117.2,74.3"></path> <path class="st1" d="M106,61.4c0.1,0.6,0.6,0.9,1.1,0.9c0.1,0,0.1,0,0.2,0l9.9-1.8c0.6-0.1,1-0.7,0.9-1.3c-0.1-0.6-0.7-1-1.3-0.9 l-9.9,1.8C106.3,60.2,105.8,60.8,106,61.4"></path> <path class="st1" d="M112.5,43.9c-0.3-0.5-1-0.7-1.6-0.4l-8.7,5c-0.5,0.3-0.7,1-0.4,1.6c0.2,0.4,0.6,0.6,1,0.6 c0.2,0,0.4-0.1,0.6-0.2l8.7-5C112.7,45.1,112.9,44.4,112.5,43.9"></path> <path class="st1" d="M94.8,41.1c0.3,0,0.6-0.1,0.9-0.4l6.5-7.7c0.4-0.5,0.3-1.2-0.1-1.6c-0.5-0.4-1.2-0.3-1.6,0.1l-6.5,7.7 c-0.4,0.5-0.3,1.2,0.1,1.6C94.3,41,94.5,41.1,94.8,41.1"></path> <path class="st1" d="M83.6,34.8c0.1,0,0.3,0.1,0.4,0.1c0.5,0,0.9-0.3,1.1-0.8l3.5-9.5c0.2-0.6-0.1-1.2-0.7-1.5 c-0.6-0.2-1.2,0.1-1.5,0.7l-3.5,9.5C82.7,33.9,83,34.6,83.6,34.8"></path> <path class="st1" d="M71.8,100.1c-8.6,0-16.3-3.5-21.9-9.2v21.1c0,6,4.9,10.9,10.9,10.9h22c6,0,10.9-4.9,10.9-10.9V90.8 C88.1,96.5,80.3,100.1,71.8,100.1"></path> <path class="st1" d="M76.5,80.4C76.4,80.5,76.4,80.5,76.5,80.4c-1.5,0.6-3.1,1-4.7,1c-6.6,0-12-5.4-12-12c0-6.6,5.4-12,12-12 s12,5.4,12,12C83.7,74.4,80.7,78.6,76.5,80.4 M71.8,41.1c-15.6,0-28.4,12.7-28.4,28.4c0,15.6,12.7,28.4,28.4,28.4 s28.4-12.7,28.4-28.4C100.1,53.8,87.4,41.1,71.8,41.1"></path> <path class="st1" d="M71.8,74.8c-3,0-5.4-2.4-5.4-5.4c0-3,2.4-5.4,5.4-5.4c3,0,5.4,2.4,5.4,5.4C77.1,72.4,74.7,74.8,71.8,74.8 M71.8,59.7c-5.4,0-9.7,4.4-9.7,9.7c0,5.3,4.4,9.7,9.7,9.7c5.4,0,9.7-4.4,9.7-9.7C81.5,64.1,77.1,59.7,71.8,59.7"></path> <path class="st1" d="M46.7,97.6c-0.1,0.5-0.6,0.8-1.1,0.8c-0.1,0-0.2,0-0.3-0.1C36,95.5,29.3,87.1,28.7,77.3 c-0.1-2.2,0-4.3,0.5-6.4c-1.5-0.9-2.6-2.6-2.6-4.5c0-2.9,2.3-5.2,5.2-5.2c2.9,0,5.2,2.3,5.2,5.2c0,2.9-2.3,5.2-5.2,5.2 c-0.2,0-0.3,0-0.4,0c-0.4,1.8-0.5,3.7-0.4,5.6c0.5,8.8,6.6,16.5,15.1,19C46.6,96.4,46.9,97,46.7,97.6"></path> </g> </svg> 