<?xml version="1.0" encoding="UTF-8"?> <!-- Generator: Adobe Illustrator 24.1.2, SVG Export Plug-In . SVG Version: 6.00 Build 0) --> <svg xmlns="http://www.w3.org/2000/svg" xmlns:xlink="http://www.w3.org/1999/xlink" version="1.1" id="Layer_1" x="0px" y="0px" viewBox="0 0 145 145" style="enable-background:new 0 0 145 145;" xml:space="preserve"> <style type="text/css"> .st0{fill:#FFFFFF;} .st1{fill:#515758;} </style> <g> <circle class="st0" cx="72.5" cy="72.5" r="72.5"></circle> <g transform="translate(0,-1020.3622)"> <path class="st1" d="M82.2,1071.7c-1.8,0-3.4,1.3-3.8,3.1L77,1083c-1.6,1.2-3.1,2.6-4.3,4.1c2.6,2,4.7,4.3,6.4,6.9 c3.6-4.7,9.2-7.4,15.2-7.4c10.5,0,19.1,8.2,19.1,18.4c0,10.2-8.5,18.4-19.1,18.4c0,0,0,0,0,0c-3.8,0-7.4-1.1-10.5-3.1 c-0.3,1.4-0.6,2.7-1.1,4c-0.6,1.7-1.3,3.3-2.1,4.8c4.1,2.2,8.8,3.5,13.8,3.5c12.3,0,23.2-7.6,27.1-18.9 c3.9-11.3-0.1-23.7-9.9-30.8l-1.4-8.1c-0.3-1.8-1.9-3.2-3.8-3.2H82.2z M94.3,1076.5c1.1,0,1.9,0.8,1.9,1.9c0,0,0,0,0,0.1v1.9 c0,1.1-0.8,1.9-1.9,1.9c-1.1,0-1.9-0.8-1.9-1.9c0,0,0,0,0-0.1v-1.9C92.4,1077.3,93.3,1076.5,94.3,1076.5z"></path> <path class="st1" d="M40.3,1081.2c-1.8,0-3.4,1.3-3.8,3.1l-1.5,8.2c-9.8,7.2-13.7,19.6-9.8,30.8c3.9,11.2,14.8,18.8,27.1,18.8 c12.3,0,23.2-7.6,27.1-18.9c3.9-11.3-0.1-23.7-9.9-30.8l-1.4-8.1c-0.3-1.8-1.9-3.2-3.8-3.2L40.3,1081.2z M52.4,1085.8 c1.1,0,1.9,0.8,1.9,1.9c0,0,0,0,0,0.1v1.9c0,1.1-0.8,1.9-1.9,1.9s-1.9-0.8-1.9-1.9c0,0,0,0,0-0.1v-1.9 C50.5,1086.7,51.3,1085.8,52.4,1085.8z M52.4,1096.2c10.5,0,19.1,8.2,19.1,18.4c0,10.2-8.5,18.4-19.1,18.4c0,0,0,0,0,0 c-10.5,0-19.1-8.2-19.1-18.4c0,0,0,0,0,0C33.4,1104.4,41.9,1096.2,52.4,1096.2z"></path> <path class="st1" d="M70.3,1042c-3.7,0-6.7,3-6.7,6.7c0,0.2,0,0.4,0.1,0.6c-1.9,1-3.6,2.2-5.2,3.7c-0.8-0.3-1.6-0.5-2.5-0.5 c-3.7,0-6.7,3-6.7,6.7c0,2.1,1,4,2.6,5.2c-0.5,1.9-0.7,3.9-0.6,5.9c-0.7,0.1-1.3,0.3-1.9,0.6v0c0,0,0,0,0,0c-1.8,1-2.9,2.9-2.9,5 v2.8h3.8v-2.8c0-0.7,0.4-1.3,1-1.7c0.6-0.3,1.3-0.3,1.9,0c0,0,0,0,0,0c0.6,0.4,0.9,1,0.9,1.7c0,0,0,0,0,0v2.8h3.8v-2.8 c0-2-1-3.9-2.8-5c-0.1-1.7,0-3.5,0.3-5.2c0.2,0,0.4,0.1,0.6,0.1c3.7,0,6.7-3,6.7-6.7c0-1.4-0.4-2.7-1.2-3.8c1.1-1,2.3-1.8,3.7-2.5 c1.2,1.5,3.1,2.5,5.1,2.5c2.9,0,5.4-1.9,6.3-4.5c1.1,0.1,2.2,0.4,3.3,0.7c0,0.3-0.1,0.6-0.1,0.9c0,3.7,3,6.7,6.7,6.7 c1.1,0,2.1-0.3,3-0.7c0.6,0.8,1.1,1.7,1.6,2.5c-1.6,1.1-2.7,2.9-2.6,4.8v2.8h3.8v-2.8c0-0.7,0.4-1.3,1-1.7c0.6-0.3,1.3-0.3,1.9,0 c0,0,0,0,0,0c0.6,0.4,0.9,1,0.9,1.7c0,0,0,0,0,0v2.8h3.8v-2.8c0-2.1-1-4-2.8-5c-0.7-0.4-1.4-0.6-2.1-0.7c-0.7-1.6-1.6-3-2.6-4.4 c0.6-1,0.9-2.1,0.9-3.3c0-3.7-3-6.7-6.7-6.7c-1.9,0-3.7,0.9-4.9,2.2c-1.6-0.5-3.2-0.9-4.9-1.1C75.9,1044.1,73.3,1042,70.3,1042 L70.3,1042z M70.3,1045.9c1.6,0,2.9,1.3,2.9,2.9c0,1.6-1.3,2.9-2.9,2.9s-2.9-1.3-2.9-2.9C67.4,1047.1,68.7,1045.9,70.3,1045.9z M86.5,1049.7c1.6,0,2.9,1.3,2.9,2.9c0,1.6-1.3,2.9-2.9,2.9c-1.6,0-2.9-1.3-2.9-2.9C83.6,1050.9,84.9,1049.7,86.5,1049.7z M56,1056.3c1.6,0,2.9,1.3,2.9,2.9c0,1.6-1.3,2.9-2.9,2.9s-2.9-1.3-2.9-2.9C53.1,1057.6,54.4,1056.3,56,1056.3z"></path> </g> </g> </svg> 