<?xml version="1.0" encoding="UTF-8"?> <!-- Generator: Adobe Illustrator 24.1.2, SVG Export Plug-In . SVG Version: 6.00 Build 0) --> <svg xmlns="http://www.w3.org/2000/svg" xmlns:xlink="http://www.w3.org/1999/xlink" version="1.1" id="Layer_1" x="0px" y="0px" viewBox="0 0 220 220" style="enable-background:new 0 0 220 220;" xml:space="preserve"> <style type="text/css"> .st0{fill:#525758;} .st1{fill:#FDC533;} </style> <g> <path class="st0" d="M149.6,47.1c-6.2-16.4-22.2-27.4-39.9-27.4c-17.9,0-33.9,11.2-40,27.9v34.3l-1.1,0c-10.9-0.1-19.9-9-19.9-19.9 c0-8.8,5.9-16.6,14.4-19.1c7.8-18.8,26-31,46.6-31c20.6,0,38.8,12.2,46.6,31c8.4,2.5,14.2,10.3,14.2,19c0,10.8-8.9,19.8-19.9,19.9 l-1.1,0V47.1z"></path> <path class="st0" d="M109.6,27.6C90.5,27.6,75,43,75,61.9c0,3.1,0.4,6,1.2,8.9c3,2.2,6.5,4.1,10.3,5.5c6.6,2.5,22.6,2.2,23.1,2.2 c6.6,0,11.9,5.3,11.9,11.8c0,1.5-0.3,2.9-0.8,4.1c13.7-4.6,23.5-17.4,23.5-32.5C144.2,43,128.7,27.6,109.6,27.6z"></path> <path class="st0" d="M108.4,99.2h-8.3c-4.7,0-8.5-3.8-8.5-8.5l0,0c0-4.7,3.8-8.5,8.5-8.5h8.3c4.7,0,8.5,3.8,8.5,8.5l0,0 C116.9,95.3,113.1,99.2,108.4,99.2z"></path> <path class="st0" d="M172.1,161.2C172.1,161.2,172.1,161.2,172.1,161.2C172.2,161.2,172.2,161.2,172.1,161.2l-2-27.1 c0-16.3-11.8-29.6-26.4-29.6h-0.1H75.5h-0.1c-14.6,0-26.4,13.2-26.4,29.6l-2,27.1c0,0,0,0,0,0c0,0,0,0,0,0l-3.4,46.2h48h35.8h48 L172.1,161.2z"></path> </g> <g> <path class="st1" d="M133.7,175.5l2.9,1.7l0.1-0.2c4.1-5.7,6.3-12.4,6.3-19.5c0.1-9.1-3.3-17.6-9.7-24c-6.3-6.4-14.8-10-23.8-10 c-18.6,0-33.8,15.2-33.8,33.8s15.1,33.7,33.7,33.7c3.3,0,6.3-0.4,9.3-1.3l0.2-0.1l-0.7-3.3l-0.3,0.1c-2.8,0.8-5.8,1.3-8.7,1.3 c-16.7,0-30.3-13.6-30.3-30.3s13.6-30.3,30.3-30.3s30.3,13.6,30.3,30.3c0,6.4-2,12.6-5.8,18V175.5z"></path> <path class="st1" d="M137.9,129.2c-7.6-7.7-17.8-11.9-28.5-11.9c-3.8,0-7.3,0.5-10.8,1.5l-0.2,0.1l0.6,3.1l0.3-0.1 c3.3-0.9,6.8-1.4,10.1-1.4c20.5,0,37.2,16.6,37.2,37.2s-16.7,37.1-37.2,37.1c-20.5-0.1-37.2-16.8-37.2-37.2 c0-7.8,2.3-15.1,6.8-21.5l0.2-0.2l-2.8-1.6l-0.1,0.2c-4.8,6.8-7.3,14.8-7.3,23.2c0,22.1,18,40.2,40.2,40.2 c22.2,0,40.3-18,40.3-40.2C149.6,146.9,145.5,136.8,137.9,129.2z"></path> <path class="st1" d="M109.3,174.3L109.3,174.3c1-0.8,11.9-11.1,13.9-14.9c0,0,5.5-6.8,0-11.8c0,0-8-6.8-13.9,2.4 c-5.9-9.2-13.9-2.4-13.9-2.4c-5.5,5,0,11.8,0,11.8C97.5,163.1,108,173,109.3,174.3z"></path> </g> </svg> 