<?xml version="1.0" encoding="UTF-8"?> <!-- Generator: Adobe Illustrator 24.1.2, SVG Export Plug-In . SVG Version: 6.00 Build 0) --> <svg xmlns="http://www.w3.org/2000/svg" xmlns:xlink="http://www.w3.org/1999/xlink" version="1.1" id="Layer_1" x="0px" y="0px" viewBox="0 0 220 220" style="enable-background:new 0 0 220 220;" xml:space="preserve"> <style type="text/css"> .st0{fill:#525758;} .st1{fill:#FDC533;} </style> <g> <path class="st0" d="M109.9,37.9c-21,0-37.9,17.1-37.9,37.9c0,21,17.1,37.9,37.9,37.9c21,0,37.9-17.1,37.9-37.9 S131,37.9,109.9,37.9z M173.1,67c-2.8-2.6-3.9-6.7-2.4-10.2l1.3-3.2c2.2-5-0.6-10.6-5.8-12.1l-3.5-0.9c-3.7-1.1-6.3-4.3-6.5-8.2 v-3.7c-0.2-5.4-5.2-9.3-10.4-8.4l-3.5,0.6c-3.9,0.6-7.6-1.1-9.3-4.5l-1.7-3c-2.6-4.8-8.7-6.1-13-3l-2.8,1.9c-3,2.2-7.4,2.2-10.4,0 l-2.8-2.2c-4.3-3.2-10.6-1.7-13.2,3l-1.7,3c-1.9,3.5-5.6,5.2-9.5,4.5L74.5,20c-5.4-0.9-10.2,3-10.6,8.4l-0.2,3.5 c-0.2,3.9-2.8,7.1-6.5,8.2l-3.5,1.1c-5.2,1.5-8,7.1-5.8,12.1l1.3,3.2c1.5,3.5,0.4,7.6-2.4,10.2l-2.6,2.4c-4.1,3.5-4.1,10,0,13.4 l2.6,2.4c2.8,2.6,3.9,6.7,2.4,10.2l-1.3,3.2c-2.2,5,0.6,10.6,5.8,12.1l3.5,0.9c3.7,1.1,6.3,4.3,6.5,8.2l0.2,3.5 c0.2,5.4,5.2,9.3,10.4,8.4l3.5-0.6c3.9-0.6,7.6,1.1,9.3,4.5l1.7,3c2.6,4.8,8.7,6.1,13,3l2.8-1.9c3-2.2,7.4-2.2,10.4,0l2.8,2.2 c4.3,3.2,10.6,1.7,13.2-3l1.7-3c1.9-3.5,5.6-5.2,9.5-4.5l3.5,0.6c5.4,0.9,10.2-3,10.6-8.4l0.2-3.5c0.2-3.9,2.8-7.1,6.5-8.2l3.5-0.9 c5.2-1.5,8-7.1,5.8-12.1l-1.3-3.2c-1.5-3.5-0.4-7.6,2.4-10.2l2.6-2.4c4.1-3.5,4.1-10,0-13.4L173.1,67z M109.9,119.8 c-24.2,0-43.7-19.7-43.7-43.7c0-24.2,19.7-43.7,43.7-43.7c24.2,0,43.7,19.7,43.7,43.7S134.2,119.8,109.9,119.8z M42,195.9l21.2-53 c2.8,1.3,6.1,2.2,9.3,2.2c1.3,0,2.6-0.2,3.9-0.4h0.4l0.2,0.4c3.7,6.9,11.2,11.2,19.5,11.2c2.2,0,4.5-0.4,6.5-1.1l-22.3,56 c-0.6,1.7-3,1.9-3.9,0.2l-10.6-18.6c-0.4-0.6-1.1-0.9-1.7-0.6l-19.9,6.3C42.9,199.2,41.4,197.5,42,195.9z M139.2,211.9l-22.5-56.2 c2.2,0.6,4.3,1.1,6.5,1.1c8.2,0,15.6-4.3,19.5-11.5l0.2-0.4h0.4c1.3,0.2,2.6,0.4,3.9,0.4c3.5,0,6.5-0.9,9.5-2.2l21.2,53.4 c0.6,1.7-0.9,3.5-2.6,2.8l-19.9-6.3c-0.6-0.2-1.3,0-1.7,0.6L143,212.4C142.2,213.7,139.8,213.5,139.2,211.9z"></path> <path class="st1" d="M133.6,68.1c-0.4-1.1-1.4-1.9-2.5-1.9L117.3,66l-4.5-13c-0.4-1.1-1.4-1.8-2.6-1.8c-1.2,0-2.2,0.7-2.6,1.8 l-4.5,13l-13.8,0.3c-1.2,0-2.2,0.8-2.5,1.9c-0.4,1.1,0,2.3,0.9,3l11,8.3l-4,13.2c-0.3,1.1,0.1,2.3,1,3c0.9,0.7,2.2,0.7,3.2,0 l11.3-7.9l11.3,7.9c0.5,0.3,1,0.5,1.6,0.5c0,0,0,0,0,0c1.5,0,2.7-1.2,2.7-2.7c0-0.4-0.1-0.9-0.3-1.2l-3.9-12.8l11-8.3 C133.6,70.4,134,69.2,133.6,68.1"></path> </g> </svg> 