<?xml version="1.0" encoding="UTF-8"?> <svg xmlns="http://www.w3.org/2000/svg" id="Layer_1" data-name="Layer 1" viewBox="0 0 185.71 191.5"><defs><style>.cls-1{fill:#fff;}.cls-2{fill:#535859;}</style></defs><polygon class="cls-1" points="117.55 139.5 68.75 139.5 68.75 169.4 79.45 169.4 81.75 185.8 102.75 187.1 105.95 172.8 117.55 169.4 117.55 139.5"></polygon><path class="cls-2" d="M276.4,209.5c13.5-8.4,24.3-17.5,27.5-26.3,1.6-4.4,1.6-8.4-.4-12-5.2-10-15.9-10.4-30.3-8.8a63.76,63.76,0,0,0-122-.4c-14.3-1.2-25.1-1.2-30.3,9.2-2,3.6-2,7.6-.4,12,4.4,11.6,21.1,23.5,39.8,33.5a54.74,54.74,0,0,0,9.2,10.8,67.82,67.82,0,0,1,11.6,14.7c-23.5,6.8-41.8,8.8-49.8,4.8-2-1.2-2.8-2.4-2.8-3.2a13.23,13.23,0,0,1,1.2-7.6,5.93,5.93,0,0,0,2.8.4,12,12,0,1,0-12-12,11.17,11.17,0,0,0,2.4,7.2c-2.8,4.8-3.6,9.2-2.4,13.5.8,3.6,3.6,6.8,7.2,8.8,4,2,9.2,2.8,15.1,2.8,12,0,26.7-3.2,40.6-7.2,0,.8.4,2,.4,2.8h-4v8h4v8h-4v8h4v8a7.9,7.9,0,0,0,2.4,5.6,9.61,9.61,0,0,0,6,2.4h4v8a8.2,8.2,0,0,0,8,8h15.9a8.2,8.2,0,0,0,8-8v-8h4a8.2,8.2,0,0,0,8-8v-8h4v-8h-4v-8h4v-8h-4c0-.8.4-2,.4-2.8,5.6,1.6,10.4,2.8,15.5,4a12,12,0,1,0,12-13.2,12,12,0,0,0-10,5.2c-4.8-1.2-9.6-2.4-14.7-3.6a63.37,63.37,0,0,1,11.6-14.7,102.52,102.52,0,0,0,9.2-10.8,29.83,29.83,0,0,0,4.8-2.8c15.9,10,29.9,20.3,27.5,29.5-.8,2.4-1.6,4.8-8,5.2v8c8.8,0,13.9-3.6,15.9-11.2C306.7,233,295.5,221.8,276.4,209.5Zm19.9-35.1c.8,1.6.8,3.2,0,5.6-2.4,6.4-11.2,14.3-25.1,22.7a54.86,54.86,0,0,0,4.4-21.9,98.08,98.08,0,0,0-.8-10.8C289.2,168.8,294,170,296.3,174.4Zm-84-49.4a56,56,0,0,1,55.8,55.8c0,12-4.8,21.9-9.6,29.5-11.2,6-24.7,12.3-39.8,18.7-2,.8-4.4,1.6-6.4,2.4-2-.8-4.4-1.6-6.4-2.4-15.1-6.4-28.7-12.3-39.8-18.7-4.8-7.6-9.6-17.5-9.6-29.5A56,56,0,0,1,212.3,125Zm-84.1,55a6.82,6.82,0,0,1,0-5.6c2.4-4.8,7.2-6,21.5-4.8a56.26,56.26,0,0,0-1.2,11.2,60.92,60.92,0,0,0,4.4,21.9C139.4,194.3,130.6,186.4,128.2,180Zm51,45.8c8,3.6,15.5,6.8,21.9,9.6-4.4,1.6-8.4,2.8-12.3,4C186.8,235.4,183.6,231,179.2,225.8Zm41.1,74.5H204.4v-8h15.9Zm11.9-11.9v-4h0Zm0-35.9H188.1v8h44.1v8H200.3v8h31.9v8H192.4V256.6a65.65,65.65,0,0,0-.8-9.2c8-2.4,15.1-5.2,20.7-7.2,7.2,2.8,14.3,5.2,20.7,7.2C232.6,248.9,232.6,250.9,232.2,252.5Zm3.6-12.7c-4-1.2-8-2.8-12.3-4,6.4-2.8,13.9-6,21.9-9.6C241,231,237.8,235.4,235.8,239.8Zm-64.2-51,10.8,2.8a27.56,27.56,0,0,0,1.2,3.2l-5.6,9.6a3.7,3.7,0,0,0,.8,4.8l5.6,5.6a4.25,4.25,0,0,0,4.8.8l9.6-5.6c1.2.4,2,.8,3.2,1.2l2.8,10.8a4.31,4.31,0,0,0,4,3.2h8a3.9,3.9,0,0,0,4-3.2l2.8-10.8a27.56,27.56,0,0,0,3.2-1.2l9.6,5.6a3.7,3.7,0,0,0,4.8-.8l5.6-5.6a4.25,4.25,0,0,0,.8-4.8l-5.6-9.6c.4-1.2.8-2,1.2-3.2l10.8-2.8a4.31,4.31,0,0,0,3.2-4v-8a3.9,3.9,0,0,0-3.2-4L243,170a27.56,27.56,0,0,0-1.2-3.2l5.6-9.6a3.7,3.7,0,0,0-.8-4.8l-5.6-5.6a4.25,4.25,0,0,0-4.8-.8l-9.6,5.6c-1.2-.4-2-.8-3.2-1.2L220.2,140a3.9,3.9,0,0,0-4-3.2h-8a3.9,3.9,0,0,0-4,3.2l-2.8,10.8a27.56,27.56,0,0,0-3.2,1.2l-9.6-5.6a3.7,3.7,0,0,0-4.8.8l-5.6,5.6a4.25,4.25,0,0,0-.8,4.8l5.6,9.6c-.4,1.2-.8,2-1.2,3.2l-10.4,2.4a4.31,4.31,0,0,0-3.2,4v8A4.49,4.49,0,0,0,171.6,188.8Z" transform="translate(-119.35 -117)"></path><circle class="cls-1" cx="92.95" cy="63.8" r="15.9"></circle><circle class="cls-1" cx="13.25" cy="107.6" r="4"></circle><circle class="cls-1" cx="148.75" cy="135.5" r="4"></circle></svg> 