<?xml version="1.0" encoding="UTF-8"?> <!-- Generator: Adobe Illustrator 24.1.2, SVG Export Plug-In . SVG Version: 6.00 Build 0) --> <svg xmlns="http://www.w3.org/2000/svg" xmlns:xlink="http://www.w3.org/1999/xlink" version="1.1" id="Layer_1" x="0px" y="0px" viewBox="0 0 285 220" style="enable-background:new 0 0 285 220;" xml:space="preserve"> <style type="text/css"> .st0{fill:#2D2E2C;} .st1{fill:#FFFFFF;} </style> <polygon class="st0" points="70.3,69.5 70.3,140.4 56.7,140.4 22.8,101.5 22.8,140.4 5.1,140.4 5.1,69.5 18.6,69.5 52.8,109.4 52.8,69.5 "></polygon> <path class="st0" d="M139,120.7c0,11.8-9.5,19.7-25.4,19.7H77.9V69.5h33.6c15.4,0,24.4,7.3,24.4,18.9c0,6.6-3.6,13.3-9.8,15.5 C134.7,105.8,139,113.1,139,120.7 M95.5,83.9v14.8h13.2c6.7,0,10.3-3.3,10.3-7.9s-3.5-6.9-10.3-6.9L95.5,83.9z M121.8,118.4 c0-4.4-3.6-6.9-10.2-6.9H95.5v14.3h15.7C118.5,125.8,121.8,122.6,121.8,118.4"></path> <path class="st0" d="M281.1,91.6h-17.5c-0.9-5.3-4.1-8.9-11.6-8.9c-6.2,0-10.2,2.4-10.2,6.9c0,4,2.9,5.8,8.5,6.9l9.8,2.1 c12.9,2.7,21.1,7.9,21.1,20c0,14-11.5,22.7-29.1,22.7c-15.8,0-30-7.5-31.7-24.9h17.5c1.1,6.2,6.4,10.1,14.6,10.1 c6.2,0,9.9-2.4,9.9-6.3c0-2.5-1.3-5.1-7.4-6.2l-11.6-2.5c-13.8-3-20.3-9.3-20.3-20.4c0-14,11.4-22.7,27.9-22.7 C262.5,68.5,279.4,72.7,281.1,91.6"></path> <path class="st1" d="M210.4,124.6c-11.2,17.6-30.7,16.7-30.7,16.7c-20.1,0-36.4-16.3-36.4-36.4s16.3-36.4,36.4-36.4 c10.9,0,21.2,4.9,28.2,13.3c3.9,4.7,6.6,10.4,7.7,16.5h-15.2c0,0-4.3-14.7-20.5-14.9c-11.9,0-21.5,9.6-21.5,21.5s9.6,21.5,21.5,21.5 l0,0c9.3-0.1,17.5-6.1,20.5-14.9h15.3C214.8,116.2,213.1,120.6,210.4,124.6"></path> <path class="st1" d="M179.8,144.4c-9.8,0-19.2-3.6-26.5-10.1c0,0,10.5,19,26.5,33.1c15.9-14.1,26.5-33.1,26.5-33.1 C199,140.8,189.6,144.4,179.8,144.4"></path> </svg> 