<?xml version="1.0" encoding="UTF-8"?> <!-- Generator: Adobe Illustrator 24.1.2, SVG Export Plug-In . SVG Version: 6.00 Build 0) --> <svg xmlns="http://www.w3.org/2000/svg" xmlns:xlink="http://www.w3.org/1999/xlink" version="1.1" id="Layer_1" x="0px" y="0px" viewBox="0 0 260 200" style="enable-background:new 0 0 260 200;" xml:space="preserve"> <style type="text/css"> .st0{fill:#FFC630;} .st1{fill:#FFFFFF;} .st2{fill:#525758;} .st3{fill:#515758;} .st4{clip-path:url(#SVGID_2_);fill:#515758;} </style> <g> <g> <g> <g> <g> <path class="st0" d="M166.8,2.6H92.6c-2.4,0-4.4,2-4.4,4.4v48c0,2.4,2,4.4,4.4,4.4h74.2c2.4,0,4.4-2,4.4-4.4v-48 C171.3,4.6,169.3,2.6,166.8,2.6"></path> <path class="st1" d="M60.8,58.2l-36.6,6.3c0-0.2,0-0.4,0-0.6c0-11.8,8.2-22.7,18.3-24.5c10.1-1.7,18.3,6.4,18.3,18.1 C60.9,57.8,60.8,58,60.8,58.2 M42.5,14.9c5.8-1,10.5,2.9,10.5,8.7c0,5.8-4.7,11.3-10.5,12.3c-5.8,1-10.5-2.9-10.5-8.7 C32.1,21.4,36.7,15.9,42.5,14.9 M79.6,3.4L5.4,16.2C3,16.6,1,18.9,1,21.4v48c0,2.4,2,4.1,4.4,3.7l74.2-12.8 c2.4-0.4,4.4-2.7,4.4-5.2v-48C84.1,4.6,82.1,3,79.6,3.4"></path> <path class="st0" d="M198.6,57.6c0-11.8,8.2-19.9,18.3-18.1c10.1,1.7,18.3,12.7,18.3,24.5c0,0.2,0,0.4,0,0.6l-36.6-6.3 C198.6,58,198.6,57.8,198.6,57.6 M227.4,27.1c0,5.8-4.7,9.7-10.5,8.7c-5.8-1-10.5-6.5-10.5-12.3c0-5.8,4.7-9.7,10.5-8.7 C222.7,15.9,227.4,21.4,227.4,27.1 M175.4,7.1v48c0,2.4,2,4.8,4.4,5.2L254,73c2.4,0.4,4.4-1.2,4.4-3.7v-48c0-2.4-2-4.8-4.4-5.2 L179.8,3.4C177.4,3,175.4,4.6,175.4,7.1"></path> <path class="st0" d="M166.8,64H92.6c-2.4,0-4.4,2-4.4,4.4v48c0,2.4,2,4.4,4.4,4.4h74.2c2.4,0,4.4-2,4.4-4.4v-48 C171.3,66,169.3,64,166.8,64"></path> <path class="st0" d="M79.6,64.7L5.4,77.5C3,78,1,80.3,1,82.7v48c0,2.4,2,4.1,4.4,3.7l74.2-12.8c2.4-0.4,4.4-2.7,4.4-5.2v-48 C84.1,66,82.1,64.3,79.6,64.7"></path> <path class="st1" d="M175.4,68.4v48c0,2.4,2,4.8,4.4,5.2l74.2,12.8c2.4,0.4,4.4-1.2,4.4-3.7v-48c0-2.4-2-4.8-4.4-5.2 l-74.2-12.8C177.4,64.3,175.4,66,175.4,68.4"></path> <path class="st1" d="M148,177.4h-36.6c0-0.2,0-0.4,0-0.6c0-11.8,8.2-21.3,18.3-21.3c10.1,0,18.3,9.5,18.3,21.3 C148.1,177,148,177.2,148,177.4 M129.7,130.9c5.8,0,10.5,4.7,10.5,10.5c0,5.8-4.7,10.5-10.5,10.5c-5.8,0-10.5-4.7-10.5-10.5 C119.2,135.6,123.9,130.9,129.7,130.9 M166.8,125.8H92.6c-2.4,0-4.4,2-4.4,4.4v48c0,2.4,2,4.4,4.4,4.4h74.2 c2.4,0,4.4-2,4.4-4.4v-48C171.3,127.8,169.3,125.8,166.8,125.8"></path> <path class="st0" d="M79.6,126.6L5.4,139.4C3,139.8,1,142.2,1,144.6v48c0,2.4,2,4.1,4.4,3.7l74.2-12.8c2.4-0.4,4.4-2.7,4.4-5.2 v-48C84.1,127.8,82.1,126.2,79.6,126.6"></path> <path class="st0" d="M175.4,130.3v48c0,2.4,2,4.8,4.4,5.2l74.2,12.8c2.4,0.4,4.4-1.2,4.4-3.7v-48c0-2.4-2-4.8-4.4-5.2 l-74.2-12.8C177.4,126.2,175.4,127.8,175.4,130.3"></path> </g> <path class="st2" d="M65.2,180.5l-44.8,8.2v-42.8l4-0.7v38.3l40.7-7.5V180.5z M36.1,179v-12.3l-9.4,6.8v7.2L36.1,179L36.1,179z M50.8,156.1v20.2l9.4-1.7v-25.2l0,0L50.8,156.1z M38.8,178.5l9.4-1.7V158l-9.4,6.8V178.5z M60.2,138.5l-1.8,0.2l1.3,2.8 l-8.9,6.4l-2.7,1.9l-9.4,6.7l-2.7,1.9l-9.4,6.7v4.9l0,0.1l9.3-6.7l2.7-1.9l9.4-6.7l2.7-1.9l9.4-6.7l1.2-0.9l1.3,2.8l5.7-10.3 L60.2,138.5z"></path> </g> <path class="st1" d="M113.9,113.2v-4.7c0-0.9,0.7-1.6,1.6-1.6h28.4c0.9,0,1.6,0.7,1.6,1.6v4.7H113.9z M117.1,95.9 c0-7,5.6-12.6,12.6-12.6c7,0,12.6,5.6,12.6,12.6v8.7h-25.2V95.9z M137.6,95.1c0-3.9-3.2-7.1-7.1-7.1h-0.8c-0.4,0-0.8,0.4-0.8,0.8 v1.6c0,0.4,0.4,0.8,0.8,0.8h0.8c2.2,0,3.9,1.8,3.9,3.9v0.8c0,0.4,0.4,0.8,0.8,0.8h1.6c0.4,0,0.8-0.4,0.8-0.8V95.1z M110.8,94.3 c0.9,0,1.6,0.7,1.6,1.6c0,0.9-0.7,1.6-1.6,1.6h-6.3c-0.9,0-1.6-0.7-1.6-1.6c0-0.9,0.7-1.6,1.6-1.6H110.8z M155,94.3 c0.9,0,1.6,0.7,1.6,1.6c0,0.9-0.7,1.6-1.6,1.6h-6.3c-0.9,0-1.6-0.7-1.6-1.6c0-0.9,0.7-1.6,1.6-1.6H155z M115.2,83.6l-4.5-4.5 c-1.5-1.5,0.7-3.7,2.2-2.2l4.5,4.5C118.9,82.9,116.7,85.1,115.2,83.6z M142,81.4l4.5-4.5c1.5-1.5,3.7,0.7,2.2,2.2l-4.5,4.5 C142.7,85.1,140.5,82.9,142,81.4z M128.1,76.9v-6.3c0-2.1,3.2-2.1,3.2,0v6.3C131.3,79,128.1,79,128.1,76.9z"></path> </g> <g> <rect x="144.4" y="39.1" class="st2" width="9.1" height="15.1"></rect> <rect x="132.2" y="27.3" class="st2" width="10" height="26.9"></rect> <rect x="118.1" y="33.3" class="st2" width="12.1" height="20.8"></rect> <rect x="106" y="18.9" class="st2" width="10.3" height="35.3"></rect> <g> <path class="st2" d="M137.2,19.1c0.9,0,1.7,0.8,1.7,1.7c0,0.9-0.8,1.7-1.7,1.7s-1.7-0.8-1.7-1.7 C135.5,19.9,136.3,19.1,137.2,19.1"></path> <g> <path class="st0" d="M137.2,19.1c0.9,0,1.7,0.8,1.7,1.7c0,0.9-0.8,1.7-1.7,1.7s-1.7-0.8-1.7-1.7 C135.5,19.9,136.3,19.1,137.2,19.1z"></path> <path class="st3" d="M137.2,23.2c-1.3,0-2.3-1.1-2.3-2.4c0-1.3,1-2.4,2.3-2.4c1.3,0,2.3,1.1,2.3,2.4 C139.5,22.1,138.5,23.2,137.2,23.2z M137.2,19.8c-0.6,0-1.1,0.4-1.1,1c0,0.5,0.5,1,1.1,1s1.1-0.4,1.1-1 C138.3,20.3,137.8,19.8,137.2,19.8z"></path> </g> <path class="st2" d="M150.2,30.5c0.9,0,1.7,0.8,1.7,1.7c0,0.9-0.8,1.7-1.7,1.7c-0.9,0-1.7-0.8-1.7-1.7 C148.6,31.2,149.3,30.5,150.2,30.5"></path> <g> <path class="st0" d="M150.2,30.5c0.9,0,1.7,0.8,1.7,1.7c0,0.9-0.8,1.7-1.7,1.7c-0.9,0-1.7-0.8-1.7-1.7 C148.6,31.2,149.3,30.5,150.2,30.5z"></path> <path class="st3" d="M150.2,34.6c-1.3,0-2.3-1.1-2.3-2.4c0-1.3,1-2.4,2.3-2.4c1.3,0,2.3,1.1,2.3,2.4 C152.5,33.5,151.5,34.6,150.2,34.6z M150.2,31.2c-0.6,0-1.1,0.4-1.1,1c0,0.5,0.5,1,1.1,1s1.1-0.4,1.1-1 C151.3,31.6,150.8,31.2,150.2,31.2z"></path> </g> <path class="st2" d="M127.6,24.8l5.8-2.6c0.1,0.3,0.2,0.5,0.3,0.7l-5.9,2.6C127.9,25.2,127.8,25,127.6,24.8"></path> <g> <path class="st2" d="M127.6,24.8l5.8-2.6c0.1,0.3,0.2,0.5,0.3,0.7l-5.9,2.6C127.9,25.2,127.8,25,127.6,24.8z"></path> <path class="st3" d="M127.5,26.4l-0.2-0.8c0-0.2-0.1-0.3-0.2-0.5l-0.4-0.8l7.2-3.2l0.2,0.7c0,0.2,0.1,0.3,0.2,0.5l0.5,0.8 L127.5,26.4z"></path> </g> <path class="st2" d="M140.8,22.5l7.3,6.2c-0.3,0.1-0.5,0.3-0.7,0.5l-6.9-5.9C140.6,23,140.7,22.8,140.8,22.5"></path> <g> <path class="st2" d="M140.8,22.5l7.3,6.2c-0.3,0.1-0.5,0.3-0.7,0.5l-6.9-5.9C140.6,23,140.7,22.8,140.8,22.5z"></path> <path class="st3" d="M147.3,30.1l-7.8-6.6l0.4-0.6c0.1-0.2,0.2-0.4,0.3-0.6l0.2-1l8.9,7.5l-1,0.5c-0.2,0.1-0.4,0.2-0.5,0.4 L147.3,30.1z"></path> </g> <path class="st2" d="M111.1,9.7c0.9,0,1.7,0.8,1.7,1.7c0,0.9-0.8,1.7-1.7,1.7c-0.9,0-1.7-0.8-1.7-1.7 C109.5,10.4,110.2,9.7,111.1,9.7"></path> <g> <path class="st0" d="M111.1,9.7c0.9,0,1.7,0.8,1.7,1.7c0,0.9-0.8,1.7-1.7,1.7c-0.9,0-1.7-0.8-1.7-1.7 C109.5,10.4,110.2,9.7,111.1,9.7z"></path> <path class="st3" d="M111.1,13.7c-1.3,0-2.3-1.1-2.3-2.4c0-1.3,1-2.4,2.3-2.4c1.3,0,2.3,1.1,2.3,2.4 C113.4,12.7,112.4,13.7,111.1,13.7z M111.1,10.4c-0.6,0-1.1,0.4-1.1,1c0,0.5,0.5,1,1.1,1c0.6,0,1.1-0.4,1.1-1 C112.2,10.8,111.7,10.4,111.1,10.4z"></path> </g> <path class="st2" d="M114.6,13.4l6.7,10.2c-0.2,0.2-0.4,0.5-0.5,0.8l-6.7-10.2C114.3,14,114.5,13.7,114.6,13.4"></path> <g> <path class="st2" d="M114.6,13.4l6.7,10.2c-0.2,0.2-0.4,0.5-0.5,0.8l-6.7-10.2C114.3,14,114.5,13.7,114.6,13.4z"></path> <path class="st3" d="M120.9,25.8l-7.6-11.6l0.4-0.5c0.1-0.2,0.3-0.4,0.3-0.6l0.4-1.2l7.7,11.8l-0.4,0.5 c-0.2,0.2-0.3,0.4-0.4,0.6L120.9,25.8z"></path> </g> <path class="st2" d="M124.2,25c0.9,0,1.7,0.8,1.7,1.7c0,0.9-0.8,1.7-1.7,1.7c-0.9,0-1.7-0.8-1.7-1.7 C122.5,25.8,123.2,25,124.2,25"></path> <g> <path class="st0" d="M124.2,25c0.9,0,1.7,0.8,1.7,1.7c0,0.9-0.8,1.7-1.7,1.7c-0.9,0-1.7-0.8-1.7-1.7 C122.5,25.8,123.2,25,124.2,25z"></path> <path class="st3" d="M124.2,29.1c-1.3,0-2.3-1.1-2.3-2.4c0-1.3,1-2.4,2.3-2.4c1.3,0,2.3,1.1,2.3,2.4 C126.5,28,125.4,29.1,124.2,29.1z M124.2,25.7c-0.6,0-1.1,0.4-1.1,1c0,0.5,0.5,1,1.1,1c0.6,0,1.1-0.4,1.1-1 C125.2,26.2,124.8,25.7,124.2,25.7z"></path> </g> </g> </g> </g> <g> <g> <defs> <polygon id="SVGID_1_" points="192.2,116 237.8,123.4 237.8,82.5 192.2,75.1 "></polygon> </defs> <clipPath id="SVGID_2_"> <use xlink:href="#SVGID_1_" style="overflow:visible;"></use> </clipPath> <path class="st4" d="M217.9,105.3c0,1.7-1.3,2.7-2.9,2.5c-1.6-0.3-2.9-1.7-2.9-3.4V88.6c0-1.7,1.2-2.7,2.9-2.5 c1.6,0.3,3,1.9,2.9,3.5V105.3z M217.9,113.8c0,1.7-1.3,2.7-2.9,2.5c-1.6-0.3-2.9-1.7-2.9-3.4v-1c0-1.7,1.2-2.7,2.9-2.5 c1.6,0.3,3,1.7,2.9,3.4V113.8z M236.8,113l-16.1-30c-1.2-2.3-3.3-3.9-5.7-4.3c-2.4-0.4-4.5,0.5-5.8,2.4l-16.1,24.8 c-1.3,1.9-1.3,4.5-0.1,6.8c1.2,2.3,3.4,4,5.9,4.4l32.1,5.2c2.5,0.4,4.6-0.5,5.9-2.5C238.1,118,238.1,115.3,236.8,113"></path> </g> </g> <g> <g> <path class="st3" d="M37.9,120.3c-3.1,0-5.7-0.7-7.2-1.9c-0.9-0.7-1.4-1.7-1.4-2.7c0-2.6,3.2-5.1,5.9-6.4c0.6-0.3,1.3,0,1.6,0.6 c0.3,0.6,0,1.3-0.6,1.6c-2.9,1.4-4.6,3.2-4.6,4.2c0,0.2,0.1,0.5,0.5,0.9c1.3,1.1,4.9,1.8,9.9,0.9c6.7-1.2,10.8-4.3,10.8-6 c0-1.1-2-2-4.9-2.2c-0.7,0-1.2-0.6-1.1-1.3c0-0.7,0.6-1.2,1.3-1.1c4.5,0.3,7.2,2,7.2,4.6c0,4-6.6,7.3-12.8,8.4 C40.9,120.2,39.3,120.3,37.9,120.3z"></path> <rect x="41.1" y="119.8" class="st3" width="2.4" height="4"></rect> </g> <polygon class="st3" points="42.3,123.3 39.9,121.3 39.9,123.4 42.3,125.4 44.8,122.5 44.8,120.4 "></polygon> <g> <rect x="23.4" y="114.9" transform="matrix(0.9849 -0.173 0.173 0.9849 -19.6794 6.3768)" class="st3" width="6.7" height="2.4"></rect> </g> <polygon class="st3" points="24.2,114.3 21.8,117.2 24.2,119.3 26.4,118.9 23.9,116.9 26.4,113.9 "></polygon> <g> <rect x="54.6" y="109.4" transform="matrix(0.9849 -0.173 0.173 0.9849 -18.2608 11.6913)" class="st3" width="6.7" height="2.4"></rect> </g> <polygon class="st3" points="58.3,108.3 60.8,110.4 58.3,113.3 60.4,112.9 62.9,110 60.4,108 "></polygon> <rect x="29.1" y="120" transform="matrix(0.7443 -0.6679 0.6679 0.7443 -72.8675 52.0785)" class="st3" width="4.9" height="2.4"></rect> <polygon class="st3" points="33.3,122.6 29.8,123 30.1,119.4 28.5,121.1 28.2,124.6 31.7,124.3 "></polygon> <rect x="50.6" y="104.7" transform="matrix(0.7698 -0.6383 0.6383 0.7698 -55.3494 58.4098)" class="st3" width="5.3" height="2.4"></rect> <polygon class="st3" points="51.7,104.3 55.2,104.1 54.8,107.6 56.5,106 56.9,102.5 53.4,102.7 "></polygon> <g> <rect x="52.1" y="115.1" transform="matrix(0.4239 -0.9057 0.9057 0.4239 -75.628 115.9144)" class="st3" width="2.4" height="4.6"></rect> </g> <polygon class="st3" points="54.8,115.2 55.2,118.6 51.7,119.6 53.4,120.6 56.9,119.6 56.5,116.2 "></polygon> <rect x="30.5" y="107.8" transform="matrix(0.5513 -0.8343 0.8343 0.5513 -77.3365 75.7434)" class="st3" width="2.4" height="3.9"></rect> <polygon class="st3" points="30.3,112.1 30.2,108.6 33.7,107.8 32.1,106.7 28.6,107.5 28.8,110.9 "></polygon> <g> <path class="st1" d="M42.1,83.1c-2.4,0.4-4.3-1.2-4.3-3.5c0-2.4,1.9-4.6,4.3-5s4.3,1.2,4.3,3.5C46.4,80.4,44.4,82.6,42.1,83.1"></path> <path class="st3" d="M42.1,73.8c-2.8,0.5-5,3.1-5,5.9s2.3,4.6,5,4.1c2.8-0.5,5-3.1,5-5.9S44.8,73.3,42.1,73.8 M42.1,75.2 c2-0.3,3.6,1,3.6,2.9c0,2-1.6,3.8-3.6,4.2c-2,0.3-3.6-1-3.6-2.9C38.5,77.4,40.1,75.6,42.1,75.2"></path> <path class="st1" d="M41.7,115.1c-1.9,0.3-3.4-0.9-3.4-2.8l-0.7-11.7c-1.6-0.3-2.5-1.6-2.5-3.7v-7.5c0-2.4,2-4.7,4.4-5.2l5.2-0.9 c2.5-0.4,4.4,1.3,4.4,3.7v7.5c0,2.1-0.9,3.8-2.5,4.6L45.8,111c0,1.9-1.5,3.7-3.5,4L41.7,115.1z"></path> <path class="st3" d="M44.7,82.5L44.7,82.5l-5.2,0.9c-2.8,0.5-5.1,3.2-5.1,6v7.5c0,2.2,1,3.7,2.6,4.2l0.7,11.3 c0,2.3,1.9,3.8,4.1,3.4l0.7-0.1c2.3-0.4,4.2-2.5,4.2-4.9l0.7-11.5c1.6-1.1,2.6-2.9,2.6-5.1v-7.5c0-1.4-0.5-2.6-1.5-3.4 C47.4,82.7,46.1,82.3,44.7,82.5L44.7,82.5z M44.7,84c2-0.3,3.7,1,3.7,3.1v7.5c0,1.8-0.7,3.4-2.5,4.1l-0.8,12.5 c0,1.5-1.2,2.9-2.7,3.2l-0.7,0.1c-1.5,0.3-2.7-0.8-2.7-2.2l-0.8-12.3c-1.8,0-2.5-1.4-2.5-3.2v-7.5c0-2,1.6-4,3.7-4.3L44.7,84z"></path> </g> </g> <g> <path class="st3" d="M204.7,167.8c-1.1,1.1-1.1,3.2,0,4.7c1.1,1.5,2.8,1.8,3.9,0.6c3.2-3.3,8.4-2.4,11.7,1.9 c1.1,1.5,2.8,1.8,3.9,0.6c1.1-1.1,1.1-3.2,0-4.7C218.7,163.7,210,162.3,204.7,167.8"></path> <path class="st3" d="M211.3,175.9c-1.7,1.4-1.7,4.2,0,6.2c1.7,2,4.4,2.5,6.1,1c1.7-1.4,1.7-4.2,0-6.2 C215.7,174.9,213,174.4,211.3,175.9"></path> <path class="st3" d="M198.2,158.9c-1.1,1.1-1.1,3.2,0,4.7c1.1,1.5,2.8,1.8,3.9,0.6c6.8-7,17.8-5.1,24.6,4.1 c1.1,1.5,2.8,1.8,3.9,0.6c1.1-1.1,1.1-3.2,0-4.7C221.6,152.2,207.1,149.7,198.2,158.9"></path> <path class="st3" d="M235.6,154.2c-11.7-16-30.8-19.2-42.5-7.1c-1.4,1.5-1.7,3.7-0.3,5.7c1.4,1.9,3.4,1.8,4.8,0.4 c8.9-9.2,24.7-6.5,33.6,5.6c1.4,1.9,3.4,2.6,4.8,1.2S237,156.1,235.6,154.2"></path> </g> </g> </svg> 