<?xml version="1.0" encoding="UTF-8"?> <!-- Generator: Adobe Illustrator 24.1.2, SVG Export Plug-In . SVG Version: 6.00 Build 0) --> <svg xmlns="http://www.w3.org/2000/svg" xmlns:xlink="http://www.w3.org/1999/xlink" version="1.1" id="Layer_1" x="0px" y="0px" viewBox="0 0 425.2 425.2" style="enable-background:new 0 0 425.2 425.2;" xml:space="preserve"> <style type="text/css"> .st0{fill:#FFC630;} .st1{fill:#FFFFFF;} </style> <path class="st0" d="M305,319.6l-0.2,0.1c-24.7,21.2-56.1,33.5-88.5,34.4l-0.5-16.5c28.6-0.9,56.4-11.7,78.3-30.5l0.2-0.1L305,319.6 L305,319.6z M315.1,310.1l-11.9-11.4c19.9-20.8,32.2-48.1,34.5-76.8l16.4,1.3C351.4,255.7,337.6,286.6,315.1,310.1z M202.4,354 c-32.7-2.2-63.8-15.7-87.2-38.2l11.3-12c20.8,19.8,48.2,31.8,77.1,33.7L202.4,354z M354.6,209.4l-16.5,0.2 c-0.5-28.8-11.1-56.6-29.8-78.4l12.4-10.8l0.1,0.1C342,145.2,353.9,176.7,354.6,209.4z M118,295l-12.5,10.8l-0.2-0.2 c-21.2-24.7-33.3-56.3-33.8-89.1l16.5-0.3c0.4,28.9,11.1,56.8,29.8,78.6L118,295z M299.7,122.2c-20.8-19.9-48.2-31.8-77-33.8 l1.2-16.4c32.7,2.2,63.7,15.8,87.2,38.3L299.7,122.2z M88.4,203.9L72,202.6c2.7-32.5,16.6-63.3,39.1-86.9l11.9,11.4 C103.1,147.9,90.8,175.2,88.4,203.9z M210.4,88.1c-28.7,0.8-56.5,11.7-78.5,30.5l-10.8-12.4l0.1-0.1c24.7-21.2,56.3-33.5,88.7-34.4 L210.4,88.1z"></path> <path class="st0" d="M161.6,371.4c-4.6-1.5-9.1-3.2-13.4-5l6.4-15.2c4,1.7,8,3.1,12.1,4.5c25.3,8.2,52.4,9.7,78.2,4.3l3.4,16.1 C219.6,382.1,189.7,380.5,161.6,371.4z M135,360.2c-30.5-16-55-40.7-71-71.2l14.6-7.6c14.4,27.6,36.5,49.8,64,64.2L135,360.2z M262.4,372.5l-4.8-15.7c29.9-9,55.9-26.7,74.9-51l13,10.2C324.2,342.9,295.5,362.5,262.4,372.5z M57.9,275.8 c-13.3-32-16.2-66.7-8.6-100.1l16.1,3.6c-6.9,30.3-4.3,61.4,7.7,90.2L57.9,275.8z M354,304.1l-13.8-9c7.1-10.9,12.8-22.8,16.8-35.3 c5.5-16.9,7.9-34.3,7.2-51.9l16.4-0.7c0.8,19.5-1.9,38.9-8,57.6C368.2,278.7,361.9,291.9,354,304.1z M68.9,166.7l-15.7-5.1l0.1-0.3 c10.7-32.9,31-61.2,58.6-81.8l9.8,13.2c-24.9,18.5-43.2,44-52.8,73.5L68.9,166.7z M363.1,194.8c-4-30.7-17.2-59.1-38.2-82.2 l12.2-11.1c23.3,25.5,37.9,57.1,42.3,91.1L363.1,194.8z M132.7,85.4l-8.6-14c29.3-18.1,63-26.7,97.4-24.7L220.6,63 C189.5,61.3,159.1,69,132.7,85.4z M315.6,103.2c-16.2-15-35.1-26-56.3-32.9c-8.4-2.7-17.1-4.7-25.7-5.9L236,48 c9.6,1.3,19.1,3.6,28.5,6.6c23.4,7.6,44.4,19.9,62.4,36.4L315.6,103.2z"></path> <g> <path class="st1" d="M261.6,197.9v-17.7c0-29.2-21.3-47.9-47.6-47.9s-47.6,18.6-47.6,47.9v17.7c-5.7,0-9.8,4.6-9.8,10.9v59.1 c0,5.7,4,10.9,9.8,10.9h95.8c5.2,0,9.8-4.6,9.8-10.9v-59.1C271.4,202.4,267.4,197.9,261.6,197.9z M185.3,180.1 c0-17.7,12.6-26.6,28.7-26.6s28.7,8.9,28.7,26.6v17.7h-12.6h-31.6h-13.2L185.3,180.1L185.3,180.1z M218.6,244.4v12h-9.8v-12 c-2.9-1.7-4.6-5.2-4.6-9.1c0-5.7,4-10.9,9.8-10.9c5.8,0,9.8,4.6,9.8,10.9C223.8,239.2,221.5,242.6,218.6,244.4z"></path> </g> </svg> 