<?xml version="1.0" encoding="UTF-8"?> <!-- Generator: Adobe Illustrator 24.1.2, SVG Export Plug-In . SVG Version: 6.00 Build 0) --> <svg xmlns="http://www.w3.org/2000/svg" xmlns:xlink="http://www.w3.org/1999/xlink" version="1.1" id="Layer_1" x="0px" y="0px" viewBox="0 0 500 500" style="enable-background:new 0 0 500 500;" xml:space="preserve"> <style type="text/css"> .st0{enable-background:new ;} .st1{fill:#31365B;} .st2{fill:#E84F20;} </style> <g> <g> <defs> <rect id="SVGID_1_" x="0" width="500" height="500"></rect> </defs> <clipPath id="SVGID_2_"> <use xlink:href="#SVGID_1_" style="overflow:visible;"></use> </clipPath> </g> </g> <g> <g class="st0"> <path class="st1" d="M232.4,218.8c0,0.7-0.2,0.9-0.9,0.9h-3.9c-0.7,0-0.9-0.1-0.9-0.9v-22.6h-5.5c-0.6,0-0.7-0.1-0.7-0.7v-3.6 c0-0.6,0.1-0.7,0.7-0.7h17.2c0.8,0,1,0.1,1,0.5c0,0.2,0,0.3-0.1,0.6l-0.9,3.3c-0.2,0.7-0.6,0.7-1,0.7h-5.2V218.8z"></path> <path class="st1" d="M258.4,219.1c0,0.5-0.1,0.6-0.6,0.6h-4.1c-0.5,0-0.6-0.1-0.6-0.6v-12.8c0-1.6-0.2-3.5-2.3-3.5 c-1.7,0-3,1.2-3.5,1.7v14.6c0,0.5-0.1,0.6-0.6,0.6h-4.1c-0.5,0-0.6-0.1-0.6-0.6v-28c0-0.6,0.3-0.6,0.8-0.7l3.5-0.7 c0.1,0,0.5-0.1,0.6-0.1c0.3,0,0.4,0.2,0.4,0.9v10.4c1.1-0.9,2.8-2.4,5.7-2.4c4.4,0,5.4,3,5.4,6.6V219.1z"></path> <path class="st1" d="M279.7,217.5c0.1,0.1,0.1,0.3,0.1,0.5c0,1.1-4.2,2.5-7.5,2.5c-5.5,0-9.3-3.1-9.3-10.8 c0-6.6,3.5-11.2,9.1-11.2c7.1,0,8.3,6.3,8.3,11.4c0,0.8-0.2,1-1,1h-11.2c0,2.3,0.7,5.2,4.6,5.2c3,0,4.7-1.4,5.3-1.4 c0.2,0,0.4,0.2,0.5,0.3L279.7,217.5z M274.9,207c0-1.7-0.1-4.7-3-4.7c-3.2,0-3.4,3.5-3.5,4.7H274.9z"></path> <path class="st1" d="M303.3,218.8c0,0.7-0.2,0.9-0.9,0.9h-3.9c-0.7,0-0.9-0.1-0.9-0.9v-26.8c0-0.7,0.2-0.9,0.9-0.9h6.7 c3.4,0,9.7,0,9.7,7.8c0,6.9-5.1,9.3-9.5,9.3h-2.2V218.8z M304.6,203.9c2.5,0,4.8-0.4,4.8-4.6c0-3.6-2.2-3.7-4.4-3.7h-1.7v8.4 H304.6z"></path> <path class="st1" d="M324.3,219.1c0,0.5-0.1,0.6-0.6,0.6h-4.1c-0.5,0-0.6-0.1-0.6-0.6v-12.6c0-4.6-1.1-5.3-1.1-6.3 c0-0.2,0.2-0.3,0.4-0.4l3.2-1.3c0.2,0,0.4-0.2,0.5-0.2c0.5,0,1.3,1.9,1.5,3.3c0.8-1,2.3-3.3,5.2-3.3c1.2,0,2.4,0.4,2.4,1 c0,0.2,0,0.3-0.1,0.4l-1.3,3.5c0,0.1-0.2,0.4-0.3,0.4c-0.3,0-1-0.5-2-0.5c-1.3,0-2.6,1.4-3.2,2V219.1z"></path> <path class="st1" d="M340.5,219.1c0,0.5-0.1,0.6-0.6,0.6h-4.1c-0.5,0-0.6-0.1-0.6-0.6V203H332c-0.5,0-0.6-0.1-0.6-0.6v-2.7 c0-0.5,0.1-0.6,0.6-0.6h7.9c0.5,0,0.6,0.1,0.6,0.6V219.1z M337.8,196.4c-1.9,0-3.5-1.5-3.5-3.5c0-1.9,1.5-3.4,3.5-3.4 c1.9,0,3.4,1.5,3.4,3.4C341.2,194.9,339.7,196.4,337.8,196.4z"></path> </g> <g class="st0"> <path class="st1" d="M355.9,219.5c-0.2,0.5-0.2,0.5-0.8,0.5h-3.4c-0.6,0-0.6-0.1-0.8-0.5l-6.6-19.2c0-0.1-0.2-0.4-0.2-0.7 c0-0.3,0.3-0.4,0.9-0.5l3.5-0.4c0.1,0,0.6,0,0.7,0c0.3,0,0.5,0.4,0.6,0.8l2.5,9.4c0.5,1.7,1.1,4.5,1.3,6h0.1 c0.2-1.5,0.9-4.4,1.4-6l2.8-9.4c0.1-0.5,0.2-0.8,0.6-0.8c0.1,0,0.5,0,0.7,0l2.8,0.4c0.6,0.1,0.9,0.1,0.9,0.5 c0,0.3-0.2,0.6-0.2,0.7L355.9,219.5z"></path> </g> <g class="st0"> <path class="st1" d="M377.3,220.3c-0.2,0-0.4,0.2-0.5,0.2c-0.4,0-1-1.5-1.2-2.5c-0.8,0.8-2.3,2.5-5.4,2.5c-3.8,0-6.2-2.5-6.2-6.4 c0-7,7.6-7,10.9-7v-1.3c0-1.9-0.3-3.1-3-3.1c-2.3,0-4.6,1.2-5.2,1.2c-0.2,0-0.4-0.3-0.4-0.4l-0.8-2.5c-0.1-0.2-0.1-0.3-0.1-0.5 c0-1,4.1-2,7.3-2c5.2,0,7.2,2.4,7.2,6.7v8c0,4,1.1,4.6,1.1,5.4c0,0.2-0.2,0.3-0.4,0.4L377.3,220.3z M374.7,210.4 c-1,0-5.9-0.3-5.9,3.3c0,1.6,1.2,2.8,2.7,2.8c1.5,0,2.6-1.1,3.1-1.6V210.4z"></path> <path class="st1" d="M397.7,218.5c0,0.2,0.1,0.2,0.1,0.3c0,0.8-3,1.6-5.9,1.6c-5.4,0-5.4-4.2-5.4-8V203h-3c-0.5,0-0.6-0.1-0.6-0.6 v-2.7c0-0.5,0.1-0.6,0.6-0.6h3v-5.2c0-0.5,0.1-0.7,0.7-0.7l3.7-0.5c0.1,0,0.3,0,0.5,0c0.4,0,0.4,0.2,0.4,0.7v5.8h4.7 c0.4,0,0.7,0,0.7,0.5c0,0.1,0,0.2,0,0.3l-0.5,2.5c-0.1,0.6-0.3,0.6-0.7,0.6h-4.1v10.1c0,1.3,0,2.5,1.4,2.5c1.7,0,2.7-0.8,3.3-0.8 c0.2,0,0.3,0.1,0.3,0.3L397.7,218.5z"></path> <path class="st1" d="M416.2,217.5c0.1,0.1,0.1,0.3,0.1,0.5c0,1.1-4.2,2.5-7.5,2.5c-5.5,0-9.3-3.1-9.3-10.8 c0-6.6,3.5-11.2,9.1-11.2c7.1,0,8.3,6.3,8.3,11.4c0,0.8-0.2,1-1,1h-11.2c0,2.3,0.7,5.2,4.6,5.2c3,0,4.7-1.4,5.3-1.4 c0.2,0,0.4,0.2,0.5,0.3L416.2,217.5z M411.4,207c0-1.7-0.1-4.7-3-4.7c-3.2,0-3.4,3.5-3.5,4.7H411.4z"></path> </g> <g class="st0"> <path class="st1" d="M237.3,234.9c-0.1,0.2-0.3,0.4-0.5,0.4c-0.2,0-2.8-1.8-5.8-1.8c-1.9,0-3.9,0.7-3.9,3.2c0,3.2,4.9,3.7,8.5,6.5 c2.1,1.6,3.6,3.8,3.6,7c0,5.3-3.7,8.8-9,8.8c-4.2,0-8.7-1.8-8.7-2.5c0-0.1,0.1-0.4,0.2-0.7l1-2.7c0.1-0.3,0.3-0.4,0.5-0.4 c0.2,0,3.3,1.8,6.9,1.8c2.3,0,3.7-1.2,3.7-3.8c0-3.7-4.2-4.1-8.5-6.7c-2.2-1.3-3.6-3-3.6-6.5c0-6,4.3-8.5,9.2-8.5c4,0,8,1.8,8,2.5 c0,0.1,0,0.3-0.2,0.6L237.3,234.9z"></path> <path class="st1" d="M258.9,256c0.1,0.1,0.1,0.3,0.1,0.5c0,1.1-4.2,2.5-7.5,2.5c-5.5,0-9.3-3.1-9.3-10.8c0-6.6,3.5-11.2,9.1-11.2 c7.1,0,8.3,6.3,8.3,11.4c0,0.8-0.2,1-1,1h-11.2c0,2.3,0.7,5.2,4.6,5.2c3,0,4.7-1.4,5.3-1.4c0.2,0,0.4,0.2,0.5,0.3L258.9,256z M254.1,245.4c0-1.7-0.1-4.7-3-4.7c-3.2,0-3.4,3.5-3.5,4.7H254.1z"></path> <path class="st1" d="M278,256.3c0,0.1,0.1,0.3,0.1,0.4c0,1-3.4,2.2-5.9,2.2c-5.8,0-9.2-3.5-9.2-10.6c0-7,3.5-11.4,9.7-11.4 c2.2,0,5.9,1.2,5.9,2.5c0,0.1-0.1,0.3-0.1,0.4l-1.5,2.7c-0.1,0.1-0.2,0.2-0.3,0.2c-0.4,0-1.8-1.7-4-1.7c-2.8,0-4.1,2.2-4.1,7 c0,4.6,1.1,6.7,4.3,6.7c2.1,0,3-1.4,3.7-1.4c0.1,0,0.2,0.1,0.3,0.2L278,256.3z"></path> <path class="st1" d="M295.6,258.8c-0.2,0.1-0.5,0.1-0.6,0.1c-0.5,0-0.9-0.8-1.3-2.5c-1.1,1-3.1,2.5-6.4,2.5c-2.3,0-5.4-1-5.4-6.1 v-14.3c0-0.6,0.3-0.6,0.8-0.7l3.5-0.7c0.1,0,0.5-0.1,0.7-0.1c0.2,0,0.3,0.2,0.3,0.9V251c0,1.6,0.2,3.5,2.3,3.5 c1.7,0,3.1-0.9,3.7-1.3v-14.7c0-0.6,0.3-0.6,0.8-0.7l3.5-0.7c0.1,0,0.5-0.1,0.7-0.1c0.2,0,0.3,0.2,0.3,0.9v13 c0,5.9,0.8,5.5,0.8,6.5c0,0.2-0.2,0.4-0.5,0.5L295.6,258.8z"></path> <path class="st1" d="M309.6,257.6c0,0.5-0.1,0.6-0.6,0.6h-4.1c-0.5,0-0.6-0.1-0.6-0.6V245c0-4.6-1.1-5.3-1.1-6.3 c0-0.2,0.2-0.3,0.4-0.4l3.2-1.3c0.2,0,0.4-0.2,0.5-0.2c0.5,0,1.3,1.9,1.5,3.3c0.8-1,2.3-3.3,5.2-3.3c1.2,0,2.4,0.4,2.4,1 c0,0.2,0,0.3-0.1,0.4l-1.3,3.5c0,0.1-0.2,0.4-0.3,0.4c-0.2,0-1-0.5-2-0.5c-1.3,0-2.6,1.4-3.2,2V257.6z"></path> <path class="st1" d="M325.8,257.6c0,0.5-0.1,0.6-0.6,0.6h-4.1c-0.5,0-0.6-0.1-0.6-0.6v-16.1h-3.2c-0.5,0-0.6-0.1-0.6-0.6v-2.7 c0-0.5,0.1-0.6,0.6-0.6h7.9c0.5,0,0.6,0.1,0.6,0.6V257.6z M323.2,234.9c-1.9,0-3.5-1.5-3.5-3.5c0-1.9,1.5-3.4,3.5-3.4 c1.9,0,3.4,1.5,3.4,3.4C326.6,233.4,325.1,234.9,323.2,234.9z"></path> <path class="st1" d="M344.5,257c0,0.2,0.1,0.2,0.1,0.3c0,0.8-3,1.6-5.9,1.6c-5.4,0-5.4-4.2-5.4-8v-9.4h-3c-0.5,0-0.6-0.1-0.6-0.6 v-2.7c0-0.5,0.1-0.6,0.6-0.6h3v-5.2c0-0.5,0.1-0.7,0.7-0.7l3.7-0.5c0.1,0,0.3,0,0.5,0c0.4,0,0.4,0.2,0.4,0.7v5.8h4.7 c0.4,0,0.7,0,0.7,0.5c0,0.1,0,0.2,0,0.3l-0.5,2.5c-0.1,0.6-0.3,0.6-0.7,0.6h-4.1v10.1c0,1.3,0,2.5,1.4,2.5c1.7,0,2.7-0.8,3.3-0.8 c0.2,0,0.3,0.1,0.3,0.3L344.5,257z"></path> <path class="st1" d="M358.6,238.1c0.1-0.5,0.3-0.9,0.7-0.9c0.2,0,0.6,0,0.7,0l2.9,0.4c0.6,0.1,0.9,0.1,0.9,0.4 c0,0.2-0.1,0.4-0.2,0.7l-4.1,15c-0.7,2.7-1.9,7-2.8,9.2c-1.2,3-3.8,3.9-6.1,3.9c-2.3,0-5.7-1.1-5.7-1.9c0-0.2,0.1-0.3,0.2-0.5 l1.2-2.7c0.1-0.2,0.2-0.3,0.4-0.3c0.4,0,1.7,1,3.5,1c2.2,0,2.8-1.3,3.3-3.1l0.4-1.4h-1.7c-0.5,0-0.6-0.2-0.7-0.5l-6.4-18.8 c0-0.1-0.2-0.4-0.2-0.7c0-0.3,0.3-0.4,0.9-0.5l3.5-0.4c0.1,0,0.6,0,0.7,0c0.3,0,0.5,0.4,0.6,0.8l2.7,10.1c0.5,1.9,1.3,5.8,1.6,7.2 h0.1c0.2-1.6,1.2-6.5,1.4-7.2L358.6,238.1z"></path> </g> <g class="st0"> <path class="st1" d="M227.3,295.8c-0.2,0.7-0.2,0.9-0.9,0.9h-4.2c-0.5,0-0.8-0.1-0.8-0.4c0-0.2,0.1-0.5,0.2-0.7l8.2-26.8 c0.2-0.5,0.2-0.6,0.9-0.6h4.3c0.6,0,0.7,0.2,0.9,0.7l8.2,26.9c0,0.2,0.2,0.5,0.2,0.7c0,0.2-0.4,0.3-0.8,0.3h-4.7 c-0.4,0-0.5-0.1-0.7-0.9l-1.8-6.7H229L227.3,295.8z M233.5,278.1c-0.4-1.6-0.7-4.1-0.9-5.8h-0.1c-0.2,1.7-0.5,4.2-1,5.8l-1.8,7.2 h5.5L233.5,278.1z"></path> </g> <g class="st0"> <path class="st1" d="M261,297.2c-0.2,0.1-0.5,0.1-0.6,0.1c-0.5,0-0.9-0.8-1.3-2.5c-1.1,1-3.1,2.5-6.4,2.5c-2.3,0-5.4-1-5.4-6.1 v-14.3c0-0.6,0.3-0.6,0.8-0.7l3.5-0.7c0.1,0,0.5-0.1,0.7-0.1c0.2,0,0.3,0.2,0.3,0.9v13.2c0,1.6,0.2,3.5,2.3,3.5 c1.7,0,3.1-0.9,3.7-1.3v-14.7c0-0.6,0.3-0.6,0.8-0.7l3.5-0.7c0.1,0,0.5-0.1,0.7-0.1c0.2,0,0.3,0.2,0.3,0.9v13 c0,5.9,0.8,5.5,0.8,6.5c0,0.2-0.2,0.4-0.5,0.5L261,297.2z"></path> <path class="st1" d="M282,295.4c0,0.2,0.1,0.2,0.1,0.3c0,0.8-3,1.6-5.9,1.6c-5.4,0-5.4-4.2-5.4-8v-9.4h-3c-0.5,0-0.6-0.1-0.6-0.6 v-2.7c0-0.5,0.1-0.6,0.6-0.6h3v-5.2c0-0.5,0.1-0.7,0.7-0.7l3.7-0.5c0.1,0,0.3,0,0.5,0c0.4,0,0.4,0.2,0.4,0.7v5.8h4.7 c0.4,0,0.7,0,0.7,0.5c0,0.1,0,0.2,0,0.3l-0.5,2.5c-0.1,0.6-0.3,0.6-0.7,0.6h-4.1V290c0,1.3,0,2.5,1.4,2.5c1.7,0,2.7-0.8,3.3-0.8 c0.2,0,0.3,0.1,0.3,0.3L282,295.4z"></path> <path class="st1" d="M301.7,296c0,0.5-0.1,0.6-0.6,0.6h-4.1c-0.5,0-0.6-0.1-0.6-0.6v-12.8c0-1.6-0.2-3.5-2.3-3.5 c-1.7,0-3,1.2-3.5,1.7V296c0,0.5-0.1,0.6-0.6,0.6h-4.1c-0.5,0-0.6-0.1-0.6-0.6v-28c0-0.6,0.3-0.6,0.8-0.7l3.5-0.7 c0.1,0,0.5-0.1,0.6-0.1c0.3,0,0.4,0.2,0.4,0.9v10.4c1.1-0.9,2.8-2.4,5.7-2.4c4.4,0,5.4,3,5.4,6.6V296z"></path> <path class="st1" d="M315.4,297.3c-5.6,0-9-4.3-9-11c0-6.7,3.4-11,9-11c5.6,0,9,4.3,9,11C324.4,293,321,297.3,315.4,297.3z M318.8,286.3c0-3.9-0.5-6.8-3.4-6.8s-3.4,3-3.4,6.8c0,3.9,0.5,6.8,3.4,6.8S318.8,290.3,318.8,286.3z"></path> <path class="st1" d="M334.4,296c0,0.5-0.1,0.6-0.6,0.6h-4.1c-0.5,0-0.6-0.1-0.6-0.6v-12.6c0-4.6-1.1-5.3-1.1-6.3 c0-0.2,0.2-0.3,0.4-0.4l3.2-1.3c0.2,0,0.4-0.2,0.5-0.2c0.5,0,1.3,1.9,1.5,3.3c0.8-1,2.3-3.3,5.2-3.3c1.2,0,2.4,0.4,2.4,1 c0,0.2,0,0.3-0.1,0.4l-1.3,3.5c0,0.1-0.2,0.4-0.3,0.4c-0.2,0-1-0.5-2-0.5c-1.3,0-2.6,1.4-3.2,2V296z"></path> <path class="st1" d="M350.6,296c0,0.5-0.1,0.6-0.6,0.6h-4.1c-0.5,0-0.6-0.1-0.6-0.6v-16.1h-3.2c-0.5,0-0.6-0.1-0.6-0.6v-2.7 c0-0.5,0.1-0.6,0.6-0.6h7.9c0.5,0,0.6,0.1,0.6,0.6V296z M347.9,273.4c-1.9,0-3.5-1.5-3.5-3.5c0-1.9,1.5-3.4,3.5-3.4 c1.9,0,3.4,1.5,3.4,3.4C351.3,271.8,349.8,273.4,347.9,273.4z"></path> <path class="st1" d="M369.2,295.4c0,0.2,0.1,0.2,0.1,0.3c0,0.8-3,1.6-5.9,1.6c-5.4,0-5.4-4.2-5.4-8v-9.4h-3 c-0.5,0-0.6-0.1-0.6-0.6v-2.7c0-0.5,0.1-0.6,0.6-0.6h3v-5.2c0-0.5,0.1-0.7,0.7-0.7l3.7-0.5c0.1,0,0.3,0,0.5,0 c0.4,0,0.4,0.2,0.4,0.7v5.8h4.7c0.4,0,0.7,0,0.7,0.5c0,0.1,0,0.2,0,0.3l-0.5,2.5c-0.1,0.6-0.3,0.6-0.7,0.6h-4.1V290 c0,1.3,0,2.5,1.4,2.5c1.7,0,2.7-0.8,3.3-0.8c0.2,0,0.3,0.1,0.3,0.3L369.2,295.4z"></path> <path class="st1" d="M383.3,276.6c0.1-0.5,0.3-0.9,0.7-0.9c0.2,0,0.6,0,0.7,0l2.9,0.4c0.6,0.1,0.9,0.1,0.9,0.4 c0,0.2-0.1,0.4-0.2,0.7l-4.1,15c-0.7,2.7-1.9,7-2.8,9.2c-1.2,3-3.8,3.9-6.1,3.9c-2.3,0-5.7-1.1-5.7-1.9c0-0.2,0.1-0.3,0.2-0.5 l1.2-2.7c0.1-0.2,0.2-0.3,0.4-0.3c0.4,0,1.7,1,3.5,1c2.2,0,2.8-1.3,3.3-3.1l0.4-1.4h-1.7c-0.5,0-0.6-0.2-0.7-0.5l-6.4-18.8 c0-0.1-0.2-0.4-0.2-0.7c0-0.3,0.3-0.4,0.9-0.5l3.5-0.4c0.1,0,0.6,0,0.7,0c0.3,0,0.5,0.4,0.6,0.8l2.7,10.1c0.5,1.9,1.3,5.8,1.6,7.2 h0.1c0.2-1.6,1.2-6.5,1.4-7.2L383.3,276.6z"></path> </g> </g> <path class="st2" d="M141.3,297.6l-2-0.5c-25-7.2-42.9-26.5-51.7-55.9c-3.9-13.5-5.8-27.4-5.7-41.5l0.1-4.1l3.8-1.9 c33.9-16.8,74.3-16.8,110.5-0.1l3.6,1.6l0.4,4c0.1,0.8,6.5,79.2-57.2,97.8L141.3,297.6z M96.1,204.4c0.4,14.8,4.8,65.5,45.2,78.7 c20.7-6.7,34.7-22.1,41.3-45.9c2.9-10.6,4.3-21.6,4-32.5C156.8,191.9,124.1,191.9,96.1,204.4L96.1,204.4z"></path> <circle class="st1" cx="141.3" cy="234" r="14.3"></circle> </svg> 