<?xml version="1.0" encoding="UTF-8"?> <svg xmlns="http://www.w3.org/2000/svg" id="Layer_1" data-name="Layer 1" viewBox="0 0 126.8 193.23"><defs><style>.cls-1{fill:#535859;}.cls-2{fill:#fff;}</style></defs><path class="cls-1" d="M271,170.3a8.38,8.38,0,0,1-2.2-9.4l1.2-3a8.17,8.17,0,0,0-5.4-11.1l-3.2-.8a8.35,8.35,0,0,1-6-7.6l-.2-3.2a8,8,0,0,0-9.4-7.8l-3.2.6a7.92,7.92,0,0,1-8.6-4.2l-1.6-2.8a8.15,8.15,0,0,0-11.9-2.8l-2.6,1.8a8.27,8.27,0,0,1-9.5,0l-2.6-2a8.21,8.21,0,0,0-12.1,2.8l-1.6,2.8a8.33,8.33,0,0,1-8.8,4.2l-3.2-.6a8.32,8.32,0,0,0-9.7,7.8l-.2,3.2a8.35,8.35,0,0,1-6,7.6l-3.2.8a8.2,8.2,0,0,0-5.4,11.1l1.2,3a8.38,8.38,0,0,1-2.2,9.4l-2.4,2.2a8.06,8.06,0,0,0,0,12.3l2.4,2.2a8.38,8.38,0,0,1,2.2,9.4l-1.4,3a8.17,8.17,0,0,0,5.4,11.1l3.2.8a8.35,8.35,0,0,1,6,7.6l.2,3.2a8.24,8.24,0,0,0,9.5,7.8l3.2-.6a7.92,7.92,0,0,1,8.6,4.2l1.6,2.8a8.15,8.15,0,0,0,11.9,2.8l2.6-1.8a8.27,8.27,0,0,1,9.5,0l2.6,2a8.21,8.21,0,0,0,12.1-2.8l1.6-2.8a8.33,8.33,0,0,1,8.8-4.2l3.2.6a8.32,8.32,0,0,0,9.7-7.8l.2-3.2a8.35,8.35,0,0,1,6-7.6l3.2-.8a8.2,8.2,0,0,0,5.4-11.1l-1.2-3a8.38,8.38,0,0,1,2.2-9.4l2.4-2.2a8.06,8.06,0,0,0,0-12.3ZM212.9,216a37.6,37.6,0,1,1,37.6-37.6A37.56,37.56,0,0,1,212.9,216Zm-19.7,91.4V247.1a23.12,23.12,0,0,0,7.4,1.4,20.8,20.8,0,0,0,11.9-3.8l.2-.2.2.2a20.51,20.51,0,0,0,11.9,4,19.91,19.91,0,0,0,7.6-1.6v60.5a2.09,2.09,0,0,1-3.4,1.6l-15.7-12.7a1.49,1.49,0,0,0-1.8,0L196.2,309A1.88,1.88,0,0,1,193.2,307.4Z" transform="translate(-149.35 -116.41)"></path><polygon class="cls-2" points="78.05 42.9 87.05 51.9 66.55 72.39 57.55 81.3 48.65 72.39 40.05 63.8 49.05 54.9 57.55 63.4 78.05 42.9"></polygon></svg> 