<?xml version="1.0" encoding="UTF-8"?> <!-- Generator: Adobe Illustrator 24.1.2, SVG Export Plug-In . SVG Version: 6.00 Build 0) --> <svg xmlns="http://www.w3.org/2000/svg" xmlns:xlink="http://www.w3.org/1999/xlink" version="1.1" id="Layer_1" x="0px" y="0px" viewBox="0 0 150 120" style="enable-background:new 0 0 150 120;" xml:space="preserve"> <style type="text/css"> .st0{fill:#515758;} </style> <g> <polygon class="st0" points="126.7,20 112.3,29.2 135.1,65.3 149.5,56.1 "></polygon> <g> <path class="st0" d="M52.3,85.1l1.4-2.1c0.6-0.9,0.8-2,0.6-3.1c-0.2-1.1-0.8-2-1.8-2.6c-0.7-0.4-1.4-0.6-2.2-0.6 c-1.3,0-2.6,0.6-3.4,1.8l-4.1,6c0,0.1-0.1,0.1-0.1,0.2c-1.5,2.2-3.3,4.9-4.8,7.1c-0.1,0.1-0.2,0.2-0.2,0.3l-1.1,1.5 c-1.2,1.8-0.8,4.3,1,5.6c0.9,0.6,2,0.9,3.1,0.7c1.1-0.2,2-0.8,2.6-1.7l0.7-1c0.1-0.2,0.2-0.4,0.3-0.6l7.7-11.2 C52.2,85.2,52.3,85.2,52.3,85.1"></path> <path class="st0" d="M107.3,37.8c-1.1,0.5-2.4,0.6-3.6,0.3l-11-2.3c-5.8-1.2-11.7-1.3-17.6-0.2l-10.4,1.9c-2.6,0.5-5,1.9-6.6,4 l-8.8,11.5c-0.4,0.6-0.6,1.3-0.5,2c0.1,0.7,0.5,1.4,1.1,1.8c0.8,0.6,2,0.7,2.9,0.2l18.8-9.8c2-1,4.3-0.9,6.2,0.3l40.4,26.2 c0.4,0.3,0.9,0.6,1.2,1l11.1-10.5l-18.1-28.6L107.3,37.8z"></path> <path class="st0" d="M66.8,96.7c-0.6-0.5-1.3-0.8-2.1-0.8c-0.2,0-0.3,0-0.5,0c-0.8,0.1-1.5,0.5-2.1,1.2l-4.3,6.2 c-0.3,0.7-0.4,1.5-0.1,2.2c0.3,1,1,1.7,1.9,2.1c1.4,0.6,3.1,0.1,4-1.2l3.8-5.4C68.4,99.7,68.2,97.8,66.8,96.7"></path> <path class="st0" d="M59.4,95.2l2.3-3.4c1.2-1.7,0.8-4.1-0.8-5.5c-0.7-0.6-1.6-0.9-2.5-0.9c-0.2,0-0.4,0-0.6,0 c-1.1,0.2-2,0.7-2.7,1.6l-8.2,12c-0.4,0.8-0.5,1.7-0.2,2.6c0.3,1.1,1,2.1,2,2.6c1.8,1,4.1,0.4,5.3-1.3l1.2-1.7 c0.1-0.2,0.2-0.4,0.3-0.6l3.8-5.4C59.3,95.3,59.3,95.3,59.4,95.2"></path> <path class="st0" d="M116.3,76.7L75.9,50.5c-0.8-0.5-1.9-0.6-2.7-0.1l-18.8,9.8c-2.1,1.1-4.7,0.9-6.6-0.5c-1.3-1-2.2-2.4-2.4-4.1 c-0.2-1.6,0.2-3.3,1.2-4.6l7.6-9.9l-8.1-1.3c-0.7-0.1-1.3-0.3-1.9-0.6l-5.5-2.8L21.6,63.7l9.3,12.3c2.3-2.9,6.5-3.7,9.7-1.7 c1.4,0.8,2.4,2,3,3.4l0.7-1c2.3-3.3,6.9-4.3,10.3-2.1c1.7,1.1,2.9,2.8,3.3,4.8c0.2,0.9,0.2,1.9,0,2.8c1.9-0.2,3.9,0.4,5.4,1.6 c2.7,2.1,3.5,5.8,2.1,8.8c1.4,0.1,2.7,0.6,3.8,1.5c2.7,2.2,3.2,6.2,1.2,9l-1.5,2.1l11.3,1.7c3.4,0.5,6.8-0.4,9.4-2.5l-12.3-6.2 c-0.8-0.4-1.2-1.5-0.8-2.3c0.4-0.8,1.5-1.2,2.3-0.8l13.2,6.7c2.3,1.2,5.1,0.4,6.6-1.8c0.6-0.8,0.8-1.7,0.6-2.6 c-0.2-0.9-0.7-1.7-1.5-2.1l-3.1-1.9l-12.4-6.7c-0.8-0.5-1.1-1.5-0.7-2.3c0.5-0.8,1.5-1.1,2.3-0.7l17.1,9.3 c2.5,1.4,5.7,0.6,7.2-1.8c0.5-0.8,0.7-1.7,0.5-2.6c-0.2-0.9-0.8-1.7-1.6-2.1l-1.2-0.7l-18.4-11c-0.8-0.5-1.1-1.5-0.6-2.4 c0.5-0.8,1.5-1.1,2.3-0.6l17.5,10.5l0.9,0.5l3.5,2.1c2.2,1.3,5.1,0.7,6.5-1.5c0.7-1.1,1-2.4,0.7-3.6 C118.2,78.5,117.4,77.4,116.3,76.7"></path> <path class="st0" d="M40.6,79.7c-0.2-1.1-0.9-2-1.8-2.5c-0.7-0.4-1.4-0.6-2.1-0.6c-1.3,0-2.5,0.6-3.2,1.7l-4.9,7 c-1.2,1.8-0.8,4.2,1,5.5l0.2,0.1c0.9,0.6,1.9,0.8,3,0.7c0.9-0.2,1.7-0.7,2.3-1.4l5.2-7.5C40.6,81.7,40.8,80.7,40.6,79.7"></path> </g> <rect x="-1.3" y="35.4" transform="matrix(0.5339 -0.8456 0.8456 0.5339 -27.7342 37.4104)" class="st0" width="42.7" height="16.9"></rect> </g> </svg> 