<?xml version="1.0" encoding="UTF-8"?> <!-- Generator: Adobe Illustrator 24.1.2, SVG Export Plug-In . SVG Version: 6.00 Build 0) --> <svg xmlns="http://www.w3.org/2000/svg" xmlns:xlink="http://www.w3.org/1999/xlink" version="1.1" id="Layer_1" x="0px" y="0px" viewBox="0 0 150 120" style="enable-background:new 0 0 150 120;" xml:space="preserve"> <style type="text/css"> .st0{fill:#515758;} </style> <path class="st0" d="M101.9,48.3l7,57.9c0.2,0.3-0.1,0.5-0.3,0.7l-9.5,7.7c-0.5,0.4-1,0.4-1.5-0.2L78.9,66.9L53.5,87.4l0.6,15.2 c0.2,0.3-0.1,0.5-0.3,0.7l-7,5.7c-0.5,0.4-1,0.4-1.5-0.2l-8.7-20.7L18.1,75.3c-0.2-0.3-0.4-1,0.2-1.5l7-5.7c0.3-0.2,0.5-0.4,0.8-0.2 l14.7,3.8l25.5-20.6L23.7,22.9c-0.2-0.3-0.4-1,0.2-1.5l9.5-7.7c0.3-0.2,0.5-0.4,0.8-0.2l55.2,19l26.3-21.2 c10.3-8.3,23,7.4,12.7,15.7L101.9,48.3z"></path> </svg> 