<?xml version="1.0" encoding="UTF-8"?> <!-- Generator: Adobe Illustrator 24.1.2, SVG Export Plug-In . SVG Version: 6.00 Build 0) --> <svg xmlns="http://www.w3.org/2000/svg" xmlns:xlink="http://www.w3.org/1999/xlink" version="1.1" id="Layer_1" x="0px" y="0px" viewBox="0 0 150 120" style="enable-background:new 0 0 150 120;" xml:space="preserve"> <style type="text/css"> .st0{clip-path:url(#SVGID_2_);fill:#515758;} .st1{fill:#FFC630;} </style> <g> <g> <defs> <rect id="SVGID_1_" x="1.9" y="11.8" width="146.1" height="95.6"></rect> </defs> <clipPath id="SVGID_2_"> <use xlink:href="#SVGID_1_" style="overflow:visible;"></use> </clipPath> <path class="st0" d="M113.1,107.4c-4.6,0-9.1-0.9-13.3-2.6c-3.8,1.7-8,2.6-12.2,2.6c-5.6,0-10.9-1.5-15.6-4.4 c-4.7,2.9-10.1,4.4-15.6,4.4c-5.2,0-10.2-1.3-14.7-3.8c-4.1,2.5-8.8,3.8-13.7,3.8c-14.4,0-26.2-11.7-26.2-26.2 c0-13.2,9.9-24.3,22.8-26c0.6-12.4,10.9-22.3,23.5-22.3c1.4,0,2.7,0.1,4.1,0.4c2.3-5.8,6.1-10.8,11.1-14.6 c6-4.5,13.1-6.9,20.6-6.9c8.1,0,16,2.9,22.2,8.2c5.4,4.6,9.3,10.9,11,17.8c7.9,1,15.3,4.6,20.9,10.5c6.3,6.6,9.8,15.2,9.8,24.2 C148,91.7,132.3,107.4,113.1,107.4"></path> </g> <g> <path class="st1" d="M69.1,82.1L69.1,82.1L55.3,88l2.8-7.6l-1-0.3c-8.3-3-13.4-8.7-13.4-14.9c0-9.3,11.4-16.9,25.4-16.9 c14,0,25.4,7.6,25.4,16.9S83,82.1,69.1,82.1 M96.4,65.2c0-10.5-12.3-19-27.4-19c-15.1,0-27.4,8.5-27.4,19 c0,6.9,5.3,13.1,13.8,16.5l-3.7,10.1l17.6-7.6C84.3,84,96.4,75.6,96.4,65.2"></path> <path class="st1" d="M110.3,62.1c0-10.5-12.3-19-27.4-19c-4.3,0-8.4,0.7-12.1,1.9c2,0.1,3.9,0.3,5.7,0.6c2-0.4,4.2-0.5,6.4-0.5 c14,0,25.4,7.6,25.4,16.9c0,6.2-5.1,11.9-13.4,14.9l-1.1,0.4l3.4,6.6l-10.3-3.6c-0.8,0.4-1.7,0.9-2.6,1.2l17.1,6l-4.6-9.1 C105.1,75.2,110.3,69,110.3,62.1"></path> <path class="st1" d="M68.9,62.6c-1.3,0-2.4,1.1-2.4,2.4s1.1,2.4,2.4,2.4s2.4-1.1,2.4-2.4S70.3,62.6,68.9,62.6"></path> <path class="st1" d="M78.4,62.6c-1.3,0-2.4,1.1-2.4,2.4s1.1,2.4,2.4,2.4c1.3,0,2.4-1.1,2.4-2.4S79.8,62.6,78.4,62.6"></path> <path class="st1" d="M58.5,62.6c-1.3,0-2.4,1.1-2.4,2.4s1.1,2.4,2.4,2.4s2.4-1.1,2.4-2.4S59.8,62.6,58.5,62.6"></path> </g> </g> </svg> 