<?xml version="1.0" encoding="UTF-8"?> <!-- Generator: Adobe Illustrator 24.1.2, SVG Export Plug-In . SVG Version: 6.00 Build 0) --> <svg xmlns="http://www.w3.org/2000/svg" xmlns:xlink="http://www.w3.org/1999/xlink" version="1.1" id="Layer_1" x="0px" y="0px" viewBox="0 0 215 200" style="enable-background:new 0 0 215 200;" xml:space="preserve"> <style type="text/css"> .st0{fill:#FFFFFF;} .st1{fill:#FEC340;} .st2{fill:#4D585A;} </style> <g> <rect x="48.4" y="24" transform="matrix(0.9336 -0.3584 0.3584 0.9336 -28.1325 44.8701)" class="st0" width="117.2" height="148.7"></rect> <polygon class="st1" points="77.9,130.8 70.9,127.7 69,132.7 81.2,138.1 89.1,113 84.2,111.1 "></polygon> <polygon class="st1" points="89.2,160.1 82.2,157 80.3,162 92.4,167.4 100.4,142.3 95.4,140.4 "></polygon> <rect x="97.8" y="99.8" transform="matrix(0.9336 -0.3584 0.3584 0.9336 -28.0427 52.4639)" class="st2" width="59.4" height="4.1"></rect> <rect x="101.5" y="109.4" transform="matrix(0.9336 -0.3584 0.3584 0.9336 -31.2366 54.4211)" class="st2" width="59.4" height="4.1"></rect> <rect x="109.1" y="129.1" transform="matrix(0.9336 -0.3584 0.3584 0.9336 -37.7939 58.4394)" class="st2" width="59.4" height="4.1"></rect> <rect x="112.7" y="138.7" transform="matrix(0.9336 -0.3584 0.3584 0.9336 -40.9899 60.398)" class="st2" width="59.4" height="4.1"></rect> <polygon class="st2" points="129.8,25.7 90.9,40.6 95.2,51.9 134.1,37 129.8,25.7 "></polygon> <polygon class="st2" points="142.4,58.5 103.4,73.4 107.8,84.7 146.7,69.8 142.4,58.5 "></polygon> <polygon class="st2" points="136.1,42.1 97.1,57 101.5,68.3 140.4,53.4 136.1,42.1 "></polygon> <g> <path class="st2" d="M68.9,72.4c5.5-2.1,8.1-8.4,6-14c-2.2-5.6-8.3-8.5-13.8-6.4c-5.5,2.1-8.1,8.4-6,14 C57.3,71.6,63.4,74.5,68.9,72.4"></path> <path class="st2" d="M59.8,78.6c0,0-10,4-6.3,13.5l4.5,11.7l19.6-7.5L59.8,78.6z"></path> <path class="st2" d="M98.1,88.4l-4.5-11.7c-3.7-9.5-13.7-5.8-13.7-5.8l-1.4,25L98.1,88.4z"></path> </g> <polygon class="st2" points="70.1,75.4 62.2,78.5 77,93.4 78,72.4 "></polygon> <path class="st2" d="M77,196l117.5-45.1L137.3,2L19.8,47.1L77,196z M27.5,50.6L134,9.8l52.8,137.6L80.3,188.2L27.5,50.6z"></path> </g> </svg> 