<?xml version="1.0" encoding="UTF-8"?> <!-- Generator: Adobe Illustrator 24.1.2, SVG Export Plug-In . SVG Version: 6.00 Build 0) --> <svg xmlns="http://www.w3.org/2000/svg" xmlns:xlink="http://www.w3.org/1999/xlink" version="1.1" id="Layer_1" x="0px" y="0px" viewBox="0 0 215 200" style="enable-background:new 0 0 215 200;" xml:space="preserve"> <style type="text/css"> .st0{fill:#4D585A;} .st1{fill:#FFFFFF;} </style> <g> <path class="st0" d="M47,111.6c-19.9-19.9-19.9-52.3,0-72.2s52.3-19.9,72.2,0c18.9,18.9,19.9,49,2.9,69l-6.1,6.1 C96,131.5,65.9,130.5,47,111.6 M201,167.1l-37.2-37.2l-3.5-3.5c-4-4-10.5-4-14.5,0l-1.5,1.5l-9.2-9.2l0,0 c22.1-26.5,20.7-66.1-4.1-91c-26.3-26.3-69.2-26.3-95.5,0C9,54.1,9,97,35.4,123.3c2,2,4,3.8,6.2,5.5c0.1,0.1,0.3,0.2,0.4,0.3 c24.9,19.2,60.2,18.6,84.5-1.6l9.2,9.2l-0.8,0.8l-0.6,0.6c-4,4-4,10.5,0,14.5l3.5,3.5l37.2,37.2c0.9,0.9,1.9,1.6,2.9,2 c0.3,0.1,0.6,0.3,0.9,0.4c0.2,0.1,0.3,0.1,0.5,0.2c1,0.3,1.9,0.4,2.9,0.4c2.6,0,5.2-1,7.2-3l11.6-11.6 C204.9,177.6,204.9,171.1,201,167.1"></path> <path class="st1" d="M106.6,43.6l-0.6,0.4c-2,1-4,2-6.1,2.9c-5-3.3-10.7-5-16.8-5c-17.3,0-31.4,14-31.4,31.4 c0,7.3,2.6,14.5,7.3,20.1l1.2,1.3l-5,4.3l-1.1-1.3c-5.7-6.8-8.9-15.5-8.9-24.4c0-21,17.1-38,38-38C91.6,35.3,100,38.2,106.6,43.6"></path> <path class="st1" d="M121,73.2v1.8h-6.6v-1.8c0-4.5-1-9-2.9-13.2l4.1-6.1C119.2,59.8,121,66.4,121,73.2"></path> <path class="st1" d="M61.5,101.9c0.3-1.5,1.7-2.6,3.2-2.3c1.5,0.3,2.6,1.7,2.3,3.2c-0.3,1.5-1.7,2.6-3.2,2.3 C62.2,104.9,61.2,103.5,61.5,101.9"></path> <path class="st1" d="M114.9,81.3c3.1,0,5.6,2.5,5.6,5.6c0,3.1-2.5,5.6-5.6,5.6c-3.1,0-5.6-2.5-5.6-5.6 C109.3,83.8,111.8,81.3,114.9,81.3"></path> <path class="st1" d="M104.7,98.5c-0.7-0.5-1.6-0.7-2.4-0.7c-1.5,0-2.9,0.7-3.7,2c-1.3,2.1-0.7,4.8,1.2,6.1c0.7,0.5,1.6,0.7,2.4,0.7 c1.5,0,2.9-0.7,3.7-2C107.2,102.5,106.8,99.8,104.7,98.5"></path> <path class="st1" d="M83.3,104c-0.6,0-1.1,0.1-1.6,0.4c-1,0.4-1.7,1.2-2.1,2.2c-0.4,1-0.4,2.1,0,3.1c0.6,1.5,2.1,2.4,3.7,2.4 c0.6,0,1.1-0.1,1.6-0.4c1-0.4,1.7-1.2,2.1-2.2c0.4-1,0.4-2.1,0-3.1C86.2,105,84.9,104,83.3,104"></path> <path class="st0" d="M113,49.5c0.2-0.5,0.4-1.2,0-1.7c0-0.1-0.1-0.1-0.1-0.2l-0.2-0.2c-0.5-0.5-1.3-0.6-2.1-0.4 c-0.1,0-0.2,0.1-0.4,0.1l-1.6,0.9c-3.3,1.6-6.6,3.2-9.8,4.8c-1.8,0.9-3.7,1.8-5.5,2.7c-4.8,2.3-9.6,4.6-14.4,7.1 c-4.9,2.4-7.2,7.8-5.6,13.1c1.5,4.8,5.7,7.8,10.6,7.8c0.5,0,0.9,0,1.3-0.1c3.3-0.4,6.1-2.2,8.3-5.4c4.3-6.2,8.7-12.5,12.9-18.8 L113,49.5z"></path> </g> </svg> 