<?xml version="1.0" encoding="UTF-8"?> <!-- Generator: Adobe Illustrator 24.1.2, SVG Export Plug-In . SVG Version: 6.00 Build 0) --> <svg xmlns="http://www.w3.org/2000/svg" xmlns:xlink="http://www.w3.org/1999/xlink" version="1.1" id="Layer_1" x="0px" y="0px" viewBox="0 0 215 200" style="enable-background:new 0 0 215 200;" xml:space="preserve"> <style type="text/css"> .st0{fill:#4D585A;} .st1{fill:#FFFFFF;} </style> <g> <polygon class="st0" points="166.6,47.7 166.6,43.3 144.2,43.3 144.2,99.7 130,99.7 130,104.2 144.2,104.2 144.2,160.6 166.6,160.6 166.6,156.2 148.7,156.2 148.7,104.2 166.6,104.2 166.6,99.7 148.7,99.7 148.7,47.7 "></polygon> <g> <path class="st0" d="M107.2,79.2c-5.4,0-9.8,4.4-9.8,9.8c0,5.4,4.4,9.8,9.8,9.8c5.4,0,9.8-4.4,9.8-9.8 C117,83.6,112.6,79.2,107.2,79.2"></path> <path class="st0" d="M116.2,102.3H98.1c-4.6,0-8.5,3.7-8.5,8.5v8h35.1v-8C124.7,106.1,121,102.3,116.2,102.3"></path> <path class="st1" d="M189.5,79.2c-5.4,0-9.8,4.4-9.8,9.8c0,5.4,4.4,9.8,9.8,9.8c5.4,0,9.8-4.4,9.8-9.8 C199.3,83.6,194.9,79.2,189.5,79.2"></path> <path class="st1" d="M198.5,102.3h-18.1c-4.6,0-8.5,3.7-8.5,8.5v8H207v-8C207,106.1,203.3,102.3,198.5,102.3"></path> <path class="st0" d="M189.5,21.3c-5.4,0-9.8,4.4-9.8,9.8c0,5.4,4.4,9.8,9.8,9.8c5.4,0,9.8-4.4,9.8-9.8 C199.3,25.7,194.9,21.3,189.5,21.3"></path> <path class="st0" d="M198.5,44.4h-18.1c-4.6,0-8.5,3.7-8.5,8.5v8H207v-8C207,48.2,203.3,44.4,198.5,44.4"></path> <path class="st1" d="M189.5,137.1c-5.4,0-9.8,4.4-9.8,9.8c0,5.4,4.4,9.8,9.8,9.8c5.4,0,9.8-4.4,9.8-9.8 C199.3,141.4,194.9,137.1,189.5,137.1"></path> <path class="st1" d="M198.5,160.2h-18.1c-4.6,0-8.5,3.7-8.5,8.5v8H207v-8C207,163.9,203.3,160.2,198.5,160.2"></path> </g> <polygon class="st0" points="47.7,47.7 47.7,43.3 70.1,43.3 70.1,99.7 84.3,99.7 84.3,104.2 70.1,104.2 70.1,160.6 47.7,160.6 47.7,156.2 65.7,156.2 65.7,104.2 47.7,104.2 47.7,99.7 65.7,99.7 65.7,47.7 "></polygon> <path class="st0" d="M24.8,79.2c5.4,0,9.8,4.4,9.8,9.8c0,5.4-4.4,9.8-9.8,9.8c-5.4,0-9.8-4.4-9.8-9.8C15,83.6,19.4,79.2,24.8,79.2"></path> <path class="st0" d="M15.8,102.3h18.1c4.6,0,8.5,3.7,8.5,8.5v8H7.3v-8C7.3,106.1,11,102.3,15.8,102.3"></path> <path class="st1" d="M24.8,21.3c5.4,0,9.8,4.4,9.8,9.8c0,5.4-4.4,9.8-9.8,9.8c-5.4,0-9.8-4.4-9.8-9.8C15,25.7,19.4,21.3,24.8,21.3"></path> <path class="st1" d="M15.8,44.4h18.1c4.6,0,8.5,3.7,8.5,8.5v8H7.3v-8C7.3,48.2,11,44.4,15.8,44.4"></path> <path class="st0" d="M24.8,137.1c5.4,0,9.8,4.4,9.8,9.8c0,5.4-4.4,9.8-9.8,9.8c-5.4,0-9.8-4.4-9.8-9.8 C15,141.4,19.4,137.1,24.8,137.1"></path> <path class="st0" d="M15.8,160.2h18.1c4.6,0,8.5,3.7,8.5,8.5v8H7.3v-8C7.3,163.9,11,160.2,15.8,160.2"></path> </g> </svg> 