<?xml version="1.0" encoding="UTF-8"?> <!-- Generator: Adobe Illustrator 24.1.2, SVG Export Plug-In . SVG Version: 6.00 Build 0) --> <svg xmlns="http://www.w3.org/2000/svg" xmlns:xlink="http://www.w3.org/1999/xlink" version="1.1" id="Layer_1" x="0px" y="0px" viewBox="0 0 200 200" style="enable-background:new 0 0 200 200;" xml:space="preserve"> <style type="text/css"> .st0{fill:#FFFFFF;} .st1{fill:#FDC533;} .st2{fill:#525757;} </style> <circle class="st0" cx="100" cy="100" r="100"></circle> <g> <g> <path class="st1" d="M62.3,68c0,0,28.6,6.1,47.1,3.8c18.4-2.3,33-5.3,33-5.3l-33.8,41.9l-2,28.2H89.5l-0.9-35.1L62.3,68z"></path> </g> <path class="st2" d="M154,52.3c0.7,1.3,1.1,2.8,1.1,4.3c0,1.5-0.4,3-1.1,4.3c-1.1,2.1-2.7,3.9-4.7,5.3l-1.1,0.7 c-0.8,1.4-1.7,2.7-2.7,3.9c-10.2,13.4-20.9,26.3-31.9,39.1l-0.1,6.8c-0.1,3.2-0.2,11.1-0.3,14.3l0.1,5.1c0.1,2.3-1.7,4.1-4,4.2 c0,0,0,0,0,0H109c-6,0.1-11.9,0.2-17.9,0.1l0,0c-2.4,0-4.3-1.9-4.3-4.3c0,0,0,0,0,0c0-7.3,0.2-19.3,0.3-26.5L69,86.7 c-4.9-6-9.3-12.4-13.2-19.2c-1.4-0.8-2.7-1.6-4-2.7c-1.7-1.4-3-3.1-3.8-5.1c-0.4-1.1-0.5-2.2-0.4-3.4c0.2-1,0.6-2,1.2-2.8 c1.1-1.3,5-3.5,6.6-3.9c1.8-0.5,2.4-0.5,2.3,0.8c-0.1,0.9,1.1,0.7,0.5,1.4c-0.5,0.4-4.1,1.1-4.4,4.1c0,2,2,3.1,3.4,3.8 c4.3,2.3,8.9,3.9,13.7,4.9c10.1,2,20.2,3.6,30.5,4.6c5.7-0.2,11.4-0.8,17.1-1.6c5.6-0.8,11-2.1,16.4-3.7c3.2-0.9,6.2-2.2,9.1-3.8 c1.2-0.6,2.2-1.5,3.1-2.5c0.3-0.3,0.5-0.7,0.6-1.1c0.5-4.6-4.1-4.9-4.5-6c-0.5-0.9,2.3-0.7,2.6-1.7c0.4-1,0-1.7,1.5-1.3 C149.6,48.2,152.9,50.2,154,52.3z M119,90.5c5-6.1,10.3-11.9,15.6-17.9c-5.6,1.5-11.4,2.4-17.2,2.8c-2.3,0.2-4.5,0.3-6.8,0.3 c-9.1,0.9-18.2,0.8-27.2-0.4c-4.5-0.6-9-1.5-13.4-2.6c-1.2-0.3-2.4-0.6-3.5-1c9.3,11.2,18.9,22.4,28.1,33.6l0.1,0.1 c0.6,0.8,1,1.8,1,2.8c-0.1,6.6-0.3,17.9-0.6,24.5c2.1,0.1,4.2,0.3,6.2,0.4l4.7-0.1c-0.1-6.7-0.3-18.1-0.4-24.8 c0-0.8,0.2-1.6,0.7-2.2l0.1-0.1C110.5,100.9,114.8,95.7,119,90.5z"></path> <g> <polygon class="st0" points="53.4,42.7 54.2,41.6 63,21.6 70.2,18.7 77.4,22.9 85,41.6 85.8,42.7 75.9,51.8 60.5,51 "></polygon> <g> <path class="st2" d="M72.8,35.1L72.8,35.1v-3.2h-6.4v3.2l0,0c0,1.8,3.2,4.1,3.2,4.1S72.8,36.8,72.8,35.1z"></path> <path class="st2" d="M85,41.6c0-3.4-0.8-22.6-11-23.9c0-1.4-2-2.5-4.4-2.5s-4.4,1.1-4.4,2.5C55,19,54.2,38.2,54.2,41.6 c3,2.3,8.8,3.9,15.4,3.9S82,43.9,85,41.6z M70.2,20.7v0.4h-0.4v0.4h-0.4v-0.4H69v-0.4h0.4v-0.4h0.4v0.4H70.2z M70.2,22.3 c0,0.3-0.3,0.6-0.6,0.6S69,22.6,69,22.3s0.3-0.6,0.6-0.6S70.2,21.9,70.2,22.3z M66.9,22.7c0.7-0.2,2,0.4,2.5,0.4h0.3 c0.5,0,1.9-0.6,2.5-0.4c0.8,0.2,0.5,1.4,0.5,1.4c0,0-0.7,3-0.7,3h-5c0,0-0.7-3-0.7-3C66.4,24,66.1,22.9,66.9,22.7z M62.3,42v-4.3 l-3-3l3-3v-4.3h14.5v4.3l3,3l-3,3V42h-4.3l-3,3l-3-3L62.3,42L62.3,42z"></path> <path class="st2" d="M76.8,34.9c0-4-3.2-7.2-7.2-7.2s-7.2,3.2-7.2,7.2s3.2,7.2,7.2,7.2S76.8,38.9,76.8,34.9z M64.6,34.9 c0-2.7,2.2-5,5-5s5,2.2,5,5s-2.2,5-5,5S64.6,37.6,64.6,34.9z"></path> <path class="st2" d="M53.4,42.7l-2,1.3c0,0-3.1,7.1,17.2,14.1c0,0,0.2,0.2,1,0.2c0.7,0,1-0.2,1-0.2C90.9,51.1,87.8,44,87.8,44 l-2-1.3c-3.3,2.5-9.2,4.2-16.2,4.2S56.7,45.2,53.4,42.7z"></path> </g> </g> <g> <polygon class="st0" points="115,42.7 115.8,41.6 124.6,21.6 131.8,18.7 138.9,22.9 146.6,41.6 147.4,42.7 137.4,51.8 122.1,51 "></polygon> <g> <path class="st2" d="M134.4,35.1L134.4,35.1v-3.2H128v3.2l0,0c0,1.8,3.2,4.1,3.2,4.1S134.4,36.8,134.4,35.1z"></path> <path class="st2" d="M146.6,41.6c0-3.4-0.8-22.6-11-23.9c0-1.4-2-2.5-4.4-2.5s-4.4,1.1-4.4,2.5c-10.1,1.3-10.9,20.4-11,23.9 c3,2.3,8.8,3.9,15.4,3.9C137.7,45.5,143.6,43.9,146.6,41.6z M131.8,20.7v0.4h-0.4v0.4H131v-0.4h-0.4v-0.4h0.4v-0.4h0.4v0.4H131.8 z M131.8,22.3c0,0.3-0.3,0.6-0.6,0.6c-0.3,0-0.6-0.3-0.6-0.6s0.3-0.6,0.6-0.6C131.5,21.6,131.8,21.9,131.8,22.3z M128.5,22.7 c0.7-0.2,2,0.4,2.5,0.4h0.3c0.5,0,1.9-0.6,2.5-0.4c0.8,0.2,0.5,1.4,0.5,1.4c0,0-0.7,3-0.7,3h-5c0,0-0.7-3-0.7-3 C128,24,127.7,22.9,128.5,22.7z M123.9,42v-4.3l-3-3l3-3v-4.3h14.5v4.3l3,3l-3,3V42h-4.3l-3,3l-3-3L123.9,42L123.9,42z"></path> <path class="st2" d="M138.3,34.9c0-4-3.2-7.2-7.2-7.2c-4,0-7.2,3.2-7.2,7.2s3.2,7.2,7.2,7.2C135.1,42.1,138.3,38.9,138.3,34.9z M126.2,34.9c0-2.7,2.2-5,5-5s5,2.2,5,5s-2.2,5-5,5S126.2,37.6,126.2,34.9z"></path> <path class="st2" d="M115,42.7l-2,1.3c0,0-3.1,7.1,17.2,14.1c0,0,0.2,0.2,1,0.2s1-0.2,1-0.2c20.4-6.9,17.3-14.1,17.3-14.1l-2-1.3 c-3.3,2.5-9.2,4.2-16.2,4.2C124.2,46.8,118.3,45.2,115,42.7z"></path> </g> </g> <g> <polygon class="st0" points="84.2,52.4 85,51.4 93.8,31.4 101,28.4 108.1,32.6 115.8,51.4 116.6,52.4 106.6,61.6 91.3,60.7 "></polygon> <g> <path class="st2" d="M103.6,44.8L103.6,44.8v-3.2h-6.4v3.2l0,0c0,1.8,3.2,4.1,3.2,4.1S103.6,46.6,103.6,44.8z"></path> <path class="st2" d="M115.8,51.4c0-3.4-0.8-22.6-11-23.9c0-1.4-2-2.5-4.4-2.5c-2.4,0-4.4,1.1-4.4,2.5C85.8,28.8,85,47.9,85,51.4 c3,2.3,8.8,3.9,15.4,3.9C106.9,55.2,112.8,53.7,115.8,51.4z M101,30.5v0.4h-0.4v0.4h-0.4v-0.4h-0.4v-0.4h0.4v-0.4h0.4v0.4H101z M101,32c0,0.3-0.3,0.6-0.6,0.6s-0.6-0.3-0.6-0.6s0.3-0.6,0.6-0.6S101,31.7,101,32z M97.7,32.4c0.7-0.2,2,0.4,2.5,0.4h0.3 c0.5,0,1.9-0.6,2.5-0.4c0.8,0.2,0.5,1.4,0.5,1.4c0,0-0.7,3-0.7,3h-5c0,0-0.7-3-0.7-3C97.2,33.8,96.9,32.7,97.7,32.4z M93.1,51.8 v-4.3l-3-3l3-3v-4.3h14.5v4.3l3,3l-3,3v4.3h-4.3l-3,3l-3-3L93.1,51.8L93.1,51.8z"></path> <path class="st2" d="M107.5,44.7c0-4-3.2-7.2-7.2-7.2s-7.2,3.2-7.2,7.2s3.2,7.2,7.2,7.2S107.5,48.6,107.5,44.7z M95.4,44.7 c0-2.7,2.2-5,5-5s5,2.2,5,5s-2.2,5-5,5S95.4,47.4,95.4,44.7z"></path> <path class="st2" d="M84.2,52.4l-2,1.3c0,0-3.1,7.1,17.2,14.1c0,0,0.2,0.2,1,0.2c0.7,0,1-0.2,1-0.2c20.4-6.9,17.3-14.1,17.3-14.1 l-2-1.3c-3.3,2.5-9.2,4.2-16.2,4.2C93.4,56.6,87.5,54.9,84.2,52.4z"></path> </g> </g> <g> <polygon class="st0" points="84.2,169.2 85,168.1 93.8,148.2 101,145.2 108.1,149.4 115.8,168.1 116.6,169.2 106.6,178.4 91.3,177.5 "></polygon> <g> <path class="st2" d="M103.6,161.6L103.6,161.6v-3.2h-6.4v3.2l0,0c0,1.8,3.2,4.1,3.2,4.1S103.6,163.4,103.6,161.6z"></path> <path class="st2" d="M115.8,168.1c0-3.4-0.8-22.6-11-23.9c0-1.4-2-2.5-4.4-2.5c-2.4,0-4.4,1.1-4.4,2.5 c-10.1,1.3-10.9,20.4-11,23.9c3,2.3,8.8,3.9,15.4,3.9C106.9,172,112.8,170.4,115.8,168.1z M101,147.2v0.4h-0.4v0.4h-0.4v-0.4 h-0.4v-0.4h0.4v-0.4h0.4v0.4H101z M101,148.8c0,0.3-0.3,0.6-0.6,0.6s-0.6-0.3-0.6-0.6c0-0.3,0.3-0.6,0.6-0.6S101,148.4,101,148.8 z M97.7,149.2c0.7-0.2,2,0.4,2.5,0.4h0.3c0.5,0,1.9-0.6,2.5-0.4c0.8,0.2,0.5,1.4,0.5,1.4c0,0-0.7,3-0.7,3h-5c0,0-0.7-3-0.7-3 C97.2,150.5,96.9,149.4,97.7,149.2z M93.1,168.6v-4.3l-3-3l3-3V154h14.5v4.3l3,3l-3,3v4.3h-4.3l-3,3l-3-3L93.1,168.6L93.1,168.6z "></path> <path class="st2" d="M107.5,161.4c0-4-3.2-7.2-7.2-7.2s-7.2,3.2-7.2,7.2c0,4,3.2,7.2,7.2,7.2S107.5,165.4,107.5,161.4z M95.4,161.4c0-2.7,2.2-5,5-5s5,2.2,5,5s-2.2,5-5,5S95.4,164.2,95.4,161.4z"></path> <path class="st2" d="M84.2,169.2l-2,1.3c0,0-3.1,7.1,17.2,14.1c0,0,0.2,0.2,1,0.2c0.7,0,1-0.2,1-0.2 c20.4-6.9,17.3-14.1,17.3-14.1l-2-1.3c-3.3,2.5-9.2,4.2-16.2,4.2C93.4,173.4,87.5,171.7,84.2,169.2z"></path> </g> </g> </g> </svg> 