<?xml version="1.0" encoding="UTF-8"?> <!-- Generator: Adobe Illustrator 24.1.2, SVG Export Plug-In . SVG Version: 6.00 Build 0) --> <svg xmlns="http://www.w3.org/2000/svg" xmlns:xlink="http://www.w3.org/1999/xlink" version="1.1" id="Layer_1" x="0px" y="0px" viewBox="0 0 200 200" style="enable-background:new 0 0 200 200;" xml:space="preserve"> <style type="text/css"> .st0{fill:#FFFFFF;} .st1{fill:#525758;} .st2{fill:#FCC433;} </style> <circle class="st0" cx="100" cy="100" r="100"></circle> <g> <g> <path class="st1" d="M135.4,75.1h-7.9l-0.2-0.5c-2.6-6.8-9.2-11.4-16.6-11.4H89.3c-7.3,0-14,4.6-16.6,11.4l-0.2,0.5h-7.9 c-11.3,0-20.5,9.2-20.5,20.5v43.3c0,11.3,9.2,20.5,20.5,20.5h70.8c11.3,0,20.5-9.2,20.5-20.5V95.5 C155.9,84.2,146.7,75.1,135.4,75.1z"></path> <circle class="st0" cx="100.4" cy="116.8" r="21.1"></circle> <path class="st2" d="M100,90.8c-14.6,0-26.5,11.9-26.5,26.5c0,14.6,11.9,26.5,26.5,26.5s26.5-11.9,26.5-26.5 C126.5,102.7,114.6,90.8,100,90.8z M100,134.8c-9.7,0-17.5-7.9-17.5-17.5s7.9-17.5,17.5-17.5s17.5,7.9,17.5,17.5 S109.7,134.8,100,134.8z"></path> <path class="st1" d="M100.4,52.2c2.5,0,4.5-2,4.5-4.5V32c0-2.5-2-4.5-4.5-4.5s-4.5,2-4.5,4.5v15.8C95.9,50.2,97.9,52.2,100.4,52.2 z"></path> <path class="st1" d="M129.9,60.7L141,49.5c0.8-0.8,1.3-2,1.3-3.2c0-1.2-0.5-2.3-1.3-3.2c-0.9-0.9-2-1.3-3.2-1.3s-2.3,0.4-3.2,1.3 l-11.2,11.2c-0.8,0.8-1.3,2-1.3,3.2c0,1.2,0.5,2.3,1.3,3.2C125.2,62.3,128.2,62.3,129.9,60.7z"></path> <path class="st1" d="M70.9,60.7c1.7,1.7,4.6,1.7,6.3,0c1.7-1.7,1.7-4.6,0-6.3L66.1,43.2c-0.9-0.9-2-1.3-3.2-1.3s-2.3,0.4-3.2,1.3 c-1.7,1.7-1.7,4.6,0,6.3L70.9,60.7z"></path> </g> </g> </svg> 