<?xml version="1.0" encoding="UTF-8"?> <!-- Generator: Adobe Illustrator 24.1.2, SVG Export Plug-In . SVG Version: 6.00 Build 0) --> <svg xmlns="http://www.w3.org/2000/svg" xmlns:xlink="http://www.w3.org/1999/xlink" version="1.1" id="Layer_1" x="0px" y="0px" viewBox="0 0 615 615" style="enable-background:new 0 0 615 615;" xml:space="preserve"> <style type="text/css"> .st0{fill:#FFFFFF;} .st1{fill:#525758;} .st2{font-family:'Montserrat-Bold';} .st3{font-size:26px;} .st4{font-size:19px;} .st5{font-size:23px;} </style> <g> <g> <path class="st0" d="M307.1,432.9c69,0,125-56,125-125c0-69-56-125-125-125s-125,56-125,125C182.1,377,238,432.9,307.1,432.9"></path> <path class="st1" d="M307.1,580.2c-72.7,0-141.1-28.3-192.5-79.8c-51.4-51.4-79.8-119.8-79.8-192.5c0-72.7,28.3-141.1,79.8-192.5 C165.9,64,234.3,35.7,307.1,35.7S448.2,64,499.6,115.4c51.4,51.4,79.8,119.8,79.8,192.5c0,72.7-28.3,141.1-79.8,192.5 C448.2,551.9,379.8,580.2,307.1,580.2z M307.1,87.7c-58.8,0-114.1,22.9-155.7,64.5c-41.6,41.6-64.5,96.9-64.5,155.7 s22.9,114.1,64.5,155.7c41.6,41.6,96.9,64.5,155.7,64.5c58.8,0,114.1-22.9,155.7-64.5c41.6-41.6,64.5-96.9,64.5-155.7 c0-58.8-22.9-114.1-64.5-155.7C421.2,110.6,365.9,87.7,307.1,87.7z"></path> </g> <g> <g> <rect x="92.4" y="420" transform="matrix(0.7071 -0.7071 0.7071 0.7071 -276.3001 249.5606)" class="st1" width="141.5" height="76.5"></rect> <polygon class="st1" points="238.4,382.9 173.9,369.1 252.3,447.5 "></polygon> </g> <g> <rect x="380.3" y="119.3" transform="matrix(0.7071 -0.7071 0.7071 0.7071 20.6671 365.0857)" class="st1" width="141.5" height="76.5"></rect> <polygon class="st1" points="375.7,233 440.2,246.8 361.8,168.4 "></polygon> </g> <g> <rect x="414.1" y="387.6" transform="matrix(0.7071 -0.7071 0.7071 0.7071 -191.5603 454.1363)" class="st1" width="76.5" height="141.5"></rect> <polygon class="st1" points="377,382.9 363.2,447.5 441.6,369.1 "></polygon> </g> <g> <rect x="123.5" y="86.9" transform="matrix(0.7071 -0.7071 0.7071 0.7071 -64.073 160.5099)" class="st1" width="76.5" height="141.5"></rect> <polygon class="st1" points="237.1,233 250.9,168.4 172.5,246.8 "></polygon> </g> </g> <g> <g> <text transform="matrix(1 0 0 1 261.1126 254.6493)"><tspan x="0" y="0" class="st1 st2 st3">People</tspan><tspan x="-24.4" y="31.2" class="st1 st2 st3">Protection</tspan><tspan x="-12.9" y="73.5" class="st1 st2 st3">Reduced</tspan><tspan x="-17.7" y="104.7" class="st1 st2 st3">theft/loss</tspan><tspan x="-9.2" y="127.5" class="st1 st2 st4">(shrinkage)</tspan></text> </g> </g> <g> <g> <path class="st0" d="M104.9,201.9c55.2,0,100-44.8,100-100c0-55.2-44.8-100-100-100s-100,44.8-100,100 C4.9,157.1,49.7,201.9,104.9,201.9"></path> <text transform="matrix(1 0 0 1 46.6737 80.532)"><tspan x="0" y="0" class="st1 st2 st5">Real-time</tspan><tspan x="35.9" y="28" class="st1 st2 st5">risk</tspan><tspan x="-17.5" y="56" class="st1 st2 st5">assessments</tspan></text> </g> <g> <path class="st0" d="M509.2,201.9c55.2,0,100-44.8,100-100c0-55.2-44.8-100-100-100s-100,44.8-100,100 C409.2,157.1,454,201.9,509.2,201.9"></path> <text transform="matrix(1 0 0 1 480.795 80.532)"><tspan x="0" y="0" class="st1 st2 st5">High</tspan><tspan x="-39.4" y="28" class="st1 st2 st5">performing</tspan><tspan x="-12.8" y="56" class="st1 st2 st5">people</tspan></text> </g> <g> <path class="st0" d="M104.9,614c55.2,0,100-44.8,100-100c0-55.2-44.8-100-100-100s-100,44.8-100,100 C4.9,569.3,49.7,614,104.9,614"></path> <text transform="matrix(1 0 0 1 37.4163 509.4542)"><tspan x="0" y="0" class="st1 st2 st5">Supporting</tspan><tspan x="-9.4" y="28" class="st1 st2 st5">technologies</tspan></text> </g> <g> <path class="st0" d="M509.2,614c55.2,0,100-44.8,100-100c0-55.2-44.8-100-100-100s-100,44.8-100,100 C409.2,569.3,454,614,509.2,614"></path> <text transform="matrix(1 0 0 1 466.5235 509.4542)"><tspan x="0" y="0" class="st1 st2 st5">Robust</tspan><tspan x="-37.4" y="28" class="st1 st2 st5">management</tspan></text> </g> </g> </g> </svg> 