<?xml version="1.0" encoding="UTF-8"?> <!-- Generator: Adobe Illustrator 24.1.3, SVG Export Plug-In . SVG Version: 6.00 Build 0) --> <svg xmlns="http://www.w3.org/2000/svg" xmlns:xlink="http://www.w3.org/1999/xlink" version="1.1" id="Layer_1" x="0px" y="0px" viewBox="0 0 150 150" style="enable-background:new 0 0 150 150;" xml:space="preserve"> <style type="text/css"> .st0{fill:#FDC533;} .st1{fill:#525758;} </style> <circle class="st0" cx="75" cy="75" r="75"></circle> <g transform="translate(0,-952.36218)"> <path class="st1" d="M26.8,990.6c-1.6,0-2.9,1.3-2.9,2.9c0,1.6,1.3,2.9,2.9,2.9h11.3l10.1,47.7c0.4,1.8,1.6,3.3,3.1,3.3h49 c1.6,0,3-1.4,3-2.9s-1.4-3-3-2.9H53.7l-1.3-5.9h51.8c1.3,0,2.6-1,2.9-2.3l6.9-29.4c0.4-1.7-1.1-3.6-2.9-3.6H45l-1.6-7.5 c-0.3-1.3-1.5-2.3-2.9-2.3L26.8,990.6z M46.2,1006.3h15.3l1.5,8.8H48.1L46.2,1006.3z M67.5,1006.3H86l-1.5,8.8H69L67.5,1006.3z M92,1006.3h15.4l-2.1,8.8H90.6L92,1006.3z M49.3,1021H64l1.5,8.8H51.2L49.3,1021z M70,1021h13.6l-1.5,8.8H71.4L70,1021z M89.6,1021H104l-2.1,8.8H88.1L89.6,1021z M62.1,1051.4c-5.4,0-9.8,4.4-9.8,9.8c0,5.4,4.4,9.8,9.8,9.8c5.4,0,9.8-4.4,9.8-9.8 C71.9,1055.8,67.4,1051.4,62.1,1051.4L62.1,1051.4z M89.5,1051.4c-5.4,0-9.8,4.4-9.8,9.8c0,5.4,4.4,9.8,9.8,9.8s9.8-4.4,9.8-9.8 C99.3,1055.8,94.9,1051.4,89.5,1051.4L89.5,1051.4z M62.1,1057.3c2.2,0,3.9,1.7,3.9,3.9c0,2.2-1.7,3.9-3.9,3.9 c-2.2,0-3.9-1.7-3.9-3.9C58.1,1059,59.9,1057.3,62.1,1057.3z M89.5,1057.3c2.2,0,3.9,1.7,3.9,3.9c0,2.2-1.7,3.9-3.9,3.9 c-2.2,0-3.9-1.7-3.9-3.9C85.6,1059,87.3,1057.3,89.5,1057.3z"></path> </g> </svg> 