<?xml version="1.0" encoding="UTF-8"?> <!-- Generator: Adobe Illustrator 24.1.3, SVG Export Plug-In . SVG Version: 6.00 Build 0) --> <svg xmlns="http://www.w3.org/2000/svg" xmlns:xlink="http://www.w3.org/1999/xlink" version="1.1" id="Layer_1" x="0px" y="0px" viewBox="0 0 150 150" style="enable-background:new 0 0 150 150;" xml:space="preserve"> <style type="text/css"> .st0{fill:#FDC533;} .st1{fill:#525758;} </style> <circle class="st0" cx="75" cy="75" r="75"></circle> <g> <g> <g> <path class="st1" d="M128.7,68.8h-22.3V48.5h7.5c0.7,0,1.3,0.3,1.8,0.8l9.6,11.8C127,63.4,128.2,66.1,128.7,68.8z"></path> </g> <g> <path class="st1" d="M90.6,35v65.4H58.8c-1.1-7.6-7.7-13.5-15.6-13.5s-14.5,5.9-15.6,13.5h-4.7c-1.2,0-2.3-1-2.3-2.3V37.3 c0-1.3,1-2.3,2.3-2.3H90.6z"></path> </g> <g> <path class="st1" d="M128.9,73.4v22.1c0,1.2-0.9,2.2-2.1,2.3l-1,0.1c-2.1-6.5-8.1-10.9-15-10.9c-7.8,0-14.4,5.8-15.5,13.4l-0.2,0 V48.5h6.8v22.6c0,1.2,1,2.3,2.3,2.3H128.9z"></path> </g> </g> <g> <g> <circle class="st1" cx="43.2" cy="102.7" r="11.3"></circle> </g> <g> <path class="st1" d="M122.2,102.7c0,6.2-5.1,11.3-11.3,11.3c-6.2,0-11.3-5.1-11.3-11.3c0-0.4,0-0.7,0.1-1 c0.5-5.8,5.4-10.3,11.2-10.3c5.2,0,9.7,3.5,10.9,8.6C122,100.8,122.2,101.7,122.2,102.7z"></path> </g> </g> </g> </svg> 