<?xml version="1.0" encoding="UTF-8"?> <!-- Generator: Adobe Illustrator 24.1.3, SVG Export Plug-In . SVG Version: 6.00 Build 0) --> <svg xmlns="http://www.w3.org/2000/svg" xmlns:xlink="http://www.w3.org/1999/xlink" version="1.1" id="Layer_1" x="0px" y="0px" viewBox="0 0 150 150" style="enable-background:new 0 0 150 150;" xml:space="preserve"> <style type="text/css"> .st0{fill:#FDC533;} .st1{fill:#525758;} </style> <circle class="st0" cx="75" cy="75" r="75"></circle> <g> <path class="st1" d="M123.1,48.1L108,85.7l7.5,28l8.7-2.3c1.1-0.4,2.2,0.4,2.6,1.5c0.3,1.1-0.4,2.2-1.5,2.5l-21.3,5.7 c-1.1,0.3-2.2-0.4-2.6-1.5c-0.3-1.1,0.4-2.2,1.5-2.6l8.6-2.3L104,86.8L72,61.7c-1.4-1.1-0.9-3.3,0.8-3.7l48-12.8 C122.4,44.7,123.9,46.4,123.1,48.1z M20.8,37.7l15.1,37.6l-7.5,28l-8.6-2.3c-1.1-0.3-2.3,0.4-2.6,1.5c-0.3,1.1,0.4,2.2,1.5,2.6 l21.4,5.6c1.1,0.4,2.2-0.4,2.5-1.5c0.3-1.1-0.4-2.2-1.5-2.5l-8.6-2.4L40,76.4l32-25.1c1.4-1.1,0.9-3.3-0.8-3.7l-48-12.8 C21.5,34.3,20.1,36,20.8,37.7z M90.5,47.4c-0.9,0.7-2.2,0.4-2.9-0.5c-0.6-1-0.4-2.2,0.5-2.9l7.5-5.2c1-0.7,2.2-0.4,2.9,0.5 c0.6,1,0.4,2.2-0.6,2.9L90.5,47.4z M67.5,36.4c0.3,1.1-0.4,2.3-1.5,2.6c-1.1,0.3-2.3-0.4-2.6-1.5l-2.4-8.9 c-0.3-1.1,0.4-2.3,1.5-2.6c1.1-0.3,2.3,0.4,2.6,1.5L67.5,36.4z M80.8,38.3c-0.4,1.1-1.6,1.6-2.6,1.3c-1.1-0.4-1.7-1.6-1.3-2.7 l3.1-8.6c0.4-1.1,1.6-1.7,2.6-1.3c1.1,0.4,1.7,1.5,1.3,2.6C83.9,29.6,80.8,38.3,80.8,38.3z"></path> </g> </svg> 