<?xml version="1.0" encoding="UTF-8"?> <!-- Generator: Adobe Illustrator 24.1.3, SVG Export Plug-In . SVG Version: 6.00 Build 0) --> <svg xmlns="http://www.w3.org/2000/svg" xmlns:xlink="http://www.w3.org/1999/xlink" version="1.1" id="Layer_1" x="0px" y="0px" viewBox="0 0 150 150" style="enable-background:new 0 0 150 150;" xml:space="preserve"> <style type="text/css"> .st0{fill:#FDC533;} .st1{fill:#525758;} </style> <circle class="st0" cx="75" cy="75" r="75"></circle> <g> <path class="st1" d="M84.1,99.3H66.3c-1,0-1.9,0.8-1.9,1.9v12.9h3.8V103h14.1v11.1H86v-12.9C86,100.2,85.1,99.3,84.1,99.3z"></path> <path class="st1" d="M19,70.5v27.3c0,10.1,22,15.6,40.9,17.4c0.5,0.1,1.1-0.1,1.4-0.5c0.4-0.4,0.6-0.9,0.6-1.4V96.9h26.5V113 c0,0.5,0.2,1,0.6,1.4c0.4,0.3,0.8,0.5,1.3,0.5h0.1c9.7-0.7,19.3-2.7,28.5-6c8.1-3.1,12.4-7.1,12.4-11.5V71.3 c-9.7,10.5-39,13.4-55.9,13.4C58.2,84.7,27.9,81.5,19,70.5z"></path> <path class="st1" d="M69.9,63.1h3.3V45.9c-3.7,0-7.4,0.2-11,0.5L69.9,63.1z"></path> <path class="st1" d="M65.8,63.2l-7.7-16.5c-5.3,0.5-10.5,1.3-15.7,2.5l16.2,14.5C61,63.5,63.3,63.3,65.8,63.2z"></path> <path class="st1" d="M76.9,45.9v17.2c1.4,0,2.8,0,4.1,0l7.8-16.8C84.9,46.1,81,45.9,76.9,45.9z"></path> <path class="st1" d="M92.2,63.7l16.4-14.5c-5.2-1.1-10.4-2-15.7-2.5l-7.7,16.5C87.6,63.4,90,63.5,92.2,63.7z"></path> <path class="st1" d="M52.8,64.4h0.8L38,50.3c-5.3,1.2-10.2,3.5-14.6,6.6L45.1,66C47.6,65.2,50.2,64.6,52.8,64.4z"></path> <path class="st1" d="M127.6,56.9c-4.4-3.1-9.3-5.4-14.6-6.6L97.2,64.4h0.3c2.8,0.3,5.5,0.9,8.1,1.8L127.6,56.9z"></path> <path class="st1" d="M108.3,69.1L108.3,69.1c0,2-1.8,3.6-10.8,4.8c-7.4,0.9-14.9,1.3-22.3,1.2c-7.5,0.1-14.9-0.3-22.3-1.2 c-8.9-1.2-10.8-2.8-10.8-4.8v-0.2l-21.4-9c-0.8,1.2-1.2,2.5-1.2,3.9c0,11.6,28.8,18,56,18s55.9-6.3,55.9-17.9 c0-1.4-0.4-2.7-1.2-3.9L108.3,69.1z"></path> <ellipse class="st1" cx="75.2" cy="69.1" rx="27.7" ry="2.3"></ellipse> <path class="st1" d="M28.9,48.7l11.5-3.9c1-0.4,1.5-1.5,1.1-2.5c-0.2-0.5-0.6-0.9-1.1-1.1l-12.8-4.7c-0.6-0.2-1.2-0.1-1.7,0.2 c-0.5,0.4-0.8,0.9-0.8,1.5v15.6c1.3-0.7,2.6-1.4,3.9-1.9v-3.2H28.9z"></path> <path class="st1" d="M52.2,46v-4.8l11.5-3.9c0.8-0.3,1.3-1,1.3-1.8s-0.5-1.5-1.2-1.8L50.9,29c-0.6-0.2-1.2-0.1-1.7,0.2 c-0.5,0.3-0.8,0.9-0.8,1.5v15.7L52.2,46z"></path> <path class="st1" d="M77,44.4v-6.5l14.2-5c1-0.4,1.5-1.4,1.1-2.4c-0.2-0.5-0.6-0.9-1.1-1.1l-15.4-5.6c-1-0.3-2.1,0.2-2.4,1.2 c-0.1,0.2-0.1,0.4-0.1,0.6v18.8H77L77,44.4z"></path> <path class="st1" d="M101.9,42.7l11.5-3.9c1-0.4,1.5-1.4,1.1-2.4c-0.2-0.5-0.6-0.9-1.1-1.1l-12.7-4.7c-0.6-0.2-1.2-0.1-1.7,0.2 c-0.5,0.4-0.8,0.9-0.8,1.5v13.6c1.3,0.1,2.5,0.3,3.8,0.5v-3.7H101.9z"></path> <path class="st1" d="M136.8,42.7L124,38.1c-0.6-0.2-1.2-0.1-1.7,0.2c-0.5,0.4-0.8,0.9-0.8,1.5v11.8c1.3,0.5,2.6,1.2,3.8,1.9v-3.3 l11.5-3.9c1-0.4,1.5-1.4,1.1-2.4C137.7,43.4,137.3,42.9,136.8,42.7L136.8,42.7z"></path> </g> </svg> 