<?xml version="1.0" encoding="UTF-8"?> <!-- Generator: Adobe Illustrator 24.1.3, SVG Export Plug-In . SVG Version: 6.00 Build 0) --> <svg xmlns="http://www.w3.org/2000/svg" xmlns:xlink="http://www.w3.org/1999/xlink" version="1.1" id="Layer_1" x="0px" y="0px" viewBox="0 0 150 150" style="enable-background:new 0 0 150 150;" xml:space="preserve"> <style type="text/css"> .st0{fill:#FDC533;} .st1{fill:#525758;} </style> <circle class="st0" cx="75" cy="75" r="75"></circle> <g> <path class="st1" d="M90.4,81.7c0,1.7-1.3,3-3,3h-6.5v6.5c0,1.7-1.3,3-3,3h-5.8c-1.7,0-3-1.3-3-3v-6.5h-6.5c-1.7,0-3-1.3-3-3v-5.8 c0-1.7,1.3-3,3-3h6.5v-6.5c0-1.7,1.3-3,3-3h5.8c1.7,0,3,1.3,3,3v6.5h6.5c1.7,0,3,1.3,3,3V81.7z"></path> <g> <path class="st1" d="M86,26.6H63.8c-7.3,0-13.3,5.9-13.3,13.2h7.8c0-3,2.4-5.4,5.5-5.4H86c3,0,5.5,2.4,5.5,5.4h7.8 C99.2,32.6,93.3,26.6,86,26.6z"></path> <path class="st1" d="M117,42.1H33c-2.2,0-4,1.8-4,3.9v65.2c0,2.2,1.8,3.9,4,3.9h84c2.2,0,4-1.8,4-3.9V46.1 C121,43.9,119.2,42.1,117,42.1z M75,104.3c-14.2,0-25.7-11.5-25.7-25.6S60.8,53.1,75,53.1s25.7,11.5,25.7,25.6 S89.2,104.3,75,104.3z"></path> </g> </g> </svg> 