<?xml version="1.0" encoding="UTF-8"?> <!-- Generator: Adobe Illustrator 24.1.3, SVG Export Plug-In . SVG Version: 6.00 Build 0) --> <svg xmlns="http://www.w3.org/2000/svg" xmlns:xlink="http://www.w3.org/1999/xlink" version="1.1" id="Layer_1" x="0px" y="0px" viewBox="0 0 194.6 174.5" style="enable-background:new 0 0 194.6 174.5;" xml:space="preserve"> <style type="text/css"> .st0{fill:#FFC630;} .st1{fill:#FFFFFF;} </style> <g> <path class="st0" d="M157.6,33.7h-0.3c-21.6,0-42.6-9.1-57.3-25c-1.4-1.4-3.9-1.4-5.1,0c-14.7,15.9-35.6,25-57.3,25h-0.3 c-1.9,0-3.5,1.5-3.5,3.5v38.3c0,31.6,15.7,61,41.9,78.5l19.8,13.3c0.5,0.3,1.2,0.7,2,0.7c0.8,0,1.4-0.2,2-0.7l19.8-13.3 c26.2-17.6,41.9-47,41.9-78.5V37.1C161,35.2,159.5,33.7,157.6,33.7z"></path> <g> <circle class="st1" cx="97.5" cy="71" r="19.6"></circle> <path class="st1" d="M97.5,129.5L97.5,129.5c-4.7,0-8.5-3.8-8.5-8.5V79.5c0-4.7,3.8-8.5,8.5-8.5h0c4.7,0,8.5,3.8,8.5,8.5V121 C106,125.7,102.2,129.5,97.5,129.5z"></path> </g> </g> </svg> 