<?xml version="1.0" encoding="UTF-8"?> <!-- Generator: Adobe Illustrator 24.1.3, SVG Export Plug-In . SVG Version: 6.00 Build 0) --> <svg xmlns="http://www.w3.org/2000/svg" xmlns:xlink="http://www.w3.org/1999/xlink" version="1.1" id="Layer_1" x="0px" y="0px" viewBox="0 0 194.6 174.5" style="enable-background:new 0 0 194.6 174.5;" xml:space="preserve"> <style type="text/css"> .st0{fill:#FFC630;} .st1{fill:#FFFFFF;} </style> <g> <g> <path class="st0" d="M20.6,10.9v61.3l42.9,42.9L94,145.7l12.3,12.2c6.8,6.8,17.7,6.8,24.5,0l36.8-36.7c6.8-6.8,6.8-17.7,0-24.5 l-12.3-12.3l-30.7-30.6L81.7,10.9H20.6z M69.5,59.9c-6.8,6.8-17.7,6.8-24.5,0s-6.8-17.7,0-24.5s17.7-6.8,24.5,0 S76.3,53.1,69.5,59.9z"></path> </g> <path class="st1" d="M104.7,94.7c-4.2,4.1-7.1,1.3-8.6,2.8c-0.9,0.8-0.9,2.2,0,3.1c0.4,0.4,1.5,0.8,1.5,0.8 c3.7,0.3,7.5-0.8,10.3-3.5c2.8-2.7,4.1-6.5,3.9-10.2c0,0-0.2-2.5-2.6-2.2c-1.8,0.2-1.9,2-2,3C107.1,90.8,106.4,93.1,104.7,94.7 M112.7,103c-4.1,3.9-9.4,5.7-14.6,5.5l0,0c-0.5,0.1-0.9,0.2-1.2,0.6c-0.9,0.8-0.9,2.2,0,3.1c0.4,0.4,1,0.7,1.5,0.7l0,0 c6.3,0.2,12.7-2,17.6-6.7c4.8-4.7,7.2-11,7.2-17.3l0,0c0-0.6-0.2-1.1-0.7-1.5c-0.9-0.9-2.3-0.9-3.1-0.1c-0.3,0.3-0.6,0.8-0.6,1.2 l0,0C118.7,93.8,116.7,99,112.7,103 M131.1,90.1c-0.4,14-9.5,21.9-9.5,21.9c-7.6,7.3-16,9-22.4,9c-0.6-0.1-1.3,0.1-1.8,0.6 c-0.9,0.8-0.9,2.2,0,3.1c0.5,0.5,1.1,0.7,1.6,0.7c0,0,14.2,1,25.5-10c11.6-11.3,10.8-25.3,10.8-25.3c0-0.6-0.2-1.2-0.7-1.7 c-0.9-0.9-2.3-0.9-3.1-0.1C131.2,88.8,131,89.4,131.1,90.1 M144.1,90.9c-0.3,18.1-11.9,29.2-13.3,30.6c0,0-10.9,12.3-31,12.5 c-0.6,0-1.2,0.1-1.7,0.6c-0.9,0.8-0.9,2.2,0,3.1c0.5,0.5,2,0.7,2,0.7c21.8-0.1,33.9-13.6,33.9-13.6c14.9-14.5,14.7-33.4,14.7-33.4 c0.1-0.7-0.2-1.5-0.7-2.1c-0.9-0.9-2.3-0.9-3.1-0.1C144.3,89.7,144.1,90.3,144.1,90.9L144.1,90.9z"></path> </g> </svg> 