<?xml version="1.0" encoding="UTF-8"?> <!-- Generator: Adobe Illustrator 24.1.2, SVG Export Plug-In . SVG Version: 6.00 Build 0) --> <svg xmlns="http://www.w3.org/2000/svg" xmlns:xlink="http://www.w3.org/1999/xlink" version="1.1" id="Layer_1" x="0px" y="0px" viewBox="0 0 425.2 425.2" style="enable-background:new 0 0 425.2 425.2;" xml:space="preserve"> <style type="text/css"> .st0{fill:#FFC630;} .st1{fill:#FFFFFF;} </style> <g> <path class="st0" d="M258.9,80.1l0.2,0.1c30.8,10.6,57.3,31.6,74.5,59.1l-14,8.7c-15.2-24.3-38.6-42.9-65.9-52.3l-0.2-0.1 L258.9,80.1z M245.6,76.2l-3.8,16c-28.1-6.7-57.8-3.5-83.8,9l-7.1-14.9C180.2,72.2,213.9,68.6,245.6,76.2z M340.4,151.4 c14.6,29.4,18.6,63,11.1,94.7l-16-3.8c6.6-28,3.1-57.7-9.8-83.6L340.4,151.4z M138.6,93l8.6,14.1c-24.6,15-43.4,38.2-52.8,65.4 l-15.6-5.2l0-0.1C89.4,136.3,110.7,110,138.6,93z M332.1,254.1l15.6,5.4l-0.1,0.3c-10.6,30.9-31.9,57.2-59.9,74.2l-8.5-14.1 c24.7-15,43.5-38.2,52.9-65.5L332.1,254.1z M90.9,184.4c-6.6,28-3.2,57.7,9.7,83.6l-14.8,7.3c-14.6-29.4-18.5-63.1-11-94.7 L90.9,184.4z M268.3,325.7l7.1,14.9c-29.4,14.1-63.1,17.7-94.8,10.1l3.9-16C212.5,341.4,242.3,338.2,268.3,325.7z M106.6,278.8 c15.2,24.4,38.7,43,66,52.4l-5.3,15.6l-0.1,0c-30.9-10.6-57.4-31.7-74.6-59.3L106.6,278.8z"></path> <path class="st0" d="M147.6,366.7c-4.4-1.9-8.7-3.9-12.9-6.2l7.7-14.6c3.8,2,7.7,3.9,11.7,5.6c24.5,10.5,51.3,14.4,77.6,11.3 l1.9,16.4C204.5,382.7,174.8,378.3,147.6,366.7z M122.2,353.2c-29-18.7-51.2-45.5-64.3-77.4l15.2-6.3c11.8,28.8,31.9,52.9,58,69.8 L122.2,353.2z M248,376.9l-3.3-16.1c30.6-6.3,58-21.5,79.3-44.1l12,11.3C312.4,353,282,370,248,376.9z M52.9,262 c-10.3-33.1-10.2-67.9,0.5-100.7l15.7,5.1c-9.6,29.5-9.8,60.8-0.4,90.6L52.9,262z M345.5,317l-12.9-10.2 c8.1-10.3,14.8-21.6,20-33.7c7-16.3,11-33.5,11.9-51.1l16.5,0.8c-1,19.6-5.4,38.7-13.2,56.8C362,293,354.5,305.6,345.5,317z M73.7,154.2l-15.2-6.5l0.1-0.2c13.6-31.9,36.4-58.2,65.9-76.2l8.6,14.1c-26.5,16.2-47,39.9-59.3,68.6L73.7,154.2z M364.5,208.8 c-1.2-31-11.8-60.5-30.7-85.4l13.1-10c20.9,27.6,32.7,60.3,34,94.7L364.5,208.8z M144.6,78.9l-7.3-14.8 c30.9-15.4,65.3-20.9,99.4-15.9l-2.4,16.3C203.5,60.1,172.5,65,144.6,78.9z M325.4,113.2c-14.8-16.4-32.7-29.1-53.2-37.9 c-8.1-3.5-16.6-6.3-25.1-8.3l3.8-16c9.4,2.2,18.8,5.3,27.8,9.2c22.7,9.7,42.5,23.8,58.9,42L325.4,113.2z"></path> </g> <g> <path class="st1" d="M273.1,153.6h-77.4c-3.1-3.5-7.6-5.5-12.4-5.6h-33.2c-9.3,0-16.8,7.5-16.8,16.8v89.4c0,9.3,7.5,16.8,16.8,16.8 h122.9c9.3,0,16.8-7.5,16.8-16.8v-83.8C289.9,161.1,282.4,153.6,273.1,153.6z M237.9,217.4l-9,8.8l2.1,12.4c0.5,3-1.5,5.9-4.6,6.5 c-1.2,0.2-2.5,0-3.5-0.6l-11.2-5.9l-11.2,5.9c-2.7,1.4-6.1,0.4-7.5-2.3c-0.6-1.1-0.8-2.3-0.6-3.5l2.1-12.4l-9-8.8 c-2.2-2.2-2.3-5.7-0.1-7.9c0.9-0.9,2-1.5,3.2-1.6l12.5-1.8l5.6-11.3c1.6-2.8,5.2-3.7,8-2.1c0.8,0.5,1.6,1.2,2.1,2.1l5.6,11.3 l12.5,1.8c3.1,0.4,5.2,3.3,4.7,6.3C239.3,215.5,238.7,216.6,237.9,217.4z M211.6,179.1c-1.7,0-3.4-2.1-4.4-5.6l-2.6-8.7h68.6 c5.6,0,5.6,6.4,5.6,14.3H211.6z M222.3,213.6l7.3,1.1l-5.3,5.2c-2.3,2.2-3.3,5.5-2.8,8.6l1.2,7.3l-6.6-3.5c-2.8-1.5-6.2-1.5-9.1,0 l-6.6,3.5l1.2-7.3c0.5-3.2-0.5-6.4-2.8-8.6l-5.3-5.2l7.3-1.1c3.2-0.5,5.9-2.5,7.4-5.3l3.3-6.6l3.3,6.6 C216.4,211.1,219.1,213.1,222.3,213.6z"></path> </g> </svg> 