<?xml version="1.0" encoding="UTF-8"?> <!-- Generator: Adobe Illustrator 24.1.2, SVG Export Plug-In . SVG Version: 6.00 Build 0) --> <svg xmlns="http://www.w3.org/2000/svg" xmlns:xlink="http://www.w3.org/1999/xlink" version="1.1" id="Layer_1" x="0px" y="0px" viewBox="0 0 746 250" style="enable-background:new 0 0 746 250;" xml:space="preserve"> <style type="text/css"> .st0{fill:#FDC533;} .st1{fill:#4C575A;} .st2{fill:#FFFFFF;} .st3{font-family:'Gotham-Bold';} .st4{font-size:16.9001px;} </style> <g> <rect x="50.6" y="48.2" class="st0" width="601" height="153.9"></rect> <polygon class="st0" points="629.6,20.7 629.6,229.5 720.1,125.1 "></polygon> <g> <path class="st1" d="M225.4,57.1c-7.1,0-12.9,5.8-12.9,12.9v110.1c0,7.1,5.8,12.9,12.9,12.9h112.7c7.1,0,12.9-5.8,12.9-12.9V70.1 c0-7.1-5.8-12.9-12.9-12.9H225.4z"></path> </g> <text transform="matrix(1 0 0 1 246.093 110.2965)"><tspan x="0" y="0" class="st2 st3 st4">N</tspan><tspan x="13.4" y="0" class="st2 st3 st4">a</tspan><tspan x="23.3" y="0" class="st2 st3 st4">tional </tspan><tspan x="-13.9" y="20.3" class="st2 st3 st4">Ope</tspan><tspan x="22.2" y="20.3" class="st2 st3 st4">r</tspan><tspan x="28.8" y="20.3" class="st2 st3 st4">a</tspan><tspan x="38.8" y="20.3" class="st2 st3 st4">tions </tspan></text> <text transform="matrix(1 0 0 1 244.6808 150.1866)" class="st2 st3 st4">Manager</text> <text transform="matrix(1 0 0 1 318.7209 131.8605)" class="st2 st3 st4"> </text> <g> <path class="st1" d="M72.6,57.1c-7.1,0-12.9,5.8-12.9,12.9v110.1c0,7.1,5.8,12.9,12.9,12.9h115.7c7.1,0,12.9-5.8,12.9-12.9V70.1 c0-7.1-5.8-12.9-12.9-12.9H72.6z"></path> </g> <text transform="matrix(1 0 0 1 93.4021 121.5358)"><tspan x="0" y="0" class="st2 st3 st4">A</tspan><tspan x="12.9" y="0" class="st2 st3 st4">c</tspan><tspan x="22.3" y="0" class="st2 st3 st4">c</tspan><tspan x="31.8" y="0" class="st2 st3 st4">ount</tspan></text> <text transform="matrix(1 0 0 1 164.4153 121.5358)" class="st2 st3 st4"> </text> <text transform="matrix(1 0 0 1 69.8762 142.1881)"><tspan x="0" y="0" class="st2 st3 st4">A</tspan><tspan x="12.9" y="0" class="st2 st3 st4">dmini</tspan><tspan x="61.1" y="0" class="st2 st3 st4">s</tspan><tspan x="69.5" y="0" class="st2 st3 st4">t</tspan><tspan x="76.5" y="0" class="st2 st3 st4">r</tspan><tspan x="83.1" y="0" class="st2 st3 st4">a</tspan><tspan x="93.1" y="0" class="st2 st3 st4">t</tspan><tspan x="99.8" y="0" class="st2 st3 st4">or</tspan></text> <g> <path class="st1" d="M375.2,57.1c-7.1,0-12.9,5.8-12.9,12.9v110.1c0,7.1,5.8,12.9,12.9,12.9h112.7c7.1,0,12.9-5.8,12.9-12.9V70.1 c0-7.1-5.8-12.9-12.9-12.9H375.2z"></path> </g> <text transform="matrix(1 0 0 1 377.0787 121.5358)"><tspan x="0" y="0" class="st2 st3 st4">R</tspan><tspan x="12.1" y="0" class="st2 st3 st4">el</tspan><tspan x="27.5" y="0" class="st2 st3 st4">a</tspan><tspan x="37.5" y="0" class="st2 st3 st4">tionship</tspan></text> <text transform="matrix(1 0 0 1 483.9039 121.5358)" class="st2 st3 st4"> </text> <text transform="matrix(1 0 0 1 393.4723 142.1881)" class="st2 st3 st4">Manager</text> <g> <path class="st1" d="M525,57.1c-7.1,0-12.9,5.8-12.9,12.9v110.1c0,7.1,5.8,12.9,12.9,12.9h113.7c7.1,0,12.9-5.8,12.9-12.9V70.1 c0-7.1-5.8-12.9-12.9-12.9H525z"></path> </g> <text transform="matrix(1 0 0 1 555.4176 121.5358)"><tspan x="0" y="0" class="st2 st3 st4">Boa</tspan><tspan x="33.4" y="0" class="st2 st3 st4">r</tspan><tspan x="40.3" y="0" class="st2 st3 st4">d</tspan></text> <text transform="matrix(1 0 0 1 607.1481 121.5358)" class="st2 st3 st4"> </text> <text transform="matrix(1 0 0 1 545.9176 142.1881)" class="st2 st3 st4">Sponsor</text> </g> </svg> 