<?xml version="1.0" encoding="UTF-8"?> <!-- Generator: Adobe Illustrator 24.1.3, SVG Export Plug-In . SVG Version: 6.00 Build 0) --> <svg xmlns="http://www.w3.org/2000/svg" xmlns:xlink="http://www.w3.org/1999/xlink" version="1.1" id="Layer_1" x="0px" y="0px" viewBox="0 0 300 270" style="enable-background:new 0 0 300 270;" xml:space="preserve"> <style type="text/css"> .st0{fill:#FFC630;} .st1{fill:#525758;} </style> <g> <path class="st0" d="M163.5,211.5H119c-2.6,0-4.7,2.1-4.7,4.7v32.3h9.4v-27.6h35.1v27.6h9.4v-32.3 C168.3,213.6,166.1,211.5,163.5,211.5z"></path> <path class="st1" d="M1,139.6v68.1c0,25.3,55,39,102.2,43.3c1.3,0.1,2.6-0.3,3.6-1.2c1-0.9,1.5-2.1,1.5-3.5v-40.8h66.1v40.3 c0,1.3,0.5,2.6,1.5,3.5c0.9,0.8,2,1.2,3.2,1.2h0.4c24.3-1.7,48.2-6.7,71.2-14.9c20.1-7.9,31-17.8,31-28.7v-65.5 C257.4,167.6,184.2,175,142,175C98.9,175,23.1,167.1,1,139.6z"></path> <path class="st1" d="M128.1,121.1h8.2v-43c-9.2,0-18.6,0.6-27.6,1.2L128.1,121.1z"></path> <path class="st1" d="M117.9,121.4L98.8,80.2c-13.2,1.3-26.3,3.3-39.3,6.2l40.6,36.2C105.8,122.1,111.7,121.7,117.9,121.4z"></path> <path class="st1" d="M145.7,78.1V121c3.5,0,6.9,0,10.2,0l19.4-41.9C165.6,78.6,155.8,78.2,145.7,78.1z"></path> <path class="st1" d="M183.7,122.6l40.9-36.3c-12.9-2.9-26.1-4.9-39.3-6.2l-19.2,41.3C172.3,121.8,178.2,122.2,183.7,122.6z"></path> <path class="st1" d="M85.5,124.2h2L48.4,89.1c-13.1,3.1-25.6,8.7-36.5,16.6l54.2,22.7C72.4,126.3,78.9,124.9,85.5,124.2z"></path> <path class="st1" d="M272.1,105.7c-10.9-7.9-23.3-13.5-36.5-16.5l-39.3,35.1h0.7c6.9,0.7,13.7,2.2,20.2,4.5L272.1,105.7z"></path> <path class="st1" d="M223.9,136L223.9,136c0,5.1-4.6,9.1-26.9,12.1c-18.5,2.2-37.1,3.3-55.7,3.1c-18.6,0.2-37.2-0.9-55.7-3.1 c-22.3-3-26.9-7-26.9-12.1v-0.6L5.3,113c-1.9,2.9-2.9,6.3-3,9.7c0,29,72,44.8,139.7,44.8s139.7-15.7,139.7-44.7 c0-3.5-1-6.9-2.9-9.8L223.9,136z"></path> <ellipse class="st0" cx="141.3" cy="136.1" rx="69.3" ry="5.8"></ellipse> <path class="st0" d="M25.8,81.5l28.7-9.7c2.5-0.9,3.7-3.7,2.8-6.1c-0.5-1.3-1.5-2.3-2.8-2.8L22.4,51.2c-1.4-0.5-3.1-0.3-4.3,0.6 c-1.3,0.9-2,2.3-2,3.8v38.9c3.1-1.8,6.4-3.4,9.7-4.8V81.5z"></path> <path class="st0" d="M83.8,74.7v-12l28.6-9.7c1.9-0.7,3.1-2.5,3.2-4.5c0.1-2-1.2-3.8-3.1-4.5L80.7,32.4c-1.4-0.5-3.1-0.3-4.3,0.6 c-1.3,0.9-2,2.3-2,3.8v39.3L83.8,74.7z"></path> <path class="st0" d="M145.9,70.7V54.5l35.4-12.4c2.4-0.9,3.7-3.6,2.8-6c-0.5-1.3-1.5-2.4-2.8-2.8l-38.5-13.9c-2.5-0.8-5.1,0.5-6,3 c-0.2,0.5-0.2,1-0.2,1.5v46.9h9.4H145.9z"></path> <path class="st0" d="M208,66.4l28.6-9.8c2.4-0.9,3.7-3.6,2.8-6c-0.5-1.3-1.5-2.4-2.8-2.8l-31.7-11.7c-1.5-0.5-3.1-0.3-4.3,0.6 c-1.3,0.9-2,2.3-2,3.8v33.9c3.2,0.4,6.2,0.9,9.4,1.4V66.4z"></path> <path class="st0" d="M295.1,66.6l-31.8-11.7c-1.5-0.5-3.1-0.2-4.3,0.6c-1.3,0.9-2,2.3-2,3.8v29.5c3.2,1.3,6.4,2.9,9.4,4.6v-8.3 l28.7-9.8c2.4-0.9,3.7-3.6,2.8-6C297.4,68.1,296.3,67.1,295.1,66.6L295.1,66.6z"></path> </g> </svg> 