<?xml version="1.0" encoding="UTF-8"?> <!-- Generator: Adobe Illustrator 24.1.3, SVG Export Plug-In . SVG Version: 6.00 Build 0) --> <svg xmlns="http://www.w3.org/2000/svg" xmlns:xlink="http://www.w3.org/1999/xlink" version="1.1" id="Layer_1" x="0px" y="0px" viewBox="0 0 425.2 425.2" style="enable-background:new 0 0 425.2 425.2;" xml:space="preserve"> <style type="text/css"> .st0{fill:#FFC630;} .st1{fill:#FFFFFF;} </style> <g> <path class="st0" d="M258.9,80.2l0.2,0.1c30.8,10.6,57.3,31.6,74.5,59.1l-14,8.7c-15.2-24.3-38.6-42.9-65.9-52.3l-0.2-0.1 L258.9,80.2z M245.6,76.4l-3.8,16c-28.1-6.7-57.8-3.5-83.8,9l-7.1-14.9C180.2,72.4,213.8,68.8,245.6,76.4z M340.4,151.5 c14.6,29.4,18.6,63,11.1,94.7l-16-3.8c6.6-28,3.1-57.6-9.8-83.6L340.4,151.5z M138.6,93.1l8.6,14.1c-24.6,15-43.4,38.2-52.7,65.4 l-15.6-5.2l0-0.1C89.4,136.4,110.7,110.1,138.6,93.1z M332,254.2l15.6,5.4l-0.1,0.3c-10.6,30.9-31.9,57.2-59.9,74.2l-8.5-14.1 c24.7-15,43.5-38.2,52.9-65.5L332,254.2z M90.9,184.5c-6.6,28-3.2,57.6,9.7,83.6l-14.8,7.3c-14.6-29.4-18.5-63-11-94.7L90.9,184.5z M268.3,325.8l7.1,14.9c-29.4,14.1-63.1,17.7-94.8,10.1l3.9-16C212.5,341.5,242.3,338.3,268.3,325.8z M106.6,278.9 c15.2,24.4,38.6,43,66,52.4l-5.3,15.6l-0.1,0c-30.9-10.6-57.4-31.7-74.6-59.3L106.6,278.9z"></path> <path class="st0" d="M147.6,366.8c-4.4-1.9-8.7-3.9-12.9-6.2l7.7-14.6c3.8,2,7.7,3.9,11.7,5.6c24.5,10.5,51.3,14.4,77.5,11.3 l1.9,16.4C204.5,382.7,174.8,378.4,147.6,366.8z M122.2,353.3c-29-18.7-51.2-45.5-64.3-77.4l15.2-6.3c11.8,28.8,31.9,52.9,58,69.8 L122.2,353.3z M248,377l-3.3-16.1c30.6-6.3,58-21.5,79.3-44.1l12,11.3C312.3,353.1,281.9,370,248,377z M52.9,262.1 c-10.3-33.1-10.2-67.9,0.5-100.6l15.7,5.1c-9.6,29.5-9.7,60.8-0.4,90.6L52.9,262.1z M345.5,317.1l-12.9-10.2 c8.1-10.3,14.8-21.6,20-33.7c7-16.3,11-33.5,11.9-51.1l16.5,0.8c-1,19.6-5.4,38.7-13.2,56.8C361.9,293.1,354.4,305.7,345.5,317.1z M73.7,154.3l-15.2-6.5l0.1-0.2c13.6-31.9,36.4-58.2,65.8-76.2l8.6,14.1c-26.5,16.2-47,39.9-59.3,68.5L73.7,154.3z M364.4,208.9 c-1.2-31-11.8-60.5-30.7-85.4l13.1-10c20.9,27.6,32.7,60.3,34,94.7L364.4,208.9z M144.6,79.1l-7.3-14.8 c30.9-15.4,65.3-20.9,99.4-15.9l-2.4,16.3C203.5,60.2,172.5,65.2,144.6,79.1z M325.4,113.4c-14.8-16.4-32.7-29.1-53.2-37.9 c-8.1-3.5-16.6-6.3-25.1-8.3l3.8-16c9.4,2.2,18.8,5.3,27.8,9.2c22.7,9.7,42.5,23.8,58.9,42L325.4,113.4z"></path> </g> <g> <path class="st1" d="M271.1,134h-118c-7.4,0-13.4,6-13.4,13.4v34.9h-21.5v24.2c0,7.4,6,13.4,13.4,13.4h29.5v80.5h123.5v-153 C284.5,140,278.5,134,271.1,134z M123.6,206.4v-18.9h16.1v18.7c0,4.5-3.6,8.1-8.1,8.1C127.2,214.3,123.6,210.7,123.6,206.4z M279.2,294.9H166.5v-80.5h-24.2c1.7-2.2,2.7-5,2.7-8.1v-58.9c0-4.5,3.6-8.1,8.1-8.1c4.5,0,8.1,3.6,8.1,8.1V209h5.3v-61.6 c0-3.1-1-5.8-2.7-8.1h107.3c4.5,0,8.1,3.6,8.1,8.1V294.9z"></path> <polygon class="st1" points="182.6,153.4 191.6,171.4 198.6,171.4 198.6,144.6 193.3,144.6 193.3,162.8 184.2,144.6 177.2,144.6 177.2,171.4 182.6,171.4 "></polygon> <polygon class="st1" points="220.1,166.1 209.4,166.1 209.4,160.7 220.1,160.7 220.1,155.4 209.4,155.4 209.4,149.9 220.1,149.9 220.1,144.6 204.1,144.6 204.1,171.4 220.1,171.4 "></polygon> <path class="st1" d="M231.1,171.4c2.7,0,5-1.9,5.5-4.6l1.9-11.5h0.9l1.9,11.5c0.5,2.7,2.7,4.6,5.5,4.6c3.1,0,5.7-2.6,5.7-5.7v-21.1 H247v21.3c0,0.2-0.3,0.3-0.5,0l-2.6-16h-10l-2.6,16c0,0.2-0.5,0.2-0.5,0v-21.3h-5.3v21.3C225.6,169,228,171.4,231.1,171.4z"></path> <path class="st1" d="M265.8,149.9c1.5,0,2.7,1.2,2.7,2.7h5.3c0-4.5-3.6-8.1-8.1-8.1c-4.5,0-8.1,3.6-8.1,8.1c0,4.5,3.6,8.1,8.1,8.1 c1.5,0,2.7,1.2,2.7,2.7c0,1.5-1.2,2.7-2.7,2.7c-1.5,0-2.7-1.2-2.7-2.7h-5.3c0,4.5,3.6,8.1,8.1,8.1c4.5,0,8.1-3.6,8.1-8.1 c0-4.5-3.6-8.1-8.1-8.1c-1.5,0-2.7-1.2-2.7-2.7C263,151.1,264.2,149.9,265.8,149.9z"></path> <rect x="214.8" y="176.9" class="st1" width="59.1" height="5.3"></rect> <rect x="214.8" y="187.5" class="st1" width="5.3" height="5.3"></rect> <rect x="225.6" y="187.5" class="st1" width="48.3" height="5.3"></rect> <rect x="214.8" y="198.3" class="st1" width="59.1" height="5.3"></rect> <rect x="268.5" y="209" class="st1" width="5.3" height="5.3"></rect> <rect x="214.8" y="209" class="st1" width="48.3" height="5.3"></rect> <path class="st1" d="M253.4,263.3l-9.1-2.6V260c3.3-2.6,5.3-6.5,5.3-10.6v-4.8c0-7.2-5.3-13.4-12.2-13.9c-3.8-0.3-7.6,0.9-10.3,3.4 c-2.7,2.6-4.3,6.2-4.3,10v5.3c0,4.1,2.1,8.2,5.3,10.6v0.7l-9.1,2.6c-5.7,1.5-9.6,6.9-9.6,12.9v2.7H263v-2.7 C263,270.1,259.1,264.8,253.4,263.3z M215.3,273.4c0.9-2.4,2.7-4.3,5.3-5l13.1-3.8v-7.7l-1.4-0.7c-2.6-1.5-3.9-4.1-3.9-6.9V244 c0-2.2,1-4.5,2.6-6c1.7-1.5,3.8-2.2,6.2-2.1c4.1,0.3,7.4,4.1,7.4,8.6v4.8c0,2.9-1.5,5.5-3.9,6.9l-1.4,0.9v7.7l13.1,3.8 c2.6,0.7,4.5,2.6,5.3,5C257.2,273.4,215.3,273.4,215.3,273.4z"></path> <path class="st1" d="M198.6,289.5h75.2v-69.7h-75.2V289.5z M204.1,225.1h64.4v59.1h-64.4V225.1z"></path> <path class="st1" d="M190.7,214.3c10.3,0,18.7-8.4,18.7-18.7c0-10.3-8.4-18.7-18.7-18.7c-10.3,0-18.7,8.4-18.7,18.7 C172,205.9,180.2,214.3,190.7,214.3z M190.7,182.2c7.4,0,13.4,6,13.4,13.4c0,7.4-6,13.4-13.4,13.4s-13.4-6-13.4-13.4 C177.3,188.2,183.2,182.2,190.7,182.2z"></path> <rect x="171.8" y="219.8" class="st1" width="5.3" height="5.3"></rect> <rect x="182.6" y="219.8" class="st1" width="10.6" height="5.3"></rect> <rect x="171.8" y="230.5" class="st1" width="21.5" height="5.3"></rect> <rect x="171.8" y="241.3" class="st1" width="21.5" height="5.3"></rect> <rect x="171.8" y="251.9" class="st1" width="21.5" height="5.3"></rect> <rect x="171.8" y="262.7" class="st1" width="21.5" height="5.3"></rect> <rect x="171.8" y="273.4" class="st1" width="21.5" height="5.3"></rect> <rect x="171.8" y="284.2" class="st1" width="21.5" height="5.3"></rect> </g> </svg> 