<?xml version="1.0" encoding="UTF-8"?> <!-- Generator: Adobe Illustrator 24.1.3, SVG Export Plug-In . SVG Version: 6.00 Build 0) --> <svg xmlns="http://www.w3.org/2000/svg" xmlns:xlink="http://www.w3.org/1999/xlink" version="1.1" id="Layer_1" x="0px" y="0px" viewBox="0 0 194.6 174.5" style="enable-background:new 0 0 194.6 174.5;" xml:space="preserve"> <style type="text/css"> .st0{fill:#FFFFFF;} .st1{fill:#FFC630;} </style> <g> <path class="st0" d="M6.7,94.6l9.9-6l19.3,34.3l-9.9,6c-3,1.8-7,0.8-8.6-2.3l-12.9-23C2.5,100.3,3.7,96.4,6.7,94.6"></path> <path class="st1" d="M24.6,68L127,6.4c3.4-2.1,7.6-0.8,9.5,2.7l25.7,45.2c2,3.5,0.8,7.8-2.6,9.9l-41.6,25.1l16.7,24.5 c2,2.9,5.2,4.5,8.6,4.5h29.2V99.5c0-7.6,6-14,13.5-14h2.8c2,0,3.6,1.6,3.6,3.7v78.3c0,2.1-1.6,3.7-3.6,3.7h-3 c-7.4,0-13.5-6.2-13.5-14v-18.7h-29.2c-9.9,0-19.1-4.9-24.9-13.4l-17.7-25.9L57,125.6c-3.4,2.1-7.6,0.8-9.5-2.7L21.8,77.5 C20.2,74.4,21.2,69.9,24.6,68 M61,93.3c1,1.6,2.6,2.5,4.4,2.5c0.8,0,1.8-0.2,2.6-0.6l60.7-36.6c2.4-1.4,3.2-4.5,1.8-7 c-1.4-2.5-4.4-3.3-6.8-1.8L62.8,86.3C60.4,87.6,59.6,90.9,61,93.3"></path> </g> </svg> 