<?xml version="1.0" encoding="UTF-8"?> <!-- Generator: Adobe Illustrator 24.1.3, SVG Export Plug-In . SVG Version: 6.00 Build 0) --> <svg xmlns="http://www.w3.org/2000/svg" xmlns:xlink="http://www.w3.org/1999/xlink" version="1.1" id="Layer_1" x="0px" y="0px" viewBox="0 0 300 270" style="enable-background:new 0 0 300 270;" xml:space="preserve"> <style type="text/css"> .st0{fill:#525758;} .st1{fill:#FFC630;} .st2{clip-path:url(#SVGID_2_);} </style> <g> <g> <g> <g> <circle class="st0" cx="89.1" cy="131.1" r="38.2"></circle> <path class="st0" d="M164.9,117.5l-16.5-1.7c-1.3-5.1-3.4-9.7-5.9-14L153,88.7c1.3-1.7,1.3-4.2-0.4-5.5l-14.4-14.4 c-1.7-1.7-3.8-1.7-5.5-0.4L119.6,79c-4.7-2.5-9.3-4.7-14-5.9l-1.7-16.5c-0.4-2.1-2.1-3.8-4.2-3.8H78.9c-2.1,0-3.8,1.7-4.2,3.8 L73,73c-5.1,1.3-9.7,3.4-14,5.9L45.9,68.4c-1.7-1.3-4.2-1.3-5.5,0.4L25.9,83.2c-1.7,1.7-1.7,3.8-0.4,5.5l9.3,12.3 c-2.5,4.7-4.7,9.3-5.9,14l-16.5,1.7c-2.1,0.4-3.8,2.1-3.8,4.2v20.8c0,2.1,1.7,3.8,3.8,4.2l16.5,1.7c1.3,5.1,3.4,9.7,5.9,14 l-10.6,13.1c-1.3,1.7-1.3,4.2,0.4,5.5l14.4,14.4c1.7,1.7,3.8,1.7,5.5,0.4l13.1-10.6c4.7,2.5,9.3,4.7,14,5.9l1.7,16.5 c0.4,2.1,2.1,3.8,4.2,3.8h20.8c2.1,0,3.8-1.7,4.2-3.8l1.7-16.5c5.1-1.3,9.7-3.4,14-5.9l13.1,10.6c1.7,1.3,4.2,1.3,5.5-0.4 l14.4-14.4c3-0.4,3-3,1.7-4.7l-10.6-13.1c2.5-4.7,4.7-9.3,5.9-14l16.5-1.7c2.1-0.4,3.8-2.1,3.8-4.2v-20.8 C168.7,119.7,167,118,164.9,117.5z M89.1,175.8c-24.8,0-45.2-20.3-45.2-45.2s20.3-45.2,45.2-45.2s45.2,20.3,45.2,45.2 S113.9,175.8,89.1,175.8z"></path> </g> <g> <ellipse transform="matrix(0.9732 -0.2298 0.2298 0.9732 -9.1036 50.1173)" class="st0" cx="210.7" cy="64.2" rx="26.8" ry="26.8"></ellipse> <path class="st0" d="M269.8,59.5l-11.6-2.7c-0.4-3.5-1.3-6.6-2.6-10.1l8.3-8.4c1.5-1.5,1.8-4,0.3-5.5l-9.6-12.3 c-1.5-1.9-3.6-2.2-5.4-1.1l-11.1,6.7c-2.7-2-5.9-3.7-9.2-5l0.2-11.9c0.3-2.1-1.2-4-3.3-4.3L210.2,3c-2.1-0.3-4,1.2-4.7,3.3 l-2.7,11.6c-3.5,0.4-6.6,1.3-10.1,2.6l-8.4-8.3c-1.5-1.5-4-1.8-5.5-0.3l-12.3,9.6c-1.9,1.5-2.2,3.6-1.1,5.4l6,10.1 c-2,2.7-3.7,5.9-5,9.2l-11.9-0.2c-2.2,0.2-4,1.6-4.3,3.7l-1.9,15.6c0.2,1.7,1.7,3.6,3.7,4.3l11.6,2.7c0.4,3.5,1.3,6.6,2.6,10.1 l-8.2,7.9c-1.5,1.5-1.8,4-0.3,5.5l9.6,12.3c1.5,1.9,3.6,2.2,5.4,1.1l10.1-6c2.7,2,5.9,3.7,9.2,5l-0.2,11.9 c0.2,2.2,1.6,4,3.7,4.3l15.6,1.9c2.1,0.3,4-1.2,4.7-3.3l2.7-11.6c3.5-0.4,6.6-1.3,10.1-2.6l8.4,8.3c1.5,1.5,4,1.8,5.5,0.3 l12.3-9.6c1.9-1.5,2.2-3.6,1.1-5.4l-6-10.1c2-2.7,3.7-5.9,5-9.2l11.9,0.2c2.2-0.2,4-1.6,4.3-3.7l1.9-15.6 C273.3,62.1,271.9,60.2,269.8,59.5z M206.6,98c-19.1-2.4-32.5-19-30.1-38c2.4-19.1,20-32.4,38.6-30.1c18.5,2.3,32.5,19,30.1,38 C242.8,87,225.6,100.4,206.6,98z"></path> </g> <g> <g> <ellipse transform="matrix(0.9871 -0.1602 0.1602 0.9871 -28.7878 37.9301)" class="st0" cx="220.9" cy="197.5" rx="32.4" ry="32.4"></ellipse> <path class="st0" d="M283.5,176.1l-13.7,0.3c-1.8-3.6-3.7-7.2-6.3-10.6l6.7-12.2c1-1.9,0.6-4.4-1.2-5.4L255,138 c-1.9-1.4-4-1.1-5.5,0.4l-9.6,10c-4.1-1.5-8.1-2.6-12-2.9l-3.7-13.2c-0.7-2-2.7-3.5-4.8-3.1l-17.2,2.6 c-2.1,0.3-3.5,2.2-3.6,4.4l0.3,13.7c-3.6,1.8-7.2,3.7-10.6,6.3l-12.2-6.7c-1.9-1-4.4-0.6-5.4,1.2l-10.3,14 c-1.4,1.9-1.1,4,0.4,5.5l10,9.6c-1.5,4.1-2.6,8.1-2.9,12l-13.2,3.7c-2,0.7-3.5,2.7-3.1,4.8l2.6,17.2c0.3,2.1,2.2,3.5,4.4,3.6 l13.7-0.3c1.8,3.6,3.7,7.2,6.3,10.6l-6.7,12.2c-1,1.9-0.6,4.4,1.2,5.4l14,10.3c1.9,1.4,4,1.1,5.5-0.4l9.6-10 c4.1,1.5,8.1,2.6,12,2.9l3.7,13.2c0.7,2,2.7,3.5,4.8,3.1l17.2-2.6c2.1-0.3,3.5-2.2,3.6-4.4l-0.3-13.7c3.6-1.8,7.2-3.7,10.6-6.3 l12.2,6.7c1.9,1,4.4,0.6,5.4-1.2l10.3-14c1.4-1.9,1.1-4-0.4-5.5l-10-9.6c1.5-4.1,2.6-8.1,2.9-12l13.2-3.7 c2-0.7,3.5-2.7,3.1-4.8l-2.6-17.2C287.5,177.6,285.6,175.8,283.5,176.1z M226.7,237.4c-22.2,3.3-42.5-11.6-45.8-33.8 c-3.3-22.2,11.6-42.5,33.8-45.8c22.2-3.3,42.5,12.2,45.8,33.8C263.9,213.7,248.9,234,226.7,237.4z"></path> </g> </g> <path class="st1" d="M198.1,79.7v-3.8c0-0.7,0.6-1.3,1.3-1.3h22.5c0.7,0,1.3,0.6,1.3,1.3v3.8H198.1z M200.6,65.9 c0-5.5,4.5-10,10-10c5.5,0,10,4.5,10,10v6.9h-20V65.9z M216.9,65.3c0-3.1-2.5-5.6-5.6-5.6h-0.6c-0.3,0-0.6,0.3-0.6,0.6v1.3 c0,0.3,0.3,0.6,0.6,0.6h0.6c1.7,0,3.1,1.4,3.1,3.1v0.6c0,0.3,0.3,0.6,0.6,0.6h1.3c0.3,0,0.6-0.3,0.6-0.6V65.3z M195.6,64.7 c0.7,0,1.3,0.6,1.3,1.3s-0.6,1.3-1.3,1.3h-5c-0.7,0-1.3-0.6-1.3-1.3s0.6-1.3,1.3-1.3H195.6z M230.7,64.7c0.7,0,1.3,0.6,1.3,1.3 s-0.6,1.3-1.3,1.3h-5c-0.7,0-1.3-0.6-1.3-1.3s0.6-1.3,1.3-1.3H230.7z M199.1,56.2l-3.5-3.5c-1.2-1.2,0.6-3,1.8-1.8l3.5,3.5 C202.1,55.6,200.3,57.3,199.1,56.2z M220.4,54.4l3.5-3.5c1.2-1.2,3,0.6,1.8,1.8l-3.5,3.5C221,57.3,219.2,55.6,220.4,54.4z M209.4,50.9v-5c0-1.7,2.5-1.7,2.5,0v5C211.9,52.6,209.4,52.6,209.4,50.9z"></path> </g> </g> <g transform="translate(0,-952.36218)"> <path class="st1" d="M235.1,1129c-4.2-1.6-9.1-0.7-12.5,2.7c-3.5,3.5-4.3,8.7-2.5,13l-18,18c-1.7,1.7-1.7,4.4,0,6.1s4.4,1.7,6.1,0 l18-18c4.3,1.9,9.5,1.1,13-2.5c3.4-3.4,4.3-8.3,2.7-12.5l-7.6,7.6l-5.3-1.5l-1.5-5.3L235.1,1129z"></path> </g> <g> <defs> <circle id="SVGID_1_" cx="89.1" cy="131.1" r="38.2"></circle> </defs> <clipPath id="SVGID_2_"> <use xlink:href="#SVGID_1_" style="overflow:visible;"></use> </clipPath> <g class="st2"> <path class="st1" d="M61.6,164.7l-1.1,10.5h56.2l-1.1-10.5c-1.1-8.5-7.3-15.1-15.3-17.1l-8,20l-1.7-14.4h1.1 c0.8,0,1.2-0.6,1.2-1.2v-3.8c0-0.8-0.6-1.2-1.2-1.2h-6.2c-0.6,0-1.2,0.6-1.2,1.2v3.8c0,0.8,0.6,1.2,1.2,1.2h1.2l-1.7,14.4 l-8.2-20C68.8,149.6,62.6,156.2,61.6,164.7z"></path> <path class="st1" d="M72.5,133.2c2.9,6.1,9.1,10.1,16.2,10.1c6.1,0,11.5-3,14.7-7.7c0,0,0,0-0.2,0h-8.3c-0.8,0.8-1.7,1.2-2.9,1.2 h-5.6c-2.1,0-3.9-1.8-3.9-3.9v-3.5c0-2.3,1.8-4.1,3.9-4.1H92c1.2,0,2.1,0.6,2.9,1.2h8.2v-7.7c0-1.1,0.3-1.8,0.9-2.6 c-3-5.1-8.8-8.6-15.3-8.6s-12.3,3.5-15.3,8.6c0.6,0.8,0.9,1.7,0.9,2.6v10.9C74.3,131.3,73.5,132.5,72.5,133.2z"></path> <path class="st1" d="M66,131.3h4.1c0.8,0,1.5-0.6,1.5-1.5V119c0-0.8-0.6-1.5-1.5-1.5h-0.8c3.2-7.6,10.6-13,19.4-13 s16.2,5.3,19.4,13h-0.8c-0.8,0-1.5,0.6-1.5,1.5v9.4c-0.6,0.6-1.5,1.1-2.6,1.1h-10l0,0c0-0.6-0.6-1.2-1.2-1.2h-5.6 c-0.8,0-1.2,0.6-1.2,1.2v3.3c0,0.8,0.6,1.2,1.2,1.2H92c0.8,0,1.2-0.6,1.2-1.2l0,0h10c1.7,0,3.2-0.6,4.4-1.5h3.6 c3.3,0,6.2-2.7,6.2-6.2v-1.4c0-2.7-2-5.1-4.5-5.9c-3.2-10.3-12.9-17.9-24.2-17.9s-21.1,7.6-24.4,18c-2.6,0.8-4.5,3-4.5,5.9v1.4 C59.8,128.4,62.6,131.3,66,131.3z"></path> </g> </g> </g> </svg> 