<?xml version="1.0" encoding="UTF-8"?> <!-- Generator: Adobe Illustrator 24.1.3, SVG Export Plug-In . SVG Version: 6.00 Build 0) --> <svg xmlns="http://www.w3.org/2000/svg" xmlns:xlink="http://www.w3.org/1999/xlink" version="1.1" id="Layer_1" x="0px" y="0px" viewBox="0 0 150 150" style="enable-background:new 0 0 150 150;" xml:space="preserve"> <style type="text/css"> .st0{fill:#FDC533;} .st1{fill:#525758;} </style> <circle class="st0" cx="75" cy="75" r="75"></circle> <g> <path class="st1" d="M113.8,22h-59c-1.1,0-2.2,1.1-2.2,2.2v17.5H30.8c-1.1,0-2.2,1.1-2.2,2.2v78.7c0,1.1,1.1,2.2,2.2,2.2 c27.7,0,55.4,0,83.1,0c1.1,0,2.2-1.1,2.2-2.2V24.2C116,23.1,114.9,22,113.8,22z M52.6,120.4H32.9V46.1h19.7 C52.6,46.1,52.6,120.4,52.6,120.4z M82.1,120.4h-7.7v-17.5h7.7V120.4z M94.2,120.4h-7.7v-17.5h7.7V120.4z M111.6,120.4H98.5v-19.7 c0-1.1-1.1-2.2-2.2-2.2h-24c-1.1,0-2.2,1.1-2.2,2.2v19.7H57c0-31.4,0-62.6,0-94h54.6V120.4z"></path> <rect x="96.9" y="31.3" class="st1" width="9.8" height="9.8"></rect> <rect x="79.4" y="31.3" class="st1" width="9.8" height="9.8"></rect> <rect x="61.9" y="31.3" class="st1" width="9.8" height="9.8"></rect> <rect x="96.9" y="48.8" class="st1" width="9.8" height="9.8"></rect> <rect x="79.4" y="48.8" class="st1" width="9.8" height="9.8"></rect> <rect x="61.9" y="48.8" class="st1" width="9.8" height="9.8"></rect> <rect x="37.9" y="51" class="st1" width="9.8" height="9.8"></rect> <rect x="96.9" y="66.3" class="st1" width="9.8" height="9.8"></rect> <rect x="79.4" y="66.3" class="st1" width="9.8" height="9.8"></rect> <rect x="61.9" y="66.3" class="st1" width="9.8" height="9.8"></rect> <rect x="37.9" y="68.5" class="st1" width="9.8" height="9.8"></rect> <rect x="96.9" y="83.8" class="st1" width="9.8" height="9.8"></rect> <rect x="79.4" y="83.8" class="st1" width="9.8" height="9.8"></rect> <rect x="61.9" y="83.8" class="st1" width="9.8" height="9.8"></rect> <rect x="37.9" y="85.9" class="st1" width="9.8" height="9.8"></rect> <rect x="37.9" y="103.4" class="st1" width="9.8" height="9.8"></rect> </g> </svg> 