<?xml version="1.0" encoding="UTF-8"?> <!-- Generator: Adobe Illustrator 24.1.3, SVG Export Plug-In . SVG Version: 6.00 Build 0) --> <svg xmlns="http://www.w3.org/2000/svg" xmlns:xlink="http://www.w3.org/1999/xlink" version="1.1" id="Layer_1" x="0px" y="0px" viewBox="0 0 150 150" style="enable-background:new 0 0 150 150;" xml:space="preserve"> <style type="text/css"> .st0{fill:#FDC533;} .st1{fill:#525758;} </style> <circle class="st0" cx="75" cy="75" r="75"></circle> <g> <path class="st1" d="M71.4,32.5c-2.6-0.4-4.6,0.2-6.3,0.7c-1,0.3-2,0.6-3.1,0.7c0-0.6,0-1.3-0.1-2.1c0.2,0,0.4,0,0.6-0.1 c4.3-0.6,8.3-4.5,8.8-8.8c0.1-0.7,0.1-1.3,0-1.9c-0.6-0.1-1.2-0.1-1.9,0c-3.4,0.4-6.6,3-8.1,6.2c-0.4-2.4-1.2-4.8-2.5-6.1 c-0.3-0.3-0.7-0.3-1,0s-0.3,0.7,0,1c1.9,1.8,2.6,7.3,2.7,11.7c-1-0.1-2-0.4-3.1-0.7c-1.8-0.5-3.8-1.1-6.3-0.7 c-4.3,0.7-9.4,3.1-9.4,11.3c0,7.7,2.6,18.2,9.7,22.5c1.9,1.1,4.1,0.8,6.4,0.5c1.1-0.2,2.3-0.3,3.4-0.3c1.1,0,2.3,0.2,3.4,0.3 c1.1,0.2,2.2,0.3,3.2,0.3c1.1,0,2.2-0.2,3.2-0.8c7.2-4.3,9.7-14.8,9.7-22.5C80.7,35.7,75.6,33.2,71.4,32.5z"></path> <path class="st1" d="M38.6,89.2c0,0.8,0.7,1.5,1.5,1.5H107v-2.9H40.1C39.3,87.7,38.6,88.4,38.6,89.2z"></path> <g> <path class="st1" d="M107,81.9H40.1c-0.8,0-1.5,0.7-1.5,1.5s0.7,1.5,1.5,1.5H107V81.9z"></path> <path class="st1" d="M108,106.6c0-0.8-0.7-1.5-1.5-1.5H39.6v2.9h66.9C107.3,108,108,107.4,108,106.6z"></path> <path class="st1" d="M39.6,113.8h66.9c0.8,0,1.5-0.7,1.5-1.5s-0.7-1.5-1.5-1.5H39.6V113.8z"></path> </g> <path class="st1" d="M107.9,94.8H38.1H38c-1.3-0.3-2.2-1.5-2.2-2.8V80.3c0-1.6,1.3-2.9,2.9-2.9h69.9c1.6,0,2.9-1.3,2.9-2.9 s-1.3-2.9-2.9-2.9H38.7c-4.8,0-8.7,3.9-8.7,8.7V92c0,4.8,3.9,8.7,8.7,8.7h69.9h0.1c1.3,0.3,2.2,1.5,2.2,2.8v11.6 c0,1.6-1.3,2.9-2.9,2.9H38.1c-1.6,0-2.9,1.3-2.9,2.9s1.3,2.9,2.9,2.9H108c4.8,0,8.7-3.9,8.7-8.7v-11.6 C116.7,98.7,112.8,94.8,107.9,94.8z"></path> </g> </svg> 