<?xml version="1.0" encoding="UTF-8"?> <!-- Generator: Adobe Illustrator 24.1.3, SVG Export Plug-In . SVG Version: 6.00 Build 0) --> <svg xmlns="http://www.w3.org/2000/svg" xmlns:xlink="http://www.w3.org/1999/xlink" version="1.1" id="Layer_1" x="0px" y="0px" viewBox="0 0 150 150" style="enable-background:new 0 0 150 150;" xml:space="preserve"> <style type="text/css"> .st0{fill:#FDC533;} .st1{fill:#525758;} </style> <circle class="st0" cx="75" cy="75" r="75"></circle> <g> <polygon class="st1" points="82.2,94.2 82.2,90.7 68.4,90.7 68.4,94.2 "></polygon> <rect x="77" y="64.8" class="st1" width="1.7" height="3.5"></rect> <path class="st1" d="M111.5,114.8h-1.4h-0.4V35.6h1.6c1.9,0,3.5-1.5,3.5-3.5v-7c0-0.9-0.8-1.7-1.7-1.7H100h-0.7H51.8h-0.7 c-0.1,0-0.3,0-0.4,0c0.1,0,0.1,0,0.3,0H37.3c-0.9,0-1.7,0.8-1.7,1.7V32c0,1.9,1.5,3.5,3.5,3.5h1.7v79.2h-1.7 c-1.9,0-3.5,1.5-3.5,3.5v6.8c0,0.9,0.8,1.7,1.7,1.7l62,0.1c0.1,0,0.2,0,0.3,0h13.6c0.9,0,1.7-0.8,1.7-1.7v-6.8 C115,116.4,113.5,114.8,111.5,114.8z M39,32v-5.2h10.4V27v5h-5.8h-1H39z M49.4,123.4H39.1v-5.1h10.3 C49.4,118.3,49.4,123.4,49.4,123.4z M49.4,51.1v63.7h-5.1V35.5h5.1v11l0,0c0,0,0,0,0,0.1v4.3c0-0.1,0-0.1,0-0.2 C49.4,50.9,49.4,51,49.4,51.1z M80,41.8l5.7-8.6c0.5-0.7,1.2-1.2,2-1.2c0.8-0.1,1.6,0.1,2.1,0.6l0.1,0.1c0.6,0.5,0.9,1.2,0.9,2 s-0.3,1.5-0.9,2l-8.5,6.7c-0.5-0.5-1-0.9-1.6-1.2C79.8,42,80,41.8,80,41.8z M70,80.3v-3.5c0-0.9,0.8-1.7,1.7-1.7 c0.9,0,1.7,0.8,1.7,1.7v3.5c0,2-1.6,3.5-3.5,3.5H59.7c-1.9,0-3.5-1.5-3.5-3.5V59.6c0-2,1.6-3.5,3.5-3.5h3.5c0.9,0,1.7,0.8,1.7,1.7 s-0.8,1.7-1.7,1.7h-3.5v20.6H70V80.3z M75,44.1c3.1,0,5.9,2.2,6.6,5.2h-13h-0.2C69.2,46.3,71.9,44.1,75,44.1z M70,61.4 c0.9,0,1.7,0.8,1.7,1.7v6.8c0,0.9-0.8,1.7-1.7,1.7c-0.9,0-1.6-0.8-1.7-1.7v-6.8C68.3,62.2,69.1,61.4,70,61.4z M64.9,89 c0-0.9,0.7-1.7,1.7-1.7h17.3c0.9,0,1.7,0.8,1.7,1.7v6.8c0,0.9-0.8,1.7-1.7,1.8H66.7c-0.9,0-1.7-0.8-1.7-1.7L64.9,89L64.9,89z M73.5,68.2v-3.5c0-2,1.6-3.5,3.5-3.5h1.7c2,0,3.5,1.6,3.5,3.5v3.5c0,2-1.6,3.5-3.5,3.5H77C75.1,71.7,73.5,70.2,73.5,68.2z M73.5,27.4c0.8-0.6,2-0.7,2.9-0.2s1.5,1.4,1.5,2.4c0,0.1,0,0.2,0,0.3c0,0-1.3,8.7-1.6,11.1c-0.8,0-1.5,0-1.7,0s-0.4,0-0.6,0 c0-0.1-1.6-11-1.6-11C72.2,29,72.7,28,73.5,27.4z M68.2,43.3l-7.8-6.7c-0.6-0.5-0.9-1.2-0.9-2s0.3-1.5,0.9-2 c0.6-0.5,1.4-0.7,2.2-0.7c0.8,0.1,1.5,0.6,2,1.2l5.7,8.6C69.7,42.2,68.8,42.9,68.2,43.3z M52.9,33.8V27h16.5 c-0.4,1.2-0.6,2.4-0.5,3.6l0.6,4.1l-2.1-3.2c-1-1.5-2.6-2.4-4.3-2.7c-1.7-0.2-3.6,0.2-4.9,1.4C56.8,31.4,56,33,56,34.8 c0,1.7,0.8,3.5,2.2,4.6l2.5,2.2l-3.5-1c-1.5-0.5-3-0.2-4.4,0.4v-7l0,0v-0.2H52.9z M55.4,49.3L55.4,49.3c-0.8-0.3-2.1-0.9-2.4-1.6 v-0.1c-0.3-0.8-0.1-1.9-0.1-1.9c0.1-0.3,0.3-0.7,0.6-1c0.7-0.8,1.9-1.2,2.9-0.8l9.3,2.7c-0.3,0.8-0.7,1.9-0.8,2.7h-9.1 C55.8,49.3,55.4,49.3,55.4,49.3z M73.5,116.5c0,2-1.6,3.5-3.5,3.5H59.7c-2,0-3.5-1.6-3.5-3.5V88.9c0-0.9,0.8-1.7,1.7-1.7h1.7 c0.9,0,1.7,0.8,1.7,1.7s-0.8,1.7-1.7,1.7v25.8H70v-13.8c0-0.9,0.8-1.7,1.7-1.7c1,0,1.7,0.8,1.7,1.7v13.9H73.5z M94.2,116.5 c0,2-1.6,3.5-3.5,3.5H80.4c-2,0-3.5-1.6-3.5-3.5v-13.8c0-0.9,0.8-1.7,1.7-1.7c0.9,0,1.7,0.8,1.7,1.7v13.8h10.3V90.7 c-0.9,0-1.7-0.8-1.7-1.7c0-0.9,0.8-1.7,1.7-1.7h1.7c0.9,0,1.7,0.8,1.7,1.7v27.5H94.2z M94.2,80.3c0,2-1.6,3.5-3.5,3.5H80.4 c-2,0-3.5-1.6-3.5-3.5v-3.5c0-0.9,0.8-1.7,1.7-1.7c0.9,0,1.7,0.8,1.7,1.7l0,0v3.5h10.3V59.6h-3.5c-0.9,0-1.7-0.8-1.7-1.7 s0.8-1.7,1.7-1.7h3.5c1.8,0,3.5,1.6,3.5,3.5L94.2,80.3L94.2,80.3z M97.2,46.5c0,1.4-1,2.6-2.4,2.8c-0.1,0-0.2,0-0.2,0h-8.9h-0.1 h-0.3c-0.1-0.9-0.4-1.8-0.9-2.7l9.5-2.8c0.8-0.2,1.6-0.1,2.2,0.3c0.7,0.5,1.2,1.2,1.3,2C97.2,46.3,97.2,46.4,97.2,46.5z M97.7,41.4 l-0.2-0.1c-1.5-0.8-3.2-1.2-4.9-0.7l-3.1,0.9l2.5-2.1c1.4-1.2,2.2-2.8,2.2-4.6c0-1.7-0.8-3.5-2.2-4.6c-1.4-1.2-3.1-1.6-4.9-1.4 c-1.7,0.2-3.4,1.3-4.4,2.7l-2.1,3.2v-0.1l0.6-4.1c0-0.3,0.1-0.6,0.1-0.9c0-0.8-0.2-1.8-0.6-2.6h16.4h0.4h0.1L97.7,41.4L97.7,41.4z M101.1,27h10.3v5.1c-0.5,0-1.5,0-3.4,0h-7L101.1,27L101.1,27z M101.2,51.1V35.5h5.1v79.3h-0.1h-5.1L101.2,51.1z M111.5,123.4 h-10.4v-5.1h7h0.3h3.2L111.5,123.4L111.5,123.4z"></path> </g> </svg> 