<?xml version="1.0" encoding="UTF-8"?> <!-- Generator: Adobe Illustrator 24.1.3, SVG Export Plug-In . SVG Version: 6.00 Build 0) --> <svg xmlns="http://www.w3.org/2000/svg" xmlns:xlink="http://www.w3.org/1999/xlink" version="1.1" id="Layer_1" x="0px" y="0px" viewBox="0 0 150 150" style="enable-background:new 0 0 150 150;" xml:space="preserve"> <style type="text/css"> .st0{fill:#FDC533;} .st1{fill:#525758;} </style> <circle class="st0" cx="75" cy="75" r="75"></circle> <g> <path class="st1" d="M105.9,86.3C89.2,97.2,84,97.2,78.7,113.4C90.6,107.2,99.9,105.2,105.9,86.3z"></path> <path class="st1" d="M94.6,107.7c-16.7,10.9-21.9,10.9-27.2,27.1C79.3,128.7,88.6,126.6,94.6,107.7z"></path> <path class="st1" d="M117.2,64.9c-16.7,10.7-22.1,10.9-27.2,27C101.9,85.8,111.2,83.7,117.2,64.9z"></path> <path class="st1" d="M88.6,62.3c0.6,19.9,3.6,24.3-6.7,37.7C80.1,86.8,76.5,78.1,88.6,62.3z"></path> <path class="st1" d="M77.4,83.7c0.6,19.9,3.6,24.3-6.7,37.7C69,108.2,65.4,99.5,77.4,83.7z"></path> <path class="st1" d="M99.8,40.7c0.6,19.9,3.6,24.3-6.7,37.7C91.3,65.2,87.7,56.5,99.8,40.7z"></path> <path class="st1" d="M27.4,74.4c16.7,10.9,21.9,10.9,27.2,27.1C42.8,95.3,33.4,93.2,27.4,74.4z"></path> <path class="st1" d="M38.7,95.8c16.7,10.9,21.9,10.9,27.2,27.1C53.9,116.7,44.7,114.7,38.7,95.8z"></path> <path class="st1" d="M16.2,52.9c16.7,10.9,22,10.9,27.2,27.1C31.5,73.8,22.2,71.8,16.2,52.9z"></path> <path class="st1" d="M44.8,50.4c-0.6,19.9-3.6,24.3,6.7,37.7C53.2,74.9,56.9,66.1,44.8,50.4z"></path> <path class="st1" d="M56,71.8c-0.6,19.9-3.6,24.3,6.7,37.7C64.5,96.3,68.1,87.6,56,71.8z"></path> <path class="st1" d="M33.7,28.8c-0.6,19.9-3.6,24.3,6.7,37.7C42,53.3,45.7,44.6,33.7,28.8z"></path> <path class="st1" d="M128.4,43.3c-16.7,10.9-21.9,10.9-27.2,27.1C113.1,64.2,122.3,62.3,128.4,43.3z"></path> <path class="st1" d="M110.9,19.3c0.6,19.9,3.6,24.3-6.7,37.7C102.5,43.8,98.9,35.1,110.9,19.3z"></path> </g> </svg> 