<?xml version="1.0" encoding="UTF-8"?> <!-- Generator: Adobe Illustrator 24.1.3, SVG Export Plug-In . SVG Version: 6.00 Build 0) --> <svg xmlns="http://www.w3.org/2000/svg" xmlns:xlink="http://www.w3.org/1999/xlink" version="1.1" id="Layer_1" x="0px" y="0px" viewBox="0 0 150 150" style="enable-background:new 0 0 150 150;" xml:space="preserve"> <style type="text/css"> .st0{fill:#FDC533;} .st1{fill:#525758;} </style> <circle class="st0" cx="75" cy="75" r="75"></circle> <path class="st1" d="M122.9,105h-6.3V56.5h5.4c1,0,1.8-0.8,1.8-1.8v-5.4c0-1-0.8-1.8-1.8-1.8h-5.4V34c0-1-0.8-1.8-1.8-1.8H113V21.5 c0-1-0.8-1.8-1.8-1.8s-1.8,0.8-1.8,1.8V24L73.9,47.5H57.4c-1,0-1.8,0.8-1.8,1.8v5.4c0,1,0.8,1.8,1.8,1.8H69v6.2c0,1,0.8,1.8,1.8,1.8 h1.8V78h-8.1c-1,0-1.8,0.8-1.8,1.8v9c0,1,0.8,1.8,1.8,1.8h19.8c1,0,1.8-0.8,1.8-1.8v-9c0-1-0.8-1.8-1.8-1.8h-8.1V64.5H78 c1,0,1.8-0.8,1.8-1.8v-6.3h25.8v48.4h-8.3l4.7-8.1c0.3-0.6,0.3-1.3,0-1.8c-0.3-0.6-0.9-0.9-1.6-0.9H87.9c-1,0-1.8,0.8-1.8,1.8v2.7 H56.7V85.2c0-1-0.8-1.8-1.8-1.8h-4.5v-7.1c0-1-0.8-1.8-1.8-1.8H28c-1,0-1.8,0.8-1.8,1.8v22.5h-4.5c-0.7,0-1.3,0.3-1.5,0.9 c-0.3,0.6-0.3,1.3,0,1.7l7.5,13.5h-6c-1,0-1.8,0.8-1.8,1.8s0.8,1.8,1.8,1.8c3.8,0,96.5,0,101.2,0c1,0,1.8-0.8,1.8-1.8v-9.9 C124.7,105.8,123.9,105,122.9,105z M82.5,87H66.3v-5.4h16.1L82.5,87L82.5,87z M108.5,52c0-1.5,1.3-2.7,2.7-2.7 c1.4,0,2.7,1.2,2.7,2.7s-1.3,2.7-2.7,2.7C109.7,54.8,108.5,53.6,108.5,52z M109.4,28.2v4h-1.8c-1,0-1.8,0.8-1.8,1.8v13.5H81 L109.4,28.2z M29.8,78h17v7.1c0,1,0.8,1.8,1.8,1.8h4.5v11.6H29.8V78z M71.6,114.8v-6.3c6.7,0,43.4,0,49.4,0v6.3H71.6z M36.1,84.3 c0,1-0.8,1.8-1.8,1.8h-1.8c-1,0-1.8-0.8-1.8-1.8s0.8-1.8,1.8-1.8h1.8C35.3,82.5,36.1,83.3,36.1,84.3z M44.2,84.3 c0,1-0.8,1.8-1.8,1.8h-1.8c-1,0-1.8-0.8-1.8-1.8s0.8-1.8,1.8-1.8h1.8C43.3,82.5,44.2,83.3,44.2,84.3z M36.1,93.2 c0,1-0.8,1.8-1.8,1.8h-1.8c-1,0-1.8-0.8-1.8-1.8s0.8-1.8,1.8-1.8h1.8C35.3,91.5,36.1,92.3,36.1,93.2z M44.2,93.2 c0,1-0.8,1.8-1.8,1.8h-1.8c-1,0-1.8-0.8-1.8-1.8s0.8-1.8,1.8-1.8h1.8C43.3,91.5,44.2,92.3,44.2,93.2z M52.2,93.2 c0,1-0.8,1.8-1.8,1.8h-1.8c-1,0-1.8-0.8-1.8-1.8s0.8-1.8,1.8-1.8h1.8C51.4,91.5,52.2,92.3,52.2,93.2z"></path> </svg> 