<?xml version="1.0" encoding="UTF-8"?> <!-- Generator: Adobe Illustrator 24.1.3, SVG Export Plug-In . SVG Version: 6.00 Build 0) --> <svg xmlns="http://www.w3.org/2000/svg" xmlns:xlink="http://www.w3.org/1999/xlink" version="1.1" id="Layer_1" x="0px" y="0px" viewBox="0 0 150 150" style="enable-background:new 0 0 150 150;" xml:space="preserve"> <style type="text/css"> .st0{fill:#FDC533;} .st1{fill-rule:evenodd;clip-rule:evenodd;fill:#525758;} </style> <circle class="st0" cx="75" cy="75" r="75"></circle> <g> <path class="st1" d="M110.9,115.2V69.6c0-0.9-0.4-1.7-1.1-2.2L76.5,41.2c-1-0.8-2.4-0.8-3.5,0L39.8,67.4c-0.7,0.5-1.1,1.3-1.1,2.2 v45.6c0,1.6,1.3,2.8,2.8,2.8h22.7c1.6,0,2.8-1.3,2.8-2.8V90.6c0-1.6,1.3-2.8,2.8-2.8h10.1c1.6,0,2.8,1.3,2.8,2.8v24.6 c0,1.6,1.3,2.8,2.8,2.8h22.7C109.6,118,110.9,116.7,110.9,115.2z"></path> <path class="st1" d="M32.6,69l41.3-32.5c0.5-0.4,1.3-0.4,1.8,0l41.5,32.8c0.6,0.5,1.5,0.4,2-0.2l3.4-4.4c0.5-0.6,0.4-1.5-0.2-2 l-11.2-8.8c-0.4-0.3-0.6-0.7-0.6-1.1V29.1c0-0.8-0.6-1.4-1.4-1.4H95.5c-0.8,0-1.4,0.6-1.4,1.4v8.2c0,1.2-1.4,1.9-2.3,1.1L75.9,25.9 c-0.5-0.4-1.3-0.4-1.8,0L27.5,62.6c-0.6,0.5-0.7,1.4-0.2,2l3.3,4.2C31.1,69.4,32,69.5,32.6,69z"></path> </g> </svg> 