<?xml version="1.0" encoding="UTF-8"?> <!-- Generator: Adobe Illustrator 24.1.3, SVG Export Plug-In . SVG Version: 6.00 Build 0) --> <svg xmlns="http://www.w3.org/2000/svg" xmlns:xlink="http://www.w3.org/1999/xlink" version="1.1" id="Layer_1" x="0px" y="0px" viewBox="0 0 425.2 425.2" style="enable-background:new 0 0 425.2 425.2;" xml:space="preserve"> <style type="text/css"> .st0{fill:#FFC630;} .st1{clip-path:url(#SVGID_2_);} .st2{fill:#FFFFFF;} </style> <g> <path class="st0" d="M299.1,102.4l0.2,0.1c25.8,19.9,44.2,48.3,51.7,79.8l-16,3.8c-6.6-27.9-22.9-53-45.7-70.6l-0.2-0.1 L299.1,102.4z M287.7,94.4l-8.8,14c-24.4-15.3-53.7-21.8-82.3-18.3l-2-16.4C227,69.7,260.1,77.1,287.7,94.4z M353.5,196 c4.5,32.5-2.6,65.6-19.8,93.3l-14-8.7c15.2-24.4,21.4-53.6,17.4-82.3L353.5,196z M181,76.1l3.6,16.1c-28.1,6.3-53.3,22.3-70.9,45.1 l-13.1-10l0.1-0.1C120.6,101.4,149.1,83.3,181,76.1z M312.8,290.6l13,10.1l-0.2,0.2c-20,25.9-48.5,44-80.5,51.1l-3.6-16.1 c28.2-6.3,53.4-22.3,71-45.1L312.8,290.6z M106.6,147.5c-15.2,24.4-21.4,53.6-17.5,82.3L72.8,232c-4.4-32.5,2.6-65.6,19.9-93.3 L106.6,147.5z M229.5,338.1l2,16.4c-32.4,4-65.4-3.4-93-20.8l8.8-14C171.7,335,200.9,341.6,229.5,338.1z M91.3,241.9 c6.6,28,22.9,53.1,45.7,70.7l-10,13.1l-0.1,0c-25.9-20-44.2-48.4-51.7-80L91.3,241.9z"></path> <path class="st0" d="M147.6,367.3c-4.4-1.9-8.7-3.9-12.9-6.2l7.7-14.6c3.8,2,7.7,3.9,11.7,5.6c24.5,10.5,51.3,14.4,77.5,11.3 l1.9,16.4C204.5,383.2,174.8,378.9,147.6,367.3z M122.2,353.8c-29-18.7-51.2-45.5-64.3-77.4l15.2-6.3c11.8,28.8,31.9,52.9,58,69.8 L122.2,353.8z M248,377.5l-3.3-16.1c30.6-6.3,58-21.5,79.3-44.1l12,11.3C312.3,353.6,281.9,370.5,248,377.5z M52.9,262.6 c-10.3-33.1-10.2-67.9,0.5-100.6l15.7,5.1c-9.6,29.5-9.7,60.8-0.4,90.6L52.9,262.6z M345.5,317.6l-12.9-10.2 c8.1-10.3,14.8-21.6,20-33.7c7-16.3,11-33.5,11.9-51.1l16.5,0.8c-1,19.6-5.4,38.7-13.2,56.8C361.9,293.6,354.4,306.2,345.5,317.6z M73.7,154.8l-15.2-6.5l0.1-0.2c13.6-31.9,36.4-58.2,65.8-76.2l8.6,14.1c-26.5,16.2-47,39.9-59.3,68.6L73.7,154.8z M364.4,209.4 c-1.2-31-11.8-60.5-30.7-85.4l13.1-10c20.9,27.6,32.7,60.3,34,94.7L364.4,209.4z M144.6,79.6l-7.3-14.8 c30.9-15.4,65.3-20.9,99.4-15.9l-2.4,16.3C203.5,60.7,172.5,65.7,144.6,79.6z M325.4,113.9c-14.8-16.4-32.7-29.1-53.2-37.9 c-8.1-3.5-16.6-6.3-25.1-8.3l3.8-16c9.4,2.2,18.8,5.3,27.8,9.2c22.7,9.7,42.5,23.8,58.9,42L325.4,113.9z"></path> </g> <g> <defs> <circle id="SVGID_1_" cx="212" cy="212.3" r="99"></circle> </defs> <clipPath id="SVGID_2_"> <use xlink:href="#SVGID_1_" style="overflow:visible;"></use> </clipPath> <g class="st1"> <path class="st2" d="M140.7,299.5l-2.7,27.1h145.7l-2.7-27.1c-2.7-22-18.8-39.3-39.7-44.4L220.4,307l-4.3-37.3h2.7 c2,0,3.1-1.6,3.1-3.1v-9.8c0-2-1.6-3.1-3.1-3.1h-16.1c-1.6,0-3.1,1.6-3.1,3.1v9.8c0,2,1.6,3.1,3.1,3.1h3.1l-4.3,37.3l-21.2-51.8 C159.6,260.2,143.5,277.5,140.7,299.5z"></path> <path class="st2" d="M169,217.8c7.5,15.7,23.6,26.3,42,26.3c15.7,0,29.8-7.9,38.1-20c0,0,0,0-0.4,0h-21.6c-2,2-4.3,3.1-7.5,3.1 h-14.5c-5.5,0-10.2-4.7-10.2-10.2v-9c0-5.9,4.7-10.6,10.2-10.6h14.5c3.1,0,5.5,1.6,7.5,3.1h21.2v-20c0-2.7,0.8-4.7,2.4-6.7 c-7.9-13.3-22.8-22.4-39.7-22.4s-31.8,9-39.7,22.4c1.6,2,2.4,4.3,2.4,6.7v28.3C173.7,212.7,171.7,215.9,169,217.8z"></path> <path class="st2" d="M152.1,212.7h10.6c2,0,3.9-1.6,3.9-3.9v-27.9c0-2-1.6-3.9-3.9-3.9h-2c8.2-19.6,27.5-33.8,50.3-33.8 s42,13.7,50.3,33.8h-2c-2,0-3.9,1.6-3.9,3.9v24.3c-1.6,1.6-3.9,2.7-6.7,2.7h-25.9l0,0c0-1.6-1.6-3.1-3.1-3.1h-14.5 c-2,0-3.1,1.6-3.1,3.1v8.6c0,2,1.6,3.1,3.1,3.1h14.5c2,0,3.1-1.6,3.1-3.1l0,0h25.9c4.3,0,8.2-1.6,11.4-3.9h9.4 c8.6,0,16.1-7.1,16.1-16.1v-3.5c0-7.1-5.1-13.3-11.8-15.3c-8.2-26.7-33.4-46.3-62.8-46.3s-54.6,19.6-63.2,46.7 c-6.7,2-11.8,7.9-11.8,15.3v3.5C136,205.3,143.5,212.7,152.1,212.7z"></path> </g> </g> </svg> 