<?xml version="1.0" encoding="UTF-8"?> <!-- Generator: Adobe Illustrator 24.1.3, SVG Export Plug-In . SVG Version: 6.00 Build 0) --> <svg xmlns="http://www.w3.org/2000/svg" xmlns:xlink="http://www.w3.org/1999/xlink" version="1.1" id="Layer_1" x="0px" y="0px" viewBox="0 0 194.6 174.5" style="enable-background:new 0 0 194.6 174.5;" xml:space="preserve"> <style type="text/css"> .st0{fill:#FFC630;} .st1{fill-rule:evenodd;clip-rule:evenodd;fill:#FFFFFF;} </style> <g> <g> <path class="st0" d="M97.5,4.9c-46,0-82.9,37-82.9,82.9s37,82.9,82.9,82.9s82.9-37,82.9-82.9S143.5,4.9,97.5,4.9z M124.8,18.3 l-8.6,21.8c-12.1-4.8-25.6-4.8-37.7,0l-8.6-21.8C87.8,11.1,107.2,11.1,124.8,18.3z M28.1,115.1c-3.5-8.6-5.5-18-5.5-27.3 s1.7-18.7,5.5-27.3l21.8,8.6C47.4,75,46,81.6,46,87.8c0,6.2,1.4,12.8,3.8,18.7L28.1,115.1z M70.2,157.2l8.6-21.8 c5.9,2.4,12.4,3.8,18.7,3.8c6.6,0,12.8-1.4,18.7-3.8l8.6,21.8C107.2,164.1,87.8,164.1,70.2,157.2z M97.5,131 c-23.8,0-43.2-19.3-43.2-43.2s19.3-43.2,43.2-43.2s43.2,19.3,43.2,43.2S121.3,131,97.5,131z M145.2,106.4 c2.4-5.9,3.8-12.4,3.8-18.7c0-6.6-1.4-12.8-3.8-18.7l21.8-8.6c3.5,8.6,5.5,18,5.5,27.3s-1.7,18.7-5.5,27.3L145.2,106.4z"></path> </g> <g> <path class="st1" d="M89.8,117.9c-18.1-8.7-21-24.3-5.7-43.9c0.2,5.2,0.7,10.3,3.7,13.1c-0.9-4.6-4.6-20.8,15.5-34.5 c-6.1,28.6,37.4,36.7,3.1,64.9c9.2-18.6-6.3-17.9-6.8-35.2c-7,6.8-7.7,13.8-5,21.9c-2.8-1.1-5.7-3.9-7.4-7.7 C84.1,104.4,87,112.5,89.8,117.9z"></path> </g> </g> </svg> 