<?xml version="1.0" encoding="UTF-8"?> <!-- Generator: Adobe Illustrator 24.1.3, SVG Export Plug-In . SVG Version: 6.00 Build 0) --> <svg xmlns="http://www.w3.org/2000/svg" xmlns:xlink="http://www.w3.org/1999/xlink" version="1.1" id="Layer_1" x="0px" y="0px" viewBox="0 0 300 270" style="enable-background:new 0 0 300 270;" xml:space="preserve"> <style type="text/css"> .st0{fill:#FFC630;} .st1{fill:#282727;} .st2{fill:#FFFFFF;} .st3{fill:#525758;} .st4{fill:#FCC433;} </style> <g> <polygon class="st0" points="59.2,87.9 61.7,113.8 80.9,144.7 98.6,148.3 117.4,133.1 129.3,105.5 128.2,87.9 "></polygon> <path class="st0" d="M178.9,38.6l47.1,4.2L241,59l-1.1,26.5l-11.4,21.8l-8.1,11.9l-20.4,3.6l-10.6-5.9l-9.3-19 c0,0-6.3-21.6-6.3-22.6c0-1-1.5-27.6-1.5-27.6L178.9,38.6z"></path> <g> <g> <polygon class="st1" points="143.4,158.7 152.5,160.9 151.1,169.5 144.2,177.5 138.3,173.9 135.9,166.3 "></polygon> <g> <g> <g> <path class="st2" d="M255.9,130.6l-18.9-6.9l-60.9-0.8l-20.5,7.6l-0.3,0.1c-0.4,0.2-38.1,18.1-35.5,64.1l0,0.6l0.2,0.6 c0.2,0.6,5.2,13.5,30.1,12.5c10.7,9.3,30.9,14.8,54.8,14.8c0.4,0,0.8,0,1.1,0c18.8-0.1,42.6-4.1,54.9-14.8 c0.9,0,1.7,0.1,2.5,0.1c22.6,0,27.3-12,27.5-12.6l0.2-0.6l0-0.6C294,148.7,256.3,130.8,255.9,130.6"></path> <path class="st3" d="M235.1,66.4c-0.6,24.9-11.8,50.8-29.5,50.8c-16.5,0-27.3-22.5-29.2-45.7V51l58.7-1.4V66.4z M172.7,95.2 c5.9,17.3,17.1,30.5,32.9,30.5c15.3,0,26.6-13,32.7-30.3c12.3-12.4,9.4-21.7,6.6-26.2c6.7-32.1-13.8-50.2-40.5-50.2 C156.7,19,165,71.4,165,71.4c0.1,0,0.1,0,0.2,0C163,76.3,162.4,84.6,172.7,95.2 M222.4,192.2v5c0.8,0.1,2.3,0.1,4.3,0.1 c5.9,0,16.1-0.7,26-4.7v-5.2C239.5,194.2,222.6,192.3,222.4,192.2 M287.5,194.5c-1,1.5-5.6,7.2-20.3,7.4 c0.4-8,0.8-26.4-0.2-41.3l-8,1.3c1.1,16.2,0.1,35.9-0.3,41.9c-8.3,7.2-25.2,12.2-44.9,13.3l-3.5-65.9h-9.5l-3.5,66 c-19.7-1-36.2-5.9-44.6-13.4c-0.4-5.9-1.5-25.2-0.4-41.7l-8.4-0.5c-1,15.1-0.2,32.4,0.3,40.3c-14.8-0.1-19.4-5.9-20.3-7.4 c-1.9-41.1,29.7-57.2,32.3-58.4l16.9-6.2l13.3,32.3l11.3-17.7l2.9,4.1h10.2l2.9-4.1l11.3,17.7l13.3-32.4l17,6.2 C257.9,137.4,289.4,153.5,287.5,194.5 M258.6,128.4l-25.1-9.2l-11.1,26.8l-11.3-17.8h-11l-11.3,17.8l-11.1-26.9l-24.6,9.1 l-0.3,0.1c-0.4,0.2-40,19-37.3,67.4l0,0.6l0.2,0.6c0.2,0.6,5.5,14.2,31.6,13.2c11.3,9.8,32.5,15.5,57.6,15.5 c0.4,0,0.8,0,1.2,0c19.7-0.1,44.8-4.3,57.8-15.5c0.9,0,1.8,0.1,2.6,0.1c23.8,0,28.7-12.7,28.9-13.2l0.2-0.6l0-0.6 C298.6,147.4,259,128.6,258.6,128.4"></path> <path class="st3" d="M258,128.8l-24.5-9.5l-13.2-4.4l-10.3,5.1l5.7,6.9l-10.1,83.3l-10.5-83.9l4.6-6.3l-7.3-3.6l-14.5,2.9 l-25.1,9.5l-1.3,10.4c-3.3,4.7-5.4,10.5-6.7,17.4c-0.3,1.7-0.6,3.5-0.8,5.3l0,0c0,0.2,0,0.5,0,0.7c-1.4,12.3-0.7,25.5,0,34.1 c0.1,2.1,0.2,3.9,0.3,5.4c0.3,5.4,3.2,8.3,3.2,8.3c11.2,9.7,32.4,15.5,57.4,15.5c0.4,0,0.8,0,1.2,0 c19.7-0.1,44.6-4.3,57.6-15.5c0,0,2.5-1.5,3.2-8.3c1-8.3,2.8-28.9-0.3-45.5c-1.2-6.6-3.2-12.2-6.3-16.8L258,128.8z"></path> <path class="st3" d="M244.5,72.4c8.8-34.7-25.7-56.2-25.7-56.2l2.8,8.3c-31-15.2-67.6,9.7-67.6,9.7l11,9l-10.3,9.7 c0,0,4,0.9,9.5,2.3l-5,4.6l6.5,2.1l-5.5,4.8l4.8,4.6l0.2,0l10.6-1c-0.1-1.5-0.1-3-0.1-4.5l2.7-2.9l-2.2-4.7c0,0,0-0.1,0-0.1 c2.3,0.6,4.6,1.1,6.7,1.7c14.8,3.8,29-6.2,29-6.2l-1.4,6.2l16.5-5.5l-0.7,9l9.2-1.5c0.1,1.2,0.1,2.5,0.1,3.8 c0,1.9-0.1,3.9-0.2,5.9L244.5,72.4z"></path> </g> <polygon class="st3" points="239.1,153.8 248.1,155.9 246.7,164.5 239.9,172.4 234,168.9 231.7,161.3 "></polygon> <g> <path class="st2" d="M246.5,159.5l-0.1,0.6c-0.1,0.8-0.2,1.7-0.3,2.5h-6.6v8.7c0,0,0,0,0,0c-0.9-0.3-1.7-0.8-2.6-1.3 c-1.2-0.8-2.2-1.8-2.8-2.8l0,0l0,0c-0.6-1-0.9-2.6-1.1-4l-0.1-0.3l0,0l0,0c0,0,0-0.1,0-0.1h6.5v-7.9c1.7,1.2,3.8,1.9,6.1,1.9 c0.4,0,0.7,0,1.1-0.1C246.7,157.5,246.6,158.5,246.5,159.5 M245.6,154.5c-2.3,0-4.7-0.9-6.1-2.8c-1.4,1.9-3.8,2.8-6.1,2.8 c-1.2,0-2.4-0.2-3.5-0.7c0.1,3.1,0.4,6.3,0.9,9.4c0.3,1.7,0.5,3.7,1.5,5.2c0.8,1.4,2.1,2.6,3.4,3.5c1,0.7,2.2,1.2,3.3,1.7 c0.2,0.1,0.3,0.1,0.5,0.1c0.2,0,0.4-0.1,0.8-0.2c2.7-1,5.6-2.9,6.7-5.7c1.1-2.4,1.3-5.3,1.6-7.9c0.2-2,0.4-4,0.4-6 C248,154.2,246.8,154.5,245.6,154.5"></path> <path class="st2" d="M144.5,159l-18.9-6.9l-60.9-0.8l-20.5,7.6L44,159C43.6,159.1,6,177,8.6,223.1l0,0.6l0.2,0.6 c0.2,0.6,5.2,13.5,30.1,12.5c10.7,9.3,30.9,14.8,54.8,14.8c0.4,0,0.8,0,1.1,0c18.8-0.1,42.6-4.1,54.9-14.8 c0.9,0,1.7,0.1,2.5,0.1c22.6,0,27.3-12,27.5-12.6l0.2-0.6l0-0.6C182.6,177,144.9,159.1,144.5,159"></path> <path class="st3" d="M123.8,94.8c-0.6,24.9-11.8,50.8-29.5,50.8c-16.5,0-27.3-22.5-29.2-45.7V79.4l58.7-1.4V94.8z M61.4,123.6 c5.9,17.3,17.1,30.5,32.9,30.5c15.3,0,26.6-13,32.7-30.3c12.3-12.4,9.4-21.7,6.6-26.2c6.7-32.1-13.8-50.2-40.5-50.2 c-47.8,0-39.5,52.4-39.5,52.4c0.1,0,0.1,0,0.2,0C51.6,104.7,51,113,61.4,123.6 M111,220.6v5c0.8,0.1,2.3,0.1,4.3,0.1 c5.9,0,16.1-0.7,26-4.7v-5.2C128.2,222.6,111.3,220.6,111,220.6 M176.2,222.9c-1,1.5-5.6,7.2-20.3,7.4 c0.4-8,0.8-26.4-0.2-41.3l-8,1.3c1.1,16.2,0.1,35.9-0.3,41.9c-8.3,7.2-25.2,12.2-44.9,13.3l-3.5-65.9h-9.5l-3.5,66 c-19.7-1-36.2-5.9-44.6-13.4c-0.4-5.9-1.5-25.2-0.4-41.7l-8.4-0.5c-1,15.1-0.2,32.4,0.3,40.3c-14.8-0.1-19.4-5.9-20.3-7.4 c-1.9-41.1,29.7-57.2,32.3-58.4l16.9-6.2l13.3,32.3l11.3-17.7l2.9,4.1h10.2l2.9-4.1l11.3,17.7l13.3-32.4l17,6.2 C146.6,165.8,178.1,181.9,176.2,222.9 M147.2,156.8l-25.1-9.2l-11.1,26.8l-11.3-17.8h-11l-11.3,17.8l-11.1-26.9l-24.6,9.1 l-0.3,0.1c-0.4,0.2-40,19-37.3,67.4l0,0.6l0.2,0.6c0.2,0.6,5.5,14.2,31.6,13.2c11.3,9.8,32.5,15.5,57.6,15.5 c0.4,0,0.8,0,1.2,0c19.7-0.1,44.8-4.3,57.8-15.5c0.9,0,1.8,0.1,2.6,0.1c23.8,0,28.7-12.7,28.9-13.2l0.2-0.6l0-0.6 C187.2,175.8,147.6,157,147.2,156.8"></path> <path class="st3" d="M146.7,157.1l-24.5-9.5l-13.2-4.4l-10.3,5.1l5.7,6.9l-10.1,83.3l-10.5-83.9l4.6-6.3l-7.3-3.6l-14.5,2.9 l-25.1,9.5L40,167.5c-3.3,4.7-5.4,10.5-6.7,17.4c-0.3,1.7-0.6,3.5-0.8,5.3l0,0c0,0.2,0,0.5,0,0.7c-1.4,12.3-0.7,25.5,0,34.1 c0.1,2.1,0.2,3.9,0.3,5.4c0.3,5.4,3.2,8.3,3.2,8.3c11.2,9.7,32.4,15.5,57.4,15.5c0.4,0,0.8,0,1.2,0 c19.7-0.1,44.6-4.3,57.6-15.5c0,0,2.5-1.5,3.2-8.3c1-8.3,2.8-28.9-0.3-45.5c-1.2-6.6-3.2-12.2-6.3-16.8L146.7,157.1z"></path> <path class="st4" d="M139.1,192.3c-7.1,2.9-14.4,3.4-18.6,3.4c-1.4,0-2.5-0.1-3.1-0.1V192c0.2,0,12.3,1.4,21.7-3.4V192.3z"></path> <path class="st3" d="M74.2,108.9c19.7-8.3,31.7-18.6,38.9-27.3c2.5,3,6.7,8.6,10,15.7c-1.2,23.8-12.1,47.9-29,47.9 c-13.2,0-22.7-14.5-26.8-32.2C70.8,110.3,74.2,108.9,74.2,108.9 M73.8,147.7C60,137,58,128.4,60.2,122.1 c0.4,0.5,0.8,0.9,1.3,1.4c5.8,17.1,16.9,30.1,32.5,30.1c15.1,0,26.3-12.8,32.3-29.9c0.6-0.6,1.1-1.1,1.6-1.7 c-0.6,8-3.6,16.4-10.5,24.9c0,0,50.1-26.1,5.9-85.1c-1.1-3.4-6.5-15.7-25.9-13.6c-64,7-51.9,71.8-44.9,84.9 C58.7,144.4,73.8,147.7,73.8,147.7"></path> <path class="st3" d="M94.3,44.7c-26.1,0-48.6,6.9-48.6,6.9l8.3,19.6v10.5c0,0,12.2,20.6,40.2,20.6c28,0,40.2-20.6,40.2-20.6 V71.1l8.3-19.6C142.9,51.6,120.4,44.7,94.3,44.7"></path> </g> <rect x="56.7" y="70.1" class="st4" width="5" height="4.2"></rect> <rect x="66.7" y="70.1" class="st4" width="5" height="4.2"></rect> <rect x="76.7" y="70.1" class="st4" width="5" height="4.2"></rect> <rect x="86.7" y="70.1" class="st4" width="5" height="4.2"></rect> <rect x="96.8" y="70.1" class="st4" width="5" height="4.2"></rect> <rect x="106.8" y="70.1" class="st4" width="5" height="4.2"></rect> <rect x="116.8" y="70.1" class="st4" width="5" height="4.2"></rect> <rect x="126.8" y="70.1" class="st4" width="5" height="4.2"></rect> </g> <path class="st2" d="M99.1,55.2l0,0.4c-0.1,0.6-0.1,1.2-0.2,1.8h-4.7v6.2c0,0,0,0,0,0c-0.6-0.2-1.2-0.6-1.8-0.9 c-0.9-0.6-1.6-1.3-2-2l0,0l0,0c-0.4-0.7-0.6-1.9-0.8-2.9l0-0.2l0,0l0,0c0,0,0-0.1,0-0.1h4.7v-5.6c1.2,0.9,2.7,1.4,4.3,1.4 c0.3,0,0.5,0,0.8,0C99.2,53.8,99.2,54.5,99.1,55.2 M98.5,51.5c-1.7,0-3.3-0.7-4.3-2c-1,1.3-2.7,2-4.3,2c-0.9,0-1.7-0.2-2.5-0.5 c0.1,2.2,0.3,4.5,0.6,6.7c0.2,1.2,0.4,2.6,1,3.7c0.6,1,1.5,1.9,2.5,2.5c0.7,0.5,1.5,0.9,2.4,1.2c0.1,0,0.2,0.1,0.3,0.1 c0.2,0,0.3-0.1,0.5-0.2c1.9-0.7,4-2.1,4.8-4c0.8-1.7,0.9-3.8,1.1-5.7c0.2-1.4,0.3-2.9,0.3-4.3C100.2,51.4,99.4,51.5,98.5,51.5"></path> </g> </g> </g> </g> </svg> 