<?xml version="1.0" encoding="UTF-8"?> <!-- Generator: Adobe Illustrator 24.1.3, SVG Export Plug-In . SVG Version: 6.00 Build 0) --> <svg xmlns="http://www.w3.org/2000/svg" xmlns:xlink="http://www.w3.org/1999/xlink" version="1.1" id="Layer_1" x="0px" y="0px" viewBox="0 0 425.2 425.2" style="enable-background:new 0 0 425.2 425.2;" xml:space="preserve"> <style type="text/css"> .st0{fill:#FFC630;} .st1{fill:#FFFFFF;} .st2{fill:#FDC600;} </style> <g> <path class="st0" d="M258.8,80l0.2,0.1c30.8,10.6,57.3,31.6,74.5,59.1l-14,8.7c-15.2-24.3-38.6-42.9-65.9-52.3l-0.2-0.1L258.8,80z M245.5,76.2l-3.8,16c-28.1-6.7-57.8-3.5-83.8,9l-7.1-14.9C180.1,72.2,213.8,68.6,245.5,76.2z M340.3,151.3 c14.6,29.4,18.6,63,11.1,94.7l-16-3.8c6.6-27.9,3.1-57.6-9.8-83.6L340.3,151.3z M138.5,93l8.6,14.1c-24.6,15-43.4,38.2-52.7,65.4 l-15.6-5.2l0-0.1C89.4,136.2,110.6,109.9,138.5,93z M331.9,254l15.6,5.4l-0.1,0.3c-10.6,30.9-31.9,57.2-59.9,74.2l-8.5-14.1 c24.7-15,43.5-38.2,52.8-65.4L331.9,254z M90.9,184.3c-6.6,27.9-3.2,57.6,9.7,83.6l-14.8,7.3c-14.6-29.4-18.5-63-11-94.7 L90.9,184.3z M268.2,325.6l7.1,14.9c-29.4,14.1-63.1,17.7-94.8,10.1l3.9-16C212.5,341.2,242.2,338,268.2,325.6z M106.6,278.6 c15.2,24.4,38.6,43,65.9,52.4l-5.3,15.6l-0.1,0c-30.9-10.6-57.3-31.7-74.6-59.2L106.6,278.6z"></path> <path class="st0" d="M147.6,366.5c-4.4-1.9-8.7-3.9-12.9-6.2l7.7-14.6c3.8,2,7.7,3.9,11.7,5.6c24.5,10.5,51.3,14.4,77.5,11.3 l1.9,16.4C204.4,382.5,174.7,378.1,147.6,366.5z M122.1,353c-28.9-18.7-51.2-45.4-64.3-77.4l15.2-6.3c11.8,28.8,31.9,52.9,58,69.8 L122.1,353z M247.9,376.8l-3.3-16.1c30.6-6.3,58-21.5,79.3-44l12,11.3C312.3,352.9,281.9,369.8,247.9,376.8z M52.9,261.9 c-10.3-33.1-10.2-67.9,0.5-100.6l15.7,5.1c-9.6,29.5-9.7,60.8-0.4,90.6L52.9,261.9z M345.4,316.8l-12.9-10.2 c8.1-10.2,14.8-21.6,20-33.7c7-16.3,11-33.5,11.9-51.1l16.5,0.8c-1,19.5-5.4,38.7-13.2,56.8C361.8,292.8,354.4,305.4,345.4,316.8z M73.7,154.1l-15.2-6.5l0.1-0.2c13.6-31.9,36.4-58.2,65.8-76.2l8.6,14.1c-26.5,16.2-47,39.9-59.2,68.5L73.7,154.1z M364.3,208.7 c-1.2-31-11.8-60.5-30.6-85.4l13.1-10c20.9,27.6,32.6,60.3,34,94.7L364.3,208.7z M144.6,78.9l-7.3-14.8 c30.9-15.4,65.2-20.9,99.3-15.9l-2.4,16.3C203.4,60.1,172.4,65,144.6,78.9z M325.3,113.2c-14.8-16.4-32.7-29.1-53.2-37.8 c-8.1-3.5-16.5-6.3-25.1-8.3l3.8-16c9.4,2.2,18.8,5.3,27.7,9.2c22.7,9.7,42.5,23.8,58.9,41.9L325.3,113.2z"></path> </g> <g> <path class="st1" d="M243.6,173.3c0,2.6-2,4.7-4.7,4.7h-2.2h-4.5h-29.1h-3.5h-3c-2.6,0-4.7-2-4.7-4.7s2-4.7,4.7-4.7h3h14h8.4h14.7 h2.2C241.3,168.6,243.6,170.7,243.6,173.3z M243.6,210.5c0-2.6-2-4.7-4.7-4.7h-20.7h-8.4h-19H181h-19.2c-2.6,0-4.7,2-4.7,4.7 s2,4.7,4.7,4.7h28.7l0,0H210l0,0h28.7C241.3,215.2,243.6,213.2,243.6,210.5z M238.9,187.3h-34.8l0,0h-7.3l0,0h-35 c-2.6,0-4.7,2-4.7,4.7s2,4.7,4.7,4.7H181h11.7H208h10.2h20.7c2.6,0,4.7-2,4.7-4.7S241.3,187.3,238.9,187.3z M220.3,233.8 c1.9-3.4,4.1-6.5,6.7-9.3h-18.3l0,0H192l0,0h-30.2c-2.6,0-4.7,2-4.7,4.7l0,0c0,2.6,2,4.7,4.7,4.7H181h14.2h10.4h12.7H220.3z M161.8,252.5h29.4h18.1h5.6c0.2-3.2,0.7-6.3,1.5-9.3h-15.8H200h-38.2c-2.6,0-4.7,2-4.7,4.7S159.4,252.5,161.8,252.5z M161.4,271.1 h56.2c-1.1-3-2-6.1-2.4-9.3h-53.8c-2.6,0-4.7,2-4.7,4.7C156.8,269,158.8,271.1,161.4,271.1z M137.2,172v98.7 c0,11,8.8,19.7,19.7,19.7h75.2c-3.4-2.6-6.5-5.8-8.9-9.3H157c-5.8,0-10.4-4.7-10.4-10.4v-95.9h16.6c10.8,0,19.7-8.9,19.7-19.7V140 h61.8c5.8,0,10.4,4.7,10.4,10.4V161v49.7c1.3-0.2,2.8-0.2,4.3-0.2c1.7,0,3.2,0,4.8,0.2v-46.6V161v-10.6c0-11-8.8-19.7-19.7-19.7 h-64.6c-1.1,0-2.2,0.2-3.4,0.6c-1.1,0.4-2,1.1-2.8,1.9l-33.9,32.6c-0.9,0.7-1.5,1.9-2,3C137.4,169.6,137.2,170.9,137.2,172z"></path> <g> <circle class="st2" cx="259.3" cy="256" r="39.3"></circle> </g> <g> <path class="st1" d="M259.7,240.3c-8.6,0-15.5,7-15.5,15.5c0,8.6,7,15.5,15.5,15.5c8.6,0,15.5-7,15.5-15.5 C275.2,247.3,268.2,240.3,259.7,240.3z"></path> <path class="st1" d="M288.5,246.4c-0.9-2.9-4.8-4.4-6.6-6.8c-1.8-2.5-2-6.6-4.5-8.3c-2.4-1.8-6.4-0.7-9.3-1.7 c-2.8-0.9-5.4-4.1-8.5-4.1c-3.1,0-5.7,3.2-8.5,4.1c-2.9,1-6.9-0.1-9.3,1.7c-2.5,1.8-2.7,5.9-4.5,8.3c-1.8,2.4-5.6,3.9-6.6,6.8 c-0.9,2.8,1.3,6.3,1.3,9.4c0,3.1-2.2,6.6-1.3,9.4c0.9,2.9,4.8,4.4,6.6,6.8c1.8,2.5,2,6.6,4.5,8.3c2.4,1.8,6.4,0.7,9.3,1.7 c2.8,0.9,5.4,4.1,8.5,4.1c3.1,0,5.7-3.2,8.5-4.1c2.9-1,6.9,0.1,9.3-1.7c2.5-1.8,2.7-5.9,4.5-8.3c1.8-2.4,5.6-3.9,6.6-6.8 c0.9-2.8-1.3-6.3-1.3-9.4C287.2,252.7,289.4,249.3,288.5,246.4z M259.7,275.8c-11.1,0-20-9-20-20c0-11.1,9-20,20-20 c11.1,0,20,9,20,20S270.8,275.8,259.7,275.8z"></path> </g> </g> </svg> 