<?xml version="1.0" encoding="UTF-8"?> <!-- Generator: Adobe Illustrator 24.1.3, SVG Export Plug-In . SVG Version: 6.00 Build 0) --> <svg xmlns="http://www.w3.org/2000/svg" xmlns:xlink="http://www.w3.org/1999/xlink" version="1.1" id="Layer_1" x="0px" y="0px" viewBox="0 0 425.2 425.2" style="enable-background:new 0 0 425.2 425.2;" xml:space="preserve"> <style type="text/css"> .st0{fill:#FFFFFF;} .st1{fill:#FCC433;} .st2{fill:#525758;} </style> <g> <path class="st0" d="M329.7,292.7l-0.1,0.2c-18.3,27-45.5,47.1-76.6,56.5l-4.8-15.8c27.5-8.3,51.5-26.1,67.8-50l0.1-0.2 L329.7,292.7z M336.9,280.8l-14.5-7.9c13.8-25.4,18.5-55,13.2-83.3l16.2-3C357.9,218.7,352.5,252.2,336.9,280.8z M239.4,352.8 c-32.2,6.4-65.8,1.4-94.4-14.1l7.9-14.5c25.3,13.7,54.9,18.1,83.3,12.4L239.4,352.8z M348.7,173.1l-15.9,4.6 c-8-27.7-25.6-51.9-49.4-68.1l9.1-13.7l0.1,0.1C319.7,114.3,339.6,141.6,348.7,173.1z M142.4,317.9l-9.3,13.7l-0.2-0.2 c-27.1-18.4-46.9-45.8-56-77.3l15.9-4.6c8,27.8,25.6,52,49.4,68.2L142.4,317.9z M272.8,103.1C247.6,89.4,218,85,189.5,90.6 l-3.2-16.2c32.2-6.4,65.8-1.4,94.4,14.2L272.8,103.1z M89.9,237.5l-16.2,3c-5.9-32.1-0.6-65.6,15.1-94.2l14.5,7.9 C89.4,179.5,84.6,209.1,89.9,237.5z M177.6,93.6c-27.5,8.3-51.6,26.1-67.9,50L96,134.4l0-0.1c18.4-27.1,45.6-47.1,76.8-56.6 L177.6,93.6z"></path> <path class="st0" d="M286.7,64.1c4.3,2.1,8.5,4.4,12.5,6.9l-8.5,14.1c-3.7-2.2-7.5-4.3-11.3-6.2c-23.9-11.8-50.5-17.2-76.9-15.6 l-1-16.5C230.8,45,260.3,51,286.7,64.1z M311.5,79c27.9,20.3,48.7,48.3,60,80.9l-15.6,5.4c-10.2-29.4-29-54.7-54.1-73L311.5,79z M187,48.3l2.4,16.3c-31,4.6-59.2,18.3-81.7,39.7l-11.4-12C121.3,68.7,152.7,53.4,187,48.3z M375.7,173.9 c8.5,33.6,6.4,68.4-6,100.6l-15.4-6c11.2-29,13.1-60.3,5.4-90.6L375.7,173.9z M86.2,102.9l12.4,10.9c-8.6,9.8-16,20.8-21.8,32.6 c-7.9,15.9-12.8,32.9-14.7,50.5l-16.4-1.7c2.1-19.5,7.5-38.4,16.3-56.1C68.5,125.9,76.6,113.8,86.2,102.9z M348.9,280.5l14.8,7.3 l-0.1,0.2c-15.4,31.1-39.6,56.2-70,72.6l-7.8-14.5c27.4-14.8,49.2-37.3,63-65.3L348.9,280.5z M61.3,210c-0.5,31,8.5,61.1,25.9,87 l-13.7,9.2c-19.4-28.7-29.3-62.1-28.8-96.5L61.3,210z M273.9,351.9l6.5,15.2c-31.7,13.7-66.4,17.3-100.2,10.4l3.3-16.2 C214,367.4,245.3,364.2,273.9,351.9z M95.1,307.6c13.9,17.2,31.1,30.9,51.1,40.8c7.9,3.9,16.2,7.2,24.6,9.6l-4.7,15.8 c-9.3-2.8-18.5-6.3-27.2-10.7C116.7,352.2,97.7,337,82.3,318L95.1,307.6z"></path> </g> <rect x="136.8" y="148.3" class="st1" width="136.2" height="79.4"></rect> <path class="st2" d="M179.9,266.6c-1.8,1.8,1,2.8,1,2.8h23.2h0.1h0.1h23.2c0,0,2.8-1,1-2.8c-1.8-1.8-6.7-3.1-7.2-10.7 c0-0.6,0-3,0-6.1h-34.3c0,3.1,0,5.5,0,6.1C186.5,263.5,181.7,264.8,179.9,266.6"></path> <path class="st2" d="M270.2,224.9H138.9v-74.7h131.3V224.9z M205.3,244.1c-2.5,0-4.5-2-4.5-4.5c0-2.5,2-4.5,4.5-4.5s4.5,2,4.5,4.5 C209.8,242.1,207.8,244.1,205.3,244.1 M272.2,142H136.7c-3.2,0-5.9,2.7-5.9,5.9v94.2c0,3.2,2.7,5.9,5.9,5.9h135.5 c3.2,0,5.9-2.7,5.9-5.9v-94.2C278.1,144.7,275.4,142,272.2,142"></path> <path class="st2" d="M288.4,270.8h-46.7v-57.2c0-0.4,0.4-0.8,0.8-0.8h45.1c0.4,0,0.8,0.4,0.8,0.8L288.4,270.8z M265.1,282 c-1.9,0-3.4-1.5-3.4-3.4c0-1.9,1.5-3.4,3.4-3.4c1.9,0,3.4,1.5,3.4,3.4C268.5,280.5,267,282,265.1,282 M287.6,209.6h-45.1 c-2.3,0-4.1,1.8-4.1,4.1v68.6c0,2.3,1.8,4.1,4.1,4.1h45.1c2.3,0,4.1-1.8,4.1-4.1v-68.6C291.7,211.4,289.9,209.6,287.6,209.6"></path> <rect x="241.7" y="212.8" class="st1" width="46.7" height="58"></rect> <path class="st0" d="M265,242.7c-1.7,0-3.1-1.4-3.1-3.1c0-1.7,1.4-3.1,3.1-3.1s3.1,1.4,3.1,3.1C268.1,241.3,266.7,242.7,265,242.7 M178.3,186.2c0-2.4,0.9-4.6,2.6-6.3c0.8-0.8,1.7-1.4,2.6-1.8l0.6-0.3l0.2-0.7c1.4-4.6,5.7-7.8,10.4-7.8c0.7,0,1.5,0.1,2.2,0.2 l1.2,0.2l0.5-1.1c1.1-2.4,2.9-4.5,5.2-6c6.6-4.3,15.4-2.5,19.7,4.1c1.5,2.3,2.3,5,2.3,7.8c0,0.6-0.1,1.3-0.1,1.9l-0.1,1.3l1,0.5 c4.4,2.2,6.2,7.5,4,12c-1.5,3-4.6,5-7.6,5h-35.4C182.3,195.1,178.3,191.1,178.3,186.2 M208.4,215.4c0,1.7-1.4,3.1-3.1,3.1 s-3.1-1.4-3.1-3.1c0-1.7,1.4-3.1,3.1-3.1C207,212.3,208.4,213.7,208.4,215.4 M180.1,218.5c-1.7,0-3.1-1.4-3.1-3.1 c0-1.7,1.4-3.1,3.1-3.1s3.1,1.4,3.1,3.1C183.2,217.1,181.9,218.5,180.1,218.5 M265,233.4c-2.9,0-5.3,1.9-6,4.7H222 c-1.7,0-3.1-1.5-3.1-3.2v-36.7h3.8c6.6,0,12-5.4,12-12c0-4.2-2.2-8.1-5.8-10.3c0-0.5,0.1-0.9,0.1-1.4c0-9.6-7.8-17.3-17.3-17.3 c-3.4,0-6.7,1-9.5,2.8c-2.4,1.6-4.4,3.7-5.8,6.3c-0.5-0.1-1.1-0.1-1.6-0.1c-3,0-6,1-8.4,2.9c-2.2,1.7-3.8,3.9-4.8,6.5 c-1.1,0.6-2.1,1.3-2.9,2.1c-4.7,4.7-4.7,12.3,0,17c2.3,2.3,5.3,3.5,8.5,3.5h3.8v12.5c0,1.7-1.4,3.2-3.1,3.2h-1.7 c-0.7-2.8-3.2-4.7-6-4.7c-3.4,0-6.2,2.8-6.2,6.2c0,3.4,2.8,6.2,6.2,6.2c2.8,0,5.3-1.9,6-4.6h1.7c3.4,0,6.2-2.8,6.2-6.3v-12.5h9.7 v11.2c-3.3,0.9-5.3,4.2-4.5,7.6c0.9,3.3,4.2,5.3,7.6,4.5c3.3-0.9,5.3-4.2,4.5-7.6c-0.6-2.2-2.3-3.9-4.5-4.5v-11.2h9v36.7 c0,3.4,2.8,6.3,6.2,6.3H259c0.9,3.3,4.3,5.3,7.6,4.4c3.3-0.9,5.3-4.3,4.4-7.6C270.3,235.3,267.8,233.4,265,233.4"></path> </svg> 