<?xml version="1.0" encoding="UTF-8"?> <!-- Generator: Adobe Illustrator 24.1.3, SVG Export Plug-In . SVG Version: 6.00 Build 0) --> <svg xmlns="http://www.w3.org/2000/svg" xmlns:xlink="http://www.w3.org/1999/xlink" version="1.1" id="Layer_1" x="0px" y="0px" viewBox="0 0 300 270" style="enable-background:new 0 0 300 270;" xml:space="preserve"> <style type="text/css"> .st0{fill:#FFFFFF;} .st1{fill:#525758;} .st2{fill:#FFC630;} </style> <g> <rect x="15.1" y="15.5" class="st0" width="246" height="143.4"></rect> <path class="st1" d="M93,229.2c-3.2,3.2,1.8,5.1,1.8,5.1h41.9h0.1h0.2h41.9c0,0,5.1-1.8,1.8-5.1c-3.2-3.2-12-5.5-12.9-19.4 c-0.1-1.1,0-5.4,0-11.1h-61.9c0,5.7,0.1,10,0,11.1C105,223.6,96.2,226,93,229.2"></path> <path class="st1" d="M256.1,153.9H19V18.9h237.1V153.9z M138.9,188.5c-4.5,0-8.1-3.6-8.1-8.1c0-4.5,3.6-8.1,8.1-8.1 c4.5,0,8.1,3.6,8.1,8.1C147,184.9,143.4,188.5,138.9,188.5 M259.7,4.2H14.9C9.1,4.2,4.3,9,4.3,14.8v170.1c0,5.9,4.8,10.6,10.6,10.6 h244.8c5.9,0,10.6-4.8,10.6-10.6V14.8C270.3,9,265.5,4.2,259.7,4.2"></path> <path class="st1" d="M289.1,236.8h-84.4V133.5c0-0.8,0.6-1.4,1.4-1.4h81.5c0.8,0,1.4,0.6,1.4,1.4L289.1,236.8z M246.9,257 c-3.4,0-6.2-2.8-6.2-6.2c0-3.4,2.8-6.2,6.2-6.2c3.4,0,6.2,2.8,6.2,6.2C253.1,254.3,250.3,257,246.9,257 M287.6,126.2h-81.4 c-4.1,0-7.4,3.3-7.4,7.4v123.9c0,4.1,3.3,7.4,7.4,7.4h81.4c4.1,0,7.4-3.3,7.4-7.4V133.6C295,129.5,291.7,126.2,287.6,126.2"></path> <rect x="204.7" y="132.1" class="st0" width="84.4" height="104.7"></rect> <path class="st2" d="M246.7,186c-3.1,0-5.6-2.5-5.6-5.6c0-3.1,2.5-5.6,5.6-5.6c3.1,0,5.6,2.5,5.6,5.6 C252.3,183.5,249.8,186,246.7,186 M90.1,83.9c0-4.3,1.7-8.4,4.7-11.4c1.4-1.4,3-2.5,4.8-3.3l1.1-0.5l0.4-1.2 c2.6-8.3,10.3-14.1,18.8-14.1c1.3,0,2.7,0.1,4,0.4l2.2,0.4l0.9-2c2-4.4,5.3-8.2,9.4-10.9c11.9-7.8,27.8-4.4,35.6,7.4 c2.7,4.2,4.2,9.1,4.2,14.1c0,1.2-0.1,2.3-0.2,3.5l-0.2,2.3l1.7,0.9c8,4,11.3,13.6,7.3,21.6c-2.7,5.5-8.3,9-13.8,9h-64 C97.4,100,90.1,92.8,90.1,83.9 M144.5,136.7c0,3.1-2.5,5.6-5.6,5.6c-3.1,0-5.6-2.5-5.6-5.6s2.5-5.6,5.6-5.6 C142,131.1,144.5,133.6,144.5,136.7 M93.4,142.3c-3.1,0-5.6-2.5-5.6-5.6s2.5-5.6,5.6-5.6c3.1,0,5.6,2.5,5.6,5.6 C99,139.8,96.5,142.3,93.4,142.3 M246.7,169.2c-5.1-0.1-9.7,3.5-10.9,8.5h-66.7c-3.1,0-5.6-2.6-5.6-5.7v-66.3h6.8 c12,0,21.7-9.7,21.8-21.7c0-7.6-3.9-14.6-10.4-18.6c0.1-0.8,0.1-1.7,0.1-2.6c0-17.3-14-31.3-31.3-31.3c-6.1,0-12.1,1.8-17.2,5.1 c-4.3,2.9-7.9,6.7-10.4,11.3c-1-0.1-2-0.2-3-0.2c-5.5,0-10.8,1.8-15.2,5.2c-3.9,3-6.9,7.1-8.6,11.8c-1.9,1-3.7,2.3-5.3,3.9 c-8.5,8.5-8.5,22.3,0,30.8c4.1,4.1,9.6,6.4,15.4,6.4h6.8v22.6c0,3.1-2.5,5.7-5.6,5.7h-3.2c-1.2-5-5.7-8.5-10.9-8.5 c-6.2,0-11.2,5-11.2,11.2c0,6.2,5,11.2,11.2,11.2c5.1,0,9.6-3.4,10.8-8.4h3.2c6.2,0,11.2-5.1,11.2-11.3v-22.6h17.5v20.1 c-6,1.5-9.6,7.7-8.1,13.7c1.5,6,7.7,9.6,13.7,8.1c6-1.5,9.6-7.7,8.1-13.7c-1-3.9-4.1-7-8.1-8.1v-20.1h16.2V172 c0,6.2,5,11.3,11.2,11.3h66.7c1.6,6,7.7,9.6,13.7,8c6-1.6,9.6-7.7,8-13.7C256.3,172.6,251.8,169.2,246.7,169.2"></path> </g> </svg> 