<?xml version="1.0" encoding="UTF-8"?> <svg xmlns="http://www.w3.org/2000/svg" viewBox="0 0 123.99 152.06"><defs><style>.cls-1{fill:#fec700}</style></defs><g id="Layer_2" data-name="Layer 2"><g id="Benefits"><path class="cls-1" d="M704.57 294.23a5.37 5.37 0 012.92 9.88 3.11 3.11 0 01.14.87v6.13a3.07 3.07 0 11-6.13 0V305a3.11 3.11 0 01.14-.87 5.38 5.38 0 012.93-9.88m0-29.92a12.16 12.16 0 0112.27 12.11v7.84h-24.55v-7.84a12.16 12.16 0 0112.28-12.11m0-7.65a19.41 19.41 0 00-19.18 19.71v7.91c-3.52.36-5.37 3.34-5.37 7v25.94a7 7 0 007 7h35.14a7 7 0 007-7v-26c0-3.62-1.84-6.63-5.37-7v-7.89a19.41 19.41 0 00-19.17-19.71" transform="translate(-642.57 -217.62)"></path><path class="cls-1" d="M679.92 246.59a113.44 113.44 0 01-26 9.41c.4 25.07 3.93 44.55 11.87 60.53s20.47 28.9 38.82 40.86c18.26-12 30.79-24.81 38.73-40.86s11.55-35.46 12-60.53a113.9 113.9 0 01-26.12-9.41 130.13 130.13 0 01-24.57-16.06A131.38 131.38 0 01680 246.59m-32.51-.82a99.9 99.9 0 0027.51-9.18 127.55 127.55 0 0026-17.6 5.63 5.63 0 017.45.08 122.69 122.69 0 0025.88 17.52 100.17 100.17 0 0027.68 9.26 5.69 5.69 0 014.67 5.57c0 29-3.85 51.43-13.18 70.1-9.34 18.92-24.08 33.66-45.86 47.33a5.77 5.77 0 01-6.07-.08c-21.7-13.59-36.36-28.41-45.77-47.25-9.26-18.67-13.11-41.11-13.11-70.1a5.73 5.73 0 014.84-5.65" transform="translate(-642.57 -217.62)"></path></g></g></svg> 