<?xml version="1.0" encoding="UTF-8"?> <svg xmlns="http://www.w3.org/2000/svg" viewBox="0 0 156.15 138.73"><defs><style>.cls-1{fill:#fec700}</style></defs><g id="Layer_2" data-name="Layer 2"><g id="Benefits"><path class="cls-1" d="M74.08 122.84v-15.57c2.59 0 2.59 5.19 2.59 5.19v10.38h13v-15.57c-1.4-17.69-17.18-20.75-36.31-20.75S18.41 89.58 17 107.27v15.57h13v-10.38s0-5.19 2.59-5.19v15.57"></path><path class="cls-1" d="M53.36 37.23A23.35 23.35 0 1130 60.58a23.34 23.34 0 0123.36-23.35"></path><path class="cls-1" d="M75.89 6.34a4.22 4.22 0 104.22 4.22 4.23 4.23 0 00-4.22-4.22M19.2 21.89A12.87 12.87 0 006.35 34.74v84.79a12.87 12.87 0 0012.85 12.86H137a12.87 12.87 0 0012.85-12.86V34.74A12.87 12.87 0 00137 21.89h-30.38v6.91H45.16v-6.91zm0 115.88A18.26 18.26 0 011 119.53V34.74a18.26 18.26 0 0118.2-18.23h26V9.6h21.14a9.6 9.6 0 0119.1 0h21.18v6.91H137a18.25 18.25 0 0118.23 18.23v84.79A18.26 18.26 0 01137 137.77z"></path><path class="cls-1" d="M107.58 22.85H137a11.9 11.9 0 0111.89 11.89v84.8A11.9 11.9 0 01137 131.43H19.2a11.9 11.9 0 01-11.89-11.89v-84.8A11.9 11.9 0 0119.2 22.85h25v6.91h63.38v-6.91zm-31.69-9a3.26 3.26 0 113.26-3.26 3.27 3.27 0 01-3.26 3.26m0-13.85A10.58 10.58 0 0065.5 8.64H44.2v6.91h-25A19.22 19.22 0 000 34.74v84.8a19.22 19.22 0 0019.2 19.19H137a19.22 19.22 0 0019.2-19.19v-84.8A19.22 19.22 0 00137 15.55h-29.42V8.64h-21.3A10.58 10.58 0 0075.89 0M46.13 27.83v-6.9H19.2A13.83 13.83 0 005.38 34.74v84.8a13.83 13.83 0 0013.82 13.81H137a13.83 13.83 0 0013.82-13.81v-84.8A13.83 13.83 0 00137 20.93h-31.3v6.9zm29.76-12.08a5.19 5.19 0 10-5.18-5.19 5.18 5.18 0 005.18 5.19m0-13.82a8.63 8.63 0 018.64 8.63h21.12v6.91H137a17.27 17.27 0 0117.27 17.27v84.8A17.27 17.27 0 01137 136.81H19.2a17.27 17.27 0 01-17.27-17.27v-84.8A17.27 17.27 0 0119.2 17.47h26.93v-6.91h21.12a8.63 8.63 0 018.64-8.63"></path><path class="cls-1" d="M116.35 107.69c-1-.34-1-.9 0-1.24l6.09-2.08a2.94 2.94 0 001.86-2.55l.09-6.43c0-1.07.54-1.24 1.18-.39l3.86 5.16a3 3 0 003 1l6.16-1.91c1-.31 1.33.15.72 1l-3.71 5.26a2.94 2.94 0 000 3.15l3.71 5.27c.61.87.29 1.32-.72 1l-6.16-1.9a2.93 2.93 0 00-3 1l-3.87 5.15c-.63.85-1.17.68-1.18-.38l-.09-6.44a2.94 2.94 0 00-1.85-2.55zm0-26.96c-1-.34-1-.9 0-1.24l6.09-2.08a2.94 2.94 0 001.86-2.55l.09-6.44c0-1.06.54-1.23 1.18-.38l3.86 5.15a3 3 0 003 1l6.15-1.91c1-.31 1.34.14.73 1l-3.71 5.26a2.94 2.94 0 000 3.15l3.71 5.31c.61.87.28 1.32-.73 1l-6.15-1.91a3 3 0 00-3 1l-3.86 5.15c-.64.85-1.17.67-1.18-.38l-.09-6.45a3 3 0 00-1.86-2.55zM93.24 94.21c-1-.34-1-.89 0-1.24l6.09-2.08a2.92 2.92 0 001.85-2.55l.1-6.44c0-1.06.54-1.23 1.18-.38l3.86 5.15a3 3 0 003 1l6.16-1.91c1-.31 1.34.14.73 1L112.49 92a3 3 0 000 3.16l3.71 5.27c.61.86.28 1.31-.73 1l-6.16-1.9a2.92 2.92 0 00-3 1l-3.86 5.15c-.64.85-1.17.68-1.18-.38l-.1-6.44a2.92 2.92 0 00-1.85-2.55zm0-26.96c-1-.35-1-.9 0-1.24l6.09-2.08a2.93 2.93 0 001.85-2.55l.1-6.44c0-1.06.54-1.23 1.18-.38l3.86 5.15a2.92 2.92 0 003 1l6.16-1.9c1-.31 1.34.14.73 1l-3.71 5.26a3 3 0 000 3.16l3.71 5.26c.61.86.28 1.31-.73 1l-6.16-1.9a2.94 2.94 0 00-3 1l-3.86 5.16c-.64.85-1.17.67-1.18-.39l-.1-6.44a2.9 2.9 0 00-1.85-2.54zm23.11-13.71c-1-.35-1-.9 0-1.25l6.09-2.08a2.94 2.94 0 001.86-2.54l.09-6.45c0-1 .54-1.23 1.18-.38l3.86 5.16a2.92 2.92 0 003 1l6.15-1.9c1-.31 1.34.14.73 1l-3.71 5.27a2.94 2.94 0 000 3.15l3.71 5.27c.61.86.28 1.31-.73 1l-6.15-1.9a2.92 2.92 0 00-3 1L125.57 65c-.64.84-1.17.67-1.18-.39l-.09-6.44a3 3 0 00-1.86-2.55z"></path></g></g></svg> 