<?xml version="1.0" encoding="UTF-8"?> <svg xmlns="http://www.w3.org/2000/svg" viewBox="0 0 136.92 152.57"><path d="M113.87 116.3a5.45 5.45 0 11-5.45 5.45 5.4 5.4 0 015.45-5.45m-45.35-1.42a137.65 137.65 0 0020.15 7c-.54 1.49-1.12 3-1.71 4.32-2.66 6.26-5.8 11.2-9 14.41s-6.37 4.66-9.48 4.66-6.26-1.45-9.48-4.66-6.36-8.15-9-14.41c-.57-1.35-1.11-2.8-1.64-4.26a137.3 137.3 0 0020.21-7.1zM14 112.61a5.45 5.45 0 11-5.45 5.45 5.4 5.4 0 015.45-5.45m79.8-11.41a125.12 125.12 0 01-3 13.8 125.26 125.26 0 01-13.39-4.32c2.76-1.4 5.51-2.94 8.28-4.54s5.46-3.24 8.06-4.94m-50.63 0c2.61 1.7 5.28 3.34 8.06 4.94s5.53 3.14 8.29 4.54a126.14 126.14 0 01-13.4 4.26 128.71 128.71 0 01-3-13.74M118 81.74c1 1.19 2 2.34 2.89 3.52 4.1 5.43 6.84 10.58 8 15s.87 7.86-.69 10.56a10.57 10.57 0 01-3.91 3.86 12.65 12.65 0 00-22.29 2.59c-1.33-.17-2.68-.43-4.08-.68a139.55 139.55 0 003.91-21 140.07 140.07 0 0016.24-13.85m-99.22 0a140.78 140.78 0 0016.23 13.85 140.12 140.12 0 003.86 20.94 68.06 68.06 0 01-12.26 1.19A12.78 12.78 0 0014 105.35a12.59 12.59 0 00-6.53 1.87 17.08 17.08 0 01.51-7c1.17-4.4 3.91-9.55 8-15 .89-1.18 1.89-2.33 2.9-3.52m83.84-14.88a127.12 127.12 0 0110.44 9.43 130.61 130.61 0 01-10.44 9.42c.16-3.09.28-6.23.28-9.42s-.12-6.32-.28-9.43m-68.46 0C34.07 70 34 73.08 34 76.29s.12 6.33.28 9.42a128.9 128.9 0 01-10.44-9.42 127.12 127.12 0 0110.44-9.43m34.18-21.17c4.5 2.06 9.07 4.36 13.62 7S90.93 58.09 95 61c.46 4.95.73 10.05.73 15.33s-.27 10.4-.73 15.32q-6.06 4.29-12.89 8.23c-4.57 2.64-9.16 5-13.68 7-4.48-2.06-9-4.42-13.56-7S46 94.47 42 91.61c-.46-4.92-.74-10.06-.74-15.32S41.49 65.94 42 61c4-2.88 8.32-5.71 12.89-8.35s9.12-4.92 13.62-7m22.36-8.06a124.47 124.47 0 013 13.74c-2.6-1.7-5.27-3.39-8.06-5s-5.52-3.08-8.28-4.48a126.72 126.72 0 0113.39-4.26m-44.67 0a128.35 128.35 0 0113.34 4.26c-2.76 1.4-5.52 2.88-8.29 4.48s-5.44 3.35-8.06 5.06a126.65 126.65 0 013-13.8m63.52-2.83c9.74-.07 16.09 2.6 18.61 7 1.56 2.69 1.86 6.1.69 10.5s-3.91 9.6-8 15c-.88 1.17-1.88 2.38-2.89 3.57A139.33 139.33 0 00101.83 57a139.31 139.31 0 00-3.91-21 68.48 68.48 0 0111.75-1.19m-82.42 0A68.48 68.48 0 0139 36a139.14 139.14 0 00-4 21 139.36 139.36 0 00-16.18 13.9c-1-1.19-2-2.4-2.9-3.57-4.09-5.44-6.83-10.65-8-15s-.87-7.81.68-10.5c2.53-4.38 8.87-7.05 18.62-7m23-23.9a5.45 5.45 0 11-5.44 5.45 5.39 5.39 0 015.44-5.45m18.24-3.67c3.11 0 6.25 1.45 9.48 4.66s6.36 8.15 9 14.42c.58 1.35 1.12 2.79 1.65 4.25a138.61 138.61 0 00-20.15 7.1 138.61 138.61 0 00-20.15-7.1c.19-.54.42-1.05.62-1.58h1.36A12.77 12.77 0 0063 16.35 12.5 12.5 0 0061.31 10a11.89 11.89 0 017.15-2.74zm0-7.26a19.93 19.93 0 00-12.6 5 12.49 12.49 0 00-5.57-1.37 12.7 12.7 0 00-8.11 22.48c-.37.95-.73 1.9-1.08 2.9a77.86 77.86 0 00-13.85-1.48c-11.11-.08-20.46 3-24.86 10.61-2.71 4.7-3 10.33-1.48 16s4.7 11.57 9.2 17.54c1.15 1.53 2.42 3.06 3.74 4.6-1.32 1.54-2.59 3.06-3.74 4.59-4.5 6-7.69 11.81-9.2 17.49-1.43 5.4-1.22 10.82 1.14 15.38a12.4 12.4 0 00-.8 4.31 12.7 12.7 0 0023.39 6.87 73.28 73.28 0 0016.46-1.36c.67 1.92 1.4 3.73 2.16 5.5 2.92 6.89 6.45 12.55 10.61 16.69s9.17 6.81 14.59 6.81 10.42-2.66 14.59-6.81 7.69-9.8 10.61-16.69c.75-1.77 1.49-3.58 2.16-5.5 1.94.36 3.82.68 5.67.91a12.69 12.69 0 0025.09-2.73 19 19 0 008-7.27c2.71-4.69 3-10.39 1.47-16.06s-4.69-11.51-9.19-17.49c-1.16-1.53-2.42-3-3.75-4.59 1.33-1.54 2.59-3.07 3.75-4.6 4.5-6 7.68-11.86 9.19-17.54s1.24-11.31-1.47-16c-4.4-7.62-13.76-10.69-24.86-10.61A77.76 77.76 0 0095.82 29c-.67-1.93-1.41-3.8-2.16-5.57-2.92-6.87-6.45-12.53-10.61-16.68S73.88 0 68.46 0z" fill="#fec700" data-name="Layer 2"></path></svg> 