<?xml version="1.0" encoding="UTF-8"?> <svg xmlns="http://www.w3.org/2000/svg" viewBox="0 0 154.52 153.44"><defs><style>.cls-1{fill:#fec700}</style></defs><g id="Layer_2" data-name="Layer 2"><g id="Benefits"><path class="cls-1" d="M33.38 49.4q2.67-2.05 5.43-3.78a3.37 3.37 0 00-.27-.34 12.23 12.23 0 00-5.16-3.09zm68.42 86.75a.94.94 0 01.58.19 1 1 0 01.39.76v3.38a5 5 0 001.47 3.49 5 5 0 008.54-3.56v-8.9a1 1 0 01.46-.82l1.21-.74c13.11-8.22 21.6-20.62 23.27-34l.28-2.24a1 1 0 011-.85h5.5a2 2 0 001.42-.59 2 2 0 000-2.86 2.07 2.07 0 00-1.43-.58H139a1 1 0 01-1-.84l-.27-2.24c-3.14-25.11-28.65-44-59.34-44a70.78 70.78 0 00-16.51 2A19 19 0 0165 54v3.16a1 1 0 01-1 1h-5.12a1 1 0 01-1-1V54a12.33 12.33 0 00-8.75-11.76v14.88a1 1 0 01-1 1h-5.05a1 1 0 01-1-1v-5.25C32.34 58.05 25 66.66 21.4 76.27l-.63 1.66a1 1 0 01-.9.62H8v24.56h11.86a1 1 0 01.9.62l.63 1.65c3.71 9.8 10.93 18.29 20.9 24.55l1.19.75a.94.94 0 01.46.81v8.92a5 5 0 001.47 3.59 5 5 0 008.54-3.5v-3.39a1 1 0 01.39-.76.94.94 0 01.58-.19.84.84 0 01.27 0l3.24 1a71.82 71.82 0 0039.82 0l3.25-.94a.75.75 0 01.26 0m6 16.33A12 12 0 0199.3 149a12.2 12.2 0 01-2.68-4.08 79.58 79.58 0 01-36.45 0 12 12 0 01-23.25-4.45v-5.59a57.55 57.55 0 01-21.17-24.69H1.93a1 1 0 01-1-1V72.46a1 1 0 011-1h13.81a54.1 54.1 0 0110.6-15.82V35.59a1 1 0 011-1h2.56A19.2 19.2 0 0142.14 39v-3.41a1 1 0 011-1h2.55A19.07 19.07 0 0156.3 37.8a77.82 77.82 0 0122.15-3.21c16.06 0 31.56 4.84 43.65 13.62 11.85 8.61 19.71 20.48 22.2 33.51h.23a9.05 9.05 0 016.42 15.45 9 9 0 01-6.4 2.67h-.24c-2.67 13.85-11.3 26.23-24.39 35v5.56a12.07 12.07 0 01-12 12.06"></path><path class="cls-1" d="M34.35 47.47v-3.91a11.46 11.46 0 012.95 1.88c-1 .65-2 1.32-2.95 2m29.06-3.2a69.7 69.7 0 0115-1.63c30.21 0 55.31 18.57 58.38 43.2l.28 2.24a1.93 1.93 0 001.93 1.72h5.5a1.13 1.13 0 01.75.29 1.1 1.1 0 01.31.75 1.07 1.07 0 01-.32.76 1 1 0 01-.73.3H139a1.92 1.92 0 00-1.91 1.68l-.29 2.25c-1.63 13.12-10 25.27-22.83 33.34l-1.19.73a2 2 0 00-.92 1.64v8.9a4 4 0 01-1.19 2.86 4 4 0 01-2.84 1.18 4 4 0 01-4-4v-3.39a1.93 1.93 0 00-1.93-1.9 1.88 1.88 0 00-.53.07l-3.25 1a70.77 70.77 0 01-39.28 0l-3.24-.95a2 2 0 00-1.69.3 2 2 0 00-.78 1.53v3.39a4.05 4.05 0 01-6.9 2.83 4.12 4.12 0 01-1.19-2.88v-8.92a1.91 1.91 0 00-.91-1.63l-1.19-.74C33 123 25.92 114.64 22.29 105l-.63-1.65a1.92 1.92 0 00-1.8-1.24H9V79.52h10.87a1.93 1.93 0 001.8-1.25l.63-1.65c3.36-8.94 10-17 18.86-23v3.47a1.93 1.93 0 001.92 1.93h5.13a1.93 1.93 0 001.92-1.93V43.57A11.29 11.29 0 0157 54v3.16A1.94 1.94 0 0058.88 59H64a1.93 1.93 0 001.93-1.93V54a19.94 19.94 0 00-2.52-9.68M29.86 33.66H27.3a1.94 1.94 0 00-1.93 1.93v19.69a55.21 55.21 0 00-10.26 15.25H1.93A1.92 1.92 0 000 72.46v36.72a1.93 1.93 0 001.93 1.93h13.19A58.52 58.52 0 0036 135.34v5.08A13 13 0 0060.74 146a80.3 80.3 0 0035.31 0 13.16 13.16 0 002.57 3.63 13 13 0 0022.22-9.21v-5a61 61 0 0016-15.69 51.5 51.5 0 008.22-18.85 10 10 0 000-20c-2.7-13-10.62-24.76-22.43-33.34-12.25-8.9-27.95-13.8-44.22-13.8a78.8 78.8 0 00-22 3.12 20 20 0 00-10.77-3.12H43.1a1.92 1.92 0 00-1.93 1.92v1.52a20.11 20.11 0 00-11.31-3.45m2.56 17.67a62.49 62.49 0 017.77-5.48 13.21 13.21 0 00-1-1.32 13.15 13.15 0 00-6.77-3.6zm26.46 5.71V54a13.21 13.21 0 00-10.67-13v16.12h-5.13v-7c-10.7 6.37-18.66 15.39-22.58 25.81l-.63 1.66H7v26.48h12.86l.63 1.65c3.78 10 11.14 18.65 21.29 25l1.19.74v8.92a6 6 0 001.76 4.24 6 6 0 0010.19-4.17v-3.39l3.24.95a72.87 72.87 0 0040.36 0l3.24-.95v3.38a5.94 5.94 0 006 5.89 6 6 0 006-6v-8.9l1.2-.74c13.36-8.37 22-21 23.72-34.73l.32-2.16h5.5a2.91 2.91 0 002.1-.88 3 3 0 00-2.11-5.08H139l-.28-2.24c-3.2-25.6-29.13-44.89-60.3-44.89A72.08 72.08 0 0060.32 43 18.16 18.16 0 0164 54v3.16zm-29-21.52a18.24 18.24 0 0113 5.38c.09.09.16.2.26.3v-5.68h2.55a18.14 18.14 0 0110.45 3.3 76.93 76.93 0 0122.31-3.3c32.86 0 60.35 20.11 65.05 47.13h1a8.1 8.1 0 010 16.2h-1c-2.45 14-11.27 26.69-24.55 35.42v6.08a11.09 11.09 0 01-21.68 3.32 78.48 78.48 0 01-37.68 0A11.12 11.12 0 0149 151.51a11.08 11.08 0 01-11.09-11.09v-6.11c-9.94-6.53-17.33-15.18-21.49-25.13H1.93V72.46h14.45a52.94 52.94 0 0110.92-16.4V35.59z"></path><path class="cls-1" d="M42.64 67.89a10.47 10.47 0 00-8.68 12l6.41-1a4 4 0 117.83-1.25l6.41-1a10.47 10.47 0 00-12-8.67m46.65-43.51A12.23 12.23 0 1077 12.23a12.25 12.25 0 0012.26 12.23m23.38 35.73s-22.35-11.81-43.71-5v-5.75s29.51-5.95 43.71 10.75"></path></g></g></svg> 