<?xml version="1.0" encoding="UTF-8"?> <svg xmlns="http://www.w3.org/2000/svg" viewBox="0 0 228.19 185.98"><defs><style>.cls-2{fill:#fff}.cls-3{fill:#525758}.cls-4{fill:#fcc433}</style></defs><g id="Layer_2" data-name="Layer 2"><g id="Key_services" data-name="Key services"><path fill="#2e2d2c" d="M108.89 111.38l7.13 1.69-1.09 6.75-5.39 6.27-4.63-2.82-1.84-5.98 5.82-5.91z"></path><path class="cls-2" d="M788.36 363.88l-14.78-5.41-47.58-.63-16 5.94-.23.1C709.49 364 680 378 682.07 414v.46l.15.44c.16.44 4.1 10.55 23.51 9.79 8.38 7.27 24.14 11.54 42.85 11.54h.89c14.68-.1 33.3-3.21 43-11.53.67 0 1.33.05 2 .05 17.66 0 21.32-9.42 21.48-9.84l.16-.44v-.46c2-36-27.41-50-27.71-50.11" transform="translate(-591.5 -274.47)"></path><path class="cls-3" d="M772.11 313.74c-.48 19.42-9.19 39.74-23 39.74-12.89 0-21.34-17.62-22.82-35.73v-16.09l45.85-1.12zm-48.78 22.46c4.67 13.54 13.34 23.8 25.75 23.8 11.95 0 20.79-10.14 25.57-23.66 9.64-9.73 7.37-17 5.14-20.48 5.21-25.06-10.79-39.21-31.62-39.21-37.37 0-30.85 40.94-30.85 40.94h.12c-1.71 3.87-2.21 10.34 5.89 18.6m38.81 75.86V416c.65 0 1.8.11 3.36.11a56.36 56.36 0 0020.36-3.67v-4.09c-10.3 5.3-23.52 3.75-23.72 3.73m50.94 1.81c-.75 1.18-4.36 5.64-15.85 5.75a308 308 0 00-.17-32.29l-6.28 1a284.25 284.25 0 01-.2 32.76c-6.45 5.64-19.67 9.53-35.06 10.43L752.8 380h-7.45l-2.73 51.58c-15.38-.79-28.28-4.62-34.89-10.48a276 276 0 01-.34-32.56l-6.54-.42a276 276 0 00.22 31.52c-11.54-.09-15.16-4.58-15.91-5.76-1.47-32.1 23.2-44.68 25.28-45.68l13.2-4.85 10.41 25.29 8.82-13.86 2.24 3.18H753l2.23-3.17 8.81 13.85 10.42-25.29 13.3 4.85c2.15 1 26.75 13.62 25.28 45.69M790.4 362.2l-19.56-7.2-8.64 21-8.84-13.88h-8.58L735.94 376l-8.64-21-19.3 7.08-.24.1c-.31.15-31.28 14.87-29.14 52.71v.49l.17.45c.17.46 4.3 11.1 24.72 10.3 8.81 7.64 25.39 12.14 45.06 12.13h1c15.43-.11 35-3.38 45.16-12.12h2.06c18.58 0 22.43-9.9 22.59-10.35l.17-.45v-.49c2.14-37.84-28.84-52.56-29.15-52.71" transform="translate(-591.5 -274.47)"></path><path class="cls-3" d="M790 362.45L770.84 355l-10.34-3.43-8.08 4 4.47 5.39-7.89 65.09-8.2-65.55 3.57-4.94-5.73-2.81L727.3 355l-19.63 7.44-1 8.11a34.44 34.44 0 00-5.22 13.58c-.25 1.35-.45 2.73-.62 4.13v.56a137.49 137.49 0 000 26.64c.07 1.63.15 3 .22 4.21a10.45 10.45 0 002.49 6.5c8.78 7.61 25.3 12.09 44.9 12.08h.94c15.38-.11 34.9-3.37 45-12.08 0 0 2-1.14 2.49-6.5.74-6.5 2.15-22.55-.24-35.54a35 35 0 00-5.02-13.13zm-10.53-44.05c6.87-27.15-20.08-43.93-20.08-43.93l2.15 6.46c-24.25-11.85-52.82 7.55-52.82 7.55l8.63 7-8.09 7.52 7.44 1.77-3.93 3.62 5.11 1.62-4.31 3.77 3.78 3.59h.16l8.31-.77c-.06-1.18-.09-2.35-.1-3.53l2.14-2.24-1.76-3.65a.34.34 0 000-.1l5.25 1.32c11.59 3 22.64-4.85 22.64-4.85l-1.08 4.85 12.93-4.31-.54 7 7.22-1.17c.06 1 .09 2 .09 3 0 1.52 0 3.05-.16 4.58z" transform="translate(-591.5 -274.47)"></path><path class="cls-3" d="M183.69 107.52l7.09 1.67-1.09 6.71-5.35 6.23-4.61-2.81-1.83-5.94 5.79-5.86z"></path><path class="cls-2" d="M781 386.5v.44c-.07.65-.14 1.31-.23 2h-5.13v6.78a10.42 10.42 0 01-2-1 6.78 6.78 0 01-2.15-2.16 9.32 9.32 0 01-.86-3.14v-.38h5.1v-6.17a8 8 0 004.75 1.51 8.12 8.12 0 00.86 0c-.05.75-.12 1.52-.2 2.3m-.66-4a5.91 5.91 0 01-4.75-2.17 5.91 5.91 0 01-4.75 2.17 6.33 6.33 0 01-2.7-.58 58 58 0 00.68 7.34 11 11 0 001.14 4 8.48 8.48 0 002.69 2.74 12.32 12.32 0 002.59 1.3 1.13 1.13 0 00.36.07 1.64 1.64 0 00.59-.16c2.1-.81 4.35-2.29 5.28-4.42a21.34 21.34 0 001.23-6.18c.16-1.57.28-3.15.34-4.73a6.33 6.33 0 01-2.7.58m-79.17 3.42l-14.78-5.41L639 380l-16 6-.23.1c-.29.13-29.74 14.13-27.71 50.11v.46l.16.44c.16.44 4.09 10.54 23.5 9.79 8.38 7.26 24.14 11.54 42.85 11.54h.89c14.68-.1 33.3-3.22 42.95-11.53.67 0 1.33.05 2 .05 17.66 0 21.32-9.42 21.48-9.84l.16-.44v-.46c2-36-27.41-50-27.71-50.11" transform="translate(-591.5 -274.47)"></path><path class="cls-3" d="M685.06 335.91c-.47 19.43-9.19 39.74-23 39.74-12.89 0-21.34-17.61-22.82-35.73v-16.08l45.85-1.13zm-48.78 22.47c4.63 13.54 13.34 23.83 25.75 23.83 12 0 20.79-10.14 25.57-23.66 9.64-9.73 7.37-17 5.14-20.48C698 313 682 298.83 661.12 298.83c-37.37 0-30.85 40.94-30.85 40.94h.12c-1.71 3.86-2.21 10.34 5.89 18.6m38.81 75.86v3.92c.65 0 1.81.1 3.36.1a56.31 56.31 0 0020.36-3.66v-4.09c-10.3 5.3-23.51 3.75-23.72 3.73M726 436c-.74 1.19-4.36 5.65-15.85 5.75a307.77 307.77 0 00-.17-32.28l-6.28 1a284.29 284.29 0 01-.2 32.76c-6.45 5.64-19.67 9.53-35.06 10.42l-2.72-51.52h-7.42l-2.72 51.58c-15.39-.8-28.29-4.63-34.9-10.48a276 276 0 01-.34-32.56l-6.54-.43a276 276 0 00.22 31.52c-11.54-.08-15.16-4.58-15.91-5.75-1.46-32.1 23.2-44.68 25.28-45.68l13.2-4.85L647 410.79l8.82-13.85 2.24 3.17H666l2.23-3.17 8.77 13.85 10.42-25.29 13.3 4.86C702.9 391.4 727.5 404 726 436m-22.64-51.68l-19.6-7.17-8.64 21-8.84-13.88h-8.58l-8.84 13.88-8.64-21-19.22 7.11-.25.1c-.31.15-31.28 14.87-29.14 52.71v.48l.16.46c.17.46 4.3 11.09 24.72 10.3 8.81 7.64 25.39 12.13 45.07 12.13h.94c15.43-.11 35-3.39 45.16-12.13.71 0 1.4.05 2.06.05 18.58 0 22.43-9.91 22.59-10.35l.17-.46v-.48c2.14-37.84-28.84-52.56-29.15-52.71" transform="translate(-591.5 -274.47)"></path><path class="cls-3" d="M703 384.63l-19.17-7.44-10.34-3.43-8.08 4 4.47 5.38-7.91 65.11-8.18-65.55 3.57-4.95-5.73-2.8-11.34 2.26-19.63 7.44-1 8.1a34.44 34.44 0 00-5.23 13.59c-.25 1.34-.45 2.73-.62 4.13v.56a138.29 138.29 0 000 26.64c.07 1.63.15 3 .22 4.21a10.4 10.4 0 002.49 6.49c8.78 7.62 25.3 12.09 44.9 12.09h.94c15.38-.11 34.9-3.37 45-12.08 0 0 2-1.14 2.49-6.5.74-6.51 2.15-22.55-.24-35.54a35 35 0 00-4.94-13.17z" transform="translate(-591.5 -274.47)"></path><path class="cls-4" d="M697 412.09a40.3 40.3 0 01-14.56 2.63c-1.11 0-1.94-.05-2.4-.08v-2.8c.15 0 9.6 1.12 17-2.67z" transform="translate(-591.5 -274.47)"></path><path class="cls-3" d="M646.29 346.92c15.43-6.49 24.78-14.51 30.41-21.35a56.47 56.47 0 017.81 12.3c-.94 18.63-9.43 37.47-22.68 37.47-10.29 0-17.71-11.36-21-25.17a26.79 26.79 0 015.41-3.25m-.24 30.29c-10.75-8.31-12.32-15-10.57-20 .32.35.65.7 1 1.06 4.57 13.38 13.18 23.54 25.43 23.54 11.8 0 20.53-10 25.25-23.37.44-.44.85-.87 1.24-1.3a34.81 34.81 0 01-8.23 19.43s39.2-20.43 4.59-66.53c-.87-2.68-5.08-12.29-20.21-10.64-50 5.45-40.54 56.14-35.08 66.33C634.2 374.65 646 377.2 646 377.2" transform="translate(-591.5 -274.47)"></path><path class="cls-3" d="M662.07 296.7a144.72 144.72 0 00-38 5.41l6.51 15.3v8.21s9.54 16.07 31.45 16.07 31.44-16.07 31.44-16.07v-8.21l6.51-15.3a144.69 144.69 0 00-37.95-5.41" transform="translate(-591.5 -274.47)"></path><path class="cls-4" d="M41.12 42.1h3.92v3.31h-3.92zm7.83 0h3.92v3.31h-3.92zm7.83 0h3.92v3.31h-3.92zm7.84 0h3.92v3.31h-3.92zm7.83 0h3.92v3.31h-3.92zm7.84 0h3.92v3.31h-3.92zm7.83 0h3.92v3.31h-3.92zm7.83 0h3.92v3.31h-3.92z"></path><path class="cls-2" d="M665.79 304.92v.32c0 .46-.1.94-.17 1.4h-3.66v4.84a7.18 7.18 0 01-1.43-.74 4.9 4.9 0 01-1.53-1.54 6.46 6.46 0 01-.61-2.24v-.26h3.65v-4.41a5.69 5.69 0 003.39 1.08h.62c0 .54-.09 1.09-.15 1.64m-.47-2.83a4.49 4.49 0 00-6.79 0 4.53 4.53 0 01-1.93-.42 42 42 0 00.49 5.25 7.87 7.87 0 00.82 2.89 6 6 0 001.91 1.95 8.74 8.74 0 001.86.93.65.65 0 00.25.05 1.18 1.18 0 00.42-.12 6.58 6.58 0 003.77-3.15 14.84 14.84 0 00.88-4.42c.12-1.12.21-2.25.25-3.38a4.53 4.53 0 01-1.93.42" transform="translate(-591.5 -274.47)"></path></g></g></svg> 