<?xml version="1.0" encoding="UTF-8"?> <svg xmlns="http://www.w3.org/2000/svg" viewBox="0 0 198.29 186.38"><defs><clipPath id="clip-path"><circle cx="56.62" cy="90.09" r="26.86" fill="none"></circle></clipPath><style>.cls-2{fill:#525758}.cls-3{fill:#fff}</style></defs><g id="Layer_2" data-name="Layer 2"><g id="Key_services" data-name="Key services"><circle class="cls-2" cx="56.62" cy="90.09" r="26.86"></circle><path class="cls-2" d="M110 80.55l-11.66-1.19a36.58 36.58 0 00-4.17-9.83l7.45-9.24a2.8 2.8 0 00-.3-3.88L91.19 46.28a2.82 2.82 0 00-3.88-.3l-9.24 7.45a46.82 46.82 0 00-9.83-4.17l-1.19-11.62a3.17 3.17 0 00-3-2.68H49.47a3.17 3.17 0 00-3 2.68L45.3 49.26a36.64 36.64 0 00-9.84 4.17L26.22 46a2.79 2.79 0 00-3.87.3L12.22 56.41a2.82 2.82 0 00-.3 3.88l6.56 8.64a46.78 46.78 0 00-4.18 9.83L2.68 80A3.17 3.17 0 000 83v14.54a3.17 3.17 0 002.68 3l11.62 1.19a36.42 36.42 0 004.18 9.83L11 120.78a2.78 2.78 0 00.29 3.87l10.14 10.14a2.8 2.8 0 003.87.29l9.24-7.45a46.56 46.56 0 009.83 4.18l1.19 11.62a3.17 3.17 0 003 2.68h14.6a3.16 3.16 0 003-2.68l1.2-11.62a36.42 36.42 0 009.83-4.18l9.24 7.45a2.78 2.78 0 003.87-.29l10.13-10.14c2.09-.29 2.09-2.08 1.2-3.27l-7.45-9.24a47.11 47.11 0 004.17-9.84l11.65-1.19a3.17 3.17 0 002.68-3V83.53a3.17 3.17 0 00-2.68-2.98zm-53.34 41a31.76 31.76 0 1131.72-31.76 31.85 31.85 0 01-31.76 31.76z"></path><circle class="cls-2" cx="142.14" cy="43" r="18.88" transform="rotate(-13.28 142.178 43.02)"></circle><path class="cls-2" d="M183.74 39.74l-8.17-1.91a32.65 32.65 0 00-1.82-7.13l5.83-5.89a2.79 2.79 0 00.18-3.88L173 12.29a2.81 2.81 0 00-3.81-.77l-7.79 4.74a27.1 27.1 0 00-6.47-3.5l.14-8.39a2.69 2.69 0 00-2.34-3L141.81 0a3.15 3.15 0 00-3.28 2.3l-1.92 8.17a32.65 32.65 0 00-7.13 1.82l-5.88-5.81a2.77 2.77 0 00-3.88-.18l-8.64 6.7a2.81 2.81 0 00-.78 3.81l4.23 7.19a27.49 27.49 0 00-3.53 6.44l-8.39-.14a3.17 3.17 0 00-3 2.63l-1.36 11a3.94 3.94 0 002.63 3l8.17 1.91a32.87 32.87 0 001.82 7.16l-5.79 5.58a2.78 2.78 0 00-.18 3.89l6.73 8.64a2.81 2.81 0 003.81.77l7.13-4.22a27.83 27.83 0 006.47 3.5l-.14 8.39a3.19 3.19 0 002.63 3l10.95 1.35a3.17 3.17 0 003.28-2.3l1.91-8.17a32.87 32.87 0 007.14-1.82l5.88 5.84a2.79 2.79 0 003.88.18l8.64-6.74a2.81 2.81 0 00.77-3.81l-4.22-7.13a27.1 27.1 0 003.5-6.47l8.39.14a3.17 3.17 0 003-2.63L186 43a3.18 3.18 0 00-2.26-3.26zm-44.49 27.07c-13.41-1.66-22.86-13.33-21.2-26.75a24.47 24.47 0 0127.13-21.15 24.13 24.13 0 11-5.93 47.9z"></path><circle class="cls-2" cx="149.32" cy="136.81" r="22.76" transform="rotate(-9.22 149.306 136.8)"></circle><path class="cls-2" d="M193.34 121.74l-9.6.25a45.66 45.66 0 00-4.45-7.47L184 106a2.79 2.79 0 00-.87-3.79l-9.84-7.25a2.8 2.8 0 00-3.87.28l-6.77 7.05a30.75 30.75 0 00-8.45-2L151.63 91a3.17 3.17 0 00-3.35-2.21l-12.08 1.8a3.15 3.15 0 00-2.54 3.09l.24 9.61a45.59 45.59 0 00-7.47 4.44l-8.55-4.73a2.79 2.79 0 00-3.78.88l-7.26 9.83a2.81 2.81 0 00.29 3.88l7.05 6.77a30.28 30.28 0 00-2.05 8.44l-9.25 2.61a3.14 3.14 0 00-2.2 3.34l1.82 12.08a3.16 3.16 0 003.1 2.55l9.6-.24a46 46 0 004.45 7.46l-4.74 8.55a2.79 2.79 0 00.87 3.79l9.84 7.25a2.8 2.8 0 003.87-.28l6.77-7.05a30.75 30.75 0 008.45 2l2.6 9.25a3.17 3.17 0 003.35 2.21l12.08-1.82a3.17 3.17 0 002.54-3.1l-.24-9.61a45.59 45.59 0 007.47-4.44l8.55 4.74a2.78 2.78 0 003.78-.87l7.26-9.84a2.79 2.79 0 00-.29-3.87l-7.05-6.78a30.28 30.28 0 002.05-8.44l9.25-2.6a3.16 3.16 0 002.2-3.35l-1.82-12.08a2.94 2.94 0 00-3.1-2.52zm-39.9 43.09a28.31 28.31 0 1123.76-32.21 28.13 28.13 0 01-23.76 32.21z"></path><path class="cls-3" d="M133.32 53.92v-2.64a.88.88 0 01.88-.88h15.85a.87.87 0 01.88.88v2.64zm1.76-9.68a7 7 0 1114.09 0v4.84h-14.09zm11.45-.44a4 4 0 00-4-4h-.44a.44.44 0 00-.44.44v.89a.44.44 0 00.44.44h.44a2.2 2.2 0 012.2 2.2v.44a.44.44 0 00.44.44h.88a.44.44 0 00.44-.44zm-15-.44a.88.88 0 010 1.76H128a.88.88 0 010-1.76zm24.65 0a.88.88 0 010 1.76h-3.52a.88.88 0 010-1.76zm-22.18-6l-2.49-2.49a.88.88 0 011.25-1.25l2.49 2.49a.88.88 0 01-1.25 1.28zm15-1.22l2.49-2.49a.88.88 0 011.25 1.25l-2.49 2.49a.88.88 0 01-1.25-1.25zm-7.72-2.47v-3.52a.88.88 0 011.76 0v3.52a.88.88 0 11-1.79 0zm18.02 88.42a8.27 8.27 0 00-10.52 11.06l-12.64 12.63a3 3 0 104.26 4.22l12.6-12.6a8.28 8.28 0 0011.06-10.52l-5.34 5.34-3.72-1.07-1-3.72z"></path><g clip-path="url(#clip-path)"><path class="cls-3" d="M37.28 113.74l-.75 7.35h39.53l-.75-7.35a14.22 14.22 0 00-10.76-12l-5.64 14.07-1.18-10.12h.75a.84.84 0 00.85-.86v-2.66a.84.84 0 00-.85-.85h-4.37a.91.91 0 00-.85.85v2.66a.84.84 0 00.85.86H55l-1.17 10.12L48 101.7a14.23 14.23 0 00-10.72 12.04zM45 91.58a12.61 12.61 0 0021.73 1.71h-6a2.76 2.76 0 01-2 .85h-3.98A2.82 2.82 0 0152 91.37v-2.45A2.85 2.85 0 0154.75 86h3.94a3.23 3.23 0 012 .86h5.75v-5.4a2.67 2.67 0 01.64-1.81 12.57 12.57 0 00-21.52 0 2.86 2.86 0 01.64 1.81v7.67a3 3 0 01-1.2 2.45z"></path><path class="cls-3" d="M40.37 90.2h2.88a1.07 1.07 0 001.06-1.07v-7.56a1.07 1.07 0 00-1.06-1.07h-.54a14.84 14.84 0 0113.64-9.16A14.68 14.68 0 0170 80.5h-.54a1.07 1.07 0 00-1.06 1.07v6.6a2.57 2.57 0 01-1.81.75h-7a.91.91 0 00-.85-.85h-3.99a.84.84 0 00-.85.85v2.34a.84.84 0 00.85.86h3.94a.84.84 0 00.85-.86h7a5.17 5.17 0 003.09-1.06h2.55a4.39 4.39 0 004.37-4.37v-1a4.43 4.43 0 00-3.2-4.15 17.88 17.88 0 00-17-12.57A18.09 18.09 0 0039.2 80.82 4.36 4.36 0 0036 85v1a4.45 4.45 0 004.37 4.2z"></path></g></g></g></svg> 