<?xml version="1.0" encoding="UTF-8"?> <svg xmlns="http://www.w3.org/2000/svg" id="Layer_1" data-name="Layer 1" viewBox="0 0 115.41 98.3"><defs><style>.cls-1{fill:#525859;}</style></defs><path class="cls-1" d="M42.1,64.9a3.32,3.32,0,0,0-4.52-1.28A3.28,3.28,0,0,0,36.3,64.9L22.9,88.6a1.91,1.91,0,0,0,.7,2.6,1.85,1.85,0,0,0,2.58-.5.82.82,0,0,0,.12-.2l11-18.8V96.2a2,2,0,0,0,1.9,2,1.85,1.85,0,0,0,1.9-1.81,1.2,1.2,0,0,0,0-.19V71.6L52.2,90.4a2,2,0,0,0,3.4-1.9Z" transform="translate(0)"></path><path class="cls-1" d="M94.7,2.9a9.66,9.66,0,1,1-.28,0h.28" transform="translate(0)"></path><path class="cls-1" d="M29.4,2.9" transform="translate(0)"></path><path class="cls-1" d="M49.1,2.9" transform="translate(0)"></path><path class="cls-1" d="M72.7,53.4a2.07,2.07,0,0,1-2,2H7.8a1.94,1.94,0,0,1-2-1.88V10.7a2,2,0,0,1,2-1.9H70.7a1.93,1.93,0,0,1,2,1.84v17l5.8-1V6.6A3.59,3.59,0,0,0,75,3H49.1V2.9A2.9,2.9,0,0,0,46.2,0H32.5a2.93,2.93,0,0,0-2.9,3V3.1H3.8A3.52,3.52,0,0,0,0,6.33c0,.12,0,.25,0,.37V57.5a3.73,3.73,0,0,0,3.68,3.8H74.8a3.85,3.85,0,0,0,3.8-3.8V29.1l-5.8,1V53.4Z" transform="translate(0)"></path><path class="cls-1" d="M115.1,54.9c-3.5-9.1-7.1-18.1-10.5-27.2a12.45,12.45,0,0,0-1-2,7.07,7.07,0,0,0-2.6-2.1,13.5,13.5,0,0,1-6.3,1.7A12.55,12.55,0,0,1,87.5,23L59.1,28a3.9,3.9,0,0,0-3.22,4.48.5.5,0,0,0,0,.12,3.84,3.84,0,0,0,4.45,3.11h0l24.4-4.3V93.9a4.45,4.45,0,0,0,4.5,4.4,4.27,4.27,0,0,0,4.3-4.24V66c0-.6.3-1,.9-1a.94.94,0,0,1,1,.88V94.1c0,2.1,2,3.9,4.5,3.9s4.5-1.7,4.5-3.9V49.2l3.3,8.6a4,4,0,0,0,5.2,2.1A3.77,3.77,0,0,0,115.16,55l-.06-.14" transform="translate(0)"></path></svg> 