<?xml version="1.0" encoding="UTF-8"?> <!-- Generator: Adobe Illustrator 24.1.3, SVG Export Plug-In . SVG Version: 6.00 Build 0) --> <svg xmlns="http://www.w3.org/2000/svg" xmlns:xlink="http://www.w3.org/1999/xlink" version="1.1" id="Layer_1" x="0px" y="0px" viewBox="0 0 425.2 425.2" style="enable-background:new 0 0 425.2 425.2;" xml:space="preserve"> <style type="text/css"> .st0{fill:#FFFFFF;} .st1{fill:#525758;} </style> <g> <path class="st0" d="M329,292.8l-0.1,0.2c-18.3,27-45.5,47-76.5,56.4l-4.8-15.8c27.4-8.3,51.5-26.1,67.7-49.9l0.1-0.2L329,292.8z M336.2,280.9l-14.5-7.9c13.8-25.3,18.5-54.9,13.2-83.2l16.2-3C357.2,218.9,351.9,252.3,336.2,280.9z M238.9,352.8 c-32.2,6.4-65.7,1.4-94.3-14.1l7.8-14.5c25.3,13.7,54.8,18.1,83.2,12.4L238.9,352.8z M348,173.3l-15.8,4.6 c-8-27.7-25.5-51.8-49.3-68l9.1-13.7l0.1,0.1C319.1,114.6,338.9,141.9,348,173.3z M142,317.9l-9.3,13.6l-0.2-0.2 c-27-18.3-46.9-45.8-55.9-77.2l15.8-4.6c8,27.7,25.5,51.9,49.4,68.1L142,317.9z M272.3,103.4C247,89.7,217.5,85.3,189,91l-3.2-16.2 c32.2-6.4,65.7-1.4,94.3,14.2L272.3,103.4z M89.6,237.7l-16.2,3c-5.9-32.1-0.6-65.5,15.1-94.1l14.5,7.9 C89.1,179.8,84.3,209.3,89.6,237.7z M177.1,93.9c-27.5,8.3-51.6,26.1-67.8,50l-13.7-9.2l0-0.1c18.3-27,45.6-47.1,76.7-56.5 L177.1,93.9z"></path> <path class="st0" d="M286.1,64.4c4.3,2.1,8.5,4.4,12.5,6.9l-8.5,14.1c-3.7-2.2-7.5-4.3-11.3-6.2C255,67.4,228.4,62,202.1,63.6 l-1-16.4C230.3,45.4,259.7,51.4,286.1,64.4z M310.8,79.4c27.9,20.3,48.6,48.2,59.9,80.8l-15.6,5.4c-10.2-29.4-28.9-54.6-54.1-72.9 L310.8,79.4z M186.5,48.7L189,65c-30.9,4.6-59.1,18.3-81.6,39.6L96.1,92.7C121,69,152.3,53.8,186.5,48.7z M375,174.1 c8.5,33.6,6.4,68.3-6,100.4l-15.4-6c11.2-28.9,13.1-60.2,5.4-90.4L375,174.1z M85.9,103.2l12.4,10.9c-8.6,9.8-16,20.7-21.8,32.5 c-7.9,15.9-12.8,32.9-14.6,50.4l-16.4-1.7c2-19.5,7.5-38.3,16.3-56C68.2,126.2,76.3,114.1,85.9,103.2z M348.3,280.6l14.8,7.3 l-0.1,0.2c-15.4,31.1-39.5,56.1-69.9,72.5l-7.8-14.5c27.4-14.7,49.1-37.3,62.9-65.2L348.3,280.6z M61,210.2 c-0.5,31,8.4,61.1,25.9,86.9l-13.7,9.2c-19.3-28.7-29.3-62-28.7-96.4L61,210.2z M273.3,351.9l6.5,15.1 c-31.7,13.7-66.3,17.2-100.1,10.4l3.3-16.1C213.5,367.4,244.8,364.2,273.3,351.9z M94.8,307.7c13.9,17.1,31,30.8,51,40.7 c7.9,3.9,16.2,7.2,24.6,9.6l-4.7,15.8c-9.3-2.7-18.4-6.3-27.2-10.7C116.3,352.2,97.3,337,82,318L94.8,307.7z"></path> </g> <g> <path class="st0" d="M226.5,260.4h-29.4c-1.7,0-3.1,1.4-3.1,3.1v21.4h6.2v-18.2h23.2v18.2h6.2v-21.4 C229.6,261.8,228.2,260.4,226.5,260.4z"></path> <path class="st1" d="M119.1,212.9v45c0,16.7,36.4,25.8,67.5,28.6c0.9,0.1,1.7-0.2,2.4-0.8c0.7-0.6,1-1.4,1-2.3v-27h43.6v26.6 c0,0.9,0.4,1.7,1,2.3c0.6,0.5,1.3,0.8,2.1,0.8h0.2c16-1.1,31.9-4.4,47-9.8c13.3-5.2,20.5-11.7,20.5-19v-43.3 c-16,17.3-64.3,22.2-92.2,22.2C183.8,236.3,133.7,231.1,119.1,212.9z"></path> <path class="st1" d="M203.1,200.7h5.4v-28.4c-6.1,0-12.3,0.4-18.2,0.8L203.1,200.7z"></path> <path class="st1" d="M196.3,200.9l-12.6-27.2c-8.7,0.8-17.4,2.2-25.9,4.1l26.8,23.9C188.3,201.3,192.2,201.1,196.3,200.9z"></path> <path class="st1" d="M214.7,172.3v28.3c2.3,0,4.5,0,6.7,0l12.8-27.7C227.8,172.6,221.4,172.3,214.7,172.3z"></path> <path class="st1" d="M239.8,201.7l27-24c-8.6-1.9-17.2-3.3-25.9-4.1l-12.7,27.3C232.3,201.1,236.2,201.4,239.8,201.7z"></path> <path class="st1" d="M174.9,202.7h1.3l-25.8-23.2c-8.7,2-16.9,5.8-24.1,11l35.8,15C166.3,204.1,170.6,203.2,174.9,202.7z"></path> <path class="st1" d="M298.2,190.5c-7.2-5.2-15.4-8.9-24.1-10.9l-26,23.2h0.4c4.6,0.4,9.1,1.4,13.4,3L298.2,190.5z"></path> <path class="st1" d="M266.4,210.5L266.4,210.5c0,3.4-3,6-17.8,8c-12.2,1.5-24.5,2.2-36.8,2c-12.3,0.1-24.6-0.6-36.8-2 c-14.7-2-17.8-4.6-17.8-8v-0.4l-35.3-14.8c-1.3,1.9-1.9,4.1-2,6.4c0,19.2,47.6,29.6,92.3,29.6s92.3-10.3,92.3-29.5 c0-2.3-0.7-4.5-1.9-6.5L266.4,210.5z"></path> <ellipse class="st0" cx="211.8" cy="210.6" rx="45.8" ry="3.8"></ellipse> <path class="st0" d="M135.5,174.5l18.9-6.4c1.6-0.6,2.4-2.4,1.8-4.1c-0.3-0.8-1-1.5-1.8-1.8l-21.2-7.7c-1-0.4-2-0.2-2.9,0.4 c-0.8,0.6-1.3,1.5-1.3,2.5v25.7c2.1-1.2,4.2-2.3,6.4-3.2V174.5z"></path> <path class="st0" d="M173.8,170v-7.9l18.9-6.4c1.2-0.4,2.1-1.6,2.1-2.9c0-1.3-0.8-2.5-2-2.9l-21-7.7c-1-0.4-2-0.2-2.9,0.4 c-0.8,0.6-1.3,1.5-1.3,2.5v26L173.8,170z"></path> <path class="st0" d="M214.9,167.4v-10.7l23.4-8.2c1.6-0.6,2.5-2.4,1.9-4c-0.3-0.9-1-1.6-1.9-1.9l-25.4-9.2c-1.6-0.5-3.4,0.3-3.9,2 c-0.1,0.3-0.2,0.6-0.2,1v31H214.9L214.9,167.4z"></path> <path class="st0" d="M255.9,164.6l18.9-6.5c1.6-0.6,2.5-2.4,1.9-4c-0.3-0.9-1-1.6-1.9-1.9l-20.9-7.7c-1-0.3-2-0.2-2.9,0.4 c-0.8,0.6-1.3,1.5-1.3,2.5v22.4c2.1,0.2,4.1,0.6,6.2,0.9V164.6z"></path> <path class="st0" d="M313.4,164.7l-21-7.7c-1-0.3-2-0.2-2.9,0.4c-0.8,0.6-1.3,1.5-1.3,2.5v19.5c2.1,0.9,4.2,1.9,6.2,3.1V177 l18.9-6.5c1.6-0.6,2.5-2.4,1.9-4C314.9,165.7,314.2,165,313.4,164.7L313.4,164.7z"></path> </g> </svg> 