<?xml version="1.0" encoding="UTF-8"?> <!-- Generator: Adobe Illustrator 24.1.3, SVG Export Plug-In . SVG Version: 6.00 Build 0) --> <svg xmlns="http://www.w3.org/2000/svg" xmlns:xlink="http://www.w3.org/1999/xlink" version="1.1" id="Layer_1" x="0px" y="0px" viewBox="0 0 194.6 174.5" style="enable-background:new 0 0 194.6 174.5;" xml:space="preserve"> <style type="text/css"> .st0{fill:#FCC433;} .st1{fill:#FFFFFF;} </style> <g> <path class="st0" d="M17.6,113.4l22,4.4l2.3-4.4l1.3-8.4l8.7-1l7.4-6.7v-6.7c0,0,9.5,2.6,11.3,2.6s9.5-3.8,9.5-3.8l14.6,5.4 l5.4-0.3c0,0-6.9-21.5,2.8-33.8s28.2-16.1,28.2-16.1l6.6-1c0,0-2.7-25.1-30.9-24.9c-28.2,0.3-34.9,13.1-36.7,20.3 s-4.9,26.7-4.9,26.7s-5.9,6.8-6.7,6.6S33.7,82.9,33.2,83.7c-0.5,0.8-9.5,9.5-11,11C20.6,96.3,17.6,113.4,17.6,113.4z"></path> <g> <path class="st1" d="M25.1,96.4l43.6-28.6c1.5-0.9,2.2-2.7,1.8-4.4C66.8,45,78.8,27.1,97.3,23.4c13.9-2.7,28.1,3.4,35.5,15.5 c-1.2,0.1-2.3,0.3-3.5,0.5c-23.1,4-38.6,26-34.6,49.2c0.1,0.4,0.1,0.7,0.2,1.1c-0.3,0-0.6-0.1-0.8-0.2c-3.4-1-6.6-2.6-9.5-4.6 c-1.4-1-3.3-1-4.7,0l-6.6,4.3l-10-1.9c-2.9-0.6-5.7,1.3-6.3,4.1L55.3,99l-7.6-1.7c-2.9-0.6-5.7,1.2-6.3,4.1l-2.2,10.1l-3,1.9 l-14.1-2.9L25.1,96.4z M130.4,17.9c7.7-7.3,19.8-6.9,27.1,0.8c6.5,6.9,7,17.4,1.2,24.9l-0.7,0.9c-4.7-2.8-10-4.6-15.4-5.3 c-3.4-7.3-8.8-13.6-15.6-18L130.4,17.9z M145.9,74.7c-1.4,2-4.3,2.5-6.3,1.1c-2-1.4-2.5-4.3-1.1-6.3c1.4-2,4.3-2.5,6.3-1.1 c1,0.7,1.6,1.7,1.8,2.9C146.9,72.5,146.6,73.7,145.9,74.7 M16.9,93.9l-3.6,17.4c-0.7,3.2,1.4,6.3,4.6,7l18.4,3.8 c1.1,0.2,2.2,0,3.2-0.6l5.9-3.8c0.9-0.6,1.5-1.6,1.7-2.6l1.9-8.7l5.1,1c4.3,0.9,8.5-1.9,9.4-6.2l1.1-5.1l8.7,1.7 c1.1,0.2,2.2,0,3.1-0.6l5.8-3.8c3,1.8,6.2,3.2,9.5,4.2c2,0.6,4.1,1,6.2,1.1c0.5,1.1,1,2.1,1.6,3.2l-28.8,41c-1,1.4-1.4,3.2-1.1,5 l3.1,17.6c0.5,2.8,2.9,4.9,5.7,4.9c0.3,0,0.7,0,1-0.1l18.5-3.3c1.1-0.2,2.1-0.8,2.7-1.7l4-5.8c0.6-0.9,0.9-2,0.7-3.1l-1.5-8.8 l5.1-0.9c4.3-0.8,7.2-4.9,6.5-9.2l-0.9-5.1l8.7-1.7c1.1-0.2,2.1-0.8,2.7-1.7l4-5.7c20.4,3.2,40.2-8.6,47-28.1 c4.1-11.2,3.1-23.6-2.6-34.1c-1.1-2.1-3.7-2.8-5.8-1.7c-2.1,1.1-2.8,3.7-1.7,5.8c4.6,8.3,5.4,18.2,2.2,27.1 c-5.7,16.5-22.9,26.1-39.9,22.2c-1.7-0.4-3.4,0.3-4.4,1.7l-4.5,6.6l-10,1.9c-2.9,0.5-4.8,3.3-4.3,6.2l1.3,7.6l-7.7,1.3 c-2.9,0.5-4.8,3.2-4.3,6.1l1.7,10.2l-2.1,2.8l-14.2,2.5L77.8,147l30-42.6c1-1.4,1-3.3,0.1-4.7c-10.2-15.8-5.6-36.8,10.1-47 c10.4-6.7,23.6-7.2,34.5-1.4l-6.6,8.4c-6.9-2.1-14.1,1.7-16.3,8.6c-2.1,6.9,1.7,14.1,8.6,16.3c1.2,0.4,2.5,0.6,3.8,0.6 c0.8,0,1.5-0.1,2.3-0.2c7.1-1.2,11.9-7.8,10.7-14.9c-0.3-2-1.1-3.8-2.2-5.4l12.5-15.8c9.2-12.1,6.9-29.5-5.2-38.7 c-10.7-8.1-25.7-7.4-35.6,1.8l-5.6,5.4C97,8.8,72.4,19.8,64.1,41.7c-2.5,6.5-3.3,13.5-2.4,20.5L19.8,89.7 C18.3,90.6,17.3,92.2,16.9,93.9"></path> </g> </g> </svg> 