<?xml version="1.0" encoding="UTF-8"?> <!-- Generator: Adobe Illustrator 24.1.3, SVG Export Plug-In . SVG Version: 6.00 Build 0) --> <svg xmlns="http://www.w3.org/2000/svg" xmlns:xlink="http://www.w3.org/1999/xlink" version="1.1" id="Layer_1" x="0px" y="0px" viewBox="0 0 425.2 425.2" style="enable-background:new 0 0 425.2 425.2;" xml:space="preserve"> <style type="text/css"> .st0{fill:url(#SVGID_1_);} .st1{fill:url(#SVGID_2_);} .st2{fill:#FFFFFF;} </style> <g> <linearGradient id="SVGID_1_" gradientUnits="userSpaceOnUse" x1="354.5894" y1="213.7497" x2="71.8106" y2="213.7497" gradientTransform="matrix(1 0 0 -1 0 425)"> <stop offset="0" style="stop-color:#FFC630;stop-opacity:0"></stop> <stop offset="1" style="stop-color:#FFC630"></stop> </linearGradient> <path class="st0" d="M213.4,351.4h-0.2c-32.4,0-64.1-11.1-89.2-31.4l10.3-12.7c22.2,17.9,50.2,27.8,78.9,27.8h0.2L213.4,351.4 L213.4,351.4z M227.2,350.8l-1.6-16.3c28.5-2.8,55.5-15.4,75.9-35.6l11.5,11.6C290,333.4,259.5,347.7,227.2,350.8z M113.7,310.9 c-23.3-22.9-37.9-53.2-41.2-85.5l16.3-1.7c2.9,28.4,15.8,55.2,36.3,75.5L113.7,310.9z M322.4,300.3l-12.6-10.5 c18.3-22.1,28.4-50,28.4-78.5v-0.1h16.4v0.1C354.6,243.7,343.2,275.3,322.4,300.3z M71.8,211.5v-0.3c0-32.5,11.4-64.1,32.3-89.2 l12.6,10.4c-18.4,22.2-28.5,50.1-28.5,78.7v0.3H71.8z M337.6,198.9c-2.8-28.4-15.7-55.3-36.2-75.5l11.5-11.6 c23.3,22.9,37.8,53.3,41.1,85.5L337.6,198.9z M125,123.6l-11.5-11.6c23.1-22.8,53.6-37.1,85.9-40.2l1.6,16.3 C172.3,90.7,145.4,103.4,125,123.6z M292.2,115.3c-22.2-18-50.3-27.9-79-27.9h-0.1V71.1h0.1c32.5,0,64.2,11.2,89.4,31.5 L292.2,115.3z"></path> </g> <g> <linearGradient id="SVGID_2_" gradientUnits="userSpaceOnUse" x1="46.0583" y1="213.7" x2="380.3417" y2="213.7" gradientTransform="matrix(1 0 0 -1 0 425)"> <stop offset="0" style="stop-color:#FFC630;stop-opacity:0"></stop> <stop offset="1" style="stop-color:#FFC630"></stop> </linearGradient> <path class="st1" d="M213.2,377c-4.8,0-9.5-0.2-14.2-0.6l1.4-16.3c4.3,0.4,8.6,0.5,12.8,0.5c26.5,0,52.6-6.9,75.4-20l8.2,14.2 C271.5,369.3,242.5,377,213.2,377z M184.6,374.6c-33.8-5.8-64.6-21.6-89.1-45.6l11.5-11.7c22.1,21.7,49.9,35.9,80.3,41.2 L184.6,374.6z M309,347.2l-9.3-13.4c25.6-17.7,44.6-42.4,55.3-71.3l15.4,5.7C358.5,300.1,337.3,327.5,309,347.2z M85.6,318.3 c-22.4-26.2-35.8-58.1-38.9-92.3l16.3-1.5c2.8,30.7,14.9,59.5,35,83L85.6,318.3z M374.7,254.2l-15.8-4.3 c3.4-12.5,5.1-25.6,5.1-38.7c0-17.7-3.1-35-9.1-51.4l15.4-5.7c6.8,18.3,10.1,37.5,10.1,57.1C380.3,225.8,378.5,240.2,374.7,254.2z M46.1,211.6v-0.4c0-34.4,10.5-67.3,30.4-95.4l13.3,9.4c-17.9,25.3-27.3,54.9-27.3,85.9v0.3L46.1,211.6z M349.7,147.8 c-13.2-27.8-34.5-50.7-61.4-66.1l8.2-14.2c29.9,17.1,53.5,42.5,68.1,73.3L349.7,147.8z M97.9,115l-12.4-10.5 c22.3-26.2,51.5-44.6,84.7-53.4l4.2,15.8C144.4,74.8,117.9,91.4,97.9,115z M276.6,75.7c-19.9-9.1-41.3-13.8-63.4-13.8 c-8.7,0-17.6,0.8-26.2,2.3l-2.8-16.1c9.5-1.7,19.3-2.5,28.9-2.5c24.6,0,48.2,5.2,70.3,15.3L276.6,75.7z"></path> </g> <path class="st2" d="M186.1,242l3,6.6c0.8,1.8,2.3,3.3,4.2,4l5.2,1.9l-1.6,4.3c-1.7,4.4,0.5,9.2,4.9,10.9l0,0l4.3,1.6l-1.9,5.2 c-0.7,1.9-0.7,4,0.2,5.8l2.5,5.7c0.8,1.8,2.2,3.1,4,3.8l16.1,6.2c3.3,1.1,6.8-0.6,8-3.8l6.2-16.1c0.7-1.8,0.6-3.8-0.2-5.5 l-20.4-45.8c1.1-1.4,2.2-2.8,3.1-4.3c1.4-2.2,0.7-5.2-1.5-6.6c-2.2-1.4-5.2-0.7-6.6,1.5c-1.2,1.9-2.6,3.7-4.1,5.3 c-1.3,1.4-1.7,3.5-0.9,5.2l21.3,47.6l-4.7,12.3l-12.3-4.7l-1.8-4l3-7.9c1.2-3-0.3-6.4-3.3-7.6h-0.1l-6.7-2.6l2.6-6.5 c1.2-3-0.3-6.4-3.3-7.6H205l-7.9-3.1l-3.8-8.7c-0.8-1.8-2.6-2.9-4.5-2.8c-18,0.6-33-13.4-33.7-31.4c-0.2-5.6,1-11,3.6-15.9 c1.2-2.4,0.3-5.2-2.1-6.4s-5.2-0.3-6.4,2.1c-10.5,20.7-2.4,46,18.3,56.6C174.1,240.2,180.1,241.7,186.1,242z"></path> <path class="st2" d="M176.7,211.8c15.2,9.9,34.8,10.3,50.5,1.1l7.3,4.8c1.7,1.1,3.8,1.6,5.9,1.2h0.2l7-1.4l1.2,5.8 c1,4.9,5.8,8,10.6,7l0,0l5.8-1.2l1.4,6.9c0.4,2.1,1.7,3.9,3.5,5.1l0,0l5.9,3.8c1.2,0.8,2.7,1.2,4.1,1.2c0.5,0,1,0,1.5-0.2l19.4-4 c3.6-0.8,5.9-4.3,5.1-7.9l-4.1-19.4c-0.4-2-1.6-3.7-3.3-4.8l-48.6-31.9c3.3-26.2-15.2-50-41.3-53.3c-26.1-3.3-50,15.2-53.3,41.3 C153.2,184,161.4,201.8,176.7,211.8z M170.8,151c11.5-17.7,35.2-22.7,52.8-11.1c13,8.6,19.6,24.1,16.6,39.4 c-0.4,1.9,0.4,3.8,2.1,4.9l50.5,33.2l3.3,15.8l-15.8,3.3l-4.7-3.1l-2-9.7c-0.7-3.3-3.8-5.4-7.1-4.7h-0.1l-8.7,1.9l-1.9-8.7 c-0.7-3.2-3.9-5.3-7.1-4.7l0,0l-9.6,2l-9.3-6.2c-1.6-1.1-3.7-1.1-5.3,0c-17.4,11.9-41.2,7.7-53.1-9.7 C162.6,180.8,162.4,163.9,170.8,151L170.8,151z"></path> <path class="st2" d="M245.7,167.8c0,0-13.9-22-42.3-22s-42.3,22-42.3,22c5.1-2.5,9.8-4.5,14.2-6.1c-0.5,2.2-0.8,4.5-0.8,6.9 c0,15.9,12.9,28.8,28.8,28.8s28.8-12.9,28.8-28.8c0-2.4-0.3-4.7-0.8-6.8C235.9,163.3,240.6,165.2,245.7,167.8z M208.8,160.9 c2.6,0,4.7,2.1,4.7,4.7c0,2.6-2.1,4.7-4.7,4.7s-4.7-2.1-4.7-4.7C204.2,163,206.2,160.9,208.8,160.9z M203.6,190.4 c-12,0-21.9-9.8-21.9-21.9c0-3.3,0.8-6.5,2.1-9.3c4.1-1.1,7.7-1.7,10.5-2.1c-3.3,2.7-5.5,6.8-5.5,11.4c0,8.1,6.6,14.6,14.6,14.6 c8.1,0,14.6-6.6,14.6-14.6c0-4.6-2.1-8.7-5.5-11.4c2.9,0.4,6.5,1.1,10.5,2.1c1.3,2.8,2.1,6,2.1,9.3 C225.3,180.6,215.6,190.4,203.6,190.4z"></path> </svg> 