<?xml version="1.0" encoding="UTF-8"?> <!-- Generator: Adobe Illustrator 24.1.3, SVG Export Plug-In . SVG Version: 6.00 Build 0) --> <svg xmlns="http://www.w3.org/2000/svg" xmlns:xlink="http://www.w3.org/1999/xlink" version="1.1" id="Layer_1" x="0px" y="0px" viewBox="0 0 197 197" style="enable-background:new 0 0 197 197;" xml:space="preserve"> <style type="text/css"> .st0{fill:#FEC700;} .st1{fill:#525758;} .st2{fill:#FFFFFF;} </style> <g> <circle class="st0" cx="98.5" cy="98.5" r="98.5"></circle> <g> <circle class="st1" cx="73.8" cy="49.8" r="10.5"></circle> <path class="st1" d="M56.9,85.5c0-11.9,7.6-21.5,16.9-21.5s16.9,9.6,16.9,21.5H56.9z"></path> </g> <g> <circle class="st1" cx="44.5" cy="124.1" r="7.7"></circle> <path class="st1" d="M32.2,150.4c0-8.7,5.5-15.8,12.4-15.8s12.4,7.1,12.4,15.8H32.2z"></path> </g> <g> <circle class="st1" cx="98.8" cy="124.1" r="7.7"></circle> <path class="st1" d="M86.4,150.4c0-8.7,5.5-15.8,12.4-15.8s12.4,7.1,12.4,15.8H86.4z"></path> </g> <g> <circle class="st1" cx="152.6" cy="124.1" r="7.7"></circle> <path class="st1" d="M140.2,150.4c0-8.7,5.5-15.8,12.4-15.8c6.8,0,12.4,7.1,12.4,15.8H140.2z"></path> </g> <g> <circle class="st1" cx="127.4" cy="49.8" r="10.5"></circle> <path class="st1" d="M110.5,85.5c0-11.9,7.6-21.5,16.9-21.5s16.9,9.6,16.9,21.5H110.5z"></path> </g> <path class="st2" d="M84.9,115.8c-0.2-0.5-0.6-0.9-1.2-0.9l-6.5-0.1l-2.1-6.2c-0.2-0.5-0.7-0.9-1.2-0.9c-0.5,0-1,0.3-1.2,0.9 l-2.1,6.2l-6.5,0.1c-0.5,0-1,0.4-1.2,0.9c-0.2,0.5,0,1.1,0.4,1.4l5.2,3.9l-1.9,6.2c-0.2,0.5,0,1.1,0.5,1.4c0.4,0.3,1,0.3,1.5,0 l5.4-3.7l5.4,3.7c0.2,0.2,0.5,0.2,0.7,0.2c0,0,0,0,0,0c0.7,0,1.3-0.6,1.3-1.3c0-0.2-0.1-0.4-0.1-0.6l-1.8-6l5.2-3.9 C84.9,116.9,85,116.3,84.9,115.8"></path> <path class="st2" d="M138.4,115.8c-0.2-0.5-0.6-0.9-1.2-0.9l-6.5-0.1l-2.1-6.2c-0.2-0.5-0.7-0.9-1.2-0.9c-0.5,0-1,0.3-1.2,0.9 l-2.1,6.2l-6.5,0.1c-0.5,0-1,0.4-1.2,0.9s0,1.1,0.4,1.4l5.2,3.9l-1.9,6.2c-0.2,0.5,0,1.1,0.5,1.4c0.4,0.3,1,0.3,1.5,0l5.4-3.7 l5.4,3.7c0.2,0.2,0.5,0.2,0.7,0.2c0,0,0,0,0,0c0.7,0,1.3-0.6,1.3-1.3c0-0.2-0.1-0.4-0.1-0.6l-1.8-6l5.2-3.9 C138.4,116.9,138.6,116.3,138.4,115.8"></path> <path class="st1" d="M152.6,114.2c-1,0-1.8-0.8-1.8-1.8v-10.7H46.3v10.7c0,1-0.8,1.8-1.8,1.8s-1.8-0.8-1.8-1.8V100 c0-1,0.8-1.8,1.8-1.8h108c1,0,1.8,0.8,1.8,1.8v12.4C154.4,113.4,153.6,114.2,152.6,114.2z"></path> <path class="st1" d="M73.8,101.7c-1,0-1.8-0.8-1.8-1.8V88.6c0-1,0.8-1.8,1.8-1.8c1,0,1.8,0.8,1.8,1.8V100 C75.6,100.9,74.8,101.7,73.8,101.7z"></path> <path class="st1" d="M127.4,101.7c-1,0-1.8-0.8-1.8-1.8V88.6c0-1,0.8-1.8,1.8-1.8c1,0,1.8,0.8,1.8,1.8V100 C129.1,100.9,128.3,101.7,127.4,101.7z"></path> <path class="st1" d="M98.8,113.1c-1,0-1.8-0.8-1.8-1.8V100c0-1,0.8-1.8,1.8-1.8c1,0,1.8,0.8,1.8,1.8v11.4 C100.6,112.3,99.8,113.1,98.8,113.1z"></path> </g> </svg> 