<?xml version="1.0" encoding="UTF-8"?> <!-- Generator: Adobe Illustrator 24.1.3, SVG Export Plug-In . SVG Version: 6.00 Build 0) --> <svg xmlns="http://www.w3.org/2000/svg" xmlns:xlink="http://www.w3.org/1999/xlink" version="1.1" id="Layer_1" x="0px" y="0px" viewBox="0 0 197 197" style="enable-background:new 0 0 197 197;" xml:space="preserve"> <style type="text/css"> .st0{fill:#FEC700;} .st1{clip-path:url(#SVGID_2_);fill:#525757;} .st2{clip-path:url(#SVGID_2_);fill:#FFFFFF;} .st3{fill:#525757;} </style> <g> <circle class="st0" cx="98.5" cy="98.5" r="98.5"></circle> <g> <defs> <rect id="SVGID_1_" x="57" y="39.2" width="127.1" height="126.3"></rect> </defs> <clipPath id="SVGID_2_"> <use xlink:href="#SVGID_1_" style="overflow:visible;"></use> </clipPath> <path class="st1" d="M180.8,84.8l-3.7,4.3l-1.9-1.7l3.8-4.3c0.3-0.3,0.7-0.5,1-0.5c0.2,0,0.6,0,0.9,0.3 C181.3,83.3,181.3,84.2,180.8,84.8 M176.9,94.5l-3.5,3.9l-6.4-5.7l3.3-4.1c0.2-0.3,0.5-0.4,0.8-0.4c0.2,0,0.4,0,0.6,0.2l5.1,4.6 c0.2,0.2,0.3,0.5,0.3,0.7C177.3,93.9,177.2,94.2,176.9,94.5 M120.7,156.7l-3.6-3.2l48.1-58.5l6.3,5.6L120.7,156.7z M182.7,80.6 c-0.8-0.7-1.9-1.1-3-1c-1.2,0.1-2.3,0.6-3.1,1.5l-3.8,4.4c-0.6-0.3-1.2-0.4-1.9-0.4c-1.1,0.1-2.1,0.6-2.8,1.5l-17.9,21.8V39.2 H64.3v112.1h50.8l-2,2.4l-3.2,11.8l11-4.8l8.5-9.4h20.7v-22.9l23.5-26l0.5,0.4c0.8,0.7,0.8,2,0,2.9l-14.5,16.8l2.2,1.9l14.5-16.8 c1.8-2.1,1.7-5.2-0.3-7l-0.5-0.4l3.5-3.8h0c0.7-0.8,1.1-1.9,1.1-3c0-0.9-0.4-1.7-1-2.3l3.8-4.4C184.6,84.9,184.4,82.2,182.7,80.6"></path> <path class="st2" d="M95.5,122c1.8-1.3,5.5-2.8,7-2.8c0.1,0,0.2,0,0.2,0c0,0,0,0,0,0c-0.4,3.1-7.3,7-12.3,8.5 C91.6,125.5,93.1,123.7,95.5,122 M113.3,126.4l-0.3-1l-1.6,0.9c-1.5,0.8-2.8,2.3-4.1,3.7c-1.6,1.8-3.3,3.6-4.9,3.8 c-0.4,0.1-0.6,0.1-0.8,0.1c0.2-0.8,1.2-2.2,1.6-2.8c0.8-1.2,1.2-1.9,1.2-2.6l-0.1-2.3l-2,1.1c-0.7,0.4-1.5,0.8-2.4,1.3 c-3.3,1.8-7.9,4.4-11.2,4.5c0.4-1.3,0.7-2.5,1.1-3.6l0.4,1.5c4.5-1.2,14.7-5.7,15.4-11.3c0.2-1.7-0.6-2.6-1.2-2.9 c-3.1-1.9-10.5,2.7-10.5,2.8c-5.6,3.8-7.2,8.9-8.5,14.3l-0.3,1.3l1.3,0.4c3.7,1.1,8.6-1.1,12.7-3.3c-0.5,1.2-0.7,2.4-0.1,3.3 c0.6,1,1.7,1.2,2.6,1.2c0.5,0,0.9-0.1,1.2-0.1c2.6-0.4,4.6-2.6,6.6-4.8c1-1.1,2-2.1,2.9-2.8c2.6,0.5,12.4,0.3,15.4-2.6l-2-2.1 C123.8,126.2,115.8,126.7,113.3,126.4"></path> </g> <rect x="57" y="46" class="st3" width="2.9" height="25.2"></rect> <polygon class="st3" points="57,70 57,158.6 90.5,158.6 90.5,155.7 59.9,155.7 59.9,70 "></polygon> <path class="st0" d="M128.1,75.2c-0.3-1.1-1.3-1.8-2.5-1.8l-13.4-0.3l-4.4-12.6c-0.4-1.1-1.4-1.8-2.5-1.8c-1.1,0-2.1,0.7-2.5,1.8 l-4.4,12.6l-13.4,0.3c-1.1,0-2.1,0.8-2.5,1.8c-0.3,1.1,0,2.2,0.9,2.9l10.7,8.1L90.4,99c-0.3,1.1,0.1,2.2,1,2.9 c0.9,0.7,2.1,0.7,3.1,0l11-7.6l11,7.6c0.5,0.3,1,0.5,1.5,0.5c0,0,0,0,0,0c1.5,0,2.6-1.2,2.6-2.6c0-0.4-0.1-0.8-0.3-1.2l-3.7-12.4 l10.7-8.1C128.1,77.4,128.5,76.2,128.1,75.2"></path> </g> </svg> 