<?xml version="1.0" encoding="UTF-8"?> <!-- Generator: Adobe Illustrator 24.1.3, SVG Export Plug-In . SVG Version: 6.00 Build 0) --> <svg xmlns="http://www.w3.org/2000/svg" xmlns:xlink="http://www.w3.org/1999/xlink" version="1.1" id="Layer_1" x="0px" y="0px" viewBox="0 0 197 197" style="enable-background:new 0 0 197 197;" xml:space="preserve"> <style type="text/css"> .st0{fill:#FEC700;} .st1{fill:#515758;} .st2{fill:#FFFFFF;} </style> <g> <circle class="st0" cx="98.5" cy="98.5" r="98.5"></circle> <path class="st1" d="M97.9,96.4c15.4,0,28-12.6,28-28.1s-12.6-28.1-28-28.1s-28,12.6-28,28.1S82.4,96.4,97.9,96.4z"></path> <path class="st1" d="M51.1,160.8h93.6c0.9,0,1.7-0.8,1.7-1.7c0-31.1-21.8-56.5-48.5-56.5c-26.7,0-48.5,25.3-48.5,56.5 C49.4,160.1,50.1,160.8,51.1,160.8z"></path> <g> <g> <polygon class="st1" points="142.5,102.5 169.2,108.8 165.1,134.1 157.6,150.5 144.9,157.6 127.6,147.1 120.7,124.6 120.7,107.6 "></polygon> <path class="st2" d="M161.9,104.6c-6.9,0-13.8-2.7-17.9-8.2c-4.1,5.5-11.1,8.2-17.9,8.2c-3.5,0-7.1-0.7-10.2-2.2 c0.3,9.2,1,18.6,2.6,27.7c0.8,5,1.6,10.9,4.3,15.3c2.4,4.2,6.1,7.6,10.1,10.3c3,2,6.3,3.7,9.8,4.9c0.5,0.2,1,0.3,1.4,0.3 c0.7,0,1.2-0.3,2.2-0.6c7.9-3,16.4-8.6,19.9-16.7c3.1-7.1,3.8-15.6,4.6-23.3c0.6-5.9,1.1-11.9,1.3-17.8 C169,103.9,165.4,104.6,161.9,104.6z M164.4,119.6l-0.2,1.7c-0.3,2.5-1,13.2-4.5,20.7l-3.8,9.5l-11.9,2.8c0,0,0,0,0,0 c-2.6-1-5.2-2.3-7.5-3.9c-3.6-2.4-6.5-5.2-8.1-8.1l-0.1-0.1l-0.1-0.1c-1.9-3-2.6-7.7-3.2-11.8l-0.2-1l0,0l0,0 c0-0.1-5.5-19.5-5.5-19.7l24.7-4l0,0c4.9,3.6,11.2,5.7,17.9,5.7c1.1,0,2.2-0.1,3.3-0.2C164.9,113.7,164.7,116.6,164.4,119.6z"></path> </g> <g> <path class="st2" d="M144,96.4c-4.1,5.5-11.1,8.2-17.9,8.2c-3.5,0-7.1-0.7-10.2-2.2c0.2,6,0.7,11.9,1.3,17.8 c0.8,7.7,1.5,16.2,4.6,23.3l4-6.2l-1.2-8.8c-0.3-2.4-0.6-4.9-0.9-7.4l-0.2-1.7c-0.3-2.9-0.6-5.8-0.8-8.7c1.1,0.1,2.2,0.2,3.3,0.2 c6.7,0,17.9-5.7,17.9-5.7"></path> </g> <path class="st2" d="M159.7,141.9l-0.1,0.1l-0.1,0.1c-1.7,2.9-4.5,5.7-8.1,8.1c-2.4,1.6-7.5,3.9-7.5,3.9l-2.3,6 c1,0.4,1.5,0.6,2.2,0.6c0.4,0,0.8-0.1,1.4-0.3c3.4-1.2,6.7-2.9,9.8-4.9c4-2.7,7.7-6.1,10.1-10.3L159.7,141.9z"></path> </g> <path class="st2" d="M159.7,122.5c-0.2-0.7-0.9-1.2-1.6-1.2l-8.9-0.2l-2.9-8.4c-0.2-0.7-0.9-1.2-1.7-1.2c-0.8,0-1.4,0.5-1.7,1.2 l-2.9,8.4l-8.9,0.2c-0.7,0-1.4,0.5-1.6,1.2c-0.2,0.7,0,1.5,0.6,1.9l7.1,5.4l-2.6,8.5c-0.2,0.7,0,1.5,0.6,1.9c0.6,0.4,1.4,0.4,2,0 l7.3-5.1l7.3,5.1c0.3,0.2,0.7,0.3,1,0.3c0,0,0,0,0,0c1,0,1.8-0.8,1.8-1.8c0-0.3-0.1-0.6-0.2-0.8l-2.5-8.3l7.1-5.4 C159.7,124,160,123.2,159.7,122.5"></path> </g> </svg> 