<?xml version="1.0" encoding="UTF-8"?> <!-- Generator: Adobe Illustrator 24.1.3, SVG Export Plug-In . SVG Version: 6.00 Build 0) --> <svg xmlns="http://www.w3.org/2000/svg" xmlns:xlink="http://www.w3.org/1999/xlink" version="1.1" id="Layer_1" x="0px" y="0px" viewBox="0 0 197 197" style="enable-background:new 0 0 197 197;" xml:space="preserve"> <style type="text/css"> .st0{fill:#FEC700;} .st1{fill:#525758;} .st2{fill:#FFFFFF;} .st3{fill:#FCC433;} </style> <g> <circle class="st0" cx="98.5" cy="98.5" r="98.5"></circle> <polygon class="st1" points="143,144.4 98.5,167.2 98.5,116.7 146.2,96.9 "></polygon> <polygon class="st1" points="98.5,116.7 98.5,167.2 54,144.4 50.8,96.9 "></polygon> <g> <path class="st2" d="M94.7,114.3c-7.4-12.4-8.5-26.4-3.1-39.5c6-14.7,19.2-25.8,36.3-30.9c-0.6-1.8-3.5-9.8-3.5-9.8l42.5,10.7 l-28.3,28.9l-3.4-9.5c-24,7.1-39,27.1-35.9,48.4l1.9,12.6L94.7,114.3z"></path> <path class="st1" d="M128.4,37.7c11.2,2.8,22.4,5.7,33.7,8.5c-7.5,7.6-14.9,15.2-22.4,22.9c-0.9-2.6-1.9-5.3-2.8-7.9 c-26.5,6.8-43.4,28.7-39.9,51.9C81,86.4,97.4,54.2,131.2,45.5C130.3,42.9,129.3,40.3,128.4,37.7 M120.4,30.5l3.2,8.9 c0.3,1,0.7,1.9,1,2.9c-16.6,5.6-29.3,16.9-35.3,31.6c-5.7,13.8-4.6,28.7,3.2,41.8l13,21.9l-3.7-25.2 c-2.9-19.4,10.4-37.7,31.8-44.9l1.2,3.4l2.7,7.6l5.6-5.8L157,58.5l8.6-8.8l6.1-6.3l-8.5-2.1c-5.5-1.4-10.9-2.8-16.4-4.1 c-5.8-1.5-11.5-2.9-17.3-4.4L120.4,30.5L120.4,30.5z"></path> </g> <path class="st1" d="M146.2,96.9c7.7-8,15.3-16,23-24c-7.2-2.1-14.5-4.2-21.7-6.3c-3.2,3.2-6.4,6.5-9.6,9.8 c-1.3-3.5-2.6-7.1-3.8-10.6c-11.5,3.8-19.3,9.3-25.7,18.2C121,88.1,133.6,92.5,146.2,96.9z"></path> <path class="st1" d="M87.3,84.2c0.7-3.9,1.8-7.7,3.5-11.4c-4.8-4.7-9.7-9.4-14.5-14.2C60.1,63.4,44,68.1,27.8,72.8 c7.7,8,15.3,16,23,24C62.9,92.7,75.1,88.5,87.3,84.2z"></path> <path class="st3" d="M105.1,141.8l2.7,8.9c0.2,0.7,0,1.6-0.7,2c-0.6,0.5-1.5,0.5-2.1,0l-7.6-5.3l-7.6,5.3c-0.3,0.2-0.7,0.3-1,0.3h0 c-1,0-1.8-0.8-1.8-1.8c0-0.3,0.1-0.6,0.2-0.8l2.6-8.6l-7.4-5.6c-0.6-0.5-0.9-1.3-0.6-2c0.2-0.7,0.9-1.2,1.7-1.3l9.3-0.2l3-8.8 c0.3-0.7,0.9-1.2,1.7-1.2c0.8,0,1.5,0.5,1.7,1.2l3,8.8l9.3,0.2c0.8,0,1.5,0.5,1.7,1.3c0.2,0.7,0,1.6-0.6,2L105.1,141.8z"></path> </g> </svg> 