<?xml version="1.0" encoding="UTF-8"?> <!-- Generator: Adobe Illustrator 24.1.3, SVG Export Plug-In . SVG Version: 6.00 Build 0) --> <svg xmlns="http://www.w3.org/2000/svg" xmlns:xlink="http://www.w3.org/1999/xlink" version="1.1" id="Layer_1" x="0px" y="0px" viewBox="0 0 425.2 425.2" style="enable-background:new 0 0 425.2 425.2;" xml:space="preserve"> <style type="text/css"> .st0{fill:#FFFFFF;} .st1{fill:#FFC630;} .st2{fill:#282727;} .st3{fill:#525758;} .st4{fill:#FCC433;} </style> <g> <path class="st0" d="M329.2,292.8l-0.1,0.2c-18.3,27-45.5,47-76.5,56.4l-4.8-15.8c27.4-8.3,51.5-26.1,67.7-49.9l0.1-0.2 L329.2,292.8z M336.4,281l-14.5-7.9c13.8-25.3,18.5-54.9,13.2-83.2l16.2-3C357.4,218.9,352.1,252.3,336.4,281z M239.1,352.8 c-32.2,6.4-65.7,1.4-94.3-14.1l7.8-14.5c25.3,13.7,54.8,18.1,83.2,12.4L239.1,352.8z M348.2,173.3l-15.8,4.6 c-8-27.7-25.5-51.8-49.3-68l9.1-13.7l0.1,0.1C319.3,114.6,339.1,141.9,348.2,173.3z M142.2,317.9l-9.3,13.6l-0.2-0.2 c-27-18.3-46.9-45.8-55.9-77.2l15.8-4.6c8,27.7,25.5,51.9,49.4,68.1L142.2,317.9z M272.4,103.5c-25.2-13.7-54.8-18.1-83.2-12.5 L186,74.8c32.2-6.4,65.7-1.4,94.3,14.2L272.4,103.5z M89.7,237.7l-16.2,3c-5.9-32.1-0.6-65.5,15.1-94.1l14.5,7.9 C89.2,179.8,84.5,209.3,89.7,237.7z M177.3,94c-27.5,8.3-51.6,26.1-67.8,50l-13.7-9.2l0-0.1c18.3-27,45.6-47.1,76.7-56.5L177.3,94z "></path> <path class="st0" d="M286.3,64.5c4.3,2.1,8.5,4.4,12.5,6.9l-8.5,14.1c-3.7-2.2-7.5-4.3-11.3-6.2c-23.9-11.8-50.4-17.2-76.8-15.6 l-1-16.5C230.5,45.4,259.9,51.4,286.3,64.5z M311,79.4c27.9,20.3,48.6,48.2,59.9,80.8l-15.6,5.4c-10.2-29.4-28.9-54.6-54.1-72.9 L311,79.4z M186.7,48.7l2.4,16.3c-30.9,4.6-59.1,18.3-81.6,39.6l-11.3-12C121.1,69,152.4,53.8,186.7,48.7z M375.2,174.2 c8.5,33.6,6.4,68.3-6,100.4l-15.4-6c11.2-28.9,13.1-60.2,5.4-90.4L375.2,174.2z M86.1,103.2l12.4,10.9c-8.6,9.8-16,20.7-21.8,32.6 c-7.9,15.9-12.8,32.9-14.6,50.4l-16.4-1.7c2-19.5,7.5-38.3,16.3-56C68.4,126.3,76.5,114.1,86.1,103.2z M348.5,280.7l14.8,7.3 l-0.1,0.2c-15.4,31.1-39.5,56.1-69.9,72.5l-7.8-14.5c27.4-14.7,49.1-37.3,62.9-65.2L348.5,280.7z M61.2,210.2 c-0.5,31,8.5,61.1,25.9,86.9l-13.7,9.2c-19.3-28.7-29.3-62-28.7-96.4L61.2,210.2z M273.5,351.9l6.5,15.1 c-31.7,13.7-66.3,17.2-100.1,10.4l3.3-16.2C213.7,367.5,244.9,364.2,273.5,351.9z M94.9,307.7c13.9,17.1,31,30.8,51,40.7 c7.9,3.9,16.2,7.2,24.6,9.6l-4.7,15.8c-9.3-2.7-18.4-6.3-27.2-10.7c-22.1-10.9-41.1-26.1-56.5-45.1L94.9,307.7z"></path> </g> <g> <polygon class="st1" points="152.4,172.6 154.1,189.9 166.9,210.5 178.7,212.9 191.2,202.8 199.2,184.4 198.5,172.6 "></polygon> <path class="st1" d="M232.3,139.8l31.4,2.8l10,10.8l-0.7,17.7l-7.6,14.6l-5.4,8l-13.6,2.4l-7.1-4l-6.2-12.6c0,0-4.2-14.4-4.2-15 c0-0.7-1-18.4-1-18.4L232.3,139.8z"></path> <g> <g> <polygon class="st2" points="208.6,219.8 214.7,221.3 213.7,227 209.1,232.4 205.2,230 203.6,224.9 "></polygon> <g> <g> <g> <path class="st0" d="M283.6,201.1l-12.6-4.6l-40.6-0.5l-13.6,5.1l-0.2,0.1c-0.3,0.1-25.4,12.1-23.6,42.7l0,0.4l0.1,0.4 c0.1,0.4,3.5,9,20.1,8.4c7.1,6.2,20.6,9.8,36.5,9.8c0.3,0,0.5,0,0.8,0c12.5-0.1,28.4-2.7,36.6-9.8c0.6,0,1.1,0,1.7,0 c15.1,0,18.2-8,18.3-8.4l0.1-0.4l0-0.4C309,213.2,283.9,201.2,283.6,201.1"></path> <path class="st3" d="M269.8,158.3c-0.4,16.6-7.8,33.9-19.6,33.9c-11,0-18.2-15-19.5-30.5V148l39.1-1V158.3z M228.1,177.5 c3.9,11.5,11.4,20.3,22,20.3c10.2,0,17.7-8.7,21.8-20.2c8.2-8.3,6.3-14.5,4.4-17.5c4.5-21.4-9.2-33.5-27-33.5 c-31.9,0-26.3,34.9-26.3,34.9c0,0,0.1,0,0.1,0C221.7,164.9,221.2,170.4,228.1,177.5 M261.2,242.2v3.3c0.6,0,1.5,0.1,2.9,0.1 c3.9,0,10.7-0.5,17.4-3.1V239C272.7,243.5,261.4,242.2,261.2,242.2 M304.7,243.7c-0.6,1-3.7,4.8-13.5,4.9 c0.3-5.3,0.5-17.6-0.1-27.5l-5.4,0.8c0.8,10.8,0.1,23.9-0.2,27.9c-5.5,4.8-16.8,8.1-29.9,8.9l-2.3-44h-6.4l-2.3,44 c-13.1-0.7-24.1-3.9-29.8-8.9c-0.3-3.9-1-16.8-0.3-27.8l-5.6-0.4c-0.7,10.1-0.1,21.6,0.2,26.9c-9.8-0.1-12.9-3.9-13.6-4.9 c-1.3-27.4,19.8-38.1,21.6-39l11.3-4.1l8.9,21.6l7.5-11.8l1.9,2.7h6.8l1.9-2.7l7.5,11.8l8.9-21.6l11.3,4.1 C285,205.7,306,216.4,304.7,243.7 M285.4,199.7l-16.7-6.1l-7.4,17.9l-7.5-11.8h-7.3l-7.5,11.8l-7.4-17.9l-16.4,6l-0.2,0.1 c-0.3,0.1-26.7,12.7-24.9,45l0,0.4l0.1,0.4c0.1,0.4,3.7,9.5,21.1,8.8c7.5,6.5,21.7,10.4,38.4,10.4c0.3,0,0.5,0,0.8,0 c13.2-0.1,29.9-2.9,38.5-10.3c0.6,0,1.2,0,1.8,0c15.8,0,19.1-8.4,19.3-8.8l0.1-0.4l0-0.4C312.1,212.3,285.7,199.8,285.4,199.7 "></path> <path class="st3" d="M285,199.9l-16.4-6.3l-8.8-2.9L253,194l3.8,4.6l-6.7,55.5l-7-55.9l3-4.2l-4.9-2.4l-9.7,1.9l-16.7,6.4 l-0.9,6.9c-2.2,3.2-3.6,7-4.5,11.6c-0.2,1.2-0.4,2.3-0.5,3.5l0,0c0,0.2,0,0.3,0,0.5c-0.9,8.2-0.5,17,0,22.7 c0.1,1.4,0.1,2.6,0.2,3.6c0.2,3.6,2.1,5.5,2.1,5.5c7.5,6.5,21.6,10.3,38.3,10.3c0.3,0,0.5,0,0.8,0 c13.1-0.1,29.8-2.9,38.4-10.3c0,0,1.7-1,2.1-5.5c0.6-5.5,1.8-19.2-0.2-30.3c-0.8-4.4-2.2-8.1-4.2-11.2L285,199.9z"></path> <path class="st3" d="M276,162.3c5.9-23.2-17.1-37.5-17.1-37.5l1.8,5.5c-20.7-10.1-45.1,6.4-45.1,6.4l7.4,6l-6.9,6.4 c0,0,2.7,0.6,6.3,1.5l-3.4,3.1l4.4,1.4l-3.7,3.2l3.2,3.1l0.1,0l7.1-0.7c-0.1-1-0.1-2-0.1-3l1.8-1.9l-1.5-3.1c0,0,0-0.1,0-0.1 c1.5,0.4,3.1,0.8,4.5,1.1c9.9,2.5,19.3-4.1,19.3-4.1l-0.9,4.1l11-3.7l-0.5,6l6.2-1c0.1,0.8,0.1,1.7,0.1,2.5 c0,1.3,0,2.6-0.1,3.9L276,162.3z"></path> </g> <polygon class="st3" points="272.4,216.5 278.4,218 277.5,223.7 272.9,229 269,226.6 267.4,221.5 "></polygon> <g> <path class="st0" d="M277.3,220.4l0,0.4c-0.1,0.6-0.1,1.1-0.2,1.7h-4.4v5.8c0,0,0,0,0,0c-0.6-0.2-1.2-0.5-1.7-0.9 c-0.8-0.6-1.5-1.2-1.8-1.8l0,0l0,0c-0.4-0.7-0.6-1.7-0.7-2.7l0-0.2l0,0l0,0c0,0,0-0.1,0-0.1h4.3v-5.3c1.1,0.8,2.5,1.3,4.1,1.3 c0.2,0,0.5,0,0.7,0C277.5,219.1,277.4,219.7,277.3,220.4 M276.8,217c-1.6,0-3.1-0.6-4.1-1.9c-0.9,1.2-2.5,1.9-4.1,1.9 c-0.8,0-1.6-0.2-2.3-0.5c0.1,2.1,0.2,4.2,0.6,6.3c0.2,1.1,0.4,2.5,1,3.4c0.5,1,1.4,1.7,2.3,2.3c0.7,0.5,1.4,0.8,2.2,1.1 c0.1,0,0.2,0.1,0.3,0.1c0.2,0,0.3-0.1,0.5-0.1c1.8-0.7,3.7-2,4.5-3.8c0.7-1.6,0.9-3.5,1-5.3c0.1-1.3,0.2-2.7,0.3-4 C278.4,216.8,277.6,217,276.8,217"></path> <path class="st0" d="M209.4,220l-12.6-4.6l-40.6-0.5l-13.6,5.1l-0.2,0.1c-0.3,0.1-25.4,12.1-23.6,42.7l0,0.4l0.1,0.4 c0.1,0.4,3.5,9,20.1,8.4c7.1,6.2,20.6,9.8,36.5,9.8c0.3,0,0.5,0,0.8,0c12.5-0.1,28.4-2.7,36.6-9.8c0.6,0,1.1,0,1.7,0 c15.1,0,18.2-8,18.3-8.4l0.1-0.4l0-0.4C234.7,232.1,209.6,220.1,209.4,220"></path> <path class="st3" d="M195.5,177.2c-0.4,16.6-7.8,33.9-19.6,33.9c-11,0-18.2-15-19.5-30.5v-13.7l39.1-1V177.2z M153.9,196.4 c3.9,11.5,11.4,20.3,22,20.3c10.2,0,17.7-8.7,21.8-20.2c8.2-8.3,6.3-14.5,4.4-17.5c4.5-21.4-9.2-33.5-27-33.5 c-31.9,0-26.3,34.9-26.3,34.9c0,0,0.1,0,0.1,0C147.4,183.8,147,189.4,153.9,196.4 M187,261.1v3.3c0.6,0,1.5,0.1,2.9,0.1 c3.9,0,10.7-0.5,17.4-3.1v-3.5C198.4,262.5,187.2,261.1,187,261.1 M230.4,262.7c-0.6,1-3.7,4.8-13.5,4.9 c0.3-5.3,0.5-17.6-0.1-27.5l-5.4,0.8c0.8,10.8,0.1,23.9-0.2,27.9c-5.5,4.8-16.8,8.1-29.9,8.9l-2.3-44h-6.4l-2.3,44 c-13.1-0.7-24.1-3.9-29.8-8.9c-0.3-3.9-1-16.8-0.3-27.8l-5.6-0.4c-0.7,10.1-0.1,21.6,0.2,26.9c-9.8-0.1-12.9-3.9-13.6-4.9 c-1.3-27.4,19.8-38.1,21.6-39l11.3-4.1l8.9,21.6l7.5-11.8l1.9,2.7h6.8l1.9-2.7l7.5,11.8l8.9-21.6l11.3,4.1 C210.7,224.6,231.7,235.3,230.4,262.7 M211.1,218.6l-16.7-6.1l-7.4,17.9l-7.5-11.8h-7.3l-7.5,11.8l-7.4-17.9l-16.4,6l-0.2,0.1 c-0.3,0.1-26.7,12.7-24.9,45l0,0.4l0.1,0.4c0.1,0.4,3.7,9.5,21.1,8.8c7.5,6.5,21.7,10.4,38.4,10.4c0.3,0,0.5,0,0.8,0 c13.2-0.1,29.9-2.9,38.5-10.3c0.6,0,1.2,0,1.8,0c15.8,0,19.1-8.4,19.3-8.8l0.1-0.4l0-0.4C237.8,231.2,211.4,218.7,211.1,218.6 "></path> <path class="st3" d="M210.8,218.8l-16.4-6.3l-8.8-2.9l-6.9,3.4l3.8,4.6l-6.7,55.5l-7-55.9l3-4.2l-4.9-2.4l-9.7,1.9l-16.7,6.4 l-0.9,6.9c-2.2,3.2-3.6,7-4.5,11.6c-0.2,1.2-0.4,2.3-0.5,3.5l0,0c0,0.2,0,0.3,0,0.5c-0.9,8.2-0.5,17,0,22.7 c0.1,1.4,0.1,2.6,0.2,3.6c0.2,3.6,2.1,5.5,2.1,5.5c7.5,6.5,21.6,10.3,38.3,10.3c0.3,0,0.5,0,0.8,0 c13.1-0.1,29.8-2.9,38.4-10.3c0,0,1.7-1,2.1-5.5c0.6-5.5,1.8-19.2-0.2-30.3c-0.8-4.4-2.2-8.1-4.2-11.2L210.8,218.8z"></path> <path class="st4" d="M205.7,242.2c-4.7,1.9-9.6,2.2-12.4,2.2c-0.9,0-1.7,0-2-0.1V242c0.1,0,8.2,1,14.5-2.3V242.2z"></path> <path class="st3" d="M162.4,186.6c13.2-5.5,21.1-12.4,25.9-18.2c1.7,2,4.4,5.7,6.7,10.5c-0.8,15.9-8,32-19.3,32 c-8.8,0-15.1-9.7-17.9-21.5C160.2,187.6,162.4,186.6,162.4,186.6 M162.2,212.5c-9.2-7.1-10.5-12.8-9-17.1 c0.3,0.3,0.6,0.6,0.9,0.9c3.9,11.4,11.2,20.1,21.7,20.1c10.1,0,17.5-8.5,21.5-19.9c0.4-0.4,0.7-0.7,1.1-1.1 c-0.4,5.3-2.4,11-7,16.6c0,0,33.4-17.4,3.9-56.8c-0.7-2.3-4.3-10.5-17.2-9.1c-42.6,4.7-34.6,47.9-29.9,56.6 C152.1,210.3,162.2,212.5,162.2,212.5"></path> <path class="st3" d="M175.9,143.8c-17.4,0-32.4,4.6-32.4,4.6l5.6,13v7c0,0,8.1,13.7,26.8,13.7c18.7,0,26.8-13.7,26.8-13.7v-7 l5.6-13C208.3,148.4,193.3,143.8,175.9,143.8"></path> </g> <rect x="150.8" y="160.7" class="st4" width="3.3" height="2.8"></rect> <rect x="157.4" y="160.7" class="st4" width="3.3" height="2.8"></rect> <rect x="164.1" y="160.7" class="st4" width="3.3" height="2.8"></rect> <rect x="170.8" y="160.7" class="st4" width="3.3" height="2.8"></rect> <rect x="177.5" y="160.7" class="st4" width="3.3" height="2.8"></rect> <rect x="184.2" y="160.7" class="st4" width="3.3" height="2.8"></rect> <rect x="190.9" y="160.7" class="st4" width="3.3" height="2.8"></rect> <rect x="197.5" y="160.7" class="st4" width="3.3" height="2.8"></rect> </g> <path class="st0" d="M179.1,150.8l0,0.3c0,0.4-0.1,0.8-0.1,1.2h-3.1v4.1c0,0,0,0,0,0c-0.4-0.2-0.8-0.4-1.2-0.6 c-0.6-0.4-1-0.8-1.3-1.3l0,0l0,0c-0.3-0.5-0.4-1.2-0.5-1.9l0-0.2l0,0l0,0c0,0,0,0,0-0.1h3.1v-3.8c0.8,0.6,1.8,0.9,2.9,0.9 c0.2,0,0.4,0,0.5,0C179.1,149.9,179.1,150.3,179.1,150.8 M178.7,148.4c-1.1,0-2.2-0.4-2.9-1.3c-0.7,0.9-1.8,1.3-2.9,1.3 c-0.6,0-1.1-0.1-1.6-0.4c0.1,1.5,0.2,3,0.4,4.5c0.1,0.8,0.3,1.8,0.7,2.5c0.4,0.7,1,1.2,1.6,1.7c0.5,0.3,1,0.6,1.6,0.8 c0.1,0,0.2,0,0.2,0c0.1,0,0.2,0,0.4-0.1c1.3-0.5,2.7-1.4,3.2-2.7c0.5-1.2,0.6-2.5,0.7-3.8c0.1-1,0.2-1.9,0.2-2.9 C179.8,148.3,179.2,148.4,178.7,148.4"></path> </g> </g> </g> </g> </svg> 