<?xml version="1.0" encoding="UTF-8"?> <!-- Generator: Adobe Illustrator 24.1.3, SVG Export Plug-In . SVG Version: 6.00 Build 0) --> <svg xmlns="http://www.w3.org/2000/svg" xmlns:xlink="http://www.w3.org/1999/xlink" version="1.1" id="Layer_1" x="0px" y="0px" viewBox="0 0 194.6 174.5" style="enable-background:new 0 0 194.6 174.5;" xml:space="preserve"> <style type="text/css"> .st0{fill:#FFFFFF;} .st1{fill:#FFC630;} </style> <g> <path class="st0" d="M50.7,84.2c5.4,5.4,6.5,13.5,3.3,20L39.4,89.7l46.3,46.3c7.1,7.1,18.6,7.1,25.6,0c7.1-7.1,7.1-18.6,0-25.6 L86.2,85.2c-11.4-11.4-11.4-29.9,0-41.3c11.4-11.4,29.9-11.4,41.3,0l21.8,21.8c6.5-3.2,14.6-2.1,20,3.3c6.8,6.8,6.8,17.8,0,24.6 c-6.8,6.8-17.8,6.8-24.6,0c-5.4-5.4-6.5-13.5-3.3-20l-21.8-21.8c-7.1-7.1-18.6-7.1-25.6,0c-7.1,7.1-7.1,18.6,0,25.6l25.1,25.1 c11.4,11.4,11.4,29.9,0,41.3c-11.4,11.4-29.9,11.4-41.3,0L31.5,97.5L46.1,112c-6.5,3.2-14.6,2.1-20-3.3c-6.8-6.8-6.8-17.8,0-24.6 C32.9,77.4,43.9,77.4,50.7,84.2"></path> <path class="st1" d="M50.3,53.1c0-8.8-7.1-15.9-15.9-15.9c-8.7,0-15.8,7.1-15.8,15.9c0,8.7,7.1,15.8,15.8,15.8 C43.2,68.9,50.3,61.8,50.3,53.1"></path> <path class="st1" d="M20.2,71.2C5.6,78.1-2,94.3,2.1,109.9c20.6,9.2,44.1,9.2,64.7,0c4.1-15.6-3.5-31.9-18-38.8 C40.4,77.8,28.5,77.8,20.2,71.2"></path> <path class="st1" d="M175.8,36.3c0-8.8-7.1-15.9-15.9-15.9c-8.7,0-15.8,7.1-15.8,15.9c0,8.7,7.1,15.8,15.8,15.8 C168.7,52.2,175.8,45.1,175.8,36.3"></path> <path class="st1" d="M145.6,54.4c-14.6,6.9-22.2,23.2-18.1,38.8c20.6,9.2,44.1,9.2,64.7,0c4.1-15.6-3.5-31.9-18-38.8 C165.9,61.1,154,61.1,145.6,54.4"></path> </g> </svg> 