<?xml version="1.0" encoding="UTF-8"?> <svg xmlns="http://www.w3.org/2000/svg" id="Layer_1" data-name="Layer 1" viewBox="0 0 1029.6 791.9"><defs><style>.cls-1{fill:#ffc630;}.cls-2,.cls-4{fill:#525758;}.cls-3,.cls-4{isolation:isolate;}.cls-4{font-size:35px;font-family:Montserrat-Bold, Montserrat;font-weight:700;}.cls-5{letter-spacing:0em;}.cls-6{letter-spacing:-0.01em;}.cls-7{fill:#fff;}.cls-8{fill:#282727;}</style></defs><circle class="cls-1" cx="246.7" cy="663.4" r="128.5"></circle><circle class="cls-1" cx="246.7" cy="128.5" r="128.5"></circle><circle class="cls-1" cx="827.9" cy="283.2" r="128.5"></circle><circle class="cls-1" cx="438" cy="428.9" r="128.5"></circle><circle class="cls-1" cx="790.6" cy="663.4" r="128.5"></circle><polygon class="cls-2" points="737.4 667.3 440.5 415.8 679.1 313.4 276.7 198.9 276.7 648.2 226.7 648.2 226.7 132.7 828.1 303.8 534.5 429.9 769.7 629.1 737.4 667.3"></polygon><g class="cls-3"><text class="cls-4" transform="translate(392.92 709.53)">Ambers<tspan class="cls-5" x="141.61" y="0">t</tspan><tspan x="156.8" y="0">one’s </tspan></text><text class="cls-4" transform="translate(485.62 751.53)">5Rs</text></g><g class="cls-3"><text class="cls-4" transform="translate(194.66 710.52)">Right </text><text class="cls-4" transform="translate(171.96 752.52)">Product</text></g><g class="cls-3"><text class="cls-4" transform="translate(197.66 71.39)">Right </text><text class="cls-4" transform="translate(206.66 113.39)">Role</text></g><g class="cls-3"><text class="cls-4" transform="translate(778.86 226.09)">Right </text><text class="cls-4" transform="translate(782.96 268.09)">Time</text></g><g class="cls-3"><text class="cls-4" transform="translate(388.95 481.68)">Right </text><text class="cls-4" transform="translate(389.45 523.68)">Pla<tspan class="cls-6" x="56.17" y="0">c</tspan><tspan x="75.32" y="0">e</tspan></text></g><g class="cls-3"><text class="cls-4" transform="translate(691.05 710.52)">Right Pri<tspan class="cls-6" x="158.34" y="0">c</tspan><tspan x="177.48" y="0">e </tspan></text><text class="cls-4" transform="translate(745.95 752.52)">(ROI)</text></g><path class="cls-7" d="M448.8,392.2c-40.5,0-73.4,6.4-73.4,14.3s32.9,14.3,73.4,14.3,73.4-6.4,73.4-14.3S489.3,392.2,448.8,392.2Z" transform="translate(-10.8 -4.1)"></path><path class="cls-2" d="M448.8,423.3c-26.2,0-75.9-3.5-75.9-16.8,0-5.3,7.7-9.4,23.5-12.5,14-2.7,32.6-4.2,52.4-4.2,26.2,0,75.9,3.5,75.9,16.8,0,5.3-7.7,9.4-23.5,12.5C487.1,421.8,468.5,423.3,448.8,423.3Zm0-28.7c-19.5,0-37.7,1.5-51.4,4.1-15.9,3.1-19.5,6.7-19.5,7.7s3.6,4.6,19.5,7.7c13.7,2.7,32,4.2,51.4,4.2s37.7-1.5,51.4-4.2c15.9-3.1,19.5-6.7,19.5-7.7s-3.6-4.6-19.5-7.7C486.5,396.1,468.2,394.6,448.8,394.6Z" transform="translate(-10.8 -4.1)"></path><path class="cls-2" d="M448.8,257.1a48.7,48.7,0,0,0-48.7,48.7c0,41.2,48.7,100.7,48.7,100.7s48.7-59.5,48.7-100.7A48.76,48.76,0,0,0,448.8,257.1Zm0,75.1a26.3,26.3,0,1,1,26.3-26.3h0A26.46,26.46,0,0,1,448.8,332.2Z" transform="translate(-10.8 -4.1)"></path><path class="cls-7" d="M448.8,257.1a48.7,48.7,0,0,1,48.7,48.7c0,41.2-48.7,100.7-48.7,100.7S400,347.1,400,305.9a48.93,48.93,0,0,1,48.8-48.8m0,75.1a26.3,26.3,0,1,0-26.3-26.3,26.33,26.33,0,0,0,26.3,26.3m0-79.9h0a53.73,53.73,0,0,0-53.6,53.6c0,18,8.4,41,25.1,68.3a312.48,312.48,0,0,0,24.8,35.4,4.91,4.91,0,0,0,7.6,0,359.29,359.29,0,0,0,24.8-35.4c16.6-27.3,25.1-50.3,25.1-68.3a54,54,0,0,0-53.8-53.6Zm0,75a21.4,21.4,0,1,1,21.4-21.4,21.42,21.42,0,0,1-21.4,21.4Z" transform="translate(-10.8 -4.1)"></path><path class="cls-2" d="M1010,362.3a92.24,92.24,0,1,0-28.3,110.9,8.55,8.55,0,1,0-10.5-13.5,75.23,75.23,0,1,1,23.2-90.4,76.4,76.4,0,0,1,4.5,13.5,75.39,75.39,0,0,1-9.7,57,8.54,8.54,0,0,0,14.4,9.2,90.31,90.31,0,0,0,14.4-49.2,94.71,94.71,0,0,0-2.4-20.8A78,78,0,0,0,1010,362.3Z" transform="translate(-10.8 -4.1)"></path><path class="cls-1" d="M925.6,332.6a67.1,67.1,0,1,0,67.1,67.1A67.17,67.17,0,0,0,925.6,332.6Z" transform="translate(-10.8 -4.1)"></path><path class="cls-7" d="M925.6,469.3a69.6,69.6,0,1,1,69.6-69.6A69.65,69.65,0,0,1,925.6,469.3Zm0-134.2a64.5,64.5,0,1,0,64.5,64.5A64.59,64.59,0,0,0,925.6,335.1Z" transform="translate(-10.8 -4.1)"></path><polygon class="cls-7" points="923.5 399.9 888.8 418 882.6 405.5 908.3 391.2 908.3 350.1 923.5 350.1 923.5 399.9"></polygon><path class="cls-2" d="M106.8,163.2a63.63,63.63,0,0,1,31.6,8.3,26.29,26.29,0,0,1-.4-4.9c0-1.2.1-2.4.2-3.6a71.77,71.77,0,0,0-31.4-7.3A70.4,70.4,0,0,0,75.4,163c.1,1.2.2,2.4.2,3.6a40.45,40.45,0,0,1-.4,4.9,63.63,63.63,0,0,1,31.6-8.3" transform="translate(-10.8 -4.1)"></path><path class="cls-2" d="M171.1,227.3v.1a64.12,64.12,0,0,1-33.4,56.3,37.92,37.92,0,0,1,4.8,5.8,71.83,71.83,0,0,0,36.1-62.2v-.1h-7.5Z" transform="translate(-10.8 -4.1)"></path><path class="cls-2" d="M75.9,283.7a64.23,64.23,0,0,1-33.4-56.3v-.1H35.1v.1a71.7,71.7,0,0,0,36,62.1,67.15,67.15,0,0,1,4.8-5.8" transform="translate(-10.8 -4.1)"></path><path class="cls-2" d="M203.1,216.3a35,35,0,0,0-22.5-31.7,22.3,22.3,0,1,0-26.4,0,34.81,34.81,0,0,0-22.5,32.3,3.54,3.54,0,0,0,3.5,3.5h64.7a3.54,3.54,0,0,0,3.5-3.5.86.86,0,0,1-.3-.6" transform="translate(-10.8 -4.1)"></path><path class="cls-2" d="M78.8,220.3a3.54,3.54,0,0,0,3.5-3.5,1.27,1.27,0,0,0-.1-.6,35,35,0,0,0-22.5-31.7,22.3,22.3,0,1,0-26.4,0,34.81,34.81,0,0,0-22.5,32.3,3.54,3.54,0,0,0,3.5,3.5H78.8" transform="translate(-10.8 -4.1)"></path><path class="cls-2" d="M120.1,280.3a22.3,22.3,0,1,0-26.4,0C80.3,285.5,71,298,71,312.6a3.54,3.54,0,0,0,3.5,3.5h64.7a3.54,3.54,0,0,0,3.5-3.5,1.27,1.27,0,0,0-.1-.6c-.2-14.4-9.5-26.6-22.5-31.7" transform="translate(-10.8 -4.1)"></path><polygon class="cls-8" points="58 540.5 62.5 540 63.3 544.2 61.4 549 58.1 548.3 55.7 545.2 58 540.5"></polygon><path class="cls-7" d="M116,513.4l-9.8-.1L78,522.8l-8.2,6.8-.1.1A32.78,32.78,0,0,0,63.8,565l.1.3.2.2c.2.2,4.6,5.4,15.9.9,6.4,2.5,16.6,1.8,27.6-2.1.2-.1.4-.1.5-.2,8.6-3.1,18.9-8.8,22.9-15.7a5.64,5.64,0,0,0,1.2-.4c10.4-3.7,10.6-10,10.6-10.2v-.3l-.1-.3c-6.2-21.6-26.5-23.7-26.7-23.8" transform="translate(-10.8 -4.1)"></path><path class="cls-2" d="M96.1,487.3c3.7,11.5,2.8,25.3-5.3,28.2-7.6,2.7-16.2-6-20.8-16.3l-3.3-9.5,26.8-10.2ZM72,510.6c5.5,7,12.8,11.3,20.1,8.7,7-2.5,10.1-10.3,10.2-19.2,3.7-7.7.8-11.5-1.2-13.1-2.1-15.9-14.5-20.9-26.7-16.6-22,7.7-9.7,30.5-9.7,30.5h.1c-.3,2.6.7,6.5,7.2,9.7m38.6,36.7.8,2.3c.4-.1,1.1-.3,2-.6a34.9,34.9,0,0,0,11.2-6.4l-.8-2.4c-5,5.2-13.1,7-13.2,7.1m30.3-9.5c-.2.9-1.4,4.2-8.1,6.7a195.41,195.41,0,0,0-6.8-19l-3.5,1.9a193,193,0,0,1,6.7,19.3c-2.6,4.7-9.6,9.7-18.5,13.4L98.4,530.3,94,531.8l9.1,30.9c-9.2,2.7-17.6,3.1-22.7,1.1a175.15,175.15,0,0,1-6.9-19.1l-3.9,1.1a167.76,167.76,0,0,0,6.7,18.5c-6.8,2.3-9.9.4-10.6-.1-7.5-18.6,4.4-31.1,5.4-32.1l6.8-5.6,11.4,12.7,2.3-10,2,1.4,4.7-1.6.7-2.3,8.1,6.3.9-17.1,8.8.1a30.18,30.18,0,0,1,24.1,21.8m-24-25.8-13-.2-.7,14.1-8.1-6.3L90,521.4l-2.3,10-9.4-10.6L68.4,529l-.1.1A34.24,34.24,0,0,0,62,566.2l.1.3.2.2c.2.2,4.8,5.6,16.7.9,6.8,2.7,17.5,1.9,29.1-2.2.2-.1.4-.1.6-.2,9.1-3.3,19.9-9.2,24.1-16.5.4-.1.8-.3,1.2-.4,10.9-3.8,11.2-10.5,11.2-10.8v-.3l-.2-.2a34.48,34.48,0,0,0-28.1-25" transform="translate(-10.8 -4.1)"></path><path class="cls-2" d="M116.7,512.3l-12.8-.4-6.8.1-3.9,4,3.7,2.2,8.8,40L87.3,521.3l1.1-3.7-4-.5-6.2,3.7-10,8.4,1.1,5a22.77,22.77,0,0,0-.3,9.1c.1.8.3,1.7.5,2.6h0c0,.1.1.2.1.3a85.67,85.67,0,0,0,5.5,15.7c.4.9.7,1.8,1,2.4a6.66,6.66,0,0,0,2.8,3.3c6.7,2.7,17.4,1.9,28.9-2.2.2-.1.4-.1.6-.2,9-3.2,19.9-9.2,24-16.4,0,0,.9-1.1.1-4.3-.9-4-3.4-13.7-7.5-20.9a22.2,22.2,0,0,0-5.6-6.7Z" transform="translate(-10.8 -4.1)"></path><path class="cls-2" d="M101.4,488.5c-1.6-17.4-20.9-21.7-20.9-21.7l2.6,3.4c-16.7-2-29.5,15.4-29.5,15.4l6.5,2.3L56.9,494s2-.2,4.7-.5L60,496.4l3.3-.1-1.8,3.1,3,1.3h.1l4.7-2.2c-.3-.7-.5-1.4-.8-2.1l.8-1.8-1.8-1.8v-.1l3.4-.3c7.4-.7,12.3-7.5,12.3-7.5l.4,3.1,6.7-5.2,1.1,4.2,4-2.2c.2.6.5,1.1.7,1.7l.9,2.7Z" transform="translate(-10.8 -4.1)"></path><polygon class="cls-2" points="101.2 522.7 105.7 522.3 106.5 526.4 104.6 531.2 101.3 530.5 99 527.4 101.2 522.7"></polygon><path class="cls-2" d="M191.3,518.6l-55.9-8,9.8-68.4a1,1,0,0,1,1.1-.8l54,7.7a1,1,0,0,1,.8,1.1ZM161.5,528a4.14,4.14,0,1,1,4.7-3.5,4.29,4.29,0,0,1-4.7,3.5m39.3-82.9-53.9-7.7a5,5,0,0,0-5.6,4.2l-11.7,82.1a5,5,0,0,0,4.2,5.6l53.9,7.7a5,5,0,0,0,5.6-4.2L205,450.7a5,5,0,0,0-4.2-5.6" transform="translate(-10.8 -4.1)"></path><rect class="cls-7" x="72.9" y="590.9" width="86" height="35.6"></rect><rect class="cls-7" x="40.9" y="559.4" width="148.2" height="21"></rect><path class="cls-2" d="M194.4,567.5v17.6l4.7-4.7H51.4l4.7,4.7V566.7c-.1.4-.1.8-.2,1.3a12.09,12.09,0,0,1,.5-1.8,11.73,11.73,0,0,1-.5,1.1,3.88,3.88,0,0,1,.6-1.1c.5-.8-.3.3-.3.3s.4-.5.5-.5a2.18,2.18,0,0,1,.5-.4c.3-.3-1.1.7-.3.3a6.72,6.72,0,0,1,1.2-.6,11.73,11.73,0,0,0-1.1.5,12.09,12.09,0,0,1,1.8-.5c-.4.1-.8.1-1.3.2a30.85,30.85,0,0,1,4.3,0H192.7c-.4-.1-.8-.1-1.3-.2a12.09,12.09,0,0,1,1.8.5,11.73,11.73,0,0,1-1.1-.5,3.88,3.88,0,0,1,1.1.6c.8.5-.3-.3-.3-.3s.5.4.5.5a2.18,2.18,0,0,1,.4.5c.3.3-.7-1.1-.3-.3a6.72,6.72,0,0,1,.6,1.2,11.73,11.73,0,0,0-.5-1.1,12.09,12.09,0,0,1,.5,1.8c-.1-.4-.1-.8-.2-1.3.5.1.5.4.5.6a4.69,4.69,0,0,0,4.7,4.7,4.76,4.76,0,0,0,4.7-4.7,12,12,0,0,0-11.9-11.8H58.8a12.16,12.16,0,0,0-10.3,5.5c-2.1,3.2-1.8,7-1.8,10.7v13.2a4.83,4.83,0,0,0,4.7,4.7H199.1a4.83,4.83,0,0,0,4.7-4.7V567.5a4.7,4.7,0,0,0-9.4,0Z" transform="translate(-10.8 -4.1)"></path><path class="cls-2" d="M187.2,585.1v92.3c.1-.4.1-.8.2-1.3l-.3,1.2a11.73,11.73,0,0,1,.5-1.1c-.1.3-.3.5-.4.8s-.4.6.1-.1.1-.2,0,0l-.3.3s1-.7.5-.4c-.3.2-.6.3-.9.5a11.73,11.73,0,0,0,1.1-.5,5.27,5.27,0,0,1-1.2.3c.4-.1.8-.1,1.3-.2-1.3.1-2.5,0-3.8,0H63.4c.4.1.8.1,1.3.2l-1.2-.3a11.73,11.73,0,0,1,1.1.5c-.3-.1-.5-.3-.8-.4s-.6-.4.1.1.2.1,0,0l-.3-.3s.7,1,.4.5c-.2-.3-.3-.6-.5-.9a11.73,11.73,0,0,0,.5,1.1,5.27,5.27,0,0,1-.3-1.2c.1.4.1.8.2,1.3-.1-1,0-2,0-3v-78c0-3.7.1-7.4,0-11.1v-.2l-4.7,4.7H192.3a4.7,4.7,0,1,0,0-9.4H59.2a4.83,4.83,0,0,0-4.7,4.7v90.2a14,14,0,0,0,.4,4.1,9.79,9.79,0,0,0,9.7,7H187.2c4.4,0,8.8-2.9,9.7-7.4a17.11,17.11,0,0,0,.3-3.9v-90a4.76,4.76,0,0,0-4.7-4.7C189.3,580.5,187.2,582.5,187.2,585.1Z" transform="translate(-10.8 -4.1)"></path><path class="cls-2" d="M145.2,612.2c.2,0,.3-.1.5-.1a2.51,2.51,0,0,0,.7-.4l.2-.2c.1-.1.2-.2.2-.3s.2-.3.3-.5.1-.4.2-.5v-.7c0-.2-.1-.3-.1-.5a2.51,2.51,0,0,0-.4-.7l-.2-.2c-.1-.1-.2-.2-.3-.2s-.3-.2-.5-.3-.4-.1-.6-.2c-1.6-.1-3.3,0-4.9,0H109.2c-1.3,0-2.6-.1-4,0-.2,0-.3.1-.5.1a2.51,2.51,0,0,0-.7.4l-.2.2c-.1.1-.2.2-.2.3s-.2.3-.3.5-.1.4-.2.5v.7c0,.2.1.3.1.5a2.51,2.51,0,0,0,.4.7l.2.2c.1.1.2.2.3.2s.3.2.5.3.4.1.6.2c1.6.1,3.3,0,4.8,0h35.2Z" transform="translate(-10.8 -4.1)"></path><path class="cls-2" d="M60.7,587.8v92.9h130V587.8Zm95.6,25.4a12,12,0,0,1-11.3,8.5H105.8a11.93,11.93,0,0,1-9.9-5.2,11.79,11.79,0,0,1-.1-13.1,12.06,12.06,0,0,1,10-5.3h35.4c3.6,0,7.4-.2,10.5,2.1A11.82,11.82,0,0,1,156.3,613.2Z" transform="translate(-10.8 -4.1)"></path><circle class="cls-2" cx="793.5" cy="614.7" r="48.2"></circle><path class="cls-7" d="M804.3,574.8a44,44,0,1,0,44,44,44.06,44.06,0,0,0-44-44m0,96.1a52,52,0,1,1,52-52,52,52,0,0,1-52,52" transform="translate(-10.8 -4.1)"></path><path class="cls-1" d="M789,631.4l4-1.3v-7.4h-4V616h4v-4.3a17.18,17.18,0,0,1,.8-5.2,9.7,9.7,0,0,1,2.3-3.8,10.89,10.89,0,0,1,4-2.5,14.53,14.53,0,0,1,5.4-.9,16.2,16.2,0,0,1,4,.5,10.23,10.23,0,0,1,3.2,1.3,15.72,15.72,0,0,1,2.6,1.9,12.06,12.06,0,0,1,2.1,2.4l-6.2,5a12.68,12.68,0,0,0-2.6-2.6,4.86,4.86,0,0,0-3-.9,4.07,4.07,0,0,0-3,1.2,4.35,4.35,0,0,0-1,1.6,7.88,7.88,0,0,0-.4,2.3v4.1h12v6.7h-12v7.1h16v7H789Z" transform="translate(-10.8 -4.1)"></path><circle class="cls-2" cx="862.3" cy="565.2" r="52.5"></circle><path class="cls-7" d="M873.1,521.3a48,48,0,1,0,48,48,48.08,48.08,0,0,0-48-48m0,104.7a56.7,56.7,0,1,1,56.7-56.7A56.72,56.72,0,0,1,873.1,626" transform="translate(-10.8 -4.1)"></path><path class="cls-1" d="M856.5,582.9l4.4-1.4v-8.1h-4.4v-7.3h4.4v-4.7a16.45,16.45,0,0,1,.9-5.6,10,10,0,0,1,2.6-4.2,11.24,11.24,0,0,1,4.3-2.7,17.43,17.43,0,0,1,5.9-.9,19.71,19.71,0,0,1,4.4.5,12.21,12.21,0,0,1,3.5,1.4,14.63,14.63,0,0,1,2.8,2.1,28.48,28.48,0,0,1,2.3,2.6l-6.7,5.4a12.43,12.43,0,0,0-2.9-2.8,5.71,5.71,0,0,0-3.2-.9,4.45,4.45,0,0,0-3.3,1.3,5.44,5.44,0,0,0-1.1,1.8,6.57,6.57,0,0,0-.4,2.5v4.4h13.1v7.3H870v7.7h17.5v7.6H856.7v-6Z" transform="translate(-10.8 -4.1)"></path><circle class="cls-2" cx="963.4" cy="592.6" r="61.3"></circle><path class="cls-7" d="M974.2,540.7a56,56,0,1,0,56,56,56,56,0,0,0-56-56m0,122.2a66.2,66.2,0,1,1,66.2-66.2,66.28,66.28,0,0,1-66.2,66.2" transform="translate(-10.8 -4.1)"></path><path class="cls-1" d="M954.9,612.6l5.1-1.7v-9.5h-5.1V593H960v-5.4a19.87,19.87,0,0,1,1-6.6,12.69,12.69,0,0,1,3-4.9,15.3,15.3,0,0,1,5-3.2,20.2,20.2,0,0,1,6.8-1.1,19.83,19.83,0,0,1,5.1.6A21.89,21.89,0,0,1,985,574a19.92,19.92,0,0,1,3.3,2.4,18.67,18.67,0,0,1,2.6,3l-7.8,6.3a14.79,14.79,0,0,0-3.4-3.3,6.8,6.8,0,0,0-3.8-1.1,5,5,0,0,0-3.8,1.5,5.39,5.39,0,0,0-1.3,2.1,8.36,8.36,0,0,0-.5,2.9V593h15.3v8.5H970.3v9h20.4v8.9H954.8v-6.8Z" transform="translate(-10.8 -4.1)"></path></svg> 