<?xml version="1.0" encoding="UTF-8"?> <!-- Generator: Adobe Illustrator 24.1.2, SVG Export Plug-In . SVG Version: 6.00 Build 0) --> <svg xmlns="http://www.w3.org/2000/svg" xmlns:xlink="http://www.w3.org/1999/xlink" version="1.1" id="Layer_1" x="0px" y="0px" viewBox="0 0 145 145" style="enable-background:new 0 0 145 145;" xml:space="preserve"> <style type="text/css"> .st0{fill:#FFFFFF;} .st1{fill:#515758;} </style> <g> <g> <circle class="st0" cx="72.5" cy="72.5" r="72.5"></circle> </g> <g> <circle class="st1" cx="32.1" cy="61.3" r="5.8"></circle> <path class="st1" d="M37.2,109.6V90c0-0.1,0-0.1,0-0.2h0.9c2.1,0,3.8-1.7,3.8-3.8l0,0V72.5c0-2.1-1.7-3.8-3.8-3.8h-12 c-2.1,0-3.8,1.7-3.8,3.8v13.6c0,2.1,1.7,3.8,3.8,3.8H27c0,0.1,0,0.1,0,0.2v19.6c0,1.6,1.3,2.9,2.9,2.9h4.4 C35.9,112.5,37.2,111.2,37.2,109.6z"></path> <circle class="st1" cx="57.5" cy="61.3" r="5.8"></circle> <path class="st1" d="M62.6,109.6V90c0-0.1,0-0.1,0-0.2h0.9c2.1,0,3.8-1.7,3.8-3.8l0,0V72.5c0-2.1-1.7-3.8-3.8-3.8h-12 c-2.1,0-3.8,1.7-3.8,3.8v13.6c0,2.1,1.7,3.8,3.8,3.8h0.9c0,0.1,0,0.1,0,0.2v19.6c0,1.6,1.3,2.9,2.9,2.9h4.4 C61.3,112.5,62.6,111.2,62.6,109.6z"></path> <circle class="st1" cx="82.9" cy="61.3" r="5.8"></circle> <path class="st1" d="M88,109.6V90c0-0.1,0-0.1,0-0.2h0.9c2.1,0,3.8-1.7,3.8-3.8h0V72.5c0-2.1-1.7-3.8-3.8-3.8h-12 c-2.1,0-3.8,1.7-3.8,3.8v13.6c0,2.1,1.7,3.8,3.8,3.8h0.9c0,0.1,0,0.1,0,0.2v19.6c0,1.6,1.3,2.9,2.9,2.9h4.4 C86.7,112.5,88,111.2,88,109.6z"></path> <circle class="st1" cx="108.3" cy="61.3" r="5.8"></circle> <path class="st1" d="M114.3,68.8h-12c-2.1,0-3.8,1.7-3.8,3.8v13.6c0,2.1,1.7,3.8,3.8,3.8h0.9c0,0.1,0,0.1,0,0.2v19.6 c0,1.6,1.3,2.9,2.9,2.9h4.4c1.6,0,2.9-1.3,2.9-2.9V90c0-0.1,0-0.1,0-0.2h0.9c2.1,0,3.8-1.7,3.8-3.8l0,0V72.5 C118.1,70.4,116.4,68.8,114.3,68.8z"></path> <circle class="st1" cx="57.5" cy="37.9" r="5.8"></circle> <circle class="st1" cx="82.9" cy="37.9" r="5.8"></circle> <circle class="st1" cx="44.8" cy="49.6" r="5.8"></circle> <circle class="st1" cx="70.2" cy="49.6" r="5.8"></circle> <circle class="st1" cx="70.2" cy="26.2" r="5.8"></circle> <circle class="st1" cx="95.6" cy="49.6" r="5.8"></circle> </g> </g> </svg> 