<?xml version="1.0" encoding="UTF-8"?> <!-- Generator: Adobe Illustrator 24.1.2, SVG Export Plug-In . SVG Version: 6.00 Build 0) --> <svg xmlns="http://www.w3.org/2000/svg" xmlns:xlink="http://www.w3.org/1999/xlink" version="1.1" id="Layer_1" x="0px" y="0px" viewBox="0 0 145 145" style="enable-background:new 0 0 145 145;" xml:space="preserve"> <style type="text/css"> .st0{fill:#FFFFFF;} .st1{fill:#525758;} </style> <g> <circle class="st0" cx="72.5" cy="72.5" r="72.5"></circle> </g> <g> <g> <path class="st1" d="M82.9,60.3c-2.2,0-3.9,1.7-3.9,3.7v3c0,2.1,1.8,3.7,3.9,3.7s3.9-1.7,3.9-3.7v-3C86.8,61.9,85,60.3,82.9,60.3z M84.2,67c0,0.6-0.6,1.1-1.3,1.1c-0.7,0-1.3-0.5-1.3-1.1v-3c0-0.6,0.6-1.1,1.3-1.1c0.7,0,1.3,0.5,1.3,1.1V67z"></path> <path class="st1" d="M73.7,69.5v-7.9c0-0.7-0.6-1.3-1.3-1.3c-0.7,0-1.3,0.6-1.3,1.3v7.9c0,0.7,0.6,1.3,1.3,1.3 C73.1,70.8,73.7,70.2,73.7,69.5z"></path> <path class="st1" d="M61.9,20.9c-2.2,0-3.9,1.7-3.9,3.7v3c0,2.1,1.8,3.7,3.9,3.7s3.9-1.7,3.9-3.7v-3C65.8,22.6,64,20.9,61.9,20.9z M63.2,27.7c0,0.6-0.6,1.1-1.3,1.1c-0.7,0-1.3-0.5-1.3-1.1v-3c0-0.6,0.6-1.1,1.3-1.1c0.7,0,1.3,0.5,1.3,1.1V27.7z"></path> <path class="st1" d="M61.9,47.1c-2.2,0-3.9,1.7-3.9,3.7v3c0,2.1,1.8,3.7,3.9,3.7s3.9-1.7,3.9-3.7v-3C65.8,48.8,64,47.1,61.9,47.1z M63.2,53.9c0,0.6-0.6,1.1-1.3,1.1c-0.7,0-1.3-0.5-1.3-1.1v-3c0-0.6,0.6-1.1,1.3-1.1c0.7,0,1.3,0.5,1.3,1.1V53.9z"></path> <path class="st1" d="M61.9,34c-2.2,0-3.9,1.7-3.9,3.7v3c0,2.1,1.8,3.7,3.9,3.7s3.9-1.7,3.9-3.7v-3C65.8,35.7,64,34,61.9,34z M63.2,40.8c0,0.6-0.6,1.1-1.3,1.1c-0.7,0-1.3-0.5-1.3-1.1v-3c0-0.6,0.6-1.1,1.3-1.1c0.7,0,1.3,0.5,1.3,1.1V40.8z"></path> <path class="st1" d="M61.9,60.3c-2.2,0-3.9,1.7-3.9,3.7v3c0,2.1,1.8,3.7,3.9,3.7s3.9-1.7,3.9-3.7v-3C65.8,61.9,64,60.3,61.9,60.3z M63.2,67c0,0.6-0.6,1.1-1.3,1.1c-0.7,0-1.3-0.5-1.3-1.1v-3c0-0.6,0.6-1.1,1.3-1.1c0.7,0,1.3,0.5,1.3,1.1V67z"></path> <path class="st1" d="M72.4,47.1c-2.2,0-3.9,1.7-3.9,3.7v3c0,2.1,1.8,3.7,3.9,3.7s3.9-1.7,3.9-3.7v-3 C76.3,48.8,74.5,47.1,72.4,47.1z M73.7,53.9c0,0.6-0.6,1.1-1.3,1.1c-0.7,0-1.3-0.5-1.3-1.1v-3c0-0.6,0.6-1.1,1.3-1.1 c0.7,0,1.3,0.5,1.3,1.1V53.9z"></path> <path class="st1" d="M82.9,73.4c-2.2,0-3.9,1.7-3.9,3.7v3c0,2.1,1.8,3.7,3.9,3.7s3.9-1.7,3.9-3.7v-3C86.8,75.1,85,73.4,82.9,73.4z M84.2,80.2c0,0.6-0.6,1.1-1.3,1.1c-0.7,0-1.3-0.5-1.3-1.1v-3c0-0.6,0.6-1.1,1.3-1.1c0.7,0,1.3,0.5,1.3,1.1V80.2z"></path> <path class="st1" d="M72.4,20.9c-2.2,0-3.9,1.7-3.9,3.7v3c0,2.1,1.8,3.7,3.9,3.7s3.9-1.7,3.9-3.7v-3 C76.3,22.6,74.5,20.9,72.4,20.9z M73.7,27.7c0,0.6-0.6,1.1-1.3,1.1c-0.7,0-1.3-0.5-1.3-1.1v-3c0-0.6,0.6-1.1,1.3-1.1 c0.7,0,1.3,0.5,1.3,1.1V27.7z"></path> <path class="st1" d="M73.7,43.2v-7.9c0-0.7-0.6-1.3-1.3-1.3c-0.7,0-1.3,0.6-1.3,1.3v7.9c0,0.7,0.6,1.3,1.3,1.3 C73.1,44.5,73.7,43.9,73.7,43.2z"></path> <path class="st1" d="M72.4,73.4c-2.2,0-3.9,1.7-3.9,3.7v3c0,2.1,1.8,3.7,3.9,3.7s3.9-1.7,3.9-3.7v-3 C76.3,75.1,74.5,73.4,72.4,73.4z M73.7,80.2c0,0.6-0.6,1.1-1.3,1.1c-0.7,0-1.3-0.5-1.3-1.1v-3c0-0.6,0.6-1.1,1.3-1.1 c0.7,0,1.3,0.5,1.3,1.1V80.2z"></path> <path class="st1" d="M42.2,43.2v-7.9c0-0.7-0.6-1.3-1.3-1.3c-0.7,0-1.3,0.6-1.3,1.3v7.9c0,0.7,0.6,1.3,1.3,1.3 C41.6,44.5,42.2,43.9,42.2,43.2z"></path> <path class="st1" d="M40.9,47.1c-2.2,0-3.9,1.7-3.9,3.7v3c0,2.1,1.8,3.7,3.9,3.7c2.2,0,3.9-1.7,3.9-3.7v-3 C44.8,48.8,43,47.1,40.9,47.1z M42.2,53.9c0,0.6-0.6,1.1-1.3,1.1c-0.7,0-1.3-0.5-1.3-1.1v-3c0-0.6,0.6-1.1,1.3-1.1 c0.7,0,1.3,0.5,1.3,1.1V53.9z"></path> <path class="st1" d="M40.9,73.4c-2.2,0-3.9,1.7-3.9,3.7v3c0,2.1,1.8,3.7,3.9,3.7c2.2,0,3.9-1.7,3.9-3.7v-3 C44.8,75.1,43,73.4,40.9,73.4z M42.2,80.2c0,0.6-0.6,1.1-1.3,1.1c-0.7,0-1.3-0.5-1.3-1.1v-3c0-0.6,0.6-1.1,1.3-1.1 c0.7,0,1.3,0.5,1.3,1.1V80.2z"></path> <path class="st1" d="M51.4,73.4c-2.2,0-3.9,1.7-3.9,3.7v3c0,2.1,1.8,3.7,3.9,3.7s3.9-1.7,3.9-3.7v-3 C55.3,75.1,53.5,73.4,51.4,73.4z M52.7,80.2c0,0.6-0.6,1.1-1.3,1.1s-1.3-0.5-1.3-1.1v-3c0-0.6,0.6-1.1,1.3-1.1s1.3,0.5,1.3,1.1 V80.2z"></path> <path class="st1" d="M42.2,69.5v-7.9c0-0.7-0.6-1.3-1.3-1.3c-0.7,0-1.3,0.6-1.3,1.3v7.9c0,0.7,0.6,1.3,1.3,1.3 C41.6,70.8,42.2,70.2,42.2,69.5z"></path> <path class="st1" d="M52.7,69.5v-7.9c0-0.7-0.6-1.3-1.3-1.3s-1.3,0.6-1.3,1.3v7.9c0,0.7,0.6,1.3,1.3,1.3S52.7,70.2,52.7,69.5z"></path> <path class="st1" d="M51.4,20.9c-2.2,0-3.9,1.7-3.9,3.7v3c0,2.1,1.8,3.7,3.9,3.7s3.9-1.7,3.9-3.7v-3 C55.3,22.6,53.5,20.9,51.4,20.9z M52.7,27.7c0,0.6-0.6,1.1-1.3,1.1s-1.3-0.5-1.3-1.1v-3c0-0.6,0.6-1.1,1.3-1.1s1.3,0.5,1.3,1.1 V27.7z"></path> <path class="st1" d="M51.4,34c-2.2,0-3.9,1.7-3.9,3.7v3c0,2.1,1.8,3.7,3.9,3.7s3.9-1.7,3.9-3.7v-3C55.3,35.7,53.5,34,51.4,34z M52.7,40.8c0,0.6-0.6,1.1-1.3,1.1s-1.3-0.5-1.3-1.1v-3c0-0.6,0.6-1.1,1.3-1.1s1.3,0.5,1.3,1.1V40.8z"></path> <path class="st1" d="M51.4,47.1c-2.2,0-3.9,1.7-3.9,3.7v3c0,2.1,1.8,3.7,3.9,3.7s3.9-1.7,3.9-3.7v-3 C55.3,48.8,53.5,47.1,51.4,47.1z M52.7,53.9c0,0.6-0.6,1.1-1.3,1.1s-1.3-0.5-1.3-1.1v-3c0-0.6,0.6-1.1,1.3-1.1s1.3,0.5,1.3,1.1 V53.9z"></path> <path class="st1" d="M61.9,73.4c-0.7,0-1.3,0.6-1.3,1.3v7.9c0,0.7,0.6,1.3,1.3,1.3c0.7,0,1.3-0.6,1.3-1.3v-7.9 C63.2,74,62.6,73.4,61.9,73.4z"></path> <path class="st1" d="M40.9,20.9c-2.2,0-3.9,1.7-3.9,3.7v3c0,2.1,1.8,3.7,3.9,3.7c2.2,0,3.9-1.7,3.9-3.7v-3 C44.8,22.6,43,20.9,40.9,20.9z M42.2,27.7c0,0.6-0.6,1.1-1.3,1.1c-0.7,0-1.3-0.5-1.3-1.1v-3c0-0.6,0.6-1.1,1.3-1.1 c0.7,0,1.3,0.5,1.3,1.1V27.7z"></path> <path class="st1" d="M93.4,47.1c-2.2,0-3.9,1.7-3.9,3.7v3c0,2.1,1.8,3.7,3.9,3.7s3.9-1.7,3.9-3.7v-3 C97.3,48.8,95.5,47.1,93.4,47.1z M94.7,53.9c0,0.6-0.6,1.1-1.3,1.1c-0.7,0-1.3-0.5-1.3-1.1v-3c0-0.6,0.6-1.1,1.3-1.1 c0.7,0,1.3,0.5,1.3,1.1V53.9z"></path> <path class="st1" d="M105.2,69.5v-7.9c0-0.7-0.6-1.3-1.3-1.3s-1.3,0.6-1.3,1.3v7.9c0,0.7,0.6,1.3,1.3,1.3S105.2,70.2,105.2,69.5z"></path> <path class="st1" d="M105.2,43.2v-7.9c0-0.7-0.6-1.3-1.3-1.3s-1.3,0.6-1.3,1.3v7.9c0,0.7,0.6,1.3,1.3,1.3S105.2,43.9,105.2,43.2z"></path> <path class="st1" d="M94.7,69.5v-7.9c0-0.7-0.6-1.3-1.3-1.3s-1.3,0.6-1.3,1.3v7.9c0,0.7,0.6,1.3,1.3,1.3S94.7,70.2,94.7,69.5z"></path> <path class="st1" d="M103.9,73.4c-2.2,0-3.9,1.7-3.9,3.7v3c0,2.1,1.8,3.7,3.9,3.7s3.9-1.7,3.9-3.7v-3 C107.8,75.1,106,73.4,103.9,73.4z M105.2,80.2c0,0.6-0.6,1.1-1.3,1.1c-0.7,0-1.3-0.5-1.3-1.1v-3c0-0.6,0.6-1.1,1.3-1.1 c0.7,0,1.3,0.5,1.3,1.1V80.2z"></path> <path class="st1" d="M93.4,34c-2.2,0-3.9,1.7-3.9,3.7v3c0,2.1,1.8,3.7,3.9,3.7s3.9-1.7,3.9-3.7v-3C97.3,35.7,95.5,34,93.4,34z M94.7,40.8c0,0.6-0.6,1.1-1.3,1.1c-0.7,0-1.3-0.5-1.3-1.1v-3c0-0.6,0.6-1.1,1.3-1.1c0.7,0,1.3,0.5,1.3,1.1V40.8z"></path> <path class="st1" d="M93.4,20.9c-2.2,0-3.9,1.7-3.9,3.7v3c0,2.1,1.8,3.7,3.9,3.7s3.9-1.7,3.9-3.7v-3 C97.3,22.6,95.5,20.9,93.4,20.9z M94.7,27.7c0,0.6-0.6,1.1-1.3,1.1c-0.7,0-1.3-0.5-1.3-1.1v-3c0-0.6,0.6-1.1,1.3-1.1 c0.7,0,1.3,0.5,1.3,1.1V27.7z"></path> <path class="st1" d="M93.4,73.4c-2.2,0-3.9,1.7-3.9,3.7v3c0,2.1,1.8,3.7,3.9,3.7s3.9-1.7,3.9-3.7v-3 C97.3,75.1,95.5,73.4,93.4,73.4z M94.7,80.2c0,0.6-0.6,1.1-1.3,1.1c-0.7,0-1.3-0.5-1.3-1.1v-3c0-0.6,0.6-1.1,1.3-1.1 c0.7,0,1.3,0.5,1.3,1.1V80.2z"></path> <path class="st1" d="M103.9,47.1c-2.2,0-3.9,1.7-3.9,3.7v3c0,2.1,1.8,3.7,3.9,3.7s3.9-1.7,3.9-3.7v-3 C107.8,48.8,106,47.1,103.9,47.1z M105.2,53.9c0,0.6-0.6,1.1-1.3,1.1c-0.7,0-1.3-0.5-1.3-1.1v-3c0-0.6,0.6-1.1,1.3-1.1 c0.7,0,1.3,0.5,1.3,1.1V53.9z"></path> <path class="st1" d="M82.9,34c-2.2,0-3.9,1.7-3.9,3.7v3c0,2.1,1.8,3.7,3.9,3.7s3.9-1.7,3.9-3.7v-3C86.8,35.7,85,34,82.9,34z M84.2,40.8c0,0.6-0.6,1.1-1.3,1.1c-0.7,0-1.3-0.5-1.3-1.1v-3c0-0.6,0.6-1.1,1.3-1.1c0.7,0,1.3,0.5,1.3,1.1V40.8z"></path> <path class="st1" d="M82.9,47.1c-2.2,0-3.9,1.7-3.9,3.7v3c0,2.1,1.8,3.7,3.9,3.7s3.9-1.7,3.9-3.7v-3C86.8,48.8,85,47.1,82.9,47.1z M84.2,53.9c0,0.6-0.6,1.1-1.3,1.1c-0.7,0-1.3-0.5-1.3-1.1v-3c0-0.6,0.6-1.1,1.3-1.1c0.7,0,1.3,0.5,1.3,1.1V53.9z"></path> <path class="st1" d="M82.9,20.9c-2.2,0-3.9,1.7-3.9,3.7v3c0,2.1,1.8,3.7,3.9,3.7s3.9-1.7,3.9-3.7v-3C86.8,22.6,85,20.9,82.9,20.9z M84.2,27.7c0,0.6-0.6,1.1-1.3,1.1c-0.7,0-1.3-0.5-1.3-1.1v-3c0-0.6,0.6-1.1,1.3-1.1c0.7,0,1.3,0.5,1.3,1.1V27.7z"></path> <path class="st1" d="M103.9,20.9c-2.2,0-3.9,1.7-3.9,3.7v3c0,2.1,1.8,3.7,3.9,3.7s3.9-1.7,3.9-3.7v-3 C107.8,22.6,106,20.9,103.9,20.9z M105.2,27.7c0,0.6-0.6,1.1-1.3,1.1c-0.7,0-1.3-0.5-1.3-1.1v-3c0-0.6,0.6-1.1,1.3-1.1 c0.7,0,1.3,0.5,1.3,1.1V27.7z"></path> </g> <g> <path class="st1" d="M61.9,86.7c-2.2,0-3.9,1.7-3.9,3.7v3c0,2.1,1.8,3.7,3.9,3.7s3.9-1.7,3.9-3.7v-3C65.8,88.4,64,86.7,61.9,86.7z M63.2,93.5c0,0.6-0.6,1.1-1.3,1.1c-0.7,0-1.3-0.5-1.3-1.1v-3c0-0.6,0.6-1.1,1.3-1.1c0.7,0,1.3,0.5,1.3,1.1V93.5z"></path> <path class="st1" d="M61.9,113c-2.2,0-3.9,1.7-3.9,3.7v3c0,2.1,1.8,3.7,3.9,3.7s3.9-1.7,3.9-3.7v-3C65.8,114.6,64,113,61.9,113z M63.2,119.8c0,0.6-0.6,1.1-1.3,1.1c-0.7,0-1.3-0.5-1.3-1.1v-3c0-0.6,0.6-1.1,1.3-1.1c0.7,0,1.3,0.5,1.3,1.1V119.8z"></path> <path class="st1" d="M61.9,99.9c-2.2,0-3.9,1.7-3.9,3.7v3c0,2.1,1.8,3.7,3.9,3.7s3.9-1.7,3.9-3.7v-3C65.8,101.5,64,99.9,61.9,99.9 z M63.2,106.6c0,0.6-0.6,1.1-1.3,1.1c-0.7,0-1.3-0.5-1.3-1.1v-3c0-0.6,0.6-1.1,1.3-1.1c0.7,0,1.3,0.5,1.3,1.1V106.6z"></path> <path class="st1" d="M72.4,113c-2.2,0-3.9,1.7-3.9,3.7v3c0,2.1,1.8,3.7,3.9,3.7s3.9-1.7,3.9-3.7v-3C76.3,114.6,74.5,113,72.4,113z M73.7,119.8c0,0.6-0.6,1.1-1.3,1.1c-0.7,0-1.3-0.5-1.3-1.1v-3c0-0.6,0.6-1.1,1.3-1.1c0.7,0,1.3,0.5,1.3,1.1V119.8z"></path> <path class="st1" d="M72.4,86.7c-2.2,0-3.9,1.7-3.9,3.7v3c0,2.1,1.8,3.7,3.9,3.7s3.9-1.7,3.9-3.7v-3 C76.3,88.4,74.5,86.7,72.4,86.7z M73.7,93.5c0,0.6-0.6,1.1-1.3,1.1c-0.7,0-1.3-0.5-1.3-1.1v-3c0-0.6,0.6-1.1,1.3-1.1 c0.7,0,1.3,0.5,1.3,1.1V93.5z"></path> <path class="st1" d="M73.7,109v-7.9c0-0.7-0.6-1.3-1.3-1.3c-0.7,0-1.3,0.6-1.3,1.3v7.9c0,0.7,0.6,1.3,1.3,1.3 C73.1,110.4,73.7,109.8,73.7,109z"></path> <path class="st1" d="M42.2,109v-7.9c0-0.7-0.6-1.3-1.3-1.3c-0.7,0-1.3,0.6-1.3,1.3v7.9c0,0.7,0.6,1.3,1.3,1.3 C41.6,110.4,42.2,109.8,42.2,109z"></path> <path class="st1" d="M40.9,113c-2.2,0-3.9,1.7-3.9,3.7v3c0,2.1,1.8,3.7,3.9,3.7c2.2,0,3.9-1.7,3.9-3.7v-3 C44.8,114.6,43,113,40.9,113z M42.2,119.8c0,0.6-0.6,1.1-1.3,1.1c-0.7,0-1.3-0.5-1.3-1.1v-3c0-0.6,0.6-1.1,1.3-1.1 c0.7,0,1.3,0.5,1.3,1.1V119.8z"></path> <path class="st1" d="M51.4,86.7c-2.2,0-3.9,1.7-3.9,3.7v3c0,2.1,1.8,3.7,3.9,3.7s3.9-1.7,3.9-3.7v-3 C55.3,88.4,53.5,86.7,51.4,86.7z M52.7,93.5c0,0.6-0.6,1.1-1.3,1.1s-1.3-0.5-1.3-1.1v-3c0-0.6,0.6-1.1,1.3-1.1s1.3,0.5,1.3,1.1 V93.5z"></path> <path class="st1" d="M51.4,99.9c-2.2,0-3.9,1.7-3.9,3.7v3c0,2.1,1.8,3.7,3.9,3.7s3.9-1.7,3.9-3.7v-3 C55.3,101.5,53.5,99.9,51.4,99.9z M52.7,106.6c0,0.6-0.6,1.1-1.3,1.1s-1.3-0.5-1.3-1.1v-3c0-0.6,0.6-1.1,1.3-1.1s1.3,0.5,1.3,1.1 V106.6z"></path> <path class="st1" d="M51.4,113c-2.2,0-3.9,1.7-3.9,3.7v3c0,2.1,1.8,3.7,3.9,3.7s3.9-1.7,3.9-3.7v-3C55.3,114.6,53.5,113,51.4,113z M52.7,119.8c0,0.6-0.6,1.1-1.3,1.1s-1.3-0.5-1.3-1.1v-3c0-0.6,0.6-1.1,1.3-1.1s1.3,0.5,1.3,1.1V119.8z"></path> <path class="st1" d="M40.9,86.7c-2.2,0-3.9,1.7-3.9,3.7v3c0,2.1,1.8,3.7,3.9,3.7c2.2,0,3.9-1.7,3.9-3.7v-3 C44.8,88.4,43,86.7,40.9,86.7z M42.2,93.5c0,0.6-0.6,1.1-1.3,1.1c-0.7,0-1.3-0.5-1.3-1.1v-3c0-0.6,0.6-1.1,1.3-1.1 c0.7,0,1.3,0.5,1.3,1.1V93.5z"></path> <path class="st1" d="M93.4,113c-2.2,0-3.9,1.7-3.9,3.7v3c0,2.1,1.8,3.7,3.9,3.7s3.9-1.7,3.9-3.7v-3C97.3,114.6,95.5,113,93.4,113z M94.7,119.8c0,0.6-0.6,1.1-1.3,1.1c-0.7,0-1.3-0.5-1.3-1.1v-3c0-0.6,0.6-1.1,1.3-1.1c0.7,0,1.3,0.5,1.3,1.1V119.8z"></path> <path class="st1" d="M105.2,109v-7.9c0-0.7-0.6-1.3-1.3-1.3s-1.3,0.6-1.3,1.3v7.9c0,0.7,0.6,1.3,1.3,1.3S105.2,109.8,105.2,109z"></path> <path class="st1" d="M93.4,99.9c-2.2,0-3.9,1.7-3.9,3.7v3c0,2.1,1.8,3.7,3.9,3.7s3.9-1.7,3.9-3.7v-3 C97.3,101.5,95.5,99.9,93.4,99.9z M94.7,106.6c0,0.6-0.6,1.1-1.3,1.1c-0.7,0-1.3-0.5-1.3-1.1v-3c0-0.6,0.6-1.1,1.3-1.1 c0.7,0,1.3,0.5,1.3,1.1V106.6z"></path> <path class="st1" d="M93.4,86.7c-2.2,0-3.9,1.7-3.9,3.7v3c0,2.1,1.8,3.7,3.9,3.7s3.9-1.7,3.9-3.7v-3 C97.3,88.4,95.5,86.7,93.4,86.7z M94.7,93.5c0,0.6-0.6,1.1-1.3,1.1c-0.7,0-1.3-0.5-1.3-1.1v-3c0-0.6,0.6-1.1,1.3-1.1 c0.7,0,1.3,0.5,1.3,1.1V93.5z"></path> <path class="st1" d="M103.9,113c-2.2,0-3.9,1.7-3.9,3.7v3c0,2.1,1.8,3.7,3.9,3.7s3.9-1.7,3.9-3.7v-3 C107.8,114.6,106,113,103.9,113z M105.2,119.8c0,0.6-0.6,1.1-1.3,1.1c-0.7,0-1.3-0.5-1.3-1.1v-3c0-0.6,0.6-1.1,1.3-1.1 c0.7,0,1.3,0.5,1.3,1.1V119.8z"></path> <path class="st1" d="M82.9,99.9c-2.2,0-3.9,1.7-3.9,3.7v3c0,2.1,1.8,3.7,3.9,3.7s3.9-1.7,3.9-3.7v-3C86.8,101.5,85,99.9,82.9,99.9 z M84.2,106.6c0,0.6-0.6,1.1-1.3,1.1c-0.7,0-1.3-0.5-1.3-1.1v-3c0-0.6,0.6-1.1,1.3-1.1c0.7,0,1.3,0.5,1.3,1.1V106.6z"></path> <path class="st1" d="M82.9,113c-2.2,0-3.9,1.7-3.9,3.7v3c0,2.1,1.8,3.7,3.9,3.7s3.9-1.7,3.9-3.7v-3C86.8,114.6,85,113,82.9,113z M84.2,119.8c0,0.6-0.6,1.1-1.3,1.1c-0.7,0-1.3-0.5-1.3-1.1v-3c0-0.6,0.6-1.1,1.3-1.1c0.7,0,1.3,0.5,1.3,1.1V119.8z"></path> <path class="st1" d="M82.9,86.7c-2.2,0-3.9,1.7-3.9,3.7v3c0,2.1,1.8,3.7,3.9,3.7s3.9-1.7,3.9-3.7v-3C86.8,88.4,85,86.7,82.9,86.7z M84.2,93.5c0,0.6-0.6,1.1-1.3,1.1c-0.7,0-1.3-0.5-1.3-1.1v-3c0-0.6,0.6-1.1,1.3-1.1c0.7,0,1.3,0.5,1.3,1.1V93.5z"></path> <path class="st1" d="M103.9,86.7c-2.2,0-3.9,1.7-3.9,3.7v3c0,2.1,1.8,3.7,3.9,3.7s3.9-1.7,3.9-3.7v-3 C107.8,88.4,106,86.7,103.9,86.7z M105.2,93.5c0,0.6-0.6,1.1-1.3,1.1c-0.7,0-1.3-0.5-1.3-1.1v-3c0-0.6,0.6-1.1,1.3-1.1 c0.7,0,1.3,0.5,1.3,1.1V93.5z"></path> </g> </g> </svg> 