<?xml version="1.0" encoding="UTF-8"?> <!-- Generator: Adobe Illustrator 24.1.2, SVG Export Plug-In . SVG Version: 6.00 Build 0) --> <svg xmlns="http://www.w3.org/2000/svg" xmlns:xlink="http://www.w3.org/1999/xlink" version="1.1" id="Layer_1" x="0px" y="0px" viewBox="0 0 370 180" style="enable-background:new 0 0 370 180;" xml:space="preserve"> <style type="text/css"> .st0{fill:#515758;} .st1{fill:#FFC630;} </style> <g> <g> <path class="st0" d="M145.3,107.7c11.9-6.3,25.4-9.9,39.9-9.9c14.5,0,28,3.7,39.8,10l54.6-82.7C251.9,9.1,219.7-0.2,185.2-0.2 c-34.5,0-66.8,9.3-94.4,25.3L145.3,107.7z"></path> <path class="st0" d="M8.4,178.4h81.8c13.7,0,11.3-8.7,13-14.9c3.9-20.4,15.9-38,32.5-49.9L81.1,30.9 c-46.3,30.6-77.5,81-80.4,138.6C0.8,174.5,3.2,178.4,8.4,178.4"></path> <path class="st0" d="M361.9,178.4h-81.8c-13.7,0-11.3-8.7-13-14.9c-3.9-20.4-15.9-38-32.5-49.9l54.6-82.8 c46.3,30.6,77.5,81,80.4,138.6C369.5,174.5,367.1,178.4,361.9,178.4"></path> </g> <g> <path class="st0" d="M186.6,176.5c-10.3,0-18.6-8.4-18.6-18.6c0-10.2,8.2-18.5,18.4-18.6c5.3-0.7,116.6-14.8,121.9-15.5 c0.6-0.1,1.2-0.1,1.7-0.1c4.1,0,5,2.3,5.2,3.3c0.3,1.6-0.3,3.9-4.6,5.5c-4,1.5-112.2,40.9-116.3,42.4 C191.8,175.9,189.2,176.5,186.6,176.5z"></path> <path class="st1" d="M310,126.8c2.7,0,3,1.4-0.6,2.7c-3.8,1.4-100.5,36.6-116.4,42.4c-2,0.9-4.1,1.4-6.5,1.4 c-8.5,0-15.5-6.9-15.5-15.5c0-8.5,6.9-15.5,15.5-15.5c0,0,116.6-14.8,122.1-15.5C309.1,126.8,309.6,126.8,310,126.8 M310,120.4 c-0.7,0-1.4,0-2.1,0.1c-5.3,0.7-114.5,14.5-121.7,15.5c-11.8,0.2-21.3,9.9-21.3,21.8c0,12,9.8,21.8,21.8,21.8c3.1,0,6-0.6,8.8-1.9 c19.3-7,112.5-40.9,116.3-42.4c7-2.7,6.9-7.2,6.6-9C317.8,123.5,315.3,120.4,310,120.4L310,120.4z"></path> </g> </g> </svg> 