<?xml version="1.0" encoding="UTF-8"?> <!-- Generator: Adobe Illustrator 24.1.2, SVG Export Plug-In . SVG Version: 6.00 Build 0) --> <svg xmlns="http://www.w3.org/2000/svg" xmlns:xlink="http://www.w3.org/1999/xlink" version="1.1" id="Layer_1" x="0px" y="0px" viewBox="0 0 145 145" style="enable-background:new 0 0 145 145;" xml:space="preserve"> <style type="text/css"> .st0{fill:#FFFFFF;} .st1{fill:#515758;} </style> <g> <circle class="st0" cx="72.5" cy="72.5" r="72.5"></circle> <g> <g> <path class="st1" d="M72.5,114.8c-23.7,0-42.9-19.3-42.9-42.9S48.8,29,72.5,29s42.9,19.3,42.9,42.9S96.2,114.8,72.5,114.8z M72.5,35.9c-19.8,0-36,16.1-36,36s16.1,36,36,36s36-16.1,36-36S92.3,35.9,72.5,35.9z"></path> </g> <g> <path class="st1" d="M72.5,49.4c-1.9,0-3.5-1.6-3.5-3.5V23.2c0-1.9,1.6-3.5,3.5-3.5s3.5,1.6,3.5,3.5v22.8 C76,47.9,74.4,49.4,72.5,49.4z"></path> </g> <g> <path class="st1" d="M46.4,75.4H23.8c-1.9,0-3.5-1.6-3.5-3.5c0-1.9,1.6-3.5,3.5-3.5h22.6c1.9,0,3.5,1.6,3.5,3.5 C49.9,73.8,48.3,75.4,46.4,75.4z"></path> </g> <g> <path class="st1" d="M72.5,124.1c-1.9,0-3.5-1.6-3.5-3.5V97.8c0-1.9,1.6-3.5,3.5-3.5s3.5,1.6,3.5,3.5v22.8 C76,122.5,74.4,124.1,72.5,124.1z"></path> </g> <g> <path class="st1" d="M121.2,75.4H98.4c-1.9,0-3.5-1.6-3.5-3.5c0-1.9,1.6-3.5,3.5-3.5h22.8c1.9,0,3.5,1.6,3.5,3.5 C124.7,73.8,123.1,75.4,121.2,75.4z"></path> </g> <path class="st1" d="M72.4,70.7c4.5,0,8.1-3.7,8.1-8.2s-3.7-8.2-8.1-8.2s-8.1,3.7-8.1,8.2S67.9,70.7,72.4,70.7z"></path> <path class="st1" d="M58.8,89.4H86c0.3,0,0.5-0.2,0.5-0.5c0-9.1-6.3-16.4-14.1-16.4c-7.8,0-14.1,7.4-14.1,16.4 C58.3,89.2,58.5,89.4,58.8,89.4z"></path> </g> </g> </svg> 