<?xml version="1.0" encoding="UTF-8"?> <!-- Generator: Adobe Illustrator 24.1.2, SVG Export Plug-In . SVG Version: 6.00 Build 0) --> <svg xmlns="http://www.w3.org/2000/svg" xmlns:xlink="http://www.w3.org/1999/xlink" version="1.1" id="Layer_1" x="0px" y="0px" viewBox="0 0 145 145" style="enable-background:new 0 0 145 145;" xml:space="preserve"> <style type="text/css"> .st0{fill:#FFFFFF;} .st1{fill:#515758;} </style> <g> <circle class="st0" cx="72.5" cy="72.5" r="72.5"></circle> <g> <g> <path class="st1" d="M72.5,84.1c-3,0-6-0.4-8.8-1.2L39,75.5v16.9c0,3.1,2,5.7,5,6.6l10.8,3.2c11.9,3.5,24.5,3.5,36.4,0l10.8-3.2 c3-0.9,5-3.5,5-6.6V75.2l-25.6,7.6C78.4,83.7,75.5,84.1,72.5,84.1z"></path> <path class="st1" d="M122.6,56.7L79.1,43.8c-4.3-1.3-8.9-1.3-13.3,0L22.4,56.7c-3,0.9-3,5.2,0,6.1l43.5,12.9 c4.3,1.3,8.9,1.3,13.3,0l37.2-11v9.8c-0.8,0.4-1.3,1.2-1.3,2.1v2.6c0,1,0.6,1.9,1.4,2.2l-2.3,5.4c-0.3,0.8,0.1,1.5,1,1.7l2.4,0.2 c0.4,0,1,0,1.4,0l2.4-0.2c0.8-0.1,1.2-0.9,1-1.7l-2.3-5.4c0.9-0.4,1.4-1.2,1.4-2.2v-2.6c0-0.9-0.6-1.7-1.3-2.1V63.6l2.4-0.8 C125.6,61.8,125.6,57.6,122.6,56.7z"></path> </g> </g> </g> </svg> 