<?xml version="1.0" encoding="UTF-8"?> <!-- Generator: Adobe Illustrator 24.1.2, SVG Export Plug-In . SVG Version: 6.00 Build 0) --> <svg xmlns="http://www.w3.org/2000/svg" xmlns:xlink="http://www.w3.org/1999/xlink" version="1.1" id="Layer_1" x="0px" y="0px" viewBox="0 0 780 730" style="enable-background:new 0 0 780 730;" xml:space="preserve"> <style type="text/css"> .st0{fill:#FFFFFF;} .st1{fill:#525758;} .st2{font-family:'Montserrat-Bold';} .st3{font-size:25.9855px;} .st4{font-size:22.9871px;} .st5{fill:#4C575A;} .st6{fill:#FEC340;} .st7{fill:#4D585A;} .st8{fill:#FCC433;} .st9{font-size:43.7516px;} </style> <g> <g> <path class="st0" d="M386.1,461.5c69,0,124.9-55.9,124.9-124.9c0-69-55.9-124.9-124.9-124.9s-124.9,55.9-124.9,124.9 C261.1,405.6,317.1,461.5,386.1,461.5"></path> <path class="st1" d="M386.1,608.7c-72.7,0-141-28.3-192.4-79.7c-51.4-51.4-79.7-119.7-79.7-192.4c0-72.7,28.3-141,79.7-192.4 C245,92.8,313.4,64.5,386.1,64.5s141,28.3,192.4,79.7c51.4,51.4,79.7,119.7,79.7,192.4c0,72.7-28.3,141-79.7,192.4 C527.1,580.4,458.8,608.7,386.1,608.7z M386.1,116.5c-58.8,0-114.1,22.9-155.6,64.5c-41.6,41.6-64.5,96.9-64.5,155.6 s22.9,114.1,64.5,155.6c41.6,41.6,96.9,64.5,155.6,64.5c58.8,0,114.1-22.9,155.6-64.5c41.6-41.6,64.5-96.9,64.5-155.6 c0-58.8-22.9-114.1-64.5-155.6C500.1,139.4,444.9,116.5,386.1,116.5z"></path> </g> <g> <g> <rect x="347.8" y="480" class="st1" width="76.5" height="141.4"></rect> <polygon class="st1" points="386.1,444.2 330.7,480 441.5,480 "></polygon> </g> </g> <g> <g> <rect x="441.2" y="125.2" transform="matrix(0.5878 -0.809 0.809 0.5878 78.7986 481.5028)" class="st1" width="141.4" height="76.5"></rect> <polygon class="st1" points="449.3,249.6 515.1,253.2 425.5,188.1 "></polygon> </g> </g> <g> <g> <rect x="111.8" y="364.5" transform="matrix(0.9511 -0.309 0.309 0.9511 -115.5304 76.1106)" class="st1" width="141.4" height="76.5"></rect> <polygon class="st1" points="283.8,369.8 232.6,328.2 266.8,433.6 "></polygon> </g> </g> <g> <g> <rect x="554.6" y="321.3" transform="matrix(0.2588 -0.9659 0.9659 0.2588 60.7587 863.1884)" class="st1" width="76.5" height="141.4"></rect> <polygon class="st1" points="490,364.4 510.2,427.2 538.9,320.2 "></polygon> </g> </g> <g> <g> <text transform="matrix(1 0 0 1 314.2892 367.7108)"><tspan x="0" y="0" class="st1 st2 st3">Dynamic &amp;</tspan><tspan x="4.2" y="31.2" class="st1 st2 st3">Predictive</tspan></text> </g> </g> <g> <g> <rect x="222" y="92.7" transform="matrix(0.809 -0.5878 0.5878 0.809 -46.3564 184.1901)" class="st1" width="76.5" height="141.4"></rect> <polygon class="st1" points="322.9,249.6 346.6,188.1 257,253.2 "></polygon> </g> </g> <g> <path class="st0" d="M549.2,199.9c55.2,0,99.9-44.7,99.9-99.9c0-55.2-44.7-99.9-99.9-99.9s-99.9,44.7-99.9,99.9 C449.3,155.1,494,199.9,549.2,199.9"></path> <text transform="matrix(1 0 0 1 510.0905 156.0335)" class="st1 st2 st4">People</text> </g> <g> <path class="st0" d="M220.6,199.9c55.2,0,99.9-44.7,99.9-99.9c0-55.2-44.7-99.9-99.9-99.9s-99.9,44.7-99.9,99.9 C120.7,155.1,165.4,199.9,220.6,199.9"></path> <text transform="matrix(1 0 0 1 171.9337 156.0335)" class="st1 st2 st4">Budget</text> </g> <g> <path class="st0" d="M678.8,494.5c55.2,0,99.9-44.7,99.9-99.9c0-55.2-44.7-99.9-99.9-99.9c-55.2,0-99.9,44.7-99.9,99.9 C578.8,449.7,623.6,494.5,678.8,494.5"></path> <text transform="matrix(1 0 0 1 630.3629 450.6092)" class="st1 st2 st4">Systems</text> </g> <g> <path class="st0" d="M386.1,730c55.2,0,99.9-44.7,99.9-99.9c0-55.2-44.7-99.9-99.9-99.9s-99.9,44.7-99.9,99.9 C286.1,685.3,330.9,730,386.1,730"></path> <text transform="matrix(1 0 0 1 357.902 686.1473)" class="st1 st2 st4">Data</text> </g> <g> <path class="st0" d="M99.9,494.5c55.2,0,99.9-44.7,99.9-99.9c0-55.2-44.7-99.9-99.9-99.9S0,339.3,0,394.5 C0,449.7,44.7,494.5,99.9,494.5"></path> <text transform="matrix(1 0 0 1 30.8693 450.6092)" class="st1 st2 st4">Technology</text> </g> <g> <path class="st5" d="M415.6,290.6l-31.3,35.6c-1.1,1.2-2.6,2-4.2,2h-0.2c-1.5,0-3-0.6-4.1-1.7l-19.1-19.2c-2.2-2.2-2.2-5.9,0-8.1 c2.2-2.2,5.9-2.2,8.1,0l14.9,14.9L407,283c2.1-2.5,5.8-2.6,8.1-0.5C417.6,284.6,417.8,288.2,415.6,290.6"></path> </g> <g> <path class="st6" d="M593.7,66.8c-1.7,0-3-1.4-3-3c0-1.7,1.4-3,3-3c1.7,0,3,1.4,3,3C596.7,65.4,595.4,66.8,593.7,66.8"></path> <path class="st5" d="M593.7,59.4c-2.4,0-4.3,1.9-4.3,4.3c0,2.4,1.9,4.3,4.3,4.3c2.4,0,4.3-1.9,4.3-4.3 C598.1,61.4,596.1,59.4,593.7,59.4 M593.7,62c1,0,1.7,0.8,1.7,1.7s-0.8,1.7-1.7,1.7c-1,0-1.7-0.8-1.7-1.7S592.8,62,593.7,62"></path> <path class="st6" d="M593.5,84.1c-1.4,0-2.6-1.2-2.6-2.6l-0.3-5.2c-0.8-0.5-1.3-1.5-1.3-2.6V70c0-1.7,1.4-3.1,3.1-3.1l2.6,0 c1.7,0,3.1,1.4,3.1,3.1v3.6c0,1.2-0.5,2.1-1.3,2.6l-0.3,5.2c0,1.4-1.2,2.6-2.6,2.6H593.5z"></path> <path class="st5" d="M595,65.6L595,65.6h-2.6c-2.4,0-4.4,2-4.4,4.4v3.6c0,1.4,0.5,2.5,1.3,3.3l0.3,4.6c0.1,2.1,1.8,3.8,3.9,3.8 h0.3c2.1,0,3.9-1.7,3.9-3.8l0.3-4.6c0.8-0.8,1.3-1.9,1.3-3.3V70C599.4,67.6,597.5,65.7,595,65.6L595,65.6z M595,68.2 c1,0,1.8,0.8,1.8,1.8v3.6c0,0.9-0.4,1.6-1.2,1.8l-0.4,6c0,0.7-0.6,1.3-1.3,1.3h-0.3c-0.7,0-1.3-0.6-1.3-1.3l-0.4-6 c-0.9-0.2-1.2-0.9-1.2-1.8V70c0-1,0.8-1.8,1.8-1.8H595z"></path> <path class="st6" d="M584,64.6c-2.4,0-4.4-2-4.4-4.4c0-2.4,2-4.4,4.4-4.4c2.4,0,4.4,2,4.4,4.4C588.3,62.6,586.4,64.6,584,64.6"></path> <path class="st5" d="M584,54.6c-3.1,0-5.7,2.5-5.7,5.7c0,3.1,2.5,5.7,5.7,5.7c3.1,0,5.7-2.5,5.7-5.7 C589.6,57.1,587.1,54.6,584,54.6 M584,57.2c1.7,0,3,1.4,3,3c0,1.7-1.4,3-3,3c-1.7,0-3-1.4-3-3C580.9,58.5,582.3,57.2,584,57.2"></path> <path class="st6" d="M583.7,93.8c-2,0-3.6-1.6-3.6-3.6l-0.6-9.7c-1.4-0.7-2.2-2.1-2.2-4V70c0-2.5,2-4.5,4.5-4.5h4.5 c2.5,0.1,4.4,2,4.4,4.5v6.4c0,1.9-0.8,3.4-2.2,4l-0.6,9.7c0,2-1.6,3.6-3.6,3.6H583.7z"></path> <path class="st5" d="M586.2,64.3L586.2,64.3h-4.5c-3.2,0-5.8,2.6-5.8,5.8v6.4c0,2.1,0.8,3.8,2.2,4.8l0.6,9c0,2.7,2.2,4.8,4.9,4.8 h0.6c2.7,0,4.9-2.1,4.9-4.8l0.6-9c1.4-1,2.2-2.7,2.2-4.8v-6.4C592,66.9,589.5,64.3,586.2,64.3L586.2,64.3z M586.2,66.9 c1.7,0,3.1,1.5,3.1,3.2v6.4c0,1.5-0.6,2.8-2.1,3.1l-0.7,10.6c0,1.3-1,2.3-2.3,2.3h-0.6c-1.3,0-2.3-1.1-2.3-2.3l-0.7-10.6 c-1.5-0.3-2.1-1.6-2.1-3.1V70c0-1.7,1.4-3.1,3.1-3.1H586.2z"></path> <path class="st6" d="M568.7,59.2c-3.4,0-6.2-2.8-6.2-6.2c0-3.4,2.8-6.2,6.2-6.2c3.4,0,6.2,2.8,6.2,6.2 C574.9,56.4,572.1,59.2,568.7,59.2"></path> <path class="st5" d="M568.7,45.5c-4.1,0-7.5,3.4-7.5,7.5s3.4,7.5,7.5,7.5s7.5-3.4,7.5-7.5S572.9,45.5,568.7,45.5 M568.7,48.1 c2.7,0,4.9,2.2,4.9,4.9c0,2.7-2.2,4.9-4.9,4.9s-4.9-2.2-4.9-4.9C563.9,50.3,566,48.1,568.7,48.1"></path> <path class="st6" d="M568.2,104.2c-2.7,0-4.9-2.2-4.9-5l-1-16c-2.2-0.9-3.5-3-3.5-5.9V67c0-3.5,2.8-6.3,6.3-6.3h7.1 c3.5,0.1,6.3,2.9,6.3,6.4v10.2c0,2.9-1.3,5.1-3.5,5.9l-1,16c0,2.8-2.2,5-5,5H568.2z"></path> <path class="st5" d="M572.3,59.4L572.3,59.4h-7.1c-4.2,0-7.6,3.4-7.6,7.6v10.2c0,3.1,1.3,5.6,3.5,6.8l0.9,15.2 c0,3.4,2.8,6.2,6.2,6.2h0.9c3.5,0,6.3-2.7,6.3-6.2l0.9-15.2c2.2-1.2,3.5-3.7,3.5-6.8V67.1c0-2-0.8-4-2.2-5.4 C576.3,60.3,574.4,59.5,572.3,59.4L572.3,59.4z M572.3,62c2.8,0.1,5,2.3,5,5.1v10.2c0,2.4-1,4.5-3.4,4.9l-1,16.9 c0,2.1-1.6,3.7-3.7,3.7h-0.9c-2,0-3.6-1.7-3.6-3.7l-1-17c-2.4-0.5-3.4-2.6-3.4-4.9V67c0-2.8,2.2-5,5-5H572.3z"></path> <path class="st6" d="M504.8,66.8c-1.7,0-3-1.4-3-3c0-1.7,1.4-3,3-3s3,1.4,3,3C507.8,65.4,506.4,66.8,504.8,66.8"></path> <path class="st5" d="M504.8,59.4c-2.4,0-4.3,1.9-4.3,4.3c0,2.4,1.9,4.3,4.3,4.3c2.4,0,4.3-1.9,4.3-4.3 C509.1,61.4,507.2,59.4,504.8,59.4 M504.8,62c1,0,1.7,0.8,1.7,1.7s-0.8,1.7-1.7,1.7s-1.7-0.8-1.7-1.7S503.8,62,504.8,62"></path> <path class="st6" d="M504.6,84.1c-1.5,0-2.6-1.1-2.6-2.6l-0.3-5.2c-0.8-0.5-1.3-1.5-1.3-2.6V70c0-1.7,1.3-3.1,3.1-3.1l2.6,0 c1.7,0,3.1,1.4,3.1,3.1v3.6c0,1.2-0.5,2.1-1.3,2.6l-0.3,5.2c0,1.4-1.2,2.6-2.6,2.6H504.6z"></path> <path class="st5" d="M506,65.6h-2.5h0l0,0c-2.4,0.1-4.3,2-4.3,4.4v3.6c0,1.3,0.5,2.5,1.3,3.3l0.3,4.6c0.1,2.1,1.8,3.8,3.9,3.8h0.3 c2.1,0,3.8-1.7,3.9-3.8l0.3-4.6c0.8-0.8,1.3-1.9,1.3-3.3V70C510.4,67.6,508.5,65.6,506,65.6 M506,68.2c1,0,1.8,0.8,1.8,1.8v3.6 c0,0.9-0.4,1.6-1.2,1.8l-0.4,6c0,0.7-0.6,1.3-1.3,1.3h-0.3c-0.7,0-1.3-0.6-1.3-1.3l-0.4-6c-0.9-0.2-1.2-0.9-1.2-1.8V70 c0-1,0.8-1.8,1.8-1.8H506z"></path> <path class="st6" d="M514.5,64.6c-2.4,0-4.4-2-4.4-4.4c0-2.4,2-4.4,4.4-4.4c2.4,0,4.4,2,4.4,4.4C518.9,62.6,516.9,64.6,514.5,64.6 "></path> <path class="st5" d="M514.5,54.6c-3.1,0-5.7,2.5-5.7,5.7c0,3.1,2.5,5.7,5.7,5.7c3.1,0,5.7-2.5,5.7-5.7 C520.2,57.1,517.6,54.6,514.5,54.6 M514.5,57.2c1.7,0,3,1.4,3,3c0,1.7-1.4,3-3,3c-1.7,0-3-1.4-3-3 C511.5,58.5,512.8,57.2,514.5,57.2"></path> <path class="st6" d="M514.2,93.8c-2,0-3.6-1.6-3.6-3.6l-0.6-9.7c-1.4-0.7-2.2-2.1-2.2-4v-6.4c0-2.5,1.9-4.4,4.4-4.5h4.5 c2.5,0,4.5,2,4.5,4.5v6.4c0,1.9-0.8,3.4-2.2,4l-0.6,9.7c0,2-1.6,3.6-3.6,3.6H514.2z"></path> <path class="st5" d="M516.7,64.3h-4.5h0l0,0c-3.2,0.1-5.7,2.6-5.7,5.8v6.4c0,2.1,0.8,3.8,2.2,4.8l0.6,9c0,2.7,2.2,4.8,4.9,4.8h0.6 c2.7,0,4.8-2.2,4.9-4.8l0.6-9c1.4-1,2.2-2.7,2.2-4.8V70C522.5,66.8,519.9,64.3,516.7,64.3 M516.7,66.9c1.7,0,3.1,1.4,3.1,3.1v6.4 c0,1.5-0.6,2.8-2.1,3.1l-0.7,10.6c0,1.3-1,2.3-2.3,2.3h-0.6c-1.3,0-2.3-1-2.3-2.3l-0.7-10.6c-1.5-0.3-2.1-1.6-2.1-3.1v-6.4 c0-1.7,1.4-3.1,3.1-3.2H516.7z"></path> <path class="st6" d="M529.7,59.2c-3.4,0-6.2-2.8-6.2-6.2c0-3.4,2.8-6.2,6.2-6.2c3.4,0,6.2,2.8,6.2,6.2 C535.9,56.4,533.1,59.2,529.7,59.2"></path> <path class="st5" d="M529.7,45.5c-4.1,0-7.5,3.4-7.5,7.5s3.4,7.5,7.5,7.5c4.1,0,7.5-3.4,7.5-7.5S533.9,45.5,529.7,45.5 M529.7,48.1c2.7,0,4.9,2.2,4.9,4.9c0,2.7-2.2,4.9-4.9,4.9c-2.7,0-4.9-2.2-4.9-4.9C524.9,50.3,527.1,48.1,529.7,48.1"></path> <path class="st6" d="M529.3,104.2c-2.8,0-5-2.2-5-5l-1-16c-2.2-0.9-3.5-3-3.5-5.9V67.1c0-3.5,2.8-6.3,6.3-6.4h7.1 c3.5,0,6.3,2.8,6.3,6.3v10.2c0,2.9-1.3,5.1-3.5,5.9l-1,16c0,2.7-2.2,5-4.9,5H529.3z"></path> <path class="st5" d="M533.3,59.4h-7.1h0l0,0c-2,0.1-3.9,0.9-5.3,2.3c-1.4,1.5-2.2,3.4-2.2,5.4v10.2c0,3.1,1.3,5.6,3.5,6.8 l0.9,15.2c0,3.5,2.8,6.2,6.3,6.2h0.9c3.4,0,6.2-2.8,6.2-6.2l0.9-15.2c2.2-1.2,3.5-3.7,3.5-6.8V67 C540.9,62.8,537.5,59.4,533.3,59.4 M533.3,62c2.8,0,5,2.2,5,5v10.2c0,2.4-1,4.5-3.4,4.9l-1,17c0,2-1.6,3.7-3.6,3.7h-0.9 c-2.1,0-3.7-1.6-3.7-3.7l-1-16.9c-2.4-0.5-3.4-2.6-3.4-4.9V67.1c0-2.8,2.2-5,5-5.1H533.3z"></path> <path class="st6" d="M549.2,52.9c-4.5,0-8.2-3.7-8.2-8.2c0-4.5,3.7-8.2,8.2-8.2c4.5,0,8.2,3.7,8.2,8.2 C557.5,49.2,553.8,52.9,549.2,52.9"></path> <path class="st5" d="M549.2,35.1c-5.3,0-9.5,4.3-9.5,9.5c0,5.3,4.3,9.5,9.5,9.5c5.3,0,9.5-4.3,9.5-9.5 C558.8,39.4,554.5,35.1,549.2,35.1 M549.2,37.7c3.8,0,6.9,3.1,6.9,6.9c0,3.8-3.1,6.9-6.9,6.9c-3.8,0-6.9-3.1-6.9-6.9 C542.3,40.8,545.4,37.7,549.2,37.7"></path> <path class="st6" d="M548.5,115.2c-3.6,0-6.5-2.9-6.5-6.5l-1.4-23.2c-3.1-1-4.9-4-4.9-8.1V62.9c0-4.7,3.8-8.5,8.5-8.5h10.2 c4.7,0.1,8.4,3.9,8.4,8.6v14.5c0,4.1-1.8,7-4.9,8.1l-1.4,23.1c0,3.7-2.9,6.5-6.6,6.5H548.5z"></path> <path class="st5" d="M554.3,53.1L554.3,53.1h-10.2c-5.4,0-9.8,4.4-9.8,9.8v14.5c0,2.3,0.5,4.3,1.5,5.9c0.8,1.4,2,2.4,3.4,3 l1.4,22.3c0,4.3,3.5,7.8,7.8,7.8h1.3c4.4,0,7.8-3.4,7.9-7.8l1.4-22.2c1.4-0.7,2.6-1.7,3.4-3c1-1.6,1.5-3.7,1.5-5.9V63 c0-2.6-1-5.1-2.8-6.9C559.4,54.3,557,53.2,554.3,53.1L554.3,53.1z M554.3,55.7c4,0.1,7.1,3.3,7.1,7.3v14.5c0,3.4-1.4,6.4-4.8,7 l-1.5,24c0,3-2.3,5.3-5.3,5.3h-1.3c-2.9,0-5.2-2.4-5.2-5.3l-1.5-24.2c-3.4-0.7-4.8-3.6-4.8-7V62.9c0-4,3.2-7.1,7.1-7.1H554.3z"></path> </g> <path class="st6" d="M126.1,389.1c-0.9,0-1.7,0.8-1.7,1.7c0,0.9,0.8,1.7,1.7,1.7c0.9,0,1.7-0.8,1.7-1.7 C127.8,389.7,126.9,389.1,126.1,389.1 M126.1,398.6c-4.2,0-7.8-3.6-7.8-7.8c0-3.2,1.9-6.1,4.7-7.3v-8.3h6.1v8.3 c2.9,1.3,4.7,4.2,4.7,7.2C133.9,395,130.3,398.6,126.1,398.6"></path> <path class="st7" d="M126.1,391.3c-0.2,0-0.5-0.3-0.5-0.5c0-0.2,0.3-0.5,0.5-0.5c0.2,0,0.5,0,0.5,0.5 C126.6,391,126.3,391.3,126.1,391.3 M130.3,374H128h-3.8h-2.3v2.3v6.4c-2.8,1.5-4.7,4.7-4.7,8c0,2.4,0.9,4.6,2.6,6.3 c1.7,1.7,4,2.6,6.3,2.6c2.4,0,4.6-0.9,6.3-2.6c1.7-1.7,2.6-4,2.6-6.3c0-3.3-1.8-6.3-4.7-7.9v-6.5V374z M126.1,393.6 c1.5,0,2.8-1.3,2.8-2.8c0-1.7-1.3-2.8-2.8-2.8c-1.5,0-2.8,1.3-2.8,2.8C123.3,392.3,124.6,393.6,126.1,393.6 M128,376.3v8 c2.7,0.9,4.7,3.4,4.7,6.4c0,3.6-3,6.6-6.6,6.6c-3.6,0-6.6-3-6.6-6.6c0-3,2.1-5.7,4.7-6.4v-8H128z"></path> <path class="st6" d="M70,389.1c-0.9,0-1.7,0.8-1.7,1.7c0,0.9,0.8,1.7,1.7,1.7s1.7-0.8,1.7-1.7C71.7,389.7,70.8,389.1,70,389.1 M70,398.6c-4.2,0-7.8-3.6-7.8-7.8c0-3.2,1.9-6.1,4.7-7.3v-8.7l1.3,0.2c1.4,0.2,2.7,0.2,3.6,0.2h1.2v8.3c2.9,1.3,4.7,4.2,4.7,7.2 C77.8,395,74.2,398.6,70,398.6"></path> <path class="st7" d="M70,391.3c-0.2,0-0.5-0.3-0.5-0.5c0-0.2,0.3-0.5,0.5-0.5c0.2,0,0.5,0,0.5,0.5C70.5,391,70.2,391.3,70,391.3 M65.8,373.5v2.6v6.6c-2.8,1.5-4.7,4.7-4.7,8c0,2.4,0.9,4.6,2.6,6.3c1.7,1.7,4,2.6,6.3,2.6c2.4,0,4.6-0.9,6.3-2.6 c1.7-1.7,2.6-4,2.6-6.3c0-3.3-1.8-6.3-4.7-7.9v-6.5V374h-2.3c-0.9,0-2.1,0-3.5-0.2L65.8,373.5z M70,393.6c1.5,0,2.8-1.3,2.8-2.8 c0-1.7-1.3-2.8-2.8-2.8c-1.5,0-2.8,1.3-2.8,2.8C67.1,392.3,68.5,393.6,70,393.6 M68.1,376.2c1.5,0.2,2.8,0.2,3.8,0.2v8 c2.7,0.9,4.7,3.4,4.7,6.4c0,3.6-3,6.6-6.6,6.6c-3.6,0-6.6-3-6.6-6.6c0-3,2.1-5.7,4.7-6.4V376.2z"></path> <path class="st6" d="M115.3,405.4c-0.9,0-1.7,0.8-1.7,1.7c0,0.9,0.8,1.7,1.7,1.7c0.9,0,1.7-0.8,1.7-1.7 C117,406.2,116.2,405.4,115.3,405.4 M115.3,415c-4.2,0-7.8-3.6-7.8-7.8c0-3.2,1.9-6.1,4.7-7.3v-2.5l-7.4-7.4v-14.9h6.1v12.2 l7.4,7.4v5c2.9,1.3,4.7,4.2,4.7,7.2C123.1,411.4,119.5,415,115.3,415"></path> <path class="st7" d="M115.3,407.6c-0.2,0-0.5-0.3-0.5-0.5c0-0.2,0.3-0.5,0.5-0.5c0.2,0,0.5,0.3,0.5,0.5 C115.8,407.3,115.5,407.6,115.3,407.6 M112.1,374h-2.3H106h-2.3v2.3v13.3v1l0.7,0.7l6.7,6.7v1.3c-2.8,1.5-4.7,4.7-4.7,8 c0,2.4,0.9,4.6,2.6,6.3c1.7,1.7,4,2.6,6.3,2.6c2.3,0,4.6-1,6.3-2.8c1.7-1.7,2.6-4.1,2.6-6.4c0-3.3-1.8-6.3-4.7-7.9v-3.8v-1 l-0.7-0.7l-6.7-6.7v-10.6V374z M115.3,409.9c1.5,0,2.8-1.3,2.8-2.8c0-1.5-1.3-2.8-2.8-2.8s-2.8,1.3-2.8,2.8 C112.4,408.6,113.8,409.9,115.3,409.9 M109.8,376.3v11.6l7.4,7.4v5.3c2.7,0.9,4.7,3.4,4.7,6.4c0,3.6-3,6.8-6.6,6.8 c-3.6,0-6.6-3-6.6-6.6c0-3,2.1-5.7,4.7-6.4V397l-7.4-7.4v-13.3H109.8z"></path> <path class="st6" d="M98,392.5c-0.9,0-1.7,0.8-1.7,1.7c0,0.9,0.8,1.7,1.7,1.7s1.7-0.8,1.7-1.7C99.7,393.3,98.9,392.5,98,392.5 M98,402c-4.2,0-7.8-3.6-7.8-7.8c0-3.1,1.9-5.9,4.7-7.2V375h6.1v11.9c2.9,1.3,4.7,4.2,4.7,7.2C105.8,398.5,102.4,402,98,402"></path> <path class="st7" d="M98,394.7c-0.2,0-0.5-0.3-0.5-0.5c0-0.2,0.3-0.5,0.5-0.5c0.2,0,0.5,0.3,0.5,0.5 C98.6,394.4,98.3,394.7,98,394.7 M102.3,373.8h-2.3h-3.8h-2.3v2.3v10.1c-1.2,0.7-2.2,1.5-3,2.6c-1.1,1.6-1.8,3.4-1.8,5.3 c0,2.4,0.9,4.6,2.6,6.3c1.7,1.7,4,2.6,6.3,2.6c2.4,0,4.6-0.9,6.3-2.6c1.7-1.7,2.7-4,2.7-6.4c0-3.3-1.8-6.3-4.7-7.9v-10.1V373.8z M98,397c1.5,0,2.8-1.3,2.8-2.8c0-1.5-1.3-2.8-2.8-2.8c-1.5,0-2.8,1.3-2.8,2.8C95.2,395.7,96.5,397,98,397 M99.9,376.2v11.6 c2.7,0.9,4.7,3.4,4.7,6.4c0,3.8-3,6.6-6.6,6.6c-3.6,0-6.6-3-6.6-6.6c0-2.8,1.9-5.5,4.7-6.4v-11.6H99.9z"></path> <path class="st6" d="M90.1,405.4c-0.9,0-1.7,0.8-1.7,1.7c0,0.9,0.8,1.7,1.7,1.7c0.9,0,1.7-0.8,1.7-1.7 C91.8,406.2,91,405.4,90.1,405.4 M89.9,414.9c-4.2,0-7.8-3.6-7.8-7.8c0-1.2,0.4-2.5,1.1-3.8l-5.8-8.8V375h6.1v17.5l4.7,7 c0.6-0.1,1.2-0.2,1.9-0.2c4.2,0,7.8,3.6,7.8,7.8C97.9,411.3,94.2,414.9,89.9,414.9"></path> <path class="st7" d="M90.1,407.6c-0.2,0-0.5-0.3-0.5-0.5c0-0.2,0.3-0.5,0.5-0.5c0.2,0,0.5,0.3,0.5,0.5 C90.6,407.3,90.3,407.6,90.1,407.6 M84.6,373.8h-2.3h-3.8h-2.3v2.3v18v0.7l0.4,0.6l5.3,7.9c-0.6,1.2-0.9,2.5-0.9,3.7 c0,2.4,0.9,4.6,2.6,6.3c1.7,1.7,4,2.6,6.3,2.6c2.3,0,4.7-1,6.4-2.6c1.8-1.7,2.8-4,2.8-6.3c0-2.4-0.9-4.6-2.6-6.3 c-1.7-1.7-4-2.6-6.3-2.6c-0.5,0-1,0-1.4,0.1l-4-6.1v-16V373.8z M90.1,409.9c1.5,0,2.8-1.3,2.8-2.8c0-1.5-1.3-2.8-2.8-2.8 c-1.5,0-2.8,1.3-2.8,2.8C87.2,408.6,88.6,409.9,90.1,409.9 M82.3,376.2v16.7l5.3,8c0.8-0.2,1.5-0.4,2.5-0.4c3.6,0,6.6,3,6.6,6.6 c0,3.6-3.2,6.6-6.8,6.6s-6.6-3-6.6-6.6c0-1.3,0.6-2.7,1.3-3.8l-6.1-9.1v-18H82.3z"></path> <path class="st6" d="M70.4,373.7c-4.7,0-9.2-1.9-12.6-5.3c-3.4-3.4-5.3-7.9-5.3-12.6c0-8.7,6.6-16.3,15.1-17.6 c3.3-5,9-8.2,14.6-8.2c0.4,0,0.7,0,1.1,0c3-6.1,9-9.8,15.9-9.8c6.8,0,12.9,3.7,15.9,9.8c0.2,0,0.5,0,0.7,0c5.9,0,11.6,3.1,15,8.1 c4.1,0.7,7.9,2.7,10.6,5.8c2.9,3.2,4.5,7.4,4.5,11.7c0,4.7-1.9,9.2-5.3,12.6c-3.4,3.4-7.9,5.3-12.6,5.3H70.4z"></path> <path class="st7" d="M99.2,319.2c-3.6,0-7.1,1-10,2.8c-2.7,1.7-5,4.1-6.5,6.9c-0.1,0-0.3,0-0.4,0c-3,0-6,0.8-8.8,2.4 c-2.6,1.4-4.8,3.5-6.5,5.9c-4.1,0.7-7.9,2.9-10.7,6.1c-3.1,3.5-4.8,8-4.8,12.6c0,5,2,9.8,5.6,13.4c3.6,3.6,8.4,5.6,13.4,5.6H128 c5,0,9.8-2,13.4-5.6c3.6-3.6,5.6-8.4,5.6-13.4c0-4.6-1.7-9-4.8-12.5c-2.8-3.2-6.6-5.3-10.8-6.1c-1.7-2.4-4-4.4-6.7-5.9 c-2.8-1.5-5.9-2.3-9-2.3c0,0,0,0,0,0C112.4,322.9,106.2,319.2,99.2,319.2 M99.2,321.5c6.1,0,12.2,3.3,15.2,9.9c0.5,0,1-0.1,1.4-0.1 c5.3,0,11,2.8,14.3,8c8.3,1.1,14.6,8.2,14.6,16.5c0,9.1-7.6,16.7-16.7,16.7H70.4c-9.1,0-16.7-7.6-16.7-16.7 c0-8.3,6.4-15.5,14.6-16.5c3.2-5.3,8.9-8.1,13.9-8.1c0.6,0,1.2,0,1.8,0.1C86.9,324.9,93,321.5,99.2,321.5"></path> <g> <path class="st6" d="M390.2,584.8c2.8,0,5.2,1.9,5.9,4.6c0.8,3.3-1.1,6.6-4.4,7.4c-0.5,0.1-1,0.2-1.5,0.2c-2.8,0-5.2-1.9-5.9-4.6 c-0.8-3.3,1.1-6.6,4.4-7.4C389.2,584.9,389.7,584.8,390.2,584.8 M335,588.8c2.8,0,5.2,1.9,5.9,4.6c0.4,1.6,0.2,3.2-0.7,4.6 s-2.2,2.4-3.8,2.8c-0.5,0.1-1,0.2-1.5,0.2c-2.8,0-5.2-1.9-5.9-4.6c-0.4-1.6-0.2-3.2,0.7-4.6s2.2-2.4,3.8-2.8 C334,588.8,334.5,588.8,335,588.8 M424.4,615.8c2.8,0,5.2,1.9,5.9,4.6c0.8,3.3-1.1,6.6-4.4,7.4c-0.5,0.1-1,0.2-1.4,0.2 c-2.7,0-5.2-1.9-6-4.6l0,0c-0.4-1.5-0.2-3,0.6-4.5l0.2-0.4l0.3-0.1c0.1-0.2,0.2-0.3,0.3-0.4c0.1-0.1,0.1-0.2,0.2-0.2l0.1-0.1 l0.1-0.1c0.7-0.8,1.6-1.3,2.7-1.6C423.3,615.9,423.9,615.8,424.4,615.8 M367.2,620.4c2.8,0,5.2,1.9,5.9,4.6 c0.4,1.6,0.2,3.2-0.7,4.6s-2.2,2.4-3.8,2.8c-0.5,0.1-1,0.2-1.5,0.2c-2.8,0-5.2-1.9-5.9-4.6c-0.4-1.6-0.2-3.2,0.7-4.6 c0.8-1.4,2.2-2.4,3.8-2.8C366.2,620.4,366.7,620.4,367.2,620.4 M367.1,639.7c1.1,0,2.2-0.1,3.2-0.4c7.1-1.8,11.4-9,9.6-16 c-0.6-2.3-1.8-4.5-3.5-6.2l-0.8-0.8l11.6-12.6l0.6,0.1c0.7,0.1,1.5,0.2,2.3,0.2c1.1,0,2.2-0.1,3.3-0.4c0.5-0.1,1.1-0.3,1.6-0.5 l0.6-0.3l16.7,14.2l-0.2,0.7c-0.8,2.7-0.9,5.2-0.3,7.6c1.5,5.9,6.7,10,12.8,10c1.1,0,2.2-0.1,3.2-0.4c3.4-0.9,6.3-3,8.1-6 c1.8-3,2.3-6.6,1.5-10c-1.5-5.9-6.7-10-12.8-10c-1.1,0-2.2,0.1-3.2,0.4c-1.5,0.4-2.8,0.9-3.9,1.6l-0.7,0.4l-15.5-13.1l0.5-0.8 c1.7-3,2.1-6.4,1.3-9.7c-1.5-5.9-6.7-10-12.8-10c-1.1,0-2.2,0.1-3.2,0.4c-7.1,1.8-11.4,9-9.6,16c0.5,1.9,1.5,3.7,2.8,5.3l0.6,0.7 l-12,13.2l-0.5,0c-0.3,0-0.6,0-0.9,0c-1.1,0-2.1,0.1-3.2,0.4c-1,0.2-1.8,0.4-2.5,0.8l-0.6,0.3L345.5,603l0.6-0.9 c2.1-3,2.7-6.7,1.8-10.4c-1.5-5.9-6.7-10-12.8-10c-1.1,0-2.2,0.1-3.2,0.4c-7,1.8-11.4,8.9-9.9,15.9c1.5,5.9,6.7,10,12.8,10h0 c1.1,0,2.2-0.1,3.2-0.4l1.3-0.3l16.3,12.6l-0.4,0.8c-1.4,2.9-1.7,6-1,9C355.8,635.6,361,639.7,367.1,639.7"></path> <path class="st7" d="M367.2,631.5c0.4,0,0.8,0,1.3-0.2c2.7-0.7,4.3-3.4,3.6-6.1c-0.6-2.3-2.6-3.8-4.8-3.8c-0.4,0-0.8,0-1.3,0.2 c-2.7,0.7-4.3,3.4-3.6,6.1C362.9,630,364.9,631.5,367.2,631.5 M424.4,626.9c0.4,0,0.8,0,1.2-0.1c2.7-0.7,4.3-3.4,3.6-6.1 c-0.6-2.3-2.6-3.8-4.8-3.8c-0.4,0-0.8,0.1-1.3,0.2c-0.9,0.2-1.6,0.7-2.2,1.3c-0.2,0.3-0.4,0.5-0.5,0.7c-0.1,0.1-0.2,0.3-0.4,0.3 c-0.6,1.1-0.8,2.4-0.5,3.7C420.2,625.4,422.2,626.9,424.4,626.9 M335,599.9c0.4,0,0.8,0,1.3-0.2c2.7-0.7,4.3-3.4,3.6-6.1 c-0.6-2.3-2.6-3.8-4.8-3.8c-0.4,0-0.8,0-1.3,0.2c-2.7,0.7-4.3,3.4-3.6,6.1C330.7,598.4,332.7,599.9,335,599.9 M390.1,596 c0.4,0,0.8-0.1,1.3-0.2c2.7-0.7,4.3-3.4,3.6-6.1c-0.6-2.3-2.6-3.8-4.8-3.8c-0.4,0-0.8,0.1-1.3,0.2c-2.7,0.7-4.3,3.4-3.6,6.1 C385.9,594.5,387.9,596,390.1,596 M390.2,576.7c6.4,0,12.2,4.3,13.9,10.8c0.9,3.7,0.3,7.5-1.4,10.6l14.2,12 c1.2-0.8,2.6-1.4,4.2-1.8c1.2-0.3,2.4-0.4,3.5-0.4c6.4,0,12.2,4.3,13.9,10.8c1.9,7.7-2.7,15.4-10.4,17.4c-1.2,0.3-2.4,0.4-3.5,0.4 c-6.4,0-12.2-4.3-13.9-10.8c-0.7-2.8-0.5-5.6,0.3-8.2l-15.6-13.2c-0.5,0.3-1.2,0.4-1.8,0.6c-1.2,0.3-2.4,0.4-3.6,0.4 c-0.9,0-1.7-0.1-2.5-0.2l-10.4,11.4c1.8,1.7,3.2,4,3.8,6.7c1.9,7.7-2.7,15.4-10.4,17.4c-1.2,0.3-2.4,0.4-3.5,0.4 c-6.4,0-12.2-4.3-13.9-10.8c-0.9-3.4-0.4-6.7,1-9.7L339,608.5c-0.2,0.1-0.5,0.1-0.8,0.2c-1.2,0.3-2.4,0.4-3.5,0.4 c-6.4,0-12.2-4.3-13.9-10.8c-1.6-7.5,3-15.3,10.7-17.2c1.2-0.3,2.4-0.4,3.5-0.4c6.4,0,12.2,4.3,13.9,10.8c1,4.1,0.2,8.1-2,11.3 l14.1,10.8c0.8-0.5,1.7-0.7,2.8-0.9c1.1-0.3,2.3-0.4,3.5-0.4c0.3,0,0.7,0,1,0l11-12.1c-1.4-1.6-2.5-3.6-3-5.7 c-1.9-7.7,2.7-15.4,10.4-17.4C387.8,576.8,389,576.7,390.2,576.7 M367.2,633.7c-3.3,0-6.2-2.2-7-5.5c-0.5-1.9-0.2-3.8,0.8-5.5 c1-1.6,2.6-2.8,4.4-3.3c0.6-0.1,1.2-0.2,1.8-0.2c3.3,0,6.2,2.2,7,5.5c0.5,1.9,0.2,3.8-0.8,5.5c-1,1.6-2.6,2.8-4.4,3.3 C368.4,633.6,367.8,633.7,367.2,633.7 M424.4,629.2c-3.2,0-6.1-2.2-7-5.4l0,0l0,0c-0.4-1.7-0.2-3.6,0.7-5.3l0.5-0.9l0.4-0.1 c0,0,0.1-0.1,0.1-0.1c0,0,0.1-0.1,0.1-0.1l0.1-0.2l0.1-0.2c0.9-0.9,2-1.6,3.3-1.9c0.6-0.1,1.2-0.2,1.8-0.2c3.3,0,6.2,2.2,7,5.5 c0.5,1.9,0.2,3.8-0.8,5.5c-1,1.6-2.6,2.8-4.4,3.3C425.5,629.1,425,629.2,424.4,629.2 M335,602.1c-3.3,0-6.2-2.2-7-5.5 c-0.5-1.9-0.2-3.8,0.8-5.5c1-1.6,2.6-2.8,4.4-3.3c0.6-0.1,1.2-0.2,1.8-0.2c3.3,0,6.2,2.2,7,5.5c0.5,1.9,0.2,3.8-0.8,5.5 c-1,1.6-2.6,2.8-4.4,3.3C336.2,602,335.6,602.1,335,602.1 M390.1,598.2c-3.3,0-6.2-2.2-7-5.5c-0.5-1.9-0.2-3.8,0.8-5.5 c1-1.6,2.6-2.8,4.4-3.3c0.6-0.1,1.2-0.2,1.8-0.2c3.3,0,6.2,2.2,7,5.5c0.5,1.9,0.2,3.8-0.8,5.5c-1,1.6-2.6,2.8-4.4,3.3 C391.3,598.1,390.7,598.2,390.1,598.2 M390.2,578.9L390.2,578.9c-1,0-2,0.1-3,0.4c-6.5,1.6-10.4,8.2-8.8,14.7 c0.4,1.7,1.3,3.4,2.5,4.8l1.3,1.5l-1.3,1.5l-11,12.1l-0.7,0.8l-1.1-0.1c-0.3,0-0.5,0-0.8,0c-1,0-2,0.1-2.9,0.4 c-0.9,0.2-1.7,0.4-2.3,0.7l-1.3,0.7l-1.1-0.9l-14.1-10.8l-1.7-1.3l1.2-1.7c1.9-2.8,2.5-6.1,1.6-9.5c-1.4-5.4-6.2-9.1-11.7-9.1 c-1,0-2,0.1-3,0.4c-6.4,1.6-10.4,8.1-9,14.5c1.4,5.4,6.2,9.1,11.7,9.1c1,0,2-0.1,3-0.4l0.1,0l0.6-0.2l1-0.3l0.9,0.7l15.2,11.8 l1.4,1.1l-0.8,1.6c-1.3,2.7-1.6,5.5-0.9,8.2c1.4,5.4,6.2,9.1,11.7,9.1c1,0,2-0.1,3-0.4c3.1-0.8,5.8-2.7,7.4-5.5 c1.7-2.8,2.1-6,1.3-9.2c-0.5-2.2-1.7-4.1-3.2-5.7l-1.5-1.5l1.5-1.6l10.4-11.4l0.8-0.9l1.2,0.2c0.7,0.1,1.4,0.2,2.1,0.2 c1,0,2-0.1,3-0.4c0.5-0.1,1-0.3,1.4-0.4l1.3-0.6l1.1,0.9l15.6,13.2l1.1,0.9l-0.4,1.4c-0.8,2.5-0.9,4.9-0.3,7.1 c1.4,5.4,6.2,9.1,11.7,9.1c1,0,2-0.1,3-0.4c6.5-1.6,10.4-8.2,8.8-14.7c-1.4-5.4-6.2-9.1-11.7-9.1c-1,0-2,0.1-3,0.4 c-1.3,0.3-2.5,0.8-3.6,1.5l-1.4,0.9l-1.2-1.1l-14.2-12l-1.4-1.2l0.9-1.6c1.5-2.7,2-5.9,1.2-8.9 C400.5,582.6,395.7,578.9,390.2,578.9"></path> </g> <g> <path class="st6" d="M649.3,376c-4.7,0-8.5-3.8-8.5-8.5c0-4.7,3.8-8.5,8.5-8.5c4.7,0,8.5,3.8,8.5,8.5 C657.8,372.2,654,376,649.3,376"></path> <path class="st7" d="M649.3,357.4c-5.6,0-10.1,4.6-10.1,10.1c0,5.6,4.6,10.1,10.1,10.1c5.6,0,10.1-4.6,10.1-10.1 C659.5,361.9,654.9,357.4,649.3,357.4 M649.3,360.7c3.8,0,6.9,3.1,6.9,6.9c0,3.8-3.1,6.9-6.9,6.9c-3.8,0-6.9-3.1-6.9-6.9 C642.4,363.7,645.5,360.7,649.3,360.7"></path> <path class="st6" d="M649.3,352.2c-8.4,0-15.2,6.8-15.2,15.2c0,8.4,6.8,15.2,15.2,15.2c8.4,0,15.2-6.8,15.2-15.2 C664.5,359,657.7,352.2,649.3,352.2 M644.8,397.7c0,0-0.1-0.1-0.1-0.2l-0.8-7.6l-1.1-0.3c-1.5-0.4-3.3-1.1-5.2-2.2l-1-0.5 c0,0-6.1,4.9-6.1,4.9c0,0,0,0,0,0l-5.8-5.8c0,0,0,0,0,0l4.9-6.1l-0.6-1c-1-1.7-1.8-3.4-2.2-5.1l-0.3-1.1l-7.6-0.8 c-0.1,0-0.1-0.1-0.2-0.1v-8.2c0,0,0.1-0.1,0.2-0.1l7.6-0.8l0.3-1.1c0.4-1.5,1.1-3.3,2.2-5.2l0.5-0.9c0,0-4.4-5.8-4.4-5.8 c0,0,0,0,0,0l5.8-5.8c0,0,0,0,0,0l6.1,4.9l1-0.6c1.7-1,3.4-1.8,5.1-2.2l1.1-0.3l0.8-7.6c0-0.1,0.1-0.1,0.1-0.2h8.2 c0,0,0.1,0.1,0.1,0.2l0.8,7.6l1.1,0.3c1.5,0.4,3.3,1.1,5.2,2.2l1,0.5c0,0,6.1-4.9,6.1-4.9c0,0,0,0,0,0l5.8,5.8c0,0,0,0,0,0 l-4.9,6.1l0.6,1c1,1.7,1.8,3.4,2.2,5.1l0.3,1.1l7.6,0.8c0.1,0,0.1,0.1,0.2,0.1v8.2c0,0-0.1,0.1-0.2,0.1l-7.6,0.8l-0.3,1.1 c-0.4,1.5-1.1,3.3-2.2,5.2l-0.5,1l4.5,5.6L673,386l-5.8,5.8c0,0,0,0,0,0l-6.1-4.9l-1,0.6c-1.7,1-3.4,1.8-5.1,2.2l-1.1,0.3 l-0.8,7.6c0,0.1-0.1,0.1-0.1,0.2H644.8z"></path> <path class="st7" d="M649.3,380.9c-7.4,0-13.5-6.1-13.5-13.5s6.1-13.5,13.5-13.5c7.4,0,13.5,6.1,13.5,13.5 S656.8,380.9,649.3,380.9 M653.5,336.2h-8.3c-0.8,0-1.5,0.7-1.7,1.5l-0.7,6.6c-2,0.5-3.9,1.4-5.6,2.4l-5.2-4.2 c-0.3-0.2-0.7-0.4-1.1-0.4c-0.4,0-0.9,0.2-1.1,0.5l-5.8,5.8c-0.7,0.7-0.7,1.5-0.2,2.2l3.7,4.9c-1,1.9-1.9,3.7-2.4,5.6l-6.6,0.7 c-0.8,0.2-1.5,0.8-1.5,1.7v8.3c0,0.8,0.7,1.5,1.5,1.7l6.6,0.7c0.5,2,1.4,3.9,2.4,5.6l-4.2,5.2c-0.5,0.7-0.5,1.7,0.2,2.2l5.8,5.8 c0.4,0.4,0.8,0.5,1.2,0.5c0.4,0,0.7-0.1,1-0.4l5.2-4.2c1.9,1,3.7,1.9,5.6,2.4l0.7,6.6c0.2,0.8,0.8,1.5,1.7,1.5h8.3 c0.8,0,1.5-0.7,1.7-1.5l0.7-6.6c2-0.5,3.9-1.4,5.6-2.4l5.2,4.2c0.3,0.2,0.7,0.4,1.1,0.4c0.4,0,0.9-0.2,1.1-0.5l5.8-5.8 c1.2-0.2,1.2-1.2,0.7-1.9l-4.2-5.2c1-1.9,1.9-3.7,2.4-5.6l6.6-0.7c0.8-0.2,1.5-0.8,1.5-1.7v-8.3c0-0.8-0.7-1.5-1.5-1.7l-6.6-0.7 c-0.5-2-1.4-3.9-2.4-5.6l4.2-5.2c0.5-0.7,0.5-1.7-0.2-2.2l-5.8-5.8c-0.4-0.4-0.8-0.5-1.2-0.5c-0.4,0-0.7,0.1-1,0.4l-5.2,4.2 c-1.9-1-3.7-1.9-5.6-2.4l-0.7-6.6C655.1,336.9,654.4,336.2,653.5,336.2 M649.3,384.2c9.3,0,16.8-7.5,16.8-16.8 s-7.5-16.8-16.8-16.8c-9.3,0-16.8,7.5-16.8,16.8S640,384.2,649.3,384.2 M652.1,339.5l0.5,5.2l0.2,2.2l2.2,0.6 c1.4,0.4,3,1.1,4.9,2.1l1.9,1l1.7-1.4l4.1-3.3l3.7,3.7l-3.3,4.1l-1.4,1.8l1.2,2c0.9,1.6,1.6,3.1,2,4.7l0.6,2.2l2.3,0.2l5.2,0.5 v5.4l-5.2,0.5l-2.2,0.2l-0.6,2.2c-0.4,1.4-1.1,3-2.1,4.9l-1,1.9l1.4,1.7l2.9,3.6l-3.9,3.9l-4.1-3.3l-1.8-1.4l-2,1.2 c-1.6,0.9-3.1,1.6-4.7,2l-2.2,0.6l-0.2,2.3l-0.5,5.2h-5.4l-0.5-5.2l-0.2-2.2l-2.2-0.6c-1.4-0.4-3-1.1-4.9-2.1l-1.9-1l-1.7,1.4 l-4.1,3.3l-3.7-3.7l3.3-4.1l1.4-1.8l-1.2-2c-0.9-1.6-1.6-3.1-2-4.7l-0.6-2.2l-2.3-0.2l-5.2-0.5v-5.4l5.2-0.5l2.2-0.2l0.6-2.2 c0.4-1.4,1.1-3,2.1-4.9l1-1.9l-1.3-1.7l-2.9-3.8l3.8-3.8l4.1,3.3l1.8,1.4l2-1.2c1.6-0.9,3.1-1.6,4.7-2l2.2-0.6l0.2-2.3l0.5-5.2 H652.1z"></path> <path class="st6" d="M697.9,402.5c-3.1,0-5.6-2.4-5.6-5.6c0-3.1,2.4-5.6,5.6-5.6s5.6,2.4,5.6,5.6 C703.4,400.1,701,402.5,697.9,402.5"></path> <path class="st7" d="M697.9,389.8c-4,0-7.2,3.2-7.2,7.2s3.2,7.2,7.2,7.2s7.2-3.2,7.2-7.2S701.9,389.8,697.9,389.8 M697.9,393 c2.2,0,3.9,1.7,3.9,3.9c0,2.2-1.7,3.9-3.9,3.9s-3.9-1.7-3.9-3.9C693.9,394.7,695.6,393,697.9,393"></path> <path class="st6" d="M697.9,385.2c-6.6,0-11.7,5.1-11.7,11.7s5.1,11.7,11.7,11.7c6.6,0,11.7-5.1,11.7-11.7 C709.6,390.5,704.3,385.2,697.9,385.2 M694.5,423.2c0,0-0.1-0.1-0.1-0.2l-0.8-6.5l-1.1-0.2c-1.2-0.3-2.6-0.8-4.1-1.7l-0.9-0.5 c0,0-5.3,4-5.3,4c0,0,0,0,0,0l-4.9-4.9c0,0,0,0,0,0l4-5.2l-0.5-0.9c-0.8-1.4-1.2-2.8-1.7-4.3l-0.3-1l-1-0.1l-5.3-0.7 c-0.1,0-0.1-0.1-0.2-0.1v-6.9c0,0,0.1-0.1,0.2-0.1l6.5-0.8l0.3-1.1c0.3-1.2,0.8-2.6,1.7-4.1l0.5-0.9c0,0-4-5.3-4-5.3c0,0,0,0,0,0 l4.9-4.9c0,0,0,0,0,0l5.2,4l0.9-0.5c1.4-0.8,2.8-1.2,4.3-1.7l1-0.3l0.1-1l0.7-5.3c0-0.1,0.1-0.1,0.1-0.2h6.9c0,0,0.1,0.1,0.1,0.2 l0.8,6.5l1.1,0.2c1.2,0.3,2.6,0.8,4.1,1.7l0.9,0.5c0,0,5.3-4,5.3-4c0,0,0,0,0,0l4.9,4.9c0,0,0,0,0,0l-4,5.2l0.5,0.9 c0.8,1.4,1.2,2.8,1.7,4.3l0.3,1l6.5,0.8c0,0,0,0,0,0.1v6.9c0,0-0.1,0.1-0.2,0.1l-6.5,0.8l-0.2,1.1c-0.3,1.2-0.8,2.6-1.7,4.1 l-0.5,0.9c0,0,4,5.3,4,5.3c0,0,0,0,0,0l-4.9,4.9c0,0,0,0,0,0l-5.2-4l-0.9,0.5c-1.4,0.8-2.8,1.2-4.3,1.7l-1,0.3l-0.1,1l-0.7,5.3 c0,0.1-0.1,0.1-0.1,0.2H694.5z"></path> <path class="st7" d="M697.9,407c-5.6,0-10.1-4.5-10.1-10.1c0-5.6,4.5-10.1,10.1-10.1c5.6,0,10.1,4.6,10.1,10.1 C707.9,402.6,703.5,407,697.9,407 M701.4,369.9h-6.9c-0.8,0-1.5,0.7-1.7,1.5l-0.7,5.4c-1.5,0.5-3,1-4.6,1.9l-4.4-3.4 c-0.3-0.2-0.7-0.4-1.1-0.4c-0.4,0-0.9,0.2-1.1,0.5l-4.9,4.9c-0.7,0.7-0.7,1.5-0.2,2.2l3.4,4.4c-0.8,1.5-1.5,3-1.9,4.6l-5.4,0.7 c-0.8,0.2-1.5,0.8-1.5,1.7v6.9c0,0.8,0.7,1.5,1.5,1.7l5.4,0.7c0.5,1.5,1,3,1.9,4.6l-3.4,4.4c-0.5,0.7-0.5,1.7,0.2,2.2l4.9,4.9 c0.4,0.4,0.8,0.5,1.2,0.5c0.4,0,0.7-0.1,1-0.4l4.4-3.4c1.5,0.8,3,1.5,4.6,1.9l0.7,5.4c0.2,0.8,0.8,1.5,1.7,1.5h6.9 c0.8,0,1.5-0.7,1.7-1.5l0.7-5.4c1.5-0.5,3-1,4.6-1.9l4.4,3.4c0.3,0.2,0.7,0.4,1.1,0.4c0.4,0,0.9-0.2,1.1-0.5l4.9-4.9 c0.7-0.7,0.7-1.5,0.2-2.2l-3.4-4.4c0.8-1.5,1.5-3,1.9-4.6l5.4-0.7c0.8-0.2,1.5-0.8,1.5-1.7v-6.9c0-0.8-0.7-1.7-1.5-1.7l-5.4-0.7 c-0.5-1.5-1-3-1.9-4.6l3.4-4.4c0.5-0.7,0.5-1.7-0.2-2.2l-4.9-4.9c-0.4-0.4-0.8-0.5-1.2-0.5c-0.4,0-0.7,0.1-1,0.4l-4.4,3.4 c-1.5-0.8-3-1.5-4.6-1.9l-0.7-5.4C702.9,370.6,702.3,369.9,701.4,369.9 M697.9,410.3c3.6,0,7-1.4,9.5-3.9c2.5-2.5,3.9-5.9,3.9-9.5 c0-7.4-6-13.4-13.4-13.4c-3.6,0-7,1.4-9.5,3.9c-2.5,2.5-3.9,5.9-3.9,9.5c0,3.6,1.4,7,3.9,9.5C690.9,408.9,694.3,410.3,697.9,410.3 M700,373.2l0.5,4.1l0.3,2.3l2.3,0.5c1.1,0.2,2.3,0.7,3.7,1.5l1.9,1l1.7-1.3l3.3-2.5l2.9,2.9L714,385l-1.3,1.7l1,1.9 c0.7,1.3,1.1,2.6,1.6,4l0.7,2l2,0.3l4.1,0.5v4.2l-4.1,0.5l-2.3,0.3l-0.5,2.3c-0.2,1.1-0.7,2.3-1.5,3.7l-1,1.9l1.3,1.7l2.5,3.3 l-2.9,2.9l-3.3-2.5l-1.7-1.3l-1.9,1c-1.3,0.7-2.6,1.1-4,1.6l-2,0.7l-0.3,2l-0.5,4.1h-4.2l-0.5-4.1l-0.3-2.3l-2.3-0.5 c-1.1-0.2-2.3-0.7-3.7-1.5l-1.9-1l-1.7,1.3l-3.3,2.5l-2.9-2.9l2.5-3.3l1.3-1.7l-1-1.9c-0.7-1.3-1.1-2.6-1.6-4l-0.7-2l-2-0.3 l-4.1-0.5v-4.2l4.1-0.5l2.3-0.3l0.5-2.3c0.2-1.1,0.7-2.3,1.5-3.7l1-1.9l-1.3-1.7l-2.5-3.3l2.9-2.9l3.3,2.5l1.7,1.3l1.9-1 c1.3-0.7,2.6-1.1,4-1.6l2-0.7l0.3-2l0.5-4.1H700z"></path> <path class="st6" d="M700.4,343.7c-2.8,0-5-2.2-5-5s2.2-5,5-5c2.8,0,5,2.2,5,5S703.2,343.7,700.4,343.7"></path> <path class="st7" d="M700.4,332c-3.7,0-6.7,2.9-6.7,6.7c0,3.7,2.9,6.7,6.7,6.7c3.7,0,6.7-2.9,6.7-6.7 C707.1,334.9,704.1,332,700.4,332 M700.4,335.3c1.9,0,3.4,1.5,3.4,3.4c0,1.9-1.5,3.4-3.4,3.4s-3.4-1.5-3.4-3.4 C697,336.8,698.5,335.3,700.4,335.3"></path> <path class="st6" d="M700.4,327.7c-6,0-10.9,4.9-10.9,10.9c0,6,4.8,10.8,10.9,10.8c6,0,10.9-4.9,10.9-10.9 C711.3,332.6,706.4,327.7,700.4,327.7 M697.1,363.5c0,0-0.1-0.1-0.2-0.3l-0.7-6.1l-1.1-0.3c-1.4-0.3-2.7-0.9-3.7-1.5l-0.9-0.5 l-4.8,3.7c-0.1,0-0.1,0-0.1,0c0,0,0,0-0.1-0.1l-4.8-4.8c0,0,0-0.1,0-0.1l3.7-4.6l-0.5-0.9c-0.8-1.6-1.2-2.7-1.5-3.8l-0.3-1.1 l-6.1-0.7c-0.2-0.1-0.4-0.2-0.4-0.3v-6.4c0,0,0.1-0.1,0.3-0.2l6.1-0.7l0.3-1.1c0.3-1.4,0.9-2.7,1.5-3.7l0.5-0.9l-3.7-4.8 c0-0.1,0-0.1,0-0.1c0,0,0,0,0,0c0,0,0,0,0.1-0.1l4.8-4.8c0,0,0.1,0,0.1,0.1l4.8,3.7l0.9-0.5c1.6-0.8,2.7-1.2,3.8-1.5l1.1-0.3 l0.7-6.1c0-0.2,0.2-0.3,0.2-0.3h6.7l0,0.2l0.7,6.2l1.1,0.3c1.4,0.3,2.7,0.9,3.7,1.5l1,0.5l5.2-4.1c0.1,0,0.1-0.1,0.1-0.1 c0,0,0,0,0.1,0.1l4.8,4.8c0,0,0,0.1-0.1,0.1l-3.7,4.8l0.5,0.9c0.8,1.6,1.2,2.7,1.5,3.8l0.3,1.1l6.1,0.7c0.2,0,0.3,0.2,0.3,0.2v6.7 c0,0-0.1,0.1-0.3,0.2l-6.1,0.7l-0.3,1.1c-0.3,1.4-0.9,2.7-1.5,3.7l-0.5,0.9l3.7,4.8c0,0.1,0,0.1,0,0.1s0,0,0,0c0,0,0,0-0.1,0.1 l-4.8,4.8c0,0-0.1,0-0.1-0.1l-4.8-3.7l-0.9,0.5c-1.6,0.8-2.7,1.2-3.8,1.5l-1.1,0.3l-0.7,6.1c0,0.2-0.2,0.3-0.2,0.3H697.1z"></path> <path class="st7" d="M700.4,347.8c-5.2,0-9.3-4-9.3-9.1c0-5.2,4.3-9.3,9.3-9.3c5,0,9.3,4,9.3,9.1 C709.7,343.7,705.6,347.8,700.4,347.8 M703.7,312.8H697c-0.9,0-1.6,0.7-1.8,1.6l-0.5,5.1c-1.4,0.4-2.7,0.9-4.2,1.6l-4-3.1 c-0.3-0.3-0.7-0.4-1.2-0.4c-0.5,0-0.9,0.2-1.2,0.6l-4.7,4.7c-0.7,0.7-0.7,1.6-0.2,2.4l3.1,4c-0.7,1.3-1.3,2.7-1.6,4.2l-5.1,0.5 c-0.9,0.2-1.6,0.9-1.6,1.8v6.7c0.2,0.7,0.9,1.4,1.8,1.6l5.1,0.5c0.4,1.4,0.9,2.7,1.6,4.2l-3.1,3.8c-0.5,0.7-0.5,1.8,0.2,2.4 l4.7,4.7c0.4,0.4,0.8,0.6,1.3,0.6c0.4,0,0.8-0.1,1.1-0.4l4-3.1c1.3,0.7,2.7,1.3,4.2,1.6l0.5,5.1c0.2,0.9,0.9,1.6,1.8,1.6h6.7 c0.9,0,1.6-0.7,1.8-1.6l0.5-5.1c1.4-0.4,2.7-0.9,4.2-1.6l4,3.1c0.3,0.3,0.8,0.4,1.2,0.4c0.5,0,0.9-0.2,1.2-0.6l4.7-4.7 c0.7-0.7,0.7-1.6,0.2-2.4l-3.1-4c0.7-1.3,1.3-2.7,1.6-4.2l5.1-0.5c0.9-0.2,1.6-0.9,1.6-1.8v-6.7c0-0.9-0.7-1.6-1.6-1.8l-5.1-0.5 c-0.4-1.4-0.9-2.7-1.6-4.2l3.1-4c0.5-0.7,0.5-1.8-0.2-2.4l-4.7-4.7c-0.4-0.4-0.8-0.6-1.3-0.6c-0.4,0-0.8,0.1-1.1,0.4l-4.3,3.4 c-1.3-0.7-2.7-1.3-4.2-1.6l-0.5-5.1C705.3,313.5,704.6,312.8,703.7,312.8 M700.4,351.1c3.4,0,6.5-1.3,8.9-3.7 c2.4-2.4,3.7-5.5,3.7-8.9c0-6.9-5.6-12.4-12.6-12.4c-3.3,0-6.4,1.3-8.8,3.7c-2.4,2.4-3.7,5.6-3.7,8.9c0,3.4,1.3,6.5,3.7,8.9 C693.9,349.8,697,351.1,700.4,351.1 M702.2,316.1l0.4,3.8l0.2,2.3l2.2,0.6c1.2,0.3,2.4,0.8,3.3,1.3l1.9,1.1l1.7-1.4l3.3-2.6 l2.9,2.9l-2.3,2.9l-1.3,1.6l0.9,1.8c0.6,1.2,1.1,2.3,1.4,3.5l0.6,2.2l2.3,0.2l3.8,0.4v4.1l-3.8,0.4l-2.3,0.2l-0.6,2.2 c-0.3,1.2-0.8,2.4-1.3,3.3l-1.1,1.9l1.3,1.7l2.3,2.9l-2.9,2.9l-2.9-2.3l-1.6-1.3l-1.8,0.9c-1.2,0.6-2.3,1.1-3.5,1.4l-2.2,0.6 l-0.2,2.3l-0.4,3.8h-4.1l-0.4-3.8l-0.2-2.3l-2.2-0.6c-1.2-0.3-2.4-0.8-3.3-1.3l-1.9-1.1l-1.7,1.3l-2.9,2.3l-2.9-2.9l2.2-2.7 l1.3-1.6l-0.9-1.9c-0.6-1.2-1.1-2.3-1.4-3.5l-0.6-2.2l-2.3-0.2l-4-0.4v-3.9l3.8-0.4l2.3-0.2l0.6-2.2c0.3-1.2,0.8-2.4,1.3-3.3 l1.1-1.9l-1.3-1.7l-2.3-2.9l2.9-2.9l2.9,2.3l1.6,1.3l1.8-0.9c1.2-0.6,2.3-1.1,3.5-1.4l2.2-0.6l0.2-2.3l0.4-3.8H702.2z"></path> </g> <g> <g> <polygon class="st8" points="205.4,51.7 198.3,32.3 214.6,32.3 215.7,35.4 230.8,35.4 224.8,51.7 "></polygon> <path class="st1" d="M214,33.2l1.1,3.1h14.4l-5.3,14.5h-18.1l-6.5-17.6H214 M215.3,31.3H214h-14.4H197l0.9,2.5l6.5,17.6l0.4,1.2 h1.3h18.1h1.3l0.4-1.2l5.3-14.5l0.9-2.5h-2.6h-13.1l-0.7-1.9L215.3,31.3L215.3,31.3z"></path> </g> <g> <path class="st8" d="M188.2,114.7c-6.2,0-11.3-5-11.3-11.3c0-2.3,0.7-4.5,2-6.4l26.8-44.2h18.8l26.8,44.2c1.3,1.8,1.9,4,1.9,6.3 c0,6.2-5,11.3-11.3,11.3H188.2z"></path> <path class="st1" d="M224,53.8l26.5,43.8c1.1,1.7,1.8,3.7,1.8,5.8c0,5.7-4.6,10.3-10.3,10.3h-53.8c-5.7,0-10.3-4.6-10.3-10.3 c0-2.2,0.7-4.2,1.8-5.8l26.5-43.8H224 M225,52h-1h-17.8h-1l-0.5,0.9l-26.5,43.7c-1.4,2-2.1,4.4-2.1,6.8c0,6.7,5.5,12.2,12.2,12.2 H242c6.7,0,12.2-5.5,12.2-12.2c0-2.4-0.7-4.8-2.1-6.8l-26.5-43.7L225,52L225,52z"></path> </g> <text transform="matrix(1 0 0 1 200.8014 101.4432)" class="st1 st2 st9">£</text> </g> </g> </svg> 