<?xml version="1.0" encoding="UTF-8"?> <!-- Generator: Adobe Illustrator 24.1.2, SVG Export Plug-In . SVG Version: 6.00 Build 0) --> <svg xmlns="http://www.w3.org/2000/svg" xmlns:xlink="http://www.w3.org/1999/xlink" version="1.1" id="Layer_1" x="0px" y="0px" viewBox="0 0 500 500" style="enable-background:new 0 0 500 500;" xml:space="preserve"> <style type="text/css"> .st0{fill:#E3C323;} </style> <g> <g> <defs> <rect id="SVGID_1_" x="0" width="500" height="500"></rect> </defs> <clipPath id="SVGID_2_"> <use xlink:href="#SVGID_1_" style="overflow:visible;"></use> </clipPath> </g> </g> <g> <path class="st0" d="M183.3,153.1c-27.2,0-49.2,22-49.2,49.2s22,49.2,49.2,49.2s49.2-22,49.2-49.2 C232.5,175.1,210.5,153.1,183.3,153.1z M171.5,230.6c-3-0.4-6.3-0.7-10.1-0.9v-32.9h10.1V230.6z M182,232.7 c-2.3-0.6-4.7-1.2-7.1-1.5v-34.4h7.1V232.7z M190.4,234.9c-1.4-0.4-2.8-0.7-4.5-1.2v-37.1h4.5V234.9z M198.1,235.6h-3.2v-39h3.2 V235.6L198.1,235.6z M204.7,234.5c-0.6,0.3-1.2,0.5-1.9,0.6v-38.4h1.9V234.5z M203.7,190.3c-0.1,1.4,0.3,2.9,0.9,4.1h-43 c0.7-1.3,1-2.7,0.9-4.1c-0.1-1.8-1.2-3.3-2.7-4.1H206C206.1,186.2,203.7,187.7,203.7,190.3L203.7,190.3z M212.4,183.5h-58.5v-2.1 h58.5V183.5z M214.8,179.6h-63.2V174h63.2V179.6z"></path> <path class="st0" d="M109.7,278h-5.6c-0.9-4.5-3.4-7.9-7.5-7.9c-4.7,0-8.1,5-8.1,10.2c0,7.7,4.3,11.6,9,11.6c3.9,0,5.6-4,6.5-8.2 h5.6v8.4c-3,3.4-7.3,5.3-12.8,5.3c-10,0-16-7.9-16-16.7c0-8.8,7.2-16.8,14.8-16.8c3.1-0.2,6.2,1,8.3,3.3l2.1-2.7h3.4V278H109.7z"></path> <path class="st0" d="M123.1,297c-7.2,0-11.3-4.5-11.3-12.1s4-12.1,11.3-12.1s11.3,4.5,11.3,12.1S130.5,297,123.1,297z M123.1,277.2 c-3,0-4.9,2-4.9,7.7s1.9,7.7,4.9,7.7s4.9-2,4.9-7.7C128,279.3,126.1,277.2,123.1,277.2L123.1,277.2z"></path> <path class="st0" d="M158.4,296.6H152v-14.2c0.1-1.2-0.1-2.4-0.7-3.4c-0.7-0.9-1.8-1.4-3-1.3c-1.3-0.1-2.5,0.5-3.3,1.5 c-0.7,1.2-1.1,2.6-0.9,4v13.3h-6.4v-18.7H135v-4.5h6.5l1.2,3c1.8-2.3,4.6-3.6,7.5-3.4c2.4-0.2,4.7,0.6,6.4,2.3c1.5,1.5,2,3.6,2,6.3 v15.3H158.4z"></path> <path class="st0" d="M169.6,297c-2.9,0.1-5.7-0.5-8.4-1.5l0.4-4.7c2.3,1.3,4.9,2,7.6,2c2.5,0,3.9-0.7,3.9-2.3 c0-4-12.1-1.5-12.1-10.1c0-4.6,3.9-7.3,9.6-7.3c2.2,0,4.4,0.3,6.5,0.9v4.5c-1.9-0.8-4-1.2-6-1.2c-2.4,0-4.1,0.8-4.1,2.4 c0,3.8,12.1,1.7,12.1,10.1C178.9,294.5,174.9,297,169.6,297z"></path> <path class="st0" d="M195.8,295.5c-1.8,1.1-3.8,1.6-5.8,1.5c-1.9,0.1-3.8-0.6-5.2-1.9c-1.2-1.3-1.7-3-1.7-6v-11.3h-3.7v-4.5h3.7 v-5.8l6.4-1.5v7.3h5.3v4.5h-5.3v11.3c0,2.3,0.6,3.4,2.5,3.4c1.4-0.1,2.7-0.5,3.9-1.3L195.8,295.5z"></path> <path class="st0" d="M212.6,278.1c-0.6-0.1-1.3-0.1-1.9-0.1c-1.2-0.1-2.5,0.4-3.3,1.3c-0.9,1.1-1.2,2.5-1.2,4.5v12.8h-6.4v-18.7 h-2.7v-4.5h6.6l1.2,3.3c1.2-2.3,3.6-3.7,6.2-3.7c0.5,0,1,0,1.5,0.1V278.1z"></path> <path class="st0" d="M238.7,295.6c-1.3,0.8-2.7,1.3-4.3,1.3c-1.7,0.2-3.4-0.8-4.1-2.4c-1.8,1.7-4.3,2.6-6.8,2.5 c-2.4,0.2-4.7-0.6-6.4-2.3c-1.5-1.5-2-3.6-2-6.3v-15.2h6.4v14.2c-0.1,1.2,0.1,2.4,0.7,3.4c0.7,0.9,1.8,1.4,3,1.3 c1.3,0.1,2.5-0.5,3.3-1.5c0.7-1.2,1.1-2.6,0.9-4v-13.3h6.4v17.9c0,0.9,0.4,1.4,1.2,1.4c0.6-0.1,1.2-0.3,1.8-0.6L238.7,295.6z"></path> <path class="st0" d="M263.1,283h-4.5c-0.8-3.2-2.7-5.5-5.9-5.5c-3.8,0-6.4,3.3-6.4,7.1c0,3.8,2.8,8.2,6.8,8.2c3.1,0,5-2.8,5.7-5.8 h4.5v5.5c-2.6,2.9-6.3,4.5-10.2,4.5c-7.9,0-13.3-4.9-13.3-12.1c-0.1-6.5,5.1-12,11.6-12.1c0.2,0,0.5,0,0.7,0 c2.4-0.2,4.9,0.7,6.6,2.4l1.8-1.9h2.7v9.7H263.1z"></path> <path class="st0" d="M281.3,295.5c-1.8,1.1-3.8,1.6-5.8,1.5c-1.9,0.1-3.8-0.6-5.2-1.9c-1.2-1.3-1.7-3-1.7-6v-11.3H265v-4.5h3.7 v-5.8l6.4-1.5v7.3h5.3v4.5H275v11.3c0,2.3,0.6,3.4,2.5,3.4c1.4-0.1,2.7-0.5,3.9-1.3L281.3,295.5z"></path> <path class="st0" d="M294.8,295.6c-1.3,0.8-2.8,1.2-4.3,1.2c-2,0-3.3-0.6-4-1.7c-0.6-1.2-0.9-2.5-0.8-3.8v-13.6H283v-4.5h9.1v17.9 c0,0.9,0.4,1.4,1.2,1.4c0.6-0.1,1.2-0.3,1.8-0.6L294.8,295.6z M288.8,270.5c-2,0-3.6-1.6-3.6-3.6c0-2,1.6-3.6,3.6-3.6 s3.6,1.6,3.6,3.6C292.3,268.9,290.7,270.4,288.8,270.5L288.8,270.5z"></path> <path class="st0" d="M308.1,297c-7.2,0-11.3-4.5-11.3-12.1s4-12.1,11.3-12.1s11.3,4.5,11.3,12.1S315.3,297,308.1,297z M308.1,277.2 c-3,0-4.9,2-4.9,7.7s1.9,7.7,4.9,7.7s4.9-2,4.9-7.7C313,279.3,311.1,277.2,308.1,277.2L308.1,277.2z"></path> <path class="st0" d="M343.3,296.6h-6.4v-14.2c0.1-1.2-0.1-2.4-0.7-3.4c-0.7-0.9-1.8-1.4-3-1.3c-1.3-0.1-2.5,0.5-3.3,1.5 c-0.7,1.2-1.1,2.6-0.9,4v13.3h-6.4v-18.7h-2.7v-4.5h6.5l1.2,3c1.8-2.3,4.6-3.6,7.5-3.4c2.4-0.2,4.7,0.6,6.4,2.3 c1.5,1.5,2,3.6,2,6.3v15.3H343.3z"></path> <path class="st0" d="M356.2,295.6c-1.3,0.8-2.8,1.2-4.3,1.2c-2,0-3.3-0.6-4-1.7c-0.6-1.2-0.9-2.5-0.8-3.8v-23.2h-2.7v-4.5h9.1V291 c0,0.9,0.4,1.4,1.2,1.4c0.6-0.1,1.2-0.3,1.8-0.6L356.2,295.6z"></path> <path class="st0" d="M369.4,295.6c-1.3,0.8-2.8,1.2-4.3,1.2c-2,0-3.3-0.6-4-1.7c-0.6-1.2-0.9-2.5-0.8-3.8v-13.6h-2.7v-4.5h9.1v17.9 c0,0.9,0.4,1.4,1.2,1.4c0.6-0.1,1.2-0.3,1.8-0.6L369.4,295.6z M363.2,270.5c-2,0-3.6-1.6-3.6-3.6c0-2,1.6-3.6,3.6-3.6 s3.6,1.6,3.6,3.6S365.2,270.5,363.2,270.5L363.2,270.5z"></path> <path class="st0" d="M393.4,296.6H387v-14.2c0.1-1.2-0.1-2.4-0.7-3.4c-0.7-0.9-1.8-1.4-3-1.3c-1.3-0.1-2.5,0.5-3.3,1.5 c-0.7,1.2-1.1,2.6-0.9,4v13.3h-6.4v-18.7H370v-4.5h6.5l1.2,3c1.8-2.3,4.6-3.6,7.5-3.4c2.4-0.2,4.7,0.6,6.4,2.3c1.5,1.5,2,3.6,2,6.3 v15.3H393.4z"></path> <path class="st0" d="M414,287H402c0.5,3.8,2.7,5.6,6.3,5.6c2.7,0,5.3-0.8,7.6-2.4l-0.2,4.4c-2.6,1.6-5.6,2.4-8.7,2.4 c-7.5,0-11.5-4.7-11.5-12c0-7.7,4.5-12.2,11-12.2c6.3,0,10.5,4.3,10.5,10.7C416.9,286,416.2,287,414,287z M406.3,277.2 c-2.5,0-4.3,1.9-4.5,6.2h8.5c0.4,0,0.5-0.1,0.5-0.5C410.7,279.3,409.1,277.2,406.3,277.2z"></path> <path class="st0" d="M93,321.9h-1.5l-0.5-0.7c-0.9,0.6-2,1-3.1,0.9c-3.7,0-5.2-2.7-5.2-6.3c0-4.1,2.1-6.3,5.6-6.3 c2.3-0.2,4.3,1.3,4.7,3.6l-2.8,0.5c-0.2-1.2-0.8-1.9-2-1.9c-1.7,0-2.6,1.8-2.6,4.1c0,2.8,0.9,4.4,3,4.4c0.7,0,1.3-0.2,1.9-0.5v-1.9 H89v-1.7h4.1v5.7H93z"></path> <path class="st0" d="M99.3,322.2c-3,0-4.6-1.8-4.6-4.9c0-3.1,1.7-4.9,4.6-4.9s4.6,1.9,4.6,4.9C103.9,320.3,102.3,322.2,99.3,322.2z M99.3,314.2c-1.2,0-1.9,0.8-1.9,3.1c0,2.3,0.7,3.1,1.9,3.1s1.9-0.8,1.9-3.1C101.2,315,100.5,314.2,99.3,314.2z"></path> <path class="st0" d="M109.5,321.6c-0.5,0.3-1.1,0.5-1.7,0.5c-0.6,0.1-1.3-0.2-1.7-0.7c-0.3-0.5-0.4-1-0.4-1.5v-9.4h-1.1v-1.8h3.7 v11c0,0.4,0.1,0.6,0.5,0.6c0.3,0,0.5-0.1,0.7-0.2L109.5,321.6z"></path> <path class="st0" d="M120.9,321.6c-0.5,0.3-1.2,0.5-1.8,0.5c-0.7,0.1-1.4-0.3-1.7-0.9c-0.7,0.7-1.6,1.1-2.6,1.1 c-2.4,0-3.9-1.7-3.9-4.5c0-3.2,1.9-5.3,5.1-5.3c0.4,0,0.7,0,1.1,0.1v-1.9H116v-1.8h3.7v11c0,0.4,0.1,0.6,0.5,0.6 c0.3,0,0.5-0.1,0.7-0.2V321.6z M117.2,314.1c-0.2,0-0.6-0.1-0.9-0.1c-1.8,0-2.7,1.3-2.7,3.6c0,1.5,0.6,2.7,1.9,2.7 c0.5,0,1-0.2,1.3-0.6c0.3-0.4,0.4-0.9,0.4-1.4v-4.1L117.2,314.1z"></path> <path class="st0" d="M139.7,321.9h-2.3v-8.1c-0.1,0.6-0.3,1.1-0.5,1.7l-2.7,6.4H133l-2.8-6.4c-0.2-0.5-0.4-1.1-0.5-1.7v8.1h-2.3 v-12.2h2.5l3.3,7.3c0.2,0.5,0.4,1,0.5,1.5l0,0c0.1-0.5,0.2-1.1,0.5-1.5l3.2-7.3h2.5v12.2H139.7z"></path> <path class="st0" d="M149.2,318.1h-4.9c0,1.2,1,2.3,2.2,2.3c0.1,0,0.2,0,0.3,0c1.1,0,2.2-0.3,3.1-0.9l-0.1,1.8 c-1.1,0.6-2.3,1-3.6,0.9c-3,0-4.6-1.9-4.6-4.9c0-3,1.8-4.9,4.4-4.9c2.2-0.2,4.1,1.5,4.3,3.7c0,0.2,0,0.4,0,0.6 C150.4,317.8,150,318.1,149.2,318.1z M146.1,314.2c-0.9,0-1.8,0.7-1.8,2.5h3.4c0.1,0,0.1,0,0.1-0.2 C147.9,315,147.2,314.2,146.1,314.2L146.1,314.2z"></path> <path class="st0" d="M166.5,321.9h-2.6v-5.7c0-0.5,0-1-0.2-1.4c-0.3-0.3-0.7-0.5-1.2-0.5c-0.5,0-1,0.2-1.3,0.6 c-0.3,0.5-0.4,1.1-0.4,1.7v5.5h-2.6v-5.8c0-0.5,0-1-0.2-1.4c-0.3-0.3-0.7-0.5-1.2-0.5c-0.5,0-1,0.2-1.3,0.6 c-0.3,0.5-0.4,1.1-0.4,1.7v5.5h-2.6v-7.6h-1.1v-1.8h2.6l0.5,1.2c0.7-0.9,1.8-1.5,3-1.4c1.1-0.1,2.2,0.4,2.8,1.3 c0.7-0.8,1.7-1.3,2.8-1.3c1-0.1,2.1,0.4,2.7,1.2c0.4,0.7,0.6,1.5,0.6,2.3L166.5,321.9L166.5,321.9z"></path> <path class="st0" d="M176.6,320.8c-1,1-2.4,1.5-3.8,1.3c-1.3,0-2.6-0.2-3.8-0.6v-11h-1.1v-1.8h3.7v4.6c0.7-0.6,1.6-1,2.5-0.9 c2.5,0,3.8,1.8,3.8,4.7C177.9,318.5,177.4,319.8,176.6,320.8z M173.4,314.3c-0.5,0-1,0.1-1.3,0.5c-0.3,0.4-0.5,0.9-0.5,1.4v4 c0.3,0.1,0.7,0.2,1.1,0.2c0.6,0.1,1.1-0.1,1.5-0.5c0.6-0.8,0.9-1.7,0.8-2.7C175.1,315.3,174.6,314.3,173.4,314.3z"></path> <path class="st0" d="M186.5,318.1h-5c0,1.2,1,2.3,2.2,2.3c0.1,0,0.2,0,0.3,0c1.1,0,2.2-0.3,3.1-0.9l-0.1,1.8 c-1.1,0.6-2.3,1-3.6,0.9c-3,0-4.6-1.9-4.6-4.9c0-3,1.8-4.9,4.4-4.9c2.2-0.2,4.1,1.5,4.3,3.7c0,0.2,0,0.4,0,0.6 C187.6,317.8,187.4,318.1,186.5,318.1z M183.3,314.2c-0.9,0-1.8,0.7-1.8,2.5h3.4c0.1,0,0.1,0,0.1-0.2 C185.1,315,184.5,314.2,183.3,314.2L183.3,314.2z"></path> <path class="st0" d="M194.9,314.4h-0.7c-0.5-0.1-1,0.1-1.3,0.5c-0.4,0.6-0.5,1.2-0.5,1.9v5.2h-2.6v-7.6h-1.2v-1.8h2.7l0.5,1.3 c0.5-0.9,1.4-1.5,2.5-1.5h0.6V314.4z"></path> </g> </svg> 