<?xml version="1.0" encoding="UTF-8"?> <!-- Generator: Adobe Illustrator 24.1.2, SVG Export Plug-In . SVG Version: 6.00 Build 0) --> <svg xmlns="http://www.w3.org/2000/svg" xmlns:xlink="http://www.w3.org/1999/xlink" version="1.1" id="Layer_1" x="0px" y="0px" viewBox="0 0 220 220" style="enable-background:new 0 0 220 220;" xml:space="preserve"> <style type="text/css"> .st0{fill:#FCC433;} .st1{fill:#525758;} </style> <g> <rect x="9.6" y="30.9" class="st0" width="132.7" height="95.3"></rect> <g> <path class="st1" d="M80.9,140c-1.1-1.9-3.2-3.2-5.4-3.2c-2.1,0-4.3,1.3-5.4,3.2l-24.9,44c-1.1,1.9-0.3,4,1.3,4.8 c1.9,1.1,4,0.5,5.1-1.3l20.4-35V198c0,2.1,1.6,3.7,3.5,3.7c2.1,0,3.5-1.6,3.5-3.7v-45.6l20.6,35c1.1,1.9,3.2,2.4,5.1,1.3 c1.6-1.1,2.4-3.2,1.3-4.8L80.9,140z"></path> <path class="st1" d="M178.5,24.7c10.1,0,18.2,8.1,18.2,18c0,9.9-8.2,18-18.2,18c-10.1,0-18.2-8.1-18.2-18 C160.3,32.8,168.4,24.7,178.5,24.7"></path> <path class="st1" d="M57.3,24.7"></path> <path class="st1" d="M93.8,24.7"></path> <path class="st1" d="M137.7,118.5c0,2.1-1.9,3.7-3.8,3.7H17.1c-2.1,0-3.8-1.6-3.8-3.7V39.3c0-2.1,1.9-3.4,3.8-3.4H134 c2.1,0,3.8,1.6,3.8,3.4v31.4l10.7-1.9V31.6c0-4-2.9-6.6-7-6.6H93.8v-0.3c0-2.9-2.4-5.3-5.4-5.3H63c-2.9,0-5.4,2.4-5.4,5.6v0.3h-48 c-4,0-7,2.6-7,6.6v94.3c0,4,2.9,7.1,7,7.1h131.9c4,0,7-3.4,7-7.1V73.5l-10.7,1.9V118.5z"></path> <path class="st1" d="M216.5,121.4c-6.4-17-13.1-33.6-19.6-50.6c-0.5-1.3-1.1-2.6-1.9-3.7c-1.1-1.3-2.7-2.9-4.8-4 c-3.5,1.9-7.5,3.2-11.8,3.2c-5.1,0-9.6-1.6-13.4-4.2l-52.8,9.3c-4,0.8-6.7,4.5-5.9,8.5c0.8,4,4.6,6.6,8.3,5.8l45.3-7.9v116 c0,4.5,3.8,8.2,8.3,8.2c4.6,0,8-3.7,8-7.9v-51.9c0-1.1,0.5-1.9,1.6-1.9c1.1,0,1.9,0.8,1.9,1.9v52.2c0,4,3.8,7.2,8.3,7.2 c4.6,0,8.3-3.2,8.3-7.2v-83.4l6.2,15.9c1.6,3.7,5.9,5.6,9.6,4C216.3,129.4,217.9,125.1,216.5,121.4"></path> </g> </g> </svg> 