<?xml version="1.0" encoding="UTF-8"?> <!-- Generator: Adobe Illustrator 24.1.2, SVG Export Plug-In . SVG Version: 6.00 Build 0) --> <svg xmlns="http://www.w3.org/2000/svg" xmlns:xlink="http://www.w3.org/1999/xlink" version="1.1" id="Layer_1" x="0px" y="0px" viewBox="0 0 220 220" style="enable-background:new 0 0 220 220;" xml:space="preserve"> <style type="text/css"> .st0{fill:#525758;} .st1{fill:#FFFFFF;} .st2{fill:#FCC433;} </style> <g> <path class="st0" d="M70.3,108.2c-0.1-0.1-0.2-0.2-0.2-0.2c-5.7-5.7-14.5-6.6-21.2-2.7l-0.4-37.7c0-9.6-7.8-17.4-17.4-17.4 s-17.4,7.8-17.4,17.4v66.6c0,2.9,1,5.8,2.8,8L52,187.4c0.6,0.8,0.9,1.7,0.9,2.7v12.2c0,2.4,2,4.3,4.3,4.3h43.5c2.4,0,4.3-2,4.3-4.3 v-48.9c0-3.1-1.1-6.2-3.2-8.5L70.3,108.2z M23.4,136.8c-0.6-0.8-0.9-1.7-0.9-2.7V67.5c0-4.8,3.9-8.7,8.7-8.7s8.7,3.9,8.7,8.7 l0.5,52.7v0c0,4.5,1.8,8.8,5,12.1L57,146.2c1.5,1.8,4.3,2.1,6.1,0.5c1.8-1.5,2.1-4.3,0.5-6.1l-11.7-13.9c-0.1-0.1-0.2-0.2-0.2-0.3 c-1.7-1.7-2.5-3.8-2.5-6.2s0.9-4.5,2.5-6.2c3.3-3.3,8.8-3.4,12.2-0.1l31.5,36.5c0.7,0.8,1.1,1.8,1.1,2.8V198H61.6v-7.9 c0-2.9-1-5.8-2.8-8L23.4,136.8z M192,50.1c-9.6,0-17.4,7.8-17.4,17.3l-0.4,37.8c-2.7-1.6-5.7-2.4-8.8-2.4c-4.7,0-9,1.8-12.3,5.1 c-0.1,0.1-0.2,0.2-0.2,0.2l-31.6,36.7c-2,2.4-3.2,5.4-3.2,8.5v48.9c0,2.4,2,4.3,4.3,4.3h43.5c2.4,0,4.3-2,4.3-4.3v-12.2 c0-1,0.3-1.9,0.9-2.7l35.4-45.3c1.8-2.3,2.8-5.1,2.8-8V67.5C209.4,57.9,201.6,50.1,192,50.1z M200.7,134.1c0,1-0.3,1.9-0.9,2.7 L164.4,182c-1.8,2.3-2.8,5.1-2.8,8v7.9h-34.8v-44.6c0-1,0.4-2,1-2.8l31.5-36.5c1.6-1.6,3.8-2.4,6-2.4c2.3,0,4.5,0.9,6.2,2.5 c3.4,3.4,3.4,8.9,0,12.3c-0.1,0.1-0.2,0.2-0.2,0.3l-11.7,13.9c-1.5,1.8-1.3,4.6,0.5,6.1c1.8,1.5,4.6,1.3,6.1-0.5l11.6-13.8 c3.2-3.3,4.9-7.6,4.9-11.9c0-0.1,0-0.2,0-0.2l0.5-52.8c0-4.8,3.9-8.7,8.7-8.7s8.7,3.9,8.7,8.7V134.1z"></path> <path class="st1" d="M23.4,136.8c-0.6-0.8-0.9-1.7-0.9-2.7V67.5c0-4.8,3.9-8.7,8.7-8.7s8.7,3.9,8.7,8.7l0.5,52.7v0 c0,4.5,1.8,8.8,5,12.1L57,146.2c1.5,1.8,4.3,2.1,6.1,0.5c1.8-1.5,2.1-4.3,0.5-6.1l-11.7-13.9c-0.1-0.1-0.2-0.2-0.2-0.3 c-1.7-1.7-2.5-3.8-2.5-6.2s0.9-4.5,2.5-6.2c3.3-3.3,8.8-3.4,12.2-0.1l31.5,36.5c0.7,0.8,1.1,1.8,1.1,2.8V198H61.6v-7.9 c0-2.9-1-5.8-2.8-8L23.4,136.8z M200.7,134.1c0,1-0.3,1.9-0.9,2.7L164.4,182c-1.8,2.3-2.8,5.1-2.8,8v7.9h-34.8v-44.6 c0-1,0.4-2,1-2.8l31.5-36.5c1.6-1.6,3.8-2.4,6-2.4c2.3,0,4.5,0.9,6.2,2.5c3.4,3.4,3.4,8.9,0,12.3c-0.1,0.1-0.2,0.2-0.2,0.3 l-11.7,13.9c-1.5,1.8-1.3,4.6,0.5,6.1c1.8,1.5,4.6,1.3,6.1-0.5l11.6-13.8c3.2-3.3,4.9-7.6,4.9-11.9c0-0.1,0-0.2,0-0.2l0.5-52.8 c0-4.8,3.9-8.7,8.7-8.7s8.7,3.9,8.7,8.7V134.1z"></path> <path class="st0" d="M72.5,74H92v19.6c0,2.4,2,4.3,4.3,4.3h30.4c2.4,0,4.3-2,4.3-4.3V74h19.6c2.4,0,4.3-2,4.3-4.3V39.3 c0-2.4-2-4.3-4.3-4.3h-19.6V15.3c0-2.4-2-4.3-4.3-4.3H96.4C94,11,92,13,92,15.3v19.6H72.5c-2.4,0-4.3,2-4.3,4.3v30.4 C68.1,72.1,70.1,74,72.5,74z"></path> <path class="st2" d="M76.8,43.6h19.6c2.4,0,4.3-2,4.3-4.3V19.7h21.7v19.6c0,2.4,2,4.3,4.3,4.3h19.6v21.7h-19.6 c-2.4,0-4.3,2-4.3,4.3v19.6h-21.7V69.7c0-2.4-2-4.3-4.3-4.3H76.8V43.6z"></path> </g> </svg> 