<?xml version="1.0" encoding="UTF-8"?> <svg xmlns="http://www.w3.org/2000/svg" id="Layer_1" data-name="Layer 1" viewBox="0 0 183.1 183.82"><defs><style>.cls-1{fill:#fbc434;}.cls-2{fill:#535859;}</style></defs><path class="cls-1" d="M292.6,139s-31.6-4-32-4.7-21.4-13.9-21.4-13.9H141.5l.2,19.1L139.8,160l-12,14.4L121.5,212v73.3H150l23.8,10.4s22.1,6.4,23.6,7.8,88.5,0,88.5,0V269.8l8.7-15.8,10-19.9v-95h-12Zm-69.2,83H203.3V201.9h20.1Z" transform="translate(-121.5 -120.3)"></path><path class="cls-2" d="M190,128.1h45a31.18,31.18,0,0,1,19.4,6.8,39.32,39.32,0,0,0,24.1,8.5h25.9v-7.6H278.5a31.18,31.18,0,0,1-19.4-6.8,39.32,39.32,0,0,0-24.1-8.5H190a11.39,11.39,0,0,0-11.4,11.4,9.86,9.86,0,0,0,.7,3.8h-.7a11.39,11.39,0,0,0-11.4,11.4,12.17,12.17,0,0,0,.7,3.8h-.7a11.4,11.4,0,0,0,0,22.8h.7a9.86,9.86,0,0,0-.7,3.8,11.39,11.39,0,0,0,11.4,11.4h19.1v26.7a3.8,3.8,0,1,1-7.6,0V196.5h-7.6v49.6a3.8,3.8,0,0,1-7.6,0V208h-7.6v49.6a3.8,3.8,0,1,1-7.6,0V208h-7.6v38.1a3.8,3.8,0,0,1-7.6,0V208h-7.6v26.7a3.8,3.8,0,0,1-7.6,0v-45a31.18,31.18,0,0,1,6.8-19.4,38.89,38.89,0,0,0,8.5-24.1V120.3H137v25.9a31.18,31.18,0,0,1-6.8,19.4,38.89,38.89,0,0,0-8.5,24.1v45a11.39,11.39,0,0,0,11.4,11.4,9.86,9.86,0,0,0,3.8-.7v.7a11.39,11.39,0,0,0,11.4,11.4,9.86,9.86,0,0,0,3.8-.7v.7a11.4,11.4,0,0,0,22.8,0V257a9.86,9.86,0,0,0,3.8.7,11.39,11.39,0,0,0,11.4-11.4V227.2h26.7a3.8,3.8,0,0,1,0,7.6H197.7v7.6h49.6a3.8,3.8,0,0,1,0,7.6H209.2v7.6h49.6a3.8,3.8,0,1,1,0,7.6H209.2v7.6h38.1a3.8,3.8,0,0,1,0,7.6H209.2V288h26.7a3.8,3.8,0,0,1,0,7.6h-45a31.18,31.18,0,0,1-19.4-6.8,39.1,39.1,0,0,0-24.1-8.5H121.5v7.6h25.9a31.18,31.18,0,0,1,19.4,6.8,39.1,39.1,0,0,0,24.1,8.5h45a11.39,11.39,0,0,0,11.4-11.4,9.86,9.86,0,0,0-.7-3.8h.7a11.39,11.39,0,0,0,11.4-11.4,9.86,9.86,0,0,0-.7-3.8h.7a11.4,11.4,0,1,0,0-22.8H258a9.86,9.86,0,0,0,.7-3.8,11.39,11.39,0,0,0-11.4-11.4H228.2V208.1a3.8,3.8,0,0,1,7.6,0v19.1h7.6V177.6a3.8,3.8,0,0,1,7.6,0v38.1h7.6V166.1a3.8,3.8,0,0,1,7.6,0v49.6h7.6V177.6a3.8,3.8,0,1,1,7.6,0v38.1H289V189a3.8,3.8,0,0,1,7.6,0v45a31.18,31.18,0,0,1-6.8,19.4,39.1,39.1,0,0,0-8.5,24.1v25.9h7.6V277.5a31.18,31.18,0,0,1,6.8-19.4,39.1,39.1,0,0,0,8.5-24.1V189a11.39,11.39,0,0,0-11.4-11.4,12.17,12.17,0,0,0-3.8.7v-.7a11.39,11.39,0,0,0-11.4-11.4,9.86,9.86,0,0,0-3.8.7v-.7a11.4,11.4,0,0,0-22.8,0v.7a9.86,9.86,0,0,0-3.8-.7,11.39,11.39,0,0,0-11.4,11.4v19.1H209.1a3.8,3.8,0,1,1,0-7.6h19.1v-7.6H178.6a3.8,3.8,0,1,1,0-7.6h38.1v-7.6H167.1a3.8,3.8,0,1,1,0-7.6h49.6v-7.6H178.6a3.8,3.8,0,1,1,0-7.6h38.1v-7.6H190a3.8,3.8,0,0,1-3.8-3.8A4,4,0,0,1,190,128.1Zm19.1,76.2h12.1a9.86,9.86,0,0,0-.7,3.8v12.1a9.86,9.86,0,0,0-3.8-.7H204.6a9.86,9.86,0,0,0,.7-3.8V203.6A9.86,9.86,0,0,0,209.1,204.3Z" transform="translate(-121.5 -120.3)"></path></svg> 