<?xml version="1.0" encoding="UTF-8"?> <!-- Generator: Adobe Illustrator 24.1.2, SVG Export Plug-In . SVG Version: 6.00 Build 0) --> <svg xmlns="http://www.w3.org/2000/svg" xmlns:xlink="http://www.w3.org/1999/xlink" version="1.1" id="Layer_1" x="0px" y="0px" viewBox="0 0 425.2 425.2" style="enable-background:new 0 0 425.2 425.2;" xml:space="preserve"> <style type="text/css"> .st0{fill:#FFC630;} .st1{fill:#FFFFFF;} </style> <path class="st0" d="M340.7,272.4l-0.1,0.2c-13.8,29.5-37.4,53.6-66.6,67.8l-7.2-14.8c25.7-12.6,46.6-33.9,58.8-60l0.1-0.2 L340.7,272.4L340.7,272.4z M346,259.5l-15.5-5.5c9.6-27.2,9.6-57.1-0.2-84.2l15.5-5.6C356.8,195,356.8,228.8,346,259.5z M261.3,345.9c-30.7,11.5-64.6,11.9-95.2,1.1l5.4-15.6c27.1,9.5,57,9.2,84.1-1L261.3,345.9z M340.6,151.5l-15,7 c-12.3-26.1-33.4-47.1-59.4-59.2l6.9-15l0.1,0C302.7,98.1,326.5,122,340.6,151.5z M160.2,326.8l-7,14.9l-0.3-0.1 c-29.5-13.8-53.5-37.7-67.5-67.3l14.9-7.1c12.3,26.2,33.5,47.2,59.5,59.4L160.2,326.8z M254.7,94.6c-27.1-9.6-57-9.2-84.1,0.9 L164.9,80c30.7-11.5,64.6-11.8,95.3-1L254.7,94.6z M95.7,255.9l-15.5,5.6c-10.9-30.7-10.9-64.5-0.1-95.3l15.5,5.5 C86.1,198.9,86.1,228.8,95.7,255.9z M159.3,100.2c-25.8,12.5-46.7,33.9-59,60.1l-15-6.9l0-0.1c13.8-29.5,37.5-53.7,66.7-67.8 L159.3,100.2z"></path> <path class="st0" d="M161.6,371.4c-4.6-1.5-9.1-3.2-13.4-5l6.4-15.2c4,1.7,8,3.1,12.1,4.5c25.3,8.2,52.4,9.7,78.2,4.3l3.4,16.1 C219.6,382.1,189.7,380.5,161.6,371.4z M135,360.2c-30.5-16-55-40.7-71-71.2l14.6-7.6c14.4,27.6,36.5,49.8,64,64.2L135,360.2z M262.4,372.5l-4.8-15.7c29.9-9,55.9-26.7,74.9-51l13,10.2C324.2,342.9,295.5,362.5,262.4,372.5z M57.9,275.8 c-13.3-32-16.2-66.7-8.6-100.1l16.1,3.6c-6.9,30.3-4.3,61.4,7.7,90.2L57.9,275.8z M354,304.1l-13.8-9c7.1-10.9,12.8-22.8,16.8-35.3 c5.5-16.9,7.9-34.3,7.2-51.9l16.4-0.7c0.8,19.5-1.9,38.9-8,57.6C368.2,278.7,361.9,291.9,354,304.1z M68.9,166.7l-15.7-5.1l0.1-0.3 c10.7-32.9,31-61.2,58.6-81.8l9.8,13.2c-24.9,18.5-43.2,44-52.8,73.5L68.9,166.7z M363.1,194.8c-4-30.7-17.2-59.1-38.2-82.2 l12.2-11.1c23.3,25.5,37.9,57.1,42.3,91.1L363.1,194.8z M132.7,85.4l-8.6-14c29.3-18.1,63-26.7,97.4-24.7L220.6,63 C189.5,61.3,159.1,69,132.7,85.4z M315.6,103.2c-16.2-15-35.1-26-56.3-32.9c-8.4-2.7-17.1-4.7-25.7-5.9L236,48 c9.6,1.3,19.1,3.6,28.5,6.6c23.4,7.6,44.4,19.9,62.4,36.4L315.6,103.2z"></path> <g> <path class="st1" d="M216.4,128.6l-1,0.4h-0.1l-40,14.7l-4-9.5l41.3-15.9L216.4,128.6z M227.5,147.6c3,0.3,5.5,2.3,6.5,5.1 l9.2,21.2c1.1,2.8,0.7,5.8-1,8.3l-3.6-1.6c-6.4-2.9-14-0.8-18.1,4.9l-9.4-4.2c-4.9-2.3-10.8-0.5-13.6,4.1c-0.9,1.7-1.4,3.5-1.4,5.5 c-0.6-0.2-1.2-0.4-1.8-0.5c-0.2,0-0.4,0-0.6-0.1c-0.4-0.1-0.8-0.1-1.2-0.1c-0.2,0-0.5,0-0.7,0c-0.4,0-0.7,0-1.1,0.1 c-0.2,0-0.5,0.1-0.7,0.2c-0.3,0.1-0.7,0.1-1,0.3c-0.2,0.1-0.5,0.2-0.7,0.3c-0.3,0.1-0.6,0.3-0.9,0.4c-0.2,0.1-0.4,0.3-0.7,0.4 c-0.3,0.2-0.5,0.3-0.8,0.5c-0.2,0.2-0.4,0.3-0.6,0.5c-0.2,0.2-0.5,0.4-0.7,0.7c-0.2,0.2-0.3,0.4-0.5,0.6c-0.1,0.1-0.2,0.2-0.3,0.3 l-7.4-17.9c-1.5-3.9-0.8-8.4,1.8-11.7l5.4-6.9c0.6-0.8,0.8-1.9,0.4-2.9l-2.6-6.8l34.4-13.1C217.6,139,222.1,147.1,227.5,147.6 L227.5,147.6z M241.8,188.4l35.4,15.8c3.8,1.7,6.5,5.3,7,9.5c0,0.2,0.1,0.5,0.2,0.7l2.3,6c0.3,0.7,0.8,1.3,1.6,1.7l3.9,1.7 L276.5,259l-0.6-0.3c-4.7-2.1-10.3-1.4-14.3,1.9c-2.3,1.9-5.4,2.3-8.1,1.1l-26.4-11.8c-3.4-1.5-5.5-5.1-5.2-8.8l16.9,7.5l2.4-5.4 l-50.9-22.6c-2.2-0.9-3.4-3.3-2.8-5.5c0.6-1.2,1.5-2.1,2.7-2.6c1.1-0.5,2.3-0.6,3.4-0.1l40.4,18l2.4-5.4l-45.8-20.4 c-2.2-1-3.3-3.6-2.3-5.9c0.1-0.1,0.1-0.3,0.2-0.4c1.3-2,3.9-2.7,6-1.6l45.5,20.2l2.4-5.4l-37.7-16.8c-2.2-1-3.3-3.6-2.3-5.9 c0.1-0.1,0.1-0.3,0.2-0.4c1.3-2,3.9-2.7,6-1.7l37.3,16.6l2.4-5.4l-22.3-10c2.6-2.7,6.6-3.5,10-2L241.8,188.4z M308.1,224.4 l-20.5,46l-8.1-3.6l20.5-46L308.1,224.4z M224.7,255.5l1.1,0.5c-0.3,0.2-0.7,0.4-1.1,0.6l-32.1,10.8c-3.9,1.5-8.4,0.8-11.7-1.8 l-6.9-5.4c-0.8-0.6-1.9-0.8-2.9-0.4l-10.8,4.2l-12.7-33.1l5-1.8c1.5-0.5,2.3-2.1,1.9-3.6l-0.8-3c0.5-3.5,2.8-6.4,6.1-7.6l22.5-8.7 l1.5,3.7c-0.6,0.7-1.1,1.5-1.5,2.4c-0.3,0.5-0.5,1-0.7,1.6c-1.5,5.1,1.2,10.5,6.3,12.3l28.3,12.6 C214.8,245.6,218.3,252.6,224.7,255.5 M155.6,268.9c0.1,0.4,0.4,0.7,0.6,1l0.3,0.7l-10.1,3.9L129,229.2l10.1-3.9l1.5,3.8 c0,0.4,0,0.8,0.2,1.1L155.6,268.9z M166.3,129.8c-0.8,0.3-1.4,0.9-1.7,1.6s-0.3,1.6,0,2.3l6.3,14.9c0.6,1.5,2.3,2.2,3.8,1.6 l1.1-0.4l2.2,5.8l-4.4,5.6c-3.9,5-4.9,11.7-2.6,17.6l9,21.9l-22.4,8.6c-5.5,2.1-9.4,7.2-9.9,13.1c0,0.4,0,0.7,0.1,1l0.2,0.9 l-2.6,0.9l-1.9-4.9c-0.6-1.5-2.3-2.3-3.8-1.7l-15.6,6c-1.5,0.6-2.3,2.3-1.7,3.8l19.5,50.9c0.6,1.5,2.3,2.3,3.8,1.7l15.6-6 c1.5-0.6,2.3-2.3,1.7-3.8l-0.7-1.8l9.3-3.6l5.6,4.4c4.9,3.9,11.5,4.9,17.4,2.7l32.1-10.8c1.9-0.8,3.6-2,5-3.5l19.4,8.6 c4.7,2.1,10.3,1.4,14.3-1.9c2.3-1.9,5.4-2.3,8.1-1.1l0.6,0.3l-1.2,2.7c-0.7,1.5,0,3.2,1.5,3.9l13.5,6c1.5,0.7,3.2,0,3.9-1.5 l22.9-51.5c0.7-1.5,0-3.2-1.5-3.9l-13.5-6c-1.5-0.7-3.2,0-3.9,1.5l-1.2,2.7l-2.8-1.2l-1.7-4.5c-0.9-6.1-4.8-11.3-10.5-13.9 l-32-14.2c2.5-3.8,2.9-8.7,1.1-12.9l-9.2-21.2c-1.8-4.9-6.3-8.2-11.4-8.7c-1.5-0.1-4.7-4.4-6.8-8.6c0.7-0.3,1.3-0.8,1.6-1.5l0,0 c0.3-0.7,0.3-1.5,0.1-2.2l-5.9-15.8c-0.6-1.5-2.3-2.3-3.8-1.7l0,0L166.3,129.8z"></path> </g> </svg> 