<?xml version="1.0" encoding="UTF-8"?> <!-- Generator: Adobe Illustrator 24.1.2, SVG Export Plug-In . SVG Version: 6.00 Build 0) --> <svg xmlns="http://www.w3.org/2000/svg" xmlns:xlink="http://www.w3.org/1999/xlink" version="1.1" id="Layer_1" x="0px" y="0px" viewBox="0 0 285 220" style="enable-background:new 0 0 285 220;" xml:space="preserve"> <style type="text/css"> .st0{fill:#0A5781;} .st1{fill:#FFFFFF;} </style> <rect x="29.9" y="38.6" class="st0" width="14.5" height="14.5"></rect> <rect x="58.9" y="38.6" class="st0" width="14.5" height="14.5"></rect> <rect x="44.4" y="53.1" class="st0" width="14.5" height="14.5"></rect> <rect x="15.4" y="67.6" class="st0" width="14.5" height="14.5"></rect> <rect x="58.9" y="67.6" class="st0" width="14.5" height="14.5"></rect> <rect x="58.9" y="96.7" class="st0" width="14.5" height="14.5"></rect> <rect x="44.4" y="111.2" class="st0" width="14.5" height="14.5"></rect> <rect x="58.9" y="125.7" class="st0" width="14.5" height="14.5"></rect> <rect x="29.9" y="125.7" class="st0" width="14.5" height="14.5"></rect> <rect x="44.4" y="140.1" class="st0" width="14.5" height="14.5"></rect> <rect x="58.9" y="154.6" class="st0" width="14.5" height="14.5"></rect> <polygon class="st0" points="73.4,38.6 73.4,67.6 87.9,67.6 87.9,82.1 73.4,82.1 73.4,154.6 87.9,154.6 87.9,169.2 73.4,169.2 73.4,181.4 258.4,181.4 271,168.4 271,38.6 "></polygon> <rect x="44.4" y="82.1" class="st0" width="14.5" height="14.5"></rect> <polygon class="st1" points="117.8,71.5 117.9,71.5 117.9,58.2 122.6,58.2 122.6,80.1 117.8,80.1 110.5,66.7 110.4,66.7 110.4,80.1 105.7,80.1 105.7,58.2 110.8,58.2 "></polygon> <path class="st1" d="M137.6,70.1l-2.2-7.2h-0.1l-2.2,7.2H137.6z M131.8,73.9l-2.1,6.2h-4.8l7.8-21.9h5.1l7.8,21.9h-4.8l-2.1-6.2 H131.8z"></path> <polygon class="st1" points="150.7,62 144.5,62 144.5,58.2 161.7,58.2 161.7,62 155.4,62 155.4,80.1 150.7,80.1 "></polygon> <rect x="164.3" y="58.2" class="st1" width="4.7" height="21.9"></rect> <path class="st1" d="M177.5,71.6c0,4.2,1.9,4.9,4.9,4.9c3.4,0,4.9-1.1,4.9-4.9v-5c0-3.8-1.4-4.9-4.9-4.9c-3,0-4.9,0.6-4.9,4.9 L177.5,71.6L177.5,71.6z M192,71.6c0,3.2-0.2,8.7-9.6,8.7s-9.6-5.5-9.6-8.7v-5c0-3.2,0.2-8.7,9.6-8.7c9.4,0,9.6,5.5,9.6,8.7V71.6z"></path> <polygon class="st1" points="207.9,71.5 208,71.5 208,58.2 212.8,58.2 212.8,80.1 207.9,80.1 200.6,66.7 200.5,66.7 200.5,80.1 195.8,80.1 195.8,58.2 200.9,58.2 "></polygon> <path class="st1" d="M227.7,70.1l-2.2-7.2h-0.1l-2.2,7.2H227.7z M221.9,73.9l-2.1,6.2H215l7.8-21.9h5.1l7.8,21.9h-4.8l-2.1-6.2 H221.9z"></path> <polygon class="st1" points="238.2,58.2 242.9,58.2 242.9,76.2 251.8,76.2 251.8,80.1 238.2,80.1 "></polygon> <path class="st1" d="M114.9,103.7c1.3,0.1,2.4-0.8,2.5-2c0-0.2,0-0.3,0-0.5v-0.6c0-2.3-1.4-2.6-2.6-2.6h-4.4v5.6h4.5V103.7z M110.4,94.7h4.1c1,0,2-0.5,2-2.4v-0.5c0-1.8-1-2.2-2-2.2h-4.1V94.7z M105.7,107.6V85.7h8.8c3.5,0,6.7,0.5,6.7,5.9v0.6 c0.1,1.7-0.9,3.3-2.5,3.9v0.1c2,0.5,3.5,2.4,3.4,4.5v1c-0.1,5.5-4,6-7.2,6h-9.2V107.6z"></path> <path class="st1" d="M142.5,99.4c0,6.1-2,8.5-8.5,8.5h-0.2c-6.7,0-8.5-2.7-8.5-8.5V85.7h4.7v13.7c0,3.1,0.8,4.6,3.8,4.6h0.2 c2.8,0,3.8-1.3,3.8-4.6V85.7h4.7V99.4z"></path> <path class="st1" d="M160.6,90.1c-2-0.5-4-0.8-6-0.8c-2.2,0-3.6,0.4-3.6,2.2c0,1.1,0.9,1.7,2.5,2.5l3.8,1.9c2.6,1.4,4.1,3,4.1,6.2 c0,4.7-3.2,5.8-8.6,5.8c-2.3-0.1-4.6-0.4-6.9-1v-4c2.2,0.7,4.6,1.1,6.9,1.2c2.4,0,3.8-0.4,3.8-1.9c0.1-1.1-0.6-2.1-1.6-2.5l-4-2 c-3.1-1.6-4.7-2.9-4.7-6.2c0-4.8,3-6,8.4-6c2,0,4,0.3,6,0.9V90L160.6,90.1z"></path> <rect x="164.7" y="85.7" class="st1" width="4.7" height="21.9"></rect> <polygon class="st1" points="185.9,99 186,99 186,85.7 190.7,85.7 190.7,107.6 185.9,107.6 178.6,94.2 178.5,94.2 178.5,107.6 173.8,107.6 173.8,85.7 178.9,85.7 "></polygon> <polygon class="st1" points="195.1,107.6 195.1,85.7 209.5,85.7 209.5,89.6 199.8,89.6 199.8,94.9 208.4,94.9 208.4,98.7 199.8,98.7 199.8,103.7 209.8,103.7 209.8,107.6 "></polygon> <path class="st1" d="M227.3,90.1c-2-0.5-4-0.8-6-0.8c-2.2,0-3.6,0.4-3.6,2.2c0,1.1,0.9,1.7,2.5,2.5l3.8,1.9c2.6,1.4,4.1,3,4.1,6.2 c0,4.7-3.2,5.8-8.6,5.8c-2.3-0.1-4.6-0.4-6.9-1v-4c2.2,0.7,4.6,1.1,6.9,1.2c2.4,0,3.8-0.4,3.8-1.9c0.1-1.1-0.6-2.1-1.6-2.5l-4-2 c-3.1-1.6-4.7-2.9-4.7-6.2c0-4.8,3-6,8.4-6c2,0,4,0.3,6,0.9L227.3,90.1L227.3,90.1z"></path> <path class="st1" d="M245.3,90.1c-2-0.5-4-0.8-6-0.8c-2.2,0-3.6,0.4-3.6,2.2c0,1.1,0.9,1.7,2.5,2.5l3.8,1.9c2.6,1.4,4.1,3,4.1,6.2 c0,4.7-3.2,5.8-8.6,5.8c-2.3-0.1-4.6-0.4-6.9-1v-4c2.2,0.7,4.6,1.1,6.9,1.2c2.4,0,3.8-0.4,3.8-1.9c0.1-1.1-0.6-2.1-1.6-2.5l-4-2 c-3.1-1.6-4.7-2.9-4.7-6.2c0-4.8,3-6,8.4-6c2,0,4,0.3,6,0.9L245.3,90.1L245.3,90.1z"></path> <path class="st1" d="M105,121.6c0-2.9,0.3-8.5,9.6-8.5c2.1,0,4.3,0.2,6.4,0.6v3.8c-2.1-0.3-4.3-0.5-6.4-0.5c-3.2,0-4.9,1.4-4.9,5v5 c0,3.5,1.5,4.7,4.9,4.7c2.1,0,4.3-0.1,6.4-0.4v3.8c-2.1,0.3-4.3,0.5-6.4,0.5c-9.3,0-9.6-5.7-9.6-8.5V121.6z"></path> <path class="st1" d="M133.2,123.4c1.7,0,2.7-0.3,2.7-3.1s-1.1-3.2-2.7-3.2h-3.9v6.3H133.2z M141.3,135.2h-5.5l-4.9-8h-1.6v8h-4.7 v-21.9h8.7c4.6,0,7.5,0.8,7.5,7c0,4.7-1.8,6.2-4.9,6.7h-0.2v0.1L141.3,135.2z"></path> <rect x="144.3" y="113.2" class="st1" width="4.7" height="21.9"></rect> <polygon class="st1" points="171.9,120.6 171.8,120.6 167,132.5 163.3,132.5 158.6,121.4 158.5,121.4 157.5,135.1 152.6,135.1 154.4,113.2 159.9,113.2 165.2,126.9 170.6,113.2 176,113.2 177.7,135.1 172.9,135.1 "></polygon> <polygon class="st1" points="181.4,135.1 181.4,113.2 195.8,113.2 195.8,117.1 186.1,117.1 186.1,122.4 194.7,122.4 194.7,126.2 186.1,126.2 186.1,131.2 196,131.2 196,135.1 "></polygon> <path class="st1" d="M105,149.1c0-2.9,0.3-8.5,9.6-8.5c2.1,0,4.3,0.2,6.4,0.6v3.8c-2.1-0.3-4.3-0.5-6.4-0.5c-3.2,0-4.9,1.4-4.9,5v5 c0,3.5,1.5,4.7,4.9,4.7c2.1,0,4.3-0.1,6.4-0.4v3.8c-2.1,0.3-4.3,0.5-6.4,0.5c-9.3,0-9.6-5.7-9.6-8.5V149.1z"></path> <polygon class="st1" points="124.5,162.6 124.5,140.9 139,140.9 139,144.6 129.2,144.6 129.2,150 137.9,150 137.9,153.8 129.2,153.8 129.2,158.8 139.2,158.8 139.2,162.6 "></polygon> <polygon class="st1" points="155,154.1 155.1,154.1 155.1,140.9 159.8,140.9 159.8,162.6 155,162.6 147.7,149.2 147.5,149.2 147.5,162.6 142.8,162.6 142.8,140.9 147.9,140.9 "></polygon> <polygon class="st1" points="168.7,144.6 162.5,144.6 162.5,140.8 179.6,140.8 179.6,144.6 173.4,144.6 173.4,162.6 168.7,162.6 "></polygon> <path class="st1" d="M191,151c1.7,0,2.7-0.3,2.7-3.1s-1.1-3.2-2.7-3.2h-3.9v6.3H191z M199,162.7h-5.5l-4.9-8H187v8h-4.7v-21.9h8.7 c4.6,0,7.5,0.8,7.5,7c0,4.7-1.8,6.2-4.9,6.7h-0.2v0.1L199,162.7z"></path> <polygon class="st1" points="202,162.6 202,140.9 216.4,140.9 216.4,144.6 206.7,144.6 206.7,150 215.4,150 215.4,153.8 206.7,153.8 206.7,158.8 216.7,158.8 216.7,162.6 "></polygon> </svg> 