<?xml version="1.0" encoding="UTF-8"?> <!-- Generator: Adobe Illustrator 24.1.2, SVG Export Plug-In . SVG Version: 6.00 Build 0) --> <svg xmlns="http://www.w3.org/2000/svg" xmlns:xlink="http://www.w3.org/1999/xlink" version="1.1" id="Layer_1" x="0px" y="0px" viewBox="0 0 260 200" style="enable-background:new 0 0 260 200;" xml:space="preserve"> <style type="text/css"> .st0{fill:#FFC630;} .st1{fill:#FFFFFF;} </style> <g> <g> <path class="st0" d="M90.7,193.3c-2.8,2.8,1.6,4.3,1.6,4.3H128h0.1h0.1h35.7c0,0,4.3-1.6,1.6-4.3c-2.8-2.8-10.2-4.7-11-16.5 c-0.1-0.9,0-4.6,0-9.4h-52.7c0,4.8,0,8.5,0,9.4C100.9,188.6,93.5,190.6,90.7,193.3"></path> <path class="st0" d="M229.7,129.2H27.7V14.2h201.9V129.2z M129.9,158.7c-3.8,0-6.9-3.1-6.9-6.9c0-3.8,3.1-6.9,6.9-6.9 c3.8,0,6.9,3.1,6.9,6.9C136.8,155.6,133.7,158.7,129.9,158.7 M232.7,1.7H24.2c-5,0-9.1,4.1-9.1,9.1v144.9c0,5,4.1,9.1,9.1,9.1 h208.5c5,0,9.1-4.1,9.1-9.1V10.7C241.8,5.7,237.7,1.7,232.7,1.7"></path> </g> <g> <g> <path class="st1" d="M99,114.2c-6.6,0-12-5.4-12-12c0-3.5,1.5-6.7,4-9l39.1-34.7c-0.8-2.2-1.3-4.7-1.3-7.2 c0-11.5,9.4-20.9,20.9-20.9c3,0,6.1,0.7,9,2c0.9,0.4,1.5,1.2,1.7,2.2c0.2,1-0.1,1.9-0.8,2.6l-12.8,12.9l4.2,4.2l12.9-12.8 c0.7-0.7,1.7-1,2.6-0.8c1,0.2,1.8,0.8,2.2,1.7c1.3,2.9,2,6,2,9c0,11.5-9.4,20.9-20.9,20.9c-2.5,0-4.9-0.4-7.2-1.3l-34.7,39.2 C105.7,112.7,102.4,114.2,99,114.2z M149.8,36.4c-8.3,0-15,6.7-15,15c0,2.4,0.5,4.6,1.6,6.6c0.6,1.2,0.4,2.7-0.7,3.6L95,97.8 c-1.3,1.1-2,2.7-2,4.5c0,3.3,2.7,6,6,6c1.8,0,3.3-0.7,4.4-2l36.2-40.8c0.9-1,2.4-1.3,3.6-0.7c2,1,4.2,1.6,6.6,1.6 c8.3,0,15-6.7,15-15c0-0.7-0.1-1.4-0.1-2.1l-9.3,9.3c-1,1.1-2.5,1.7-4.1,1.8c-1.6,0-3.2-0.6-4.3-1.8l-4.2-4.2 c-1.1-1.1-1.8-2.7-1.8-4.3c0-1.6,0.7-3.1,1.8-4.2l9.2-9.3C151.2,36.5,150.5,36.4,149.8,36.4z"></path> </g> <g> <path class="st1" d="M155.8,114.2c-0.8,0-1.5-0.3-2.1-0.9l-28-28c-1.2-1.2-1.2-3.1,0-4.2c1.2-1.2,3.1-1.2,4.2,0l25.9,25.9 l7.7-7.7l-26.6-26.6c-1.2-1.2-1.2-3.1,0-4.2c1.2-1.2,3.1-1.2,4.2,0l28.7,28.7c1.2,1.2,1.2,3.1,0,4.2l-12,12 C157.3,113.9,156.6,114.2,155.8,114.2z"></path> <path class="st1" d="M124.3,70.8c-0.8,0-1.5-0.3-2.1-0.9l-19.4-19.4c-1.2-1.2-1.2-3.1,0-4.2s3.1-1.2,4.2,0l19.4,19.4 c1.2,1.2,1.2,3.1,0,4.2C125.9,70.5,125.1,70.8,124.3,70.8z"></path> <path class="st1" d="M99,57.4c-0.1,0-0.2,0-0.4,0c-0.9-0.1-1.7-0.6-2.2-1.4l-9-15c-0.7-1.2-0.5-2.7,0.4-3.7l6-6 c1-1,2.5-1.2,3.7-0.4l15,9c0.8,0.5,1.3,1.3,1.4,2.2c0.1,0.9-0.2,1.8-0.9,2.5l-12,12C100.5,57,99.8,57.4,99,57.4z M93.8,39.9 l5.8,9.7l6.6-6.6l-9.7-5.8L93.8,39.9z"></path> </g> </g> </g> </svg> 