<?xml version="1.0" encoding="UTF-8"?> <!-- Generator: Adobe Illustrator 24.1.2, SVG Export Plug-In . SVG Version: 6.00 Build 0) --> <svg xmlns="http://www.w3.org/2000/svg" xmlns:xlink="http://www.w3.org/1999/xlink" version="1.1" id="Layer_1" x="0px" y="0px" viewBox="0 0 425.2 425.2" style="enable-background:new 0 0 425.2 425.2;" xml:space="preserve"> <style type="text/css"> .st0{fill:#FFC630;} .st1{fill:#FFFFFF;} </style> <path class="st0" d="M273.5,340.2l-0.2,0.1c-29.5,14-63,17.5-94.5,9.8l3.9-16c27.9,6.7,57.5,3.6,83.6-8.7l0.2-0.1L273.5,340.2 L273.5,340.2z M285.8,333.7l-8.5-14.1c24.7-14.8,43.8-37.9,53.5-65l15.5,5.6C335.2,290.8,313.7,316.9,285.8,333.7z M165.5,346.2 c-31-10.8-57.3-32-74.1-59.9l14.1-8.6c14.9,24.6,38,43.4,65.4,52.9L165.5,346.2z M350.5,246.9l-16-4.1c7.1-27.9,4.3-57.6-8-83.5 l14.9-7.2l0,0.1C355.3,181.7,358.5,215.2,350.5,246.9z M99.7,267l-14.9,7.1l-0.1-0.3c-14-29.5-17.2-63.1-9.1-94.8l16,4.1 c-7.2,28-4.3,57.7,8,83.6L99.7,267z M320.6,148.3c-14.8-24.6-38-43.4-65.3-52.9l5.5-15.5c31,10.8,57.2,32.1,74,60L320.6,148.3z M95.2,171.3l-15.5-5.6c11.2-30.6,32.7-56.7,60.7-73.5l8.5,14.1C124.2,121.2,105.1,144.3,95.2,171.3z M243.5,91.9 c-27.9-6.8-57.6-3.7-83.7,8.7l-7.2-14.9l0.1,0c29.5-14,63.1-17.4,94.6-9.8L243.5,91.9z"></path> <path class="st0" d="M192.7,378.3c-4.8-0.6-9.5-1.4-14.1-2.3l3.4-16.1c4.2,0.9,8.5,1.5,12.7,2.1c26.4,3.2,53.2-0.4,77.6-10.7 l6.4,15.2C251.7,377.7,222,381.9,192.7,378.3z M164.5,372.4c-32.9-9.9-61.8-29.4-83.3-56.4l12.8-10.2c19.4,24.3,45.3,41.9,75.1,50.8 L164.5,372.4z M291.9,360.2l-7.7-14.5c27.7-14.5,49.8-36.8,63.8-64.3l14.7,7.5C346.9,319.3,322.5,344,291.9,360.2z M72.7,304.2 c-19.1-28.8-28.6-62.4-27.5-96.7l16.5,0.5c-1,31,7.5,61.1,24.8,87.1L72.7,304.2z M368.7,275.5l-15.3-6.2c4.9-12.1,8.2-24.8,9.8-37.9 c2.2-17.7,1.2-35.2-2.8-52.3l16-3.8c4.5,19,5.5,38.6,3.1,58.1C377.9,248,374.2,262.1,368.7,275.5z M62.7,195l-16.4-2l0-0.3 c4.2-34.3,18.8-66,42-91.5l12.1,11.1c-20.9,22.9-34,51.4-37.8,82.2L62.7,195z M356.8,166.5c-9.8-29.4-28.1-54.7-53.2-73.4l9.9-13.2 c27.7,20.6,48.1,48.8,58.9,81.4L356.8,166.5z M109.8,103L98.7,90.9c25.3-23.4,56.8-38.2,90.9-42.8l2.2,16.3 C161,68.6,132.7,81.9,109.8,103z M292.8,85.7c-18.7-11.7-39.4-18.8-61.5-21.6c-8.7-1.1-17.7-1.4-26.4-0.9l-0.8-16.5 c9.6-0.5,19.5-0.1,29.2,1.1c24.4,3,47.4,11.1,68.2,23.9L292.8,85.7z"></path> <g> <g> <path class="st1" d="M193.6,200.7c6.1-3.3,13.2-5.1,20.7-5.1s14.5,1.9,20.6,5.2l28.3-43.1c-14.3-8.3-31-13.2-48.9-13.2 c-17.9,0-34.6,4.9-48.9,13.2L193.6,200.7z"></path> <path class="st1" d="M122.7,237.6h42.4c7.1,0,5.9-4.5,6.8-7.8c2-10.6,8.2-19.8,16.8-26l-28.3-43.1c-24,15.9-40.2,42.2-41.7,72.2 C118.8,235.5,120,237.6,122.7,237.6"></path> </g> <g> <path class="st1" d="M280.1,211.1c0-0.1,0-0.1-0.1-0.2l0,0c0,0-0.1-0.1-0.2-0.1l0,0c-0.1,0-0.2-0.1-0.3-0.1c0,0,0,0-0.1,0 s-0.3,0-0.4,0l0,0l0,0c-0.2,0-0.4,0-0.7,0c0,0-0.1,0-0.2,0c-0.2,0-0.6,0.1-1,0.1c-0.2,0-0.4,0.1-0.7,0.1c-0.2,0-0.3,0-0.5,0.1 c-1.1,0.1-2.4,0.3-4.1,0.5c-0.4,0-0.7,0.1-1.1,0.1c-0.4,0.1-0.9,0.1-1.4,0.2l0,0c-1.2,0.2-2.6,0.3-4,0.5c-0.4,0.1-0.9,0.1-1.3,0.2 c-4.2,0.5-9,1.1-13.8,1.8l0,0c-16.9,2.2-35.2,4.5-35.2,4.5c-4.4,0-8,3.6-8,8.1s3.6,8.1,8,8.1c1.2,0,2.3-0.3,3.3-0.7 c4.5-1.7,21.6-7.9,36.4-13.3c0.2-0.1,0.5-0.2,0.7-0.3c1.4-0.5,2.7-1,4.1-1.5c0.1,0,0.2-0.1,0.3-0.1c7.4-2.7,13.7-5,16.8-6.2l0,0 c0.1,0,0.2-0.1,0.3-0.1h0.1c0.3-0.1,0.5-0.2,0.7-0.2l0,0c0.3-0.1,0.5-0.2,0.7-0.2l0,0h0.1c0.2-0.1,0.4-0.2,0.6-0.2c0,0,0,0,0.1,0 c0.1-0.1,0.3-0.2,0.4-0.2c0,0,0,0,0.1,0c0.1-0.1,0.2-0.1,0.2-0.2l0,0C280,211.2,280.1,211.2,280.1,211.1L280.1,211.1z"></path> <path class="st1" d="M268.2,160.7l-28.3,43.1c3,2.1,5.7,4.7,8,7.5c14.5-1.9,28.6-3.7,29.9-3.8c0.4,0,0.8-0.1,1.1-0.1 c2.8,0,4,1.6,4.3,3.1c0.2,0.9,0.2,3.3-3.4,4.7c-0.9,0.4-12,4.4-24.6,9c0.6,1.8,1.1,3.7,1.5,5.7c0.9,3.3-0.4,7.8,6.8,7.8h42.4 c2.7,0,3.9-2,4-4.6C308.4,202.9,292.2,176.6,268.2,160.7z"></path> </g> </g> </svg> 