<?xml version="1.0" encoding="UTF-8"?> <!-- Generator: Adobe Illustrator 24.1.2, SVG Export Plug-In . SVG Version: 6.00 Build 0) --> <svg xmlns="http://www.w3.org/2000/svg" xmlns:xlink="http://www.w3.org/1999/xlink" version="1.1" id="Layer_1" x="0px" y="0px" viewBox="0 0 260 200" style="enable-background:new 0 0 260 200;" xml:space="preserve"> <style type="text/css"> .st0{fill:#FFC630;} .st1{fill:#FFFFFF;} </style> <g> <g> <g> <path class="st0" d="M61.5,169.3L58.8,196h143.3l-2.7-26.7c-2.7-21.6-18.5-38.6-39-43.7l-20.5,51l-4.2-36.7h2.7 c1.9,0,3.1-1.5,3.1-3.1v-9.7c0-1.9-1.5-3.1-3.1-3.1h-15.8c-1.5,0-3.1,1.5-3.1,3.1v9.7c0,1.9,1.5,3.1,3.1,3.1h3.1l-4.2,36.7 l-20.9-51C80.1,130.7,64.2,147.7,61.5,169.3z"></path> <path class="st0" d="M89.3,89c7.3,15.5,23.2,25.9,41.3,25.9c15.5,0,29.4-7.7,37.5-19.7c0,0,0,0-0.4,0h-21.2 c-1.9,1.9-4.2,3.1-7.3,3.1h-14.3c-5.4,0-10-4.6-10-10v-8.9c0-5.8,4.6-10.4,10-10.4h14.3c3.1,0,5.4,1.5,7.3,3.1h20.9V52.3 c0-2.7,0.8-4.6,2.3-6.6c-7.7-13.1-22.4-22-39-22s-31.3,8.9-39,22c1.5,1.9,2.3,4.2,2.3,6.6v27.8C94,84,92,87.1,89.3,89z"></path> <path class="st1" d="M72.7,84h10.4c1.9,0,3.9-1.5,3.9-3.9V52.7c0-1.9-1.5-3.9-3.9-3.9h-1.9c8.1-19.3,27-33.2,49.4-33.2 s41.3,13.5,49.4,33.2h-1.9c-1.9,0-3.9,1.5-3.9,3.9v24c-1.5,1.5-3.9,2.7-6.6,2.7h-25.5l0,0c0-1.5-1.5-3.1-3.1-3.1h-14.3 c-1.9,0-3.1,1.5-3.1,3.1v8.5c0,1.9,1.5,3.1,3.1,3.1h14.3c1.9,0,3.1-1.5,3.1-3.1l0,0h25.5c4.2,0,8.1-1.5,11.2-3.9h9.3 c8.5,0,15.8-7,15.8-15.8v-3.5c0-7-5-13.1-11.6-15.1C184.4,23.3,159.6,4,130.7,4S77,23.3,68.5,50c-6.6,1.9-11.6,7.7-11.6,15.1v3.5 C56.9,76.6,64.2,84,72.7,84z"></path> </g> </g> </g> </svg> 