<?xml version="1.0" encoding="UTF-8"?> <!-- Generator: Adobe Illustrator 24.1.2, SVG Export Plug-In . SVG Version: 6.00 Build 0) --> <svg xmlns="http://www.w3.org/2000/svg" xmlns:xlink="http://www.w3.org/1999/xlink" version="1.1" id="Layer_1" x="0px" y="0px" viewBox="0 0 285 220" style="enable-background:new 0 0 285 220;" xml:space="preserve"> <style type="text/css"> .st0{fill:#FFFFFF;} .st1{fill:#1E1E1C;} </style> <polygon class="st0" points="132.5,33.1 100.3,61.3 91.2,98.6 91.2,124 107,140.2 142.6,149 191.6,128.5 197.6,81.5 174.6,45.4 151.6,33.1 "></polygon> <path class="st1" d="M156.9,102.5L156.9,102.5V88.2h-28.6v14.3c0,7.9,14.3,18.1,14.3,18.1S156.9,110.4,156.9,102.5"></path> <path class="st1" d="M110.2,133.6v-19l-13.4-13.4l13.4-13.4v-19h64.6v19l13.4,13.4l-13.4,13.4v19h-19l-13.2,13.2l-13.4-13.4h-19 L110.2,133.6L110.2,133.6z M130.6,47.3c3-0.9,8.7,1.7,11.3,1.7h1.5c2.3,0,8.3-2.6,11.3-1.7c3.6,1.1,2.3,6.2,2.3,6.4 c-0.2,0.2-3.2,13.2-3.2,13.4h-22.1c-0.2-0.2-3.2-13.2-3.2-13.4C128.3,53.3,127,48.4,130.6,47.3 M145.4,45.4c0,1.5-1.3,2.8-2.8,2.8 c-1.5,0-2.8-1.3-2.8-2.8c0-1.5,1.3-2.8,2.8-2.8C144.1,42.6,145.3,43.9,145.4,45.4 M145.4,38.5v1.9h-1.7v1.7h-2v-1.7H140v-1.9h1.7 v-1.7h1.9v1.7H145.4z M211.2,131.7c-0.2-15.3-3.6-100.6-48.8-106.4c-0.2-6.2-9-11.3-19.8-11.3s-19.6,5.1-19.8,11.3 c-45.2,5.8-48.6,91-48.8,106.4c13.2,10.2,39.4,17.3,68.6,17.3S197.8,141.9,211.2,131.7"></path> <path class="st1" d="M120.4,101.9c0-12.3,9.9-22.2,22.2-22.2c12.3,0,22.2,9.9,22.2,22.2c0,12.3-9.9,22.2-22.2,22.2l0,0 C130.3,124.1,120.4,114.1,120.4,101.9 M174.6,101.9c0-17.7-14.3-32-32-32s-32,14.3-32,32s14.3,32,32,32S174.6,119.6,174.6,101.9"></path> <path class="st1" d="M70.5,136.4l-9,6c0,0-13.9,31.8,76.5,62.7c0,0,1.1,0.9,4.3,0.9s4.3-0.9,4.3-0.9c90.8-30.9,77-62.7,77-62.7 l-8.7-6c-14.7,11.1-41.1,18.5-72.3,18.5S85,147.5,70.5,136.4"></path> </svg> 