<?xml version="1.0" encoding="UTF-8"?> <svg xmlns="http://www.w3.org/2000/svg" id="Layer_1" data-name="Layer 1" viewBox="0 0 207.4 194.9"><defs><style>.cls-1{fill:#525859;}.cls-2{fill:#fdc533;}</style></defs><path class="cls-1" d="M307.7,181.9v64.3H295.5a12.8,12.8,0,0,0,4-9.5v-46a13.3,13.3,0,0,0-26.6,0v39l-38.8-3a10.27,10.27,0,0,0-7.4,2.5,9.49,9.49,0,0,0-3.2,7.2v63.3a9.9,9.9,0,0,0,19.8,0V247.4l7.2.6v61h8.9V255h48.3v53.8h8.9v-127h-8.9Z" transform="translate(-109.2 -115.2)"></path><rect class="cls-1" x="54" y="90.9" width="99.8" height="11"></rect><path class="cls-1" d="M276.1,139.7a16.7,16.7,0,1,1-16.7,16.7,16.73,16.73,0,0,1,16.7-16.7" transform="translate(-109.2 -115.2)"></path><path class="cls-1" d="M191.9,227l-39.2,1.5v-38a13.3,13.3,0,1,0-26.6,0v46.2a13.48,13.48,0,0,0,4,9.5h-12V181.9h-8.9v127h8.9V255.1h48.3v53.8h8.9V247.5l7.2-.2v52.9a9.9,9.9,0,0,0,19.8,0V236.9a9.76,9.76,0,0,0-10.4-9.9" transform="translate(-109.2 -115.2)"></path><path class="cls-1" d="M149.7,139.7A16.7,16.7,0,1,1,133,156.4a16.73,16.73,0,0,1,16.7-16.7" transform="translate(-109.2 -115.2)"></path><path class="cls-2" d="M213,175.3A25.3,25.3,0,1,1,238.3,150,25.39,25.39,0,0,1,213,175.3m0-60.1a34.6,34.6,0,1,0,34.6,34.6A34.74,34.74,0,0,0,213,115.2" transform="translate(-109.2 -115.2)"></path><path class="cls-2" d="M209.6,162a4.22,4.22,0,0,1-3.2-1.3l-8.4-8.4a4.31,4.31,0,0,1,6.1-6.1l5.5,5.5L222,139.3a4.31,4.31,0,0,1,6.1,6.1l-15.6,15.4a4,4,0,0,1-2.9,1.2" transform="translate(-109.2 -115.2)"></path></svg> 