<?xml version="1.0" encoding="UTF-8"?> <svg xmlns="http://www.w3.org/2000/svg" id="Layer_1" data-name="Layer 1" viewBox="0 0 191.3 191.2"><defs><style>.cls-1,.cls-4{fill:#545858;}.cls-2{fill:#fff;}.cls-3{fill:#fdc533;}.cls-4{isolation:isolate;font-size:53.67px;font-family:Campton-Bold, Campton;font-weight:700;letter-spacing:-0.02em;}.cls-5{letter-spacing:-0.07em;}.cls-6{letter-spacing:-0.02em;}</style></defs><path class="cls-1" d="M272.3,140.8a92.47,92.47,0,0,0-59.4-21.4v93.2Z" transform="translate(-117.3 -117.1)"></path><path class="cls-2" d="M212.9,215.1a2.2,2.2,0,0,1-.8-.1,2.29,2.29,0,0,1-1.6-2.3V119.5a2.43,2.43,0,0,1,2.4-2.4,97.58,97.58,0,0,1,33,5.8,95.4,95.4,0,0,1,28,16.1,2.39,2.39,0,0,1,.3,3.4l-59.4,71.8A2.46,2.46,0,0,1,212.9,215.1Zm2.4-93.2V206l53.6-64.8a90.93,90.93,0,0,0-24.7-13.8A89.22,89.22,0,0,0,215.3,121.9Z" transform="translate(-117.3 -117.1)"></path><path class="cls-3" d="M272.3,140.8l-59.4,71.8V119.4a93.23,93.23,0,1,0,59.4,21.4Z" transform="translate(-117.3 -117.1)"></path><path class="cls-2" d="M212.9,308.3a95.6,95.6,0,1,1,0-191.2,2.43,2.43,0,0,1,2.4,2.4V206l55.2-66.7a2.6,2.6,0,0,1,1.6-.9,2.38,2.38,0,0,1,1.8.5,95.71,95.71,0,0,1-61,169.4Zm-2.4-186.4a91.06,91.06,0,1,0,62.2,22.5l-57.9,70a2.45,2.45,0,0,1-4.3-1.6V121.9Z" transform="translate(-117.3 -117.1)"></path><text class="cls-4" transform="translate(27.11 142.75)">1<tspan class="cls-5" x="27.53" y="0">1</tspan><tspan class="cls-6" x="52.22" y="0">%</tspan></text><polygon class="cls-1" points="63.4 95.6 61 95.6 61 74 120.3 38.9 121.5 41 63.4 75.3 63.4 95.6"></polygon></svg> 