<?xml version="1.0" encoding="UTF-8"?> <!-- Generator: Adobe Illustrator 24.1.2, SVG Export Plug-In . SVG Version: 6.00 Build 0) --> <svg xmlns="http://www.w3.org/2000/svg" xmlns:xlink="http://www.w3.org/1999/xlink" version="1.1" id="Layer_1" x="0px" y="0px" viewBox="0 0 150 120" style="enable-background:new 0 0 150 120;" xml:space="preserve"> <style type="text/css"> .st0{fill:#525758;} </style> <g> <g> <path class="st0" d="M85.5,71.6L62.6,40.5c0,0,0,0,0,0c-3.1-2.5-7.4-2.6-10.7-0.4c-4,2.9-4.8,8.6-1.9,12.5l20.2,27.4 c2.9,4,8.6,4.8,12.5,1.9C85.8,79.5,86.7,75.1,85.5,71.6L85.5,71.6z M119.1,46.6L119.1,46.6c3.2,2.5,7.5,2.6,10.9,0 c3.9-3,4.4-8.8,1.5-12.8L112,7.2c-2.9-4-8.9-5.3-12.9-2.3c-3.4,2.5-4.2,6.6-2.8,10.3c0,0,0,0,0,0L119.1,46.6z M109.4,53.8l5.7-4.2 c0.1,0,0.1-0.1,0-0.2L92.4,18.5c0-0.1-0.1-0.1-0.2,0L66.7,37.3c-0.1,0-0.1,0.1,0,0.2l22.7,30.8c0,0.1,0.1,0.1,0.2,0l5.7-4.2 c0.1,0,0.2,0,0.2,0l36.5,49.5c2.8,3.8,8.2,4.6,12,1.8l0,0c3.8-2.8,4.6-8.2,1.8-12L109.3,54C109.3,53.9,109.3,53.8,109.4,53.8z"></path> <g> <path class="st0" d="M84.2,104.5v10.9c0,1.2-1,2.2-2.2,2.2H25.9c-1.2,0-2.2-1-2.2-2.2v-10.9c0-1.2,1-2.2,2.2-2.2h3.2v-9.2 c0-2,1.7-3.7,3.7-3.7H75c2,0,3.7,1.7,3.7,3.7v9.2H82C83.2,102,84.2,103,84.2,104.5z"></path> </g> </g> <g> <g transform="translate(0,-952.36218)"> <path class="st0" d="M22.3,955.9c-0.7-0.4-1.5-0.4-2.2,0.1s-1,1.2-0.9,2l2.2,15.6l-5.8,0.8c-0.5,0.1-1,0.3-1.3,0.8L2.9,990.3 c-0.3,0.4-0.5,1-0.4,1.5l7.2,52c0.2,1.1,1.2,1.8,2.3,1.7l42.2-5.9c1.1-0.2,1.8-1.2,1.7-2.3l-7.2-52c-0.1-0.5-0.3-1-0.8-1.3 l-15.2-11.5c0,0-0.1-0.1-0.2-0.1c-0.4-0.2-0.9-0.3-1.3-0.3l-5.8,0.8l-2.2-15.6C23.2,956.8,22.8,956.2,22.3,955.9z M30.9,976.3 l13.9,10.5l6.8,49.2l-38.2,5.3l-6.8-49.2l10.5-13.9l4.9-0.7l1,6.9c-1.5,0.6-3,1.6-4,3c-3,4-2.2,9.7,1.8,12.6s9.7,2.2,12.6-1.8 s2.2-9.7-1.8-12.6c-1.4-1.1-3-1.7-4.7-1.8l-1-6.9L30.9,976.3z M29.2,988.8c2.2,1.7,2.7,4.8,1,7c-1.7,2.2-4.8,2.7-7,1 s-2.7-4.8-1-7S26.9,987.1,29.2,988.8z"></path> </g> <g> <path class="st0" d="M29.2,72.3l8.8-1.6l0.7,3.6L24.2,77l-0.7-3.6l1.5-0.3l-0.6-3.4l-1.5,0.3l-0.6-3.3l1.5-0.3l-0.3-1.4 c-0.4-1.9,0-3.6,1-5c1-1.4,2.5-2.2,4.5-2.6C31,57,32.6,57.2,34,58c1.4,0.8,2.3,2.1,2.8,3.8l-4.2,0.8c-0.2-0.6-0.6-1-1.1-1.3 c-0.5-0.3-1-0.4-1.7-0.2c-0.8,0.1-1.3,0.5-1.7,1c-0.4,0.6-0.5,1.3-0.3,2.1l0.3,1.4l4.8-0.9l0.6,3.3l-4.8,0.9L29.2,72.3z"></path> </g> </g> </g> </svg> 