<?xml version="1.0" encoding="UTF-8"?> <!-- Generator: Adobe Illustrator 24.1.2, SVG Export Plug-In . SVG Version: 6.00 Build 0) --> <svg xmlns="http://www.w3.org/2000/svg" xmlns:xlink="http://www.w3.org/1999/xlink" version="1.1" id="Layer_1" x="0px" y="0px" viewBox="0 0 150 120" style="enable-background:new 0 0 150 120;" xml:space="preserve"> <style type="text/css"> .st0{fill:#515758;} </style> <g> <path class="st0" d="M52.8,36.3c0,0-0.1,0-0.1,0c0,0-0.1,0-0.1,0c-5.4,0-9.7,4.3-9.7,9.7c0,5.4,4.4,9.7,9.7,9.7c0,0,0.1,0,0.1,0 c0,0,0.1,0,0.1,0c5.4,0,9.7-4.4,9.7-9.7C62.5,40.6,58.2,36.3,52.8,36.3"></path> <path class="st0" d="M74.8,55.7L74.8,55.7c5.4,0,9.7-4.4,9.7-9.7c0-5.4-4.3-9.7-9.7-9.7h0c-5.4,0-9.7,4.3-9.7,9.7 C65.1,51.4,69.5,55.7,74.8,55.7"></path> <path class="st0" d="M86.8,61.4c0-2-1.3-3.6-3-4.3c-0.5-0.2-1-0.3-1.5-0.3H67.4h0c-0.5,0-1,0.1-1.5,0.3c-0.5,0.2-1,0.5-1.4,0.8 c1,0.8,1.7,2.1,1.7,3.5v25.8c0,1.4-0.6,2.6-1.6,3.5c0,0,0,0,0,0c0.8,0.6,1.7,1,2.8,1v19.6c0,0.3,0,0.6,0.1,0.9 c0.1,0.3,0.1,0.6,0.2,0.8c0,0,0,0,0,0.1c0.1,0.2,0.2,0.4,0.3,0.6c0,0,0,0,0,0c0.1,0.2,0.3,0.4,0.4,0.6c0,0.1,0.1,0.1,0.2,0.2 c0.1,0.1,0.2,0.2,0.3,0.3c0.1,0.1,0.1,0.1,0.2,0.2c0.1,0.1,0.2,0.2,0.4,0.3c0.1,0.1,0.2,0.1,0.2,0.1c0.1,0.1,0.3,0.1,0.4,0.2 c0.1,0,0.2,0.1,0.2,0.1c0.2,0.1,0.3,0.1,0.5,0.1c0.1,0,0.1,0,0.2,0.1c0.2,0,0.5,0.1,0.7,0.1h6.1c0.3,0,0.5,0,0.7-0.1 c0.1,0,0.2,0,0.2-0.1c0.2,0,0.3-0.1,0.5-0.1c0.1,0,0.2-0.1,0.2-0.1c0.1-0.1,0.3-0.1,0.4-0.2c0.1,0,0.2-0.1,0.2-0.1 c0.1-0.1,0.2-0.2,0.4-0.3c0.1-0.1,0.1-0.1,0.2-0.2c0.1-0.1,0.2-0.2,0.3-0.3c0.1-0.1,0.1-0.1,0.2-0.2c0.1-0.2,0.3-0.4,0.4-0.6 c0,0,0,0,0,0c0.1-0.2,0.2-0.4,0.3-0.6c0,0,0,0,0,0c0.1-0.3,0.2-0.5,0.2-0.8c0.1-0.3,0.1-0.6,0.1-0.9V91.8c1.1,0,2.1-0.4,2.8-1.1 c1-0.8,1.6-2.1,1.6-3.5L86.8,61.4L86.8,61.4z"></path> <path class="st0" d="M97.1,36.3c-5.4,0-9.7,4.3-9.7,9.7c0,5.4,4.3,9.7,9.7,9.7h0c5.4,0,9.7-4.4,9.7-9.7 C106.8,40.6,102.5,36.3,97.1,36.3L97.1,36.3z"></path> <path class="st0" d="M64.8,61.4c0-2-1.3-3.6-3-4.3c-0.5-0.2-1-0.3-1.5-0.3h0H60H45.4h0h-0.2h0c-0.5,0-1,0.1-1.5,0.3 c-1.8,0.6-3,2.3-3,4.3v22.1L27.3,71.2l9.9-10.6L23.4,47.6L1.1,71.6l13.8,12.9l9.9-10.6l16,14.9c0.3,0.8,0.8,1.4,1.4,2 c0.8,0.6,1.7,1.1,2.8,1.1v19.6c0,0.3,0,0.6,0.1,0.9c0.1,0.3,0.1,0.5,0.2,0.8c0,0,0,0,0,0c0.1,0.2,0.2,0.4,0.3,0.6c0,0,0,0,0,0 c0.1,0.2,0.3,0.4,0.4,0.6c0.1,0.1,0.1,0.1,0.2,0.2c0.1,0.1,0.2,0.2,0.3,0.3c0.1,0.1,0.1,0.1,0.2,0.2c0.1,0.1,0.2,0.2,0.4,0.3 c0.1,0.1,0.2,0.1,0.2,0.1c0.1,0.1,0.3,0.1,0.4,0.2c0.1,0,0.2,0.1,0.3,0.1c0.2,0.1,0.3,0.1,0.5,0.1c0.1,0,0.2,0,0.2,0.1 c0.2,0,0.5,0.1,0.7,0.1h0.2h0h5.9h0.2h0c0.3,0,0.5,0,0.7-0.1c0.1,0,0.2,0,0.2-0.1c0.2,0,0.3-0.1,0.5-0.1c0.1,0,0.2-0.1,0.3-0.1 c0.1-0.1,0.3-0.1,0.4-0.2c0.1,0,0.2-0.1,0.2-0.1c0.1-0.1,0.2-0.2,0.4-0.3c0.1-0.1,0.1-0.1,0.2-0.2c0.1-0.1,0.2-0.2,0.3-0.3 c0.1-0.1,0.1-0.1,0.2-0.2c0.1-0.2,0.3-0.4,0.4-0.6c0,0,0,0,0,0c0.1-0.2,0.2-0.4,0.3-0.6c0,0,0,0,0,0c0.1-0.3,0.2-0.5,0.2-0.8 c0.1-0.3,0.1-0.6,0.1-0.9V91.8c1.1,0,2.1-0.4,2.8-1.1c1-0.8,1.6-2.1,1.6-3.5L64.8,61.4L64.8,61.4z"></path> <path class="st0" d="M119.9,34l-12.3,20.3l12.5,7.5l-11,18.1V61.4c0-2-1.3-3.6-3-4.3c-0.5-0.2-1-0.3-1.5-0.3h0H89.7h0 c-0.5,0-1,0.1-1.4,0.3c-0.5,0.2-1,0.5-1.4,0.8c1,0.8,1.7,2.1,1.7,3.5v25.8c0,1.4-0.6,2.6-1.6,3.5c0,0,0,0,0,0 c0.8,0.6,1.7,1,2.8,1.1v19.6c0,0.3,0,0.6,0.1,0.9c0.1,0.3,0.1,0.6,0.2,0.8c0,0,0,0,0,0.1c0.1,0.2,0.2,0.4,0.3,0.6c0,0,0,0,0,0 c0.1,0.2,0.3,0.4,0.4,0.6c0,0.1,0.1,0.1,0.2,0.2c0.1,0.1,0.2,0.2,0.3,0.3c0.1,0.1,0.1,0.1,0.2,0.2c0.1,0.1,0.2,0.2,0.4,0.3 c0.1,0.1,0.2,0.1,0.2,0.1c0.1,0.1,0.3,0.1,0.4,0.2c0.1,0,0.2,0.1,0.2,0.1c0.2,0.1,0.3,0.1,0.5,0.1c0.1,0,0.2,0,0.2,0.1 c0.2,0,0.5,0.1,0.7,0.1h6.1c0.3,0,0.5,0,0.7-0.1c0.1,0,0.1,0,0.2-0.1c0.2,0,0.3-0.1,0.5-0.1c0.1,0,0.2-0.1,0.2-0.1 c0.1-0.1,0.3-0.1,0.4-0.2c0.1,0,0.2-0.1,0.2-0.1c0.1-0.1,0.2-0.2,0.4-0.3c0.1-0.1,0.1-0.1,0.2-0.2c0.1-0.1,0.2-0.2,0.3-0.3 c0.1-0.1,0.1-0.1,0.2-0.2c0.1-0.2,0.3-0.4,0.4-0.6c0,0,0,0,0,0c0.1-0.2,0.2-0.4,0.3-0.6c0,0,0,0,0,0c0.1-0.3,0.2-0.5,0.3-0.8 c0.1-0.3,0.1-0.6,0.1-0.9V91.8c1.1,0,2.1-0.4,2.8-1.1c1-0.8,1.6-2.1,1.6-3.5V87l14.1-23.3l12.5,7.5l12.3-20.3L119.9,34z"></path> <polygon class="st0" points="50.8,34 53.9,34 53.9,22.5 66.3,22.5 66.3,6.4 38.5,6.4 38.5,22.5 50.8,22.5 "></polygon> <polygon class="st0" points="95.1,34 98.2,34 98.2,22.5 110.6,22.5 110.6,6.4 82.7,6.4 82.7,22.5 95.1,22.5 "></polygon> </g> </svg> 