<?xml version="1.0" encoding="UTF-8"?> <!-- Generator: Adobe Illustrator 24.1.2, SVG Export Plug-In . SVG Version: 6.00 Build 0) --> <svg xmlns="http://www.w3.org/2000/svg" xmlns:xlink="http://www.w3.org/1999/xlink" version="1.1" id="Layer_1" x="0px" y="0px" viewBox="0 0 150 120" style="enable-background:new 0 0 150 120;" xml:space="preserve"> <style type="text/css"> .st0{fill:#525758;} </style> <g> <path class="st0" d="M67.4,79.8H50.5c-1.2,0-2.2,1-2.2,2.2c0,1.2,1,2.2,2.2,2.2h16.9c1.2,0,2.2-1,2.2-2.2S68.6,79.8,67.4,79.8z"></path> <path class="st0" d="M139.9,86.8L122,68.9c3.3-4.6,5.3-10.3,5.3-16.4c0-8.8-4-16.6-10.3-21.8V12.6c0-3.3-2.7-5.9-5.9-5.9H33.6 c-3.3,0-5.9,2.7-5.9,5.9v97.5c0,3.3,2.7,5.9,5.9,5.9h77.5c3.3,0,5.9-2.7,5.9-5.9l0-35.8L134.7,92c0.7,0.7,1.7,1.1,2.6,1.1 c0.9,0,1.9-0.4,2.6-1.1C141.4,90.6,141.4,88.2,139.9,86.8z M120,52.5c0,11.4-9.3,20.7-20.7,20.7c-4.4,0-8.4-1.4-11.8-3.7h10.3 c1.2,0,2.2-1,2.2-2.2S99,65,97.8,65H82.9c-2.3-2.9-3.7-6.5-4.2-10.3h19.1c1.2,0,2.2-1,2.2-2.2c0-1.2-1-2.2-2.2-2.2H78.7 c0.4-3.9,1.9-7.4,4.2-10.3h14.9c1.2,0,2.2-1,2.2-2.2c0-1.2-1-2.2-2.2-2.2H87.5c3.3-2.3,7.4-3.7,11.8-3.7 C110.7,31.8,120,41.1,120,52.5z M35.1,14h74.5v12.3c-3.2-1.3-6.7-2-10.3-2c-9.1,0-17.2,4.4-22.3,11.1H50.5c-1.2,0-2.2,1-2.2,2.2 c0,1.2,1,2.2,2.2,2.2h23.7c-1.6,3.2-2.6,6.6-2.9,10.3H50.5c-1.2,0-2.2,1-2.2,2.2c0,1.2,1,2.2,2.2,2.2h20.8 c0.3,3.7,1.3,7.2,2.9,10.3H50.5c-1.2,0-2.2,1-2.2,2.2s1,2.2,2.2,2.2H77c5.1,6.7,13.2,11.1,22.3,11.1c3.7,0,7.1-0.7,10.3-2v11.3 l-2-2c-0.4-0.4-1.1-0.4-1.6,0s-0.4,1.1,0,1.6l3.5,3.5v7.1l-7.4-7.4c-0.4-0.4-1.1-0.4-1.6,0s-0.4,1.1,0,1.6l9,9v5.4h-1.7l-8.2-8.2 c-0.4-0.4-1.1-0.4-1.6,0s-0.4,1.1,0,1.6l6.6,6.6h-7.1l-3.1-3.1c-0.4-0.4-1.1-0.4-1.6,0c-0.4,0.4-0.4,1.1,0,1.6l1.5,1.5H35.1V14z"></path> <path class="st0" d="M112.1,45.9c-1.2,0.4-1.8,1.6-1.5,2.8c0.4,1.2,0.6,2.5,0.6,3.8c0,1.3-0.2,2.6-0.6,3.8 c-0.4,1.2,0.3,2.4,1.5,2.8c0.2,0.1,0.4,0.1,0.7,0.1c0.9,0,1.8-0.6,2.1-1.6c0.5-1.7,0.8-3.4,0.8-5.1c0-1.7-0.3-3.4-0.8-5.1 C114.5,46.2,113.3,45.5,112.1,45.9z"></path> </g> </svg> 