<?xml version="1.0" encoding="UTF-8"?> <!-- Generator: Adobe Illustrator 24.1.2, SVG Export Plug-In . SVG Version: 6.00 Build 0) --> <svg xmlns="http://www.w3.org/2000/svg" xmlns:xlink="http://www.w3.org/1999/xlink" version="1.1" id="Layer_1" x="0px" y="0px" viewBox="0 0 215 200" style="enable-background:new 0 0 215 200;" xml:space="preserve"> <style type="text/css"> .st0{fill:#FFFFFF;} .st1{fill:#4D585A;} .st2{fill:#FEC340;} </style> <g> <rect x="9.3" y="12.9" class="st0" width="179.3" height="104.5"></rect> <g> <path class="st1" d="M66.1,168.6c-2.4,2.4,1.3,3.7,1.3,3.7h30.5H98h0.1h30.5c0,0,3.7-1.3,1.3-3.7c-2.4-2.4-8.8-4-9.4-14.1 c-0.1-0.8,0-4,0-8.1H75.5c0,4.1,0,7.3,0,8.1C74.8,164.5,68.4,166.2,66.1,168.6"></path> <path class="st1" d="M184.9,113.7H12.2V15.4h172.8V113.7z M99.6,139c-3.3,0-5.9-2.6-5.9-5.9c0-3.3,2.6-5.9,5.9-5.9 c3.3,0,5.9,2.6,5.9,5.9C105.5,136.3,102.8,139,99.6,139 M187.5,4.6H9.2c-4.3,0-7.8,3.5-7.8,7.8v123.9c0,4.3,3.5,7.8,7.8,7.8h178.4 c4.3,0,7.8-3.5,7.8-7.8V12.4C195.3,8.1,191.8,4.6,187.5,4.6"></path> <path class="st1" d="M208.9,174.2h-61.5V98.9c0-0.6,0.5-1,1-1h59.4c0.6,0,1,0.5,1,1L208.9,174.2z M178.2,188.9 c-2.5,0-4.5-2-4.5-4.5s2-4.5,4.5-4.5c2.5,0,4.5,2,4.5,4.5S180.7,188.9,178.2,188.9 M207.9,93.5h-59.3c-3,0-5.4,2.4-5.4,5.4v90.3 c0,3,2.4,5.4,5.4,5.4h59.3c3,0,5.4-2.4,5.4-5.4V98.9C213.3,95.9,210.9,93.5,207.9,93.5"></path> </g> <rect x="147.5" y="97.9" class="st0" width="61.5" height="76.3"></rect> <g> <path class="st2" d="M178.1,137.1c-2.3,0-4.1-1.8-4.1-4.1c0-2.3,1.8-4.1,4.1-4.1c2.3,0,4.1,1.8,4.1,4.1 C182.2,135.3,180.3,137.1,178.1,137.1 M60.2,62.7c0-3.1,1.2-6.1,3.5-8.3c1-1,2.2-1.8,3.5-2.4l0.8-0.4l0.3-0.9 c1.9-6.1,7.5-10.3,13.7-10.3c1,0,2,0.1,2.9,0.3l1.6,0.3l0.7-1.5c1.5-3.2,3.9-6,6.8-7.9c8.7-5.7,20.3-3.2,25.9,5.4 c2,3.1,3.1,6.6,3.1,10.3c0,0.9-0.1,1.7-0.2,2.5l-0.2,1.7l1.3,0.6c5.8,2.9,8.2,9.9,5.3,15.8c-2,4-6.1,6.5-10.5,6.5H72 C65.5,74.5,60.2,69.2,60.2,62.7 M99.4,101.2c0,2.3-1.8,4.1-4.1,4.1c-2.3,0-4.1-1.8-4.1-4.1s1.8-4.1,4.1-4.1 C97.5,97.1,99.4,98.9,99.4,101.2 M62.6,105.3c-2.3,0-4.1-1.8-4.1-4.1s1.8-4.1,4.1-4.1s4.1,1.8,4.1,4.1 C66.7,103.4,64.9,105.3,62.6,105.3 M178.1,124.9c-3.8,0-7,2.5-7.9,6.2h-52.4c-2.3,0-4.1-1.9-4.1-4.2V78.6h4.9 c8.7,0,15.8-7.1,15.9-15.8c0-5.5-2.9-10.6-7.6-13.5c0.1-0.6,0.1-1.2,0.1-1.9c0-12.6-10.2-22.8-22.8-22.8c-4.4,0-8.8,1.3-12.5,3.7 c-3.2,2.1-5.8,4.9-7.6,8.2c-0.7-0.1-1.4-0.1-2.2-0.1c-4,0-7.9,1.3-11.1,3.8c-2.9,2.2-5.1,5.2-6.3,8.6c-1.4,0.7-2.7,1.7-3.8,2.8 c-6.2,6.2-6.2,16.2,0,22.4c3,3,7,4.7,11.2,4.7h4.9V95c0,2.3-1.8,4.2-4.1,4.2h-2.3c-0.9-3.7-4.2-6.2-7.9-6.2 c-4.5,0-8.2,3.7-8.2,8.2c0,4.5,3.7,8.2,8.2,8.2c3.7,0,7-2.5,7.9-6.1h2.3c4.5,0,8.2-3.7,8.2-8.3V78.6h12.3v14.7 c-4.4,1.1-7,5.6-5.9,10c1.1,4.4,5.6,7,10,5.9c4.4-1.1,7-5.6,5.9-10c-0.7-2.9-3-5.1-5.9-5.9V78.6h12.3v48.3c0,4.5,3.7,8.3,8.2,8.3 h52.4c1.1,4.4,5.6,7,10,5.8c4.4-1.1,7-5.6,5.8-10C185,127.4,181.8,124.9,178.1,124.9"></path> </g> </g> </svg> 