<?xml version="1.0" encoding="UTF-8"?> <!-- Generator: Adobe Illustrator 24.1.2, SVG Export Plug-In . SVG Version: 6.00 Build 0) --> <svg xmlns="http://www.w3.org/2000/svg" xmlns:xlink="http://www.w3.org/1999/xlink" version="1.1" id="Layer_1" x="0px" y="0px" viewBox="0 0 200 200" style="enable-background:new 0 0 200 200;" xml:space="preserve"> <style type="text/css"> .st0{fill:#FFFFFF;} .st1{fill:#515758;} .st2{font-family:'MinionPro-Regular';} .st3{font-size:18.4415px;} .st4{fill:#525757;} .st5{fill:#FDC533;} </style> <circle class="st0" cx="100" cy="100" r="100"></circle> <g> <text transform="matrix(1 0 0 1 153.8428 84.5913)" class="st1 st2 st3"> </text> <rect x="55.9" y="67.9" class="st4" width="85.8" height="96.5"></rect> <polygon class="st4" points="98.8,24.5 38.9,77.9 158.8,77.9 "></polygon> <g> <g> <path class="st5" d="M96.6,58.9c0.9-1,2.2-1.5,3.7-1.5c1.3,0,2.4,0.4,3.3,1.1c0.9,0.7,1.4,1.7,1.7,3h8.8 c-0.3-3.6-1.7-6.4-4.2-8.5c-2.5-2.1-5.6-3.1-9.5-3.1c-4.1,0-7.5,1.2-10,3.6c-2.5,2.4-3.8,5.5-3.8,9.5v3h-3v6.8h3v7h-3v7.5h29.8 v-7.5h-18v-7h9.8v-6.8h-9.8v-3C95.2,61.2,95.7,59.9,96.6,58.9z"></path> </g> </g> <g> <path class="st4" d="M126.7,127.4c-0.3,0,0.3-7.8,0.3-7.8l3.7-1.5c0,0,0.8-2.9,0.6-3.5s-1.6-4.5-1.6-4.5s-5.5,0.1-5.8-0.3 c-0.2-0.4-5.5-6.6-5.5-6.6l1-3.8l-6.1-2.3l-2.1,3.7l-8-0.3l-1.8-4.7l-7.4,2.4l0.1,5.9l-5.5,4.7c0,0-4.2-1.4-4.7-1.4 s-1.8,1.6-1.8,1.6s-1.5,4.5-1.4,4.8c0.2,0.3,2.7,2.9,2.7,2.9l2.4,7.9c0,0,8.1,0.2,8.4,0.4c0.3,0.2,5.4,13.3,5.6,14 c0.2,0.6,6.7,1.4,6.7,1.4s3.1,6.2,3.2,6.5c0.1,0.3,2.7,2.2,3.2,2.2c0.5,0,5.8-4.3,5.8-4.3l-1.8-4.5l2-0.5l4.5-4.6l1.8,1.9l3.5,0.2 l2.4-6.1C131.2,130.8,127,127.4,126.7,127.4z M105,133c-5.7-0.3-10.1-5.1-9.8-10.8c0.3-5.7,5.1-10.1,10.8-9.8s10.1,5.1,9.8,10.8 C115.5,128.9,110.7,133.3,105,133z"></path> <g> <path class="st0" d="M117.4,122.8c0.2-3.1-0.9-6.2-3.1-8.5c-2.2-2.4-5.1-3.7-8.2-3.9s-6.2,0.9-8.5,3.1c-2.4,2.2-3.7,5-3.9,8.2 c0,0.9,0.7,1.6,1.5,1.7c0.9,0,1.6-0.7,1.7-1.5c0.1-2.3,1.2-4.4,2.8-6s3.9-2.4,6.3-2.3l0.1,0c2.4,0.1,4.5,1.2,6,2.8 c1.6,1.7,2.4,3.9,2.3,6.3c-0.2,4.8-4.2,8.5-9.2,8.2c-0.9,0-1.6,0.7-1.7,1.5c0,0.9,0.7,1.6,1.5,1.7 C111.5,134.4,117.1,129.3,117.4,122.8z"></path> <path class="st0" d="M105.3,134.6l-1.3-0.1c-0.4-1.4-0.8-2.7-1.4-3.9l1-0.9c0.6-0.6,1-1.4,1-2.2c0-0.8-0.3-1.7-0.8-2.3l-1.9-2.1 c-0.6-0.6-1.4-1-2.2-1c-0.8,0-1.7,0.3-2.3,0.8l-1,0.9c-1.2-0.7-2.5-1.4-3.8-1.8l0.1-1.3c0.1-1.8-1.3-3.4-3.1-3.4l-2.8-0.1 c-0.6,0-1.3,0.1-1.8,0.4c-1,0.5-1.6,1.5-1.7,2.7l-0.1,1.3c-1.4,0.4-2.7,0.8-3.9,1.4l-0.9-1c-0.6-0.6-1.4-1-2.2-1 c-0.8,0-1.7,0.3-2.3,0.8l-2.1,1.9c-1.3,1.3-1.4,3.3-0.2,4.6l0.9,1c-0.7,1.2-1.4,2.5-1.8,3.8l-1.3-0.1c-1.8-0.1-3.4,1.3-3.4,3.1 l-0.1,2.8c-0.1,1.8,1.3,3.4,3.1,3.4l1.3,0.1c0.4,1.4,0.8,2.7,1.4,3.9l-1,0.9c-1.3,1.3-1.4,3.3-0.2,4.6l1.9,2.1 c0.6,0.6,1.4,1,2.2,1c0.8,0,1.7-0.3,2.3-0.8l1-0.9c1.2,0.7,2.5,1.4,3.8,1.8l-0.1,1.3c-0.1,1.8,1.3,3.4,3.1,3.4l2.8,0.1 c1.8,0.1,3.4-1.3,3.4-3.1l0.1-1.3c1.4-0.4,2.7-0.8,3.9-1.4l0.9,1c0.6,0.6,1.4,1,2.2,1c0.8,0,1.7-0.3,2.3-0.8l2.1-1.9 c0.6-0.6,1-1.4,1-2.2c0-0.8-0.3-1.7-0.8-2.3l-0.9-1c0.7-1.2,1.4-2.5,1.8-3.8l0-0.2l1.3,0.1c1.8,0.1,3.4-1.3,3.4-3.1l0.1-2.8 C108.5,136.2,107.1,134.7,105.3,134.6z M86.6,147.1c-4.8-0.2-8-3.8-7.8-8.6c0.2-4.8,4.3-8.5,9.1-8.2c4.8,0.2,8,3.8,7.8,8.6 C95.5,143.7,91.4,147.4,86.6,147.1z"></path> <path class="st0" d="M132.5,129.7c-0.4-0.9-1.1-1.7-2-2.2l-2.1-0.9c0.4-2.2,0.6-4.3,0.3-6.5l2.1-0.7c2-0.6,3-2.8,2.4-4.8L132,111 c-0.7-2-3-3.1-4.9-2.4l-2.1,0.7c-1.2-1.8-2.7-3.4-4.3-4.8l0.9-2.1c0.9-1.9,0.1-4.2-1.8-5.2l-3.5-1.7c-1.9-0.9-4.2-0.1-5.2,1.8 l-0.9,2.1c-2.1-0.4-4.3-0.6-6.5-0.3l-0.7-2.1c-0.7-2-3-3.1-4.9-2.4l-3.6,1.3c-0.9,0.4-1.7,1.1-2.2,2c-0.5,0.9-0.5,2-0.2,2.9 l0.7,2.1c-1.8,1.2-3.4,2.7-4.8,4.3l-2.1-0.9c-0.9-0.5-2-0.5-2.9-0.2c-0.9,0.4-1.7,1.1-2.2,2l-1.7,3.5c-0.9,1.9-0.1,4.2,1.8,5.2 l3.2,1.5c0.8,0.4,1.8,0,2.1-0.7c0.4-0.8,0-1.8-0.7-2.1l-3.2-1.5c-0.2-0.1-0.3-0.3-0.4-0.4c-0.1-0.1-0.1-0.3,0-0.6l1.7-3.5 c0.1-0.2,0.3-0.3,0.4-0.4c0.1-0.1,0.3-0.1,0.6,0l3.2,1.5c0.7,0.3,1.5,0.2,2-0.5c1.5-2.1,3.5-3.9,5.7-5.2c0.6-0.4,0.9-1.1,0.7-1.9 L95,99.9c-0.1-0.3-0.1-0.4,0-0.6c0.1-0.1,0.2-0.2,0.4-0.4l3.6-1.3c0.3-0.2,0.8,0,0.9,0.5l1.2,3.3c0.2,0.7,1,1.1,1.7,1 c2.6-0.4,5.2-0.2,7.7,0.4c0.7,0.2,1.5-0.2,1.8-0.8l1.5-3.2c0.2-0.3,0.6-0.5,0.9-0.4l3.5,1.7c0.3,0.2,0.5,0.6,0.4,0.9l-1.5,3.2 c-0.3,0.7-0.2,1.5,0.5,2c2.1,1.5,3.9,3.5,5.2,5.7c0.4,0.6,1.1,0.9,1.9,0.7l3.3-1.2c0.3-0.2,0.8,0,0.9,0.5l1.3,3.6 c0.2,0.3,0,0.8-0.5,0.9l-3.3,1.2c-0.7,0.2-1.1,1-1,1.7c0.4,2.6,0.2,5.2-0.4,7.7c-0.2,0.7,0.2,1.5,0.8,1.8l3.2,1.5 c0.3,0.2,0.5,0.6,0.4,0.9l-1.7,3.5c-0.1,0.2-0.3,0.3-0.4,0.4c-0.1,0.1-0.3,0.1-0.6,0l-3.2-1.5c-0.7-0.3-1.5-0.2-2,0.5 c-1.5,2.1-3.5,3.9-5.7,5.2c-0.6,0.4-0.9,1.1-0.7,1.9l1.2,3.3c0.2,0.3,0,0.8-0.5,0.9l-3.6,1.3c-0.3,0.1-0.4,0.1-0.6,0 c-0.1-0.1-0.2-0.2-0.4-0.4l-1.2-3.3c-0.3-0.9-1.2-1.2-2-0.9c-0.9,0.3-1.2,1.2-0.9,2l1.2,3.3c0.4,0.9,1.1,1.7,2,2.2 c0.5,0.2,1,0.4,1.5,0.4c0.5,0,1,0,1.5-0.3l3.6-1.3c2-0.7,3.1-3,2.4-4.9l-0.7-2.1c1.8-1.2,3.4-2.7,4.8-4.3l2.1,0.9 c0.9,0.5,2,0.5,2.9,0.2s1.7-1.1,2.2-2l1.7-3.5C132.8,131.7,132.9,130.6,132.5,129.7z"></path> </g> </g> </g> </svg> 