<?xml version="1.0" encoding="UTF-8"?> <!-- Generator: Adobe Illustrator 24.1.2, SVG Export Plug-In . SVG Version: 6.00 Build 0) --> <svg xmlns="http://www.w3.org/2000/svg" xmlns:xlink="http://www.w3.org/1999/xlink" version="1.1" id="Layer_1" x="0px" y="0px" viewBox="0 0 200 200" style="enable-background:new 0 0 200 200;" xml:space="preserve"> <style type="text/css"> .st0{fill:#FFFFFF;} .st1{fill:#525757;} .st2{fill:none;stroke:#525757;stroke-width:7.5841;stroke-linecap:round;stroke-linejoin:round;stroke-miterlimit:10;} .st3{fill:#FDC533;} </style> <circle class="st0" cx="100" cy="100" r="100"></circle> <g> <path class="st1" d="M53.7,59.9H42.8c-2.6,0-4.7,2.1-4.7,4.7c0,2.6,2.1,4.7,4.7,4.7h10.9l15.6,42.8c-7.7,1.3-13,8.6-11.7,16.4 c1.1,6.7,6.8,11.7,13.6,11.9h66.5c2.6,0,4.7-2.1,4.7-4.7c0-2.6-2.1-4.7-4.7-4.7H71.2c-2.6,0-4.7-2.1-4.7-4.7c0-2.6,2.1-4.7,4.7-4.7 h51.3c8.2,0,15.6-5.1,18.5-12.8l10.6-28.2c0.9-2.5-0.3-5.2-2.8-6.1c-0.5-0.2-1.1-0.3-1.7-0.3H66.5c-0.3,0-0.6,0-0.9,0.1l-2.9-8.1 C61.2,62.4,57.7,59.9,53.7,59.9z M140.3,83.6l-8.1,21.8c-1.5,4-5.3,6.7-9.6,6.7H79.2L68.9,83.6H140.3z"></path> <path class="st1" d="M61.1,155.7c0,5.9,4.8,10.7,10.7,10.7s10.7-4.8,10.7-10.7c0-5.9-4.8-10.5-10.7-10.5S61.1,149.8,61.1,155.7z M75.3,155.7c0,2-1.6,3.6-3.6,3.6s-3.6-1.6-3.6-3.6c0-2,1.6-3.6,3.6-3.6S75.3,153.7,75.3,155.7z"></path> <path class="st1" d="M133.5,145.1c-5.9,0-10.7,4.7-10.7,10.5c0,5.9,4.8,10.7,10.7,10.7c5.9,0,10.7-4.8,10.7-10.7 C144.2,149.8,139.4,145.1,133.5,145.1z M133.5,159.2c-2,0-3.6-1.6-3.6-3.6c0-2,1.6-3.6,3.6-3.6s3.6,1.6,3.6,3.6 C137.1,157.6,135.5,159.2,133.5,159.2z"></path> <circle class="st1" cx="87.8" cy="51.8" r="12.5"></circle> <rect x="95.3" y="71.6" transform="matrix(0.9439 -0.3301 0.3301 0.9439 -22.2319 41.0286)" class="st2" width="28.7" height="28.7"></rect> <g> <rect x="95.3" y="71.6" transform="matrix(0.9439 -0.3301 0.3301 0.9439 -22.2319 41.0286)" class="st3" width="28.7" height="28.7"></rect> </g> <polygon class="st1" points="148.3,37.3 118.8,52.2 146.4,70.3 "></polygon> </g> </svg> 