<?xml version="1.0" encoding="UTF-8"?> <!-- Generator: Adobe Illustrator 24.1.2, SVG Export Plug-In . SVG Version: 6.00 Build 0) --> <svg xmlns="http://www.w3.org/2000/svg" xmlns:xlink="http://www.w3.org/1999/xlink" version="1.1" id="Layer_1" x="0px" y="0px" viewBox="0 0 200 200" style="enable-background:new 0 0 200 200;" xml:space="preserve"> <style type="text/css"> .st0{fill:#FFFFFF;} .st1{fill:#525757;} .st2{fill:#515757;} .st3{fill:#FDC533;} </style> <circle class="st0" cx="100" cy="100" r="100"></circle> <g> <g> <path class="st1" d="M77.8,72.9c-0.5,4.6-4.6,7.9-9.2,7.4c-4.6-0.5-8-4.6-7.4-9.2c0.5-4.6,4.6-7.9,9.2-7.4 C75,64.2,78.3,68.3,77.8,72.9z"></path> </g> <g> <path class="st2" d="M90.4,89c-0.6,0-1.3-0.3-1.7-0.9c-0.6-0.8-0.5-2,0.3-2.7l7.7-7.2l-2.7-1.1c-0.6-0.2-1.1-0.8-1.3-1.4 c-0.2-0.6,0-1.3,0.4-1.8l6.7-8.4l-10-0.7c-0.7,0-1.3-0.4-1.7-1s-0.4-1.3-0.1-1.9l4-8.3l-7.5,2.1c-0.7,0.2-1.4,0-1.9-0.4 c-0.5-0.5-0.8-1.2-0.7-1.9l1.1-7.8l-5.9,6.2c-0.5,0.5-1.2,0.7-1.8,0.6c-0.7-0.1-1.2-0.5-1.5-1.1l-2.5-5.2l-2.9,9 c-0.2,0.6-0.6,1.1-1.2,1.3s-1.2,0.2-1.8-0.1l-5.9-3.3l-0.3,8.8c0,1-0.8,1.9-1.8,2c-1,0.1-2-0.5-2.3-1.5l-5.6-19.5 c-0.2-0.8,0-1.7,0.7-2.2c0.7-0.5,1.6-0.6,2.3-0.2l11.1,6.1l4.2-16.7c0.2-0.9,1-1.5,1.9-1.6c0.9-0.1,1.7,0.5,2.1,1.3l4.8,11.6 l14.3-15.9c0.6-0.7,1.6-0.9,2.4-0.5c0.8,0.4,1.3,1.3,1.2,2.2l-2.9,18.6l13.7-4.5c0.8-0.3,1.8,0,2.3,0.7c0.5,0.7,0.6,1.7,0.1,2.4 l-9.3,14l15-0.9c0.8-0.1,1.7,0.4,2,1.2c0.4,0.8,0.2,1.7-0.4,2.3l-10.7,11.1l6.8,1.9c0.8,0.2,1.4,0.9,1.5,1.8 c0.1,0.8-0.3,1.6-1.1,2.1L91.4,88.7C91,88.9,90.7,89,90.4,89z M98,74.3l3.1,1.2c0.7,0.3,1.1,0.8,1.3,1.5c0.1,0.3,0,0.6,0,0.8 l2.7-1.5l-5.3-1.5c-0.6-0.2-1.1-0.6-1.4-1.2L98,74.3z M104.8,61.9c0.4,0.2,0.8,0.6,0.9,1c0.2,0.4,0.2,0.9,0.1,1.3l2.5-2.6 L104.8,61.9z M96.4,48.4c0.4,0.1,0.8,0.3,1.1,0.7c0.5,0.6,0.6,1.5,0.3,2.2L97,52.7l3.9-5.8L96.4,48.4z M86.1,37.4 c0.3,0,0.6,0.1,0.9,0.2c0.8,0.4,1.3,1.3,1.1,2.2l-1.6,11.1l1.6-0.4c-0.1-0.1-0.2-0.1-0.3-0.2c-0.6-0.5-0.8-1.2-0.7-1.9l2.3-15.1 l-3.9,4.3C85.7,37.4,85.9,37.4,86.1,37.4z M54.9,46.3l0.7,2.3c0.2-0.4,0.5-0.8,0.9-1c0.1-0.1,0.3-0.1,0.4-0.2L54.9,46.3z M70.4,36.8l-0.5,1.8c0.2-0.1,0.5-0.2,0.8-0.2c0.1,0,0.2,0,0.3,0L70.4,36.8z"></path> </g> <g> <g> <polygon class="st3" points="57.5,49.4 66.4,54.4 70.8,40.5 75.6,50.4 86.1,39.5 84,53.7 95.9,50.4 89.9,62.8 103.9,63.7 94.6,75.2 100.4,77.5 90.4,86.9 110.6,75.8 100.5,72.9 113.5,59.3 94.4,60.5 106,43 89.1,48.6 92.5,26.6 76,44.9 69.9,30.3 65,49.5 51.5,42.1 57.1,61.6 "></polygon> </g> </g> <g> <path class="st1" d="M98.2,112.9c0.9-2.2-3.4-6.9-2.4-5.6c1.1,1.3-10.3-12.6-12.7-19c-1.7-4.6-8.6-5.5-12-5.7 c-2.2-0.1-6.8,0.6-8.8,1.4c-4,1.5-7.5-1.2-10.1-4.6c-4.6-6.2-3-15-3-15.2c0.5-2.3-1-4.5-3.3-5c-2.3-0.5-4.5,1-5,3.3 C40.9,63,38.5,75,45.4,84.3c3.3,4.5,5.8,6,11.9,9c1.2,4.8,4.6,22.9,4.6,22.9l-10.3,43.2c-0.4,2.2,0.9,4.3,3.2,4.9 c2.2,0.5,4.4-1,4.9-3.2c0,0,10.7-35.2,11.1-35.2l13.8,35.6c0.5,1.3,1.6,2.2,2.9,2.5c0,0,0,0,0.1,0c0.3-0.5,0.4-1,0.7-1.4 c1.1-1.7,2.4-3.5,3.7-5.4c-2-6.9-12.1-41.3-12.7-41.5l-0.8-18.4c2.9,6.8,12.6,17,13.4,17.8C92.8,116,96.7,117.1,98.2,112.9z"></path> </g> <g> <path class="st2" d="M102.7,109v13.5v3.2h22.1v-3.2v-13.5c0.2,0.5,0.5,1.1,0.7,1.7c1.1,3,2,7.7,2.1,15h6.5 c-0.2-11.3-2.1-17.7-4.7-21.6c-1.3-2-2.9-3.3-4.4-4.1c-1.4-0.7-2.6-0.9-3.3-0.9c-0.1,0-0.1,0-0.2,0h-15.8c-0.1,0-0.1,0-0.2,0 c-0.7,0-2,0.2-3.3,0.9c-2.2,1.1-4.6,3.5-6.2,7.7c-1.6,4-2.7,9.6-2.8,18h6.5C100,116.9,101.3,111.8,102.7,109z"></path> <circle class="st2" cx="113.7" cy="87.7" r="9.2"></circle> <polygon class="st2" points="159.3,113.7 154.2,113.7 154.2,107.9 158.5,107.9 158.5,102 146.2,102 146.2,107.9 151.1,107.9 151.1,113.7 135.7,113.7 135.7,125.7 159.3,125.7 "></polygon> </g> <rect x="86.4" y="128.4" class="st2" width="72.9" height="36"></rect> </g> </svg> 