<?xml version="1.0" encoding="UTF-8"?> <!-- Generator: Adobe Illustrator 24.1.2, SVG Export Plug-In . SVG Version: 6.00 Build 0) --> <svg xmlns="http://www.w3.org/2000/svg" xmlns:xlink="http://www.w3.org/1999/xlink" version="1.1" id="Layer_1" x="0px" y="0px" viewBox="0 0 500 500" style="enable-background:new 0 0 500 500;" xml:space="preserve"> <style type="text/css"> .st0{clip-path:url(#SVGID_2_);fill:#00538B;} .st1{clip-path:url(#SVGID_2_);fill:#FFFFFF;} </style> <g> <g> <defs> <rect id="SVGID_1_" x="0" width="500" height="500"></rect> </defs> <clipPath id="SVGID_2_"> <use xlink:href="#SVGID_1_" style="overflow:visible;"></use> </clipPath> <path class="st0" d="M246.7,146.8c12.2,0,22.1-8.2,22.1-18.4s-9.9-18.4-22.1-18.4c-12.2,0-22,8.2-22,18.4S234.6,146.8,246.7,146.8 M312.2,158.6c-18.4,0-33.9,6.5-46.4,14.5v-19.5c-11.9,6.2-26.1,6.2-38.1,0v19.5c-12.5-7.9-28-14.5-46.4-14.5 c-27.6,0-48.4,13.6-48.4,32.3c0,35.4,59.8,45.3,59.8,64.8c0,12.8-18.8,22.6-56,6.5v22c11.6,3.9,23.7,5.9,36,6 c13,0,39.5-1.7,55-20.3v20h38.1v-20c15.5,18.7,42.1,20.4,55,20.4c12.5,0,24.8-2.2,39.6-7.6v-90.6 C360.5,171.9,339.9,158.6,312.2,158.6L312.2,158.6z M227.7,230.3c-15.1-16.4-54.5-24.9-54.5-41.4c0-5.2,5-9.7,16.4-9.7 c9.3,0,23.4,4.3,38.1,16.7L227.7,230.3z M265.8,230.4V196c14.6-12.4,28.7-16.7,38.1-16.7c11.4,0,16.4,4.5,16.4,9.7 C320.3,205.4,280.9,214,265.8,230.4L265.8,230.4z M325.7,268.3c-22,2.2-32.4-6.5-32.4-16.2c0-11.2,14.4-16.2,32.4-26.6V268.3z"></path> <rect x="136.6" y="305.9" class="st0" width="223.9" height="82.7"></rect> <path class="st1" d="M174.6,345.4h-6.4l-2-4.7h-10.7l-1.7,4.7h-6.3l9.6-23.7h6.9L174.6,345.4 M160.7,327.4l-3.4,9.2h7.4 L160.7,327.4z"></path> <path class="st1" d="M188.2,321.7c5.4,0,7.9,3.8,7.9,7c0,3.2-2.3,7.1-7.9,7.1h-4.7v9.6h-5.9v-23.7H188.2 M183.5,331.6h2.7 c2.7,0,3.7-1,3.7-2.7c0-2-1.1-2.7-4.3-2.7h-2.1V331.6z"></path> <path class="st1" d="M211,321.7c5.4,0,7.9,3.8,7.9,7c0,3.2-2.3,7.1-7.9,7.1h-4.7v9.6h-5.9v-23.7H211 M206.4,331.6h2.7 c2.7,0,3.7-1,3.7-2.7c0-2-1.1-2.7-4.3-2.7h-2.1V331.6z"></path> <path class="st1" d="M233.6,321.7c4.9,0,7.7,3.3,7.7,6.9c0,2.6-1.6,4.9-4.1,5.8c2.5,1.2,3.2,4.2,6.5,11h-6.5 c-2.6-5-3.4-9.7-6.6-9.7h-1.7v9.7H223v-23.7H233.6 M228.9,331.4h3.1c1.6,0,3.2-0.7,3.2-2.7c0-1.7-1.1-2.7-3.4-2.7h-2.9v5.4 L228.9,331.4z"></path> <path class="st1" d="M259.1,345.7c-8.7,0-13.6-6.1-13.6-12.2c0-5.8,4.7-12.2,13.6-12.2c9,0,13.6,6.5,13.6,12.2 C272.8,339.7,267.7,345.7,259.1,345.7 M259.1,326.3c-4.5,0-7.5,2.9-7.5,7.2s2.9,7.2,7.5,7.2c4.5,0,7.5-2.9,7.5-7.2 S263.7,326.3,259.1,326.3L259.1,326.3z"></path> <polyline class="st1" points="288.5,345.7 285.9,345.7 274.4,321.7 280.9,321.7 287.1,335.2 293,321.7 299.4,321.7 288.5,345.7 "></polyline> <polyline class="st1" points="319.6,345.4 302.1,345.4 302.1,321.7 319.4,321.7 319.4,326 308,326 308,330.9 318.9,330.9 318.9,335.4 308,335.4 308,341 319.6,341 319.6,345.4 "></polyline> <path class="st1" d="M334.6,321.7c8.7,0,13.1,5.4,13.1,11.9c0,6.9-4.3,11.8-13.7,11.8h-9.8v-23.7H334.6 M330.1,341h3.8 c6,0,7.7-4.1,7.7-7.5c0-4.1-2.2-7.5-7.9-7.5H330v15H330.1z"></path> <path class="st1" d="M165.8,371.3c-2.1,1.2-4.5,1.9-6.9,1.8c-6.9,0-10.3-4.5-10.3-9.2c0-4.7,3.8-9.3,10.6-9.3 c2.2-0.1,4.5,0.5,6.4,1.6v4.1c-1.8-1.1-3.9-1.8-6-1.8c-3.7,0-6.4,2.3-6.4,5.5s2.6,5.5,6.3,5.5c2.3,0,3.8-0.7,6.4-2L165.8,371.3"></path> <path class="st1" d="M178.7,373.2c-6.5,0-10.1-4.7-10.1-9.3c0-4.4,3.4-9.3,10.1-9.3s10.1,4.9,10.1,9.3c-0.1,5.3-4.5,9.5-9.8,9.3 C178.9,373.2,178.8,373.2,178.7,373.2 M178.7,358.3c-3.1,0-5.5,2.5-5.5,5.5s2.5,5.5,5.5,5.5s5.5-2.5,5.5-5.5 c0.2-2.9-2-5.3-4.9-5.5C179.2,358.3,178.9,358.3,178.7,358.3z"></path> <polyline class="st1" points="209.8,372.9 206.1,372.9 196.3,361.3 196.3,372.9 192,372.9 192,354.8 195.9,354.8 205.4,365.9 205.4,354.8 209.8,354.8 209.8,372.9 "></polyline> <polyline class="st1" points="229.6,358.1 223.2,358.1 223.2,372.9 218.9,372.9 218.9,358.1 212.5,358.1 212.5,354.8 229.6,354.8 229.6,358.1 "></polyline> <path class="st1" d="M240.1,354.8c3-0.2,5.5,2,5.8,4.9c0,0.1,0,0.2,0,0.3c0,2-1.2,3.7-3.1,4.4c1.8,1,2.3,3.2,4.8,8.5h-4.8 c-1.8-3.9-2.6-7.4-4.9-7.4h-1.2v7.4h-4.4v-18.2H240.1 M236.5,362.2h2.3c1.2,0,2.5-0.5,2.5-2.1c0-1.4-0.9-2.1-2.5-2.1h-2.2v4.2 L236.5,362.2z"></path> <path class="st1" d="M267.8,372.9h-4.7l-1.5-3.6h-7.9l-1.4,3.6h-4.7l7.1-18.2h5L267.8,372.9 M257.5,359.2l-2.6,7h5.4L257.5,359.2z "></path> <path class="st1" d="M286.3,371.3c-2.1,1.2-4.5,1.9-6.9,1.8c-6.9,0-10.2-4.5-10.2-9.2c0-4.7,3.8-9.3,10.6-9.3 c2.2-0.1,4.5,0.5,6.4,1.6v4.1c-1.8-1.1-3.9-1.8-6-1.8c-3.8,0-6.4,2.3-6.4,5.5s2.6,5.5,6.3,5.5c2.3,0,3.8-0.7,6.4-2v3.8"></path> <polyline class="st1" points="305.7,358.1 299.3,358.1 299.3,372.9 294.9,372.9 294.9,358.1 288.5,358.1 288.5,354.8 305.7,354.8 305.7,358.1 "></polyline> <path class="st1" d="M317.6,373.2c-6.5,0-10.1-4.7-10.1-9.3c0-4.4,3.4-9.3,10.1-9.3s10.1,4.9,10.1,9.3 C327.6,368.5,323.9,373.2,317.6,373.2 M317.6,358.3c-3.1,0-5.5,2.5-5.5,5.5s2.5,5.5,5.5,5.5s5.5-2.5,5.5-5.5 c0.2-2.9-2-5.3-4.9-5.5C318,358.3,317.8,358.3,317.6,358.3z"></path> <path class="st1" d="M338.7,354.8c3-0.2,5.5,2,5.8,4.9c0,0.1,0,0.2,0,0.3c0,2-1.2,3.7-3.1,4.4c1.8,1,2.3,3.2,4.8,8.5h-4.8 c-1.8-3.9-2.6-7.4-4.9-7.4h-1.2v7.4h-4.4v-18.2H338.7 M335.2,362.2h2.3c1.2,0,2.5-0.5,2.5-2.1c0-1.4-0.9-2.1-2.5-2.1h-2.3V362.2z"></path> </g> </g> </svg> 