<?xml version="1.0" encoding="UTF-8"?> <!-- Generator: Adobe Illustrator 24.1.2, SVG Export Plug-In . SVG Version: 6.00 Build 0) --> <svg xmlns="http://www.w3.org/2000/svg" xmlns:xlink="http://www.w3.org/1999/xlink" version="1.1" id="Layer_1" x="0px" y="0px" viewBox="0 0 425.2 425.2" style="enable-background:new 0 0 425.2 425.2;" xml:space="preserve"> <style type="text/css"> .st0{fill:#FFFFFF;} .st1{fill:#525758;} .st2{clip-path:url(#SVGID_3_);} </style> <path class="st0" d="M348.8,250.2l-0.1,0.2c-8.7,31.4-27.9,59.1-54.3,78l-9.6-13.4c23.3-16.7,40.3-41.2,48-69l0.1-0.2L348.8,250.2 L348.8,250.2z M352,236.6l-16.2-2.8c4.9-28.4-0.1-57.9-14.3-83l14.4-8.1C351.7,171.2,357.5,204.5,352,236.6z M282.9,335.9 c-28.4,16.4-61.7,22.5-93.7,17l2.7-16.3c28.3,4.8,57.7-0.5,82.8-15L282.9,335.9z M328.5,131l-13.6,9.4 c-16.5-23.6-40.8-40.8-68.5-48.4l4.3-15.9l0.1,0C282.2,84.7,309.7,104.2,328.5,131z M180,334l-4.4,15.9l-0.3-0.1 c-31.4-8.7-59-28.2-77.8-55l13.5-9.5c16.5,23.7,40.9,40.9,68.6,48.6L180,334z M234.3,89.3c-28.3-4.9-57.7,0.5-82.7,15l-8.2-14.3 C171.7,73.5,205,67.5,237.1,73L234.3,89.3z M104.6,275L90.2,283c-15.9-28.5-21.6-61.7-16-93.9l16.2,2.8 C85.5,220.3,90.5,249.8,104.6,275z M141.2,110.8c-23.4,16.7-40.4,41.2-48.1,69.1l-15.9-4.3l0-0.1c8.7-31.4,28-59.2,54.4-78.1 L141.2,110.8z"></path> <path class="st0" d="M161.6,371.4c-4.6-1.5-9.1-3.2-13.4-5l6.4-15.2c4,1.7,8,3.1,12.1,4.5c25.3,8.2,52.4,9.7,78.2,4.3l3.4,16.1 C219.6,382.1,189.7,380.5,161.6,371.4z M135,360.2c-30.5-16-55-40.7-71-71.2l14.6-7.6c14.4,27.6,36.5,49.8,64,64.2L135,360.2z M262.4,372.5l-4.8-15.7c29.9-9,55.9-26.7,74.9-51l13,10.2C324.2,342.9,295.5,362.5,262.4,372.5z M57.9,275.8 c-13.3-32-16.2-66.7-8.6-100.1l16.1,3.6c-6.9,30.3-4.3,61.4,7.7,90.2L57.9,275.8z M354,304.1l-13.8-9c7.1-10.9,12.8-22.8,16.8-35.3 c5.5-16.9,7.9-34.3,7.2-51.9l16.4-0.7c0.8,19.5-1.9,38.9-8,57.6C368.2,278.7,361.9,291.9,354,304.1z M68.9,166.7l-15.7-5.1l0.1-0.3 c10.7-32.9,31-61.2,58.6-81.8l9.8,13.2c-24.9,18.5-43.2,44-52.8,73.5L68.9,166.7z M363.1,194.8c-4-30.7-17.2-59.1-38.2-82.2 l12.2-11.1c23.3,25.5,37.9,57.1,42.3,91.1L363.1,194.8z M132.7,85.4l-8.6-14c29.3-18.1,63-26.7,97.4-24.7L220.6,63 C189.5,61.3,159.1,69,132.7,85.4z M315.6,103.2c-16.2-15-35.1-26-56.3-32.9c-8.4-2.7-17.1-4.7-25.7-5.9L236,48 c9.6,1.3,19.1,3.6,28.5,6.6c23.4,7.6,44.4,19.9,62.4,36.4L315.6,103.2z"></path> <g> <g> <g> <g> <circle class="st1" cx="164.2" cy="209.6" r="26.2"></circle> <path class="st1" d="M216.2,200.3l-11.3-1.2c-0.8-3.5-2.3-6.7-4.1-9.6l7.2-9c0.8-1.2,0.8-2.9-0.3-3.8l-9.8-9.8 c-1.2-1.2-2.6-1.2-3.8-0.3l-9,7.2c-3.2-1.8-6.4-3.2-9.6-4.1l-1.2-11.3c-0.3-1.5-1.5-2.6-2.9-2.6h-14.2c-1.5,0-2.6,1.2-2.9,2.6 l-1.2,11.3c-3.5,0.8-6.7,2.3-9.6,4.1l-9-7.2c-1.2-0.8-2.9-0.8-3.8,0.3l-9.8,9.8c-1.2,1.2-1.2,2.6-0.3,3.8l6.4,8.5 c-1.8,3.2-3.2,6.4-4.1,9.6l-11.3,1.2c-1.5,0.3-2.6,1.5-2.6,2.9v14.2c0,1.5,1.2,2.6,2.6,2.9l11.3,1.2c0.8,3.5,2.3,6.7,4.1,9.6 l-7.2,9c-0.8,1.2-0.8,2.9,0.3,3.8l9.8,9.8c1.2,1.2,2.6,1.2,3.8,0.3l9-7.2c3.2,1.8,6.4,3.2,9.6,4.1l1.2,11.3 c0.3,1.5,1.5,2.6,2.9,2.6h14.2c1.5,0,2.6-1.2,2.9-2.6l1.2-11.3c3.5-0.8,6.7-2.3,9.6-4.1l9,7.2c1.2,0.8,2.9,0.8,3.8-0.3l9.8-9.8 c2-0.3,2-2,1.2-3.2l-7.2-9c1.8-3.2,3.2-6.4,4.1-9.6l11.3-1.2c1.5-0.3,2.6-1.5,2.6-2.9v-14.2 C218.8,201.8,217.7,200.6,216.2,200.3z M164.2,240.2c-17,0-30.9-13.9-30.9-30.9s13.9-30.9,30.9-30.9s30.9,13.9,30.9,30.9 S181.3,240.2,164.2,240.2z"></path> </g> <g> <ellipse class="st0" cx="247.6" cy="163.7" rx="18.4" ry="18.4"></ellipse> <path class="st1" d="M288.1,160.5l-8-1.9c-0.3-2.4-0.9-4.5-1.8-7l5.7-5.8c1-1,1.2-2.8,0.2-3.8l-6.6-8.5c-1-1.3-2.4-1.5-3.7-0.7 l-7.6,4.6c-1.9-1.4-4.1-2.5-6.3-3.4l0.1-8.2c0.2-1.5-0.8-2.7-2.2-2.9l-10.7-1.3c-1.5-0.2-2.7,0.8-3.2,2.2l-1.9,8 c-2.4,0.3-4.5,0.9-7,1.8l-5.8-5.7c-1-1-2.8-1.2-3.8-0.2l-8.5,6.6c-1.3,1-1.5,2.4-0.7,3.7l4.1,7c-1.4,1.9-2.5,4.1-3.4,6.3 l-8.2-0.1c-1.5,0.1-2.8,1.1-3,2.6l-1.3,10.7c0.2,1.2,1.1,2.5,2.6,3l8,1.9c0.3,2.4,0.9,4.5,1.8,7l-5.7,5.5c-1,1-1.2,2.8-0.2,3.8 l6.6,8.5c1,1.3,2.4,1.5,3.7,0.7l7-4.1c1.9,1.4,4.1,2.5,6.3,3.4l-0.1,8.2c0.1,1.5,1.1,2.8,2.6,3l10.7,1.3 c1.5,0.2,2.7-0.8,3.2-2.2l1.9-8c2.4-0.3,4.5-0.9,7-1.8l5.8,5.7c1,1,2.8,1.2,3.8,0.2l8.5-6.6c1.3-1,1.5-2.4,0.7-3.7l-4.1-7 c1.4-1.9,2.5-4.1,3.4-6.3l8.2,0.1c1.5-0.1,2.8-1.1,3-2.6l1.3-10.7C290.5,162.3,289.5,161,288.1,160.5z M244.7,186.9 c-13.1-1.6-22.3-13-20.6-26.1c1.6-13.1,13.7-22.2,26.5-20.6c12.7,1.6,22.3,13,20.6,26.1C269.6,179.4,257.8,188.5,244.7,186.9z"></path> </g> <g> <g> <ellipse class="st0" cx="254.6" cy="255.1" rx="22.2" ry="22.2"></ellipse> <path class="st1" d="M297.5,240.4l-9.4,0.3c-1.2-2.4-2.5-4.9-4.4-7.2l4.6-8.4c0.7-1.3,0.5-3-0.8-3.7l-9.6-7.1 c-1.3-0.9-2.8-0.7-3.8,0.3l-6.6,6.9c-2.8-1-5.6-1.8-8.3-2l-2.5-9c-0.5-1.4-1.9-2.3-3.3-2.1l-11.8,1.8c-1.4,0.2-2.4,1.6-2.5,3 l0.3,9.4c-2.4,1.2-4.9,2.5-7.2,4.4l-8.4-4.6c-1.3-0.7-3-0.5-3.7,0.8l-7.1,9.6c-0.9,1.3-0.7,2.8,0.3,3.8l6.9,6.6 c-1,2.8-1.8,5.6-2,8.3l-9,2.5c-1.4,0.5-2.3,1.9-2.1,3.3l1.8,11.8c0.2,1.4,1.6,2.4,3,2.5l9.4-0.3c1.2,2.4,2.5,4.9,4.4,7.2 l-4.6,8.4c-0.7,1.3-0.5,3,0.8,3.7l9.6,7.1c1.3,0.9,2.8,0.7,3.8-0.3l6.6-6.9c2.8,1,5.6,1.8,8.3,2l2.5,9c0.5,1.4,1.9,2.3,3.3,2.1 l11.8-1.8c1.4-0.2,2.4-1.6,2.5-3l-0.3-9.4c2.4-1.2,4.9-2.5,7.2-4.4l8.4,4.6c1.3,0.7,3,0.5,3.7-0.8l7.1-9.6 c0.9-1.3,0.7-2.8-0.3-3.8l-6.9-6.6c1-2.8,1.8-5.6,2-8.3l9-2.5c1.4-0.5,2.3-1.9,2.1-3.3l-1.8-11.8 C300.3,241.4,298.9,240.2,297.5,240.4z M258.6,282.4c-15.2,2.3-29.1-8-31.4-23.1c-2.3-15.2,8-29.1,23.1-31.4 c15.2-2.3,29.2,8.4,31.4,23.1C284,266.2,273.8,280.2,258.6,282.4z"></path> </g> </g> <path class="st1" d="M239,174.4v-2.6c0-0.5,0.4-0.8,0.8-0.8h15.4c0.5,0,0.8,0.4,0.8,0.8v2.6H239z M240.7,164.9 c0-3.8,3.1-6.9,6.9-6.9c3.8,0,6.9,3.1,6.9,6.9v4.7h-13.7L240.7,164.9L240.7,164.9z M251.9,164.4c0-2.1-1.8-3.9-3.9-3.9h-0.4 c-0.3,0-0.5,0.2-0.5,0.5v0.8c0,0.3,0.2,0.5,0.5,0.5h0.5c1.2,0,2.1,0.9,2.1,2.1v0.5c0,0.3,0.2,0.5,0.5,0.5h0.8 c0.3,0,0.5-0.2,0.5-0.5L251.9,164.4L251.9,164.4z M237.3,164.1c0.5,0,0.8,0.4,0.8,0.8c0,0.5-0.4,0.8-0.8,0.8h-3.4 c-0.5,0-0.8-0.4-0.8-0.8c0-0.5,0.4-0.8,0.8-0.8H237.3z M261.3,164.1c0.5,0,0.8,0.4,0.8,0.8c0,0.5-0.4,0.8-0.8,0.8h-3.4 c-0.5,0-0.8-0.4-0.8-0.8c0-0.5,0.4-0.8,0.8-0.8H261.3z M239.7,158.2l-2.4-2.4c-0.8-0.8,0.4-2,1.2-1.2l2.4,2.4 C241.7,157.8,240.4,159,239.7,158.2z M254.2,157l2.4-2.4c0.8-0.8,2,0.4,1.2,1.2l-2.4,2.4C254.7,159,253.4,157.8,254.2,157z M246.7,154.6v-3.4c0-1.1,1.7-1.1,1.7,0v3.4C248.4,155.7,246.7,155.7,246.7,154.6z"></path> </g> </g> <g transform="translate(0,-952.36218)"> <path class="st1" d="M264.3,1193.1c-2.9-1.1-6.2-0.5-8.5,1.9c-2.4,2.4-3,5.9-1.7,8.9l-12.4,12.4c-1.1,1.1-1.1,3,0,4.2 c1.1,1.1,3,1.1,4.2,0l12.4-12.4c3,1.3,6.5,0.7,8.9-1.7c2.3-2.3,2.9-5.7,1.9-8.5l-5.2,5.2l-3.6-1l-1-3.6L264.3,1193.1z"></path> </g> <g> <g> <circle id="SVGID_1_" class="st0" cx="164.2" cy="209.6" r="26.2"></circle> </g> <g> <defs> <circle id="SVGID_2_" cx="164.2" cy="209.6" r="26.2"></circle> </defs> <clipPath id="SVGID_3_"> <use xlink:href="#SVGID_2_" style="overflow:visible;"></use> </clipPath> <g class="st2"> <path class="st1" d="M145.4,232.6l-0.7,7.2h38.6l-0.7-7.2c-0.7-5.9-5-10.4-10.5-11.7l-5.5,13.7l-1.1-9.8h0.7 c0.6,0,0.8-0.4,0.8-0.8v-2.6c0-0.6-0.4-0.8-0.8-0.8h-4.3c-0.4,0-0.8,0.4-0.8,0.8v2.6c0,0.6,0.4,0.8,0.8,0.8h0.8l-1.1,9.8 l-5.6-13.7C150.3,222.2,146.1,226.9,145.4,232.6z"></path> <path class="st1" d="M152.8,211.1c2,4.2,6.2,7,11.1,7c4.2,0,7.9-2,10-5.3c0,0,0,0-0.1,0h-5.7c-0.6,0.6-1.1,0.8-2,0.8h-3.8 c-1.5,0-2.7-1.2-2.7-2.7v-2.4c0-1.6,1.2-2.8,2.7-2.8h3.8c0.8,0,1.5,0.4,2,0.8h5.6v-5.3c0-0.7,0.2-1.2,0.7-1.8 c-2-3.5-6-5.9-10.5-5.9c-4.5,0-8.5,2.4-10.5,5.9c0.4,0.6,0.7,1.1,0.7,1.8v7.4C154.1,209.7,153.6,210.5,152.8,211.1z"></path> <path class="st1" d="M148.4,209.7h2.8c0.6,0,1-0.4,1-1v-7.3c0-0.6-0.4-1-1-1h-0.6c2.1-5.2,7.2-8.9,13.3-8.9s11.1,3.6,13.3,8.9 h-0.6c-0.6,0-1,0.4-1,1v6.4c-0.4,0.4-1,0.7-1.8,0.7H167l0,0c0-0.4-0.4-0.8-0.8-0.8h-3.8c-0.6,0-0.8,0.4-0.8,0.8v2.3 c0,0.6,0.4,0.8,0.8,0.8h3.8c0.6,0,0.8-0.4,0.8-0.8l0,0h6.9c1.1,0,2.1-0.4,3-1h2.5c2.3,0,4.3-1.9,4.3-4.3v-0.9 c0-1.9-1.4-3.5-3.2-4.1c-2.1-7.1-8.8-12.3-16.6-12.3s-14.4,5.2-16.7,12.4c-1.8,0.6-3.2,2-3.2,4.1v0.9 C144.1,207.7,146.1,209.7,148.4,209.7z"></path> </g> </g> </g> </g> </svg> 