<?xml version="1.0" encoding="UTF-8"?> <!-- Generator: Adobe Illustrator 24.1.2, SVG Export Plug-In . SVG Version: 6.00 Build 0) --> <svg xmlns="http://www.w3.org/2000/svg" xmlns:xlink="http://www.w3.org/1999/xlink" version="1.1" id="Layer_1" x="0px" y="0px" viewBox="0 0 365 260" style="enable-background:new 0 0 365 260;" xml:space="preserve"> <style type="text/css"> .st0{fill:#525758;} </style> <g> <path class="st0" d="M313.2,48.1H167.6c-4.6,0-8.4-3.7-8.4-8.4c0-4.6,3.7-8.4,8.4-8.4h145.6c4.6,0,8.4,3.7,8.4,8.4 C321.6,44.3,317.8,48.1,313.2,48.1 M284.9,72.5H183c-4.6,0-8.4-3.7-8.4-8.4c0-4.6,3.7-8.4,8.4-8.4h101.9c4.6,0,8.4,3.7,8.4,8.4 S289.5,72.5,284.9,72.5 M364.3,52.4c0-28.2-22.9-51.1-51.1-51.1H143.1C114.9,1.3,92,24.2,92,52.4s22.9,51.1,51.1,51.1h131.6 l50.3,48.7c0.1,0.1,0.3,0.2,0.4,0.3c0.5,0.5,1.1,0.8,1.7,1.1c0.3,0.1,0.5,0.3,0.8,0.4c0.9,0.3,1.8,0.5,2.8,0.5 c0.8,0,1.7-0.2,2.5-0.4c0.1,0,0.2,0,0.2,0c0.1,0,0.1-0.1,0.2-0.1c0.3-0.1,0.6-0.3,0.8-0.4c0.2-0.1,0.5-0.2,0.7-0.4 c0.2-0.1,0.4-0.3,0.6-0.5s0.5-0.4,0.7-0.6c0.1-0.1,0.1-0.1,0.2-0.2c0.1-0.1,0.1-0.1,0.1-0.2c0.7-0.7,1.2-1.6,1.6-2.5 c0.1-0.1,0.1-0.3,0.1-0.4c0.3-0.9,0.5-1.8,0.5-2.7c0-0.1,0-0.3,0-0.4c0-0.8-0.1-1.6-0.4-2.4l-14.3-41.2 C347.3,97,364.3,76.7,364.3,52.4"></path> <path class="st0" d="M208.1,184.9H53.4c-4.6,0-8.4-3.8-8.4-8.4s3.7-8.4,8.4-8.4h154.7c4.6,0,8.4,3.8,8.4,8.4 S212.7,184.9,208.1,184.9 M53.4,143h120.5c4.6,0,8.4,3.8,8.4,8.4c0,4.6-3.7,8.4-8.4,8.4H53.4c-4.6,0-8.4-3.8-8.4-8.4 C45.1,146.8,48.8,143,53.4,143 M206.6,116.7H49.5c-26.4,0-47.8,21.4-47.8,47.8c0,22.5,15.6,41.3,36.5,46.4l-13,37.4 c-0.3,0.8-0.4,1.6-0.4,2.4c0,0.1,0,0.3,0,0.4c0,1,0.2,1.9,0.5,2.8c0,0.1,0.1,0.3,0.1,0.4c0.4,0.9,0.9,1.7,1.6,2.5 c0,0.1,0.1,0.1,0.1,0.2c0.1,0.1,0.1,0.1,0.2,0.2c0.2,0.2,0.5,0.4,0.7,0.6s0.4,0.3,0.6,0.5c0.2,0.1,0.5,0.3,0.7,0.4 c0.3,0.1,0.5,0.3,0.8,0.4c0.1,0,0.1,0.1,0.2,0.1s0.2,0,0.3,0c0.8,0.3,1.6,0.4,2.5,0.4c1,0,1.9-0.2,2.8-0.5c0.3-0.1,0.5-0.3,0.8-0.4 c0.6-0.3,1.2-0.7,1.8-1.1c0.1-0.1,0.3-0.2,0.4-0.3l46.3-44.8h121.3c26.4,0,47.8-21.4,47.8-47.8S232.9,116.7,206.6,116.7"></path> </g> </svg> 