<?xml version="1.0" encoding="UTF-8"?> <svg xmlns="http://www.w3.org/2000/svg" id="Layer_1" data-name="Layer 1" viewBox="0 0 218.99 186.5"><defs><style>.cls-1{fill:#fbc434;}.cls-2{fill:#535859;}</style></defs><rect class="cls-1" x="7.2" y="11.7" width="135.5" height="97.4"></rect><path class="cls-2" d="M182.9,242.6a6.56,6.56,0,0,0-5.5-3.2,6.79,6.79,0,0,0-5.5,3.2l-25.5,44.9a3.45,3.45,0,0,0,1.4,4.9A3.7,3.7,0,0,0,153,291l20.8-35.7v46.5a3.63,3.63,0,0,0,3.6,3.8,3.52,3.52,0,0,0,3.6-3.8V255.3L202.1,291a3.78,3.78,0,0,0,5.2,1.4c1.6-1.1,2.5-3.2,1.4-4.9Z" transform="translate(-102.9 -119.4)"></path><path class="cls-2" d="M282.6,124.9A18.4,18.4,0,1,1,264,143.3a18.46,18.46,0,0,1,18.6-18.4" transform="translate(-102.9 -119.4)"></path><path class="cls-2" d="M158.8,124.9" transform="translate(-102.9 -119.4)"></path><path class="cls-2" d="M196,124.9" transform="translate(-102.9 -119.4)"></path><path class="cls-2" d="M240.9,220.6a3.86,3.86,0,0,1-3.8,3.8H117.8a3.68,3.68,0,0,1-3.8-3.8V139.7a3.61,3.61,0,0,1,3.8-3.5H237.2a3.62,3.62,0,0,1,3.8,3.5v32.1l10.9-1.9v-38c0-4.1-3-6.8-7.1-6.8H196v-.3a5.46,5.46,0,0,0-5.5-5.4h-26a5.53,5.53,0,0,0-5.5,5.7v.3H110c-4.1,0-7.1,2.7-7.1,6.8v96.3a7,7,0,0,0,7.1,7.3H244.7a7.23,7.23,0,0,0,7.1-7.3V174.7l-10.9,1.9v44Z" transform="translate(-102.9 -119.4)"></path><path class="cls-2" d="M321.4,223.6c-6.6-17.3-13.4-34.4-20-51.7a15,15,0,0,0-1.9-3.8,14.63,14.63,0,0,0-4.9-4.1,25.87,25.87,0,0,1-12,3.2,23.49,23.49,0,0,1-13.7-4.3L215,172.4a7.46,7.46,0,0,0,2.5,14.7l46.3-8.1V297.5a8.47,8.47,0,0,0,8.5,8.4,8.15,8.15,0,0,0,8.2-8.1v-53c0-1.1.5-1.9,1.6-1.9a1.84,1.84,0,0,1,1.9,1.9V298c0,4.1,3.8,7.3,8.5,7.3s8.5-3.2,8.5-7.3V212.8l6.3,16.2a7.62,7.62,0,0,0,9.9,4.1,7.27,7.27,0,0,0,4.2-9.5" transform="translate(-102.9 -119.4)"></path></svg> 