<?xml version="1.0" encoding="UTF-8"?> <svg xmlns="http://www.w3.org/2000/svg" id="Layer_1" data-name="Layer 1" viewBox="0 0 184.44 194.05"><defs><style>.cls-1{fill:#535859;}.cls-2{fill:#fff;}</style></defs><path class="cls-1" d="M19.4,130.1l1.8,13.5A4.92,4.92,0,0,1,21,146L6.1,185c-1.8,4.9,0,11,4.5,13.5a10,10,0,0,0,3.1,1.2,10.55,10.55,0,0,0,12-6.3l8.8-21-2.4-24.9Z" transform="translate(-5.41 -5.9)"></path><path class="cls-1" d="M84.1,80.9,64.9,78.5s-12-17.3-13.7-19.6c-1.4-1.8-3.9-5.9-6.7-8A17.58,17.58,0,0,0,31.4,48h0A14.68,14.68,0,0,0,19.8,61.1l-4.9,43.3a10.3,10.3,0,0,0,2,7.3l22.2,30.4a10.47,10.47,0,0,1,1.8,4.7l3.9,41.8c.4,5.3,3.7,10.4,9,11.2a8.08,8.08,0,0,0,3.1,0c4.9-.8,9.4-4.9,9-10l-2.2-49.4a8.68,8.68,0,0,0-1-3.9s-13.5-25.7-14.3-27.1c-.6-1.2-.4-2.9-.4-3.9,0-1.2,1.4-18.6,1.4-18.6L52.9,92A8.63,8.63,0,0,0,59,95.7L82.5,99a4.88,4.88,0,0,0,2.4,0,9.06,9.06,0,0,0,7.6-8.4A9.75,9.75,0,0,0,84.1,80.9Z" transform="translate(-5.41 -5.9)"></path><circle class="cls-1" cx="30.89" cy="18.6" r="18.6"></circle><path class="cls-1" d="M189,185l-14.9-39a4.92,4.92,0,0,1-.2-2.4l1.8-13.5L163,147.4a.2.2,0,0,1-.2.2l-2.2,24.5,9,21.2a10.77,10.77,0,0,0,12,6.3,11,11,0,0,0,3.1-1.2C189.2,196,191.1,189.9,189,185Z" transform="translate(-5.41 -5.9)"></path><path class="cls-1" d="M180.2,104.3l-4.9-43.5a15.61,15.61,0,0,0-11.6-13.1h0a17.58,17.58,0,0,0-13.1,2.9c-2.9,2-5.5,6.1-6.7,8-1.6,2.2-13.7,19.8-13.7,19.8L111,81.1c-4.5.6-8.4,4.5-8.2,9.2a8.63,8.63,0,0,0,7.6,8.4,4.87,4.87,0,0,0,2.4,0l23.5-3.3a9,9,0,0,0,6.1-3.7l3.5-5.1s1.2,17.3,1.4,18.6c0,1.2.2,2.9-.4,3.9-.8,1.6-14.3,27.1-14.3,27.1a9.4,9.4,0,0,0-1,3.9l-2.2,49.4c-.4,5.1,4.1,9.4,9,10a8.08,8.08,0,0,0,3.1,0c5.3-.8,8.6-5.7,9-11.2l3.9-41.6a10.47,10.47,0,0,1,1.8-4.7l22.2-30.4A9.74,9.74,0,0,0,180.2,104.3Z" transform="translate(-5.41 -5.9)"></path><circle class="cls-1" cx="153.39" cy="18.8" r="18.6"></circle><path class="cls-1" d="M125.1,19.4a2.91,2.91,0,0,0-2.4-2.9c-14.9-1.4-23.1-8.2-23.3-8.2a3.15,3.15,0,0,0-3.7,0S87.3,15,72.4,16.5A2.83,2.83,0,0,0,70,19.4c0,37.8,25.5,49.2,26.5,49.8a2.17,2.17,0,0,0,1,.2,2.54,2.54,0,0,0,1.2-.2C99.8,68.6,125.1,57.2,125.1,19.4ZM97.6,51.9a14.1,14.1,0,1,1,14.1-14.1A14.08,14.08,0,0,1,97.6,51.9Z" transform="translate(-5.41 -5.9)"></path><path class="cls-2" d="M101.3,32.9,96,38.2l-2-2a2.62,2.62,0,0,0-3.7,3.7l3.9,3.9a3,3,0,0,0,1.8.8,2.44,2.44,0,0,0,1.8-.8l7.1-7.1a2.66,2.66,0,0,0,0-3.7A2.45,2.45,0,0,0,101.3,32.9Z" transform="translate(-5.41 -5.9)"></path></svg> 