<svg width="1540" height="25" viewBox="0 0 1540 25" fill="none" xmlns="http://www.w3.org/2000/svg">
<path fill-rule="evenodd" clip-rule="evenodd" d="M1.19324 15.5651C2.06104 15.6184 13.2882 15.6184 13.2882 15.6184C13.2339 15.0321 16.5424 15.5651 16.8135 15.8317C17.3558 16.3647 17.6813 16.3114 18.8202 16.3114C20.3389 16.3114 21.8575 16.2581 23.3761 16.2048C24.4608 16.2048 24.1354 16.6845 24.8948 16.6845C26.2506 16.6312 27.6067 16.6312 28.9083 16.6312C29.6677 16.6312 36.0133 16.3114 35.9591 16.7911C35.9049 17.3775 39.0505 16.5246 39.4845 16.4713C41.5997 16.2048 43.1183 16.7378 44.5284 16.8978C44.4742 16.8978 44.3657 16.3647 44.7455 16.3647C45.3962 16.3647 44.7454 16.7911 45.0166 16.8445C46.1555 17.1643 47.9454 16.7911 49.0302 16.7911C50.3861 16.7378 51.7421 16.7378 53.0979 16.7378C53.8573 16.7378 53.4775 16.2048 54.6166 16.2048C54.7793 16.2048 54.3455 16.7378 54.8336 16.7378C55.2675 16.6845 55.7013 16.6845 56.1353 16.6845C57.22 16.6845 56.7318 17.0044 57.1656 17.1643C58.7928 17.8039 61.9385 17.0577 63.7283 17.0577C64.4877 17.0577 64.1079 17.5374 65.2469 17.5374C65.952 17.5374 65.5182 16.9511 65.952 17.0044C68.0673 17.1643 70.1826 16.8445 72.2979 16.8978C73.2198 18.1771 74.3588 17.4841 76.3656 17.8039C77.1249 17.9105 77.179 18.2837 78.4264 18.2837C79.674 18.2837 80.9756 18.1771 82.2231 18.2304C82.3315 18.2304 83.1993 17.6973 83.9587 17.6973C85.3146 17.644 85.9113 17.5374 86.5078 18.1238C86.9418 18.4969 90.0874 18.0705 90.5214 18.0705C90.9552 18.0705 91.389 18.0705 91.823 18.0705C92.4196 18.0705 91.7688 17.644 92.0399 17.5907C92.5281 17.4308 93.2874 17.5374 93.8297 17.5374C94.4263 17.4841 93.7755 17.9639 94.0466 18.0705C94.8602 18.337 96.2162 18.0172 97.0839 18.0172C98.3314 17.9639 97.8975 18.3903 99.0907 18.4969C100.772 18.6035 102.453 18.4436 104.135 18.3903C105.165 18.3903 106.142 18.337 107.172 18.337C108.365 18.2837 107.226 18.3903 107.714 18.8167C108.311 19.4031 108.691 18.337 108.691 18.2837C108.908 18.1771 109.613 18.7634 110.209 18.7634C111.023 18.7634 110.589 18.2304 111.728 18.2304C111.891 18.2304 111.457 18.8167 111.999 18.7101C112.433 18.6568 112.813 18.6568 113.247 18.6568C114.277 18.6568 115.253 18.6035 116.284 18.6035C117.423 18.6035 118.616 18.5502 119.809 18.5502C120.243 18.5502 121.057 19.03 120.84 19.03C122.033 18.9766 121.653 18.6568 122.846 18.4969C123.931 18.337 125.07 18.4969 126.155 18.4436C126.426 18.4436 127.402 19.3498 128.433 18.9233C128.704 18.8167 128.27 18.5502 128.921 18.3903C129.409 18.2837 129.951 18.3903 130.44 18.3903C131.036 18.337 131.904 18.2304 132.446 18.337C132.663 18.3903 132.121 18.87 132.663 18.87C133.151 18.8167 133.694 18.8167 134.182 18.87C134.778 18.87 134.182 18.4436 134.399 18.337C134.941 18.1771 135.646 18.337 136.189 18.2837C136.84 18.2304 136.135 18.6568 136.46 18.8167C137.273 19.1366 139.063 18.7634 139.985 18.7634C140.419 18.0705 141.07 18.4436 141.504 17.7506C142.48 17.7506 145.083 18.4969 145.572 19.1899C147.578 19.1366 149.585 19.1366 151.646 19.0833C153.273 19.03 154.033 18.4969 155.172 18.4969C154.846 18.4969 155.497 18.9766 155.714 18.9766C156.148 19.0833 156.799 18.9766 157.233 18.9766C157.883 18.9766 158.589 18.9766 159.239 18.9233C160.432 18.87 159.294 18.9766 159.727 19.4031C160.432 20.0427 161.138 18.9233 161.246 18.87C161.734 18.5502 163.633 18.8167 164.283 18.8167C165.097 18.8167 168.405 20.2027 169.327 19.2432C169.87 18.7101 170.412 18.7634 171.605 18.7101C172.256 18.6568 171.388 19.2432 172.365 19.1899C172.853 19.1899 173.395 19.1899 173.883 19.1366C176.432 19.0833 177.626 19.563 180.446 19.5097C183.537 19.4564 186.683 19.2965 189.775 19.3498C189.829 19.3498 190.914 18.1771 191.51 18.8167C192.107 19.4031 192.27 19.0833 193.517 19.2965C194.493 19.4564 194.927 19.7229 195.524 19.7762C196.771 19.8295 196.283 19.1899 197.531 19.2432C197.368 19.2432 198.019 19.7229 198.561 19.7229C199.754 19.7229 200.893 19.6696 202.086 19.6696C203.225 19.6696 204.473 19.5097 205.612 19.6163C206.317 19.6696 205.829 19.9894 206.154 20.0961C207.727 20.7357 211.036 19.9894 212.717 19.9894C213.964 19.9361 214.181 20.4692 215.754 20.4159C216.242 20.4159 220.852 20.0961 220.798 20.5758C220.744 21.0022 222.425 20.789 222.805 20.789C223.564 20.789 223.022 20.3626 223.293 20.3093C224.595 19.8295 224.703 20.789 225.842 20.7357C226.601 20.7357 227.361 20.6824 228.12 20.6824C228.717 20.7357 227.957 20.1494 228.608 20.1494C229.151 20.1494 228.608 20.6291 229.368 20.6291C229.693 20.6291 231.157 20.3626 231.374 20.5758C231.862 21.0555 231.808 21.0555 232.893 21.0555C233.761 21.0555 234.574 21.0022 235.388 21.0022C237.395 20.9489 238.588 21.3221 239.944 21.4287C242.276 21.6419 244.662 21.2688 246.995 21.3221C247.862 21.3221 247.103 21.8018 248.025 21.8018C249.218 21.8018 250.357 21.7485 251.55 21.7485C252.31 21.7485 253.069 21.6419 253.828 21.6952C254.425 21.7485 253.666 21.1088 254.316 21.1621C255.347 21.2155 255.618 21.6419 257.083 21.6419C258.655 21.5886 258.872 21.1088 260.12 21.0555C259.794 21.0555 261.259 21.5353 261.638 21.5353C262.398 21.5886 263.211 21.5353 263.916 21.482C264.025 21.482 264.893 21.9617 265.652 21.9617C267.171 21.9084 268.689 21.9084 270.208 21.8551C272.486 21.8018 272.92 21.4287 274.764 21.2688C276.445 21.1621 277.204 21.8018 278.289 21.6952C278.452 21.6952 277.964 21.1621 278.506 21.1621C278.886 21.2155 279.428 21.2155 279.754 21.1621C280.621 20.9489 280.676 21.0022 281.272 20.6291C281.489 20.8956 282.248 21.6419 282.52 21.6419C284.147 21.5353 285.72 21.5886 287.347 21.5353C289.842 21.482 291.143 22.3349 293.909 21.9084C294.289 21.8551 295.645 21.6952 295.916 21.3754C296.296 21.0022 295.808 21.1621 296.404 20.8956C296.458 20.9489 297.055 21.4287 296.892 21.3754C297.814 21.7485 298.194 21.8551 299.442 21.8018C300.689 21.8018 300.201 21.2688 301.448 21.2688C301.177 21.2688 302.533 21.7485 302.967 21.7485C303.292 21.7485 305.299 21.9617 305.462 21.6952C305.57 21.5353 306.384 20.5758 306.98 21.1621C307.794 21.9084 306.926 21.2155 307.469 21.1621C307.848 21.1088 309.747 20.8423 309.964 21.1088C310.723 21.8551 309.909 21.1621 310.452 21.1088C312.404 20.9489 312.784 21.0555 313.489 22.0683C314.519 22.0683 315.55 22.1216 316.526 22.015C316.201 22.0683 317.068 20.8423 317.014 21.7485C316.96 22.2282 317.665 22.015 318.045 22.015C318.804 22.015 319.835 21.8018 320.54 21.9617C320.757 22.015 321.299 22.4415 321.082 22.4415C321.787 22.4415 322.98 21.3221 323.577 21.9084C324.173 22.4948 324.77 22.3882 326.126 22.3349C329.76 22.2816 333.339 22.2816 336.214 21.6419C336.377 21.9084 336.648 22.015 336.756 22.1216C337.299 22.8679 338.329 22.8146 338.763 22.0683C339.468 22.0683 340.553 22.2282 341.258 22.015C341.963 21.8551 341.367 21.7485 341.746 21.482C342.289 21.1088 342.343 21.0022 343.265 20.9489C343.59 21.4287 344.295 21.9617 345.055 21.9084C345.434 21.8551 345.272 22.1216 345.326 22.4415C345.326 23.401 346.573 22.9212 347.333 22.9212C348.526 22.9212 349.719 22.8679 350.858 22.8679C351.617 22.8679 354.058 22.015 354.383 22.3349C354.871 22.7613 354.817 22.8146 355.902 22.8146C356.499 22.8146 356.987 23.2943 356.932 23.2943C357.963 23.3477 358.885 22.7613 360.458 22.708C360.729 22.708 362.41 23.8807 363.007 23.1877C364.092 21.8018 367.075 23.6142 368.539 23.5609C369.244 22.4948 371.359 23.5609 372.065 22.4948C372.715 22.708 373.854 23.401 374.614 23.4543C375.482 23.5076 377.488 22.2816 378.139 22.9212C378.682 23.4543 378.41 23.2943 379.658 23.401C380.797 23.4543 382.044 23.3477 383.183 23.3477C384.702 23.3477 386.22 23.2943 387.739 23.2943C388.824 23.2943 388.336 22.9745 388.715 22.7613C390.776 21.8551 395.061 22.6547 397.285 22.6014C398.369 22.6014 398.044 23.0811 398.803 23.0811C399.834 23.0811 400.81 23.0278 401.841 23.0278C405.691 22.9745 409.596 22.8679 413.447 22.8146C414.64 22.8146 415.779 22.7613 416.973 22.7613C417.84 22.7613 417.027 22.2816 417.949 22.2816C419.196 22.2282 419.793 22.7613 421.474 22.708C422.613 22.708 422.179 22.2282 422.993 22.1749C424.078 22.1216 423.59 22.4948 424.023 22.6547C425.108 23.0811 425.217 22.3349 425.542 22.1216C425.922 21.8551 427.115 22.0683 427.549 22.0683C428.471 22.0683 427.657 22.6014 428.579 22.5481C428.362 22.5481 429.067 22.015 429.556 22.015C434.166 21.9084 437.311 22.3882 442.193 22.2816C445.284 22.2282 452.064 21.1621 454.342 22.5481C454.776 21.8551 455.427 21.3221 455.86 22.015C457.325 21.9617 456.999 21.482 457.867 21.482C457.704 21.482 458.03 21.9617 458.355 21.9617C458.844 21.9617 459.386 21.9617 459.874 21.9084C460.579 22.9745 466.437 22.015 466.437 22.0683C466.382 22.4415 469.528 22.4948 469.474 22.015C469.365 21.1621 472.348 22.2282 472.511 22.2282C472.294 22.2282 472.782 21.8018 472.999 21.7485C473.379 21.6419 473.867 21.7485 474.247 21.6952C474.518 21.6952 474.681 22.1749 475.494 22.1749C477.176 22.1216 479.02 21.9617 480.05 22.6014C480.43 22.0683 482.762 21.5353 483.575 21.5353C484.769 21.5353 484.931 22.015 485.636 22.015C486.07 22.015 486.504 22.015 486.884 21.9617C487.48 21.9084 486.884 22.3882 487.155 22.4415C488.24 22.7613 489.27 22.2816 489.65 21.9084C490.301 21.2155 491.169 22.3882 491.169 22.3882C492.362 22.8679 492.525 21.8551 493.175 21.8551C493.88 21.8551 493.664 22.2816 494.694 22.3349C494.26 22.3349 495.779 21.0022 495.67 22.0683C495.67 22.6014 496.809 22.2816 497.189 22.2816C497.894 21.2155 498.816 21.2688 500.714 21.2155C501.148 21.8551 501.799 21.5353 502.233 22.1749C503.48 22.1216 502.992 21.6419 504.24 21.6419C504.728 21.6419 505.812 21.4287 506.246 21.5886C506.518 21.6952 505.867 22.1749 506.518 22.0683C507.602 21.9617 508.741 22.015 509.826 22.015C510.477 22.015 510.64 21.482 511.833 21.482C512.592 21.482 512.267 21.9617 513.351 21.9617C515.033 21.9617 516.714 21.9084 518.396 21.8551C520.89 21.8018 523.223 22.0683 524.958 22.2282C524.741 22.2282 525.067 21.2688 525.446 21.7485C525.826 22.1749 525.446 22.3349 526.477 22.2282C527.616 22.0683 527.29 21.6952 528.484 21.6952C528.212 21.6952 528.809 22.1216 528.972 22.1749C529.406 22.2816 530.056 22.1749 530.49 22.1749C531.846 22.1216 533.202 22.0683 534.504 22.1216C534.612 22.1216 534.287 22.6547 534.775 22.6014C535.317 22.6014 534.829 22.1216 534.992 22.0683C535.805 21.9084 537.216 21.8551 538.029 22.015C539.277 22.2816 538.68 22.015 540.524 21.9617C543.778 21.9084 545.948 22.8146 548.063 21.3221C548.985 22.6547 553.27 22.708 554.138 21.2155C554.897 21.2688 556.199 21.6952 557.663 21.6419C558.748 21.5886 558.26 21.9084 558.693 22.1216C558.531 22.0683 560.429 22.4948 559.724 22.6014C561.08 22.3882 562.327 22.0683 564.28 22.015C566.775 21.9617 567.209 22.4415 569.324 22.4415C569.866 23.241 569.487 22.6547 570.354 22.4415C571.602 22.1216 572.307 22.7613 572.849 21.9084C573.175 22.015 575.181 23.5609 575.887 22.8679C576.049 22.708 576.103 22.6014 576.103 22.4948C576.103 22.5481 576.212 22.708 576.375 22.8146C576.646 23.0811 578.49 22.7613 578.924 22.7613C581.636 22.7613 584.293 22.6547 587.005 22.6014C589.229 22.5481 592.103 22.8146 593.568 21.9617C594.056 21.6952 593.459 21.5353 594.544 21.4287C594.707 21.6952 594.978 21.8018 595.086 21.9084C595.791 22.9212 597.907 21.8018 598.612 22.8146C599.805 22.8146 599.642 22.2816 601.107 22.2816C602.191 22.2816 602.517 22.1749 603.113 21.7485C603.71 22.6014 605.066 22.3349 605.662 23.1877C606.91 23.1877 606.422 22.6547 607.669 22.6547C608.862 22.6547 610.001 22.6014 611.195 22.6014C614.232 22.5481 617.269 22.4948 620.252 22.4415C620.957 22.4415 621.12 22.9212 622.313 22.9212C623.073 22.9212 622.693 22.4415 623.832 22.3882C624.808 22.3882 625.893 22.1749 626.869 22.3349C627.628 22.4415 627.249 22.8146 628.388 22.8146C628.225 22.8146 628.496 22.3349 628.876 22.2816C629.364 22.2282 629.906 22.2816 630.394 22.2816C632.076 22.1749 633.757 22.2282 635.439 22.1749C637.608 22.1216 639.832 22.0683 642.001 22.0683C642.652 22.0683 645.581 22.4415 646.069 22.015C646.611 21.482 646.828 21.5353 648.076 21.482C648.401 21.482 650.354 21.2155 650.571 21.4287C651.438 22.4415 654.964 21.8551 656.645 21.8018C657.947 21.8018 659.954 22.9745 661.689 22.2282C661.96 22.1216 661.31 21.6419 661.906 21.6952C662.232 21.7485 662.937 21.8018 663.208 21.6952C663.208 21.6952 663.587 20.6291 664.184 21.1621C664.726 21.6419 664.455 21.6419 665.703 21.6419C667.221 21.5886 668.74 21.5886 670.259 21.5886C671.777 21.5353 673.296 21.5353 674.814 21.482C675.574 21.482 675.194 21.0022 676.333 20.9489C676.008 20.9489 677.418 21.4287 677.852 21.4287C678.665 21.4287 679.533 21.3754 680.347 21.3754C682.625 21.3221 683.058 21.5353 683.872 20.3093C685.391 20.256 685.879 20.3093 686.909 20.7357C687.235 20.8956 686.692 21.2155 687.397 21.2155C687.886 21.2155 688.97 21.3754 689.404 21.1621C689.73 21.0022 689.133 20.6291 689.892 20.6291C690.652 20.6291 690.109 21.0022 690.38 21.1088C691.519 21.5886 691.791 20.6824 692.387 20.5758C694.123 20.256 696.184 20.5225 697.919 20.4692C698.95 20.4692 699.926 20.4159 700.957 20.4159C701.662 20.4159 701.228 19.9894 701.445 19.9361C702.529 19.6163 703.506 20.4159 703.723 20.4159C705.296 20.2027 706.923 20.3626 708.495 20.3093C708.17 20.3093 709.038 19.1366 708.984 20.0427C708.984 20.5225 709.634 20.3093 710.014 20.3093C711.75 20.256 711.641 19.7762 713.539 19.7229C714.245 19.7229 714.516 19.9361 714.516 19.1899C714.516 18.4969 715.655 18.2837 716.034 18.6568C717.119 19.6163 716.523 19.6696 717.662 19.6696C718.529 19.6696 719.343 19.6163 720.156 19.6163C720.916 20.7357 723.356 19.9894 724.224 19.563C724.767 20.3626 725.417 20.5225 726.773 20.5225C727.641 20.5225 728.455 20.5225 729.322 20.4692C729.919 20.4692 730.407 19.9361 730.299 19.9361C731.546 19.8295 731.058 20.5225 732.305 20.4159C732.197 20.4159 732.685 19.9361 733.282 19.8828C733.661 19.8828 734.855 19.6163 734.8 20.0961C734.746 20.5225 738.488 20.256 739.085 20.256C739.302 20.256 739.627 19.7762 740.333 19.7229C741.471 19.6163 742.719 19.8295 743.858 19.6696C744.4 19.563 745.865 18.6568 746.353 19.1366C746.841 19.6163 746.244 19.6163 747.383 19.6163C747.709 19.6163 749.173 19.8295 749.39 19.563C749.932 19.03 750.258 19.563 751.939 19.5097C755.302 19.4564 756.658 18.9766 759.532 19.3498C760.129 18.3903 760.888 18.337 762.515 18.2837C763.003 19.03 762.841 18.5502 764.034 18.7634C764.142 18.7634 765.498 19.2432 765.064 19.2432C766.203 19.2965 765.77 18.87 766.583 18.7101C767.397 18.5502 768.319 18.6568 769.132 18.6568C770.814 18.6568 771.085 19.1899 771.627 18.6035C772.224 18.0172 776.346 18.5502 777.159 18.4969C777.919 18.4969 777.376 18.9766 777.919 18.9766C778.19 18.9766 778.353 18.4969 779.166 18.4436C779.22 18.4436 778.949 18.9766 779.437 18.9766C779.871 18.9766 779.654 18.4436 779.654 18.4436C781.444 18.4969 781.715 18.7101 783.18 18.3903C783.668 18.2837 786.271 18.6035 786.217 18.1238C786.054 17.0577 787.41 18.4436 787.247 18.337C787.573 18.5502 789.363 18.4436 789.254 18.0705C789.2 17.5907 791.152 17.8039 791.532 17.8039C792.183 17.7506 791.315 18.337 792.291 18.2837C792.725 18.2837 793.159 18.2304 793.539 18.2837C793.81 18.2837 793.973 17.7506 794.786 17.7506C795.979 17.7506 796.142 17.2176 796.793 17.2176C797.986 17.1643 799.125 17.1643 800.318 17.1643C801.023 17.1643 801.186 17.644 802.325 17.644C802.759 17.644 803.193 17.5907 803.627 17.644C804.223 17.6973 803.627 17.1643 803.844 17.111C805.091 16.7911 808.888 17.2709 808.888 17.2709C808.725 16.6312 810.623 17.2709 810.895 17.0044C811.166 16.7378 811.166 16.3647 811.383 15.9916C811.708 15.9916 813.444 16.4713 813.444 16.6845C813.389 17.0044 816.481 17.0044 816.969 16.8445C817.24 16.7911 817.078 16.3647 818 16.3114C818.813 16.2581 818.162 16.5779 818.488 16.7911C819.03 17.1643 821.362 16.7911 822.013 16.7378C822.067 16.7378 821.85 16.0982 822.501 16.2581C822.718 16.3114 822.176 16.7911 822.772 16.7378C824.02 16.6845 825.322 16.6845 826.569 16.6845C828.088 16.6312 827.762 16.0449 829.064 16.6312C829.444 16.0449 829.715 15.9916 830.854 16.0982C831.179 16.1515 831.45 15.2986 831.559 15.0854C832.589 15.0854 833.077 15.5651 833.62 16.0449C833.999 16.418 833.837 15.9383 834.108 16.5246C834.976 16.5246 835.789 16.5246 836.657 16.4713C836.983 15.9916 836.549 15.9383 837.416 15.9916C838.176 15.9916 837.362 15.0854 837.145 15.4585C837.525 14.8189 837.525 14.8722 838.121 14.4457C838.176 16.2581 838.61 15.4585 839.152 16.418C840.996 16.3647 842.84 16.3647 844.684 16.3114C845.389 16.3114 845.172 15.885 846.203 15.7784C847.071 15.6717 847.776 16.2581 847.993 16.2581C849.132 16.1515 848.752 16.0449 849.24 15.725C850.487 14.8722 849.511 15.6184 850.271 16.2048C851.03 16.7911 851.247 15.8317 851.789 16.6845C852.603 16.418 854.609 15.4052 854.826 16.1515C855.206 16.1515 857.918 16.3647 857.864 15.8317C857.701 14.9788 858.84 15.9916 858.894 16.0449C860.792 16.0449 859.437 14.6056 860.413 15.5118C860.684 15.7784 861.498 15.0321 861.443 15.725C861.389 16.2048 865.023 15.9383 865.511 15.9383C867.843 15.885 870.23 15.8317 872.562 15.8317C874.026 15.8317 873.864 15.2986 875.057 15.2986C874.731 15.2986 875.436 15.7784 875.599 15.7784C876.196 15.9383 877.009 15.7784 877.606 15.725C879.287 15.6717 880.969 15.6717 882.65 15.6184C884.114 15.6184 883.409 14.8722 884.169 15.6184C884.385 15.8317 886.935 15.6717 887.206 15.5651C887.477 15.4585 887.043 15.192 887.694 15.0321C888.345 14.9255 889.05 15.0321 889.701 15.0321C890.406 15.0321 889.972 15.4585 890.189 15.5118C890.785 15.6717 891.599 15.4585 892.196 15.4585C893.877 15.4052 895.558 15.4052 897.24 15.3519C898.487 15.2986 897.999 14.8189 899.246 14.8189C898.921 14.8189 899.626 15.2986 899.734 15.2986C900.168 15.4052 900.819 15.2986 901.253 15.2986C902.772 15.2986 904.29 15.2453 905.809 15.2453C907.49 15.192 909.172 15.192 910.853 15.1387C911.612 15.1387 911.233 14.6056 912.372 14.6056C913.077 14.6056 913.239 15.0854 914.378 15.0854C915.517 15.0854 915.843 15.0854 916.385 14.5523C917.307 13.5929 920.29 14.9788 920.941 14.9788C922.134 14.9255 922.297 14.4457 922.948 14.4457C923.707 14.4457 923.978 14.9788 924.195 14.9255C925.388 14.7656 929.782 15.5651 930.487 14.8189C931.355 13.966 930.433 14.9255 931.246 14.8189C932.168 14.7123 933.144 14.7656 934.012 14.7656C934.934 14.1259 933.958 14.6056 934.012 14.2858C934.066 13.2197 934.5 14.2325 934.988 13.7528C934.988 13.5929 934.988 13.4329 934.988 13.2197C935.422 12.8999 936.887 12.9532 936.019 13.6995C935.477 14.1259 934.88 14.7123 936.561 14.6589C937.375 14.6589 938.297 14.7123 939.11 14.6056C940.358 14.4457 940.412 14.1259 941.876 14.0193C942.527 13.966 941.66 14.5523 942.636 14.499C943.287 14.499 943.992 14.499 944.643 14.499C945.402 13.3263 946.215 14.2858 946.649 14.9788C947.463 14.9788 948.168 15.2986 948.168 14.4457C948.168 13.1664 948.168 13.6995 949.415 13.4329C949.632 13.3796 950.066 14.7123 950.229 14.9255C951.476 14.9255 951.205 14.7656 951.748 14.3924C952.398 13.966 952.832 14.8722 952.778 14.8722C953.754 14.9255 954.785 14.8189 955.815 14.8189C956.683 14.8189 955.87 14.3391 956.846 14.2858C958.636 14.2325 958.798 14.7656 960.371 14.7123C961.293 14.7123 962.215 14.7123 963.137 14.6589C963.409 14.6589 963.571 15.192 964.385 15.1387C965.09 15.1387 964.656 14.6056 965.144 14.6056C965.903 14.6589 966.663 14.6056 967.422 14.6056C969.375 14.5523 969.591 15.0854 971.49 15.0321C974.364 14.9788 977.185 14.9255 980.059 14.8722C981.524 14.8189 981.524 15.0854 981.578 13.8594C983.422 13.8061 982.337 13.8594 983.096 14.3391C983.313 14.499 985.7 14.7123 985.646 14.8189C986.296 13.966 985.863 14.8722 986.134 14.8189C986.893 14.659 986.296 14.3391 987.11 14.2858C988.357 14.2325 988.52 14.7656 990.147 14.7123C991.286 14.7123 990.852 14.2325 991.666 14.1792C992.751 14.1259 992.262 14.499 992.696 14.6589C993.835 15.1387 994.486 14.1259 995.734 14.1259C996.493 14.1259 996.005 14.499 996.764 14.6056C997.686 14.7656 998.879 14.5523 999.801 14.5523C1001.81 14.499 1001.92 14.0193 1003.81 13.966C1004.3 13.966 1007.45 14.1792 1007.34 13.6462C1007.23 13.2197 1007.83 13.3263 1007.83 13.9127C1007.88 15.885 1009.78 13.4862 1009.84 13.3796C1010.49 13.3796 1011.19 13.3263 1011.84 13.3263C1012 13.5929 1012.28 13.6995 1012.33 13.8061C1012.98 14.9255 1014.45 14.1792 1014.45 14.3391C1014.39 15.2453 1017.27 14.0726 1017.48 14.0726C1018.19 14.0726 1017.81 14.3924 1018.51 14.5523C1019.22 14.7123 1020.09 14.499 1020.79 14.499C1020.85 14.499 1021.55 13.3796 1021.55 14.2325C1021.55 15.192 1022.2 13.9127 1022.04 13.966C1023.12 13.4862 1023.23 14.2325 1023.56 14.4457C1023.88 14.6589 1024.91 14.3924 1025.35 14.4457C1025.62 14.4457 1025.94 13.8061 1026.87 13.9127C1026.92 13.9127 1027.41 13.4862 1027.62 13.3796C1029.79 13.3263 1026.65 14.3391 1029.58 14.3391C1030.23 14.3391 1034.68 13.6995 1035.11 14.2325C1035.98 15.2453 1036.74 14.1792 1038.15 14.1792C1040.1 14.1259 1040.59 14.6589 1042.21 14.6056C1043.35 14.6056 1049.65 15.2453 1050.3 14.4457C1051.27 13.2197 1051.54 14.6589 1052.3 14.3924C1052.57 14.3391 1051.92 13.8594 1052.52 13.8594C1052.95 13.8594 1053.39 13.8594 1053.77 13.8594C1054.04 13.8594 1055.61 13.6462 1055.77 13.8594C1056.37 14.5523 1058.32 14.0193 1058.32 14.0726C1058.27 15.0321 1065.48 13.8061 1065.86 13.2197C1066.78 13.6995 1067.33 14.3391 1067.87 13.6995C1069.01 13.6995 1070.26 13.8061 1071.39 13.6462C1072.15 13.5395 1071.5 13.3796 1071.88 13.1131C1072.1 12.9532 1074.7 12.8999 1074.92 13.0598C1075.35 13.4329 1074.87 13.5395 1075.95 13.5395C1076.82 13.5395 1077.63 13.4862 1078.5 13.4862C1080.51 13.4329 1082.57 13.2197 1084.57 13.3796C1085.77 13.4862 1085.55 13.8061 1086.85 13.8594C1086.91 13.8594 1087.99 12.74 1088.59 13.3263C1089.02 13.6995 1089.45 14.1259 1090.11 14.2858C1090.54 14.3924 1092.65 14.4457 1092.6 13.966C1092.6 13.9127 1104.59 14.499 1106.21 14.499C1107.46 14.4457 1106.97 14.9788 1108.28 14.9788C1108.98 14.9788 1109.96 15.4585 1110.01 15.4585C1112.23 15.192 1112.99 15.2453 1114.3 14.3924C1114.67 14.9788 1115.38 15.3519 1116.36 15.3519C1117.33 15.3519 1120.8 14.7123 1121.4 15.2453C1121.89 15.6717 1121.83 15.725 1122.92 15.725C1124.11 15.725 1125.25 15.6717 1126.44 15.6717C1127.26 15.6717 1127.31 15.192 1127.42 15.1387C1127.96 15.0321 1128.02 15.6184 1127.91 15.6184C1128.88 15.5118 1128.78 15.0854 1129.43 15.0854C1129.21 15.0854 1130.02 15.5651 1130.46 15.5651C1130.84 16.1515 1130.46 16.0449 1131.49 16.0449C1131.87 15.5118 1132.14 15.6184 1132.46 15.0321C1134.69 14.9788 1132.95 15.2986 1132.95 15.7784C1132.95 16.2581 1134.58 15.9916 1135.01 15.9916C1136.15 15.9916 1137.4 15.8317 1138.54 15.9383C1138.76 15.9383 1139.73 16.3647 1139.62 16.418C1140.17 16.3647 1143.15 15.2986 1143.1 16.1515C1143.04 16.8978 1144.99 15.5651 1145.1 15.3519C1146.62 15.3519 1146.35 15.8317 1147.65 15.8317C1148.57 15.8317 1151.66 15.2453 1152.21 15.725C1152.64 16.1515 1152.15 16.1515 1153.24 16.2048C1154.11 16.2048 1154.92 16.1515 1155.79 16.1515C1157.96 16.0982 1160.18 16.0449 1162.35 16.0449C1163.92 16.0449 1163.81 16.5246 1165.39 16.4713C1167.34 16.418 1169.51 16.6312 1171.46 16.3647C1172.49 16.2581 1174.61 15.3519 1175.75 15.2986C1176.07 15.2986 1175.96 15.725 1176.5 15.7784C1177.16 15.885 1177.86 15.6184 1178.51 15.725C1179.33 15.885 1179.7 16.2048 1181.06 16.1515C1182.31 16.1515 1182.15 16.6312 1183.61 16.6312C1186 16.5779 1188.33 16.5246 1190.66 16.5246C1193.21 16.4713 1199.39 18.7634 1200.75 16.3647C1201.35 16.3647 1203.84 16.7378 1203.79 17.0577C1203.68 17.9639 1205.85 16.7911 1205.79 16.7911C1205.74 16.7911 1206.12 17.3242 1206.82 17.2709C1207.64 17.1643 1207.58 16.7911 1207.8 16.7378C1208.34 16.5779 1209.75 16.5779 1210.29 16.6845C1210.51 16.7378 1211.05 17.2176 1210.84 17.1643C1211.98 17.2176 1212.63 16.418 1214.36 16.5779C1214.9 16.6312 1215.61 17.111 1215.88 17.5374C1218 17.4841 1218.48 17.1643 1220.44 16.9511C1220.98 17.7506 1222.66 17.3775 1223.96 17.3775C1224.45 18.0705 1223.96 17.8572 1224.45 17.3775C1224.61 17.3775 1224.78 17.3775 1224.94 17.3775C1225.32 16.7911 1225.59 17.0044 1225.91 16.3647C1226.08 16.3647 1226.24 16.3647 1226.4 16.3647C1226.84 16.9511 1226.78 16.9511 1227.43 17.3242C1227.98 17.644 1227.7 17.8039 1228.95 17.8039C1229.49 18.4969 1229.82 18.1238 1230.96 18.2837C1231.12 18.2837 1232.42 18.7634 1231.99 18.7634C1233.18 18.7634 1233.4 18.1238 1235.03 18.2304C1236.33 18.2837 1236.27 18.6035 1237.68 18.7101C1238.23 17.8572 1239.8 17.6973 1241.21 17.644C1241.43 17.9639 1241.43 18.337 1241.7 18.6035C1241.86 18.6035 1242.02 18.6035 1242.19 18.6035C1242.19 18.7634 1242.19 18.9233 1242.19 19.0833C1242.57 19.4564 1242.4 18.9766 1242.67 19.563C1243.32 19.563 1244.03 19.563 1244.68 19.5097C1245.66 19.5097 1244.79 18.9766 1245.44 18.9766C1246.09 19.03 1246.9 19.5097 1246.96 19.4564C1248.31 19.2965 1249.89 19.2965 1251.24 19.3498C1251.79 19.4031 1252.44 19.4031 1253.03 19.2965C1253.58 19.2432 1253.14 19.8295 1253.25 19.8295C1253.63 19.8295 1255.85 18.87 1255.74 19.563C1255.69 20.0427 1256.94 19.7762 1257.26 19.7762C1258.35 19.7229 1258.29 19.7229 1258.78 19.2432C1259.38 18.6035 1260.9 19.7762 1261.55 19.6696C1261.66 19.6696 1262.25 20.0961 1262.8 20.1494C1263.66 20.256 1262.85 19.6696 1263.77 19.6163C1264.8 19.6163 1265.45 19.8295 1266.81 20.0427C1268.38 20.256 1268.6 20.5225 1270.33 20.4692C1270.77 20.4692 1275.43 20.1494 1275.38 20.6291C1275.32 21.4287 1278.25 20.3093 1278.42 20.3093C1278.14 20.3093 1279.07 20.789 1279.45 20.789C1280.04 20.789 1280.64 20.7357 1281.24 20.789C1281.51 20.789 1281.62 20.256 1282.48 20.256C1283.3 20.256 1282.65 20.4692 1282.97 20.7357C1283.73 21.2155 1287.2 20.7357 1288.02 20.6291C1289.43 20.5225 1289.7 20.5225 1290.51 20.0961C1291.16 21.0022 1292.9 20.5225 1293.55 21.5353C1294.25 21.482 1294.36 21.0022 1295.55 21.0022C1296.59 21.0022 1297.56 20.9489 1298.59 20.9489C1299.03 20.9489 1299.46 20.8956 1299.89 20.9489C1300.49 20.9489 1299.84 20.5225 1300.11 20.4159C1301.2 19.9894 1301.25 20.6291 1301.63 20.8956C1302.17 21.2155 1304.02 20.8423 1304.67 20.8423C1305.37 20.8423 1305.21 21.2688 1306.19 21.3221C1307.38 21.3754 1306.89 20.789 1307.7 20.789C1308.46 20.789 1308.79 21.3221 1308.95 21.2688C1309.93 21.1621 1315.3 21.0022 1315.24 21.4287C1315.19 21.8551 1317.9 21.6419 1318.28 21.6419C1319.64 21.5886 1320.18 21.482 1320.83 22.0683C1320.88 22.1216 1321.81 21.5353 1322.35 21.5353C1323.87 21.482 1325.38 21.482 1326.9 21.482C1329.18 21.4287 1329.4 21.9084 1331.46 21.9084C1332.06 21.9084 1332.65 21.8551 1333.25 21.9084C1333.85 21.9617 1333.2 21.5353 1333.47 21.3754C1334.55 20.8956 1334.66 21.6419 1334.98 21.8551C1335.42 22.1216 1336.99 21.8018 1337.48 21.8018C1338.18 21.8018 1337.97 22.2282 1339 22.2816C1340.3 22.3882 1341.71 22.2282 1343.01 22.2282C1343.83 22.2282 1343.99 21.6952 1344.26 21.6952C1344.69 21.6952 1344.58 22.2282 1345.56 22.1749C1346.59 22.1749 1347.57 22.1216 1348.6 22.1216C1352.5 22.0683 1356.41 22.9745 1360.2 22.9212C1362.75 22.8679 1364 22.4415 1366.01 22.3349C1366.12 22.3349 1367.09 22.7613 1367.8 22.8146C1369.15 22.9212 1370.51 22.6547 1371.87 22.7613C1372.68 22.8146 1372.25 23.241 1373.38 23.241C1374.42 23.241 1375.39 23.241 1376.42 23.1877C1377.51 23.1344 1377.18 22.6547 1377.94 22.6547C1379.3 22.6547 1380.65 22.6014 1381.95 22.6014C1383.58 22.5481 1383.64 23.5609 1385.48 23.5076C1386.56 23.5076 1386.24 22.9745 1387 22.9745C1388.19 22.9745 1389.33 22.9212 1390.52 22.9212C1394.48 22.8679 1396.98 23.7741 1401.15 23.7208C1403.16 23.6675 1404.62 24.2538 1407.23 24.0939C1407.66 24.0939 1409.45 24.3604 1409.78 24.0406C1409.94 23.8807 1409.99 23.7741 1409.99 23.6675C1409.99 23.7208 1410.1 23.8807 1410.27 24.0406C1410.59 24.3604 1412.38 23.5609 1412.27 24.2538C1412.22 24.6803 1414.33 24.4671 1414.82 24.4671C1417.86 24.4137 1420.9 24.3604 1423.88 24.3071C1427.24 24.2538 1430.6 24.2005 1433.97 24.1472C1436.03 24.0939 1437.28 24.5204 1438.79 24.5737C1438.79 24.5737 1439.93 24.0939 1440.53 24.0406C1441.83 23.8807 1443.24 23.9873 1444.6 23.9873C1445.09 24.0939 1447.8 24.7336 1447.8 24.7869C1447.74 25.1067 1455.93 24.8935 1456.91 24.8402C1457.67 24.8402 1457.34 24.4137 1458.43 24.3071C1459.19 24.2538 1458.81 24.8402 1459.95 24.7869C1459.68 24.8402 1460.27 24.3604 1460.43 24.3071C1461.03 24.1472 1461.84 24.3071 1462.44 24.2538C1463.04 24.2538 1466.02 24.627 1466.51 24.2005C1466.94 23.7741 1466.45 23.7741 1467.49 23.6675C1467.97 23.6142 1468.52 23.6675 1469 23.6142C1471.01 23.5609 1473.07 23.5609 1475.08 23.5076C1477.79 23.4543 1478.88 23.934 1481.64 23.8807C1483.16 23.8274 1484.68 23.8274 1486.2 23.7741C1487.23 23.7741 1486.25 24.3071 1486.96 24.2538C1487.44 24.2538 1487.12 23.7208 1487.17 23.7208C1489.89 23.5609 1492.22 24.7336 1494.22 23.6142C1494.71 23.3477 1494.12 23.1877 1495.2 23.0811C1495.47 23.5076 1496.77 24.2005 1496.99 24.2005C1497.59 24.1472 1498.18 24.1472 1498.78 24.1472C1499.81 24.1472 1499.38 24.2538 1499.81 24.627C1500.9 25.6398 1506.05 24.3604 1506.86 23.9873C1506.92 23.9873 1508.49 22.9212 1508.38 23.7208C1508.27 24.2005 1510.93 23.934 1511.42 23.934C1515.59 23.8807 1519.82 23.7741 1524 23.7208C1524.65 22.7613 1525.36 22.708 1527.04 22.6547C1527.42 23.241 1526.98 23.1877 1528.07 23.1344C1529.1 23.1344 1528.61 23.4543 1529.04 23.6142C1529.37 23.7741 1530.62 23.7741 1530.56 23.3477C1530.45 22.4415 1531.43 23.5609 1531.05 23.5609C1531.97 23.4543 1531.76 23.1877 1532.03 23.0278C1532.68 22.8679 1533.55 23.2943 1534.09 23.0278C1534.41 22.9212 1534.03 22.5481 1534.85 22.4948C1535.44 22.4415 1534.74 23.0811 1535.34 23.0278C1536.09 22.9212 1536.91 23.0278 1537.61 22.9745C1538.32 22.9745 1537.88 22.5481 1538.1 22.4948C1538.86 22.2816 1539.46 22.3882 1540 22.6014V0.000101089L0.00012207 0.000101089V15.3519C0.325439 15.4052 0.7052 15.5118 1.19324 15.5651ZM1107.79 10.9809C1108.17 11.354 1108 10.8743 1108.28 11.4607C1108.28 12.5268 1107.3 11.9937 1107.24 10.9809C1106.21 10.6078 1107.19 10.4479 1107.79 10.9809ZM1079.53 12.9532C1079.26 13.2197 1078.72 12.74 1079.04 12.4735C1079.31 12.2069 1079.8 12.6867 1079.53 12.9532ZM1025.94 8.42228C1025.67 8.6888 1025.13 8.20906 1025.46 7.94253C1025.67 7.6227 1026.21 8.15575 1025.94 8.42228ZM989.713 14.499C989.442 14.7656 988.9 14.2858 989.171 14.0193C989.442 13.7528 989.985 14.2325 989.713 14.499ZM985.537 8.6355C985.266 8.90202 984.724 8.42228 985.049 8.15575C985.32 7.83592 985.808 8.31567 985.537 8.6355ZM923.49 12.1536C925.009 12.1536 924.575 13.1664 924.25 13.1664C923.653 13.0598 924.25 13.9127 924.033 14.1792C923.87 14.1792 923.707 14.1792 923.544 14.1792C923.056 13.4329 922.731 12.8466 923.49 12.1536ZM844.304 15.0321C844.033 15.2986 843.491 14.8189 843.762 14.5523C844.033 14.2325 844.576 14.7123 844.304 15.0321ZM823.532 9.91481C823.261 10.1813 822.718 9.70159 823.044 9.43507C823.261 9.11524 823.803 9.64829 823.532 9.91481ZM796.847 16.3114C796.576 16.5779 796.034 16.0982 796.359 15.8317C796.63 15.5118 797.118 16.0449 796.847 16.3114ZM784.752 15.0321C784.481 15.2986 783.939 14.8189 784.21 14.5523C784.481 14.2325 785.024 14.7656 784.752 15.0321ZM714.136 18.7101C714.624 17.7506 714.787 18.7101 714.136 18.7101C713.594 19.6696 713.431 18.7101 714.136 18.7101ZM688.374 19.1366C688.102 19.4031 687.614 18.9233 687.885 18.6568C688.157 18.3903 688.645 18.87 688.374 19.1366ZM563.195 20.3093C562.924 20.5758 562.382 20.0961 562.653 19.8295C562.924 19.5097 563.466 20.0427 563.195 20.3093ZM445.501 17.8572C446.098 18.6568 445.881 18.337 445.501 18.87C444.796 19.9894 444.85 18.2304 445.501 17.8572ZM379.875 18.4969C379.929 20.8423 377.488 18.5502 379.875 18.4969V18.4969ZM326.885 19.4031C326.614 19.6696 326.072 19.1899 326.343 18.9233C326.614 18.6035 327.156 19.0833 326.885 19.4031Z" fill="#008482"/>
</svg>
