<svg width="1540" height="26" viewBox="0 0 1540 26" fill="none" xmlns="http://www.w3.org/2000/svg">
<path fill-rule="evenodd" clip-rule="evenodd" d="M1.19324 15.5652C2.06104 15.6185 13.2882 15.6185 13.2882 15.6185C13.2339 15.0321 16.5424 15.5652 16.8135 15.8317C17.3558 16.3648 17.6813 16.3114 18.8202 16.3114C20.3389 16.3114 21.8575 16.2581 23.3761 16.2048C24.4608 16.2048 24.1354 16.6846 24.8948 16.6846C26.2506 16.6313 27.6067 16.6313 28.9083 16.6313C29.6677 16.6313 36.0133 16.3114 35.9591 16.7912C35.9049 17.3775 39.0505 16.5247 39.4845 16.4714C41.5997 16.2048 43.1183 16.7379 44.5284 16.8978C44.4742 16.8978 44.3657 16.3648 44.7455 16.3648C45.3962 16.3648 44.7454 16.7912 45.0166 16.8445C46.1555 17.1643 47.9454 16.7912 49.0302 16.7912C50.3861 16.7379 51.7421 16.7379 53.0979 16.7379C53.8573 16.7379 53.4775 16.2048 54.6166 16.2048C54.7793 16.2048 54.3455 16.7379 54.8336 16.7379C55.2675 16.6846 55.7013 16.6846 56.1353 16.6846C57.22 16.6846 56.7318 17.0044 57.1656 17.1643C58.7928 17.804 61.9385 17.0577 63.7283 17.0577C64.4877 17.0577 64.1079 17.5375 65.2469 17.5375C65.952 17.5375 65.5182 16.9511 65.952 17.0044C68.0673 17.1643 70.1826 16.8445 72.2979 16.8978C73.2198 18.1771 74.3588 17.4842 76.3656 17.804C77.1249 17.9106 77.179 18.2837 78.4264 18.2837C79.674 18.2837 80.9756 18.1771 82.2231 18.2304C82.3315 18.2304 83.1993 17.6974 83.9587 17.6974C85.3146 17.6441 85.9113 17.5375 86.5078 18.1238C86.9418 18.4969 90.0874 18.0705 90.5214 18.0705C90.9552 18.0705 91.389 18.0705 91.823 18.0705C92.4196 18.0705 91.7688 17.6441 92.0399 17.5908C92.5281 17.4309 93.2874 17.5375 93.8297 17.5375C94.4263 17.4842 93.7755 17.9639 94.0466 18.0705C94.8602 18.337 96.2162 18.0172 97.0839 18.0172C98.3314 17.9639 97.8975 18.3903 99.0907 18.4969C100.772 18.6036 102.453 18.4436 104.135 18.3903C105.165 18.3903 106.142 18.337 107.172 18.337C108.365 18.2837 107.226 18.3903 107.714 18.8168C108.311 19.4031 108.691 18.337 108.691 18.2837C108.908 18.1771 109.613 18.7635 110.209 18.7635C111.023 18.7635 110.589 18.2304 111.728 18.2304C111.891 18.2304 111.457 18.8168 111.999 18.7102C112.433 18.6569 112.813 18.6569 113.247 18.6569C114.277 18.6569 115.253 18.6036 116.284 18.6036C117.423 18.6036 118.616 18.5503 119.809 18.5503C120.243 18.5503 121.057 19.03 120.84 19.03C122.033 18.9767 121.653 18.6569 122.846 18.4969C123.931 18.337 125.07 18.4969 126.155 18.4436C126.426 18.4436 127.402 19.3498 128.433 18.9234C128.704 18.8168 128.27 18.5503 128.921 18.3903C129.409 18.2837 129.951 18.3903 130.44 18.3903C131.036 18.337 131.904 18.2304 132.446 18.337C132.663 18.3903 132.121 18.8701 132.663 18.8701C133.151 18.8168 133.694 18.8168 134.182 18.8701C134.778 18.8701 134.182 18.4436 134.399 18.337C134.941 18.1771 135.646 18.337 136.189 18.2837C136.84 18.2304 136.135 18.6569 136.46 18.8168C137.273 19.1366 139.063 18.7635 139.985 18.7635C140.419 18.0705 141.07 18.4436 141.504 17.7507C142.48 17.7507 145.083 18.4969 145.572 19.1899C147.578 19.1366 149.585 19.1366 151.646 19.0833C153.273 19.03 154.033 18.4969 155.172 18.4969C154.846 18.4969 155.497 18.9767 155.714 18.9767C156.148 19.0833 156.799 18.9767 157.233 18.9767C157.883 18.9767 158.589 18.9767 159.239 18.9234C160.432 18.8701 159.294 18.9767 159.727 19.4031C160.432 20.0428 161.138 18.9234 161.246 18.8701C161.734 18.5503 163.633 18.8168 164.283 18.8168C165.097 18.8168 168.405 20.2027 169.327 19.2432C169.87 18.7102 170.412 18.7635 171.605 18.7102C172.256 18.6569 171.388 19.2432 172.365 19.1899C172.853 19.1899 173.395 19.1899 173.883 19.1366C176.432 19.0833 177.626 19.563 180.446 19.5097C183.537 19.4564 186.683 19.2965 189.775 19.3498C189.829 19.3498 190.914 18.1771 191.51 18.8168C192.107 19.4031 192.27 19.0833 193.517 19.2965C194.493 19.4564 194.927 19.723 195.524 19.7763C196.771 19.8296 196.283 19.1899 197.531 19.2432C197.368 19.2432 198.019 19.723 198.561 19.723C199.754 19.723 200.893 19.6697 202.086 19.6697C203.225 19.6697 204.473 19.5097 205.612 19.6164C206.317 19.6697 205.829 19.9895 206.154 20.0961C207.727 20.7358 211.036 19.9895 212.717 19.9895C213.964 19.9362 214.181 20.4692 215.754 20.4159C216.242 20.4159 220.852 20.0961 220.798 20.5758C220.744 21.0023 222.425 20.7891 222.805 20.7891C223.564 20.7891 223.022 20.3626 223.293 20.3093C224.595 19.8296 224.703 20.7891 225.842 20.7358C226.601 20.7358 227.361 20.6825 228.12 20.6825C228.717 20.7358 227.957 20.1494 228.608 20.1494C229.151 20.1494 228.608 20.6291 229.368 20.6291C229.693 20.6291 231.157 20.3626 231.374 20.5758C231.862 21.0556 231.808 21.0556 232.893 21.0556C233.761 21.0556 234.574 21.0023 235.388 21.0023C237.395 20.949 238.588 21.3221 239.944 21.4287C242.276 21.6419 244.662 21.2688 246.995 21.3221C247.862 21.3221 247.103 21.8019 248.025 21.8019C249.218 21.8019 250.357 21.7485 251.55 21.7485C252.31 21.7485 253.069 21.6419 253.828 21.6952C254.425 21.7485 253.666 21.1089 254.316 21.1622C255.347 21.2155 255.618 21.6419 257.083 21.6419C258.655 21.5886 258.872 21.1089 260.12 21.0556C259.794 21.0556 261.259 21.5353 261.638 21.5353C262.398 21.5886 263.211 21.5353 263.916 21.482C264.025 21.482 264.893 21.9618 265.652 21.9618C267.171 21.9085 268.689 21.9085 270.208 21.8552C272.486 21.8019 272.92 21.4287 274.764 21.2688C276.445 21.1622 277.204 21.8019 278.289 21.6952C278.452 21.6952 277.964 21.1622 278.506 21.1622C278.886 21.2155 279.428 21.2155 279.754 21.1622C280.621 20.949 280.676 21.0023 281.272 20.6291C281.489 20.8957 282.248 21.6419 282.52 21.6419C284.147 21.5353 285.72 21.5886 287.347 21.5353C289.842 21.482 291.143 22.3349 293.909 21.9085C294.289 21.8552 295.645 21.6952 295.916 21.3754C296.296 21.0023 295.808 21.1622 296.404 20.8957C296.458 20.949 297.055 21.4287 296.892 21.3754C297.814 21.7485 298.194 21.8552 299.442 21.8019C300.689 21.8019 300.201 21.2688 301.448 21.2688C301.177 21.2688 302.533 21.7485 302.967 21.7485C303.292 21.7485 305.299 21.9618 305.462 21.6952C305.57 21.5353 306.384 20.5758 306.98 21.1622C307.794 21.9085 306.926 21.2155 307.469 21.1622C307.848 21.1089 309.747 20.8424 309.964 21.1089C310.723 21.8552 309.909 21.1622 310.452 21.1089C312.404 20.949 312.784 21.0556 313.489 22.0684C314.519 22.0684 315.55 22.1217 316.526 22.0151C316.201 22.0684 317.068 20.8424 317.014 21.7485C316.96 22.2283 317.665 22.0151 318.045 22.0151C318.804 22.0151 319.835 21.8019 320.54 21.9618C320.757 22.0151 321.299 22.4415 321.082 22.4415C321.787 22.4415 322.98 21.3221 323.577 21.9085C324.173 22.4948 324.77 22.3882 326.126 22.3349C329.76 22.2816 333.339 22.2816 336.214 21.6419C336.377 21.9085 336.648 22.0151 336.756 22.1217C337.299 22.868 338.329 22.8146 338.763 22.0684C339.468 22.0684 340.553 22.2283 341.258 22.0151C341.963 21.8552 341.367 21.7485 341.746 21.482C342.289 21.1089 342.343 21.0023 343.265 20.949C343.59 21.4287 344.295 21.9618 345.055 21.9085C345.434 21.8552 345.272 22.1217 345.326 22.4415C345.326 23.401 346.573 22.9213 347.333 22.9213C348.526 22.9213 349.719 22.868 350.858 22.868C351.617 22.868 354.058 22.0151 354.383 22.3349C354.871 22.7613 354.817 22.8146 355.902 22.8146C356.499 22.8146 356.987 23.2944 356.932 23.2944C357.963 23.3477 358.885 22.7613 360.458 22.708C360.729 22.708 362.41 23.8807 363.007 23.1878C364.092 21.8019 367.075 23.6142 368.539 23.5609C369.244 22.4948 371.359 23.5609 372.065 22.4948C372.715 22.708 373.854 23.401 374.614 23.4543C375.482 23.5076 377.488 22.2816 378.139 22.9213C378.682 23.4543 378.41 23.2944 379.658 23.401C380.797 23.4543 382.044 23.3477 383.183 23.3477C384.702 23.3477 386.22 23.2944 387.739 23.2944C388.824 23.2944 388.336 22.9746 388.715 22.7613C390.776 21.8552 395.061 22.6547 397.285 22.6014C398.369 22.6014 398.044 23.0812 398.803 23.0812C399.834 23.0812 400.81 23.0279 401.841 23.0279C405.691 22.9746 409.596 22.868 413.447 22.8146C414.64 22.8146 415.779 22.7613 416.973 22.7613C417.84 22.7613 417.027 22.2816 417.949 22.2816C419.196 22.2283 419.793 22.7613 421.474 22.708C422.613 22.708 422.179 22.2283 422.993 22.175C424.078 22.1217 423.59 22.4948 424.023 22.6547C425.108 23.0812 425.217 22.3349 425.542 22.1217C425.922 21.8552 427.115 22.0684 427.549 22.0684C428.471 22.0684 427.657 22.6014 428.579 22.5481C428.362 22.5481 429.067 22.0151 429.556 22.0151C434.166 21.9085 437.311 22.3882 442.193 22.2816C445.284 22.2283 452.064 21.1622 454.342 22.5481C454.776 21.8552 455.427 21.3221 455.86 22.0151C457.325 21.9618 456.999 21.482 457.867 21.482C457.704 21.482 458.03 21.9618 458.355 21.9618C458.844 21.9618 459.386 21.9618 459.874 21.9085C460.579 22.9746 466.437 22.0151 466.437 22.0684C466.382 22.4415 469.528 22.4948 469.474 22.0151C469.365 21.1622 472.348 22.2283 472.511 22.2283C472.294 22.2283 472.782 21.8019 472.999 21.7485C473.379 21.6419 473.867 21.7485 474.247 21.6952C474.518 21.6952 474.681 22.175 475.494 22.175C477.176 22.1217 479.02 21.9618 480.05 22.6014C480.43 22.0684 482.762 21.5353 483.575 21.5353C484.769 21.5353 484.931 22.0151 485.636 22.0151C486.07 22.0151 486.504 22.0151 486.884 21.9618C487.48 21.9085 486.884 22.3882 487.155 22.4415C488.24 22.7613 489.27 22.2816 489.65 21.9085C490.301 21.2155 491.169 22.3882 491.169 22.3882C492.362 22.868 492.525 21.8552 493.175 21.8552C493.88 21.8552 493.664 22.2816 494.694 22.3349C494.26 22.3349 495.779 21.0023 495.67 22.0684C495.67 22.6014 496.809 22.2816 497.189 22.2816C497.894 21.2155 498.816 21.2688 500.714 21.2155C501.148 21.8552 501.799 21.5353 502.233 22.175C503.48 22.1217 502.992 21.6419 504.24 21.6419C504.728 21.6419 505.812 21.4287 506.246 21.5886C506.518 21.6952 505.867 22.175 506.518 22.0684C507.602 21.9618 508.741 22.0151 509.826 22.0151C510.477 22.0151 510.64 21.482 511.833 21.482C512.592 21.482 512.267 21.9618 513.351 21.9618C515.033 21.9618 516.714 21.9085 518.396 21.8552C520.89 21.8019 523.223 22.0684 524.958 22.2283C524.741 22.2283 525.067 21.2688 525.446 21.7485C525.826 22.175 525.446 22.3349 526.477 22.2283C527.616 22.0684 527.29 21.6952 528.484 21.6952C528.212 21.6952 528.809 22.1217 528.972 22.175C529.406 22.2816 530.056 22.175 530.49 22.175C531.846 22.1217 533.202 22.0684 534.504 22.1217C534.612 22.1217 534.287 22.6547 534.775 22.6014C535.317 22.6014 534.829 22.1217 534.992 22.0684C535.805 21.9085 537.216 21.8552 538.029 22.0151C539.277 22.2816 538.68 22.0151 540.524 21.9618C543.778 21.9085 545.948 22.8146 548.063 21.3221C548.985 22.6547 553.27 22.708 554.138 21.2155C554.897 21.2688 556.199 21.6952 557.663 21.6419C558.748 21.5886 558.26 21.9085 558.693 22.1217C558.531 22.0684 560.429 22.4948 559.724 22.6014C561.08 22.3882 562.327 22.0684 564.28 22.0151C566.775 21.9618 567.209 22.4415 569.324 22.4415C569.866 23.2411 569.487 22.6547 570.354 22.4415C571.602 22.1217 572.307 22.7613 572.849 21.9085C573.175 22.0151 575.181 23.5609 575.887 22.868C576.049 22.708 576.103 22.6014 576.103 22.4948C576.103 22.5481 576.212 22.708 576.375 22.8146C576.646 23.0812 578.49 22.7613 578.924 22.7613C581.636 22.7613 584.293 22.6547 587.005 22.6014C589.229 22.5481 592.103 22.8146 593.568 21.9618C594.056 21.6952 593.459 21.5353 594.544 21.4287C594.707 21.6952 594.978 21.8019 595.086 21.9085C595.791 22.9213 597.907 21.8019 598.612 22.8146C599.805 22.8146 599.642 22.2816 601.107 22.2816C602.191 22.2816 602.517 22.175 603.113 21.7485C603.71 22.6014 605.066 22.3349 605.662 23.1878C606.91 23.1878 606.422 22.6547 607.669 22.6547C608.862 22.6547 610.001 22.6014 611.195 22.6014C614.232 22.5481 617.269 22.4948 620.252 22.4415C620.957 22.4415 621.12 22.9213 622.313 22.9213C623.073 22.9213 622.693 22.4415 623.832 22.3882C624.808 22.3882 625.893 22.175 626.869 22.3349C627.628 22.4415 627.249 22.8146 628.388 22.8146C628.225 22.8146 628.496 22.3349 628.876 22.2816C629.364 22.2283 629.906 22.2816 630.394 22.2816C632.076 22.175 633.757 22.2283 635.439 22.175C637.608 22.1217 639.832 22.0684 642.001 22.0684C642.652 22.0684 645.581 22.4415 646.069 22.0151C646.611 21.482 646.828 21.5353 648.076 21.482C648.401 21.482 650.354 21.2155 650.571 21.4287C651.438 22.4415 654.964 21.8552 656.645 21.8019C657.947 21.8019 659.954 22.9746 661.689 22.2283C661.96 22.1217 661.31 21.6419 661.906 21.6952C662.232 21.7485 662.937 21.8019 663.208 21.6952C663.208 21.6952 663.587 20.6291 664.184 21.1622C664.726 21.6419 664.455 21.6419 665.703 21.6419C667.221 21.5886 668.74 21.5886 670.259 21.5886C671.777 21.5353 673.296 21.5353 674.814 21.482C675.574 21.482 675.194 21.0023 676.333 20.949C676.008 20.949 677.418 21.4287 677.852 21.4287C678.665 21.4287 679.533 21.3754 680.347 21.3754C682.625 21.3221 683.058 21.5353 683.872 20.3093C685.391 20.256 685.879 20.3093 686.909 20.7358C687.235 20.8957 686.692 21.2155 687.397 21.2155C687.886 21.2155 688.97 21.3754 689.404 21.1622C689.73 21.0023 689.133 20.6291 689.892 20.6291C690.652 20.6291 690.109 21.0023 690.38 21.1089C691.519 21.5886 691.791 20.6825 692.387 20.5758C694.123 20.256 696.184 20.5225 697.919 20.4692C698.95 20.4692 699.926 20.4159 700.957 20.4159C701.662 20.4159 701.228 19.9895 701.445 19.9362C702.529 19.6164 703.506 20.4159 703.723 20.4159C705.296 20.2027 706.923 20.3626 708.495 20.3093C708.17 20.3093 709.038 19.1366 708.984 20.0428C708.984 20.5225 709.634 20.3093 710.014 20.3093C711.75 20.256 711.641 19.7763 713.539 19.723C714.245 19.723 714.516 19.9362 714.516 19.1899C714.516 18.4969 715.655 18.2837 716.034 18.6569C717.119 19.6164 716.523 19.6697 717.662 19.6697C718.529 19.6697 719.343 19.6164 720.156 19.6164C720.916 20.7358 723.356 19.9895 724.224 19.563C724.767 20.3626 725.417 20.5225 726.773 20.5225C727.641 20.5225 728.455 20.5225 729.322 20.4692C729.919 20.4692 730.407 19.9362 730.299 19.9362C731.546 19.8296 731.058 20.5225 732.305 20.4159C732.197 20.4159 732.685 19.9362 733.282 19.8829C733.661 19.8829 734.855 19.6164 734.8 20.0961C734.746 20.5225 738.488 20.256 739.085 20.256C739.302 20.256 739.627 19.7763 740.333 19.723C741.471 19.6164 742.719 19.8296 743.858 19.6697C744.4 19.563 745.865 18.6569 746.353 19.1366C746.841 19.6164 746.244 19.6164 747.383 19.6164C747.709 19.6164 749.173 19.8296 749.39 19.563C749.932 19.03 750.258 19.563 751.939 19.5097C755.302 19.4564 756.658 18.9767 759.532 19.3498C760.129 18.3903 760.888 18.337 762.515 18.2837C763.003 19.03 762.841 18.5503 764.034 18.7635C764.142 18.7635 765.498 19.2432 765.064 19.2432C766.203 19.2965 765.77 18.8701 766.583 18.7102C767.397 18.5503 768.319 18.6569 769.132 18.6569C770.814 18.6569 771.085 19.1899 771.627 18.6036C772.224 18.0172 776.346 18.5503 777.159 18.4969C777.919 18.4969 777.376 18.9767 777.919 18.9767C778.19 18.9767 778.353 18.4969 779.166 18.4436C779.22 18.4436 778.949 18.9767 779.437 18.9767C779.871 18.9767 779.654 18.4436 779.654 18.4436C781.444 18.4969 781.715 18.7102 783.18 18.3903C783.668 18.2837 786.271 18.6036 786.217 18.1238C786.054 17.0577 787.41 18.4436 787.247 18.337C787.573 18.5503 789.363 18.4436 789.254 18.0705C789.2 17.5908 791.152 17.804 791.532 17.804C792.183 17.7507 791.315 18.337 792.291 18.2837C792.725 18.2837 793.159 18.2304 793.539 18.2837C793.81 18.2837 793.973 17.7507 794.786 17.7507C795.979 17.7507 796.142 17.2176 796.793 17.2176C797.986 17.1643 799.125 17.1643 800.318 17.1643C801.023 17.1643 801.186 17.6441 802.325 17.6441C802.759 17.6441 803.193 17.5908 803.627 17.6441C804.223 17.6974 803.627 17.1643 803.844 17.111C805.091 16.7912 808.888 17.2709 808.888 17.2709C808.725 16.6313 810.623 17.2709 810.895 17.0044C811.166 16.7379 811.166 16.3648 811.383 15.9916C811.708 15.9916 813.444 16.4714 813.444 16.6846C813.389 17.0044 816.481 17.0044 816.969 16.8445C817.24 16.7912 817.078 16.3648 818 16.3114C818.813 16.2581 818.162 16.578 818.488 16.7912C819.03 17.1643 821.362 16.7912 822.013 16.7379C822.067 16.7379 821.85 16.0982 822.501 16.2581C822.718 16.3114 822.176 16.7912 822.772 16.7379C824.02 16.6846 825.322 16.6846 826.569 16.6846C828.088 16.6313 827.762 16.0449 829.064 16.6313C829.444 16.0449 829.715 15.9916 830.854 16.0982C831.179 16.1515 831.45 15.2987 831.559 15.0854C832.589 15.0854 833.077 15.5652 833.62 16.0449C833.999 16.4181 833.837 15.9383 834.108 16.5247C834.976 16.5247 835.789 16.5247 836.657 16.4714C836.983 15.9916 836.549 15.9383 837.416 15.9916C838.176 15.9916 837.362 15.0854 837.145 15.4586C837.525 14.8189 837.525 14.8722 838.121 14.4458C838.176 16.2581 838.61 15.4586 839.152 16.4181C840.996 16.3648 842.84 16.3648 844.684 16.3114C845.389 16.3114 845.172 15.885 846.203 15.7784C847.071 15.6718 847.776 16.2581 847.993 16.2581C849.132 16.1515 848.752 16.0449 849.24 15.7251C850.487 14.8722 849.511 15.6185 850.271 16.2048C851.03 16.7912 851.247 15.8317 851.789 16.6846C852.603 16.4181 854.609 15.4053 854.826 16.1515C855.206 16.1515 857.918 16.3648 857.864 15.8317C857.701 14.9788 858.84 15.9916 858.894 16.0449C860.792 16.0449 859.437 14.6057 860.413 15.5119C860.684 15.7784 861.498 15.0321 861.443 15.7251C861.389 16.2048 865.023 15.9383 865.511 15.9383C867.843 15.885 870.23 15.8317 872.562 15.8317C874.026 15.8317 873.864 15.2987 875.057 15.2987C874.731 15.2987 875.436 15.7784 875.599 15.7784C876.196 15.9383 877.009 15.7784 877.606 15.7251C879.287 15.6718 880.969 15.6718 882.65 15.6185C884.114 15.6185 883.409 14.8722 884.169 15.6185C884.385 15.8317 886.935 15.6718 887.206 15.5652C887.477 15.4586 887.043 15.192 887.694 15.0321C888.345 14.9255 889.05 15.0321 889.701 15.0321C890.406 15.0321 889.972 15.4586 890.189 15.5119C890.785 15.6718 891.599 15.4586 892.196 15.4586C893.877 15.4053 895.558 15.4053 897.24 15.352C898.487 15.2987 897.999 14.8189 899.246 14.8189C898.921 14.8189 899.626 15.2987 899.734 15.2987C900.168 15.4053 900.819 15.2987 901.253 15.2987C902.772 15.2987 904.29 15.2453 905.809 15.2453C907.49 15.192 909.172 15.192 910.853 15.1387C911.612 15.1387 911.233 14.6057 912.372 14.6057C913.077 14.6057 913.239 15.0854 914.378 15.0854C915.517 15.0854 915.843 15.0854 916.385 14.5524C917.307 13.5929 920.29 14.9788 920.941 14.9788C922.134 14.9255 922.297 14.4458 922.948 14.4458C923.707 14.4458 923.978 14.9788 924.195 14.9255C925.388 14.7656 929.782 15.5652 930.487 14.8189C931.355 13.966 930.433 14.9255 931.246 14.8189C932.168 14.7123 933.144 14.7656 934.012 14.7656C934.934 14.1259 933.958 14.6057 934.012 14.2859C934.066 13.2198 934.5 14.2326 934.988 13.7528C934.988 13.5929 934.988 13.433 934.988 13.2198C935.422 12.8999 936.887 12.9532 936.019 13.6995C935.477 14.1259 934.88 14.7123 936.561 14.659C937.375 14.659 938.297 14.7123 939.11 14.6057C940.358 14.4458 940.412 14.1259 941.876 14.0193C942.527 13.966 941.66 14.5524 942.636 14.4991C943.287 14.4991 943.992 14.4991 944.643 14.4991C945.402 13.3264 946.215 14.2859 946.649 14.9788C947.463 14.9788 948.168 15.2987 948.168 14.4458C948.168 13.1665 948.168 13.6995 949.415 13.433C949.632 13.3797 950.066 14.7123 950.229 14.9255C951.476 14.9255 951.205 14.7656 951.748 14.3925C952.398 13.966 952.832 14.8722 952.778 14.8722C953.754 14.9255 954.785 14.8189 955.815 14.8189C956.683 14.8189 955.87 14.3392 956.846 14.2859C958.636 14.2326 958.798 14.7656 960.371 14.7123C961.293 14.7123 962.215 14.7123 963.137 14.659C963.409 14.659 963.571 15.192 964.385 15.1387C965.09 15.1387 964.656 14.6057 965.144 14.6057C965.903 14.659 966.663 14.6057 967.422 14.6057C969.375 14.5524 969.591 15.0854 971.49 15.0321C974.364 14.9788 977.185 14.9255 980.059 14.8722C981.524 14.8189 981.524 15.0854 981.578 13.8594C983.422 13.8061 982.337 13.8594 983.096 14.3392C983.313 14.4991 985.7 14.7123 985.646 14.8189C986.296 13.966 985.863 14.8722 986.134 14.8189C986.893 14.659 986.296 14.3392 987.11 14.2859C988.357 14.2326 988.52 14.7656 990.147 14.7123C991.286 14.7123 990.852 14.2326 991.666 14.1793C992.751 14.1259 992.262 14.4991 992.696 14.659C993.835 15.1387 994.486 14.1259 995.734 14.1259C996.493 14.1259 996.005 14.4991 996.764 14.6057C997.686 14.7656 998.879 14.5524 999.801 14.5524C1001.81 14.4991 1001.92 14.0193 1003.81 13.966C1004.3 13.966 1007.45 14.1793 1007.34 13.6462C1007.23 13.2198 1007.83 13.3264 1007.83 13.9127C1007.88 15.885 1009.78 13.4863 1009.84 13.3797C1010.49 13.3797 1011.19 13.3264 1011.84 13.3264C1012 13.5929 1012.28 13.6995 1012.33 13.8061C1012.98 14.9255 1014.45 14.1793 1014.45 14.3392C1014.39 15.2454 1017.27 14.0726 1017.48 14.0726C1018.19 14.0726 1017.81 14.3925 1018.51 14.5524C1019.22 14.7123 1020.09 14.4991 1020.79 14.4991C1020.85 14.4991 1021.55 13.3797 1021.55 14.2326C1021.55 15.192 1022.2 13.9127 1022.04 13.966C1023.12 13.4863 1023.23 14.2326 1023.56 14.4458C1023.88 14.659 1024.91 14.3925 1025.35 14.4458C1025.62 14.4458 1025.94 13.8061 1026.87 13.9127C1026.92 13.9127 1027.41 13.4863 1027.62 13.3797C1029.79 13.3264 1026.65 14.3392 1029.58 14.3392C1030.23 14.3392 1034.68 13.6995 1035.11 14.2326C1035.98 15.2454 1036.74 14.1793 1038.15 14.1793C1040.1 14.1259 1040.59 14.659 1042.21 14.6057C1043.35 14.6057 1049.65 15.2453 1050.3 14.4458C1051.27 13.2198 1051.54 14.659 1052.3 14.3925C1052.57 14.3392 1051.92 13.8594 1052.52 13.8594C1052.95 13.8594 1053.39 13.8594 1053.77 13.8594C1054.04 13.8594 1055.61 13.6462 1055.77 13.8594C1056.37 14.5524 1058.32 14.0193 1058.32 14.0726C1058.27 15.0321 1065.48 13.8061 1065.86 13.2198C1066.78 13.6995 1067.33 14.3392 1067.87 13.6995C1069.01 13.6995 1070.26 13.8061 1071.39 13.6462C1072.15 13.5396 1071.5 13.3797 1071.88 13.1132C1072.1 12.9532 1074.7 12.8999 1074.92 13.0598C1075.35 13.433 1074.87 13.5396 1075.95 13.5396C1076.82 13.5396 1077.63 13.4863 1078.5 13.4863C1080.51 13.433 1082.57 13.2198 1084.57 13.3797C1085.77 13.4863 1085.55 13.8061 1086.85 13.8594C1086.91 13.8594 1087.99 12.74 1088.59 13.3264C1089.02 13.6995 1089.45 14.1259 1090.11 14.2859C1090.54 14.3925 1092.65 14.4458 1092.6 13.966C1092.6 13.9127 1104.59 14.4991 1106.21 14.4991C1107.46 14.4458 1106.97 14.9788 1108.28 14.9788C1108.98 14.9788 1109.96 15.4586 1110.01 15.4586C1112.23 15.192 1112.99 15.2453 1114.3 14.3925C1114.67 14.9788 1115.38 15.352 1116.36 15.352C1117.33 15.352 1120.8 14.7123 1121.4 15.2453C1121.89 15.6718 1121.83 15.7251 1122.92 15.7251C1124.11 15.7251 1125.25 15.6718 1126.44 15.6718C1127.26 15.6718 1127.31 15.192 1127.42 15.1387C1127.96 15.0321 1128.02 15.6185 1127.91 15.6185C1128.88 15.5119 1128.78 15.0854 1129.43 15.0854C1129.21 15.0854 1130.02 15.5652 1130.46 15.5652C1130.84 16.1515 1130.46 16.0449 1131.49 16.0449C1131.87 15.5119 1132.14 15.6185 1132.46 15.0321C1134.69 14.9788 1132.95 15.2987 1132.95 15.7784C1132.95 16.2581 1134.58 15.9916 1135.01 15.9916C1136.15 15.9916 1137.4 15.8317 1138.54 15.9383C1138.76 15.9383 1139.73 16.3648 1139.62 16.4181C1140.17 16.3648 1143.15 15.2987 1143.1 16.1515C1143.04 16.8978 1144.99 15.5652 1145.1 15.352C1146.62 15.352 1146.35 15.8317 1147.65 15.8317C1148.57 15.8317 1151.66 15.2453 1152.21 15.7251C1152.64 16.1515 1152.15 16.1515 1153.24 16.2048C1154.11 16.2048 1154.92 16.1515 1155.79 16.1515C1157.96 16.0982 1160.18 16.0449 1162.35 16.0449C1163.92 16.0449 1163.81 16.5247 1165.39 16.4714C1167.34 16.4181 1169.51 16.6313 1171.46 16.3648C1172.49 16.2581 1174.61 15.352 1175.75 15.2987C1176.07 15.2987 1175.96 15.7251 1176.5 15.7784C1177.16 15.885 1177.86 15.6185 1178.51 15.7251C1179.33 15.885 1179.7 16.2048 1181.06 16.1515C1182.31 16.1515 1182.15 16.6313 1183.61 16.6313C1186 16.578 1188.33 16.5247 1190.66 16.5247C1193.21 16.4714 1199.39 18.7635 1200.75 16.3648C1201.35 16.3648 1203.84 16.7379 1203.79 17.0577C1203.68 17.9639 1205.85 16.7912 1205.79 16.7912C1205.74 16.7912 1206.12 17.3242 1206.82 17.2709C1207.64 17.1643 1207.58 16.7912 1207.8 16.7379C1208.34 16.578 1209.75 16.578 1210.29 16.6846C1210.51 16.7379 1211.05 17.2176 1210.84 17.1643C1211.98 17.2176 1212.63 16.4181 1214.36 16.578C1214.9 16.6313 1215.61 17.111 1215.88 17.5375C1218 17.4842 1218.48 17.1643 1220.44 16.9511C1220.98 17.7507 1222.66 17.3775 1223.96 17.3775C1224.45 18.0705 1223.96 17.8573 1224.45 17.3775C1224.61 17.3775 1224.78 17.3775 1224.94 17.3775C1225.32 16.7912 1225.59 17.0044 1225.91 16.3648C1226.08 16.3648 1226.24 16.3648 1226.4 16.3648C1226.84 16.9511 1226.78 16.9511 1227.43 17.3242C1227.98 17.6441 1227.7 17.804 1228.95 17.804C1229.49 18.4969 1229.82 18.1238 1230.96 18.2837C1231.12 18.2837 1232.42 18.7635 1231.99 18.7635C1233.18 18.7635 1233.4 18.1238 1235.03 18.2304C1236.33 18.2837 1236.27 18.6036 1237.68 18.7102C1238.23 17.8573 1239.8 17.6974 1241.21 17.6441C1241.43 17.9639 1241.43 18.337 1241.7 18.6036C1241.86 18.6036 1242.02 18.6036 1242.19 18.6036C1242.19 18.7635 1242.19 18.9234 1242.19 19.0833C1242.57 19.4564 1242.4 18.9767 1242.67 19.563C1243.32 19.563 1244.03 19.563 1244.68 19.5097C1245.66 19.5097 1244.79 18.9767 1245.44 18.9767C1246.09 19.03 1246.9 19.5097 1246.96 19.4564C1248.31 19.2965 1249.89 19.2965 1251.24 19.3498C1251.79 19.4031 1252.44 19.4031 1253.03 19.2965C1253.58 19.2432 1253.14 19.8296 1253.25 19.8296C1253.63 19.8296 1255.85 18.8701 1255.74 19.563C1255.69 20.0428 1256.94 19.7763 1257.26 19.7763C1258.35 19.723 1258.29 19.723 1258.78 19.2432C1259.38 18.6036 1260.9 19.7763 1261.55 19.6697C1261.66 19.6697 1262.25 20.0961 1262.8 20.1494C1263.66 20.256 1262.85 19.6697 1263.77 19.6164C1264.8 19.6164 1265.45 19.8296 1266.81 20.0428C1268.38 20.256 1268.6 20.5225 1270.33 20.4692C1270.77 20.4692 1275.43 20.1494 1275.38 20.6291C1275.32 21.4287 1278.25 20.3093 1278.42 20.3093C1278.14 20.3093 1279.07 20.7891 1279.45 20.7891C1280.04 20.7891 1280.64 20.7358 1281.24 20.7891C1281.51 20.7891 1281.62 20.256 1282.48 20.256C1283.3 20.256 1282.65 20.4692 1282.97 20.7358C1283.73 21.2155 1287.2 20.7358 1288.02 20.6291C1289.43 20.5225 1289.7 20.5225 1290.51 20.0961C1291.16 21.0023 1292.9 20.5225 1293.55 21.5353C1294.25 21.482 1294.36 21.0023 1295.55 21.0023C1296.59 21.0023 1297.56 20.949 1298.59 20.949C1299.03 20.949 1299.46 20.8957 1299.89 20.949C1300.49 20.949 1299.84 20.5225 1300.11 20.4159C1301.2 19.9895 1301.25 20.6291 1301.63 20.8957C1302.17 21.2155 1304.02 20.8424 1304.67 20.8424C1305.37 20.8424 1305.21 21.2688 1306.19 21.3221C1307.38 21.3754 1306.89 20.7891 1307.7 20.7891C1308.46 20.7891 1308.79 21.3221 1308.95 21.2688C1309.93 21.1622 1315.3 21.0023 1315.24 21.4287C1315.19 21.8552 1317.9 21.6419 1318.28 21.6419C1319.64 21.5886 1320.18 21.482 1320.83 22.0684C1320.88 22.1217 1321.81 21.5353 1322.35 21.5353C1323.87 21.482 1325.38 21.482 1326.9 21.482C1329.18 21.4287 1329.4 21.9085 1331.46 21.9085C1332.06 21.9085 1332.65 21.8552 1333.25 21.9085C1333.85 21.9618 1333.2 21.5353 1333.47 21.3754C1334.55 20.8957 1334.66 21.6419 1334.98 21.8552C1335.42 22.1217 1336.99 21.8019 1337.48 21.8019C1338.18 21.8019 1337.97 22.2283 1339 22.2816C1340.3 22.3882 1341.71 22.2283 1343.01 22.2283C1343.83 22.2283 1343.99 21.6952 1344.26 21.6952C1344.69 21.6952 1344.58 22.2283 1345.56 22.175C1346.59 22.175 1347.57 22.1217 1348.6 22.1217C1352.5 22.0684 1356.41 22.9746 1360.2 22.9213C1362.75 22.868 1364 22.4415 1366.01 22.3349C1366.12 22.3349 1367.09 22.7613 1367.8 22.8146C1369.15 22.9213 1370.51 22.6547 1371.87 22.7613C1372.68 22.8146 1372.25 23.2411 1373.38 23.2411C1374.42 23.2411 1375.39 23.2411 1376.42 23.1878C1377.51 23.1345 1377.18 22.6547 1377.94 22.6547C1379.3 22.6547 1380.65 22.6014 1381.95 22.6014C1383.58 22.5481 1383.64 23.5609 1385.48 23.5076C1386.56 23.5076 1386.24 22.9746 1387 22.9746C1388.19 22.9746 1389.33 22.9213 1390.52 22.9213C1394.48 22.868 1396.98 23.7741 1401.15 23.7208C1403.16 23.6675 1404.62 24.2539 1407.23 24.094C1407.66 24.094 1409.45 24.3605 1409.78 24.0407C1409.94 23.8807 1409.99 23.7741 1409.99 23.6675C1409.99 23.7208 1410.1 23.8807 1410.27 24.0407C1410.59 24.3605 1412.38 23.5609 1412.27 24.2539C1412.22 24.6803 1414.33 24.4671 1414.82 24.4671C1417.86 24.4138 1420.9 24.3605 1423.88 24.3072C1427.24 24.2539 1430.6 24.2006 1433.97 24.1473C1436.03 24.094 1437.28 24.5204 1438.79 24.5737C1438.79 24.5737 1439.93 24.094 1440.53 24.0407C1441.83 23.8807 1443.24 23.9874 1444.6 23.9874C1445.09 24.094 1447.8 24.7336 1447.8 24.7869C1447.74 25.1068 1455.93 24.8935 1456.91 24.8402C1457.67 24.8402 1457.34 24.4138 1458.43 24.3072C1459.19 24.2539 1458.81 24.8402 1459.95 24.7869C1459.68 24.8402 1460.27 24.3605 1460.43 24.3072C1461.03 24.1473 1461.84 24.3072 1462.44 24.2539C1463.04 24.2539 1466.02 24.627 1466.51 24.2006C1466.94 23.7741 1466.45 23.7741 1467.49 23.6675C1467.97 23.6142 1468.52 23.6675 1469 23.6142C1471.01 23.5609 1473.07 23.5609 1475.08 23.5076C1477.79 23.4543 1478.88 23.934 1481.64 23.8807C1483.16 23.8274 1484.68 23.8274 1486.2 23.7741C1487.23 23.7741 1486.25 24.3072 1486.96 24.2539C1487.44 24.2539 1487.12 23.7208 1487.17 23.7208C1489.89 23.5609 1492.22 24.7336 1494.22 23.6142C1494.71 23.3477 1494.12 23.1878 1495.2 23.0812C1495.47 23.5076 1496.77 24.2006 1496.99 24.2006C1497.59 24.1473 1498.18 24.1473 1498.78 24.1473C1499.81 24.1473 1499.38 24.2539 1499.81 24.627C1500.9 25.6398 1506.05 24.3605 1506.86 23.9874C1506.92 23.9874 1508.49 22.9213 1508.38 23.7208C1508.27 24.2006 1510.93 23.934 1511.42 23.934C1515.59 23.8807 1519.82 23.7741 1524 23.7208C1524.65 22.7613 1525.36 22.708 1527.04 22.6547C1527.42 23.2411 1526.98 23.1878 1528.07 23.1345C1529.1 23.1345 1528.61 23.4543 1529.04 23.6142C1529.37 23.7741 1530.62 23.7741 1530.56 23.3477C1530.45 22.4415 1531.43 23.5609 1531.05 23.5609C1531.97 23.4543 1531.76 23.1878 1532.03 23.0279C1532.68 22.868 1533.55 23.2944 1534.09 23.0279C1534.41 22.9213 1534.03 22.5481 1534.85 22.4948C1535.44 22.4415 1534.74 23.0812 1535.34 23.0279C1536.09 22.9213 1536.91 23.0279 1537.61 22.9746C1538.32 22.9746 1537.88 22.5481 1538.1 22.4948C1538.86 22.2816 1539.46 22.3882 1540 22.6014V0.000146866L0.00012207 0.000146866V15.352C0.325439 15.4053 0.7052 15.5119 1.19324 15.5652ZM1107.79 10.981C1108.17 11.3541 1108 10.8743 1108.28 11.4607C1108.28 12.5268 1107.3 11.9938 1107.24 10.981C1106.21 10.6078 1107.19 10.4479 1107.79 10.981ZM1079.53 12.9532C1079.26 13.2198 1078.72 12.74 1079.04 12.4735C1079.31 12.207 1079.8 12.6867 1079.53 12.9532ZM1025.94 8.42232C1025.67 8.68885 1025.13 8.2091 1025.46 7.94258C1025.67 7.62275 1026.21 8.1558 1025.94 8.42232ZM989.713 14.4991C989.442 14.7656 988.9 14.2859 989.171 14.0193C989.442 13.7528 989.985 14.2326 989.713 14.4991ZM985.537 8.63554C985.266 8.90207 984.724 8.42232 985.049 8.1558C985.32 7.83597 985.808 8.31571 985.537 8.63554ZM923.49 12.1537C925.009 12.1537 924.575 13.1665 924.25 13.1665C923.653 13.0598 924.25 13.9127 924.033 14.1793C923.87 14.1793 923.707 14.1793 923.544 14.1793C923.056 13.433 922.731 12.8466 923.49 12.1537ZM844.304 15.0321C844.033 15.2987 843.491 14.8189 843.762 14.5524C844.033 14.2326 844.576 14.7123 844.304 15.0321ZM823.532 9.91486C823.261 10.1814 822.718 9.70164 823.044 9.43512C823.261 9.11529 823.803 9.64834 823.532 9.91486ZM796.847 16.3114C796.576 16.578 796.034 16.0982 796.359 15.8317C796.63 15.5119 797.118 16.0449 796.847 16.3114ZM784.752 15.0321C784.481 15.2987 783.939 14.8189 784.21 14.5524C784.481 14.2326 785.024 14.7656 784.752 15.0321ZM714.136 18.7102C714.624 17.7507 714.787 18.7102 714.136 18.7102C713.594 19.6697 713.431 18.7102 714.136 18.7102ZM688.374 19.1366C688.102 19.4031 687.614 18.9234 687.885 18.6569C688.157 18.3903 688.645 18.8701 688.374 19.1366ZM563.195 20.3093C562.924 20.5758 562.382 20.0961 562.653 19.8296C562.924 19.5097 563.466 20.0428 563.195 20.3093ZM445.501 17.8573C446.098 18.6569 445.881 18.337 445.501 18.8701C444.796 19.9895 444.85 18.2304 445.501 17.8573ZM379.875 18.4969C379.929 20.8424 377.488 18.5503 379.875 18.4969V18.4969ZM326.885 19.4031C326.614 19.6697 326.072 19.1899 326.343 18.9234C326.614 18.6036 327.156 19.0833 326.885 19.4031Z" fill="#008482"/>
</svg>
