<svg width="14" height="12" viewBox="0 0 14 12" fill="none" xmlns="http://www.w3.org/2000/svg">
<path d="M13.8904 2.35047C14.0176 2.24143 14.0358 2.05363 13.9267 1.92641C13.8843 1.87795 13.8298 1.8416 13.7692 1.82343L13.2906 1.70227C13.1271 1.65987 13.0302 1.4963 13.0726 1.33274C13.0786 1.31457 13.0847 1.29639 13.0907 1.27822L13.3573 0.739065C13.43 0.587617 13.3694 0.40588 13.2179 0.333185C13.1513 0.302895 13.0786 0.296837 13.0059 0.315011L11.7943 0.654254C11.7035 0.678486 11.6065 0.660312 11.5278 0.605791C11.0008 0.212027 10.3647 0 9.71042 0C8.03844 0 6.68146 1.35697 6.68146 3.02895V3.24704C6.68146 3.32579 6.62694 3.38637 6.54819 3.39849C4.84592 3.5984 3.21634 2.73212 1.45955 0.708775C1.38079 0.623964 1.25963 0.587617 1.15059 0.617906C1.04761 0.66637 0.980971 0.763296 0.974913 0.872339C0.732597 1.87189 0.829523 2.91991 1.25358 3.85283C1.28992 3.92552 1.25963 4.01639 1.18694 4.0588C1.15665 4.07091 1.12636 4.07697 1.09607 4.07091L0.417586 3.93764C0.254022 3.91341 0.0965164 4.02245 0.0722848 4.18601C0.0662269 4.22236 0.0662269 4.25871 0.0722848 4.29506C0.175269 5.23403 0.708365 6.08214 1.50801 6.58494C1.5807 6.62129 1.61705 6.71216 1.5807 6.78486C1.56859 6.81515 1.5383 6.83938 1.50801 6.85755L1.18694 6.98477C1.02943 7.04535 0.956739 7.22102 1.01732 7.37853C1.02338 7.38459 1.02338 7.3967 1.02943 7.40276C1.38685 8.19029 2.1138 8.75368 2.96797 8.90512C3.04672 8.93541 3.08912 9.02022 3.05883 9.09898C3.04066 9.14138 3.01037 9.17167 2.96797 9.18984C2.14409 9.52909 1.25963 9.69871 0.369122 9.69265C0.199501 9.6563 0.0419953 9.76535 0.0056478 9.93497C-0.0306997 10.1046 0.0783427 10.2621 0.247964 10.2984C1.79273 11.0314 3.47077 11.4313 5.1791 11.4676C6.68146 11.4918 8.15354 11.0678 9.41964 10.256C11.5278 8.84454 12.7939 6.4759 12.7878 3.93764V3.4106C12.7878 3.31973 12.8302 3.23492 12.8969 3.1804L13.8904 2.35047Z" fill="#EAF0CE"/>
</svg>
