<svg width="24" height="24" viewBox="0 0 24 24" fill="none" xmlns="http://www.w3.org/2000/svg">
<path d="M12.3858 1.1434L13.6595 3.7234C13.7349 3.87597 13.8789 3.98055 14.0469 4.00455L16.8943 4.41769C17.316 4.4794 17.484 4.99712 17.1789 5.2954L15.1183 7.30455C14.9966 7.42283 14.9418 7.59255 14.9709 7.76055L15.4578 10.596C15.5298 11.016 15.0892 11.3365 14.712 11.1377L12.1663 9.79883C12.0172 9.71997 11.8372 9.71997 11.688 9.79883L9.14233 11.1377C8.76519 11.3365 8.32462 11.016 8.39662 10.596L8.88348 7.76055C8.91262 7.59426 8.85605 7.42283 8.73605 7.30455L6.67033 5.2954C6.36519 4.99712 6.53319 4.4794 6.9549 4.41769L9.80233 4.00455C9.97033 3.98055 10.1143 3.87426 10.1898 3.7234L11.4635 1.1434C11.652 0.761118 12.1972 0.761118 12.3858 1.1434Z" fill="#008482"/>
<path d="M6.30005 13.1623L7.54633 15.6892C7.62176 15.8417 7.76576 15.9463 7.93376 15.9703L10.7212 16.3749C11.1429 16.4366 11.3109 16.9543 11.0058 17.2526L8.98976 19.2172C8.86805 19.3354 8.81319 19.5052 8.84233 19.6732L9.31891 22.4503C9.39091 22.8703 8.95033 23.1909 8.57319 22.992L6.07891 21.6806C5.92976 21.6017 5.74976 21.6017 5.60062 21.6806L3.10633 22.992C2.72919 23.1909 2.28862 22.8703 2.36062 22.4503L2.83719 19.6732C2.86633 19.5069 2.80976 19.3354 2.68976 19.2172L0.670334 17.2509C0.365191 16.9526 0.533191 16.4349 0.954905 16.3732L3.74233 15.9686C3.91033 15.9446 4.05433 15.8383 4.12976 15.6874L5.37605 13.1606C5.56633 12.78 6.11148 12.78 6.30005 13.1623Z" fill="#008482"/>
<path d="M18.4714 13.1623L19.7177 15.6892C19.7931 15.8417 19.9371 15.9463 20.1051 15.9703L22.8926 16.3749C23.3143 16.4366 23.4823 16.9543 23.1771 17.2526L21.1594 19.2189C21.0377 19.3372 20.9829 19.5069 21.012 19.6749L21.4886 22.452C21.5606 22.872 21.12 23.1926 20.7429 22.9937L18.2486 21.6823C18.0994 21.6034 17.9194 21.6034 17.7703 21.6823L15.276 22.9937C14.8989 23.1926 14.4583 22.872 14.5303 22.452L15.0069 19.6749C15.036 19.5086 14.9794 19.3372 14.8594 19.2189L12.8417 17.2509C12.5366 16.9526 12.7046 16.4349 13.1263 16.3732L15.9137 15.9686C16.0817 15.9446 16.2257 15.8383 16.3011 15.6874L17.5474 13.1606C17.7377 12.78 18.2829 12.78 18.4714 13.1623Z" fill="#008482"/>
</svg>
