<svg width="28" height="28" viewBox="0 0 28 28" fill="none" xmlns="http://www.w3.org/2000/svg">
<g clip-path="url(#clip0)">
<path d="M17.6059 14.2769C17.4526 14.1236 17.4526 13.8762 17.6059 13.7229L27.3112 4.01755C28.2309 3.09784 28.2309 1.60802 27.3112 0.691005C26.3915 -0.228703 24.9017 -0.228703 23.9846 0.691005L14.2766 10.3937C14.1233 10.5469 13.8759 10.5469 13.7226 10.3937L4.01731 0.688316C3.0976 -0.231392 1.60778 -0.231392 0.690761 0.688316C-0.228947 1.60802 -0.228947 3.09784 0.690761 4.01486L10.3961 13.7202C10.5494 13.8735 10.5494 14.1209 10.3961 14.2742L0.688072 23.9822C-0.231636 24.9019 -0.231636 26.3917 0.688072 27.3088C1.60778 28.2285 3.0976 28.2285 4.01462 27.3088L13.72 17.6034C13.8732 17.4501 14.1206 17.4501 14.2739 17.6034L23.9793 27.3088C24.899 28.2285 26.3888 28.2285 27.3058 27.3088C28.2255 26.389 28.2255 24.8992 27.3058 23.9822L17.6059 14.2769Z" fill="white"/>
</g>
<defs>
<clipPath id="clip0">
<rect width="28" height="28" fill="white"/>
</clipPath>
</defs>
</svg>
