<svg width="24" height="24" viewBox="0 0 24 24" fill="none" xmlns="http://www.w3.org/2000/svg">
<path d="M19.9 14.5944L9.06 18.3444C8.8 18.4344 8.66 18.7144 8.75 18.9844L9.74 21.8544C9.85 22.1644 10.18 22.3244 10.49 22.2144L13.62 21.1344C16.55 20.1244 19.03 18.1044 20.61 15.4444C20.76 15.1544 20.66 14.8044 20.37 14.6444C20.23 14.5544 20.06 14.5444 19.9 14.5944Z" fill="#eaf0ce"/>
<path d="M7.49001 19.9345C7.40001 19.6745 7.11001 19.5345 6.85001 19.6245L2.2 21.2445C1.64 21.4245 1.33 22.0345 1.52 22.5945C1.7 23.1545 2.31 23.4645 2.87 23.2745C2.88 23.2745 2.89 23.2645 2.9 23.2645L7.56001 21.6545C7.82001 21.5645 7.96001 21.2845 7.87001 21.0145L7.49001 19.9345Z" fill="#eaf0ce"/>
<path d="M22.5 0.514404H8C7.17 0.514404 6.5 1.1844 6.5 2.0144V4.6144C6.5 4.8944 6.28 5.1144 6 5.1144C5.96 5.1144 5.92 5.11441 5.89 5.1044C4.78 4.8144 3.64 4.6144 2.5 4.5144C1.12 4.5144 0 5.63441 0 7.01441C0 8.39441 1.12 9.51441 2.5 9.51441C3.64 9.3744 4.77 9.17441 5.89 8.89441C6.16 8.8344 6.43 9.00441 6.49 9.27441C6.5 9.30441 6.5 9.34441 6.5 9.38441V12.0144C6.5 12.8444 7.17 13.5144 8 13.5144H22.5C23.33 13.5144 24 12.8444 24 12.0144V2.0144C24 1.1844 23.33 0.514404 22.5 0.514404ZM2.5 8.01441C1.95 8.01441 1.5 7.5644 1.5 7.01441C1.5 6.46441 1.95 6.0144 2.5 6.0144C3.05 6.0144 3.5 6.46441 3.5 7.01441C3.5 7.5644 3.05 8.01441 2.5 8.01441Z" fill="#eaf0ce"/>
</svg>
