<svg width="24" height="24" viewBox="0 0 24 24" fill="none" xmlns="http://www.w3.org/2000/svg">
<g clip-path="url(#clip0)">
<path d="M19.6513 6.24567H18.4034C18.1238 6.24567 17.9042 6.02583 17.9042 5.74602V4.49688C17.9042 4.21708 18.1238 3.99723 18.4034 3.99723H19.1521C19.5614 3.99723 19.9008 3.65746 19.9008 3.24775C19.9008 2.83803 19.5614 2.49827 19.1521 2.49827H15.069C14.8394 2.49827 14.6397 2.33838 14.5798 2.10854C14.2304 0.629558 12.7529 -0.279813 11.2754 0.069945C10.2671 0.309779 9.47839 1.09923 9.23879 2.11853C9.18888 2.33838 8.98921 2.49827 8.7596 2.49827H4.67647C4.26716 2.49827 3.92773 2.83803 3.92773 3.24775C3.92773 3.65746 4.26716 3.99723 4.67647 3.99723H5.42521C5.70474 3.99723 5.92437 4.21708 5.92437 4.49688V5.74602C5.92437 6.02583 5.70474 6.24567 5.42521 6.24567H4.17731C3.768 6.24567 3.42857 6.58544 3.42857 6.99516C3.42857 7.40487 3.768 7.74464 4.17731 7.74464H5.42521C5.70474 7.74464 5.92437 7.96449 5.92437 8.24429V12.4914C5.92437 15.0696 7.2122 15.9889 8.42017 15.9889H15.4084C16.6164 15.9889 17.9042 15.0696 17.9042 12.4914V8.24429C17.9042 7.96449 18.1238 7.74464 18.4034 7.74464H19.6513C20.0606 7.74464 20.4 7.41487 20.4 6.99516C20.4 6.57545 20.0606 6.24567 19.6513 6.24567ZM12.9925 2.37835C12.9525 2.4483 12.8727 2.49827 12.7828 2.49827H11.0458C10.906 2.49827 10.7962 2.38834 10.7962 2.24844C10.7962 2.20847 10.8062 2.1585 10.8261 2.12852C11.1655 1.52894 11.9343 1.32907 12.5332 1.66884C12.7229 1.77876 12.8827 1.93865 12.9925 2.12852C13.0424 2.19847 13.0424 2.2984 12.9925 2.37835Z" fill="#008482"/>
<path d="M5.00592 18.7269C4.31708 19.5963 3.85785 20.6356 3.67815 21.7349C3.63822 22.934 4.57664 23.9433 5.77462 23.9833C5.82454 23.9833 5.87446 23.9833 5.92437 23.9833C7.12236 24.0233 8.13066 23.0839 8.17059 21.8848C8.17059 21.8348 8.17059 21.7848 8.17059 21.7349C7.99089 20.6356 7.54165 19.5963 6.84283 18.7269C6.48343 18.2173 5.77462 18.0974 5.26548 18.4571C5.16565 18.5371 5.0758 18.627 5.00592 18.7269Z" fill="#008482"/>
<path d="M10.9459 18.0275C10.1473 19.0268 9.62813 20.216 9.41849 21.4851C9.36857 22.8242 10.4168 23.9434 11.7546 23.9933C11.8145 23.9933 11.8644 23.9933 11.9243 23.9933C13.262 24.0433 14.3801 22.994 14.43 21.655C14.43 21.595 14.43 21.545 14.43 21.4851C14.2204 20.2259 13.7013 19.0368 12.9026 18.0275C12.5133 17.4878 11.7645 17.3679 11.2354 17.7477C11.1056 17.8276 11.0158 17.9175 10.9459 18.0275Z" fill="#008482"/>
<path d="M16.9858 18.7269C16.2969 19.5963 15.8377 20.6356 15.658 21.7349C15.658 22.974 16.6663 23.9833 17.9042 23.9833C19.1421 23.9833 20.1504 22.974 20.1504 21.7349C19.9707 20.6356 19.5215 19.5963 18.8227 18.7269C18.4633 18.2173 17.7545 18.0974 17.2453 18.4571C17.1455 18.5371 17.0556 18.627 16.9858 18.7269Z" fill="#008482"/>
</g>
<defs>
<clipPath id="clip0">
<rect width="24" height="24" fill="white"/>
</clipPath>
</defs>
</svg>
