<svg width="8" height="14" viewBox="0 0 8 14" fill="none" xmlns="http://www.w3.org/2000/svg">
<path d="M7.665 4.1825C7.6125 4.11833 7.53083 4.08333 7.44917 4.08333H5.25V3.26083C5.25 3.0975 5.285 2.91083 5.5475 2.91083H7.2975C7.37333 2.91667 7.44917 2.88167 7.50167 2.82333C7.55417 2.77083 7.58333 2.70083 7.58333 2.625V0.291667C7.58333 0.128333 7.455 0 7.29167 0H4.76583C1.96583 0 1.75 2.39167 1.75 3.12083V4.08333H0.291667C0.128333 4.08333 0 4.21167 0 4.375V6.70833C0 6.87167 0.128333 7 0.291667 7H1.75V13.7083C1.75 13.8717 1.87833 14 2.04167 14H4.95833C5.12167 14 5.25 13.8717 5.25 13.7083V7H7.20417C7.35583 7 7.47833 6.88917 7.49583 6.7375L7.74083 4.40417C7.74667 4.3225 7.7175 4.24083 7.665 4.1825Z" fill="#EAF0CE"/>
</svg>
