<svg width="24" height="24" viewBox="0 0 24 24" fill="none" xmlns="http://www.w3.org/2000/svg">
<path d="M12.3857 1.1434L13.6594 3.7234C13.7348 3.87597 13.8788 3.98055 14.0468 4.00455L16.8943 4.41769C17.316 4.4794 17.484 4.99712 17.1788 5.2954L15.1183 7.30455C14.9966 7.42283 14.9417 7.59255 14.9708 7.76055L15.4577 10.596C15.5297 11.016 15.0891 11.3365 14.712 11.1377L12.1663 9.79883C12.0171 9.71997 11.8371 9.71997 11.688 9.79883L9.14227 11.1377C8.76513 11.3365 8.32456 11.016 8.39656 10.596L8.88341 7.76055C8.91256 7.59426 8.85599 7.42283 8.73599 7.30455L6.67027 5.2954C6.36513 4.99712 6.53313 4.4794 6.95484 4.41769L9.80227 4.00455C9.97027 3.98055 10.1143 3.87426 10.1897 3.7234L11.4634 1.1434C11.652 0.761118 12.1971 0.761118 12.3857 1.1434Z" fill="#eaf0ce"/>
<path d="M6.29999 13.1622L7.54627 15.689C7.6217 15.8416 7.7657 15.9462 7.9337 15.9702L10.7211 16.3747C11.1428 16.4365 11.3108 16.9542 11.0057 17.2525L8.9897 19.217C8.86799 19.3353 8.81313 19.505 8.84227 19.673L9.31884 22.4502C9.39084 22.8702 8.95027 23.1907 8.57313 22.9919L6.07884 21.6805C5.9297 21.6016 5.7497 21.6016 5.60056 21.6805L3.10627 22.9919C2.72913 23.1907 2.28856 22.8702 2.36056 22.4502L2.83713 19.673C2.86627 19.5067 2.8097 19.3353 2.6897 19.217L0.670273 17.2507C0.36513 16.9525 0.53313 16.4347 0.954844 16.373L3.74227 15.9685C3.91027 15.9445 4.05427 15.8382 4.1297 15.6873L5.37599 13.1605C5.56627 12.7799 6.11142 12.7799 6.29999 13.1622Z" fill="white"/>
<path d="M18.4714 13.1622L19.7177 15.689C19.7931 15.8416 19.9371 15.9462 20.1051 15.9702L22.8926 16.3747C23.3143 16.4365 23.4823 16.9542 23.1771 17.2525L21.1594 19.2187C21.0377 19.337 20.9828 19.5067 21.012 19.6747L21.4886 22.4519C21.5606 22.8719 21.12 23.1925 20.7428 22.9936L18.2486 21.6822C18.0994 21.6033 17.9194 21.6033 17.7703 21.6822L15.276 22.9936C14.8988 23.1925 14.4583 22.8719 14.5303 22.4519L15.0068 19.6747C15.036 19.5085 14.9794 19.337 14.8594 19.2187L12.8417 17.2507C12.5366 16.9525 12.7046 16.4347 13.1263 16.373L15.9137 15.9685C16.0817 15.9445 16.2257 15.8382 16.3011 15.6873L17.5474 13.1605C17.7377 12.7799 18.2828 12.7799 18.4714 13.1622Z" fill="white"/>
</svg>
