<svg width="14" height="14" viewBox="0 0 14 14" fill="none" xmlns="http://www.w3.org/2000/svg">
<path d="M10.2083 0H3.79167C1.6975 0.00583333 0.00583333 1.6975 0 3.79167V10.2083C0.00583333 12.3025 1.6975 13.9942 3.79167 14H10.2083C12.3025 13.9942 13.9942 12.3025 14 10.2083V3.79167C13.9942 1.6975 12.3025 0.00583333 10.2083 0ZM7 10.2083C5.22667 10.2083 3.79167 8.77333 3.79167 7C3.79167 5.22667 5.22667 3.79167 7 3.79167C8.77333 3.79167 10.2083 5.22667 10.2083 7C10.2083 8.77333 8.77333 10.2083 7 10.2083ZM10.7917 3.79167C10.3075 3.79167 9.91667 3.40083 9.91667 2.91667C9.91667 2.4325 10.3075 2.04167 10.7917 2.04167C11.2758 2.04167 11.6667 2.4325 11.6667 2.91667C11.6667 3.40083 11.2758 3.79167 10.7917 3.79167Z" fill="#EAF0CE"/>
</svg>
