<svg width="1540" height="25" viewBox="0 0 1540 25" fill="none" xmlns="http://www.w3.org/2000/svg">
<path fill-rule="evenodd" clip-rule="evenodd" d="M1538.81 15.5654C1537.94 15.6187 1526.71 15.6187 1526.71 15.6187C1526.77 15.0323 1523.46 15.5654 1523.19 15.8319C1522.64 16.365 1522.32 16.3116 1521.18 16.3116C1519.66 16.3116 1518.14 16.2583 1516.62 16.205C1515.54 16.205 1515.86 16.6848 1515.11 16.6848C1513.75 16.6315 1512.39 16.6315 1511.09 16.6315C1510.33 16.6315 1503.99 16.3116 1504.04 16.7914C1504.1 17.3777 1500.95 16.5249 1500.52 16.4716C1498.4 16.205 1496.88 16.7381 1495.47 16.898C1495.53 16.898 1495.63 16.365 1495.25 16.365C1494.6 16.365 1495.25 16.7914 1494.98 16.8447C1493.84 17.1645 1492.05 16.7914 1490.97 16.7914C1489.61 16.7381 1488.26 16.7381 1486.9 16.7381C1486.14 16.7381 1486.52 16.205 1485.38 16.205C1485.22 16.205 1485.65 16.7381 1485.17 16.7381C1484.73 16.6848 1484.3 16.6848 1483.86 16.6848C1482.78 16.6848 1483.27 17.0046 1482.83 17.1645C1481.21 17.8042 1478.06 17.0579 1476.27 17.0579C1475.51 17.0579 1475.89 17.5377 1474.75 17.5377C1474.05 17.5377 1474.48 16.9513 1474.05 17.0046C1471.93 17.1645 1469.82 16.8447 1467.7 16.898C1466.78 18.1773 1465.64 17.4844 1463.63 17.8042C1462.88 17.9108 1462.82 18.2839 1461.57 18.2839C1460.33 18.2839 1459.02 18.1773 1457.78 18.2306C1457.67 18.2306 1456.8 17.6976 1456.04 17.6976C1454.69 17.6443 1454.09 17.5377 1453.49 18.124C1453.06 18.4971 1449.91 18.0707 1449.48 18.0707C1449.04 18.0707 1448.61 18.0707 1448.18 18.0707C1447.58 18.0707 1448.23 17.6443 1447.96 17.591C1447.47 17.431 1446.71 17.5377 1446.17 17.5377C1445.57 17.4844 1446.22 17.9641 1445.95 18.0707C1445.14 18.3372 1443.78 18.0174 1442.92 18.0174C1441.67 17.9641 1442.1 18.3905 1440.91 18.4971C1439.23 18.6038 1437.55 18.4438 1435.87 18.3905C1434.83 18.3905 1433.86 18.3372 1432.83 18.3372C1431.63 18.2839 1432.77 18.3905 1432.29 18.817C1431.69 19.4033 1431.31 18.3372 1431.31 18.2839C1431.09 18.1773 1430.39 18.7637 1429.79 18.7637C1428.98 18.7637 1429.41 18.2306 1428.27 18.2306C1428.11 18.2306 1428.54 18.817 1428 18.7104C1427.57 18.6571 1427.19 18.6571 1426.75 18.6571C1425.72 18.6571 1424.75 18.6038 1423.72 18.6038C1422.58 18.6038 1421.38 18.5505 1420.19 18.5505C1419.76 18.5505 1418.94 19.0302 1419.16 19.0302C1417.97 18.9769 1418.35 18.6571 1417.15 18.4971C1416.07 18.3372 1414.93 18.4971 1413.85 18.4438C1413.57 18.4438 1412.6 19.35 1411.57 18.9236C1411.3 18.817 1411.73 18.5505 1411.08 18.3905C1410.59 18.2839 1410.05 18.3905 1409.56 18.3905C1408.96 18.3372 1408.1 18.2306 1407.55 18.3372C1407.34 18.3905 1407.88 18.8703 1407.34 18.8703C1406.85 18.817 1406.31 18.817 1405.82 18.8703C1405.22 18.8703 1405.82 18.4438 1405.6 18.3372C1405.06 18.1773 1404.35 18.3372 1403.81 18.2839C1403.16 18.2306 1403.87 18.6571 1403.54 18.817C1402.73 19.1368 1400.94 18.7637 1400.01 18.7637C1399.58 18.0707 1398.93 18.4438 1398.5 17.7509C1397.52 17.7509 1394.92 18.4971 1394.43 19.1901C1392.42 19.1368 1390.41 19.1368 1388.35 19.0835C1386.73 19.0302 1385.97 18.4971 1384.83 18.4971C1385.15 18.4971 1384.5 18.9769 1384.29 18.9769C1383.85 19.0835 1383.2 18.9769 1382.77 18.9769C1382.12 18.9769 1381.41 18.9769 1380.76 18.9236C1379.57 18.8703 1380.71 18.9769 1380.27 19.4033C1379.57 20.043 1378.86 18.9236 1378.75 18.8703C1378.27 18.5505 1376.37 18.817 1375.72 18.817C1374.9 18.817 1371.59 20.2029 1370.67 19.2434C1370.13 18.7104 1369.59 18.7637 1368.39 18.7104C1367.74 18.6571 1368.61 19.2434 1367.64 19.1901C1367.15 19.1901 1366.6 19.1901 1366.12 19.1368C1363.57 19.0835 1362.37 19.5632 1359.55 19.5099C1356.46 19.4566 1353.32 19.2967 1350.23 19.35C1350.17 19.35 1349.09 18.1773 1348.49 18.817C1347.89 19.4033 1347.73 19.0835 1346.48 19.2967C1345.51 19.4566 1345.07 19.7232 1344.48 19.7765C1343.23 19.8298 1343.72 19.1901 1342.47 19.2434C1342.63 19.2434 1341.98 19.7232 1341.44 19.7232C1340.25 19.7232 1339.11 19.6699 1337.91 19.6699C1336.77 19.6699 1335.53 19.5099 1334.39 19.6166C1333.68 19.6699 1334.17 19.9897 1333.85 20.0963C1332.27 20.736 1328.96 19.9897 1327.28 19.9897C1326.04 19.9364 1325.82 20.4694 1324.25 20.4161C1323.76 20.4161 1319.15 20.0963 1319.2 20.576C1319.26 21.0025 1317.57 20.7893 1317.2 20.7893C1316.44 20.7893 1316.98 20.3628 1316.71 20.3095C1315.41 19.8298 1315.3 20.7893 1314.16 20.736C1313.4 20.736 1312.64 20.6826 1311.88 20.6826C1311.28 20.736 1312.04 20.1496 1311.39 20.1496C1310.85 20.1496 1311.39 20.6293 1310.63 20.6293C1310.31 20.6293 1308.84 20.3628 1308.63 20.576C1308.14 21.0558 1308.19 21.0558 1307.11 21.0558C1306.24 21.0558 1305.43 21.0025 1304.61 21.0025C1302.61 20.9492 1301.41 21.3223 1300.06 21.4289C1297.72 21.6421 1295.34 21.269 1293.01 21.3223C1292.14 21.3223 1292.9 21.8021 1291.97 21.8021C1290.78 21.8021 1289.64 21.7487 1288.45 21.7487C1287.69 21.7487 1286.93 21.6421 1286.17 21.6954C1285.58 21.7487 1286.33 21.1091 1285.68 21.1624C1284.65 21.2157 1284.38 21.6421 1282.92 21.6421C1281.34 21.5888 1281.13 21.1091 1279.88 21.0558C1280.21 21.0558 1278.74 21.5355 1278.36 21.5355C1277.6 21.5888 1276.79 21.5355 1276.08 21.4822C1275.98 21.4822 1275.11 21.962 1274.35 21.962C1272.83 21.9087 1271.31 21.9087 1269.79 21.8554C1267.51 21.8021 1267.08 21.4289 1265.24 21.269C1263.55 21.1624 1262.8 21.8021 1261.71 21.6954C1261.55 21.6954 1262.04 21.1624 1261.49 21.1624C1261.11 21.2157 1260.57 21.2157 1260.25 21.1624C1259.38 20.9492 1259.32 21.0025 1258.73 20.6293C1258.51 20.8959 1257.75 21.6421 1257.48 21.6421C1255.85 21.5355 1254.28 21.5888 1252.65 21.5355C1250.16 21.4822 1248.86 22.3351 1246.09 21.9087C1245.71 21.8554 1244.36 21.6954 1244.08 21.3756C1243.7 21.0025 1244.19 21.1624 1243.6 20.8959C1243.54 20.9492 1242.94 21.4289 1243.11 21.3756C1242.19 21.7487 1241.81 21.8554 1240.56 21.8021C1239.31 21.8021 1239.8 21.269 1238.55 21.269C1238.82 21.269 1237.47 21.7487 1237.03 21.7487C1236.71 21.7487 1234.7 21.962 1234.54 21.6954C1234.43 21.5355 1233.62 20.576 1233.02 21.1624C1232.21 21.9087 1233.07 21.2157 1232.53 21.1624C1232.15 21.1091 1230.25 20.8426 1230.04 21.1091C1229.28 21.8554 1230.09 21.1624 1229.55 21.1091C1227.6 20.9492 1227.22 21.0558 1226.51 22.0686C1225.48 22.0686 1224.45 22.1219 1223.47 22.0153C1223.8 22.0686 1222.93 20.8426 1222.99 21.7487C1223.04 22.2285 1222.33 22.0153 1221.96 22.0153C1221.2 22.0153 1220.17 21.8021 1219.46 21.962C1219.24 22.0153 1218.7 22.4417 1218.92 22.4417C1218.21 22.4417 1217.02 21.3223 1216.42 21.9087C1215.83 22.495 1215.23 22.3884 1213.87 22.3351C1210.24 22.2818 1206.66 22.2818 1203.79 21.6421C1203.62 21.9087 1203.35 22.0153 1203.24 22.1219C1202.7 22.8682 1201.67 22.8148 1201.24 22.0686C1200.53 22.0686 1199.45 22.2285 1198.74 22.0153C1198.04 21.8554 1198.63 21.7487 1198.25 21.4822C1197.71 21.1091 1197.66 21.0025 1196.74 20.9492C1196.41 21.4289 1195.7 21.962 1194.95 21.9087C1194.57 21.8554 1194.73 22.1219 1194.67 22.4417C1194.67 23.4012 1193.43 22.9215 1192.67 22.9215C1191.47 22.9215 1190.28 22.8681 1189.14 22.8681C1188.38 22.8681 1185.94 22.0153 1185.62 22.3351C1185.13 22.7615 1185.18 22.8148 1184.1 22.8148C1183.5 22.8148 1183.01 23.2946 1183.07 23.2946C1182.04 23.3479 1181.11 22.7615 1179.54 22.7082C1179.27 22.7082 1177.59 23.8809 1176.99 23.188C1175.91 21.8021 1172.93 23.6144 1171.46 23.5611C1170.76 22.495 1168.64 23.5611 1167.94 22.495C1167.28 22.7082 1166.15 23.4012 1165.39 23.4545C1164.52 23.5078 1162.51 22.2818 1161.86 22.9215C1161.32 23.4545 1161.59 23.2946 1160.34 23.4012C1159.2 23.4545 1157.96 23.3479 1156.82 23.3479C1155.3 23.3479 1153.78 23.2946 1152.26 23.2946C1151.18 23.2946 1151.66 22.9748 1151.28 22.7615C1149.22 21.8554 1144.94 22.6549 1142.72 22.6016C1141.63 22.6016 1141.96 23.0814 1141.2 23.0814C1140.17 23.0814 1139.19 23.0281 1138.16 23.0281C1134.31 22.9748 1130.4 22.8682 1126.55 22.8148C1125.36 22.8148 1124.22 22.7615 1123.03 22.7615C1122.16 22.7615 1122.97 22.2818 1122.05 22.2818C1120.8 22.2285 1120.21 22.7615 1118.53 22.7082C1117.39 22.7082 1117.82 22.2285 1117.01 22.1752C1115.92 22.1219 1116.41 22.495 1115.98 22.6549C1114.89 23.0814 1114.78 22.3351 1114.46 22.1219C1114.08 21.8554 1112.89 22.0686 1112.45 22.0686C1111.53 22.0686 1112.34 22.6016 1111.42 22.5483C1111.64 22.5483 1110.93 22.0153 1110.44 22.0153C1105.83 21.9087 1102.69 22.3884 1097.81 22.2818C1094.72 22.2285 1087.94 21.1624 1085.66 22.5483C1085.22 21.8554 1084.57 21.3223 1084.14 22.0153C1082.68 21.962 1083 21.4822 1082.13 21.4822C1082.3 21.4822 1081.97 21.962 1081.64 21.962C1081.16 21.962 1080.61 21.962 1080.13 21.9087C1079.42 22.9748 1073.56 22.0153 1073.56 22.0686C1073.62 22.4417 1070.47 22.495 1070.53 22.0153C1070.63 21.1624 1067.65 22.2285 1067.49 22.2285C1067.71 22.2285 1067.22 21.8021 1067 21.7487C1066.62 21.6421 1066.13 21.7487 1065.75 21.6954C1065.48 21.6954 1065.32 22.1752 1064.51 22.1752C1062.82 22.1219 1060.98 21.962 1059.95 22.6016C1059.57 22.0686 1057.24 21.5355 1056.42 21.5355C1055.23 21.5355 1055.07 22.0153 1054.36 22.0153C1053.93 22.0153 1053.5 22.0153 1053.12 21.962C1052.52 21.9087 1053.12 22.3884 1052.84 22.4417C1051.76 22.7615 1050.73 22.2818 1050.35 21.9087C1049.7 21.2157 1048.83 22.3884 1048.83 22.3884C1047.64 22.8681 1047.48 21.8554 1046.82 21.8554C1046.12 21.8554 1046.34 22.2818 1045.31 22.3351C1045.74 22.3351 1044.22 21.0025 1044.33 22.0686C1044.33 22.6016 1043.19 22.2818 1042.81 22.2818C1042.11 21.2157 1041.18 21.269 1039.29 21.2157C1038.85 21.8554 1038.2 21.5355 1037.77 22.1752C1036.52 22.1219 1037.01 21.6421 1035.76 21.6421C1035.27 21.6421 1034.19 21.4289 1033.75 21.5888C1033.48 21.6954 1034.13 22.1752 1033.48 22.0686C1032.4 21.962 1031.26 22.0153 1030.17 22.0153C1029.52 22.0153 1029.36 21.4822 1028.17 21.4822C1027.41 21.4822 1027.73 21.962 1026.65 21.962C1024.97 21.962 1023.29 21.9087 1021.6 21.8554C1019.11 21.8021 1016.78 22.0686 1015.04 22.2285C1015.26 22.2285 1014.93 21.269 1014.55 21.7487C1014.17 22.1752 1014.55 22.3351 1013.52 22.2285C1012.38 22.0686 1012.71 21.6954 1011.52 21.6954C1011.79 21.6954 1011.19 22.1219 1011.03 22.1752C1010.59 22.2818 1009.94 22.1752 1009.51 22.1752C1008.15 22.1219 1006.8 22.0686 1005.5 22.1219C1005.39 22.1219 1005.71 22.6549 1005.22 22.6016C1004.68 22.6016 1005.17 22.1219 1005.01 22.0686C1004.19 21.9087 1002.78 21.8554 1001.97 22.0153C1000.72 22.2818 1001.32 22.0153 999.476 21.962C996.222 21.9087 994.052 22.8148 991.937 21.3223C991.015 22.6549 986.73 22.7082 985.862 21.2157C985.103 21.269 983.801 21.6954 982.337 21.6421C981.252 21.5888 981.74 21.9087 981.307 22.1219C981.469 22.0686 979.571 22.495 980.276 22.6016C978.92 22.3884 977.673 22.0686 975.72 22.0153C973.225 21.962 972.791 22.4417 970.676 22.4417C970.134 23.2413 970.513 22.6549 969.646 22.4417C968.398 22.1219 967.693 22.7615 967.151 21.9087C966.825 22.0153 964.819 23.5611 964.113 22.8681C963.951 22.7082 963.897 22.6016 963.897 22.495C963.897 22.5483 963.788 22.7082 963.625 22.8148C963.354 23.0814 961.51 22.7615 961.076 22.7615C958.364 22.7615 955.707 22.6549 952.995 22.6016C950.771 22.5483 947.897 22.8148 946.432 21.962C945.944 21.6954 946.541 21.5355 945.456 21.4289C945.293 21.6954 945.022 21.8021 944.914 21.9087C944.209 22.9215 942.093 21.8021 941.388 22.8148C940.195 22.8148 940.358 22.2818 938.893 22.2818C937.809 22.2818 937.483 22.1752 936.887 21.7487C936.29 22.6016 934.934 22.3351 934.338 23.188C933.09 23.188 933.578 22.6549 932.331 22.6549C931.138 22.6549 929.999 22.6016 928.805 22.6016C925.768 22.5483 922.731 22.495 919.748 22.4417C919.043 22.4417 918.88 22.9215 917.687 22.9215C916.927 22.9215 917.307 22.4417 916.168 22.3884C915.192 22.3884 914.107 22.1752 913.131 22.3351C912.372 22.4417 912.751 22.8148 911.612 22.8148C911.775 22.8148 911.504 22.3351 911.124 22.2818C910.636 22.2285 910.094 22.2818 909.606 22.2818C907.924 22.1752 906.243 22.2285 904.561 22.1752C902.392 22.1219 900.168 22.0686 897.999 22.0686C897.348 22.0686 894.419 22.4417 893.931 22.0153C893.389 21.4822 893.172 21.5355 891.924 21.4822C891.599 21.4822 889.646 21.2157 889.429 21.4289C888.562 22.4417 885.036 21.8554 883.355 21.8021C882.053 21.8021 880.046 22.9748 878.311 22.2285C878.04 22.1219 878.69 21.6421 878.094 21.6954C877.768 21.7487 877.063 21.8021 876.792 21.6954C876.792 21.6954 876.413 20.6293 875.816 21.1624C875.274 21.6421 875.545 21.6421 874.297 21.6421C872.779 21.5888 871.26 21.5888 869.741 21.5888C868.223 21.5355 866.704 21.5355 865.186 21.4822C864.426 21.4822 864.806 21.0025 863.667 20.9492C863.992 20.9492 862.582 21.4289 862.148 21.4289C861.335 21.4289 860.467 21.3756 859.653 21.3756C857.375 21.3223 856.942 21.5355 856.128 20.3095C854.609 20.2562 854.121 20.3095 853.091 20.736C852.765 20.8959 853.308 21.2157 852.603 21.2157C852.114 21.2157 851.03 21.3756 850.596 21.1624C850.27 21.0025 850.867 20.6293 850.108 20.6293C849.348 20.6293 849.891 21.0025 849.62 21.1091C848.481 21.5888 848.209 20.6826 847.613 20.576C845.877 20.2562 843.816 20.5227 842.081 20.4694C841.05 20.4694 840.074 20.4161 839.043 20.4161C838.338 20.4161 838.772 19.9897 838.555 19.9364C837.471 19.6166 836.494 20.4161 836.277 20.4161C834.704 20.2029 833.077 20.3628 831.505 20.3095C831.83 20.3095 830.962 19.1368 831.016 20.043C831.016 20.5227 830.366 20.3095 829.986 20.3095C828.25 20.2562 828.359 19.7765 826.461 19.7232C825.755 19.7232 825.484 19.9364 825.484 19.1901C825.484 18.4971 824.345 18.2839 823.966 18.6571C822.881 19.6166 823.477 19.6699 822.338 19.6699C821.471 19.6699 820.657 19.6166 819.844 19.6166C819.084 20.736 816.644 19.9897 815.776 19.5632C815.233 20.3628 814.583 20.5227 813.227 20.5227C812.359 20.5227 811.545 20.5227 810.678 20.4694C810.081 20.4694 809.593 19.9364 809.701 19.9364C808.454 19.8298 808.942 20.5227 807.695 20.4161C807.803 20.4161 807.315 19.9364 806.718 19.8831C806.339 19.8831 805.145 19.6166 805.2 20.0963C805.254 20.5227 801.512 20.2562 800.915 20.2562C800.698 20.2562 800.373 19.7765 799.667 19.7232C798.529 19.6166 797.281 19.8298 796.142 19.6699C795.6 19.5632 794.135 18.6571 793.647 19.1368C793.159 19.6166 793.756 19.6166 792.617 19.6166C792.291 19.6166 790.827 19.8298 790.61 19.5632C790.068 19.0302 789.742 19.5632 788.061 19.5099C784.698 19.4566 783.342 18.9769 780.468 19.35C779.871 18.3905 779.112 18.3372 777.485 18.2839C776.997 19.0302 777.159 18.5505 775.966 18.7637C775.858 18.7637 774.502 19.2434 774.936 19.2434C773.797 19.2967 774.23 18.8703 773.417 18.7104C772.603 18.5505 771.681 18.6571 770.868 18.6571C769.186 18.6571 768.915 19.1901 768.373 18.6038C767.776 18.0174 763.654 18.5505 762.841 18.4971C762.081 18.4971 762.624 18.9769 762.081 18.9769C761.81 18.9769 761.647 18.4971 760.834 18.4438C760.78 18.4438 761.051 18.9769 760.563 18.9769C760.129 18.9769 760.346 18.4438 760.346 18.4438C758.556 18.4971 758.285 18.7104 756.82 18.3905C756.332 18.2839 753.729 18.6038 753.783 18.124C753.946 17.0579 752.59 18.4438 752.753 18.3372C752.427 18.5505 750.637 18.4438 750.746 18.0707C750.8 17.591 748.848 17.8042 748.468 17.8042C747.817 17.7509 748.685 18.3372 747.709 18.2839C747.275 18.2839 746.841 18.2306 746.461 18.2839C746.19 18.2839 746.027 17.7509 745.214 17.7509C744.021 17.7509 743.858 17.2178 743.207 17.2178C742.014 17.1645 740.875 17.1645 739.682 17.1645C738.977 17.1645 738.814 17.6443 737.675 17.6443C737.241 17.6443 736.807 17.591 736.373 17.6443C735.777 17.6976 736.373 17.1645 736.156 17.1112C734.909 16.7914 731.112 17.2711 731.112 17.2711C731.275 16.6315 729.377 17.2711 729.105 17.0046C728.834 16.7381 728.834 16.365 728.617 15.9918C728.292 15.9918 726.556 16.4716 726.556 16.6848C726.611 17.0046 723.519 17.0046 723.031 16.8447C722.76 16.7914 722.922 16.365 722 16.3116C721.187 16.2583 721.838 16.5782 721.512 16.7914C720.97 17.1645 718.638 16.7914 717.987 16.7381C717.933 16.7381 718.15 16.0984 717.499 16.2583C717.282 16.3116 717.824 16.7914 717.228 16.7381C715.98 16.6848 714.678 16.6848 713.431 16.6848C711.912 16.6315 712.238 16.0451 710.936 16.6315C710.556 16.0451 710.285 15.9918 709.146 16.0984C708.821 16.1517 708.55 15.2989 708.441 15.0856C707.411 15.0856 706.923 15.5654 706.38 16.0451C706.001 16.4183 706.163 15.9385 705.892 16.5249C705.024 16.5249 704.211 16.5249 703.343 16.4716C703.017 15.9918 703.451 15.9385 702.584 15.9918C701.824 15.9918 702.638 15.0856 702.855 15.4588C702.475 14.8191 702.475 14.8724 701.879 14.446C701.824 16.2583 701.39 15.4588 700.848 16.4183C699.004 16.365 697.16 16.365 695.316 16.3116C694.611 16.3116 694.828 15.8852 693.797 15.7786C692.929 15.672 692.224 16.2583 692.007 16.2583C690.868 16.1517 691.248 16.0451 690.76 15.7253C689.513 14.8724 690.489 15.6187 689.729 16.205C688.97 16.7914 688.753 15.8319 688.211 16.6848C687.397 16.4183 685.391 15.4055 685.174 16.1517C684.794 16.1517 682.082 16.365 682.136 15.8319C682.299 14.979 681.16 15.9918 681.106 16.0451C679.208 16.0451 680.563 14.6059 679.587 15.5121C679.316 15.7786 678.502 15.0323 678.557 15.7253C678.611 16.205 674.977 15.9385 674.489 15.9385C672.157 15.8852 669.77 15.8319 667.438 15.8319C665.974 15.8319 666.136 15.2989 664.943 15.2989C665.269 15.2989 664.564 15.7786 664.401 15.7786C663.804 15.9385 662.991 15.7786 662.394 15.7253C660.713 15.672 659.031 15.672 657.35 15.6187C655.886 15.6187 656.591 14.8724 655.831 15.6187C655.615 15.8319 653.065 15.672 652.794 15.5654C652.523 15.4588 652.957 15.1922 652.306 15.0323C651.655 14.9257 650.95 15.0323 650.299 15.0323C649.594 15.0323 650.028 15.4588 649.811 15.5121C649.215 15.672 648.401 15.4588 647.804 15.4588C646.123 15.4055 644.442 15.4055 642.76 15.3522C641.513 15.2989 642.001 14.8191 640.754 14.8191C641.079 14.8191 640.374 15.2989 640.266 15.2989C639.832 15.4055 639.181 15.2989 638.747 15.2989C637.228 15.2989 635.71 15.2455 634.191 15.2455C632.51 15.1922 630.828 15.1922 629.147 15.1389C628.388 15.1389 628.767 14.6059 627.628 14.6059C626.923 14.6059 626.761 15.0856 625.622 15.0856C624.483 15.0856 624.157 15.0856 623.615 14.5526C622.693 13.5931 619.71 14.979 619.059 14.979C617.866 14.9257 617.703 14.446 617.052 14.446C616.293 14.446 616.022 14.979 615.805 14.9257C614.612 14.7658 610.218 15.5654 609.513 14.8191C608.645 13.9662 609.567 14.9257 608.754 14.8191C607.832 14.7125 606.856 14.7658 605.988 14.7658C605.066 14.1261 606.042 14.6059 605.988 14.2861C605.934 13.22 605.5 14.2328 605.012 13.753C605.012 13.5931 605.012 13.4332 605.012 13.22C604.578 12.9001 603.113 12.9534 603.981 13.6997C604.523 14.1261 605.12 14.7125 603.439 14.6592C602.625 14.6592 601.703 14.7125 600.89 14.6059C599.642 14.446 599.588 14.1261 598.124 14.0195C597.473 13.9662 598.34 14.5526 597.364 14.4993C596.713 14.4993 596.008 14.4993 595.357 14.4993C594.598 13.3266 593.785 14.2861 593.351 14.979C592.537 14.979 591.832 15.2989 591.832 14.446C591.832 13.1667 591.832 13.6997 590.585 13.4332C590.368 13.3799 589.934 14.7125 589.771 14.9257C588.524 14.9257 588.795 14.7658 588.252 14.3927C587.602 13.9662 587.168 14.8724 587.222 14.8724C586.246 14.9257 585.215 14.8191 584.185 14.8191C583.317 14.8191 584.13 14.3394 583.154 14.2861C581.364 14.2328 581.202 14.7658 579.629 14.7125C578.707 14.7125 577.785 14.7125 576.863 14.6592C576.591 14.6592 576.429 15.1922 575.615 15.1389C574.91 15.1389 575.344 14.6059 574.856 14.6059C574.097 14.6592 573.337 14.6059 572.578 14.6059C570.625 14.5526 570.409 15.0856 568.51 15.0323C565.636 14.979 562.815 14.9257 559.941 14.8724C558.476 14.8191 558.476 15.0856 558.422 13.8596C556.578 13.8063 557.663 13.8596 556.904 14.3394C556.687 14.4993 554.3 14.7125 554.354 14.8191C553.704 13.9662 554.137 14.8724 553.866 14.8191C553.107 14.6592 553.704 14.3394 552.89 14.2861C551.643 14.2328 551.48 14.7658 549.853 14.7125C548.714 14.7125 549.148 14.2328 548.334 14.1795C547.249 14.1261 547.738 14.4993 547.304 14.6592C546.165 15.1389 545.514 14.1261 544.266 14.1261C543.507 14.1261 543.995 14.4993 543.236 14.6059C542.314 14.7658 541.121 14.5526 540.199 14.5526C538.192 14.4993 538.083 14.0195 536.185 13.9662C535.697 13.9662 532.551 14.1795 532.66 13.6464C532.768 13.22 532.172 13.3266 532.172 13.9129C532.117 15.8852 530.219 13.4865 530.165 13.3799C529.514 13.3799 528.809 13.3266 528.158 13.3266C527.995 13.5931 527.724 13.6997 527.67 13.8063C527.019 14.9257 525.555 14.1795 525.555 14.3394C525.609 15.2455 522.734 14.0728 522.517 14.0728C521.812 14.0728 522.192 14.3927 521.487 14.5526C520.782 14.7125 519.914 14.4993 519.209 14.4993C519.155 14.4993 518.45 13.3799 518.45 14.2328C518.45 15.1922 517.799 13.9129 517.961 13.9662C516.877 13.4865 516.768 14.2328 516.443 14.446C516.117 14.6592 515.087 14.3927 514.653 14.446C514.382 14.446 514.056 13.8063 513.134 13.9129C513.08 13.9129 512.592 13.4865 512.375 13.3799C510.206 13.3266 513.351 14.3394 510.423 14.3394C509.772 14.3394 505.324 13.6997 504.89 14.2328C504.023 15.2455 503.263 14.1795 501.853 14.1795C499.901 14.1261 499.413 14.6592 497.785 14.6059C496.646 14.6059 490.355 15.2455 489.704 14.446C488.728 13.22 488.457 14.6592 487.697 14.3927C487.426 14.3394 488.077 13.8596 487.48 13.8596C487.047 13.8596 486.613 13.8596 486.233 13.8596C485.962 13.8596 484.389 13.6464 484.226 13.8596C483.63 14.5526 481.677 14.0195 481.677 14.0728C481.731 15.0323 474.518 13.8063 474.138 13.22C473.216 13.6997 472.674 14.3394 472.131 13.6997C470.992 13.6997 469.745 13.8063 468.606 13.6464C467.847 13.5398 468.498 13.3799 468.118 13.1134C467.901 12.9534 465.298 12.9001 465.081 13.06C464.647 13.4332 465.135 13.5398 464.05 13.5398C463.182 13.5398 462.369 13.4865 461.501 13.4865C459.494 13.4332 457.433 13.22 455.426 13.3799C454.233 13.4865 454.45 13.8063 453.149 13.8596C453.094 13.8596 452.01 12.7402 451.413 13.3266C450.979 13.6997 450.545 14.1261 449.894 14.2861C449.46 14.3927 447.345 14.446 447.399 13.9662C447.399 13.9129 435.413 14.4993 433.786 14.4993C432.539 14.446 433.027 14.979 431.725 14.979C431.02 14.979 430.044 15.4588 429.989 15.4588C427.766 15.1922 427.006 15.2455 425.705 14.3927C425.325 14.979 424.62 15.3522 423.644 15.3522C422.667 15.3522 419.196 14.7125 418.6 15.2455C418.112 15.672 418.166 15.7253 417.081 15.7253C415.888 15.7253 414.749 15.672 413.556 15.672C412.742 15.672 412.688 15.1922 412.579 15.1389C412.037 15.0323 411.983 15.6187 412.091 15.6187C411.115 15.5121 411.223 15.0856 410.573 15.0856C410.79 15.0856 409.976 15.5654 409.542 15.5654C409.162 16.1517 409.542 16.0451 408.512 16.0451C408.132 15.5121 407.861 15.6187 407.535 15.0323C405.312 14.979 407.047 15.2989 407.047 15.7786C407.047 16.2583 405.42 15.9918 404.986 15.9918C403.847 15.9918 402.6 15.8319 401.461 15.9385C401.244 15.9385 400.268 16.365 400.376 16.4183C399.834 16.365 396.851 15.2989 396.905 16.1517C396.959 16.898 395.007 15.5654 394.898 15.3522C393.38 15.3522 393.651 15.8319 392.349 15.8319C391.427 15.8319 388.336 15.2455 387.793 15.7253C387.359 16.1517 387.847 16.1517 386.763 16.205C385.895 16.205 385.081 16.1517 384.214 16.1517C382.044 16.0984 379.82 16.0451 377.651 16.0451C376.078 16.0451 376.186 16.5249 374.614 16.4716C372.661 16.4183 370.492 16.6315 368.539 16.365C367.509 16.2583 365.393 15.3522 364.254 15.2989C363.929 15.2989 364.037 15.7253 363.495 15.7786C362.844 15.8852 362.139 15.6187 361.488 15.7253C360.675 15.8852 360.295 16.205 358.939 16.1517C357.692 16.1517 357.854 16.6315 356.39 16.6315C354.004 16.5782 351.671 16.5249 349.339 16.5249C346.79 16.4716 340.607 18.7637 339.251 16.365C338.655 16.365 336.16 16.7381 336.214 17.0579C336.322 17.9641 334.153 16.7914 334.207 16.7914C334.261 16.7914 333.882 17.3244 333.177 17.2711C332.363 17.1645 332.417 16.7914 332.2 16.7381C331.658 16.5782 330.248 16.5782 329.706 16.6848C329.489 16.7381 328.946 17.2178 329.163 17.1645C328.024 17.2178 327.373 16.4183 325.638 16.5782C325.095 16.6315 324.39 17.1112 324.119 17.5377C322.004 17.4844 321.516 17.1645 319.563 16.9513C319.021 17.7509 317.34 17.3777 316.038 17.3777C315.55 18.0707 316.038 17.8575 315.55 17.3777C315.387 17.3777 315.224 17.3777 315.062 17.3777C314.682 16.7914 314.411 17.0046 314.085 16.365C313.923 16.365 313.76 16.365 313.597 16.365C313.163 16.9513 313.218 16.9513 312.567 17.3244C312.024 17.6443 312.296 17.8042 311.048 17.8042C310.506 18.4971 310.18 18.124 309.041 18.2839C308.879 18.2839 307.577 18.7637 308.011 18.7637C306.818 18.7637 306.601 18.124 304.974 18.2306C303.672 18.2839 303.726 18.6038 302.316 18.7104C301.774 17.8575 300.201 17.6976 298.791 17.6443C298.574 17.9641 298.574 18.3372 298.302 18.6038C298.14 18.6038 297.977 18.6038 297.814 18.6038C297.814 18.7637 297.814 18.9236 297.814 19.0835C297.435 19.4566 297.597 18.9769 297.326 19.5632C296.675 19.5632 295.97 19.5632 295.319 19.5099C294.343 19.5099 295.211 18.9769 294.56 18.9769C293.909 19.0302 293.096 19.5099 293.041 19.4566C291.686 19.2967 290.113 19.2967 288.757 19.35C288.214 19.4033 287.564 19.4033 286.967 19.2967C286.425 19.2434 286.858 19.8298 286.75 19.8298C286.37 19.8298 284.147 18.8703 284.255 19.5632C284.309 20.043 283.062 19.7765 282.736 19.7765C281.652 19.7232 281.706 19.7232 281.218 19.2434C280.621 18.6038 279.103 19.7765 278.452 19.6699C278.343 19.6699 277.747 20.0963 277.204 20.1496C276.337 20.2562 277.15 19.6699 276.228 19.6166C275.198 19.6166 274.547 19.8298 273.191 20.043C271.618 20.2562 271.401 20.5227 269.665 20.4694C269.232 20.4694 264.567 20.1496 264.621 20.6293C264.676 21.4289 261.747 20.3095 261.584 20.3095C261.855 20.3095 260.933 20.7893 260.554 20.7893C259.957 20.7893 259.36 20.736 258.764 20.7893C258.493 20.7893 258.384 20.2562 257.516 20.2562C256.703 20.2562 257.354 20.4694 257.028 20.736C256.269 21.2157 252.798 20.736 251.984 20.6293C250.574 20.5227 250.303 20.5227 249.489 20.0963C248.838 21.0025 247.103 20.5227 246.452 21.5355C245.747 21.4822 245.639 21.0025 244.445 21.0025C243.415 21.0025 242.439 20.9492 241.408 20.9492C240.974 20.9492 240.54 20.8959 240.106 20.9492C239.51 20.9492 240.161 20.5227 239.889 20.4161C238.805 19.9897 238.75 20.6293 238.371 20.8959C237.828 21.2157 235.984 20.8426 235.334 20.8426C234.628 20.8426 234.791 21.269 233.815 21.3223C232.622 21.3756 233.11 20.7893 232.296 20.7893C231.537 20.7893 231.212 21.3223 231.049 21.269C230.073 21.1624 224.703 21.0025 224.757 21.4289C224.812 21.8554 222.1 21.6421 221.72 21.6421C220.364 21.5888 219.822 21.4822 219.171 22.0686C219.117 22.1219 218.195 21.5355 217.652 21.5355C216.134 21.4822 214.615 21.4822 213.096 21.4822C210.818 21.4289 210.602 21.9087 208.541 21.9087C207.944 21.9087 207.347 21.8554 206.751 21.9087C206.154 21.962 206.805 21.5355 206.534 21.3756C205.449 20.8959 205.341 21.6421 205.015 21.8554C204.581 22.1219 203.008 21.8021 202.52 21.8021C201.815 21.8021 202.032 22.2285 201.002 22.2818C199.7 22.3884 198.29 22.2285 196.988 22.2285C196.175 22.2285 196.012 21.6954 195.741 21.6954C195.307 21.6954 195.415 22.2285 194.439 22.1752C193.408 22.1752 192.432 22.1219 191.402 22.1219C187.497 22.0686 183.592 22.9748 179.795 22.9215C177.246 22.8682 175.998 22.4417 173.992 22.3351C173.883 22.3351 172.907 22.7615 172.202 22.8148C170.846 22.9215 169.49 22.6549 168.134 22.7615C167.321 22.8148 167.754 23.2413 166.615 23.2413C165.585 23.2413 164.609 23.2413 163.578 23.188C162.493 23.1347 162.819 22.6549 162.06 22.6549C160.704 22.6549 159.348 22.6016 158.046 22.6016C156.419 22.5483 156.365 23.5611 154.521 23.5078C153.436 23.5078 153.761 22.9748 153.002 22.9748C151.809 22.9748 150.67 22.9215 149.477 22.9215C145.517 22.8682 143.022 23.7743 138.846 23.721C136.839 23.6677 135.375 24.2541 132.772 24.0942C132.338 24.0942 130.548 24.3607 130.223 24.0409C130.06 23.8809 130.006 23.7743 130.006 23.6677C130.006 23.721 129.897 23.8809 129.734 24.0409C129.409 24.3607 127.619 23.5611 127.728 24.2541C127.782 24.6805 125.667 24.4673 125.179 24.4673C122.141 24.414 119.104 24.3607 116.121 24.3074C112.758 24.2541 109.396 24.2008 106.033 24.1475C103.972 24.0942 102.725 24.5206 101.206 24.5739C101.206 24.5739 100.067 24.0942 99.4703 24.0409C98.1686 23.8809 96.7585 23.9876 95.4025 23.9876C94.9144 24.0942 92.2026 24.7338 92.2026 24.7871C92.2568 25.107 84.067 24.8937 83.0908 24.8404C82.3315 24.8404 82.6569 24.414 81.5722 24.3074C80.8128 24.2541 81.1925 24.8404 80.0535 24.7871C80.3247 24.8404 79.7281 24.3607 79.5654 24.3074C78.9688 24.1475 78.1552 24.3074 77.5586 24.2541C76.962 24.2541 73.979 24.6272 73.4909 24.2008C73.057 23.7743 73.5451 23.7743 72.5146 23.6677C72.0265 23.6144 71.4841 23.6677 70.996 23.6144C68.9892 23.5611 66.9282 23.5611 64.9215 23.5078C62.2096 23.4545 61.1249 23.9342 58.3588 23.8809C56.8402 23.8276 55.3215 23.8276 53.8029 23.7743C52.7724 23.7743 53.7487 24.3074 53.0436 24.2541C52.5555 24.2541 52.8809 23.721 52.8266 23.721C50.1148 23.5611 47.7826 24.7338 45.7759 23.6144C45.2877 23.3479 45.8843 23.188 44.7996 23.0814C44.5284 23.5078 43.2267 24.2008 43.0098 24.2008C42.4132 24.1475 41.8166 24.1475 41.22 24.1475C40.1895 24.1475 40.6234 24.2541 40.1895 24.6272C39.1047 25.64 33.9522 24.3607 33.1387 23.9876C33.0845 23.9876 31.5116 22.9215 31.6201 23.721C31.7285 24.2008 29.0709 23.9342 28.5828 23.9342C24.4066 23.8809 20.1761 23.7743 15.9999 23.721C15.349 22.7615 14.6439 22.7082 12.9626 22.6549C12.5829 23.2413 13.0168 23.188 11.9321 23.1347C10.9016 23.1347 11.3897 23.4545 10.9558 23.6144C10.6304 23.7743 9.38297 23.7743 9.4372 23.3479C9.54568 22.4417 8.56942 23.5611 8.94907 23.5611C8.02705 23.4545 8.24399 23.188 7.97281 23.0281C7.32197 22.8681 6.45418 23.2946 5.91181 23.0281C5.58639 22.9215 5.96605 22.5483 5.1525 22.495C4.55589 22.4417 5.26097 23.0814 4.66437 23.0281C3.90505 22.9215 3.0915 23.0281 2.38642 22.9748C1.68134 22.9748 2.11524 22.5483 1.89829 22.495C1.13897 22.2818 0.542368 22.3884 0 22.6016L0 0.00034523L1540 0.00034523V15.3522C1539.67 15.4055 1539.29 15.5121 1538.81 15.5654ZM432.213 10.9812C431.833 11.3543 431.996 10.8745 431.725 11.4609C431.725 12.527 432.701 11.9939 432.755 10.9812C433.786 10.608 432.81 10.4481 432.213 10.9812ZM460.471 12.9534C460.742 13.22 461.284 12.7402 460.959 12.4737C460.687 12.2072 460.199 12.6869 460.471 12.9534ZM514.056 8.42252C514.328 8.68905 514.87 8.2093 514.545 7.94278C514.328 7.62295 513.785 8.156 514.056 8.42252ZM550.287 14.4993C550.558 14.7658 551.1 14.2861 550.829 14.0195C550.558 13.753 550.015 14.2328 550.287 14.4993ZM554.463 8.63574C554.734 8.90227 555.276 8.42252 554.951 8.156C554.68 7.83617 554.192 8.31591 554.463 8.63574ZM616.51 12.1539C614.991 12.1539 615.425 13.1667 615.75 13.1667C616.347 13.06 615.75 13.9129 615.967 14.1795C616.13 14.1795 616.293 14.1795 616.456 14.1795C616.944 13.4332 617.269 12.8468 616.51 12.1539ZM695.696 15.0323C695.967 15.2989 696.509 14.8191 696.238 14.5526C695.967 14.2328 695.424 14.7125 695.696 15.0323ZM716.468 9.91506C716.739 10.1816 717.282 9.70184 716.956 9.43531C716.739 9.11548 716.197 9.64853 716.468 9.91506ZM743.153 16.3116C743.424 16.5782 743.966 16.0984 743.641 15.8319C743.37 15.5121 742.882 16.0451 743.153 16.3116ZM755.248 15.0323C755.519 15.2989 756.061 14.8191 755.79 14.5526C755.519 14.2328 754.976 14.7658 755.248 15.0323ZM825.864 18.7104C825.376 17.7509 825.213 18.7104 825.864 18.7104C826.406 19.6699 826.569 18.7104 825.864 18.7104ZM851.626 19.1368C851.898 19.4033 852.386 18.9236 852.115 18.6571C851.843 18.3905 851.355 18.8703 851.626 19.1368ZM976.805 20.3095C977.076 20.576 977.618 20.0963 977.347 19.8298C977.076 19.5099 976.534 20.043 976.805 20.3095ZM1094.5 17.8575C1093.9 18.6571 1094.12 18.3372 1094.5 18.8703C1095.2 19.9897 1095.15 18.2306 1094.5 17.8575ZM1160.13 18.4971C1160.07 20.8426 1162.51 18.5505 1160.13 18.4971V18.4971ZM1213.11 19.4033C1213.39 19.6699 1213.93 19.1901 1213.66 18.9236C1213.39 18.6038 1212.84 19.0835 1213.11 19.4033Z" fill="#DCE3B9"/>
</svg>
