<svg width="1540" height="25" viewBox="0 0 1540 25" fill="none" xmlns="http://www.w3.org/2000/svg">
<path fill-rule="evenodd" clip-rule="evenodd" d="M1.19324 15.5654C2.06104 15.6187 13.2882 15.6187 13.2882 15.6187C13.2339 15.0323 16.5424 15.5654 16.8135 15.8319C17.3558 16.365 17.6813 16.3116 18.8202 16.3116C20.3389 16.3116 21.8575 16.2583 23.3761 16.205C24.4608 16.205 24.1354 16.6848 24.8948 16.6848C26.2506 16.6315 27.6067 16.6315 28.9083 16.6315C29.6677 16.6315 36.0133 16.3116 35.9591 16.7914C35.9049 17.3777 39.0505 16.5249 39.4845 16.4716C41.5997 16.205 43.1183 16.7381 44.5284 16.898C44.4742 16.898 44.3657 16.365 44.7455 16.365C45.3962 16.365 44.7454 16.7914 45.0166 16.8447C46.1555 17.1645 47.9454 16.7914 49.0302 16.7914C50.3861 16.7381 51.7421 16.7381 53.0979 16.7381C53.8573 16.7381 53.4775 16.205 54.6166 16.205C54.7793 16.205 54.3455 16.7381 54.8336 16.7381C55.2675 16.6848 55.7013 16.6848 56.1353 16.6848C57.22 16.6848 56.7318 17.0046 57.1656 17.1645C58.7928 17.8042 61.9385 17.0579 63.7283 17.0579C64.4877 17.0579 64.1079 17.5377 65.2469 17.5377C65.952 17.5377 65.5182 16.9513 65.952 17.0046C68.0673 17.1645 70.1826 16.8447 72.2979 16.898C73.2198 18.1773 74.3588 17.4844 76.3656 17.8042C77.1249 17.9108 77.179 18.2839 78.4264 18.2839C79.674 18.2839 80.9756 18.1773 82.2231 18.2306C82.3315 18.2306 83.1993 17.6976 83.9587 17.6976C85.3146 17.6443 85.9113 17.5377 86.5078 18.124C86.9418 18.4971 90.0874 18.0707 90.5214 18.0707C90.9552 18.0707 91.389 18.0707 91.823 18.0707C92.4196 18.0707 91.7688 17.6443 92.0399 17.591C92.5281 17.431 93.2874 17.5377 93.8297 17.5377C94.4263 17.4844 93.7755 17.9641 94.0466 18.0707C94.8602 18.3372 96.2162 18.0174 97.0839 18.0174C98.3314 17.9641 97.8975 18.3905 99.0907 18.4971C100.772 18.6038 102.453 18.4438 104.135 18.3905C105.165 18.3905 106.142 18.3372 107.172 18.3372C108.365 18.2839 107.226 18.3905 107.714 18.817C108.311 19.4033 108.691 18.3372 108.691 18.2839C108.908 18.1773 109.613 18.7637 110.209 18.7637C111.023 18.7637 110.589 18.2306 111.728 18.2306C111.891 18.2306 111.457 18.817 111.999 18.7104C112.433 18.6571 112.813 18.6571 113.247 18.6571C114.277 18.6571 115.253 18.6038 116.284 18.6038C117.423 18.6038 118.616 18.5505 119.809 18.5505C120.243 18.5505 121.057 19.0302 120.84 19.0302C122.033 18.9769 121.653 18.6571 122.846 18.4971C123.931 18.3372 125.07 18.4971 126.155 18.4438C126.426 18.4438 127.402 19.35 128.433 18.9236C128.704 18.817 128.27 18.5505 128.921 18.3905C129.409 18.2839 129.951 18.3905 130.44 18.3905C131.036 18.3372 131.904 18.2306 132.446 18.3372C132.663 18.3905 132.121 18.8703 132.663 18.8703C133.151 18.817 133.694 18.817 134.182 18.8703C134.778 18.8703 134.182 18.4438 134.399 18.3372C134.941 18.1773 135.646 18.3372 136.189 18.2839C136.84 18.2306 136.135 18.6571 136.46 18.817C137.273 19.1368 139.063 18.7637 139.985 18.7637C140.419 18.0707 141.07 18.4438 141.504 17.7509C142.48 17.7509 145.083 18.4971 145.572 19.1901C147.578 19.1368 149.585 19.1368 151.646 19.0835C153.273 19.0302 154.033 18.4971 155.172 18.4971C154.846 18.4971 155.497 18.9769 155.714 18.9769C156.148 19.0835 156.799 18.9769 157.233 18.9769C157.883 18.9769 158.589 18.9769 159.239 18.9236C160.432 18.8703 159.294 18.9769 159.727 19.4033C160.432 20.043 161.138 18.9236 161.246 18.8703C161.734 18.5505 163.633 18.817 164.283 18.817C165.097 18.817 168.405 20.2029 169.327 19.2434C169.87 18.7104 170.412 18.7637 171.605 18.7104C172.256 18.6571 171.388 19.2434 172.365 19.1901C172.853 19.1901 173.395 19.1901 173.883 19.1368C176.432 19.0835 177.626 19.5632 180.446 19.5099C183.537 19.4566 186.683 19.2967 189.775 19.35C189.829 19.35 190.914 18.1773 191.51 18.817C192.107 19.4033 192.27 19.0835 193.517 19.2967C194.493 19.4566 194.927 19.7232 195.524 19.7765C196.771 19.8298 196.283 19.1901 197.531 19.2434C197.368 19.2434 198.019 19.7232 198.561 19.7232C199.754 19.7232 200.893 19.6699 202.086 19.6699C203.225 19.6699 204.473 19.5099 205.612 19.6166C206.317 19.6699 205.829 19.9897 206.154 20.0963C207.727 20.736 211.036 19.9897 212.717 19.9897C213.964 19.9364 214.181 20.4694 215.754 20.4161C216.242 20.4161 220.852 20.0963 220.798 20.576C220.744 21.0025 222.425 20.7893 222.805 20.7893C223.564 20.7893 223.022 20.3628 223.293 20.3095C224.595 19.8298 224.703 20.7893 225.842 20.736C226.601 20.736 227.361 20.6826 228.12 20.6826C228.717 20.736 227.957 20.1496 228.608 20.1496C229.151 20.1496 228.608 20.6293 229.368 20.6293C229.693 20.6293 231.157 20.3628 231.374 20.576C231.862 21.0558 231.808 21.0558 232.893 21.0558C233.761 21.0558 234.574 21.0025 235.388 21.0025C237.395 20.9492 238.588 21.3223 239.944 21.4289C242.276 21.6421 244.662 21.269 246.995 21.3223C247.862 21.3223 247.103 21.8021 248.025 21.8021C249.218 21.8021 250.357 21.7487 251.55 21.7487C252.31 21.7487 253.069 21.6421 253.828 21.6954C254.425 21.7487 253.666 21.1091 254.316 21.1624C255.347 21.2157 255.618 21.6421 257.083 21.6421C258.655 21.5888 258.872 21.1091 260.12 21.0558C259.794 21.0558 261.259 21.5355 261.638 21.5355C262.398 21.5888 263.211 21.5355 263.916 21.4822C264.025 21.4822 264.893 21.962 265.652 21.962C267.171 21.9087 268.689 21.9087 270.208 21.8554C272.486 21.8021 272.92 21.4289 274.764 21.269C276.445 21.1624 277.204 21.8021 278.289 21.6954C278.452 21.6954 277.964 21.1624 278.506 21.1624C278.886 21.2157 279.428 21.2157 279.754 21.1624C280.621 20.9492 280.676 21.0025 281.272 20.6293C281.489 20.8959 282.248 21.6421 282.52 21.6421C284.147 21.5355 285.72 21.5888 287.347 21.5355C289.842 21.4822 291.143 22.3351 293.909 21.9087C294.289 21.8554 295.645 21.6954 295.916 21.3756C296.296 21.0025 295.808 21.1624 296.404 20.8959C296.458 20.9492 297.055 21.4289 296.892 21.3756C297.814 21.7487 298.194 21.8554 299.442 21.8021C300.689 21.8021 300.201 21.269 301.448 21.269C301.177 21.269 302.533 21.7487 302.967 21.7487C303.292 21.7487 305.299 21.962 305.462 21.6954C305.57 21.5355 306.384 20.576 306.98 21.1624C307.794 21.9087 306.926 21.2157 307.469 21.1624C307.848 21.1091 309.747 20.8426 309.964 21.1091C310.723 21.8554 309.909 21.1624 310.452 21.1091C312.404 20.9492 312.784 21.0558 313.489 22.0686C314.519 22.0686 315.55 22.1219 316.526 22.0153C316.201 22.0686 317.068 20.8426 317.014 21.7487C316.96 22.2285 317.665 22.0153 318.045 22.0153C318.804 22.0153 319.835 21.8021 320.54 21.962C320.757 22.0153 321.299 22.4417 321.082 22.4417C321.787 22.4417 322.98 21.3223 323.577 21.9087C324.173 22.495 324.77 22.3884 326.126 22.3351C329.76 22.2818 333.339 22.2818 336.214 21.6421C336.377 21.9087 336.648 22.0153 336.756 22.1219C337.299 22.8682 338.329 22.8148 338.763 22.0686C339.468 22.0686 340.553 22.2285 341.258 22.0153C341.963 21.8554 341.367 21.7487 341.746 21.4822C342.289 21.1091 342.343 21.0025 343.265 20.9492C343.59 21.4289 344.295 21.962 345.055 21.9087C345.434 21.8554 345.272 22.1219 345.326 22.4417C345.326 23.4012 346.573 22.9215 347.333 22.9215C348.526 22.9215 349.719 22.8681 350.858 22.8681C351.617 22.8681 354.058 22.0153 354.383 22.3351C354.871 22.7615 354.817 22.8148 355.902 22.8148C356.499 22.8148 356.987 23.2946 356.932 23.2946C357.963 23.3479 358.885 22.7615 360.458 22.7082C360.729 22.7082 362.41 23.8809 363.007 23.188C364.092 21.8021 367.075 23.6144 368.539 23.5611C369.244 22.495 371.359 23.5611 372.065 22.495C372.715 22.7082 373.854 23.4012 374.614 23.4545C375.482 23.5078 377.488 22.2818 378.139 22.9215C378.682 23.4545 378.41 23.2946 379.658 23.4012C380.797 23.4545 382.044 23.3479 383.183 23.3479C384.702 23.3479 386.22 23.2946 387.739 23.2946C388.824 23.2946 388.336 22.9748 388.715 22.7615C390.776 21.8554 395.061 22.6549 397.285 22.6016C398.369 22.6016 398.044 23.0814 398.803 23.0814C399.834 23.0814 400.81 23.0281 401.841 23.0281C405.691 22.9748 409.596 22.8682 413.447 22.8148C414.64 22.8148 415.779 22.7615 416.973 22.7615C417.84 22.7615 417.027 22.2818 417.949 22.2818C419.196 22.2285 419.793 22.7615 421.474 22.7082C422.613 22.7082 422.179 22.2285 422.993 22.1752C424.078 22.1219 423.59 22.495 424.023 22.6549C425.108 23.0814 425.217 22.3351 425.542 22.1219C425.922 21.8554 427.115 22.0686 427.549 22.0686C428.471 22.0686 427.657 22.6016 428.579 22.5483C428.362 22.5483 429.067 22.0153 429.556 22.0153C434.166 21.9087 437.311 22.3884 442.193 22.2818C445.284 22.2285 452.064 21.1624 454.342 22.5483C454.776 21.8554 455.427 21.3223 455.86 22.0153C457.325 21.962 456.999 21.4822 457.867 21.4822C457.704 21.4822 458.03 21.962 458.355 21.962C458.844 21.962 459.386 21.962 459.874 21.9087C460.579 22.9748 466.437 22.0153 466.437 22.0686C466.382 22.4417 469.528 22.495 469.474 22.0153C469.365 21.1624 472.348 22.2285 472.511 22.2285C472.294 22.2285 472.782 21.8021 472.999 21.7487C473.379 21.6421 473.867 21.7487 474.247 21.6954C474.518 21.6954 474.681 22.1752 475.494 22.1752C477.176 22.1219 479.02 21.962 480.05 22.6016C480.43 22.0686 482.762 21.5355 483.575 21.5355C484.769 21.5355 484.931 22.0153 485.636 22.0153C486.07 22.0153 486.504 22.0153 486.884 21.962C487.48 21.9087 486.884 22.3884 487.155 22.4417C488.24 22.7615 489.27 22.2818 489.65 21.9087C490.301 21.2157 491.169 22.3884 491.169 22.3884C492.362 22.8681 492.525 21.8554 493.175 21.8554C493.88 21.8554 493.664 22.2818 494.694 22.3351C494.26 22.3351 495.779 21.0025 495.67 22.0686C495.67 22.6016 496.809 22.2818 497.189 22.2818C497.894 21.2157 498.816 21.269 500.714 21.2157C501.148 21.8554 501.799 21.5355 502.233 22.1752C503.48 22.1219 502.992 21.6421 504.24 21.6421C504.728 21.6421 505.812 21.4289 506.246 21.5888C506.518 21.6954 505.867 22.1752 506.518 22.0686C507.602 21.962 508.741 22.0153 509.826 22.0153C510.477 22.0153 510.64 21.4822 511.833 21.4822C512.592 21.4822 512.267 21.962 513.351 21.962C515.033 21.962 516.714 21.9087 518.396 21.8554C520.89 21.8021 523.223 22.0686 524.958 22.2285C524.741 22.2285 525.067 21.269 525.446 21.7487C525.826 22.1752 525.446 22.3351 526.477 22.2285C527.616 22.0686 527.29 21.6954 528.484 21.6954C528.212 21.6954 528.809 22.1219 528.972 22.1752C529.406 22.2818 530.056 22.1752 530.49 22.1752C531.846 22.1219 533.202 22.0686 534.504 22.1219C534.612 22.1219 534.287 22.6549 534.775 22.6016C535.317 22.6016 534.829 22.1219 534.992 22.0686C535.805 21.9087 537.216 21.8554 538.029 22.0153C539.277 22.2818 538.68 22.0153 540.524 21.962C543.778 21.9087 545.948 22.8148 548.063 21.3223C548.985 22.6549 553.27 22.7082 554.138 21.2157C554.897 21.269 556.199 21.6954 557.663 21.6421C558.748 21.5888 558.26 21.9087 558.693 22.1219C558.531 22.0686 560.429 22.495 559.724 22.6016C561.08 22.3884 562.327 22.0686 564.28 22.0153C566.775 21.962 567.209 22.4417 569.324 22.4417C569.866 23.2413 569.487 22.6549 570.354 22.4417C571.602 22.1219 572.307 22.7615 572.849 21.9087C573.175 22.0153 575.181 23.5611 575.887 22.8681C576.049 22.7082 576.103 22.6016 576.103 22.495C576.103 22.5483 576.212 22.7082 576.375 22.8148C576.646 23.0814 578.49 22.7615 578.924 22.7615C581.636 22.7615 584.293 22.6549 587.005 22.6016C589.229 22.5483 592.103 22.8148 593.568 21.962C594.056 21.6954 593.459 21.5355 594.544 21.4289C594.707 21.6954 594.978 21.8021 595.086 21.9087C595.791 22.9215 597.907 21.8021 598.612 22.8148C599.805 22.8148 599.642 22.2818 601.107 22.2818C602.191 22.2818 602.517 22.1752 603.113 21.7487C603.71 22.6016 605.066 22.3351 605.662 23.188C606.91 23.188 606.422 22.6549 607.669 22.6549C608.862 22.6549 610.001 22.6016 611.195 22.6016C614.232 22.5483 617.269 22.495 620.252 22.4417C620.957 22.4417 621.12 22.9215 622.313 22.9215C623.073 22.9215 622.693 22.4417 623.832 22.3884C624.808 22.3884 625.893 22.1752 626.869 22.3351C627.628 22.4417 627.249 22.8148 628.388 22.8148C628.225 22.8148 628.496 22.3351 628.876 22.2818C629.364 22.2285 629.906 22.2818 630.394 22.2818C632.076 22.1752 633.757 22.2285 635.439 22.1752C637.608 22.1219 639.832 22.0686 642.001 22.0686C642.652 22.0686 645.581 22.4417 646.069 22.0153C646.611 21.4822 646.828 21.5355 648.076 21.4822C648.401 21.4822 650.354 21.2157 650.571 21.4289C651.438 22.4417 654.964 21.8554 656.645 21.8021C657.947 21.8021 659.954 22.9748 661.689 22.2285C661.96 22.1219 661.31 21.6421 661.906 21.6954C662.232 21.7487 662.937 21.8021 663.208 21.6954C663.208 21.6954 663.587 20.6293 664.184 21.1624C664.726 21.6421 664.455 21.6421 665.703 21.6421C667.221 21.5888 668.74 21.5888 670.259 21.5888C671.777 21.5355 673.296 21.5355 674.814 21.4822C675.574 21.4822 675.194 21.0025 676.333 20.9492C676.008 20.9492 677.418 21.4289 677.852 21.4289C678.665 21.4289 679.533 21.3756 680.347 21.3756C682.625 21.3223 683.058 21.5355 683.872 20.3095C685.391 20.2562 685.879 20.3095 686.909 20.736C687.235 20.8959 686.692 21.2157 687.397 21.2157C687.886 21.2157 688.97 21.3756 689.404 21.1624C689.73 21.0025 689.133 20.6293 689.892 20.6293C690.652 20.6293 690.109 21.0025 690.38 21.1091C691.519 21.5888 691.791 20.6826 692.387 20.576C694.123 20.2562 696.184 20.5227 697.919 20.4694C698.95 20.4694 699.926 20.4161 700.957 20.4161C701.662 20.4161 701.228 19.9897 701.445 19.9364C702.529 19.6166 703.506 20.4161 703.723 20.4161C705.296 20.2029 706.923 20.3628 708.495 20.3095C708.17 20.3095 709.038 19.1368 708.984 20.043C708.984 20.5227 709.634 20.3095 710.014 20.3095C711.75 20.2562 711.641 19.7765 713.539 19.7232C714.245 19.7232 714.516 19.9364 714.516 19.1901C714.516 18.4971 715.655 18.2839 716.034 18.6571C717.119 19.6166 716.523 19.6699 717.662 19.6699C718.529 19.6699 719.343 19.6166 720.156 19.6166C720.916 20.736 723.356 19.9897 724.224 19.5632C724.767 20.3628 725.417 20.5227 726.773 20.5227C727.641 20.5227 728.455 20.5227 729.322 20.4694C729.919 20.4694 730.407 19.9364 730.299 19.9364C731.546 19.8298 731.058 20.5227 732.305 20.4161C732.197 20.4161 732.685 19.9364 733.282 19.8831C733.661 19.8831 734.855 19.6166 734.8 20.0963C734.746 20.5227 738.488 20.2562 739.085 20.2562C739.302 20.2562 739.627 19.7765 740.333 19.7232C741.471 19.6166 742.719 19.8298 743.858 19.6699C744.4 19.5632 745.865 18.6571 746.353 19.1368C746.841 19.6166 746.244 19.6166 747.383 19.6166C747.709 19.6166 749.173 19.8298 749.39 19.5632C749.932 19.0302 750.258 19.5632 751.939 19.5099C755.302 19.4566 756.658 18.9769 759.532 19.35C760.129 18.3905 760.888 18.3372 762.515 18.2839C763.003 19.0302 762.841 18.5505 764.034 18.7637C764.142 18.7637 765.498 19.2434 765.064 19.2434C766.203 19.2967 765.77 18.8703 766.583 18.7104C767.397 18.5505 768.319 18.6571 769.132 18.6571C770.814 18.6571 771.085 19.1901 771.627 18.6038C772.224 18.0174 776.346 18.5505 777.159 18.4971C777.919 18.4971 777.376 18.9769 777.919 18.9769C778.19 18.9769 778.353 18.4971 779.166 18.4438C779.22 18.4438 778.949 18.9769 779.437 18.9769C779.871 18.9769 779.654 18.4438 779.654 18.4438C781.444 18.4971 781.715 18.7104 783.18 18.3905C783.668 18.2839 786.271 18.6038 786.217 18.124C786.054 17.0579 787.41 18.4438 787.247 18.3372C787.573 18.5505 789.363 18.4438 789.254 18.0707C789.2 17.591 791.152 17.8042 791.532 17.8042C792.183 17.7509 791.315 18.3372 792.291 18.2839C792.725 18.2839 793.159 18.2306 793.539 18.2839C793.81 18.2839 793.973 17.7509 794.786 17.7509C795.979 17.7509 796.142 17.2178 796.793 17.2178C797.986 17.1645 799.125 17.1645 800.318 17.1645C801.023 17.1645 801.186 17.6443 802.325 17.6443C802.759 17.6443 803.193 17.591 803.627 17.6443C804.223 17.6976 803.627 17.1645 803.844 17.1112C805.091 16.7914 808.888 17.2711 808.888 17.2711C808.725 16.6315 810.623 17.2711 810.895 17.0046C811.166 16.7381 811.166 16.365 811.383 15.9918C811.708 15.9918 813.444 16.4716 813.444 16.6848C813.389 17.0046 816.481 17.0046 816.969 16.8447C817.24 16.7914 817.078 16.365 818 16.3116C818.813 16.2583 818.162 16.5782 818.488 16.7914C819.03 17.1645 821.362 16.7914 822.013 16.7381C822.067 16.7381 821.85 16.0984 822.501 16.2583C822.718 16.3116 822.176 16.7914 822.772 16.7381C824.02 16.6848 825.322 16.6848 826.569 16.6848C828.088 16.6315 827.762 16.0451 829.064 16.6315C829.444 16.0451 829.715 15.9918 830.854 16.0984C831.179 16.1517 831.45 15.2989 831.559 15.0856C832.589 15.0856 833.077 15.5654 833.62 16.0451C833.999 16.4183 833.837 15.9385 834.108 16.5249C834.976 16.5249 835.789 16.5249 836.657 16.4716C836.983 15.9918 836.549 15.9385 837.416 15.9918C838.176 15.9918 837.362 15.0856 837.145 15.4588C837.525 14.8191 837.525 14.8724 838.121 14.446C838.176 16.2583 838.61 15.4588 839.152 16.4183C840.996 16.365 842.84 16.365 844.684 16.3116C845.389 16.3116 845.172 15.8852 846.203 15.7786C847.071 15.672 847.776 16.2583 847.993 16.2583C849.132 16.1517 848.752 16.0451 849.24 15.7253C850.487 14.8724 849.511 15.6187 850.271 16.205C851.03 16.7914 851.247 15.8319 851.789 16.6848C852.603 16.4183 854.609 15.4055 854.826 16.1517C855.206 16.1517 857.918 16.365 857.864 15.8319C857.701 14.979 858.84 15.9918 858.894 16.0451C860.792 16.0451 859.437 14.6059 860.413 15.5121C860.684 15.7786 861.498 15.0323 861.443 15.7253C861.389 16.205 865.023 15.9385 865.511 15.9385C867.843 15.8852 870.23 15.8319 872.562 15.8319C874.026 15.8319 873.864 15.2989 875.057 15.2989C874.731 15.2989 875.436 15.7786 875.599 15.7786C876.196 15.9385 877.009 15.7786 877.606 15.7253C879.287 15.672 880.969 15.672 882.65 15.6187C884.114 15.6187 883.409 14.8724 884.169 15.6187C884.385 15.8319 886.935 15.672 887.206 15.5654C887.477 15.4588 887.043 15.1922 887.694 15.0323C888.345 14.9257 889.05 15.0323 889.701 15.0323C890.406 15.0323 889.972 15.4588 890.189 15.5121C890.785 15.672 891.599 15.4588 892.196 15.4588C893.877 15.4055 895.558 15.4055 897.24 15.3522C898.487 15.2989 897.999 14.8191 899.246 14.8191C898.921 14.8191 899.626 15.2989 899.734 15.2989C900.168 15.4055 900.819 15.2989 901.253 15.2989C902.772 15.2989 904.29 15.2455 905.809 15.2455C907.49 15.1922 909.172 15.1922 910.853 15.1389C911.612 15.1389 911.233 14.6059 912.372 14.6059C913.077 14.6059 913.239 15.0856 914.378 15.0856C915.517 15.0856 915.843 15.0856 916.385 14.5526C917.307 13.5931 920.29 14.979 920.941 14.979C922.134 14.9257 922.297 14.446 922.948 14.446C923.707 14.446 923.978 14.979 924.195 14.9257C925.388 14.7658 929.782 15.5654 930.487 14.8191C931.355 13.9662 930.433 14.9257 931.246 14.8191C932.168 14.7125 933.144 14.7658 934.012 14.7658C934.934 14.1261 933.958 14.6059 934.012 14.2861C934.066 13.22 934.5 14.2328 934.988 13.753C934.988 13.5931 934.988 13.4332 934.988 13.22C935.422 12.9001 936.887 12.9534 936.019 13.6997C935.477 14.1261 934.88 14.7125 936.561 14.6592C937.375 14.6592 938.297 14.7125 939.11 14.6059C940.358 14.446 940.412 14.1261 941.876 14.0195C942.527 13.9662 941.66 14.5526 942.636 14.4993C943.287 14.4993 943.992 14.4993 944.643 14.4993C945.402 13.3266 946.215 14.2861 946.649 14.979C947.463 14.979 948.168 15.2989 948.168 14.446C948.168 13.1667 948.168 13.6997 949.415 13.4332C949.632 13.3799 950.066 14.7125 950.229 14.9257C951.476 14.9257 951.205 14.7658 951.748 14.3927C952.398 13.9662 952.832 14.8724 952.778 14.8724C953.754 14.9257 954.785 14.8191 955.815 14.8191C956.683 14.8191 955.87 14.3394 956.846 14.2861C958.636 14.2328 958.798 14.7658 960.371 14.7125C961.293 14.7125 962.215 14.7125 963.137 14.6592C963.409 14.6592 963.571 15.1922 964.385 15.1389C965.09 15.1389 964.656 14.6059 965.144 14.6059C965.903 14.6592 966.663 14.6059 967.422 14.6059C969.375 14.5526 969.591 15.0856 971.49 15.0323C974.364 14.979 977.185 14.9257 980.059 14.8724C981.524 14.8191 981.524 15.0856 981.578 13.8596C983.422 13.8063 982.337 13.8596 983.096 14.3394C983.313 14.4993 985.7 14.7125 985.646 14.8191C986.296 13.9662 985.863 14.8724 986.134 14.8191C986.893 14.6592 986.296 14.3394 987.11 14.2861C988.357 14.2328 988.52 14.7658 990.147 14.7125C991.286 14.7125 990.852 14.2328 991.666 14.1795C992.751 14.1261 992.262 14.4993 992.696 14.6592C993.835 15.1389 994.486 14.1261 995.734 14.1261C996.493 14.1261 996.005 14.4993 996.764 14.6059C997.686 14.7658 998.879 14.5526 999.801 14.5526C1001.81 14.4993 1001.92 14.0195 1003.81 13.9662C1004.3 13.9662 1007.45 14.1795 1007.34 13.6464C1007.23 13.22 1007.83 13.3266 1007.83 13.9129C1007.88 15.8852 1009.78 13.4865 1009.84 13.3799C1010.49 13.3799 1011.19 13.3266 1011.84 13.3266C1012 13.5931 1012.28 13.6997 1012.33 13.8063C1012.98 14.9257 1014.45 14.1795 1014.45 14.3394C1014.39 15.2455 1017.27 14.0728 1017.48 14.0728C1018.19 14.0728 1017.81 14.3927 1018.51 14.5526C1019.22 14.7125 1020.09 14.4993 1020.79 14.4993C1020.85 14.4993 1021.55 13.3799 1021.55 14.2328C1021.55 15.1922 1022.2 13.9129 1022.04 13.9662C1023.12 13.4865 1023.23 14.2328 1023.56 14.446C1023.88 14.6592 1024.91 14.3927 1025.35 14.446C1025.62 14.446 1025.94 13.8063 1026.87 13.9129C1026.92 13.9129 1027.41 13.4865 1027.62 13.3799C1029.79 13.3266 1026.65 14.3394 1029.58 14.3394C1030.23 14.3394 1034.68 13.6997 1035.11 14.2328C1035.98 15.2455 1036.74 14.1795 1038.15 14.1795C1040.1 14.1261 1040.59 14.6592 1042.21 14.6059C1043.35 14.6059 1049.65 15.2455 1050.3 14.446C1051.27 13.22 1051.54 14.6592 1052.3 14.3927C1052.57 14.3394 1051.92 13.8596 1052.52 13.8596C1052.95 13.8596 1053.39 13.8596 1053.77 13.8596C1054.04 13.8596 1055.61 13.6464 1055.77 13.8596C1056.37 14.5526 1058.32 14.0195 1058.32 14.0728C1058.27 15.0323 1065.48 13.8063 1065.86 13.22C1066.78 13.6997 1067.33 14.3394 1067.87 13.6997C1069.01 13.6997 1070.26 13.8063 1071.39 13.6464C1072.15 13.5398 1071.5 13.3799 1071.88 13.1134C1072.1 12.9534 1074.7 12.9001 1074.92 13.06C1075.35 13.4332 1074.87 13.5398 1075.95 13.5398C1076.82 13.5398 1077.63 13.4865 1078.5 13.4865C1080.51 13.4332 1082.57 13.22 1084.57 13.3799C1085.77 13.4865 1085.55 13.8063 1086.85 13.8596C1086.91 13.8596 1087.99 12.7402 1088.59 13.3266C1089.02 13.6997 1089.45 14.1261 1090.11 14.2861C1090.54 14.3927 1092.65 14.446 1092.6 13.9662C1092.6 13.9129 1104.59 14.4993 1106.21 14.4993C1107.46 14.446 1106.97 14.979 1108.28 14.979C1108.98 14.979 1109.96 15.4588 1110.01 15.4588C1112.23 15.1922 1112.99 15.2455 1114.3 14.3927C1114.67 14.979 1115.38 15.3522 1116.36 15.3522C1117.33 15.3522 1120.8 14.7125 1121.4 15.2455C1121.89 15.672 1121.83 15.7253 1122.92 15.7253C1124.11 15.7253 1125.25 15.672 1126.44 15.672C1127.26 15.672 1127.31 15.1922 1127.42 15.1389C1127.96 15.0323 1128.02 15.6187 1127.91 15.6187C1128.88 15.5121 1128.78 15.0856 1129.43 15.0856C1129.21 15.0856 1130.02 15.5654 1130.46 15.5654C1130.84 16.1517 1130.46 16.0451 1131.49 16.0451C1131.87 15.5121 1132.14 15.6187 1132.46 15.0323C1134.69 14.979 1132.95 15.2989 1132.95 15.7786C1132.95 16.2583 1134.58 15.9918 1135.01 15.9918C1136.15 15.9918 1137.4 15.8319 1138.54 15.9385C1138.76 15.9385 1139.73 16.365 1139.62 16.4183C1140.17 16.365 1143.15 15.2989 1143.1 16.1517C1143.04 16.898 1144.99 15.5654 1145.1 15.3522C1146.62 15.3522 1146.35 15.8319 1147.65 15.8319C1148.57 15.8319 1151.66 15.2455 1152.21 15.7253C1152.64 16.1517 1152.15 16.1517 1153.24 16.205C1154.11 16.205 1154.92 16.1517 1155.79 16.1517C1157.96 16.0984 1160.18 16.0451 1162.35 16.0451C1163.92 16.0451 1163.81 16.5249 1165.39 16.4716C1167.34 16.4183 1169.51 16.6315 1171.46 16.365C1172.49 16.2583 1174.61 15.3522 1175.75 15.2989C1176.07 15.2989 1175.96 15.7253 1176.5 15.7786C1177.16 15.8852 1177.86 15.6187 1178.51 15.7253C1179.33 15.8852 1179.7 16.205 1181.06 16.1517C1182.31 16.1517 1182.15 16.6315 1183.61 16.6315C1186 16.5782 1188.33 16.5249 1190.66 16.5249C1193.21 16.4716 1199.39 18.7637 1200.75 16.365C1201.35 16.365 1203.84 16.7381 1203.79 17.0579C1203.68 17.9641 1205.85 16.7914 1205.79 16.7914C1205.74 16.7914 1206.12 17.3244 1206.82 17.2711C1207.64 17.1645 1207.58 16.7914 1207.8 16.7381C1208.34 16.5782 1209.75 16.5782 1210.29 16.6848C1210.51 16.7381 1211.05 17.2178 1210.84 17.1645C1211.98 17.2178 1212.63 16.4183 1214.36 16.5782C1214.9 16.6315 1215.61 17.1112 1215.88 17.5377C1218 17.4844 1218.48 17.1645 1220.44 16.9513C1220.98 17.7509 1222.66 17.3777 1223.96 17.3777C1224.45 18.0707 1223.96 17.8575 1224.45 17.3777C1224.61 17.3777 1224.78 17.3777 1224.94 17.3777C1225.32 16.7914 1225.59 17.0046 1225.91 16.365C1226.08 16.365 1226.24 16.365 1226.4 16.365C1226.84 16.9513 1226.78 16.9513 1227.43 17.3244C1227.98 17.6443 1227.7 17.8042 1228.95 17.8042C1229.49 18.4971 1229.82 18.124 1230.96 18.2839C1231.12 18.2839 1232.42 18.7637 1231.99 18.7637C1233.18 18.7637 1233.4 18.124 1235.03 18.2306C1236.33 18.2839 1236.27 18.6038 1237.68 18.7104C1238.23 17.8575 1239.8 17.6976 1241.21 17.6443C1241.43 17.9641 1241.43 18.3372 1241.7 18.6038C1241.86 18.6038 1242.02 18.6038 1242.19 18.6038C1242.19 18.7637 1242.19 18.9236 1242.19 19.0835C1242.57 19.4566 1242.4 18.9769 1242.67 19.5632C1243.32 19.5632 1244.03 19.5632 1244.68 19.5099C1245.66 19.5099 1244.79 18.9769 1245.44 18.9769C1246.09 19.0302 1246.9 19.5099 1246.96 19.4566C1248.31 19.2967 1249.89 19.2967 1251.24 19.35C1251.79 19.4033 1252.44 19.4033 1253.03 19.2967C1253.58 19.2434 1253.14 19.8298 1253.25 19.8298C1253.63 19.8298 1255.85 18.8703 1255.74 19.5632C1255.69 20.043 1256.94 19.7765 1257.26 19.7765C1258.35 19.7232 1258.29 19.7232 1258.78 19.2434C1259.38 18.6038 1260.9 19.7765 1261.55 19.6699C1261.66 19.6699 1262.25 20.0963 1262.8 20.1496C1263.66 20.2562 1262.85 19.6699 1263.77 19.6166C1264.8 19.6166 1265.45 19.8298 1266.81 20.043C1268.38 20.2562 1268.6 20.5227 1270.33 20.4694C1270.77 20.4694 1275.43 20.1496 1275.38 20.6293C1275.32 21.4289 1278.25 20.3095 1278.42 20.3095C1278.14 20.3095 1279.07 20.7893 1279.45 20.7893C1280.04 20.7893 1280.64 20.736 1281.24 20.7893C1281.51 20.7893 1281.62 20.2562 1282.48 20.2562C1283.3 20.2562 1282.65 20.4694 1282.97 20.736C1283.73 21.2157 1287.2 20.736 1288.02 20.6293C1289.43 20.5227 1289.7 20.5227 1290.51 20.0963C1291.16 21.0025 1292.9 20.5227 1293.55 21.5355C1294.25 21.4822 1294.36 21.0025 1295.55 21.0025C1296.59 21.0025 1297.56 20.9492 1298.59 20.9492C1299.03 20.9492 1299.46 20.8959 1299.89 20.9492C1300.49 20.9492 1299.84 20.5227 1300.11 20.4161C1301.2 19.9897 1301.25 20.6293 1301.63 20.8959C1302.17 21.2157 1304.02 20.8426 1304.67 20.8426C1305.37 20.8426 1305.21 21.269 1306.19 21.3223C1307.38 21.3756 1306.89 20.7893 1307.7 20.7893C1308.46 20.7893 1308.79 21.3223 1308.95 21.269C1309.93 21.1624 1315.3 21.0025 1315.24 21.4289C1315.19 21.8554 1317.9 21.6421 1318.28 21.6421C1319.64 21.5888 1320.18 21.4822 1320.83 22.0686C1320.88 22.1219 1321.81 21.5355 1322.35 21.5355C1323.87 21.4822 1325.38 21.4822 1326.9 21.4822C1329.18 21.4289 1329.4 21.9087 1331.46 21.9087C1332.06 21.9087 1332.65 21.8554 1333.25 21.9087C1333.85 21.962 1333.2 21.5355 1333.47 21.3756C1334.55 20.8959 1334.66 21.6421 1334.98 21.8554C1335.42 22.1219 1336.99 21.8021 1337.48 21.8021C1338.18 21.8021 1337.97 22.2285 1339 22.2818C1340.3 22.3884 1341.71 22.2285 1343.01 22.2285C1343.83 22.2285 1343.99 21.6954 1344.26 21.6954C1344.69 21.6954 1344.58 22.2285 1345.56 22.1752C1346.59 22.1752 1347.57 22.1219 1348.6 22.1219C1352.5 22.0686 1356.41 22.9748 1360.2 22.9215C1362.75 22.8682 1364 22.4417 1366.01 22.3351C1366.12 22.3351 1367.09 22.7615 1367.8 22.8148C1369.15 22.9215 1370.51 22.6549 1371.87 22.7615C1372.68 22.8148 1372.25 23.2413 1373.38 23.2413C1374.42 23.2413 1375.39 23.2413 1376.42 23.188C1377.51 23.1347 1377.18 22.6549 1377.94 22.6549C1379.3 22.6549 1380.65 22.6016 1381.95 22.6016C1383.58 22.5483 1383.64 23.5611 1385.48 23.5078C1386.56 23.5078 1386.24 22.9748 1387 22.9748C1388.19 22.9748 1389.33 22.9215 1390.52 22.9215C1394.48 22.8682 1396.98 23.7743 1401.15 23.721C1403.16 23.6677 1404.62 24.2541 1407.23 24.0942C1407.66 24.0942 1409.45 24.3607 1409.78 24.0409C1409.94 23.8809 1409.99 23.7743 1409.99 23.6677C1409.99 23.721 1410.1 23.8809 1410.27 24.0409C1410.59 24.3607 1412.38 23.5611 1412.27 24.2541C1412.22 24.6805 1414.33 24.4673 1414.82 24.4673C1417.86 24.414 1420.9 24.3607 1423.88 24.3074C1427.24 24.2541 1430.6 24.2008 1433.97 24.1475C1436.03 24.0942 1437.28 24.5206 1438.79 24.5739C1438.79 24.5739 1439.93 24.0942 1440.53 24.0409C1441.83 23.8809 1443.24 23.9876 1444.6 23.9876C1445.09 24.0942 1447.8 24.7338 1447.8 24.7871C1447.74 25.107 1455.93 24.8937 1456.91 24.8404C1457.67 24.8404 1457.34 24.414 1458.43 24.3074C1459.19 24.2541 1458.81 24.8404 1459.95 24.7871C1459.68 24.8404 1460.27 24.3607 1460.43 24.3074C1461.03 24.1475 1461.84 24.3074 1462.44 24.2541C1463.04 24.2541 1466.02 24.6272 1466.51 24.2008C1466.94 23.7743 1466.45 23.7743 1467.49 23.6677C1467.97 23.6144 1468.52 23.6677 1469 23.6144C1471.01 23.5611 1473.07 23.5611 1475.08 23.5078C1477.79 23.4545 1478.88 23.9342 1481.64 23.8809C1483.16 23.8276 1484.68 23.8276 1486.2 23.7743C1487.23 23.7743 1486.25 24.3074 1486.96 24.2541C1487.44 24.2541 1487.12 23.721 1487.17 23.721C1489.89 23.5611 1492.22 24.7338 1494.22 23.6144C1494.71 23.3479 1494.12 23.188 1495.2 23.0814C1495.47 23.5078 1496.77 24.2008 1496.99 24.2008C1497.59 24.1475 1498.18 24.1475 1498.78 24.1475C1499.81 24.1475 1499.38 24.2541 1499.81 24.6272C1500.9 25.64 1506.05 24.3607 1506.86 23.9876C1506.92 23.9876 1508.49 22.9215 1508.38 23.721C1508.27 24.2008 1510.93 23.9342 1511.42 23.9342C1515.59 23.8809 1519.82 23.7743 1524 23.721C1524.65 22.7615 1525.36 22.7082 1527.04 22.6549C1527.42 23.2413 1526.98 23.188 1528.07 23.1347C1529.1 23.1347 1528.61 23.4545 1529.04 23.6144C1529.37 23.7743 1530.62 23.7743 1530.56 23.3479C1530.45 22.4417 1531.43 23.5611 1531.05 23.5611C1531.97 23.4545 1531.76 23.188 1532.03 23.0281C1532.68 22.8681 1533.55 23.2946 1534.09 23.0281C1534.41 22.9215 1534.03 22.5483 1534.85 22.495C1535.44 22.4417 1534.74 23.0814 1535.34 23.0281C1536.09 22.9215 1536.91 23.0281 1537.61 22.9748C1538.32 22.9748 1537.88 22.5483 1538.1 22.495C1538.86 22.2818 1539.46 22.3884 1540 22.6016V0.00034523L0.00012207 0.00034523V15.3522C0.325439 15.4055 0.7052 15.5121 1.19324 15.5654ZM1107.79 10.9812C1108.17 11.3543 1108 10.8745 1108.28 11.4609C1108.28 12.527 1107.3 11.9939 1107.24 10.9812C1106.21 10.608 1107.19 10.4481 1107.79 10.9812ZM1079.53 12.9534C1079.26 13.22 1078.72 12.7402 1079.04 12.4737C1079.31 12.2072 1079.8 12.6869 1079.53 12.9534ZM1025.94 8.42252C1025.67 8.68905 1025.13 8.2093 1025.46 7.94278C1025.67 7.62295 1026.21 8.156 1025.94 8.42252ZM989.713 14.4993C989.442 14.7658 988.9 14.2861 989.171 14.0195C989.442 13.753 989.985 14.2328 989.713 14.4993ZM985.537 8.63574C985.266 8.90227 984.724 8.42252 985.049 8.156C985.32 7.83617 985.808 8.31591 985.537 8.63574ZM923.49 12.1539C925.009 12.1539 924.575 13.1667 924.25 13.1667C923.653 13.06 924.25 13.9129 924.033 14.1795C923.87 14.1795 923.707 14.1795 923.544 14.1795C923.056 13.4332 922.731 12.8468 923.49 12.1539ZM844.304 15.0323C844.033 15.2989 843.491 14.8191 843.762 14.5526C844.033 14.2328 844.576 14.7125 844.304 15.0323ZM823.532 9.91506C823.261 10.1816 822.718 9.70184 823.044 9.43531C823.261 9.11548 823.803 9.64853 823.532 9.91506ZM796.847 16.3116C796.576 16.5782 796.034 16.0984 796.359 15.8319C796.63 15.5121 797.118 16.0451 796.847 16.3116ZM784.752 15.0323C784.481 15.2989 783.939 14.8191 784.21 14.5526C784.481 14.2328 785.024 14.7658 784.752 15.0323ZM714.136 18.7104C714.624 17.7509 714.787 18.7104 714.136 18.7104C713.594 19.6699 713.431 18.7104 714.136 18.7104ZM688.374 19.1368C688.102 19.4033 687.614 18.9236 687.885 18.6571C688.157 18.3905 688.645 18.8703 688.374 19.1368ZM563.195 20.3095C562.924 20.576 562.382 20.0963 562.653 19.8298C562.924 19.5099 563.466 20.043 563.195 20.3095ZM445.501 17.8575C446.098 18.6571 445.881 18.3372 445.501 18.8703C444.796 19.9897 444.85 18.2306 445.501 17.8575ZM379.875 18.4971C379.929 20.8426 377.488 18.5505 379.875 18.4971V18.4971ZM326.885 19.4033C326.614 19.6699 326.072 19.1901 326.343 18.9236C326.614 18.6038 327.156 19.0835 326.885 19.4033Z" fill="#DCE3B9"/>
</svg>
