<svg width="41" height="22" viewBox="0 0 41 22" fill="none" xmlns="http://www.w3.org/2000/svg">
<path d="M19.2148 8.65106C19.4553 8.59468 19.6958 8.5383 19.971 8.47887C20.5941 8.38901 21.249 8.26102 21.8721 8.17116C22.1821 8.10869 22.5617 8.04014 22.8718 7.97767C23.8397 7.82229 24.9222 7.37412 25.53 7.10887C26.1347 6.80855 26.6637 6.44415 27.1897 6.04468C27.5191 5.80378 27.8077 5.49578 28.0962 5.18776C28.3213 4.956 28.5147 4.76234 28.6989 4.46346C29.0417 3.97398 29.3497 3.48754 29.6546 2.96602C29.9595 2.44451 30.3023 1.95502 30.6072 1.4335C30.7658 1.2429 30.8835 0.985178 31.0073 0.797617C31.036 0.724419 31.1025 0.683251 31.2038 0.639042C31.3081 0.629912 31.4186 0.690938 31.523 0.681807C31.5639 0.748918 31.6048 0.816034 31.611 0.886188C31.7481 1.6518 31.8852 2.41741 32.0223 3.18303C32.0437 3.42857 32.0652 3.67411 32.1184 3.88153C32.1716 4.08895 32.2627 4.3284 32.2811 4.53886C32.3803 5.27244 32.6474 5.92066 32.9523 6.6009C33.0812 6.87238 33.251 7.21098 33.4147 7.47942C33.8301 8.22068 34.3786 8.87962 34.9873 9.42724C35.4447 9.84672 35.9686 10.225 36.4546 10.5713C37.1268 11.0427 37.8655 11.4729 38.6012 11.868C38.8601 12.0221 39.1537 12.1732 39.4474 12.3242C39.4914 12.4264 39.6745 12.5164 39.5916 12.7711C39.4075 13.0699 38.9839 13.0363 38.7056 13.0607C37.8768 13.2039 37.0132 13.3501 36.1465 13.4613C35.6943 13.5008 35.2512 13.6456 34.8113 13.8255C34.3713 14.0054 33.8525 14.0861 33.4566 14.3682C32.9593 14.6945 32.3484 14.9246 31.8982 15.3882C31.6445 15.6931 31.2423 15.905 30.9538 16.2131C30.5322 16.6034 30.2242 17.0898 29.8814 17.5793C29.6594 17.8462 29.5479 18.174 29.3606 18.4378C29.0557 18.9594 28.7477 19.4458 28.4397 19.9322C28.2842 20.1579 28.2013 20.4126 28.011 20.6413C27.8872 20.8289 27.7982 21.0134 27.5199 21.0377C27.1883 20.8547 27.1894 20.4658 27.1648 20.1852C27.0993 19.8374 27.0308 19.4546 26.997 19.0688C26.9725 18.7882 26.8784 18.5136 26.8538 18.233C26.8293 17.9524 26.7351 17.6779 26.6727 17.3652C26.4978 16.5676 26.2942 15.8431 25.9831 15.0927C25.6813 14.4476 25.3478 13.8405 24.9129 13.2777C24.2826 12.4845 23.5511 11.7356 22.6609 11.1772C22.1053 10.837 21.5497 10.4968 20.9594 10.1597C20.7005 10.0056 20.4386 9.81644 20.1828 9.69744C19.8922 9.58148 19.6998 9.38624 19.441 9.23216C19.2578 9.14215 19.1729 8.97284 19.2148 8.65106Z" fill="white" fill-opacity="0.3"/>
<path d="M0 16.4931C0.107463 16.3836 0.250754 16.3107 0.358217 16.2013C0.680605 15.9824 0.967166 15.7271 1.28955 15.5083C1.46866 15.3988 1.61194 15.2529 1.79104 15.1435C2.25671 14.8153 2.75821 14.2681 3.00895 13.9399C3.2597 13.6116 3.43881 13.2469 3.61792 12.9186C3.72538 12.6633 3.79702 12.4444 3.86866 12.1891C3.9403 12.0067 3.97613 11.8244 4.01195 11.642C4.04777 11.2773 4.11941 10.9125 4.11941 10.5843C4.11941 10.2195 4.19104 9.85477 4.22686 9.49003C4.26268 9.34414 4.22687 9.19823 4.26269 9.01586C4.26269 8.97939 4.29851 8.90644 4.33434 8.86996C4.40598 8.83349 4.4418 8.8335 4.51344 8.8335C4.54926 8.86997 4.6209 8.86997 4.6209 8.90645C4.90746 9.27119 5.15821 9.67239 5.44477 10.0371C5.55224 10.1466 5.58806 10.2925 5.69552 10.4019C5.80298 10.5113 5.87462 10.6207 5.94626 10.6937C6.19701 11.0584 6.51941 11.3502 6.87761 11.642C7.05672 11.7879 7.16419 11.8973 7.34329 12.0067C7.77314 12.2985 8.20298 12.5174 8.70447 12.6268C9.06268 12.6998 9.45671 12.8092 9.7791 12.8456C10.2806 12.9186 10.7821 12.9551 11.2478 12.9915C11.4269 13.028 11.606 12.9915 11.8209 13.028C11.8567 13.0645 12 13.0645 12 13.2469C11.9642 13.4657 11.7492 13.5387 11.5701 13.6116C11.1403 13.9034 10.7105 14.2317 10.2806 14.487C10.0299 14.6329 9.88656 14.8517 9.67164 15.0341C9.45671 15.2165 9.20597 15.3988 9.06269 15.6906C8.88358 15.9824 8.63284 16.2742 8.48956 16.639C8.41791 16.8943 8.27462 17.0766 8.20298 17.332C8.09552 17.6602 8.02388 18.025 7.95224 18.3533C7.91642 18.5721 7.8806 18.7545 7.91642 18.9733C7.91642 19.338 7.84477 19.7028 7.80895 20.0311C7.77313 20.2134 7.80896 20.3593 7.77314 20.5052C7.77314 20.6147 7.73731 20.7605 7.62985 20.8335C7.41492 20.797 7.30747 20.6146 7.2 20.4323C7.09254 20.2134 6.91343 20.0675 6.80597 19.8852C6.73433 19.7393 6.59104 19.5934 6.5194 19.4475C6.44776 19.3016 6.30447 19.1557 6.19701 19.0463C5.91044 18.6815 5.62389 18.3168 5.22986 18.025C4.90747 17.7697 4.54925 17.4779 4.15522 17.332C3.61791 17.0766 3.00895 16.8578 2.43582 16.7849C2.04179 16.7119 1.64777 16.7119 1.25374 16.6754C1.07463 16.6754 0.895525 16.639 0.71642 16.639C0.537316 16.639 0.358214 16.6025 0.21493 16.6025C0.143288 16.7484 0.0716417 16.6754 0 16.4931Z" fill="white" fill-opacity="0.3"/>
</svg>
