<svg width="41" height="22" viewBox="0 0 41 22" fill="none" xmlns="http://www.w3.org/2000/svg">
<path d="M19.2152 8.651C19.4557 8.59462 19.6961 8.53824 19.9714 8.47881C20.5945 8.38895 21.2493 8.26096 21.8725 8.1711C22.1825 8.10863 22.5621 8.04008 22.8721 7.97761C23.8401 7.82223 24.9226 7.37406 25.5304 7.10881C26.1351 6.80849 26.6641 6.44409 27.19 6.04462C27.5195 5.80372 27.8081 5.49571 28.0966 5.1877C28.3217 4.95593 28.5151 4.76228 28.6993 4.4634C29.0421 3.97391 29.3501 3.48748 29.655 2.96596C29.9599 2.44444 30.3027 1.95496 30.6076 1.43344C30.7662 1.24284 30.8839 0.985117 31.0077 0.797556C31.0363 0.724358 31.1028 0.68319 31.2041 0.638981C31.3085 0.629851 31.419 0.690877 31.5234 0.681746C31.5643 0.748857 31.6052 0.815973 31.6114 0.886127C31.7484 1.65174 31.8855 2.41735 32.0226 3.18296C32.0441 3.42851 32.0656 3.67405 32.1188 3.88147C32.172 4.08889 32.2631 4.32834 32.2815 4.5388C32.3807 5.27238 32.6477 5.9206 32.9526 6.60084C33.0816 6.87232 33.2514 7.21092 33.4151 7.47936C33.8305 8.22062 34.3789 8.87956 34.9877 9.42718C35.4451 9.84666 35.9689 10.225 36.455 10.5713C37.1272 11.0426 37.8659 11.4728 38.6016 11.868C38.8604 12.022 39.1541 12.1731 39.4478 12.3241C39.4917 12.4263 39.6749 12.5163 39.592 12.771C39.4078 13.0699 38.9842 13.0362 38.7059 13.0606C37.8771 13.2038 37.0136 13.35 36.1469 13.4612C35.6947 13.5008 35.2516 13.6456 34.8116 13.8255C34.3717 14.0053 33.8529 14.0861 33.4569 14.3681C32.9596 14.6944 32.3488 14.9246 31.8986 15.3881C31.6448 15.6931 31.2427 15.905 30.9541 16.213C30.5326 16.6033 30.2246 17.0898 29.8818 17.5793C29.6598 17.8461 29.5482 18.174 29.361 18.4378C29.0561 18.9593 28.7481 19.4457 28.4401 19.9322C28.2846 20.1579 28.2017 20.4125 28.0114 20.6413C27.8875 20.8288 27.7985 21.0133 27.5202 21.0377C27.1887 20.8546 27.1897 20.4657 27.1652 20.1851C27.0997 19.8374 27.0312 19.4546 26.9974 19.0687C26.9728 18.7881 26.8787 18.5136 26.8542 18.233C26.8296 17.9523 26.7355 17.6778 26.6731 17.3652C26.4981 16.5675 26.2945 15.8431 25.9835 15.0927C25.6817 14.4475 25.3481 13.8405 24.9133 13.2776C24.283 12.4845 23.5514 11.7355 22.6613 11.1772C22.1057 10.837 21.5501 10.4968 20.9597 10.1596C20.7009 10.0055 20.4389 9.81638 20.1831 9.69738C19.8925 9.58142 19.7002 9.38618 19.4413 9.2321C19.2582 9.14209 19.1733 8.97278 19.2152 8.651Z" fill="#008482" fill-opacity="0.3"/>
<path d="M0 16.493C0.107463 16.3836 0.250754 16.3107 0.358217 16.2012C0.680605 15.9824 0.967166 15.7271 1.28955 15.5082C1.46866 15.3988 1.61194 15.2529 1.79104 15.1435C2.25671 14.8152 2.75821 14.2681 3.00895 13.9398C3.2597 13.6116 3.43881 13.2468 3.61792 12.9186C3.72538 12.6632 3.79702 12.4444 3.86866 12.1891C3.9403 12.0067 3.97613 11.8243 4.01195 11.642C4.04777 11.2772 4.11941 10.9125 4.11941 10.5842C4.11941 10.2195 4.19104 9.85474 4.22686 9.49C4.26268 9.3441 4.22687 9.1982 4.26269 9.01583C4.26269 8.97936 4.29851 8.90641 4.33434 8.86993C4.40598 8.83346 4.4418 8.83347 4.51344 8.83347C4.54926 8.86994 4.6209 8.86994 4.6209 8.90642C4.90746 9.27116 5.15821 9.67236 5.44477 10.0371C5.55224 10.1465 5.58806 10.2924 5.69552 10.4019C5.80298 10.5113 5.87462 10.6207 5.94626 10.6936C6.19701 11.0584 6.51941 11.3502 6.87761 11.642C7.05672 11.7879 7.16419 11.8973 7.34329 12.0067C7.77314 12.2985 8.20298 12.5174 8.70447 12.6268C9.06268 12.6997 9.45671 12.8091 9.7791 12.8456C10.2806 12.9186 10.7821 12.955 11.2478 12.9915C11.4269 13.028 11.606 12.9915 11.8209 13.028C11.8567 13.0645 12 13.0645 12 13.2468C11.9642 13.4657 11.7492 13.5386 11.5701 13.6116C11.1403 13.9034 10.7105 14.2316 10.2806 14.487C10.0299 14.6329 9.88656 14.8517 9.67164 15.0341C9.45671 15.2164 9.20597 15.3988 9.06269 15.6906C8.88358 15.9824 8.63284 16.2742 8.48956 16.6389C8.41791 16.8943 8.27462 17.0766 8.20298 17.3319C8.09552 17.6602 8.02388 18.025 7.95224 18.3532C7.91642 18.5721 7.8806 18.7544 7.91642 18.9733C7.91642 19.338 7.84477 19.7028 7.80895 20.031C7.77313 20.2134 7.80896 20.3593 7.77314 20.5052C7.77314 20.6146 7.73731 20.7605 7.62985 20.8335C7.41492 20.797 7.30747 20.6146 7.2 20.4322C7.09254 20.2134 6.91343 20.0675 6.80597 19.8851C6.73433 19.7392 6.59104 19.5933 6.5194 19.4474C6.44776 19.3015 6.30447 19.1556 6.19701 19.0462C5.91044 18.6815 5.62389 18.3167 5.22986 18.025C4.90747 17.7696 4.54925 17.4778 4.15522 17.3319C3.61791 17.0766 3.00895 16.8578 2.43582 16.7848C2.04179 16.7119 1.64777 16.7119 1.25374 16.6754C1.07463 16.6754 0.895525 16.6389 0.71642 16.6389C0.537316 16.6389 0.358214 16.6025 0.21493 16.6025C0.143288 16.7484 0.0716417 16.6754 0 16.493Z" fill="#008482" fill-opacity="0.3"/>
</svg>
