<svg width="1540" height="25" viewBox="0 0 1540 25" fill="none" xmlns="http://www.w3.org/2000/svg">
<path fill-rule="evenodd" clip-rule="evenodd" d="M1538.81 15.5651C1537.94 15.6184 1526.71 15.6184 1526.71 15.6184C1526.77 15.0321 1523.46 15.5651 1523.19 15.8317C1522.64 16.3647 1522.32 16.3114 1521.18 16.3114C1519.66 16.3114 1518.14 16.2581 1516.62 16.2048C1515.54 16.2048 1515.86 16.6845 1515.11 16.6845C1513.75 16.6312 1512.39 16.6312 1511.09 16.6312C1510.33 16.6312 1503.99 16.3114 1504.04 16.7911C1504.1 17.3775 1500.95 16.5246 1500.52 16.4713C1498.4 16.2048 1496.88 16.7378 1495.47 16.8978C1495.53 16.8978 1495.63 16.3647 1495.25 16.3647C1494.6 16.3647 1495.25 16.7911 1494.98 16.8445C1493.84 17.1643 1492.05 16.7911 1490.97 16.7911C1489.61 16.7378 1488.26 16.7378 1486.9 16.7378C1486.14 16.7378 1486.52 16.2048 1485.38 16.2048C1485.22 16.2048 1485.65 16.7378 1485.17 16.7378C1484.73 16.6845 1484.3 16.6845 1483.86 16.6845C1482.78 16.6845 1483.27 17.0044 1482.83 17.1643C1481.21 17.8039 1478.06 17.0577 1476.27 17.0577C1475.51 17.0577 1475.89 17.5374 1474.75 17.5374C1474.05 17.5374 1474.48 16.9511 1474.05 17.0044C1471.93 17.1643 1469.82 16.8445 1467.7 16.8978C1466.78 18.1771 1465.64 17.4841 1463.63 17.8039C1462.88 17.9105 1462.82 18.2837 1461.57 18.2837C1460.33 18.2837 1459.02 18.1771 1457.78 18.2304C1457.67 18.2304 1456.8 17.6973 1456.04 17.6973C1454.69 17.644 1454.09 17.5374 1453.49 18.1238C1453.06 18.4969 1449.91 18.0705 1449.48 18.0705C1449.04 18.0705 1448.61 18.0705 1448.18 18.0705C1447.58 18.0705 1448.23 17.644 1447.96 17.5907C1447.47 17.4308 1446.71 17.5374 1446.17 17.5374C1445.57 17.4841 1446.22 17.9639 1445.95 18.0705C1445.14 18.337 1443.78 18.0172 1442.92 18.0172C1441.67 17.9639 1442.1 18.3903 1440.91 18.4969C1439.23 18.6035 1437.55 18.4436 1435.87 18.3903C1434.83 18.3903 1433.86 18.337 1432.83 18.337C1431.63 18.2837 1432.77 18.3903 1432.29 18.8167C1431.69 19.4031 1431.31 18.337 1431.31 18.2837C1431.09 18.1771 1430.39 18.7634 1429.79 18.7634C1428.98 18.7634 1429.41 18.2304 1428.27 18.2304C1428.11 18.2304 1428.54 18.8167 1428 18.7101C1427.57 18.6568 1427.19 18.6568 1426.75 18.6568C1425.72 18.6568 1424.75 18.6035 1423.72 18.6035C1422.58 18.6035 1421.38 18.5502 1420.19 18.5502C1419.76 18.5502 1418.94 19.03 1419.16 19.03C1417.97 18.9766 1418.35 18.6568 1417.15 18.4969C1416.07 18.337 1414.93 18.4969 1413.85 18.4436C1413.57 18.4436 1412.6 19.3498 1411.57 18.9233C1411.3 18.8167 1411.73 18.5502 1411.08 18.3903C1410.59 18.2837 1410.05 18.3903 1409.56 18.3903C1408.96 18.337 1408.1 18.2304 1407.55 18.337C1407.34 18.3903 1407.88 18.87 1407.34 18.87C1406.85 18.8167 1406.31 18.8167 1405.82 18.87C1405.22 18.87 1405.82 18.4436 1405.6 18.337C1405.06 18.1771 1404.35 18.337 1403.81 18.2837C1403.16 18.2304 1403.87 18.6568 1403.54 18.8167C1402.73 19.1366 1400.94 18.7634 1400.01 18.7634C1399.58 18.0705 1398.93 18.4436 1398.5 17.7506C1397.52 17.7506 1394.92 18.4969 1394.43 19.1899C1392.42 19.1366 1390.41 19.1366 1388.35 19.0833C1386.73 19.03 1385.97 18.4969 1384.83 18.4969C1385.15 18.4969 1384.5 18.9766 1384.29 18.9766C1383.85 19.0833 1383.2 18.9766 1382.77 18.9766C1382.12 18.9766 1381.41 18.9766 1380.76 18.9233C1379.57 18.87 1380.71 18.9766 1380.27 19.4031C1379.57 20.0427 1378.86 18.9233 1378.75 18.87C1378.27 18.5502 1376.37 18.8167 1375.72 18.8167C1374.9 18.8167 1371.59 20.2027 1370.67 19.2432C1370.13 18.7101 1369.59 18.7634 1368.39 18.7101C1367.74 18.6568 1368.61 19.2432 1367.64 19.1899C1367.15 19.1899 1366.6 19.1899 1366.12 19.1366C1363.57 19.0833 1362.37 19.563 1359.55 19.5097C1356.46 19.4564 1353.32 19.2965 1350.23 19.3498C1350.17 19.3498 1349.09 18.1771 1348.49 18.8167C1347.89 19.4031 1347.73 19.0833 1346.48 19.2965C1345.51 19.4564 1345.07 19.7229 1344.48 19.7762C1343.23 19.8295 1343.72 19.1899 1342.47 19.2432C1342.63 19.2432 1341.98 19.7229 1341.44 19.7229C1340.25 19.7229 1339.11 19.6696 1337.91 19.6696C1336.77 19.6696 1335.53 19.5097 1334.39 19.6163C1333.68 19.6696 1334.17 19.9894 1333.85 20.0961C1332.27 20.7357 1328.96 19.9894 1327.28 19.9894C1326.04 19.9361 1325.82 20.4692 1324.25 20.4159C1323.76 20.4159 1319.15 20.0961 1319.2 20.5758C1319.26 21.0022 1317.57 20.789 1317.2 20.789C1316.44 20.789 1316.98 20.3626 1316.71 20.3093C1315.41 19.8295 1315.3 20.789 1314.16 20.7357C1313.4 20.7357 1312.64 20.6824 1311.88 20.6824C1311.28 20.7357 1312.04 20.1494 1311.39 20.1494C1310.85 20.1494 1311.39 20.6291 1310.63 20.6291C1310.31 20.6291 1308.84 20.3626 1308.63 20.5758C1308.14 21.0555 1308.19 21.0555 1307.11 21.0555C1306.24 21.0555 1305.43 21.0022 1304.61 21.0022C1302.61 20.9489 1301.41 21.3221 1300.06 21.4287C1297.72 21.6419 1295.34 21.2688 1293.01 21.3221C1292.14 21.3221 1292.9 21.8018 1291.97 21.8018C1290.78 21.8018 1289.64 21.7485 1288.45 21.7485C1287.69 21.7485 1286.93 21.6419 1286.17 21.6952C1285.58 21.7485 1286.33 21.1088 1285.68 21.1621C1284.65 21.2155 1284.38 21.6419 1282.92 21.6419C1281.34 21.5886 1281.13 21.1088 1279.88 21.0555C1280.21 21.0555 1278.74 21.5353 1278.36 21.5353C1277.6 21.5886 1276.79 21.5353 1276.08 21.482C1275.98 21.482 1275.11 21.9617 1274.35 21.9617C1272.83 21.9084 1271.31 21.9084 1269.79 21.8551C1267.51 21.8018 1267.08 21.4287 1265.24 21.2688C1263.55 21.1621 1262.8 21.8018 1261.71 21.6952C1261.55 21.6952 1262.04 21.1621 1261.49 21.1621C1261.11 21.2155 1260.57 21.2155 1260.25 21.1621C1259.38 20.9489 1259.32 21.0022 1258.73 20.6291C1258.51 20.8956 1257.75 21.6419 1257.48 21.6419C1255.85 21.5353 1254.28 21.5886 1252.65 21.5353C1250.16 21.482 1248.86 22.3349 1246.09 21.9084C1245.71 21.8551 1244.36 21.6952 1244.08 21.3754C1243.7 21.0022 1244.19 21.1621 1243.6 20.8956C1243.54 20.9489 1242.94 21.4287 1243.11 21.3754C1242.19 21.7485 1241.81 21.8551 1240.56 21.8018C1239.31 21.8018 1239.8 21.2688 1238.55 21.2688C1238.82 21.2688 1237.47 21.7485 1237.03 21.7485C1236.71 21.7485 1234.7 21.9617 1234.54 21.6952C1234.43 21.5353 1233.62 20.5758 1233.02 21.1621C1232.21 21.9084 1233.07 21.2155 1232.53 21.1621C1232.15 21.1088 1230.25 20.8423 1230.04 21.1088C1229.28 21.8551 1230.09 21.1621 1229.55 21.1088C1227.6 20.9489 1227.22 21.0555 1226.51 22.0683C1225.48 22.0683 1224.45 22.1216 1223.47 22.015C1223.8 22.0683 1222.93 20.8423 1222.99 21.7485C1223.04 22.2282 1222.33 22.015 1221.96 22.015C1221.2 22.015 1220.17 21.8018 1219.46 21.9617C1219.24 22.015 1218.7 22.4415 1218.92 22.4415C1218.21 22.4415 1217.02 21.3221 1216.42 21.9084C1215.83 22.4948 1215.23 22.3882 1213.87 22.3349C1210.24 22.2816 1206.66 22.2816 1203.79 21.6419C1203.62 21.9084 1203.35 22.015 1203.24 22.1216C1202.7 22.8679 1201.67 22.8146 1201.24 22.0683C1200.53 22.0683 1199.45 22.2282 1198.74 22.015C1198.04 21.8551 1198.63 21.7485 1198.25 21.482C1197.71 21.1088 1197.66 21.0022 1196.74 20.9489C1196.41 21.4287 1195.7 21.9617 1194.95 21.9084C1194.57 21.8551 1194.73 22.1216 1194.67 22.4415C1194.67 23.401 1193.43 22.9212 1192.67 22.9212C1191.47 22.9212 1190.28 22.8679 1189.14 22.8679C1188.38 22.8679 1185.94 22.015 1185.62 22.3349C1185.13 22.7613 1185.18 22.8146 1184.1 22.8146C1183.5 22.8146 1183.01 23.2943 1183.07 23.2943C1182.04 23.3477 1181.11 22.7613 1179.54 22.708C1179.27 22.708 1177.59 23.8807 1176.99 23.1877C1175.91 21.8018 1172.93 23.6142 1171.46 23.5609C1170.76 22.4948 1168.64 23.5609 1167.94 22.4948C1167.28 22.708 1166.15 23.401 1165.39 23.4543C1164.52 23.5076 1162.51 22.2816 1161.86 22.9212C1161.32 23.4543 1161.59 23.2943 1160.34 23.401C1159.2 23.4543 1157.96 23.3477 1156.82 23.3477C1155.3 23.3477 1153.78 23.2943 1152.26 23.2943C1151.18 23.2943 1151.66 22.9745 1151.28 22.7613C1149.22 21.8551 1144.94 22.6547 1142.72 22.6014C1141.63 22.6014 1141.96 23.0811 1141.2 23.0811C1140.17 23.0811 1139.19 23.0278 1138.16 23.0278C1134.31 22.9745 1130.4 22.8679 1126.55 22.8146C1125.36 22.8146 1124.22 22.7613 1123.03 22.7613C1122.16 22.7613 1122.97 22.2816 1122.05 22.2816C1120.8 22.2282 1120.21 22.7613 1118.53 22.708C1117.39 22.708 1117.82 22.2282 1117.01 22.1749C1115.92 22.1216 1116.41 22.4948 1115.98 22.6547C1114.89 23.0811 1114.78 22.3349 1114.46 22.1216C1114.08 21.8551 1112.89 22.0683 1112.45 22.0683C1111.53 22.0683 1112.34 22.6014 1111.42 22.5481C1111.64 22.5481 1110.93 22.015 1110.44 22.015C1105.83 21.9084 1102.69 22.3882 1097.81 22.2816C1094.72 22.2282 1087.94 21.1621 1085.66 22.5481C1085.22 21.8551 1084.57 21.3221 1084.14 22.015C1082.68 21.9617 1083 21.482 1082.13 21.482C1082.3 21.482 1081.97 21.9617 1081.64 21.9617C1081.16 21.9617 1080.61 21.9617 1080.13 21.9084C1079.42 22.9745 1073.56 22.015 1073.56 22.0683C1073.62 22.4415 1070.47 22.4948 1070.53 22.015C1070.63 21.1621 1067.65 22.2282 1067.49 22.2282C1067.71 22.2282 1067.22 21.8018 1067 21.7485C1066.62 21.6419 1066.13 21.7485 1065.75 21.6952C1065.48 21.6952 1065.32 22.1749 1064.51 22.1749C1062.82 22.1216 1060.98 21.9617 1059.95 22.6014C1059.57 22.0683 1057.24 21.5353 1056.42 21.5353C1055.23 21.5353 1055.07 22.015 1054.36 22.015C1053.93 22.015 1053.5 22.015 1053.12 21.9617C1052.52 21.9084 1053.12 22.3882 1052.84 22.4415C1051.76 22.7613 1050.73 22.2816 1050.35 21.9084C1049.7 21.2155 1048.83 22.3882 1048.83 22.3882C1047.64 22.8679 1047.48 21.8551 1046.82 21.8551C1046.12 21.8551 1046.34 22.2816 1045.31 22.3349C1045.74 22.3349 1044.22 21.0022 1044.33 22.0683C1044.33 22.6014 1043.19 22.2816 1042.81 22.2816C1042.11 21.2155 1041.18 21.2688 1039.29 21.2155C1038.85 21.8551 1038.2 21.5353 1037.77 22.1749C1036.52 22.1216 1037.01 21.6419 1035.76 21.6419C1035.27 21.6419 1034.19 21.4287 1033.75 21.5886C1033.48 21.6952 1034.13 22.1749 1033.48 22.0683C1032.4 21.9617 1031.26 22.015 1030.17 22.015C1029.52 22.015 1029.36 21.482 1028.17 21.482C1027.41 21.482 1027.73 21.9617 1026.65 21.9617C1024.97 21.9617 1023.29 21.9084 1021.6 21.8551C1019.11 21.8018 1016.78 22.0683 1015.04 22.2282C1015.26 22.2282 1014.93 21.2688 1014.55 21.7485C1014.17 22.1749 1014.55 22.3349 1013.52 22.2282C1012.38 22.0683 1012.71 21.6952 1011.52 21.6952C1011.79 21.6952 1011.19 22.1216 1011.03 22.1749C1010.59 22.2816 1009.94 22.1749 1009.51 22.1749C1008.15 22.1216 1006.8 22.0683 1005.5 22.1216C1005.39 22.1216 1005.71 22.6547 1005.22 22.6014C1004.68 22.6014 1005.17 22.1216 1005.01 22.0683C1004.19 21.9084 1002.78 21.8551 1001.97 22.015C1000.72 22.2816 1001.32 22.015 999.476 21.9617C996.222 21.9084 994.052 22.8146 991.937 21.3221C991.015 22.6547 986.73 22.708 985.862 21.2155C985.103 21.2688 983.801 21.6952 982.337 21.6419C981.252 21.5886 981.74 21.9084 981.307 22.1216C981.469 22.0683 979.571 22.4948 980.276 22.6014C978.92 22.3882 977.673 22.0683 975.72 22.015C973.225 21.9617 972.791 22.4415 970.676 22.4415C970.134 23.241 970.513 22.6547 969.646 22.4415C968.398 22.1216 967.693 22.7613 967.151 21.9084C966.825 22.015 964.819 23.5609 964.113 22.8679C963.951 22.708 963.897 22.6014 963.897 22.4948C963.897 22.5481 963.788 22.708 963.625 22.8146C963.354 23.0811 961.51 22.7613 961.076 22.7613C958.364 22.7613 955.707 22.6547 952.995 22.6014C950.771 22.5481 947.897 22.8146 946.432 21.9617C945.944 21.6952 946.541 21.5353 945.456 21.4287C945.293 21.6952 945.022 21.8018 944.914 21.9084C944.209 22.9212 942.093 21.8018 941.388 22.8146C940.195 22.8146 940.358 22.2816 938.893 22.2816C937.809 22.2816 937.483 22.1749 936.887 21.7485C936.29 22.6014 934.934 22.3349 934.338 23.1877C933.09 23.1877 933.578 22.6547 932.331 22.6547C931.138 22.6547 929.999 22.6014 928.805 22.6014C925.768 22.5481 922.731 22.4948 919.748 22.4415C919.043 22.4415 918.88 22.9212 917.687 22.9212C916.927 22.9212 917.307 22.4415 916.168 22.3882C915.192 22.3882 914.107 22.1749 913.131 22.3349C912.372 22.4415 912.751 22.8146 911.612 22.8146C911.775 22.8146 911.504 22.3349 911.124 22.2816C910.636 22.2282 910.094 22.2816 909.606 22.2816C907.924 22.1749 906.243 22.2282 904.561 22.1749C902.392 22.1216 900.168 22.0683 897.999 22.0683C897.348 22.0683 894.419 22.4415 893.931 22.015C893.389 21.482 893.172 21.5353 891.924 21.482C891.599 21.482 889.646 21.2155 889.429 21.4287C888.562 22.4415 885.036 21.8551 883.355 21.8018C882.053 21.8018 880.046 22.9745 878.311 22.2282C878.04 22.1216 878.69 21.6419 878.094 21.6952C877.768 21.7485 877.063 21.8018 876.792 21.6952C876.792 21.6952 876.413 20.6291 875.816 21.1621C875.274 21.6419 875.545 21.6419 874.297 21.6419C872.779 21.5886 871.26 21.5886 869.741 21.5886C868.223 21.5353 866.704 21.5353 865.186 21.482C864.426 21.482 864.806 21.0022 863.667 20.9489C863.992 20.9489 862.582 21.4287 862.148 21.4287C861.335 21.4287 860.467 21.3754 859.653 21.3754C857.375 21.3221 856.942 21.5353 856.128 20.3093C854.609 20.256 854.121 20.3093 853.091 20.7357C852.765 20.8956 853.308 21.2155 852.603 21.2155C852.114 21.2155 851.03 21.3754 850.596 21.1621C850.27 21.0022 850.867 20.6291 850.108 20.6291C849.348 20.6291 849.891 21.0022 849.62 21.1088C848.481 21.5886 848.209 20.6824 847.613 20.5758C845.877 20.256 843.816 20.5225 842.081 20.4692C841.05 20.4692 840.074 20.4159 839.043 20.4159C838.338 20.4159 838.772 19.9894 838.555 19.9361C837.471 19.6163 836.494 20.4159 836.277 20.4159C834.704 20.2027 833.077 20.3626 831.505 20.3093C831.83 20.3093 830.962 19.1366 831.016 20.0427C831.016 20.5225 830.366 20.3093 829.986 20.3093C828.25 20.256 828.359 19.7762 826.461 19.7229C825.755 19.7229 825.484 19.9361 825.484 19.1899C825.484 18.4969 824.345 18.2837 823.966 18.6568C822.881 19.6163 823.477 19.6696 822.338 19.6696C821.471 19.6696 820.657 19.6163 819.844 19.6163C819.084 20.7357 816.644 19.9894 815.776 19.563C815.233 20.3626 814.583 20.5225 813.227 20.5225C812.359 20.5225 811.545 20.5225 810.678 20.4692C810.081 20.4692 809.593 19.9361 809.701 19.9361C808.454 19.8295 808.942 20.5225 807.695 20.4159C807.803 20.4159 807.315 19.9361 806.718 19.8828C806.339 19.8828 805.145 19.6163 805.2 20.0961C805.254 20.5225 801.512 20.256 800.915 20.256C800.698 20.256 800.373 19.7762 799.667 19.7229C798.529 19.6163 797.281 19.8295 796.142 19.6696C795.6 19.563 794.135 18.6568 793.647 19.1366C793.159 19.6163 793.756 19.6163 792.617 19.6163C792.291 19.6163 790.827 19.8295 790.61 19.563C790.068 19.03 789.742 19.563 788.061 19.5097C784.698 19.4564 783.342 18.9766 780.468 19.3498C779.871 18.3903 779.112 18.337 777.485 18.2837C776.997 19.03 777.159 18.5502 775.966 18.7634C775.858 18.7634 774.502 19.2432 774.936 19.2432C773.797 19.2965 774.23 18.87 773.417 18.7101C772.603 18.5502 771.681 18.6568 770.868 18.6568C769.186 18.6568 768.915 19.1899 768.373 18.6035C767.776 18.0172 763.654 18.5502 762.841 18.4969C762.081 18.4969 762.624 18.9766 762.081 18.9766C761.81 18.9766 761.647 18.4969 760.834 18.4436C760.78 18.4436 761.051 18.9766 760.563 18.9766C760.129 18.9766 760.346 18.4436 760.346 18.4436C758.556 18.4969 758.285 18.7101 756.82 18.3903C756.332 18.2837 753.729 18.6035 753.783 18.1238C753.946 17.0577 752.59 18.4436 752.753 18.337C752.427 18.5502 750.637 18.4436 750.746 18.0705C750.8 17.5907 748.848 17.8039 748.468 17.8039C747.817 17.7506 748.685 18.337 747.709 18.2837C747.275 18.2837 746.841 18.2304 746.461 18.2837C746.19 18.2837 746.027 17.7506 745.214 17.7506C744.021 17.7506 743.858 17.2176 743.207 17.2176C742.014 17.1643 740.875 17.1643 739.682 17.1643C738.977 17.1643 738.814 17.644 737.675 17.644C737.241 17.644 736.807 17.5907 736.373 17.644C735.777 17.6973 736.373 17.1643 736.156 17.111C734.909 16.7911 731.112 17.2709 731.112 17.2709C731.275 16.6312 729.377 17.2709 729.105 17.0044C728.834 16.7378 728.834 16.3647 728.617 15.9916C728.292 15.9916 726.556 16.4713 726.556 16.6845C726.611 17.0044 723.519 17.0044 723.031 16.8445C722.76 16.7911 722.922 16.3647 722 16.3114C721.187 16.2581 721.838 16.5779 721.512 16.7911C720.97 17.1643 718.638 16.7911 717.987 16.7378C717.933 16.7378 718.15 16.0982 717.499 16.2581C717.282 16.3114 717.824 16.7911 717.228 16.7378C715.98 16.6845 714.678 16.6845 713.431 16.6845C711.912 16.6312 712.238 16.0449 710.936 16.6312C710.556 16.0449 710.285 15.9916 709.146 16.0982C708.821 16.1515 708.55 15.2986 708.441 15.0854C707.411 15.0854 706.923 15.5651 706.38 16.0449C706.001 16.418 706.163 15.9383 705.892 16.5246C705.024 16.5246 704.211 16.5246 703.343 16.4713C703.017 15.9916 703.451 15.9383 702.584 15.9916C701.824 15.9916 702.638 15.0854 702.855 15.4585C702.475 14.8189 702.475 14.8722 701.879 14.4457C701.824 16.2581 701.39 15.4585 700.848 16.418C699.004 16.3647 697.16 16.3647 695.316 16.3114C694.611 16.3114 694.828 15.885 693.797 15.7784C692.929 15.6717 692.224 16.2581 692.007 16.2581C690.868 16.1515 691.248 16.0449 690.76 15.725C689.513 14.8722 690.489 15.6184 689.729 16.2048C688.97 16.7911 688.753 15.8317 688.211 16.6845C687.397 16.418 685.391 15.4052 685.174 16.1515C684.794 16.1515 682.082 16.3647 682.136 15.8317C682.299 14.9788 681.16 15.9916 681.106 16.0449C679.208 16.0449 680.563 14.6056 679.587 15.5118C679.316 15.7784 678.502 15.0321 678.557 15.725C678.611 16.2048 674.977 15.9383 674.489 15.9383C672.157 15.885 669.77 15.8317 667.438 15.8317C665.974 15.8317 666.136 15.2986 664.943 15.2986C665.269 15.2986 664.564 15.7784 664.401 15.7784C663.804 15.9383 662.991 15.7784 662.394 15.725C660.713 15.6717 659.031 15.6717 657.35 15.6184C655.886 15.6184 656.591 14.8722 655.831 15.6184C655.615 15.8317 653.065 15.6717 652.794 15.5651C652.523 15.4585 652.957 15.192 652.306 15.0321C651.655 14.9255 650.95 15.0321 650.299 15.0321C649.594 15.0321 650.028 15.4585 649.811 15.5118C649.215 15.6717 648.401 15.4585 647.804 15.4585C646.123 15.4052 644.442 15.4052 642.76 15.3519C641.513 15.2986 642.001 14.8189 640.754 14.8189C641.079 14.8189 640.374 15.2986 640.266 15.2986C639.832 15.4052 639.181 15.2986 638.747 15.2986C637.228 15.2986 635.71 15.2453 634.191 15.2453C632.51 15.192 630.828 15.192 629.147 15.1387C628.388 15.1387 628.767 14.6056 627.628 14.6056C626.923 14.6056 626.761 15.0854 625.622 15.0854C624.483 15.0854 624.157 15.0854 623.615 14.5523C622.693 13.5929 619.71 14.9788 619.059 14.9788C617.866 14.9255 617.703 14.4457 617.052 14.4457C616.293 14.4457 616.022 14.9788 615.805 14.9255C614.612 14.7656 610.218 15.5651 609.513 14.8189C608.645 13.966 609.567 14.9255 608.754 14.8189C607.832 14.7123 606.856 14.7656 605.988 14.7656C605.066 14.1259 606.042 14.6056 605.988 14.2858C605.934 13.2197 605.5 14.2325 605.012 13.7528C605.012 13.5929 605.012 13.4329 605.012 13.2197C604.578 12.8999 603.113 12.9532 603.981 13.6995C604.523 14.1259 605.12 14.7123 603.439 14.6589C602.625 14.6589 601.703 14.7123 600.89 14.6056C599.642 14.4457 599.588 14.1259 598.124 14.0193C597.473 13.966 598.34 14.5523 597.364 14.499C596.713 14.499 596.008 14.499 595.357 14.499C594.598 13.3263 593.785 14.2858 593.351 14.9788C592.537 14.9788 591.832 15.2986 591.832 14.4457C591.832 13.1664 591.832 13.6995 590.585 13.4329C590.368 13.3796 589.934 14.7123 589.771 14.9255C588.524 14.9255 588.795 14.7656 588.252 14.3924C587.602 13.966 587.168 14.8722 587.222 14.8722C586.246 14.9255 585.215 14.8189 584.185 14.8189C583.317 14.8189 584.13 14.3391 583.154 14.2858C581.364 14.2325 581.202 14.7656 579.629 14.7123C578.707 14.7123 577.785 14.7123 576.863 14.6589C576.591 14.6589 576.429 15.192 575.615 15.1387C574.91 15.1387 575.344 14.6056 574.856 14.6056C574.097 14.6589 573.337 14.6056 572.578 14.6056C570.625 14.5523 570.409 15.0854 568.51 15.0321C565.636 14.9788 562.815 14.9255 559.941 14.8722C558.476 14.8189 558.476 15.0854 558.422 13.8594C556.578 13.8061 557.663 13.8594 556.904 14.3391C556.687 14.499 554.3 14.7123 554.354 14.8189C553.704 13.966 554.137 14.8722 553.866 14.8189C553.107 14.659 553.704 14.3391 552.89 14.2858C551.643 14.2325 551.48 14.7656 549.853 14.7123C548.714 14.7123 549.148 14.2325 548.334 14.1792C547.249 14.1259 547.738 14.499 547.304 14.6589C546.165 15.1387 545.514 14.1259 544.266 14.1259C543.507 14.1259 543.995 14.499 543.236 14.6056C542.314 14.7656 541.121 14.5523 540.199 14.5523C538.192 14.499 538.083 14.0193 536.185 13.966C535.697 13.966 532.551 14.1792 532.66 13.6462C532.768 13.2197 532.172 13.3263 532.172 13.9127C532.117 15.885 530.219 13.4862 530.165 13.3796C529.514 13.3796 528.809 13.3263 528.158 13.3263C527.995 13.5929 527.724 13.6995 527.67 13.8061C527.019 14.9255 525.555 14.1792 525.555 14.3391C525.609 15.2453 522.734 14.0726 522.517 14.0726C521.812 14.0726 522.192 14.3924 521.487 14.5523C520.782 14.7123 519.914 14.499 519.209 14.499C519.155 14.499 518.45 13.3796 518.45 14.2325C518.45 15.192 517.799 13.9127 517.961 13.966C516.877 13.4862 516.768 14.2325 516.443 14.4457C516.117 14.6589 515.087 14.3924 514.653 14.4457C514.382 14.4457 514.056 13.8061 513.134 13.9127C513.08 13.9127 512.592 13.4862 512.375 13.3796C510.206 13.3263 513.351 14.3391 510.423 14.3391C509.772 14.3391 505.324 13.6995 504.89 14.2325C504.023 15.2453 503.263 14.1792 501.853 14.1792C499.901 14.1259 499.413 14.6589 497.785 14.6056C496.646 14.6056 490.355 15.2453 489.704 14.4457C488.728 13.2197 488.457 14.6589 487.697 14.3924C487.426 14.3391 488.077 13.8594 487.48 13.8594C487.047 13.8594 486.613 13.8594 486.233 13.8594C485.962 13.8594 484.389 13.6462 484.226 13.8594C483.63 14.5523 481.677 14.0193 481.677 14.0726C481.731 15.0321 474.518 13.8061 474.138 13.2197C473.216 13.6995 472.674 14.3391 472.131 13.6995C470.992 13.6995 469.745 13.8061 468.606 13.6462C467.847 13.5395 468.498 13.3796 468.118 13.1131C467.901 12.9532 465.298 12.8999 465.081 13.0598C464.647 13.4329 465.135 13.5395 464.05 13.5395C463.182 13.5395 462.369 13.4862 461.501 13.4862C459.494 13.4329 457.433 13.2197 455.426 13.3796C454.233 13.4862 454.45 13.8061 453.149 13.8594C453.094 13.8594 452.01 12.74 451.413 13.3263C450.979 13.6995 450.545 14.1259 449.894 14.2858C449.46 14.3924 447.345 14.4457 447.399 13.966C447.399 13.9127 435.413 14.499 433.786 14.499C432.539 14.4457 433.027 14.9788 431.725 14.9788C431.02 14.9788 430.044 15.4585 429.989 15.4585C427.766 15.192 427.006 15.2453 425.705 14.3924C425.325 14.9788 424.62 15.3519 423.644 15.3519C422.667 15.3519 419.196 14.7123 418.6 15.2453C418.112 15.6717 418.166 15.725 417.081 15.725C415.888 15.725 414.749 15.6717 413.556 15.6717C412.742 15.6717 412.688 15.192 412.579 15.1387C412.037 15.0321 411.983 15.6184 412.091 15.6184C411.115 15.5118 411.223 15.0854 410.573 15.0854C410.79 15.0854 409.976 15.5651 409.542 15.5651C409.162 16.1515 409.542 16.0449 408.512 16.0449C408.132 15.5118 407.861 15.6184 407.535 15.0321C405.312 14.9788 407.047 15.2986 407.047 15.7784C407.047 16.2581 405.42 15.9916 404.986 15.9916C403.847 15.9916 402.6 15.8317 401.461 15.9383C401.244 15.9383 400.268 16.3647 400.376 16.418C399.834 16.3647 396.851 15.2986 396.905 16.1515C396.959 16.8978 395.007 15.5651 394.898 15.3519C393.38 15.3519 393.651 15.8317 392.349 15.8317C391.427 15.8317 388.336 15.2453 387.793 15.725C387.359 16.1515 387.847 16.1515 386.763 16.2048C385.895 16.2048 385.081 16.1515 384.214 16.1515C382.044 16.0982 379.82 16.0449 377.651 16.0449C376.078 16.0449 376.186 16.5246 374.614 16.4713C372.661 16.418 370.492 16.6312 368.539 16.3647C367.509 16.2581 365.393 15.3519 364.254 15.2986C363.929 15.2986 364.037 15.725 363.495 15.7784C362.844 15.885 362.139 15.6184 361.488 15.725C360.675 15.885 360.295 16.2048 358.939 16.1515C357.692 16.1515 357.854 16.6312 356.39 16.6312C354.004 16.5779 351.671 16.5246 349.339 16.5246C346.79 16.4713 340.607 18.7634 339.251 16.3647C338.655 16.3647 336.16 16.7378 336.214 17.0577C336.322 17.9639 334.153 16.7911 334.207 16.7911C334.261 16.7911 333.882 17.3242 333.177 17.2709C332.363 17.1643 332.417 16.7911 332.2 16.7378C331.658 16.5779 330.248 16.5779 329.706 16.6845C329.489 16.7378 328.946 17.2176 329.163 17.1643C328.024 17.2176 327.373 16.418 325.638 16.5779C325.095 16.6312 324.39 17.111 324.119 17.5374C322.004 17.4841 321.516 17.1643 319.563 16.9511C319.021 17.7506 317.34 17.3775 316.038 17.3775C315.55 18.0705 316.038 17.8572 315.55 17.3775C315.387 17.3775 315.224 17.3775 315.062 17.3775C314.682 16.7911 314.411 17.0044 314.085 16.3647C313.923 16.3647 313.76 16.3647 313.597 16.3647C313.163 16.9511 313.218 16.9511 312.567 17.3242C312.024 17.644 312.296 17.8039 311.048 17.8039C310.506 18.4969 310.18 18.1238 309.041 18.2837C308.879 18.2837 307.577 18.7634 308.011 18.7634C306.818 18.7634 306.601 18.1238 304.974 18.2304C303.672 18.2837 303.726 18.6035 302.316 18.7101C301.774 17.8572 300.201 17.6973 298.791 17.644C298.574 17.9639 298.574 18.337 298.302 18.6035C298.14 18.6035 297.977 18.6035 297.814 18.6035C297.814 18.7634 297.814 18.9233 297.814 19.0833C297.435 19.4564 297.597 18.9766 297.326 19.563C296.675 19.563 295.97 19.563 295.319 19.5097C294.343 19.5097 295.211 18.9766 294.56 18.9766C293.909 19.03 293.096 19.5097 293.041 19.4564C291.686 19.2965 290.113 19.2965 288.757 19.3498C288.214 19.4031 287.564 19.4031 286.967 19.2965C286.425 19.2432 286.858 19.8295 286.75 19.8295C286.37 19.8295 284.147 18.87 284.255 19.563C284.309 20.0427 283.062 19.7762 282.736 19.7762C281.652 19.7229 281.706 19.7229 281.218 19.2432C280.621 18.6035 279.103 19.7762 278.452 19.6696C278.343 19.6696 277.747 20.0961 277.204 20.1494C276.337 20.256 277.15 19.6696 276.228 19.6163C275.198 19.6163 274.547 19.8295 273.191 20.0427C271.618 20.256 271.401 20.5225 269.665 20.4692C269.232 20.4692 264.567 20.1494 264.621 20.6291C264.676 21.4287 261.747 20.3093 261.584 20.3093C261.855 20.3093 260.933 20.789 260.554 20.789C259.957 20.789 259.36 20.7357 258.764 20.789C258.493 20.789 258.384 20.256 257.516 20.256C256.703 20.256 257.354 20.4692 257.028 20.7357C256.269 21.2155 252.798 20.7357 251.984 20.6291C250.574 20.5225 250.303 20.5225 249.489 20.0961C248.838 21.0022 247.103 20.5225 246.452 21.5353C245.747 21.482 245.639 21.0022 244.445 21.0022C243.415 21.0022 242.439 20.9489 241.408 20.9489C240.974 20.9489 240.54 20.8956 240.106 20.9489C239.51 20.9489 240.161 20.5225 239.889 20.4159C238.805 19.9894 238.75 20.6291 238.371 20.8956C237.828 21.2155 235.984 20.8423 235.334 20.8423C234.628 20.8423 234.791 21.2688 233.815 21.3221C232.622 21.3754 233.11 20.789 232.296 20.789C231.537 20.789 231.212 21.3221 231.049 21.2688C230.073 21.1621 224.703 21.0022 224.757 21.4287C224.812 21.8551 222.1 21.6419 221.72 21.6419C220.364 21.5886 219.822 21.482 219.171 22.0683C219.117 22.1216 218.195 21.5353 217.652 21.5353C216.134 21.482 214.615 21.482 213.096 21.482C210.818 21.4287 210.602 21.9084 208.541 21.9084C207.944 21.9084 207.347 21.8551 206.751 21.9084C206.154 21.9617 206.805 21.5353 206.534 21.3754C205.449 20.8956 205.341 21.6419 205.015 21.8551C204.581 22.1216 203.008 21.8018 202.52 21.8018C201.815 21.8018 202.032 22.2282 201.002 22.2816C199.7 22.3882 198.29 22.2282 196.988 22.2282C196.175 22.2282 196.012 21.6952 195.741 21.6952C195.307 21.6952 195.415 22.2282 194.439 22.1749C193.408 22.1749 192.432 22.1216 191.402 22.1216C187.497 22.0683 183.592 22.9745 179.795 22.9212C177.246 22.8679 175.998 22.4415 173.992 22.3349C173.883 22.3349 172.907 22.7613 172.202 22.8146C170.846 22.9212 169.49 22.6547 168.134 22.7613C167.321 22.8146 167.754 23.241 166.615 23.241C165.585 23.241 164.609 23.241 163.578 23.1877C162.493 23.1344 162.819 22.6547 162.06 22.6547C160.704 22.6547 159.348 22.6014 158.046 22.6014C156.419 22.5481 156.365 23.5609 154.521 23.5076C153.436 23.5076 153.761 22.9745 153.002 22.9745C151.809 22.9745 150.67 22.9212 149.477 22.9212C145.517 22.8679 143.022 23.7741 138.846 23.7208C136.839 23.6675 135.375 24.2538 132.772 24.0939C132.338 24.0939 130.548 24.3604 130.223 24.0406C130.06 23.8807 130.006 23.7741 130.006 23.6675C130.006 23.7208 129.897 23.8807 129.734 24.0406C129.409 24.3604 127.619 23.5609 127.728 24.2538C127.782 24.6803 125.667 24.4671 125.179 24.4671C122.141 24.4137 119.104 24.3604 116.121 24.3071C112.758 24.2538 109.396 24.2005 106.033 24.1472C103.972 24.0939 102.725 24.5204 101.206 24.5737C101.206 24.5737 100.067 24.0939 99.4703 24.0406C98.1686 23.8807 96.7585 23.9873 95.4025 23.9873C94.9144 24.0939 92.2026 24.7336 92.2026 24.7869C92.2568 25.1067 84.067 24.8935 83.0908 24.8402C82.3315 24.8402 82.6569 24.4137 81.5722 24.3071C80.8128 24.2538 81.1925 24.8402 80.0535 24.7869C80.3247 24.8402 79.7281 24.3604 79.5654 24.3071C78.9688 24.1472 78.1552 24.3071 77.5586 24.2538C76.962 24.2538 73.979 24.627 73.4909 24.2005C73.057 23.7741 73.5451 23.7741 72.5146 23.6675C72.0265 23.6142 71.4841 23.6675 70.996 23.6142C68.9892 23.5609 66.9282 23.5609 64.9215 23.5076C62.2096 23.4543 61.1249 23.934 58.3588 23.8807C56.8402 23.8274 55.3215 23.8274 53.8029 23.7741C52.7724 23.7741 53.7487 24.3071 53.0436 24.2538C52.5555 24.2538 52.8809 23.7208 52.8266 23.7208C50.1148 23.5609 47.7826 24.7336 45.7759 23.6142C45.2877 23.3477 45.8843 23.1877 44.7996 23.0811C44.5284 23.5076 43.2267 24.2005 43.0098 24.2005C42.4132 24.1472 41.8166 24.1472 41.22 24.1472C40.1895 24.1472 40.6234 24.2538 40.1895 24.627C39.1047 25.6398 33.9522 24.3604 33.1387 23.9873C33.0845 23.9873 31.5116 22.9212 31.6201 23.7208C31.7285 24.2005 29.0709 23.934 28.5828 23.934C24.4066 23.8807 20.1761 23.7741 15.9999 23.7208C15.349 22.7613 14.6439 22.708 12.9626 22.6547C12.5829 23.241 13.0168 23.1877 11.9321 23.1344C10.9016 23.1344 11.3897 23.4543 10.9558 23.6142C10.6304 23.7741 9.38297 23.7741 9.4372 23.3477C9.54568 22.4415 8.56942 23.5609 8.94907 23.5609C8.02705 23.4543 8.24399 23.1877 7.97281 23.0278C7.32197 22.8679 6.45418 23.2943 5.91181 23.0278C5.58639 22.9212 5.96605 22.5481 5.1525 22.4948C4.55589 22.4415 5.26097 23.0811 4.66437 23.0278C3.90505 22.9212 3.0915 23.0278 2.38642 22.9745C1.68134 22.9745 2.11524 22.5481 1.89829 22.4948C1.13897 22.2816 0.542368 22.3882 0 22.6014L0 0.000101089L1540 0.000101089V15.3519C1539.67 15.4052 1539.29 15.5118 1538.81 15.5651ZM432.213 10.9809C431.833 11.354 431.996 10.8743 431.725 11.4607C431.725 12.5268 432.701 11.9937 432.755 10.9809C433.786 10.6078 432.81 10.4479 432.213 10.9809ZM460.471 12.9532C460.742 13.2197 461.284 12.74 460.959 12.4735C460.687 12.2069 460.199 12.6867 460.471 12.9532ZM514.056 8.42228C514.328 8.6888 514.87 8.20906 514.545 7.94253C514.328 7.6227 513.785 8.15575 514.056 8.42228ZM550.287 14.499C550.558 14.7656 551.1 14.2858 550.829 14.0193C550.558 13.7528 550.015 14.2325 550.287 14.499ZM554.463 8.6355C554.734 8.90202 555.276 8.42228 554.951 8.15575C554.68 7.83592 554.192 8.31567 554.463 8.6355ZM616.51 12.1536C614.991 12.1536 615.425 13.1664 615.75 13.1664C616.347 13.0598 615.75 13.9127 615.967 14.1792C616.13 14.1792 616.293 14.1792 616.456 14.1792C616.944 13.4329 617.269 12.8466 616.51 12.1536ZM695.696 15.0321C695.967 15.2986 696.509 14.8189 696.238 14.5523C695.967 14.2325 695.424 14.7123 695.696 15.0321ZM716.468 9.91481C716.739 10.1813 717.282 9.70159 716.956 9.43507C716.739 9.11524 716.197 9.64829 716.468 9.91481ZM743.153 16.3114C743.424 16.5779 743.966 16.0982 743.641 15.8317C743.37 15.5118 742.882 16.0449 743.153 16.3114ZM755.248 15.0321C755.519 15.2986 756.061 14.8189 755.79 14.5523C755.519 14.2325 754.976 14.7656 755.248 15.0321ZM825.864 18.7101C825.376 17.7506 825.213 18.7101 825.864 18.7101C826.406 19.6696 826.569 18.7101 825.864 18.7101ZM851.626 19.1366C851.898 19.4031 852.386 18.9233 852.115 18.6568C851.843 18.3903 851.355 18.87 851.626 19.1366ZM976.805 20.3093C977.076 20.5758 977.618 20.0961 977.347 19.8295C977.076 19.5097 976.534 20.0427 976.805 20.3093ZM1094.5 17.8572C1093.9 18.6568 1094.12 18.337 1094.5 18.87C1095.2 19.9894 1095.15 18.2304 1094.5 17.8572ZM1160.13 18.4969C1160.07 20.8423 1162.51 18.5502 1160.13 18.4969V18.4969ZM1213.11 19.4031C1213.39 19.6696 1213.93 19.1899 1213.66 18.9233C1213.39 18.6035 1212.84 19.0833 1213.11 19.4031Z" fill="white"/>
</svg>
