<svg width="140" height="140" viewBox="0 0 140 140" fill="none" xmlns="http://www.w3.org/2000/svg">
<circle cx="70" cy="70" r="70" fill="white"/>
<path d="M77.8341 118.65C51.0047 122.971 25.6689 104.66 21.3485 77.8283C20.5884 73.0807 20.5084 68.2664 21.1351 63.5454C21.1751 63.212 21.4818 62.972 21.8152 63.0253C22.1485 63.0653 22.3886 63.3721 22.3352 63.7055C21.7352 68.3197 21.8018 73.0006 22.5486 77.6282C26.7623 103.793 51.4715 121.65 77.6341 117.436C87.9551 115.769 97.2494 110.928 104.503 103.433C111.517 96.1919 116.158 86.7234 117.585 76.7881C117.638 76.4547 117.945 76.2279 118.278 76.268C118.612 76.3213 118.838 76.628 118.798 76.9614C117.345 87.1501 112.584 96.8454 105.397 104.274C97.9561 111.982 88.4218 116.943 77.8341 118.65Z" fill="#008482"/>
<path d="M114.864 51.4896C114.598 51.5296 114.318 51.3963 114.211 51.1296C110.077 41.4343 102.717 33.246 93.4623 28.0583C83.9281 22.7239 73.1803 20.8168 62.3659 22.5505C50.338 24.4842 39.5903 30.8455 32.1095 40.4341C31.9095 40.7008 31.5228 40.7408 31.2561 40.5408C30.9894 40.3407 30.9494 39.954 31.1494 39.6873C38.8169 29.8453 49.8446 23.3373 62.1659 21.3503C73.247 19.5633 84.2748 21.5103 94.0491 26.9914C103.53 32.2991 111.091 40.7008 115.318 50.6495C115.451 50.9562 115.305 51.3163 114.998 51.4496C114.971 51.463 114.918 51.4763 114.864 51.4896Z" fill="#008482"/>
<path d="M113.171 62.3851C113.131 62.3851 113.104 62.3851 113.064 62.3985C112.811 62.4652 112.624 62.6785 112.558 62.9319C111.971 65.3324 111.371 67.8129 108.997 69.1065C107.89 68.1596 106.904 67.3061 105.744 66.3059C105.397 65.9992 105.197 65.5591 105.197 65.0924C105.277 61.8117 105.357 58.2377 105.437 54.5569C105.464 53.6634 104.717 52.9299 103.81 52.9833C103.703 52.9833 103.597 52.9966 103.463 53.0233C102.877 53.1033 102.41 53.5434 102.303 54.1168C102.197 54.717 102.077 55.3304 102.037 55.9439C101.863 59.0511 101.77 62.1718 101.61 65.2791C101.57 65.9725 101.583 66.6527 101.53 67.3328C101.53 67.6795 101.516 68.0263 101.516 68.373C101.543 68.8931 101.53 69.4132 101.41 69.88C100.663 72.5872 99.5563 75.1477 97.7694 77.3481C97.1427 78.1216 96.3559 78.8018 95.5159 79.3219C94.4358 80.002 93.249 79.5086 92.8889 78.2817C92.5956 77.2548 92.4089 76.1746 92.5689 75.3877C93.729 74.9477 94.7291 74.7343 95.5425 74.2142C97.6494 72.8539 99.8096 68.573 99.1029 65.7191C99.0362 65.4258 98.8762 65.1724 98.6895 64.9457C98.6095 64.8523 98.5162 64.7456 98.4228 64.6523C96.3426 62.5185 93.2623 62.7852 91.6355 65.2524C91.2354 65.8525 90.9154 66.506 90.6487 67.1728C89.742 69.3732 89.2886 71.6803 89.0752 74.0275C88.7819 77.1614 87.4617 79.9353 85.9149 82.6025C85.5415 83.2293 84.5948 83.0426 84.4881 82.3225C83.928 78.3883 84.3948 74.6809 84.4614 71.0269C84.4748 70.16 83.888 69.3865 83.0346 69.2132C82.7679 69.1598 82.4879 69.1332 82.1945 69.1332C81.6478 69.1198 81.1544 69.4666 80.9944 70C79.6476 74.5743 78.3008 79.1618 76.954 83.7361C76.7407 83.6961 76.8073 83.7094 76.594 83.6694C76.9673 76.668 77.3541 69.6666 77.7274 62.7452C76.674 61.8384 75.6339 61.7317 74.4071 61.9184C74.3004 62.5318 74.1804 63.0786 74.1137 63.6387C73.287 70.0267 72.8736 76.4413 72.7936 82.8692C72.7669 84.4962 72.8069 86.1366 72.967 87.7502C73.1536 89.6173 74.0204 90.5908 75.6472 90.7508C76.4073 90.8308 77.1007 90.3241 77.3007 89.5906C78.2741 85.8565 79.2609 82.0824 80.2477 78.3217H80.261C80.4744 80.002 80.5144 81.6557 80.6077 83.296C80.7277 85.3097 82.1012 86.3233 83.7947 86.9501C84.8481 87.3368 85.8349 87.0968 86.435 86.0966C87.1017 84.9897 87.7017 83.8428 88.2618 82.6692C88.6885 81.789 89.0085 80.8555 89.4219 79.8153H89.4353C89.7686 80.1887 89.982 80.4288 90.1953 80.6821C91.8622 82.7225 94.9825 83.1893 97.0227 81.5223C98.1161 80.6288 99.0229 79.4686 99.8363 78.295C100.556 77.2414 101.036 76.0279 101.716 74.7076H101.73C101.783 75.2811 101.823 75.6811 101.863 76.0812C102.05 78.0816 102.157 80.0954 102.477 82.0691C102.623 83.0293 103.037 84.0028 103.543 84.843C104.503 86.4433 106.477 86.7634 107.877 85.5498C108.584 84.9363 109.237 84.1628 109.677 83.336C111.517 79.8153 111.531 76.1612 110.251 72.4672C110.037 71.8537 109.797 71.2402 109.557 70.6268C112.438 68.8398 113.504 66.1992 114.038 63.1986C114.091 62.8786 113.891 62.5452 113.571 62.4518C113.398 62.4385 113.291 62.4118 113.171 62.3851ZM96.3426 65.5591L96.3826 65.5858C96.6626 65.7858 96.8493 66.1059 96.876 66.4526C97.0627 69.1198 95.5959 72.1471 93.5823 73.5074C93.2223 73.7474 92.7423 73.494 92.7289 73.0673C92.6222 70.8002 93.7023 67.3861 95.0892 65.7191C95.3958 65.3324 95.9426 65.2657 96.3426 65.5591ZM105.65 71.2402C106.024 71.2402 106.424 71.2402 106.81 71.2402C107.304 71.2402 107.77 71.5203 107.997 71.9604C109.557 75.0677 108.784 80.1087 107.064 82.2691C106.77 82.6292 106.144 82.4825 106.117 82.0157" fill="#008482"/>
<path d="M65.8729 87.8433C66.0996 88.1366 66.3396 88.4167 66.553 88.7101C68.1665 90.8572 69.0066 93.271 68.7132 95.9515C68.3932 98.7654 66.7397 100.632 64.1127 101.499C61.6992 102.299 59.7256 101.299 58.0188 99.5923C56.8187 98.4054 56.1786 96.9117 55.6052 95.3914C54.8051 93.231 54.4051 90.9772 54.4984 88.6034C54.9918 88.3233 55.4585 88.0833 55.9119 87.8299C60.8191 84.9893 64.9128 81.3086 67.8464 76.401C68.9399 74.5739 69.8066 72.6402 69.9933 70.4931C70.0867 69.4662 70.0867 68.3594 69.78 67.3858C68.6999 63.8918 65.5795 63.305 63.006 64.5319C60.9791 65.4921 59.2322 66.8124 57.7254 68.4527C53.1516 73.427 50.6714 79.3616 49.8313 86.0296C49.778 86.4963 49.7246 86.9631 49.6713 87.4432C48.2978 87.3898 47.4977 86.8964 46.7243 85.9362C45.3909 84.2825 44.0441 80.9219 43.6173 78.6948C43.2973 75.7875 42.9639 72.8669 42.8573 69.9463C42.5906 61.9314 43.0706 53.9431 43.564 45.9415C43.604 45.2347 43.6173 44.5146 43.644 43.8611C42.6706 42.9409 41.6171 42.8476 40.457 42.9676C40.057 44.7013 39.7236 46.2883 39.3102 47.8619C38.0968 52.6095 36.91 57.3705 35.6032 62.0914C34.8831 64.6786 33.963 67.2125 33.083 69.7596C32.8429 70.4264 32.3896 71.0266 32.0429 71.6533C31.8962 71.6267 31.8962 71.6267 31.7495 71.5867C31.3628 67.4125 31.6695 63.2517 32.1229 59.1042C32.5629 55.2234 33.083 51.3426 33.5897 47.3952C33.6697 46.7817 33.5363 46.1416 33.1763 45.6348C32.8696 45.1814 32.5229 44.9147 32.0695 44.7946C31.2961 44.5946 30.4827 44.9013 29.976 45.5148C29.4293 46.1816 28.8559 46.875 28.2825 47.5685C25.5222 50.9159 22.5619 54.0365 18.8282 56.3303C16.388 57.8239 13.8677 58.6507 11.0674 57.2905C10.9607 57.2371 10.8007 57.2771 10.6274 57.2771C10.5074 58.4374 11.0674 59.2775 11.6675 60.1577C13.281 62.5449 15.5479 63.3183 18.1481 62.0781C19.3883 61.4913 20.5484 60.6511 21.5885 59.7576C24.1487 57.5572 26.2423 54.93 28.2558 52.2361C28.5492 51.836 28.8959 51.476 29.4426 50.8625C29.3092 51.6893 29.2292 52.1561 29.1492 52.6362C28.6825 55.7168 28.1625 58.7974 27.7891 61.8914C27.4691 64.5586 27.2424 67.2525 27.7091 69.9197C28.0825 72.0001 29.1226 73.7471 31.2828 74.3739C32.0695 74.6006 32.9363 74.3872 33.483 73.7871C33.5897 73.6671 33.683 73.5471 33.763 73.4137C34.3631 72.4402 34.9765 71.4266 35.3232 70.3464C36.3233 67.1858 37.2034 63.9985 38.1368 60.8112C38.2968 60.2777 38.4302 59.7443 38.5768 59.2109C38.8435 59.7443 38.8569 60.2511 38.8435 60.7578C38.6569 66.359 38.4568 71.9601 39.0969 77.5479C39.1902 78.388 39.3236 79.2282 39.5103 80.055C39.5236 80.1084 39.5369 80.1617 39.5369 80.2151C39.5503 80.2551 39.5636 80.3084 39.5769 80.3484C39.5769 80.3618 39.5769 80.3618 39.5769 80.3751C40.3237 83.4157 44.0707 91.9907 48.1778 90.8839C48.7779 90.7772 49.1379 90.6572 49.6713 90.6038C50.0313 93.7378 50.6581 96.5917 52.2182 99.2055C54.8718 103.62 58.9255 104.5 62.0725 103.686C63.686 103.273 65.2862 102.66 66.753 101.873C71.3401 99.4056 73.5003 94.1112 71.9802 89.3902C71.0868 86.5763 68.1265 85.8295 65.8729 87.8433ZM54.6985 84.9893C55.4719 79.3616 57.4587 74.2139 60.9524 69.7063C61.9792 68.3727 63.1393 67.1458 64.6595 66.3589H64.6728C65.6062 65.8789 66.673 66.2923 67.0064 67.2925C67.153 67.7459 67.2064 68.2127 67.153 68.6794C67.0064 70.1464 66.8463 71.6667 66.313 73.027C64.1394 78.5347 60.339 82.6956 55.3385 85.7895C55.2185 85.8695 55.0718 85.9095 54.9385 85.9495C54.8985 85.9629 54.8451 85.9362 54.6985 85.9095C54.6985 85.6295 54.6585 85.3094 54.6985 84.9893Z" fill="#008482"/>
<path d="M49.7246 67.5058C51.7248 68.2127 53.565 67.9459 55.0318 66.399C56.0053 65.3588 56.8453 64.1718 57.6187 62.9716C58.1921 62.0914 58.5522 61.0912 59.0322 60.1177C59.2856 60.3177 59.5256 60.4778 59.739 60.6645C61.3791 62.1181 63.246 62.4915 65.3662 61.9847C67.6731 61.4513 69.1532 60.011 70.0733 57.9173C71.5135 54.6766 72.0202 51.2093 72.5002 47.7286C72.5002 47.6752 72.4736 47.6352 72.4336 47.5419C72.3536 47.3952 72.2069 47.3018 72.0469 47.2885L71.4735 47.2351C71.2868 47.2218 71.1268 47.3418 71.0868 47.5285C70.5934 50.1691 70.3534 52.7296 69.4866 55.3034C68.0331 52.7429 66.6597 50.3558 65.3395 47.9419C64.9795 47.2751 64.5394 46.5417 64.5261 45.8215C64.5261 45.4481 64.6595 45.0747 64.8328 44.688C65.1262 44.0478 64.7928 43.2877 64.1261 43.061C64.0727 43.0476 64.0327 43.0343 63.9794 43.021C62.0992 42.4742 60.6191 43.4344 60.299 45.3681C60.259 45.6081 60.2457 45.8482 60.219 46.0882C59.659 50.009 59.4723 53.9965 57.8988 57.7439C57.072 59.7043 56.1786 61.598 54.7385 63.185C54.2317 63.7451 53.6184 64.2519 52.965 64.6253C51.8182 65.2921 50.578 64.7853 50.2713 63.4784C50.0847 62.7182 50.0447 61.9314 49.978 61.1446C49.9513 60.7445 50.2313 60.4111 50.6314 60.3711C51.9515 60.2511 52.6849 59.9443 53.4983 59.1042C55.0585 57.4905 56.1519 55.7035 56.4986 53.6231C56.872 51.4226 55.6052 49.2222 53.4583 48.6487C51.4981 48.1153 49.6046 49.1555 48.4312 51.6627C46.711 55.3434 46.1109 59.2642 46.551 63.305C46.7777 65.3187 47.7378 66.799 49.7246 67.5058ZM61.4991 49.3689C63.1526 51.756 64.7261 53.9298 65.7396 56.437C65.8462 56.717 65.9396 56.9971 65.9796 57.2905C66.2596 59.1175 65.1262 60.2111 63.246 59.8376C61.7925 59.5443 60.8057 58.6107 60.0457 57.4772C60.539 54.7166 61.0058 52.1428 61.4991 49.3689ZM54.1917 51.1559C54.7785 54.1699 52.8849 57.9706 49.9647 59.3976C50.298 56.6103 50.5247 53.9698 51.9382 51.636C52.4049 50.8492 53.445 50.6491 54.1917 51.1559Z" fill="#008482"/>
<path d="M120.825 39.6339C120.105 39.4339 119.345 39.9407 119.278 40.6875V40.7008C118.972 44.1815 118.625 47.6756 118.372 51.1563C118.078 55.1304 117.865 59.1045 117.625 63.0786C117.598 63.5988 117.545 64.1455 117.811 64.6923C118.038 65.1591 118.545 65.3991 119.052 65.3324C119.158 65.3191 119.278 65.3058 119.385 65.2924C119.945 65.2257 120.385 64.7723 120.452 64.2122C121.292 57.0908 122.105 50.1961 122.945 43.3147C123.172 41.4743 122.492 40.1007 120.825 39.6339Z" fill="#008482"/>
<path d="M118.038 67.7462C116.838 68.2663 116.425 69.373 116.945 70.5732C117.465 71.7466 118.385 72.1467 119.465 71.6666C120.612 71.1732 121.065 69.8798 120.505 68.6663C120.012 67.5995 119.118 67.2661 118.038 67.7462Z" fill="#008482"/>
<path d="M80.607 135.812C63.0319 138.64 45.4035 134.452 30.962 124.023C16.5206 113.595 7.0263 98.1783 4.19935 80.6014C1.3724 63.0246 5.55949 45.3944 15.9872 30.9648C26.4149 16.5353 41.8431 7.0267 59.4182 4.19947C76.9933 1.37224 94.6217 5.55974 109.05 15.9885C123.478 26.4172 132.986 41.847 135.813 59.4238C138.639 77.0007 134.452 94.6309 124.025 109.06C113.597 123.49 98.1821 132.985 80.607 135.812ZM59.6049 5.38637C42.3498 8.16026 27.2016 17.4955 16.9606 31.6716C6.7196 45.8345 2.61253 63.1446 5.38614 80.4147C8.15975 97.6848 17.494 112.821 31.6688 123.063C45.8302 133.305 63.1386 137.413 80.407 134.639C97.662 131.865 112.81 122.53 123.051 108.354C133.292 94.1775 137.399 76.8807 134.626 59.6105C131.852 42.3538 122.518 27.2041 108.343 16.962C94.1684 6.70663 76.8599 2.59915 59.6049 5.38637Z" fill="#008482"/>
<path d="M28.1758 36.8193C28.0825 36.9259 27.9758 36.9793 27.8424 37.0059C27.7091 37.0326 27.6024 36.9926 27.5091 36.9126L22.4952 32.5922C22.4019 32.5122 22.3486 32.4188 22.3486 32.2855C22.3352 32.1655 22.3752 32.0588 22.4552 31.9654L24.3888 29.7252C24.6555 29.4185 24.9488 29.2052 25.3089 29.0852C25.6556 28.9652 26.0156 28.9251 26.3756 28.9918C26.749 29.0585 27.0824 29.2185 27.3891 29.4852C27.6158 29.6852 27.7891 29.9119 27.9091 30.1653C28.0291 30.4186 28.0958 30.6853 28.1225 30.9653C28.1358 31.2454 28.0958 31.5121 28.0025 31.7654L27.7224 31.8454C27.9225 31.6988 28.1358 31.5921 28.3758 31.5387C28.6159 31.4854 28.8559 31.4854 29.1092 31.5387C29.3626 31.5921 29.6026 31.7121 29.8293 31.9121C30.0427 32.0721 30.216 32.1921 30.3494 32.2855C30.4827 32.3655 30.6027 32.4322 30.6961 32.4588C30.7894 32.4855 30.8827 32.4855 30.9761 32.4588C31.0961 32.4188 31.2028 32.4322 31.2961 32.4722C31.4028 32.5122 31.4695 32.6055 31.4961 32.7255C31.5228 32.8055 31.5228 32.8855 31.4828 32.9522C31.4428 33.0189 31.4028 33.0989 31.3495 33.1389C31.2961 33.1922 31.2295 33.2322 31.1628 33.2589C31.0428 33.2989 30.8961 33.3256 30.7361 33.3256C30.5627 33.3256 30.376 33.2722 30.1493 33.1789C29.9227 33.0722 29.656 32.8989 29.3493 32.6322C29.1759 32.4855 29.0159 32.3922 28.8559 32.3522C28.6959 32.3121 28.5359 32.2988 28.3892 32.3388C28.2425 32.3655 28.1091 32.4322 27.9758 32.5122C27.8424 32.6055 27.7358 32.6989 27.6291 32.8189L26.0689 34.6324L26.0156 34.419L28.1225 36.2325C28.2158 36.3125 28.2692 36.4059 28.2825 36.5126C28.2958 36.6326 28.2558 36.7393 28.1758 36.8193ZM25.4689 34.139L27.1757 32.1521C27.2957 31.9921 27.3757 31.7921 27.3891 31.5654C27.4024 31.3387 27.3757 31.112 27.2691 30.8853C27.1757 30.6453 27.0024 30.432 26.7757 30.2319C26.4956 29.9919 26.1756 29.8719 25.8289 29.8986C25.4822 29.9119 25.1888 30.0586 24.9622 30.3386L23.3353 32.2455L23.2287 32.0455L25.6956 34.1657L25.4689 34.139Z" fill="#008482"/>
<path d="M29.5493 24.5243L32.4696 22.0704C32.5629 21.9904 32.6696 21.9504 32.7896 21.9638C32.9096 21.9771 33.003 22.0171 33.083 22.1105C33.163 22.2038 33.1897 22.3105 33.1763 22.4172C33.163 22.5239 33.1097 22.6306 33.0163 22.6972L30.376 24.9243L30.336 24.7243L32.0829 26.7914L31.9229 26.7647L34.2031 24.8443C34.2964 24.7643 34.4031 24.7243 34.5231 24.7376C34.6431 24.7376 34.7365 24.791 34.8165 24.8977C34.8965 24.991 34.9232 25.0977 34.9098 25.2044C34.8965 25.3111 34.8432 25.4178 34.7498 25.4845L32.4963 27.3782L32.4829 27.2448L34.2698 29.3652L34.1764 29.3519L36.79 27.1515C36.8834 27.0714 36.99 27.0448 37.1101 27.0448C37.2301 27.0581 37.3234 27.0981 37.3901 27.1781C37.4701 27.2715 37.4968 27.3782 37.4834 27.4849C37.4701 27.6049 37.4167 27.6982 37.3234 27.7783L34.4031 30.2321C34.3098 30.3121 34.2031 30.3388 34.0831 30.3388C33.9631 30.3254 33.8564 30.2721 33.7897 30.1787L29.5226 25.1111C29.4426 25.0177 29.416 24.911 29.416 24.791C29.4026 24.6976 29.456 24.6043 29.5493 24.5243Z" fill="#008482"/>
<path d="M41.2971 16.8161C41.4305 16.8027 41.5505 16.8561 41.6305 16.9494C41.7105 17.0427 41.7505 17.1628 41.7372 17.3094C41.7238 17.4161 41.6838 17.4961 41.6038 17.5628C41.5238 17.6295 41.4305 17.6561 41.3105 17.6695C41.0304 17.6695 40.7637 17.7095 40.4837 17.7761C40.2037 17.8428 39.937 17.9628 39.6836 18.1095C39.3236 18.3229 39.0302 18.5896 38.8035 18.8963C38.5768 19.203 38.4302 19.5363 38.3368 19.8964C38.2568 20.2564 38.2435 20.6298 38.3102 21.0165C38.3768 21.4032 38.5235 21.7765 38.7502 22.1499C38.9902 22.55 39.2703 22.87 39.5903 23.11C39.9103 23.35 40.2437 23.5101 40.6037 23.6034C40.9638 23.6967 41.3238 23.7101 41.6972 23.6434C42.0572 23.5767 42.4172 23.4434 42.7639 23.23C43.0173 23.0833 43.2307 22.8967 43.4307 22.6966C43.6174 22.4833 43.7774 22.2566 43.9107 22.0166C43.9641 21.9232 44.0441 21.8566 44.1507 21.8166C44.2441 21.7765 44.3508 21.7765 44.4441 21.8166C44.5775 21.8699 44.6708 21.9499 44.7108 22.0699C44.7508 22.1899 44.7375 22.3099 44.6841 22.4166C44.5908 22.6033 44.4574 22.79 44.3108 22.9767C44.1641 23.1634 43.9907 23.35 43.804 23.5234C43.6174 23.6967 43.4173 23.8434 43.2173 23.9634C42.7773 24.2301 42.3106 24.4035 41.8305 24.4835C41.3505 24.5635 40.8704 24.5635 40.3904 24.4568C39.9103 24.3501 39.4703 24.1501 39.0569 23.8434C38.6435 23.5367 38.2701 23.1367 37.9635 22.6166C37.6834 22.1499 37.4967 21.6565 37.4167 21.1632C37.3367 20.6564 37.3634 20.1764 37.4701 19.7097C37.5901 19.243 37.7901 18.8029 38.0835 18.4029C38.3768 18.0028 38.7635 17.6561 39.2302 17.3761C39.5503 17.1894 39.8836 17.0427 40.2303 16.9361C40.6037 16.8561 40.9504 16.8161 41.2971 16.8161Z" fill="#008482"/>
<path d="M48.6712 20.6162C48.7245 20.7229 48.7245 20.8429 48.6712 20.9495C48.6179 21.0696 48.5512 21.1496 48.4312 21.1896C48.3112 21.2429 48.1912 21.2429 48.0845 21.2029C47.9778 21.1629 47.8978 21.0829 47.8444 20.9629L45.1642 14.9089C45.1108 14.8023 45.1108 14.6823 45.1508 14.5756C45.1908 14.4689 45.2842 14.3756 45.4042 14.3222C45.5109 14.2689 45.6309 14.2689 45.7376 14.3089C45.8442 14.3489 45.9376 14.4289 45.9776 14.5356L48.6712 20.6162Z" fill="#008482"/>
<path d="M53.0183 11.5609C53.3917 11.4542 53.7517 11.4408 54.1117 11.5342C54.4718 11.6275 54.7918 11.8142 55.0585 12.0809C55.3252 12.3476 55.5252 12.6943 55.6452 13.0943C55.7652 13.4944 55.7919 13.8944 55.7119 14.2678C55.6319 14.6545 55.4719 14.9879 55.2318 15.2679C54.9918 15.5613 54.6851 15.7479 54.3118 15.868L52.2315 16.4947L52.2582 16.3347L53.0316 18.9216C53.0716 19.0416 53.0583 19.1483 53.005 19.255C52.9516 19.3616 52.8716 19.4283 52.7516 19.4683C52.6316 19.5083 52.5116 19.495 52.4182 19.4283C52.3116 19.375 52.2449 19.2816 52.2182 19.1616L50.3114 12.8143C50.2713 12.6943 50.2847 12.5876 50.3514 12.481C50.4047 12.3743 50.498 12.3076 50.618 12.2676L53.0183 11.5609ZM54.0851 15.0679C54.2984 15.0012 54.4851 14.8812 54.6184 14.7078C54.7518 14.5345 54.8451 14.3211 54.8851 14.0811C54.9251 13.8411 54.9118 13.6011 54.8318 13.3477C54.7518 13.0943 54.6318 12.881 54.4718 12.7076C54.3118 12.5343 54.1251 12.4143 53.9117 12.3609C53.6984 12.2943 53.485 12.2943 53.2716 12.3609L51.1914 12.9877L51.2314 12.841L52.1115 15.7746L52.0049 15.6946L54.0851 15.0679Z" fill="#008482"/>
<path d="M59.7523 10.0007L63.526 9.46729C63.646 9.45396 63.7527 9.48063 63.846 9.5473C63.9394 9.61397 64.0061 9.70732 64.0194 9.82733C64.0327 9.94734 64.0061 10.054 63.9394 10.134C63.8594 10.214 63.766 10.2674 63.646 10.294L60.2324 10.7874L60.299 10.5874L60.6857 13.2677L60.5657 13.161L63.5127 12.7343C63.6327 12.721 63.7394 12.7476 63.8327 12.801C63.9261 12.8676 63.9794 12.961 64.0061 13.0943C64.0194 13.2143 63.9927 13.321 63.9261 13.401C63.846 13.481 63.7527 13.5344 63.6327 13.561L60.7124 13.9744L60.7657 13.8544L61.1525 16.6013L61.0724 16.5347L64.4594 16.0546C64.5795 16.0413 64.6861 16.068 64.7795 16.1346C64.8728 16.2013 64.9262 16.2946 64.9528 16.4013C64.9662 16.5213 64.9395 16.628 64.8728 16.7214C64.7928 16.8147 64.6995 16.868 64.5795 16.8814L60.8057 17.4281C60.6857 17.4414 60.5791 17.4148 60.4857 17.3481C60.3924 17.2814 60.3257 17.1747 60.3124 17.0547L59.3789 10.4941C59.3656 10.3741 59.3923 10.2674 59.459 10.174C59.5256 10.0807 59.6323 10.014 59.7523 10.0007Z" fill="#008482"/>
<path d="M77.234 9.57398C77.8608 9.64065 78.3275 9.85401 78.6342 10.214C78.9409 10.5741 79.0609 11.0541 78.9942 11.6409C78.9542 11.9476 78.8609 12.2276 78.6875 12.4809C78.5142 12.7343 78.2875 12.921 77.9941 13.041C77.7008 13.1743 77.3541 13.2143 76.954 13.1877L76.9807 12.8943C77.2341 12.921 77.4874 12.9877 77.7408 13.081C77.9941 13.1743 78.2208 13.321 78.4342 13.4944C78.6342 13.6811 78.7942 13.8944 78.9142 14.1744C79.0342 14.4411 79.0609 14.7745 79.0209 15.1479C78.9809 15.5479 78.8742 15.8813 78.7142 16.148C78.5542 16.4147 78.3408 16.6147 78.1008 16.748C77.8608 16.8814 77.5941 16.9747 77.3141 17.0147C77.034 17.0547 76.754 17.0681 76.4606 17.0281L73.6737 16.7214C73.5537 16.708 73.4603 16.6547 73.3803 16.5613C73.3003 16.468 73.2737 16.3613 73.287 16.2413L73.9937 9.65399C74.0071 9.53398 74.0604 9.44063 74.1537 9.36062C74.2471 9.28062 74.3538 9.25395 74.4738 9.26728L77.234 9.57398ZM76.7673 13.5744L74.4604 13.321L74.5405 13.2543L74.2338 16.0413L74.1537 15.9346L76.514 16.188C76.9274 16.228 77.2741 16.1613 77.5674 15.9746C77.8608 15.7879 78.0208 15.4679 78.0741 15.0279C78.1141 14.6812 78.0741 14.4011 77.9408 14.2011C77.8208 14.0011 77.6474 13.8544 77.4341 13.7477C77.2341 13.6677 77.0074 13.601 76.7673 13.5744ZM77.034 10.4007L74.7405 10.1474L74.8872 9.98735L74.6071 12.6276L74.5004 12.4809L76.794 12.7343C77.1007 12.7743 77.3807 12.6943 77.6341 12.5209C77.8741 12.3476 78.0208 12.0542 78.0608 11.6675C78.1008 11.3075 78.0341 11.0141 77.8474 10.8008C77.6608 10.5607 77.3941 10.4407 77.034 10.4007Z" fill="#008482"/>
<path d="M89.5153 16.2147C89.3553 16.748 89.1286 17.2014 88.8219 17.6015C88.5152 18.0015 88.1685 18.3215 87.7551 18.5616C87.3417 18.8016 86.9017 18.9616 86.4216 19.0149C85.9416 19.0816 85.4482 19.0283 84.9415 18.8816C84.4348 18.7349 84.008 18.5082 83.6347 18.2015C83.2613 17.8948 82.9813 17.5215 82.7679 17.0947C82.5546 16.668 82.4345 16.2013 82.3945 15.7079C82.3545 15.2146 82.4212 14.6945 82.5679 14.1745C82.7279 13.6411 82.9546 13.1877 83.248 12.7876C83.5413 12.3876 83.9014 12.0676 84.3147 11.8276C84.7281 11.5875 85.1682 11.4275 85.6482 11.3742C86.1283 11.3075 86.6083 11.3608 87.115 11.5075C87.6218 11.6542 88.0618 11.8809 88.4218 12.1876C88.7952 12.4943 89.0752 12.8677 89.2886 13.2944C89.502 13.7211 89.622 14.1878 89.662 14.6812C89.7286 15.1746 89.6753 15.6813 89.5153 16.2147ZM88.6219 15.948C88.7819 15.3879 88.8219 14.8679 88.7285 14.3611C88.6352 13.8678 88.4352 13.4277 88.1151 13.0677C87.7951 12.7076 87.3951 12.4543 86.8883 12.3076C86.3816 12.1609 85.9016 12.1476 85.4482 12.2809C84.9948 12.4143 84.5814 12.6676 84.2347 13.0277C83.888 13.401 83.6347 13.8544 83.4613 14.4278C83.3013 14.9879 83.2613 15.5079 83.3546 16.0146C83.448 16.508 83.648 16.9481 83.968 17.3081C84.2881 17.6681 84.6881 17.9215 85.1948 18.0682C85.7016 18.2149 86.1816 18.2282 86.6483 18.0948C87.1017 17.9615 87.5151 17.7081 87.8618 17.3348C88.2085 16.9614 88.4618 16.508 88.6219 15.948Z" fill="#008482"/>
<path d="M91.0088 20.9369C90.9021 20.8835 90.8354 20.8035 90.8087 20.6968C90.7821 20.5902 90.7821 20.4968 90.8221 20.4168C90.8621 20.3234 90.9421 20.2568 91.0488 20.2034L94.5958 18.3364L94.7025 19.1765L91.4221 20.9102C91.2755 21.0036 91.1421 21.0036 91.0088 20.9369ZM94.3691 14.1489C94.5024 14.2155 94.5824 14.3222 94.6091 14.4689L96.1559 22.6706C96.1693 22.7773 96.1559 22.8706 96.1159 22.9506C96.0626 23.0707 95.9693 23.1373 95.8492 23.164C95.7292 23.1907 95.6226 23.1907 95.5425 23.1373C95.4092 23.0707 95.3292 22.964 95.3025 22.8173L93.7557 14.6156C93.7424 14.5223 93.7557 14.4289 93.7957 14.3489C93.849 14.2289 93.9424 14.1622 94.0491 14.1222C94.1691 14.0955 94.2758 14.0955 94.3691 14.1489ZM98.8762 16.3493C98.9695 16.4027 99.0362 16.4693 99.0762 16.576C99.1162 16.6827 99.1162 16.7761 99.0762 16.8694C99.0362 16.9494 98.9695 17.0161 98.8762 17.0695L95.3692 18.8965L95.2358 18.0697L98.4895 16.3626C98.6228 16.296 98.7562 16.296 98.8762 16.3493Z" fill="#008482"/>
<path d="M103.317 19.0565L106.45 21.2303C106.544 21.2969 106.61 21.3903 106.637 21.5103C106.664 21.6303 106.637 21.737 106.57 21.8304C106.504 21.9237 106.41 21.9904 106.29 22.0037C106.17 22.0171 106.077 21.9904 105.97 21.9237L103.13 19.95L103.317 19.8566L101.77 22.0704L101.743 21.9104L104.197 23.6041C104.29 23.6707 104.357 23.7641 104.383 23.8841C104.41 24.0041 104.383 24.1108 104.317 24.2175C104.25 24.3109 104.157 24.3776 104.037 24.3909C103.93 24.4042 103.823 24.3776 103.717 24.3109L101.29 22.6305L101.41 22.5905L99.823 24.871L99.8096 24.7776L102.623 26.7247C102.717 26.7914 102.783 26.8847 102.81 27.0047C102.837 27.1248 102.81 27.2315 102.757 27.3115C102.69 27.4048 102.597 27.4715 102.477 27.4848C102.357 27.4982 102.25 27.4715 102.157 27.4048L99.0229 25.2311C98.9296 25.1644 98.8629 25.071 98.8362 24.951C98.8095 24.831 98.8362 24.7243 98.9029 24.6176L102.677 19.1765C102.743 19.0832 102.837 19.0165 102.957 18.9898C103.077 18.9631 103.223 18.9898 103.317 19.0565Z" fill="#008482"/>
<path d="M106.597 31.3383C106.21 30.9783 105.93 30.6049 105.744 30.2049C105.557 29.8182 105.45 29.3648 105.41 28.8714C105.397 28.8047 105.41 28.7381 105.437 28.6714C105.464 28.6047 105.49 28.538 105.544 28.4847C105.624 28.4047 105.717 28.3513 105.837 28.3513C105.957 28.338 106.064 28.378 106.157 28.458C106.224 28.5247 106.264 28.618 106.277 28.7247C106.29 29.1114 106.37 29.4715 106.504 29.8048C106.637 30.1382 106.864 30.4316 107.157 30.7116C107.384 30.9249 107.624 31.085 107.877 31.1783C108.13 31.2716 108.371 31.3116 108.597 31.285C108.824 31.2583 109.024 31.165 109.184 30.9916C109.384 30.7783 109.477 30.5516 109.491 30.3115C109.504 30.0715 109.451 29.8048 109.317 29.5248C109.197 29.2448 109.037 28.9381 108.824 28.618C108.637 28.338 108.477 28.058 108.357 27.7913C108.237 27.5246 108.157 27.2579 108.117 26.9912C108.09 26.7245 108.104 26.4712 108.197 26.2178C108.277 25.9644 108.437 25.7244 108.664 25.4844C108.944 25.191 109.264 25.0043 109.624 24.9243C109.984 24.8443 110.371 24.8843 110.771 25.0177C111.171 25.151 111.544 25.391 111.904 25.7377C112.224 26.0311 112.478 26.3778 112.651 26.7378C112.838 27.1112 112.931 27.4713 112.931 27.8046C112.944 28.0046 112.904 28.1513 112.811 28.2447C112.744 28.3113 112.651 28.3513 112.518 28.3647C112.398 28.3647 112.291 28.3247 112.198 28.258C112.144 28.2047 112.104 28.138 112.091 28.058C112.091 27.8713 112.064 27.6846 111.998 27.4713C111.931 27.2579 111.838 27.0579 111.731 26.8712C111.611 26.6712 111.478 26.4978 111.317 26.3511C111.077 26.1245 110.837 25.9644 110.584 25.8578C110.331 25.7511 110.104 25.7244 109.877 25.7511C109.664 25.7778 109.464 25.8844 109.304 26.0578C109.117 26.2578 109.024 26.4712 109.011 26.7112C109.011 26.9512 109.064 27.1912 109.171 27.4579C109.291 27.7246 109.437 27.9913 109.611 28.2713C109.811 28.578 109.971 28.8714 110.117 29.1514C110.251 29.4315 110.344 29.7115 110.397 29.9782C110.437 30.2449 110.424 30.5116 110.331 30.7783C110.237 31.0449 110.077 31.3116 109.811 31.5783C109.544 31.8584 109.224 32.045 108.851 32.1117C108.477 32.1784 108.09 32.1517 107.69 32.0184C107.29 31.885 106.944 31.6583 106.597 31.3383Z" fill="#008482"/>
<path d="M15.4812 73.8536C15.5079 74.227 15.4545 74.547 15.3479 74.8271C15.2278 75.1071 15.0545 75.3605 14.8278 75.5605C14.6011 75.7605 14.3211 75.9205 14.0144 76.0272C13.7077 76.1472 13.3743 76.2139 13.0276 76.2405C12.5476 76.2805 12.1075 76.2272 11.6942 76.0805C11.2941 75.9472 10.9608 75.7205 10.6941 75.4138C10.4407 75.1071 10.294 74.7071 10.254 74.2137L10.1207 72.3602C10.1207 72.2802 10.134 72.2002 10.2007 72.1335C10.254 72.0668 10.3207 72.0401 10.414 72.0268L15.0145 71.7068C15.0945 71.7068 15.1745 71.7201 15.2412 71.7868C15.3079 71.8401 15.3345 71.9068 15.3479 72.0001L15.4812 73.8536ZM10.8407 74.0937C10.8674 74.4804 10.9874 74.7871 11.1874 75.0138C11.3875 75.2404 11.6408 75.4005 11.9609 75.4938C12.2809 75.5871 12.6143 75.6138 12.9876 75.5871C13.2543 75.5738 13.5077 75.5205 13.7477 75.4405C13.9877 75.3605 14.2011 75.2538 14.3744 75.1071C14.5478 74.9604 14.6945 74.7871 14.7878 74.5737C14.8811 74.3604 14.9212 74.107 14.8945 73.827L14.7878 72.3068L14.8545 72.3602L10.6541 72.6535L10.7207 72.6002L10.8407 74.0937Z" fill="#008482"/>
<path d="M15.8946 77.8674L16.3613 80.481C16.3746 80.561 16.3613 80.641 16.3213 80.7077C16.2813 80.7743 16.2146 80.8144 16.1213 80.8277C16.0413 80.841 15.9612 80.8277 15.9079 80.7743C15.8412 80.721 15.8012 80.6543 15.7879 80.5743L15.3612 78.2008L15.4945 78.2408L13.641 78.5741L13.7077 78.4808L14.0677 80.521C14.0811 80.601 14.0677 80.681 14.0277 80.7477C13.9877 80.8143 13.921 80.8544 13.8277 80.8677C13.7477 80.881 13.6677 80.8677 13.6143 80.8143C13.5477 80.761 13.5077 80.6943 13.4943 80.6143L13.1343 78.5875L13.2143 78.6275L11.3074 78.9608L11.3474 78.9075L11.7608 81.2544C11.7742 81.3344 11.7608 81.4144 11.7075 81.4811C11.6541 81.5478 11.6008 81.5878 11.5208 81.6011C11.4408 81.6144 11.3608 81.6011 11.2941 81.5478C11.2274 81.4944 11.1874 81.4277 11.1741 81.3477L10.7074 78.7341C10.6941 78.6541 10.7074 78.5741 10.7607 78.5075C10.8141 78.4408 10.8807 78.4008 10.9607 78.3874L15.5079 77.574C15.5879 77.5607 15.6679 77.574 15.7346 77.6274C15.8279 77.7074 15.8679 77.774 15.8946 77.8674Z" fill="#008482"/>
<path d="M12.9609 86.2829C12.9876 86.3629 12.9743 86.4429 12.9343 86.5095C12.8943 86.5762 12.8276 86.6296 12.7476 86.6429C12.6676 86.6696 12.5876 86.6562 12.5209 86.6029C12.4542 86.5495 12.4142 86.4962 12.3876 86.4162L11.7475 83.9093C11.7208 83.816 11.7342 83.7493 11.7742 83.6693C11.8142 83.6026 11.8808 83.5493 11.9608 83.5359L16.428 82.3891C16.508 82.3625 16.588 82.3758 16.6546 82.4158C16.7213 82.4558 16.7747 82.5225 16.8013 82.6158C16.828 82.6958 16.8147 82.7759 16.7747 82.8425C16.7347 82.9092 16.668 82.9625 16.588 82.9892L12.2542 84.096L12.3475 83.9226L12.9609 86.2829Z" fill="#008482"/>
<path d="M13.5077 88.9503C13.4277 88.9769 13.3477 88.9636 13.2677 88.9236C13.1876 88.8836 13.1343 88.8169 13.1076 88.7369C13.081 88.6436 13.081 88.5636 13.121 88.4969C13.161 88.4302 13.2143 88.3769 13.2943 88.3502L17.6814 86.9101C17.7614 86.8834 17.8414 86.8834 17.9215 86.9234C18.0015 86.9634 18.0548 87.0301 18.0815 87.1101C18.1081 87.1901 18.1081 87.2701 18.0681 87.3501C18.0281 87.4301 17.9748 87.4701 17.8948 87.4968L13.5077 88.9503Z" fill="#008482"/>
<path d="M19.9083 92.8443C19.895 92.9376 19.855 93.0176 19.7749 93.0576C19.6949 93.111 19.6149 93.111 19.5083 93.0976C19.4416 93.0843 19.3882 93.0443 19.3482 92.9776C19.3082 92.9109 19.2949 92.8443 19.3082 92.7643C19.3349 92.5776 19.3482 92.3776 19.3216 92.1775C19.3082 91.9775 19.2549 91.7908 19.1749 91.5908C19.0682 91.3241 18.9082 91.0841 18.7348 90.8974C18.5482 90.7107 18.3348 90.564 18.0948 90.4707C17.8548 90.3774 17.6014 90.3374 17.3214 90.3374C17.0547 90.3374 16.7747 90.404 16.4946 90.524C16.1879 90.6441 15.9346 90.8041 15.7345 91.0041C15.5345 91.2041 15.3878 91.4175 15.2812 91.6575C15.1878 91.8975 15.1345 92.1375 15.1345 92.4042C15.1345 92.6576 15.2012 92.9243 15.3078 93.191C15.3878 93.3777 15.4812 93.551 15.6145 93.711C15.7345 93.871 15.8812 94.0044 16.0412 94.1111C16.0946 94.1644 16.1346 94.2177 16.1613 94.2977C16.1746 94.3644 16.1746 94.4311 16.1346 94.4978C16.0812 94.5911 16.0146 94.6445 15.9346 94.6578C15.8412 94.6711 15.7612 94.6578 15.6945 94.6044C15.5745 94.5111 15.4679 94.4178 15.3478 94.2844C15.2278 94.1644 15.1212 94.0311 15.0278 93.8844C14.9345 93.7377 14.8545 93.591 14.7878 93.431C14.6544 93.0976 14.5744 92.7643 14.5744 92.4176C14.5744 92.0709 14.6278 91.7508 14.7478 91.4308C14.8678 91.1108 15.0545 90.8307 15.3078 90.5774C15.5612 90.324 15.8812 90.1107 16.2679 89.9507C16.628 89.804 16.9747 89.7373 17.3347 89.7373C17.6814 89.7373 18.0148 89.804 18.3348 89.9373C18.6415 90.0707 18.9215 90.2574 19.1749 90.4974C19.4149 90.7507 19.6149 91.0441 19.7616 91.3908C19.855 91.6308 19.9216 91.8708 19.9616 92.1242C19.9616 92.3642 19.9483 92.6043 19.9083 92.8443Z" fill="#008482"/>
<path d="M16.8413 96.9518C16.7613 96.9918 16.6813 96.9918 16.6013 96.9651C16.5213 96.9385 16.4546 96.8851 16.428 96.8051C16.388 96.7251 16.3746 96.6451 16.4013 96.5651C16.428 96.4851 16.4813 96.4318 16.5613 96.3918L20.6951 94.3249C20.7751 94.2849 20.8551 94.2849 20.9351 94.3115C21.0151 94.3382 21.0818 94.3915 21.1218 94.4849C21.1618 94.5649 21.1618 94.6449 21.1351 94.7249C21.1084 94.8049 21.0551 94.8583 20.9751 94.8983L16.8413 96.9518Z" fill="#008482"/>
<path d="M22.3086 101.833C21.9752 102.033 21.6418 102.166 21.2951 102.219C20.9484 102.286 20.6151 102.286 20.295 102.206C19.975 102.139 19.6683 102.006 19.4016 101.819C19.1216 101.633 18.8949 101.379 18.7082 101.059C18.5215 100.752 18.4015 100.432 18.3615 100.099C18.3215 99.7657 18.3348 99.4457 18.4282 99.1256C18.5215 98.8056 18.6682 98.5122 18.8949 98.2322C19.1082 97.9522 19.3883 97.7255 19.7083 97.5255C20.0417 97.3254 20.375 97.1921 20.7084 97.1254C21.0551 97.0588 21.3885 97.0588 21.7085 97.1254C22.0285 97.1921 22.3352 97.3254 22.6019 97.5121C22.8819 97.6988 23.1086 97.9522 23.2953 98.2722C23.482 98.5922 23.602 98.9123 23.642 99.2456C23.682 99.579 23.6554 99.899 23.5754 100.219C23.482 100.539 23.3353 100.832 23.122 101.112C22.9086 101.393 22.6286 101.633 22.3086 101.833ZM21.9619 101.272C22.3086 101.059 22.5753 100.806 22.7619 100.512C22.9486 100.206 23.042 99.899 23.0553 99.5657C23.0686 99.2323 22.9753 98.9123 22.7753 98.5922C22.5886 98.2855 22.3486 98.0455 22.0419 97.8988C21.7485 97.7522 21.4151 97.6855 21.0684 97.7121C20.7217 97.7388 20.3617 97.8588 20.015 98.0722C19.6683 98.2855 19.4016 98.5389 19.2149 98.8323C19.0282 99.139 18.9349 99.4457 18.9216 99.779C18.9082 100.112 19.0016 100.432 19.1883 100.752C19.3749 101.072 19.6283 101.299 19.9217 101.446C20.215 101.593 20.5484 101.659 20.8951 101.633C21.2685 101.606 21.6285 101.486 21.9619 101.272Z" fill="#008482"/>
<path d="M27.6824 104.647C27.7358 104.713 27.7624 104.793 27.7491 104.873C27.7358 104.953 27.6958 105.02 27.6291 105.073L25.2822 106.887C24.9755 107.127 24.6555 107.26 24.3088 107.3C23.9621 107.34 23.6287 107.3 23.3087 107.18C22.9886 107.047 22.7086 106.834 22.4686 106.527C22.2419 106.22 22.0952 105.9 22.0552 105.553C22.0152 105.207 22.0552 104.873 22.1886 104.54C22.3219 104.22 22.5353 103.94 22.842 103.7L25.1889 101.886C25.2555 101.833 25.3355 101.82 25.4155 101.82C25.4955 101.833 25.5756 101.873 25.6289 101.953C25.6822 102.02 25.6956 102.086 25.6822 102.18C25.6689 102.26 25.6289 102.34 25.5622 102.38L23.2153 104.193C23.002 104.367 22.842 104.553 22.7486 104.793C22.6553 105.02 22.6286 105.26 22.6553 105.5C22.6819 105.74 22.7753 105.953 22.922 106.153C23.082 106.353 23.2687 106.514 23.4953 106.607C23.722 106.7 23.9621 106.74 24.2154 106.714C24.4688 106.687 24.6955 106.594 24.9088 106.42L27.2557 104.607C27.3224 104.553 27.4024 104.527 27.4691 104.54C27.5624 104.54 27.6291 104.58 27.6824 104.647Z" fill="#008482"/>
<path d="M26.2023 110.968C25.9489 110.701 25.7756 110.421 25.6556 110.141C25.5489 109.861 25.4822 109.541 25.4822 109.194C25.4822 109.154 25.4822 109.101 25.5089 109.061C25.5222 109.008 25.5489 108.968 25.5889 108.941C25.6422 108.888 25.7222 108.861 25.8022 108.861C25.8822 108.861 25.9623 108.888 26.0156 108.954C26.0689 109.008 26.0823 109.074 26.0823 109.141C26.0823 109.408 26.1089 109.661 26.2023 109.901C26.2823 110.141 26.429 110.354 26.6157 110.568C26.7623 110.728 26.9224 110.848 27.0957 110.928C27.2691 111.008 27.4291 111.048 27.5891 111.034C27.7491 111.021 27.8958 110.968 28.0158 110.848C28.1625 110.714 28.2425 110.554 28.2558 110.394C28.2692 110.221 28.2425 110.034 28.1758 109.834C28.1091 109.634 28.0025 109.421 27.8691 109.181C27.7491 108.981 27.6558 108.781 27.5758 108.581C27.4957 108.394 27.4557 108.194 27.4424 108.021C27.4291 107.834 27.4557 107.661 27.5224 107.487C27.5891 107.314 27.7091 107.154 27.8825 106.994C28.0958 106.794 28.3225 106.687 28.5759 106.647C28.8292 106.607 29.0959 106.647 29.3626 106.767C29.6293 106.874 29.8827 107.061 30.1227 107.314C30.336 107.541 30.4961 107.781 30.6027 108.048C30.7094 108.314 30.7627 108.568 30.7494 108.808C30.7494 108.941 30.7094 109.048 30.6427 109.114C30.5894 109.168 30.5227 109.181 30.4294 109.181C30.336 109.181 30.2694 109.141 30.216 109.088C30.176 109.048 30.1627 108.994 30.1493 108.941C30.1627 108.821 30.1493 108.674 30.1093 108.528C30.0693 108.381 30.016 108.234 29.9493 108.088C29.8827 107.941 29.7893 107.821 29.6826 107.701C29.5226 107.527 29.3626 107.407 29.1893 107.327C29.0159 107.247 28.8559 107.207 28.7092 107.221C28.5492 107.234 28.4158 107.301 28.2958 107.407C28.1625 107.541 28.0825 107.687 28.0691 107.847C28.0558 108.008 28.0825 108.181 28.1491 108.368C28.2158 108.554 28.3092 108.754 28.4158 108.954C28.5359 109.168 28.6425 109.381 28.7225 109.594C28.8025 109.794 28.8559 109.994 28.8826 110.181C28.8959 110.368 28.8692 110.554 28.8025 110.728C28.7359 110.914 28.6025 111.088 28.4158 111.261C28.2158 111.448 27.9891 111.555 27.7224 111.595C27.4557 111.635 27.189 111.595 26.9224 111.475C26.6823 111.395 26.429 111.208 26.2023 110.968Z" fill="#008482"/>
<path d="M31.4161 115.835C31.3361 115.782 31.2961 115.702 31.2828 115.609C31.2695 115.515 31.2828 115.435 31.3361 115.369L34.2164 111.768C34.2698 111.702 34.3364 111.662 34.4164 111.662C34.4964 111.648 34.5765 111.675 34.6431 111.728L36.2566 113.022C36.47 113.195 36.63 113.409 36.7233 113.635C36.8167 113.875 36.8433 114.129 36.8167 114.382C36.7767 114.635 36.67 114.875 36.4966 115.102C36.3633 115.262 36.2166 115.395 36.0433 115.489C35.8699 115.582 35.6832 115.635 35.4965 115.649C35.3099 115.662 35.1232 115.649 34.9365 115.582L34.8831 115.395C34.9898 115.529 35.0698 115.675 35.1098 115.835C35.1498 115.995 35.1498 116.169 35.1232 116.342C35.0965 116.516 35.0165 116.689 34.8831 116.849C34.7765 116.996 34.6965 117.116 34.6431 117.222C34.5898 117.316 34.5498 117.396 34.5364 117.462C34.5231 117.529 34.5231 117.596 34.5498 117.649C34.5765 117.729 34.5765 117.809 34.5498 117.876C34.5231 117.942 34.4698 117.996 34.3764 118.022C34.3231 118.049 34.2698 118.049 34.2164 118.022C34.1631 117.996 34.1231 117.969 34.0831 117.929C34.0431 117.889 34.0164 117.849 34.0031 117.796C33.9764 117.716 33.9497 117.609 33.9497 117.502C33.9497 117.382 33.9764 117.249 34.0431 117.089C34.1097 116.929 34.2298 116.742 34.4031 116.516C34.4964 116.395 34.5631 116.275 34.5898 116.155C34.6165 116.035 34.6165 115.929 34.5898 115.835C34.5631 115.742 34.5231 115.649 34.4564 115.555C34.3898 115.462 34.3231 115.395 34.2298 115.329L32.923 114.289L33.0696 114.249L31.8562 115.769C31.8028 115.835 31.7362 115.875 31.6562 115.889C31.5762 115.902 31.4828 115.875 31.4161 115.835ZM33.2163 113.862L34.6431 115.009C34.7631 115.089 34.8965 115.142 35.0565 115.142C35.2165 115.155 35.3765 115.115 35.5365 115.049C35.6966 114.969 35.8432 114.849 35.9766 114.689C36.1366 114.489 36.2033 114.262 36.1899 114.022C36.1633 113.782 36.0566 113.582 35.8699 113.422L34.4964 112.315L34.6298 112.235L33.2163 114.009V113.862Z" fill="#008482"/>
<path d="M39.1102 115.116L41.3371 116.569C41.4038 116.609 41.4571 116.676 41.4705 116.756C41.4838 116.836 41.4705 116.916 41.4305 116.983C41.3905 117.049 41.3238 117.089 41.2438 117.103C41.1638 117.116 41.0838 117.103 41.0171 117.049L39.0036 115.729L39.1236 115.662L38.0968 117.236L38.0835 117.129L39.817 118.263C39.8836 118.303 39.937 118.369 39.9503 118.449C39.977 118.529 39.9503 118.609 39.9103 118.676C39.8703 118.743 39.8036 118.783 39.7236 118.796C39.6436 118.809 39.5769 118.796 39.4969 118.743L37.7768 117.623L37.8568 117.583L36.8033 119.196L36.79 119.129L38.7902 120.436C38.8569 120.476 38.9102 120.543 38.9235 120.636C38.9369 120.716 38.9235 120.796 38.8835 120.85C38.8435 120.916 38.7769 120.956 38.6969 120.97C38.6168 120.983 38.5368 120.97 38.4702 120.916L36.2433 119.463C36.1766 119.423 36.1233 119.356 36.1099 119.263C36.0966 119.183 36.1099 119.103 36.1499 119.036L38.6835 115.169C38.7235 115.102 38.7902 115.049 38.8835 115.036C38.9635 115.049 39.0302 115.062 39.1102 115.116Z" fill="#008482"/>
<path d="M46.0843 119.583C46.1376 119.663 46.1509 119.743 46.1243 119.836C46.0976 119.916 46.0309 119.983 45.9509 120.023C45.8842 120.05 45.8176 120.063 45.7509 120.037C45.6842 120.01 45.6309 119.97 45.5909 119.903C45.4975 119.743 45.3775 119.583 45.2309 119.45C45.0842 119.316 44.9242 119.196 44.7375 119.09C44.4841 118.956 44.2174 118.876 43.9507 118.85C43.684 118.823 43.4307 118.85 43.1906 118.93C42.9506 119.01 42.7239 119.143 42.5106 119.316C42.2972 119.49 42.1239 119.716 41.9905 119.983C41.8305 120.277 41.7505 120.557 41.7105 120.837C41.6838 121.117 41.7105 121.37 41.7772 121.623C41.8572 121.863 41.9772 122.09 42.1505 122.29C42.3239 122.49 42.5239 122.65 42.7773 122.783C42.964 122.877 43.1506 122.943 43.3373 122.983C43.524 123.023 43.724 123.037 43.9241 123.023C44.0041 123.023 44.0707 123.05 44.1241 123.09C44.1774 123.13 44.2174 123.197 44.2308 123.263C44.2441 123.37 44.2308 123.45 44.1774 123.517C44.1241 123.584 44.0441 123.624 43.9507 123.624C43.804 123.637 43.644 123.624 43.484 123.597C43.3107 123.57 43.1506 123.544 42.9773 123.49C42.8039 123.437 42.6439 123.37 42.4972 123.303C42.1772 123.13 41.9105 122.917 41.6838 122.663C41.4571 122.41 41.2971 122.117 41.1905 121.797C41.0838 121.477 41.0438 121.143 41.0704 120.783C41.0971 120.423 41.2171 120.063 41.4171 119.69C41.5905 119.356 41.8172 119.063 42.0972 118.85C42.3639 118.623 42.6706 118.463 42.9906 118.356C43.3107 118.263 43.644 118.223 43.9907 118.263C44.3374 118.303 44.6708 118.396 45.0175 118.583C45.2442 118.703 45.4575 118.85 45.6309 119.023C45.8176 119.183 45.9643 119.37 46.0843 119.583Z" fill="#008482"/>
<path d="M46.351 124.704C46.311 124.784 46.2576 124.837 46.1776 124.864C46.0976 124.891 46.0176 124.891 45.9376 124.864C45.8442 124.824 45.7909 124.771 45.7642 124.691C45.7376 124.61 45.7376 124.53 45.7776 124.464L47.6311 120.237C47.6711 120.157 47.7244 120.103 47.8044 120.077C47.8844 120.05 47.9645 120.05 48.0578 120.09C48.1378 120.13 48.1911 120.183 48.2178 120.263C48.2445 120.343 48.2445 120.423 48.2178 120.503L46.351 124.704Z" fill="#008482"/>
<path d="M52.0315 121.637C52.2849 121.73 52.4982 121.877 52.6583 122.077C52.8183 122.277 52.925 122.517 52.965 122.77C53.005 123.037 52.9783 123.304 52.8716 123.584C52.7783 123.864 52.6183 124.091 52.4182 124.277C52.2182 124.464 51.9915 124.584 51.7382 124.637C51.4848 124.691 51.2315 124.677 50.9781 124.584L49.5513 124.077L49.6313 123.997L48.9912 125.771C48.9646 125.851 48.9112 125.904 48.8445 125.944C48.7779 125.984 48.6979 125.984 48.6178 125.957C48.5378 125.931 48.4712 125.877 48.4445 125.797C48.4178 125.717 48.4178 125.651 48.4445 125.571L50.0047 121.224C50.0313 121.144 50.0847 121.09 50.1647 121.05C50.2447 121.01 50.3247 121.01 50.4047 121.037L52.0315 121.637ZM51.1781 124.051C51.3248 124.104 51.4848 124.104 51.6315 124.064C51.7782 124.024 51.9115 123.944 52.0449 123.824C52.1649 123.704 52.2582 123.557 52.3249 123.384C52.3916 123.21 52.4049 123.037 52.3916 122.877C52.3649 122.717 52.3116 122.57 52.2182 122.45C52.1249 122.33 52.0049 122.237 51.8582 122.184L50.4314 121.677L50.5114 121.61L49.7913 123.624L49.7646 123.53L51.1781 124.051Z" fill="#008482"/>
<path d="M55.1652 122.651L57.7388 123.317C57.8188 123.344 57.8855 123.384 57.9255 123.451C57.9655 123.517 57.9788 123.597 57.9521 123.677C57.9255 123.757 57.8855 123.824 57.8188 123.851C57.7521 123.891 57.6721 123.891 57.5921 123.877L55.2585 123.277L55.3519 123.171L54.8852 124.997L54.8318 124.904L56.8454 125.424C56.9254 125.451 56.992 125.491 57.032 125.557C57.072 125.624 57.0854 125.704 57.0587 125.784C57.032 125.864 56.992 125.931 56.9254 125.958C56.8587 125.998 56.7787 125.998 56.6987 125.984L54.7118 125.464L54.7785 125.411L54.2984 127.278L54.2718 127.211L56.5787 127.811C56.6587 127.838 56.7253 127.878 56.7653 127.958C56.8054 128.024 56.8187 128.104 56.8053 128.171C56.7787 128.251 56.7387 128.318 56.672 128.344C56.6053 128.384 56.5253 128.384 56.4453 128.371L53.8717 127.704C53.7917 127.678 53.725 127.638 53.685 127.558C53.645 127.491 53.6317 127.411 53.6584 127.331L54.8185 122.864C54.8451 122.784 54.8852 122.717 54.9652 122.677C55.0185 122.637 55.0852 122.624 55.1652 122.651Z" fill="#008482"/>
<path d="M60.2057 129.185C59.8457 129.118 59.5256 129.011 59.2723 128.865C59.0189 128.705 58.7789 128.491 58.5655 128.211C58.5389 128.171 58.5122 128.131 58.4989 128.091C58.4855 128.038 58.4855 127.998 58.4855 127.945C58.4989 127.865 58.5389 127.798 58.6055 127.745C58.6722 127.691 58.7522 127.678 58.8322 127.691C58.8989 127.705 58.9522 127.745 59.0056 127.798C59.1656 128.011 59.3523 128.198 59.5523 128.331C59.7656 128.465 60.0057 128.558 60.2857 128.598C60.4991 128.638 60.6991 128.638 60.8858 128.598C61.0724 128.558 61.2191 128.491 61.3525 128.385C61.4725 128.278 61.5525 128.145 61.5792 127.985C61.6058 127.785 61.5792 127.611 61.4992 127.465C61.4058 127.318 61.2725 127.184 61.0991 127.078C60.9124 126.958 60.7124 126.851 60.459 126.744C60.2457 126.651 60.0457 126.558 59.8723 126.451C59.699 126.344 59.5523 126.224 59.4323 126.078C59.3123 125.944 59.2323 125.784 59.1789 125.598C59.1256 125.424 59.1256 125.224 59.1656 124.998C59.2056 124.718 59.3256 124.491 59.5123 124.304C59.699 124.118 59.9257 123.984 60.2057 123.918C60.4857 123.838 60.7924 123.838 61.1391 123.891C61.4325 123.944 61.7125 124.038 61.9659 124.184C62.2192 124.331 62.4059 124.504 62.5393 124.691C62.6193 124.798 62.6593 124.904 62.6459 124.998C62.6326 125.064 62.5926 125.131 62.5259 125.184C62.4592 125.238 62.3792 125.251 62.2992 125.238C62.2459 125.224 62.1926 125.198 62.1659 125.158C62.0992 125.051 62.0059 124.944 61.8859 124.851C61.7658 124.758 61.6325 124.678 61.4992 124.598C61.3525 124.531 61.2058 124.478 61.0591 124.451C60.8324 124.411 60.6324 124.411 60.4457 124.451C60.259 124.491 60.1123 124.558 59.9923 124.664C59.8723 124.771 59.8057 124.904 59.779 125.064C59.7523 125.251 59.779 125.411 59.859 125.558C59.939 125.704 60.0723 125.824 60.2457 125.931C60.419 126.038 60.6057 126.144 60.8191 126.238C61.0458 126.331 61.2591 126.438 61.4591 126.544C61.6458 126.651 61.8059 126.784 61.9392 126.918C62.0725 127.051 62.1526 127.224 62.2059 127.411C62.2592 127.598 62.2592 127.825 62.2192 128.078C62.1792 128.345 62.0592 128.571 61.8725 128.758C61.6858 128.945 61.4458 129.078 61.1658 129.158C60.8458 129.225 60.5391 129.238 60.2057 129.185Z" fill="#008482"/>
<path d="M68.3532 129.958C67.9931 129.958 67.6864 129.865 67.4197 129.705C67.153 129.545 66.9397 129.331 66.7797 129.065C66.633 128.811 66.553 128.531 66.553 128.238C66.553 128.011 66.6063 127.798 66.6997 127.585C66.793 127.385 66.9264 127.198 67.0997 127.038C67.2731 126.878 67.5131 126.758 67.7798 126.651L68.1798 127.078C67.8064 127.158 67.5398 127.291 67.3931 127.491C67.2464 127.691 67.1664 127.905 67.1664 128.145C67.1664 128.345 67.2064 128.531 67.2997 128.718C67.3931 128.905 67.5398 129.051 67.7264 129.171C67.9265 129.291 68.1665 129.345 68.4598 129.358C68.7532 129.358 69.0066 129.318 69.2333 129.211C69.4466 129.105 69.6333 128.971 69.7933 128.798C69.9533 128.625 70.0734 128.425 70.1667 128.211C70.26 127.998 70.3267 127.771 70.3801 127.545C70.3934 127.491 70.4201 127.438 70.4601 127.398C70.5001 127.358 70.5667 127.345 70.6334 127.345C70.7268 127.345 70.7934 127.385 70.8468 127.451C70.9001 127.518 70.9134 127.598 70.9001 127.705C70.8601 127.985 70.7668 128.251 70.6334 128.518C70.5001 128.785 70.34 129.025 70.1267 129.238C69.9133 129.451 69.66 129.625 69.3666 129.745C69.0732 129.905 68.7399 129.971 68.3532 129.958ZM71.0068 129.931C70.9668 129.931 70.9268 129.931 70.9001 129.918C70.8734 129.905 70.8468 129.891 70.8201 129.878C70.5001 129.611 70.2067 129.358 69.9133 129.118C69.6333 128.878 69.3533 128.625 69.0999 128.371C68.8332 128.118 68.5665 127.825 68.2998 127.505C68.1265 127.305 67.9798 127.105 67.8331 126.931C67.6998 126.744 67.5798 126.571 67.4997 126.398C67.4197 126.224 67.3797 126.038 67.3797 125.864C67.3797 125.624 67.4464 125.411 67.5664 125.224C67.6864 125.038 67.8598 124.878 68.0865 124.771C68.3132 124.664 68.5799 124.598 68.8732 124.611C69.2333 124.611 69.5266 124.691 69.78 124.811C70.02 124.944 70.1934 125.104 70.2867 125.291C70.2867 125.291 70.3 125.318 70.3134 125.358C70.3267 125.398 70.3267 125.438 70.3267 125.491C70.3267 125.544 70.3 125.611 70.2467 125.651C70.1934 125.704 70.1267 125.718 70.0467 125.718C69.9933 125.718 69.9533 125.704 69.9267 125.691C69.8867 125.664 69.86 125.651 69.8467 125.624C69.7533 125.478 69.62 125.358 69.4733 125.264C69.3266 125.171 69.1133 125.131 68.8732 125.131C68.5932 125.131 68.3798 125.198 68.2332 125.331C68.0865 125.464 68.0065 125.651 68.0065 125.864C68.0065 126.024 68.0465 126.184 68.1398 126.344C68.2332 126.504 68.3398 126.678 68.4732 126.838C68.6065 126.998 68.7399 127.158 68.8599 127.305C69.0466 127.518 69.2333 127.718 69.4333 127.918C69.6333 128.118 69.8467 128.318 70.0467 128.505C70.2467 128.691 70.4467 128.865 70.6334 129.011C70.8201 129.158 70.9801 129.291 71.1135 129.398C71.1535 129.438 71.1935 129.478 71.2068 129.518C71.2201 129.558 71.2335 129.611 71.2335 129.665C71.2335 129.718 71.2068 129.771 71.1668 129.838C71.1535 129.905 71.0868 129.931 71.0068 129.931Z" fill="#008482"/>
<path d="M78.9009 128.651C78.9809 128.638 79.0609 128.665 79.1276 128.705C79.1942 128.758 79.2342 128.825 79.2476 128.905C79.2609 128.985 79.2342 129.065 79.1809 129.118C79.1276 129.185 79.0609 129.211 78.9809 129.225L76.4206 129.545C76.3273 129.558 76.2606 129.531 76.1939 129.478C76.1273 129.425 76.0873 129.358 76.0873 129.278L75.5139 124.691C75.5005 124.611 75.5272 124.531 75.5805 124.464C75.6339 124.398 75.7006 124.358 75.7939 124.344C75.8739 124.331 75.9539 124.358 76.0206 124.411C76.0873 124.464 76.1273 124.531 76.1406 124.611L76.674 129.078L76.514 128.958L78.9009 128.651Z" fill="#008482"/>
<path d="M85.1148 125.318C85.1948 125.691 85.2215 126.051 85.1682 126.398C85.1148 126.744 85.0082 127.064 84.8481 127.344C84.6748 127.638 84.4614 127.878 84.1947 128.078C83.9281 128.278 83.608 128.411 83.248 128.491C82.888 128.571 82.5546 128.585 82.2212 128.518C81.8879 128.451 81.5945 128.331 81.3145 128.144C81.0344 127.958 80.8077 127.718 80.6211 127.424C80.4344 127.131 80.2877 126.798 80.2077 126.424C80.1277 126.051 80.101 125.691 80.1544 125.344C80.2077 124.998 80.3144 124.677 80.4744 124.397C80.6477 124.104 80.8611 123.864 81.1278 123.664C81.3945 123.464 81.7145 123.331 82.0612 123.251C82.4212 123.171 82.7679 123.157 83.088 123.224C83.4213 123.291 83.7147 123.411 83.9947 123.597C84.2748 123.784 84.5014 124.024 84.7015 124.317C84.9015 124.611 85.0348 124.944 85.1148 125.318ZM84.4881 125.464C84.3948 125.064 84.2481 124.731 84.0214 124.464C83.7947 124.184 83.528 123.997 83.208 123.891C82.888 123.784 82.5546 123.757 82.1945 123.837C81.8345 123.917 81.5412 124.077 81.3145 124.317C81.0744 124.557 80.9144 124.837 80.8344 125.184C80.7544 125.531 80.7544 125.891 80.8344 126.291C80.9278 126.691 81.0744 127.024 81.3011 127.291C81.5278 127.571 81.7945 127.758 82.1145 127.864C82.4346 127.971 82.7679 127.998 83.1146 127.918C83.4747 127.838 83.768 127.678 84.0081 127.438C84.2481 127.198 84.4081 126.904 84.4881 126.571C84.5681 126.224 84.5681 125.851 84.4881 125.464Z" fill="#008482"/>
<path d="M89.662 121.424C89.7553 121.437 89.822 121.49 89.862 121.57C89.902 121.65 89.9153 121.744 89.8753 121.837C89.8487 121.904 89.8086 121.957 89.742 121.984C89.6753 122.01 89.6086 122.024 89.5286 122.01C89.3419 121.97 89.1419 121.957 88.9552 121.957C88.7552 121.97 88.5552 121.997 88.3552 122.064C88.0751 122.157 87.8351 122.29 87.6351 122.464C87.4351 122.637 87.2751 122.837 87.1684 123.077C87.0617 123.317 86.995 123.571 86.9817 123.837C86.9684 124.104 87.0084 124.384 87.115 124.677C87.2217 124.984 87.3684 125.251 87.5418 125.464C87.7284 125.677 87.9285 125.837 88.1551 125.957C88.3818 126.077 88.6352 126.131 88.8886 126.144C89.1419 126.157 89.4086 126.117 89.6753 126.024C89.862 125.957 90.0487 125.864 90.2087 125.757C90.3687 125.651 90.5154 125.517 90.6354 125.357C90.6887 125.304 90.7554 125.264 90.8221 125.251C90.8888 125.237 90.9554 125.251 91.0221 125.291C91.1154 125.344 91.1555 125.411 91.1688 125.504C91.1821 125.597 91.1554 125.664 91.0888 125.744C90.9954 125.851 90.8754 125.971 90.7554 126.077C90.6221 126.184 90.4887 126.277 90.3287 126.371C90.182 126.464 90.022 126.531 89.862 126.584C89.5286 126.704 89.1819 126.744 88.8352 126.731C88.4885 126.718 88.1685 126.638 87.8618 126.504C87.5551 126.357 87.2751 126.157 87.0484 125.891C86.8083 125.624 86.6217 125.291 86.4883 124.891C86.3683 124.531 86.315 124.171 86.3416 123.824C86.3683 123.477 86.4483 123.144 86.595 122.837C86.7417 122.53 86.955 122.264 87.2084 122.037C87.4751 121.81 87.7818 121.637 88.1418 121.517C88.3818 121.437 88.6352 121.384 88.8886 121.37C89.1819 121.357 89.4353 121.37 89.662 121.424Z" fill="#008482"/>
<path d="M93.009 120.463L93.1823 125.077C93.1956 125.144 93.1823 125.197 93.1423 125.251C93.1156 125.304 93.0756 125.344 93.0223 125.371C92.9423 125.411 92.8623 125.411 92.7956 125.384C92.7289 125.357 92.6889 125.304 92.6489 125.251C92.6356 125.224 92.6223 125.184 92.6223 125.144L92.4489 120.063C92.4489 119.983 92.4622 119.917 92.5023 119.863C92.5289 119.81 92.5823 119.77 92.6489 119.743C92.7023 119.717 92.7689 119.703 92.8356 119.717C92.9023 119.73 92.9556 119.757 92.9956 119.81L96.676 123.25C96.7026 123.277 96.7293 123.317 96.7427 123.344C96.7827 123.424 96.7827 123.504 96.756 123.584C96.7293 123.664 96.676 123.717 96.6093 123.744C96.556 123.77 96.4893 123.784 96.436 123.77C96.3693 123.757 96.3159 123.73 96.2759 123.677L92.889 120.517L93.009 120.463ZM93.009 123.81L92.9956 123.17L95.0225 122.25L95.3692 122.73L93.009 123.81Z" fill="#008482"/>
<path d="M100.69 120.797C100.77 120.757 100.836 120.743 100.916 120.77C100.996 120.797 101.063 120.837 101.103 120.917C101.143 120.997 101.156 121.063 101.13 121.143C101.103 121.223 101.05 121.277 100.983 121.317L98.7429 122.597C98.6629 122.637 98.5829 122.65 98.5028 122.623C98.4228 122.597 98.3695 122.557 98.3162 122.477L96.0359 118.463C95.9959 118.383 95.9826 118.316 96.0093 118.236C96.0359 118.156 96.0893 118.09 96.1693 118.05C96.2493 118.01 96.316 117.996 96.396 118.023C96.476 118.05 96.5427 118.09 96.5827 118.17L98.7962 122.05L98.5962 122.01L100.69 120.797Z" fill="#008482"/>
<path d="M105.53 117.849C105.584 117.916 105.597 117.996 105.584 118.076C105.57 118.156 105.53 118.223 105.464 118.276C105.384 118.329 105.304 118.356 105.224 118.343C105.144 118.329 105.077 118.289 105.023 118.223L102.29 114.502C102.237 114.436 102.223 114.356 102.237 114.276C102.25 114.195 102.29 114.115 102.37 114.062C102.437 114.009 102.517 113.995 102.597 114.009C102.677 114.022 102.743 114.062 102.797 114.129L105.53 117.849Z" fill="#008482"/>
<path d="M107.077 110.221C107.144 110.168 107.21 110.141 107.277 110.155C107.357 110.168 107.41 110.195 107.464 110.261L110.491 113.768C110.557 113.835 110.584 113.915 110.571 113.995C110.557 114.075 110.531 114.142 110.464 114.208C110.437 114.235 110.397 114.262 110.357 114.275C110.317 114.288 110.264 114.302 110.237 114.288L105.05 113.182L105.104 113.022L107.81 116.142C107.864 116.209 107.89 116.275 107.877 116.342C107.877 116.422 107.837 116.475 107.77 116.542C107.704 116.595 107.637 116.622 107.57 116.609C107.504 116.595 107.437 116.569 107.384 116.502L104.343 112.982C104.277 112.915 104.25 112.835 104.263 112.755C104.277 112.675 104.303 112.608 104.37 112.555C104.41 112.528 104.45 112.502 104.49 112.488C104.543 112.475 104.583 112.475 104.623 112.488L109.731 113.582L109.744 113.728L107.05 110.621C106.997 110.555 106.97 110.488 106.984 110.421C106.984 110.341 107.01 110.275 107.077 110.221Z" fill="#008482"/>
<path d="M114.118 110.634C113.851 110.914 113.558 111.128 113.238 111.274C112.918 111.421 112.584 111.501 112.238 111.514C111.891 111.528 111.557 111.474 111.224 111.354C110.891 111.234 110.584 111.048 110.317 110.781C110.037 110.528 109.824 110.234 109.691 109.914C109.544 109.594 109.464 109.261 109.451 108.914C109.437 108.567 109.491 108.234 109.624 107.901C109.744 107.567 109.944 107.261 110.197 106.981C110.371 106.794 110.557 106.634 110.757 106.501C110.957 106.367 111.171 106.274 111.384 106.221C111.437 106.207 111.491 106.194 111.544 106.207C111.597 106.221 111.637 106.247 111.664 106.274C111.731 106.327 111.757 106.407 111.757 106.487C111.757 106.567 111.744 106.634 111.691 106.687C111.664 106.714 111.651 106.727 111.624 106.741C111.597 106.754 111.571 106.767 111.544 106.781C111.384 106.834 111.224 106.914 111.064 107.021C110.904 107.114 110.757 107.247 110.624 107.381C110.357 107.674 110.184 107.994 110.104 108.341C110.024 108.687 110.037 109.048 110.157 109.394C110.264 109.741 110.464 110.048 110.757 110.314C111.051 110.581 111.371 110.754 111.717 110.848C112.078 110.928 112.424 110.928 112.771 110.821C113.118 110.714 113.424 110.528 113.691 110.234C113.824 110.088 113.944 109.914 114.051 109.728C114.158 109.541 114.224 109.354 114.264 109.194L114.371 109.354L113.224 108.287L113.371 108.274L112.598 109.101C112.544 109.168 112.464 109.194 112.384 109.194C112.304 109.194 112.224 109.168 112.171 109.114C112.104 109.048 112.078 108.981 112.078 108.901C112.078 108.821 112.104 108.741 112.158 108.687L113.091 107.687C113.144 107.621 113.224 107.594 113.304 107.594C113.384 107.594 113.464 107.621 113.518 107.674L114.784 108.848C114.824 108.888 114.851 108.941 114.878 108.981C114.891 109.034 114.891 109.088 114.891 109.141C114.838 109.408 114.758 109.661 114.638 109.914C114.478 110.181 114.318 110.421 114.118 110.634Z" fill="#008482"/>
<path d="M116.825 107.38C116.771 107.46 116.691 107.5 116.598 107.527C116.505 107.54 116.425 107.527 116.358 107.474L112.678 104.687C112.611 104.633 112.571 104.567 112.558 104.487C112.544 104.407 112.571 104.327 112.611 104.26L113.851 102.62C114.024 102.393 114.224 102.233 114.464 102.14C114.704 102.033 114.945 102.006 115.211 102.033C115.478 102.06 115.718 102.166 115.945 102.34C116.118 102.46 116.238 102.62 116.345 102.793C116.451 102.967 116.505 103.153 116.518 103.34C116.545 103.527 116.518 103.713 116.465 103.9L116.278 103.967C116.411 103.847 116.558 103.767 116.718 103.727C116.878 103.687 117.051 103.673 117.225 103.7C117.398 103.727 117.571 103.807 117.745 103.927C117.891 104.033 118.025 104.113 118.118 104.167C118.212 104.22 118.292 104.26 118.358 104.273C118.425 104.287 118.492 104.287 118.545 104.26C118.625 104.233 118.705 104.233 118.772 104.26C118.838 104.287 118.892 104.34 118.918 104.42C118.945 104.473 118.945 104.527 118.918 104.58C118.905 104.633 118.865 104.687 118.825 104.727C118.785 104.767 118.745 104.793 118.692 104.82C118.612 104.847 118.518 104.873 118.398 104.887C118.278 104.9 118.145 104.873 117.985 104.807C117.825 104.74 117.638 104.633 117.411 104.46C117.291 104.367 117.171 104.313 117.051 104.287C116.931 104.26 116.825 104.26 116.731 104.3C116.638 104.34 116.545 104.38 116.451 104.447C116.371 104.513 116.291 104.593 116.225 104.673L115.225 106.007L115.171 105.86L116.718 107.034C116.785 107.087 116.825 107.154 116.851 107.22C116.891 107.247 116.878 107.314 116.825 107.38ZM114.824 105.633L115.931 104.18C116.011 104.06 116.051 103.927 116.065 103.767C116.065 103.607 116.038 103.46 115.958 103.3C115.878 103.14 115.758 102.993 115.585 102.873C115.385 102.713 115.158 102.646 114.918 102.686C114.678 102.713 114.478 102.833 114.331 103.02L113.264 104.42L113.184 104.287L114.998 105.66L114.824 105.633Z" fill="#008482"/>
<path d="M115.905 99.7124L117.305 97.4455C117.345 97.3788 117.411 97.3255 117.491 97.3121C117.571 97.2855 117.651 97.2988 117.718 97.3521C117.785 97.3921 117.838 97.4588 117.851 97.5388C117.865 97.6188 117.851 97.6988 117.798 97.7655L116.531 99.8057L116.465 99.6857L118.065 100.672L117.958 100.699L119.052 98.9256C119.092 98.859 119.158 98.8056 119.238 98.7789C119.318 98.7523 119.398 98.7656 119.465 98.8189C119.532 98.8589 119.585 98.9256 119.598 99.0056C119.612 99.0856 119.598 99.1657 119.545 99.2323L118.465 100.979L118.425 100.899L120.065 101.913L119.998 101.926L121.252 99.8991C121.292 99.8324 121.358 99.779 121.439 99.7657C121.519 99.7524 121.599 99.7524 121.652 99.7924C121.719 99.8324 121.772 99.8991 121.785 99.9791C121.799 100.059 121.785 100.139 121.745 100.206L120.345 102.473C120.305 102.539 120.238 102.593 120.158 102.606C120.078 102.619 119.998 102.619 119.932 102.566L115.998 100.139C115.931 100.099 115.878 100.032 115.865 99.9524C115.851 99.859 115.865 99.779 115.905 99.7124Z" fill="#008482"/>
<path d="M119.172 93.898C119.332 93.5647 119.532 93.3113 119.785 93.1246C120.025 92.9379 120.305 92.8179 120.598 92.7512C120.905 92.6979 121.212 92.6979 121.532 92.7512C121.852 92.8046 122.172 92.9113 122.492 93.0713C122.932 93.2846 123.279 93.5513 123.572 93.8714C123.852 94.1914 124.025 94.5514 124.092 94.9515C124.159 95.3515 124.079 95.7649 123.865 96.2049L123.052 97.8717C123.012 97.9517 122.959 98.0051 122.879 98.0318C122.799 98.0584 122.719 98.0584 122.639 98.0184L118.492 95.9916C118.412 95.9516 118.358 95.8982 118.332 95.8182C118.305 95.7382 118.305 95.6582 118.345 95.5782L119.172 93.898ZM123.319 96.0182C123.492 95.6715 123.545 95.3515 123.479 95.0448C123.412 94.7514 123.279 94.4847 123.052 94.2447C122.825 94.0047 122.545 93.8047 122.212 93.6447C121.972 93.5247 121.732 93.4446 121.478 93.3913C121.225 93.338 120.998 93.338 120.772 93.3646C120.545 93.3913 120.332 93.4846 120.145 93.618C119.958 93.7513 119.798 93.9514 119.665 94.2181L118.998 95.5915L118.958 95.5115L122.732 97.365L122.639 97.3784L123.319 96.0182Z" fill="#008482"/>
<path d="M125.519 91.6842C125.599 91.7108 125.652 91.7775 125.679 91.8575C125.706 91.9375 125.706 92.0175 125.679 92.0975C125.639 92.1909 125.586 92.2442 125.506 92.2709C125.426 92.2976 125.346 92.2976 125.279 92.2709L120.985 90.5641C120.905 90.5374 120.852 90.4841 120.812 90.4041C120.785 90.324 120.785 90.244 120.812 90.1507C120.838 90.0707 120.892 90.0173 120.972 89.9773C121.052 89.9373 121.132 89.9373 121.212 89.9773L125.519 91.6842Z" fill="#008482"/>
<path d="M121.719 87.7766L122.532 85.243C122.559 85.163 122.612 85.0964 122.679 85.0564C122.745 85.0164 122.825 85.0164 122.905 85.0297C122.985 85.0564 123.039 85.1097 123.079 85.1764C123.105 85.243 123.119 85.3231 123.092 85.4031L122.359 87.6966L122.252 87.59L124.039 88.1633L123.932 88.2033L124.572 86.2298C124.599 86.1498 124.652 86.0831 124.719 86.0431C124.785 86.0031 124.865 85.9898 124.959 86.0298C125.039 86.0565 125.092 86.1098 125.132 86.1765C125.172 86.2431 125.172 86.3232 125.146 86.4032L124.519 88.3634L124.465 88.2967L126.306 88.8834L126.239 88.9101L126.972 86.6432C126.999 86.5632 127.052 86.4965 127.119 86.4698C127.199 86.4298 127.266 86.4298 127.332 86.4432C127.412 86.4698 127.466 86.5232 127.506 86.5899C127.546 86.6699 127.546 86.7365 127.519 86.8165L126.706 89.3501C126.679 89.4301 126.626 89.4968 126.559 89.5235C126.479 89.5635 126.412 89.5635 126.319 89.5368L121.919 88.1233C121.839 88.0967 121.772 88.0433 121.745 87.9767C121.705 87.9367 121.692 87.8566 121.719 87.7766Z" fill="#008482"/>
<path d="M123.852 79.6819C123.865 79.6019 123.905 79.5352 123.972 79.5086C124.039 79.4686 124.105 79.4552 124.185 79.4819L128.719 80.4553C128.813 80.4687 128.879 80.522 128.919 80.5887C128.959 80.6553 128.973 80.7354 128.959 80.8287C128.946 80.8687 128.933 80.9087 128.906 80.9487C128.879 80.9887 128.853 81.0154 128.813 81.042L124.012 83.2823L123.959 83.1223L127.999 83.989C128.079 84.0023 128.132 84.0423 128.172 84.109C128.212 84.1757 128.226 84.2424 128.212 84.3224C128.199 84.4024 128.159 84.4691 128.092 84.5091C128.026 84.5491 127.959 84.5624 127.879 84.5357L123.345 83.5356C123.252 83.5223 123.185 83.469 123.145 83.4023C123.105 83.3356 123.092 83.2556 123.105 83.1756C123.119 83.1356 123.132 83.0822 123.159 83.0422C123.185 83.0022 123.225 82.9756 123.265 82.9489L127.999 80.7487L128.092 80.8554L124.079 79.9886C123.999 79.9753 123.945 79.9353 123.892 79.8686C123.852 79.8286 123.839 79.7619 123.852 79.6819Z" fill="#008482"/>
<path d="M124.746 77.7474C124.732 77.8274 124.705 77.8941 124.639 77.9474C124.572 78.0007 124.505 78.0274 124.425 78.0141C124.345 78.0007 124.279 77.9741 124.225 77.9074C124.185 77.8407 124.159 77.774 124.172 77.6807L124.545 74.227C124.559 74.147 124.585 74.0803 124.652 74.027C124.719 73.9737 124.785 73.947 124.866 73.9603C124.946 73.9737 125.012 74.0003 125.066 74.067C125.106 74.1337 125.132 74.2004 125.119 74.2937L124.746 77.7474ZM129.559 76.5339C129.546 76.6273 129.506 76.6939 129.439 76.7473C129.373 76.8006 129.293 76.8139 129.213 76.8139L124.625 76.3206L124.692 75.6938L129.279 76.1872C129.359 76.2006 129.426 76.2406 129.479 76.2939C129.546 76.3606 129.573 76.4406 129.559 76.5339Z" fill="#008482"/>
<path d="M129.973 71.04C129.973 71.4134 129.906 71.7334 129.786 72.0135C129.666 72.2935 129.493 72.5602 129.253 72.8135C129.226 72.8536 129.186 72.8802 129.133 72.8936C129.093 72.9202 129.039 72.9202 128.986 72.9202C128.906 72.9202 128.839 72.8936 128.773 72.8269C128.706 72.7735 128.679 72.6935 128.679 72.6135C128.679 72.5469 128.706 72.4802 128.759 72.4268C128.946 72.2402 129.106 72.0268 129.199 71.8001C129.306 71.5734 129.359 71.3201 129.359 71.04C129.359 70.8267 129.333 70.6267 129.266 70.4533C129.199 70.28 129.106 70.1333 128.986 70.0266C128.866 69.9199 128.719 69.8666 128.559 69.8666C128.359 69.8666 128.199 69.9199 128.066 70.0266C127.932 70.1333 127.826 70.2933 127.732 70.48C127.639 70.68 127.572 70.9067 127.492 71.1601C127.439 71.3867 127.359 71.6001 127.279 71.7868C127.199 71.9735 127.092 72.1468 126.986 72.2802C126.866 72.4268 126.719 72.5335 126.559 72.6002C126.386 72.6802 126.186 72.7069 125.959 72.7069C125.679 72.7069 125.426 72.6269 125.226 72.4668C125.012 72.3202 124.852 72.1068 124.745 71.8401C124.625 71.5734 124.572 71.2667 124.585 70.92C124.585 70.6133 124.639 70.3333 124.745 70.0533C124.852 69.7866 124.986 69.5732 125.172 69.3999C125.266 69.3065 125.359 69.2532 125.452 69.2532C125.519 69.2532 125.586 69.2799 125.652 69.3465C125.719 69.4132 125.746 69.4799 125.746 69.5599C125.746 69.6132 125.732 69.6666 125.692 69.7066C125.599 69.7866 125.506 69.8933 125.439 70.0266C125.359 70.1599 125.306 70.2933 125.252 70.4533C125.199 70.6 125.186 70.76 125.172 70.9067C125.172 71.1334 125.199 71.3334 125.266 71.5201C125.332 71.6934 125.426 71.8268 125.546 71.9335C125.666 72.0268 125.812 72.0801 125.972 72.0801C126.159 72.0801 126.319 72.0268 126.439 71.9201C126.559 71.8134 126.666 71.6668 126.746 71.4801C126.826 71.2934 126.892 71.0934 126.959 70.8667C127.026 70.6267 127.092 70.4 127.172 70.2C127.252 69.9999 127.346 69.8133 127.466 69.6666C127.586 69.5199 127.732 69.3999 127.906 69.3199C128.079 69.2399 128.306 69.1999 128.559 69.2132C128.839 69.2132 129.079 69.2932 129.293 69.4532C129.506 69.6132 129.666 69.8266 129.786 70.0933C129.919 70.4 129.986 70.7067 129.973 71.04Z" fill="#008482"/>
<path d="M82.7146 45.9019C82.9013 45.8485 83.0613 45.7952 83.2213 45.7552C83.6613 45.6485 84.1014 45.5551 84.5414 45.4618C84.7681 45.4084 85.0081 45.3551 85.2348 45.3017C85.9016 45.1551 86.675 44.8083 87.075 44.5949C87.5017 44.3682 87.8484 44.0615 88.2218 43.7681C88.4485 43.5814 88.6485 43.3414 88.8352 43.1146C88.9819 42.9546 89.1152 42.7812 89.2219 42.5945C89.4486 42.2478 89.6486 41.8744 89.8353 41.501C90.0353 41.1142 90.2487 40.7542 90.462 40.3674C90.5554 40.2074 90.6221 40.0474 90.7154 39.8873C90.7421 39.834 90.7954 39.8073 90.8354 39.7673C90.9154 39.7806 90.9821 39.794 91.0621 39.794C91.0888 39.834 91.1288 39.8873 91.1421 39.9407C91.2754 40.4741 91.3955 41.0209 91.5155 41.5543C91.5555 41.7144 91.5688 41.8877 91.6088 42.0611C91.6488 42.2078 91.7155 42.3545 91.7555 42.5145C91.8488 43.0213 92.0622 43.4881 92.3022 43.9415C92.4089 44.1549 92.5289 44.3549 92.6489 44.5549C92.9823 45.0484 93.3823 45.4885 93.849 45.8619C94.1957 46.1419 94.5558 46.382 94.9425 46.6087C95.4492 46.9021 95.9693 47.1821 96.4893 47.4489C96.676 47.5555 96.876 47.6356 97.1027 47.7556C97.1294 47.8223 97.2761 47.8756 97.2227 48.0623C97.0894 48.2757 96.8093 48.2623 96.596 48.3024C95.9959 48.4224 95.4092 48.5824 94.8091 48.6758C94.4891 48.7291 94.1824 48.8625 93.8757 48.9692C93.5557 49.0892 93.209 49.1959 92.9423 49.3826C92.5822 49.636 92.1689 49.796 91.8755 50.1561C91.6888 50.3828 91.4355 50.5428 91.2354 50.7695C90.9554 51.0762 90.7421 51.423 90.5154 51.7564C90.382 51.9564 90.2887 52.1698 90.1687 52.3832C89.9687 52.7566 89.7686 53.1167 89.5686 53.4901C89.4753 53.6634 89.4086 53.8501 89.3019 53.9968C89.2219 54.1169 89.1419 54.2636 88.9686 54.2902C88.7285 54.1569 88.7285 53.9035 88.6885 53.6901C88.6485 53.4367 88.5685 53.1833 88.5285 52.9299C88.5018 52.7299 88.4352 52.5432 88.4085 52.3298C88.3818 52.1298 88.3152 51.9297 88.2618 51.743C88.1151 51.2096 87.9418 50.6762 87.6884 50.1827C87.4484 49.7426 87.195 49.3026 86.8617 48.9291C86.3816 48.3824 85.8349 47.9023 85.2082 47.5289C84.8081 47.3022 84.4081 47.0754 83.9814 46.8754C83.7814 46.782 83.6213 46.6487 83.408 46.5687C83.2213 46.502 83.0613 46.3686 82.8746 46.2753C82.7546 46.2353 82.7146 46.1286 82.7146 45.9019Z" fill="#008482"/>
<path d="M71.5001 37.1931C71.5668 37.1531 71.6201 37.1131 71.6735 37.0731C71.8335 36.9798 71.9935 36.8864 72.1535 36.7931C72.2335 36.7397 72.3135 36.6864 72.4069 36.6464C72.6469 36.5131 72.9003 36.273 73.0336 36.1397C73.167 35.993 73.2736 35.833 73.367 35.673C73.4337 35.5663 73.4737 35.4463 73.527 35.3396C73.567 35.2596 73.5937 35.1796 73.607 35.0862C73.647 34.9262 73.6737 34.7529 73.7003 34.5795C73.727 34.4062 73.767 34.2328 73.7937 34.0595C73.807 33.9928 73.8204 33.9128 73.8337 33.8461C73.8337 33.8195 73.847 33.8061 73.8604 33.7794C73.887 33.7794 73.927 33.7661 73.9537 33.7661C73.967 33.7794 73.9937 33.7928 74.007 33.8061C74.1271 33.9928 74.2471 34.1928 74.3537 34.3795C74.3937 34.4328 74.4204 34.4995 74.4471 34.5662C74.4871 34.6195 74.5271 34.6729 74.5538 34.7262C74.6604 34.9129 74.7938 35.0596 74.9538 35.2063C75.0205 35.2729 75.0872 35.3396 75.1672 35.3929C75.3538 35.5396 75.5672 35.6596 75.7939 35.753C75.9672 35.8196 76.1406 35.8597 76.3139 35.8997C76.554 35.953 76.7807 35.993 77.0207 36.033C77.114 36.0463 77.194 36.0597 77.3007 36.073C77.3274 36.0997 77.3807 36.0997 77.3807 36.1797C77.3541 36.273 77.2474 36.313 77.1674 36.353C76.954 36.473 76.7407 36.6064 76.514 36.7264C76.394 36.7931 76.2873 36.8731 76.1939 36.9664C76.0873 37.0598 75.9672 37.1398 75.8872 37.2465C75.7806 37.3931 75.6472 37.5132 75.5672 37.6865C75.5272 37.7932 75.4472 37.8999 75.3939 38.0065C75.3272 38.1665 75.2872 38.3266 75.2338 38.4866C75.2072 38.5799 75.1938 38.6733 75.1805 38.7666C75.1538 38.94 75.1138 39.1 75.0872 39.2733C75.0738 39.3533 75.0738 39.4333 75.0472 39.5C75.0338 39.5534 75.0205 39.62 74.9538 39.66C74.8471 39.6467 74.8071 39.54 74.7671 39.46C74.7138 39.3667 74.6604 39.2733 74.6071 39.18C74.5671 39.1133 74.5138 39.0466 74.4871 38.9666C74.4471 38.8866 74.4071 38.8199 74.3537 38.7533C74.2337 38.5666 74.1004 38.3799 73.927 38.2199C73.7804 38.0732 73.6203 37.9399 73.447 37.8465C73.1936 37.6998 72.9136 37.5798 72.6202 37.5132C72.4336 37.4731 72.2469 37.4331 72.0602 37.4198C71.9802 37.4065 71.8868 37.3798 71.8068 37.3798C71.7268 37.3798 71.6468 37.3531 71.5668 37.3398C71.5535 37.3265 71.5268 37.2865 71.5001 37.1931Z" fill="#008482"/>
<path d="M77.034 99.5789C77.1407 99.5522 77.234 99.5122 77.3274 99.4989C77.5807 99.4456 77.8341 99.3922 78.0741 99.3256C78.2075 99.2989 78.3408 99.2589 78.4742 99.2322C78.8475 99.1522 79.2876 98.9522 79.5276 98.8322C79.7676 98.6988 79.9676 98.5255 80.181 98.3655C80.3143 98.2588 80.421 98.1254 80.5277 97.9921C80.6077 97.8988 80.6877 97.8054 80.7544 97.6987C80.8877 97.4987 80.9944 97.2854 81.1011 97.072C81.2078 96.8586 81.3411 96.6453 81.4478 96.4319C81.5011 96.3386 81.5411 96.2452 81.5945 96.1519C81.6078 96.1252 81.6345 96.0986 81.6612 96.0852C81.7012 96.0852 81.7412 96.0986 81.7945 96.0986C81.8078 96.1252 81.8345 96.1519 81.8478 96.1786C81.9145 96.4853 81.9945 96.792 82.0612 97.0987C82.0879 97.192 82.0879 97.2853 82.1145 97.3787C82.1412 97.472 82.1812 97.552 82.1945 97.6321C82.2479 97.9254 82.3679 98.1921 82.5146 98.4455C82.5812 98.5655 82.6346 98.6855 82.7146 98.7922C82.9013 99.0722 83.128 99.3256 83.3947 99.5389C83.5947 99.6989 83.7947 99.8323 84.0081 99.9656C84.2881 100.139 84.5948 100.286 84.8881 100.446C84.9948 100.499 85.1015 100.552 85.2348 100.619C85.2482 100.659 85.3282 100.686 85.3015 100.792C85.2215 100.912 85.0748 100.912 84.9415 100.926C84.5948 100.992 84.2614 101.086 83.928 101.139C83.7414 101.166 83.568 101.246 83.3947 101.312C83.208 101.379 83.0213 101.432 82.8613 101.552C82.6613 101.699 82.4212 101.792 82.2612 101.992C82.1545 102.113 82.0079 102.219 81.9012 102.339C81.7412 102.513 81.6211 102.713 81.4878 102.899C81.4078 103.006 81.3545 103.139 81.2878 103.259C81.1811 103.473 81.0611 103.673 80.9544 103.886C80.9011 103.979 80.8611 104.086 80.8077 104.179C80.7677 104.246 80.7144 104.326 80.621 104.353C80.4877 104.286 80.4877 104.126 80.461 104.006C80.4344 103.859 80.3944 103.713 80.3677 103.566C80.3544 103.459 80.3143 103.339 80.301 103.219C80.2877 103.099 80.2477 102.993 80.221 102.886C80.141 102.579 80.0477 102.273 79.8876 101.992C79.7543 101.739 79.6076 101.499 79.4209 101.286C79.1542 100.979 78.8342 100.699 78.4875 100.486C78.2608 100.352 78.0341 100.219 77.7941 100.112C77.6874 100.059 77.5941 99.979 77.4741 99.939C77.3674 99.899 77.274 99.8189 77.1674 99.7789C77.074 99.7656 77.034 99.6989 77.034 99.5789Z" fill="#008482"/>
<path d="M90.6887 92.4975C90.7287 92.4442 90.7687 92.4042 90.8087 92.3642C90.9154 92.2575 91.0221 92.1642 91.1288 92.0575C91.1821 92.0041 91.2355 91.9508 91.3021 91.8975C91.4621 91.7375 91.6222 91.5108 91.7022 91.3774C91.7822 91.2441 91.8355 91.0974 91.8889 90.9507C91.9289 90.8574 91.9289 90.7507 91.9555 90.6573C91.9689 90.5907 91.9822 90.5107 91.9822 90.444C91.9822 90.3106 91.9822 90.164 91.9689 90.0306C91.9555 89.8839 91.9555 89.7506 91.9555 89.6039C91.9555 89.5506 91.9422 89.4839 91.9422 89.4305C91.9422 89.4172 91.9555 89.3905 91.9555 89.3772C91.9822 89.3639 91.9955 89.3505 92.0222 89.3505C92.0355 89.3639 92.0622 89.3639 92.0755 89.3772C92.2089 89.5106 92.3289 89.6439 92.4622 89.7773C92.5022 89.8173 92.5289 89.8573 92.5689 89.8973C92.6089 89.9373 92.6489 89.9639 92.6889 90.0039C92.8089 90.1373 92.9423 90.2306 93.089 90.3106C93.1556 90.3506 93.2223 90.3907 93.289 90.4173C93.4623 90.4973 93.6623 90.564 93.849 90.5907C93.9957 90.604 94.1424 90.6173 94.2891 90.6173C94.4891 90.6173 94.6758 90.604 94.8758 90.5907C94.9425 90.5907 95.0225 90.5773 95.1025 90.5773C95.1292 90.5907 95.1692 90.5773 95.1825 90.644C95.1825 90.724 95.1025 90.764 95.0492 90.8174C94.9025 90.9507 94.7558 91.0974 94.6091 91.2307C94.5291 91.2974 94.4624 91.3907 94.3958 91.4708C94.3291 91.5641 94.2491 91.6441 94.1957 91.7508C94.1424 91.8841 94.0491 92.0041 94.0224 92.1508C94.0091 92.2442 93.969 92.3375 93.9424 92.4309C93.9157 92.5642 93.9157 92.6976 93.9024 92.8309C93.9024 92.9109 93.9024 92.9909 93.9157 93.0709C93.929 93.2043 93.929 93.351 93.9424 93.4843C93.9424 93.551 93.9557 93.6176 93.9557 93.671C93.9557 93.7243 93.9557 93.7777 93.9157 93.8177C93.8224 93.8177 93.7824 93.751 93.729 93.6977C93.6757 93.631 93.609 93.5776 93.5557 93.511C93.5157 93.4576 93.4623 93.4176 93.4223 93.3643C93.3823 93.311 93.329 93.2709 93.2756 93.2176C93.1423 93.0843 93.009 92.9642 92.8489 92.8709C92.7023 92.7909 92.5556 92.7109 92.3956 92.6576C92.1689 92.5909 91.9289 92.5375 91.6888 92.5375C91.5422 92.5375 91.3821 92.5509 91.2354 92.5642C91.1688 92.5775 91.0888 92.5642 91.0221 92.5775C90.9554 92.5909 90.8888 92.5775 90.8221 92.5909C90.7687 92.5775 90.7287 92.5509 90.6887 92.4975Z" fill="#008482"/>
</svg>
