<?xml version="1.0" encoding="UTF-8"?> <svg xmlns="http://www.w3.org/2000/svg" viewBox="0 0 150.31 150.31"><defs><style>.cls-1{fill:#fec700}</style></defs><g id="Layer_2" data-name="Layer 2"><g id="Benefits"><path class="cls-1" d="M148.66 21l-15.35-3a1.35 1.35 0 01-1-1l-3.03-15.35c-.36-1.78-1.69-2.18-3-.9l-22.1 22.09a3.48 3.48 0 00-.84 2.78l2.2 11L74 68.18a5.75 5.75 0 008.13 8.14l31.59-31.58 11 2.19a3.42 3.42 0 002.77-.84L149.56 24c1.28-1.28.88-2.61-.9-3"></path><path class="cls-1" d="M89.37 45.25l8.68-8.68a.62.62 0 00-.12-1 47.28 47.28 0 1016.82 16.83.62.62 0 00-1-.13l-8.68 8.68a1.27 1.27 0 00-.23 1.33A34 34 0 1188 45.48a1.27 1.27 0 001.33-.23"></path><path class="cls-1" d="M77.2 57.42c.64-.64.44-1.33-.46-1.45a20.55 20.55 0 1017.6 17.6c-.12-.9-.8-1.1-1.44-.46l-7 7a11.1 11.1 0 11-15.7-15.69z"></path><path class="cls-1" d="M138.82 42.3L130 51.12a1.31 1.31 0 00-.25 1.34 60.59 60.59 0 11-31.9-31.89 1.29 1.29 0 001.33-.25l8.82-8.83a.56.56 0 00-.15-1 74 74 0 1031.92 31.92.56.56 0 00-1-.15"></path></g></g></svg> 