<?xml version="1.0" encoding="UTF-8"?> <svg xmlns="http://www.w3.org/2000/svg" viewBox="0 0 194.58 174.47"><defs><style>.cls-1{fill:#fcc433}.cls-2{fill:#525758}</style></defs><g id="Layer_2" data-name="Layer 2"><g id="Key_services" data-name="Key services"><path class="cls-1" d="M7.24 7.6h164.68v95.97H7.24z"></path><path class="cls-2" d="M59.36 150.6c-2.17 2.17 1.23 3.41 1.23 3.41h56.3s3.4-1.24 1.23-3.41-8-3.71-8.66-13v-7.42H68v7.42c-.61 9.28-6.49 10.83-8.65 13m109.19-50.41H9.86V9.87h158.68zm-78.41 23.19a5.41 5.41 0 115.41-5.38 5.41 5.41 0 01-5.41 5.41M171 0H7.12A7.15 7.15 0 000 7.12V121a7.15 7.15 0 007.12 7.12H171a7.15 7.15 0 007.12-7.12V7.12A7.15 7.15 0 00171 0"></path><path class="cls-2" d="M190.61 155.71h-56.47V86.58a1 1 0 011-1h54.53a1 1 0 01.95 1zm-28.24 13.54a4.13 4.13 0 114.13-4.13 4.13 4.13 0 01-4.13 4.13m27.25-87.59h-54.49a5 5 0 00-5 4.94v82.94a5 5 0 005 4.93h54.49a5 5 0 005-4.93V86.6a5 5 0 00-5-4.94"></path><path class="cls-1" d="M134.14 85.63h56.46v70.08h-56.46z"></path><path d="M162.25 121.68a3.76 3.76 0 113.76-3.75 3.75 3.75 0 01-3.76 3.75M57.45 53.36a10.76 10.76 0 013.18-7.64 11.11 11.11 0 013.18-2.2l.76-.35.24-.8a13.38 13.38 0 0112.62-9.46 14.33 14.33 0 012.69.25l1.44.29.63-1.34a17.37 17.37 0 016.26-7.27 17.2 17.2 0 0126.61 14.4 22.8 22.8 0 01-.16 2.34l-.15 1.53 1.15.58a10.81 10.81 0 014.9 14.47 10.66 10.66 0 01-9.25 6H68.7a10.93 10.93 0 01-11.25-10.8m36.43 35.32a3.75 3.75 0 11-3.75-3.75 3.75 3.75 0 013.75 3.75m-34.21 3.75a3.75 3.75 0 113.75-3.75 3.75 3.75 0 01-3.75 3.75m102.58 18a7.38 7.38 0 00-7.26 5.67h-44.66a3.82 3.82 0 01-3.75-3.83V67.93h4.53a14.55 14.55 0 007.62-27c0-.56.08-1.12.08-1.73a21 21 0 00-32.43-17.5 21.33 21.33 0 00-7 7.57 19 19 0 00-2-.11 16.7 16.7 0 00-10.17 3.45 17.44 17.44 0 00-5.77 7.88 14.55 14.55 0 006.78 27.44h4.58v15.12a3.82 3.82 0 01-3.75 3.83h-2.11a7.41 7.41 0 00-7.27-5.67 7.51 7.51 0 107.27 9.42h2.11a7.58 7.58 0 007.51-7.58V67.93h11.69v13.48a7.5 7.5 0 103.75 0V67.93h10.83v44.37a7.57 7.57 0 007.5 7.58H155a7.51 7.51 0 107.26-9.42" fill="#fff"></path></g></g></svg> 