<?xml version="1.0" encoding="UTF-8"?> <svg xmlns="http://www.w3.org/2000/svg" viewBox="0 0 147.97 147.97"><defs><style>.cls-2{fill:#525758}</style></defs><g id="Layer_2" data-name="Layer 2"><g id="Sectors"><circle cx="73.98" cy="73.98" r="73.98" fill="#fdc533"></circle><path class="cls-2" d="M57.18 50.6a17.7 17.7 0 11.46-35.4 6.32 6.32 0 011.57.14 14.83 14.83 0 003.1 29.31 14.74 14.74 0 0011.52-5.27A17.65 17.65 0 0157.18 50.6z"></path><circle class="cls-2" cx="90.81" cy="66.2" r="12.54"></circle><path class="cls-2" d="M121.81 94h-12.19c0-6.27-6.27-12.54-18.81-12.54S72 87.74 72 94H56.63v-6.26H66a3.14 3.14 0 003.14-3.13V65.8A3.15 3.15 0 0066 62.66H41a3.14 3.14 0 00-3.13 3.14v18.81A3.13 3.13 0 0041 87.74h9.41V94H26.16a3.14 3.14 0 100 6.27l3.13 16.45h89.39l3.13-16.45a3.14 3.14 0 100-6.27zm-16.5-64.56l-4.67 3.38 1.77 5.48-4.66-3.38-4.67 3.54L94.85 33l-4.67-3.4H96l1.77-5.47 1.77 5.47h5.79zm-17.22-3.22l-3.38-2.41-3.38 2.41 1.29-3.86L79.4 20h4.18l1.29-4 1.29 4h4.18L87 22.36zm31.47 5.64l-3.38-2.41-3.38 2.41 1.29-3.86-3.22-2.42h4.18l1.29-4 1.29 4h4.18L118.43 28zM32.49 46.8L30 45l-2.44 1.8.94-2.8-2.34-1.76h3.05l.94-2.93.93 2.93h3.06L31.67 44z"></path><path class="cls-2" d="M75.84 72.73a9.53 9.53 0 0011.34 4.1 1.9 1.9 0 10-.59-1.47 7.88 7.88 0 01-2.57.43 8 8 0 01-6.41-3.24 2.58 2.58 0 001.47-2.32V65.1a2.56 2.56 0 00-1.43-2.3 13.18 13.18 0 0126.32 0 2.56 2.56 0 00-1.43 2.3v5.13a2.56 2.56 0 002.56 2.56h.13a2.57 2.57 0 002.57-2.56V65.1a2.56 2.56 0 00-1.47-2.32 15.54 15.54 0 00-31 0 2.56 2.56 0 00-1.46 2.32v5.13a2.56 2.56 0 001.97 2.5z"></path></g></g></svg> 